<svg xmlns="http://www.w3.org/2000/svg" viewBox="0 0 440 300" width="440" height="300" role="img"><g><g><path d="M40.42518627919043 24.478068401169587 C38.33483530720172 73.37800762824673, 38.21561645432001 120.7440650988198, 39.60639222389981 268.19459090775086 M39.67827428313669 24.131235850912947 C39.80355570976409 78.41344098294901, 39.62844459328247 132.1407558695811, 39.71214545064737 268.3733822793481" stroke="#d1d5db" stroke-width="0.75" fill="none" stroke-linecap="round" stroke-linejoin="round"></path></g><g><path d="M94.13947199347615 24.478068401169587 C92.04912102148744 73.37800762824673, 91.92990216860574 120.7440650988198, 93.32067793818554 268.19459090775086 M93.39255999742241 24.131235850912947 C93.51784142404982 78.41344098294901, 93.34273030756819 132.1407558695811, 93.42643116493309 268.3733822793481" stroke="#d1d5db" stroke-width="0.75" fill="none" stroke-linecap="round" stroke-linejoin="round"></path></g><g><path d="M147.85375770776184 24.478068401169587 C145.76340673577312 73.37800762824673, 145.64418788289143 120.7440650988198, 147.03496365247122 268.19459090775086 M147.1068457117081 24.131235850912947 C147.2321271383355 78.41344098294901, 147.05701602185388 132.1407558695811, 147.1407168792188 268.3733822793481" stroke="#d1d5db" stroke-width="0.75" fill="none" stroke-linecap="round" stroke-linejoin="round"></path></g><g><path d="M201.56804342204757 24.478068401169587 C199.47769245005884 73.37800762824673, 199.35847359717715 120.7440650988198, 200.74924936675694 268.19459090775086 M200.82113142599383 24.131235850912947 C200.94641285262122 78.41344098294901, 200.7713017361396 132.1407558695811, 200.8550025935045 268.3733822793481" stroke="#d1d5db" stroke-width="0.75" fill="none" stroke-linecap="round" stroke-linejoin="round"></path></g><g><path d="M255.28232913633326 24.478068401169587 C253.19197816434453 73.37800762824673, 253.07275931146285 120.7440650988198, 254.46353508104264 268.19459090775086 M254.53541714027952 24.131235850912947 C254.66069856690692 78.41344098294901, 254.4855874504253 132.1407558695811, 254.5692883077902 268.3733822793481" stroke="#d1d5db" stroke-width="0.75" fill="none" stroke-linecap="round" stroke-linejoin="round"></path></g><g><path d="M308.99661485061904 24.478068401169587 C306.90626387863034 73.37800762824673, 306.7870450257486 120.7440650988198, 308.17782079532844 268.19459090775086 M308.24970285456527 24.131235850912947 C308.37498428119267 78.41344098294901, 308.19987316471105 132.1407558695811, 308.283574022076 268.3733822793481" stroke="#d1d5db" stroke-width="0.75" fill="none" stroke-linecap="round" stroke-linejoin="round"></path></g><g><path d="M362.7109005649047 24.478068401169587 C360.620549592916 73.37800762824673, 360.5013307400343 120.7440650988198, 361.8921065096141 268.19459090775086 M361.96398856885094 24.131235850912947 C362.08926999547833 78.41344098294901, 361.9141588789967 132.1407558695811, 361.99785973636165 268.3733822793481" stroke="#d1d5db" stroke-width="0.75" fill="none" stroke-linecap="round" stroke-linejoin="round"></path></g><g><path d="M416.4251862791904 24.478068401169587 C414.33483530720173 73.37800762824673, 414.21561645432 120.7440650988198, 415.60639222389983 268.19459090775086 M415.67827428313666 24.131235850912947 C415.80355570976405 78.41344098294901, 415.62844459328244 132.1407558695811, 415.71214545064737 268.3733822793481" stroke="#d1d5db" stroke-width="0.75" fill="none" stroke-linecap="round" stroke-linejoin="round"></path></g><g><path d="M40.3120184513898 268.35082543697166 C115.08530943921679 268.0073481905653, 190.19951228646715 266.9542596747072, 415.711155098919 268.14279847836707 M39.76390498738788 268.09630604037045 C123.38825901796808 267.40993953647205, 206.4880669135717 267.20259561273696, 415.78876098521914 268.27400263432867" stroke="#d1d5db" stroke-width="0.75" fill="none" stroke-linecap="round" stroke-linejoin="round"></path></g><g><path d="M40.3120184513898 214.12860321474946 C115.08530943921679 213.78512596834312, 190.19951228646715 212.73203745248503, 415.711155098919 213.9205762561449 M39.76390498738788 213.87408381814825 C123.38825901796808 213.18771731424985, 206.4880669135717 212.98037339051476, 415.78876098521914 214.0517804121065" stroke="#d1d5db" stroke-width="0.75" fill="none" stroke-linecap="round" stroke-linejoin="round"></path></g><g><path d="M40.3120184513898 159.9063809925272 C115.08530943921679 159.56290374612087, 190.19951228646715 158.50981523026277, 415.711155098919 159.69835403392264 M39.76390498738788 159.651861595926 C123.38825901796808 158.9654950920276, 206.4880669135717 158.7581511682925, 415.78876098521914 159.82955818988424" stroke="#d1d5db" stroke-width="0.75" fill="none" stroke-linecap="round" stroke-linejoin="round"></path></g><g><path d="M40.3120184513898 105.68415877030499 C115.08530943921679 105.34068152389867, 190.19951228646715 104.28759300804057, 415.711155098919 105.47613181170044 M39.76390498738788 105.42963937370381 C123.38825901796808 104.74327286980538, 206.4880669135717 104.53592894607027, 415.78876098521914 105.60733596766204" stroke="#d1d5db" stroke-width="0.75" fill="none" stroke-linecap="round" stroke-linejoin="round"></path></g><g><path d="M40.3120184513898 51.461936548082775 C115.08530943921679 51.118459301676445, 190.19951228646715 50.06537078581835, 415.711155098919 51.253909589478226 M39.76390498738788 51.20741715148159 C123.38825901796808 50.52105064758317, 206.4880669135717 50.31370672384806, 415.78876098521914 51.38511374543982" stroke="#d1d5db" stroke-width="0.75" fill="none" stroke-linecap="round" stroke-linejoin="round"></path></g></g><g><g><path d="M68.23911221713453 227.59600540600735 C68.23911221713453 227.59600540600735, 68.23911221713453 227.59600540600735, 68.23911221713453 227.59600540600735 M68.23911221713453 227.59600540600735 C68.23911221713453 227.59600540600735, 68.23911221713453 227.59600540600735, 68.23911221713453 227.59600540600735 M44.167972850505116 255.95101049742613 C53.63308612458677 246.63700799766633, 62.268378098712944 239.11396008091384, 92.79579497728444 206.32613157341353 M46.362621502283815 257.83608050695574 C61.51651454860478 243.44154075583745, 75.17755105951017 224.70172994411288, 91.15971352461672 207.03832985023132 M44.56717628423039 270.6004900627185 C63.82046877288398 243.95245201444797, 87.4402278088844 221.57562745469443, 101.68281764670604 201.25617377770382 M44.853450864887876 268.56077298003925 C64.65423646619664 242.8739265892753, 85.52069609471492 219.74838719298927, 100.25296630992882 201.70229620498856 M47.52304497502147 267.07741767803304 C70.87707362945837 241.8218014687529, 90.37470235890902 220.04539943558873, 106.0730137991048 203.17390267705338 M48.32942906610071 267.2438781637894 C63.252049231099654 253.39550025534842, 77.37578366272645 235.93879053585883, 106.52938983163607 200.90136899357455 M54.41297257273274 267.9317432570701 C73.03559891584827 249.08103944559554, 88.44516212785864 229.05665205674526, 110.31259654818327 198.8320399015982 M54.04641655265169 266.70609792503166 C74.34080104458249 248.73775516550515, 92.35072423347017 224.5811477886488, 112.43085150031597 202.71683429925034 M58.115758988133194 267.6741554915251 C80.36859021399758 248.86592533019927, 96.60537520084854 227.61764666597486, 117.36435886269143 203.6099799825883 M58.29136753218484 267.6741854085864 C81.06309578939488 246.3321781824633, 99.39150813448403 224.60044822357918, 118.89548608159353 202.25196360639097 M63.23131524795385 269.04962975220275 C82.584138660713 244.79374909179367, 101.07319272531905 221.02583581568186, 120.38796871137926 203.84024245127375 M64.55203482830616 267.9044929383833 C82.03065937764742 246.8117669808012, 101.47859629770473 223.5195672119305, 122.48799084109375 201.20846589937148 M69.13219126296369 267.17510473079847 C81.83093357938144 253.3362194188751, 102.40827071297878 232.7798606175425, 126.23996906299678 202.10847183890453 M68.91849764865961 268.77064865924285 C86.08217318479937 249.8547815784864, 99.80559988585313 232.3961840545154, 130.0496255444416 200.4364876625668 M73.11204805989371 269.6018057981167 C93.69274602557338 246.14890018238066, 111.74559377304433 224.37995044633442, 137.373777886294 201.75343767673058 M76.78163381685124 268.1758798950944 C96.94709502888615 245.50913329737006, 117.25609576861049 222.82559115343696, 133.34821245726215 200.48461288035196 M79.03718554951288 267.6529216458531 C90.62772972981273 251.3795467522773, 104.73555440443427 238.49889475115532, 138.25180620800188 199.45761533555643 M81.83464754052498 267.14068979075864 C100.07503649736432 246.01773488364137, 118.13171915476559 222.74840035596233, 141.04025440316133 199.04044387665644 M87.69501475855228 269.2859276448119 C107.0140715529978 236.73184087274655, 136.18145190101944 215.1445037356061, 154.04545811283253 188.94718602574093 M85.97154164328691 269.1151806701649 C112.69567117551134 239.0852759783061, 135.94872220277838 212.7003735154789, 153.32093476372623 191.48060131496413 M92.64558559778087 270.4302624866889 C123.0044789975628 237.15528392568746, 152.96998148658218 198.86883879503583, 173.04724880145997 172.78261763675195 M91.088645332781 267.36673067813376 C115.41776470086141 239.22756537851296, 135.79686326757107 211.60459347616495, 171.48623553650586 174.71130503786785 M95.51400006493913 269.4043611225112 C110.8258138087401 246.92572388717983, 134.9777361228696 223.30895511597066, 194.05721080777658 160.83582340318108 M95.92702740362273 267.44702671881754 C125.06572560657864 231.55484589137558, 157.83327377088366 194.5628555067525, 193.26934355226769 158.49553273308422 M98.7222351577676 266.479783503306 C128.97078015312036 238.46040051400433, 156.46046667757383 209.46970895468007, 204.9086058396178 148.9035840782832 M100.75431915042765 267.60619319636834 C140.52303644035737 224.44869759455696, 180.3446171788343 178.10915225944734, 204.91636231572207 148.9164421069931 M107.82096578703525 266.6453433207689 C137.94179263312896 232.9647777943033, 162.93750397224147 200.94038382135452, 212.44821992371467 144.2340000328628 M107.2465372808397 269.6069207556067 C139.49604308123605 234.0282731976354, 167.16701914232246 198.97388467561865, 213.51660715047507 148.353822983524 M111.58197797947307 271.6241409457043 C145.09249144559348 232.58493289730546, 174.06104777023205 191.03843593473886, 215.9878911737697 146.46416789705606 M113.73049711846491 267.5914992204622 C136.6139805281515 234.39831759632793, 166.16748692230888 203.87545480300918, 218.00413296710417 147.67177394593807 M119.4496966458501 267.2112400698079 C146.52456011621825 235.6127222951429, 179.6871378545679 198.5748032812063, 224.3242146455044 148.69372846144464 M118.18534037094727 269.0694942357553 C153.06068942519377 227.6725528903776, 188.46115487566163 188.4259389827606, 222.12743911820596 146.542250237942 M123.08965781289729 265.73599106388394 C151.64143872441585 235.40006929295583, 179.50379481221213 202.22115340799832, 227.3824833076688 145.13957625727852 M123.74100736189277 267.0300706254155 C150.00703319170222 237.7520725558318, 176.41024082215318 207.39760581922133, 229.24341036940535 146.74977334391076 M127.44003639138367 267.79970761962807 C157.64697801625044 233.35390145797703, 181.51850322074404 202.5641555000567, 237.02880610002236 146.1264403960305 M128.87976479894544 267.32966903426325 C159.04254862796284 230.25047347961635, 190.17498957822164 197.68134482119018, 234.27943495733697 148.03201182844217 M131.46011840804027 266.3379901078448 C162.4055238059027 237.7411265044146, 191.18756099268472 204.51657622059196, 242.79434404929614 143.568046248505 M132.9346780057113 267.2043292862282 C165.05757483689814 234.27505508047165, 195.29400472139486 201.30298938172413, 241.0076407056067 147.21094301546563 M139.981828773636 265.9584022202296 C164.3830067992363 239.8338688249384, 195.64149038556334 205.6225155507603, 248.75107415323063 143.28595376572926 M139.09113868983428 269.85736702613065 C171.03990954790999 229.32722850772626, 204.70360096102291 192.04858667258617, 246.8706589088301 144.96169130913336 M144.458203514902 267.80279432758687 C180.87478646263457 233.39629554600157, 217.45645761992674 194.33720512657686, 251.5557303515853 140.66426705917607 M143.88533717492044 269.37169707790014 C187.10605715782285 217.63880262325603, 229.02185129871722 170.21482883893515, 253.7755653036417 142.31723777404318 M147.61491754260715 269.68498012161234 C194.89575281236887 217.2965350263866, 241.21743834876716 165.62828661105112, 270.59068896099626 132.2289906974222 M149.80579016861373 268.49751008635735 C195.95282604924805 218.868133322532, 240.6754851522413 165.4696838743218, 271.78476550355253 129.89777643189686 M156.74912494034683 269.9525831131197 C197.7154446532571 217.6918184700449, 240.13791904803102 165.84067954808535, 291.9570055518664 115.16818680782625 M154.78500402526663 266.9369408770235 C185.96485799646618 234.33388165995657, 211.17334009891366 204.76171601609656, 289.7338759258979 111.88657488214321 M158.6180616777428 268.6364856723135 C210.621632829493 214.280768817554, 254.18084519621033 164.49519298444196, 311.2187161091989 94.63989834571699 M158.62309694718442 268.67311160988 C197.00483553636448 229.1491768144069, 233.01469144725928 189.65133455679563, 309.6256738848826 95.25383461126175 M166.87857805550715 269.2866656753745 C194.63386985020713 232.9632966137804, 223.45230819222388 202.3505144368064, 318.7837419580946 92.87445584420931 M164.44027874303694 268.5463454257431 C206.64971479680605 224.0590595493348, 244.77356948963873 177.68845593113952, 315.51675914244436 95.10078559149422 M169.4340112819395 269.184347949267 C216.92809669293877 212.21855369958925, 261.64359367298624 161.14903267835123, 324.380954645819 91.92764478393877 M170.06722977086997 268.5834171922313 C212.31040950916073 215.29022171179147, 254.89128561699923 165.730574904164, 323.2598723582338 93.2664645987749 M173.3931238575518 267.5763917098814 C229.40667713704102 207.75585990027594, 276.78818876758476 151.75635695331636, 329.9927969080966 93.40287938147193 M176.16114597952065 269.41933246760186 C218.4909024389982 214.72856809162465, 264.21299542936447 164.15786056134115, 328.9402231750952 93.65222519047852 M181.5954973391512 266.578336271944 C237.16087565199223 204.668693891004, 293.6353968658908 142.64077358005278, 331.95022357021577 89.65706523657921 M179.82227755268795 267.3948661448962 C217.34114600987814 225.23297659624606, 258.69166608364173 179.65066810040767, 334.83061787796316 90.8021684315167 M188.01457053977487 268.2828952357756 C224.650515182866 223.7863831403482, 263.0291190493291 177.84941592688315, 341.146881617889 92.45956748974787 M185.43048629854476 267.9055248973981 C233.7148574393747 211.06795665822494, 284.5282401020409 156.12942845741267, 340.42363363651594 91.94289414891053 M192.36460000835578 270.4271230639725 C244.11820114395204 207.15034258878742, 297.3763199085266 150.13091493756957, 345.3405726835193 93.04084434846376 M192.8625312041914 268.93971724691977 C247.23319034907843 209.82795817348494, 300.2565160693958 148.06873080771055, 344.5427775676513 90.54969588297985 M195.46790488087288 268.88218479532156 C262.1869305677193 202.34627736141366, 324.6009826094084 127.69979383373376, 349.9132448694031 90.28326240375084 M197.5677170991189 269.0110197503378 C255.33536284757537 202.20820556299563, 311.36389456260383 138.64553130597906, 351.63187405950873 90.50903239112813 M202.99616116065837 269.474228121817 C255.93325615562048 206.90588439228353, 310.2647846264754 149.70045259011175, 358.51264212366084 86.90762349338165 M203.0424750633052 269.6022995863477 C247.74165392178503 214.6759433606184, 293.86252742467383 161.3707157562547, 357.1230129246808 88.88965904896635 M210.0804690983184 268.91504544688564 C264.68278067338093 200.31172585155042, 327.499160055049 130.62276811277155, 371.9115973863877 83.65863401386218 M207.46138400217427 266.95753619351774 C266.2469596473231 204.74008790788508, 324.2249113595752 137.6293224770654, 371.13082487904137 82.37289861900913 M397.5002043638835 44.848732465748945 C403.5241728999176 39.465613939326566, 411.36350820276374 33.79315951762715, 413.2965292437072 26.524654891018876 M400.6851834733496 46.175325502698584 C403.2489454141467 43.21079484424258, 408.32927533663224 36.390420208723754, 416.60693517011356 27.929128453557503 M213.62321353145876 267.8694113630347 C262.0139749018488 209.52067920006957, 310.51381388741316 152.8894026839154, 418.40864465936284 32.90622831104789 M213.92565262062996 268.3751135462216 C255.56897188561751 218.68804036885447, 299.7813349601855 168.64704540827137, 415.42534076526823 34.41851007170069 M216.50560940835427 271.13485814764715 C280.3558027277272 191.82127689645495, 346.91100003402187 119.0130001249409, 415.47312540991567 40.67195589526441 M218.07646428129286 268.4161411269892 C261.6638170218713 219.6970973315903, 306.70775980499116 167.60655005660774, 415.82001093841126 41.64363086669929 M223.77849250825588 270.64818451437856 C281.2789572444084 201.1263291189423, 337.3603650936302 137.50913706032435, 414.2626273773613 48.70810868740083 M223.13402295226382 268.04830930186586 C299.1366068867019 188.049027797841, 368.3059301427256 107.31087869984543, 417.3475531907002 47.697904849625424 M228.27262310129765 268.62520495415333 C294.84833281592836 188.33441805493254, 361.8194283513872 116.05243109982766, 416.7508888827713 53.15340214244373 M229.48536544251965 268.81220576129243 C290.1689711246059 196.66418879786414, 350.11689393620134 125.12237452561611, 414.9481652081431 52.28993776638852 M235.33335639883666 268.4461721965986 C279.0842908094737 223.02884575742178, 320.5464403763195 173.47019801591892, 415.47735154990653 57.546564911298354 M235.35581293565951 268.4592752533456 C274.1286339286104 224.59541538888658, 316.1458207259615 177.1082008673627, 416.874923160999 58.24049707774426 M236.75498909522491 266.40272215385534 C291.42686730872805 210.0577255891251, 342.72974703756176 148.0284391116109, 416.50328023965767 63.839591398522 M240.09106541468026 268.60670658288456 C299.80707306582065 203.33603347917926, 356.8095924194797 137.83183359510514, 416.3435183804104 64.64031087239003 M246.57242872340333 268.110953931722 C309.5640429846803 190.69697353437678, 377.31693415713244 115.96700073177388, 416.56979110237614 69.75516220726819 M244.8716183783836 269.21635364414664 C294.29517696407555 210.1481317764622, 346.08389134623786 150.48868273793772, 415.22550232844765 70.45984678456716 M249.09263775505792 270.1020292905813 C293.8180347769861 221.3839260332127, 337.2437846253692 174.43226738200875, 418.30399153299675 76.36910291982734 M248.86344006343876 268.70282482172644 C314.47953148869624 197.35152429271204, 376.9329561317548 123.95399910026451, 416.80152805712714 77.32585153841474 M255.4907439780603 266.3218764572628 C307.26843408102934 205.16735160882814, 361.7939253362851 149.3044322117586, 418.2646267587642 84.51207447107741 M254.7383768729179 268.52052493007085 C305.7876973751964 205.70025920780347, 358.39659832340004 146.50675136459128, 416.64473752266747 84.60567084592745 M261.32366389967257 270.74527712085296 C296.45002962037404 226.4243145465374, 334.68216150288623 185.86211336492113, 417.49265633689635 92.33920565236615 M259.687593503129 268.1010970867819 C293.89205424622253 225.18377703314985, 329.94364849152873 183.7271142874808, 415.0392688818473 89.50616426037115 M267.961400929292 266.83413290048685 C303.31060188983895 224.64803286835922, 334.65716689694943 188.14589417440018, 418.00783722305516 97.9730868524916 M266.0824584816454 267.04113311186063 C313.29082722288285 215.55043121796677, 361.02385527826544 162.2237658338946, 416.83152725729144 96.64345907131728 M270.2595066403733 267.1354970218931 C317.1852637613756 219.50528059973868, 357.59388612215446 172.32145036236008, 416.3095714028828 99.44332295999494 M269.7400666404716 267.7243843286578 C304.2012832494971 228.51156458349715, 342.45266255019953 185.77426767908756, 416.19287796741054 101.99486151821033 M279.3355825235828 267.6108203686595 C322.1976901752125 213.86439097115687, 371.95930945253923 163.68972147477325, 417.0909100192333 106.52825328127638 M276.3235321369488 266.932986680258 C313.01797151531565 227.5837030367305, 348.96884193482174 185.24010217217207, 416.19905675595226 108.31196000022881 M282.26259700487526 270.15572447401473 C330.9871951846029 211.1377907095581, 380.7154542177853 152.66669087420553, 417.9910527902487 111.28319013237713 M281.18537799683156 269.3085391962623 C332.1606078786369 213.30898985194204, 380.6083159479458 155.2397474217064, 415.74334093507713 115.29917314306729 M287.20139430458175 268.58669906593656 C315.83527009934295 231.69955318483474, 349.615060447794 193.30194265924916, 417.92825412878045 122.33806868800684 M285.6790362730108 267.642157106472 C327.46780705881497 227.70550053322066, 362.77177651960665 185.69709436857406, 415.65858884432566 121.72512276926801 M294.3337064768181 266.1669195279307 C321.4404832354128 237.06192821089815, 352.08366315245723 198.14160906472603, 414.99847231195054 123.84002879456824 M291.6557331631885 268.11709731219474 C336.1925390540141 220.55383292596073, 377.1214031920583 170.80564397134938, 417.1479521824487 124.58285761223382 M300.99509708722474 268.9123309223974 C325.99046748251203 229.02288801542838, 358.08825539904154 197.90959590598695, 417.0351625940597 132.8967747752977 M296.8438983230794 267.1967868610347 C332.78162507752614 225.1129908756249, 368.79053939399154 184.15924127163677, 414.9626911229289 131.02639181813723 M300.71749104657044 265.53049694103214 C332.867897645738 233.34600793005157, 367.9951881600362 195.3902630811074, 414.26636100183913 135.47515700099967 M304.4789234603273 268.8345413978121 C341.2445701301596 227.25657475217935, 374.6820367787325 185.80671528720512, 415.25149598937224 136.92614021090768 M308.85392438158647 270.06326795463946 C337.57487140972654 239.3061443277888, 363.9447836916749 202.87654794762233, 416.9927424460577 143.81398916336977 M309.5469988985385 269.46327574645665 C346.0408747381081 228.19740552846966, 380.7620170246766 187.872536833808, 416.11538348942275 144.8197934353658 M310.4300720030416 270.8244576549149 C352.8598480124429 217.47974980744456, 392.64164477597717 175.8696974606439, 416.48003392445594 150.04108121343518 M314.5866413453568 269.3831805517889 C337.8524974458773 241.21831906316982, 362.5006759495766 211.73096348860378, 415.65010991769583 149.57935089566374 M317.69271993766694 266.4621664126628 C359.11177519660276 230.2099022689821, 390.96650231003935 185.95927907949192, 419.29083743477446 154.53736810222304 M319.1871661243882 267.274045637738 C356.5019591121974 227.33810739673544, 389.8770911120036 190.57706176509757, 415.02799406880723 155.62524949595368 M324.3612930962314 266.0964579195789 C349.82643955159733 241.3689567305221, 375.98636582760906 210.40017933253742, 414.4164528877821 165.5010385214291 M322.99021494327684 268.38293664912493 C346.13867593654845 240.9260222049786, 370.91731094647656 217.1560547064233, 416.77974015040064 163.74049238105636 M330.5202684764756 268.53639212669026 C353.95263489017213 236.7870522719973, 383.1804035810395 201.29274927482234, 414.1692913102099 168.56456784185767 M330.5321690966381 270.19122799010165 C352.02356706732456 238.96093306273815, 376.23642731393755 210.28902362875178, 415.23685098608223 167.93768187490105 M332.15099807614007 271.44415398502406 C366.18443276888746 234.5319371561701, 398.44236466534016 198.07536658557243, 418.03440261282697 174.93239475520429 M335.12597237908756 270.02873156482036 C361.0463933694897 239.28765130296318, 383.19299285231114 210.47211308253327, 417.133155783496 174.84669612230834 M339.46353180599357 270.89918218627605 C364.80854845884136 237.30265102901407, 393.4184135620364 209.7046673603702, 415.16188879337363 178.19795421249626 M339.54295399826907 267.8878255181018 C355.90248656342794 247.94223332064723, 372.92417294623436 229.17119567827126, 416.04722333725744 181.38172202743053 M347.3890306927674 269.41520210125054 C376.8570824414828 237.28263495853116, 404.7035945584126 203.83437988220064, 415.4987268495906 185.90780616476079 M346.4552417777889 269.6904871738752 C366.5214715961123 244.75950394561067, 387.9349082677986 221.18320916520713, 416.28418494198206 187.15538399441976 M350.63129464723033 266.47790242164314 C375.61953007437046 243.5002246584884, 395.6267698846774 216.0810067297424, 413.7205916922466 190.3257643036933 M350.2372899252908 268.27596967696127 C374.59068592916407 239.66040888886099, 401.7964097151502 207.7879488909261, 416.75755730531375 192.49287266809654 M353.2152346961135 265.80725851825827 C374.94440384346444 244.68355292556654, 394.3354777643965 223.63069708332108, 414.1242693480729 198.84992900009846 M356.86435126438084 268.31312535128944 C366.9843331196952 251.63399814325098, 380.70445244903914 235.575597586142, 415.83165575085866 200.0989778723905 M357.9384007501858 265.8952090827915 C377.45806302586624 255.8186940388388, 391.43103958416486 239.25669727208174, 416.8791847278384 208.55036394567165 M359.714005002703 267.2880823416802 C381.1826347174286 242.7147286330875, 401.7788399834911 221.86894551931448, 417.5231219862607 204.045765252122 M369.5194538361783 267.26797948604724 C382.7088896357239 247.15299611911388, 401.58208579463115 229.868557930713, 417.3198148292835 210.98612909144015 M365.86462896386337 267.616567972063 C384.59050493948314 245.72051314306816, 405.43660211292826 223.61137915483295, 417.1433373061354 210.63960921144337 M371.24969386486 269.4237584197211 C384.2353813869487 257.4264869378261, 391.7152336991062 239.68497426149628, 414.67751165014886 220.5694093884312 M371.8969273555059 267.2315853872585 C384.1837874102018 257.2348095386997, 395.2047760298819 242.3836368812714, 417.18024550509836 217.23532165450683 M379.3415318629619 265.2950212546175 C389.85598882809205 256.3580163350626, 401.8846129248337 239.27155832240547, 417.61232510120334 222.9296435283404 M377.3924030012366 268.495736911196 C389.7162616730664 251.93419674461651, 405.19271969054836 236.95237360837254, 415.98017579079334 224.65028072613293 M381.18001774125304 270.18620668243193 C391.5483222602194 260.16485723735855, 402.00668400524387 247.83812848771956, 414.70541620917805 227.730556881972 M383.13488510869945 268.7889006886961 C395.94725632280625 252.82946142232453, 410.072248436622 239.5700834410282, 417.3902559868265 230.831463750251 M389.67131252646425 271.4360400739689 C395.41527759335247 258.34830978526145, 404.8474769826602 247.5747740803479, 415.11058488484196 233.60783814102183 M388.60900150150036 269.4205540436883 C393.00121426682006 260.3351106305548, 399.2160461022765 254.64664260940188, 416.15994030084187 237.4431238716818 M394.2942161293647 270.15521012092404 C402.65795282930424 262.56362662192515, 406.6106240331621 250.97338066438653, 419.04668312593554 242.5861722565169 M393.4017063872836 269.4174501209932 C399.2197826096065 261.91044769853613, 405.12534832151516 252.11477782519208, 417.18342252745487 243.53382299457738 M396.2486395766854 269.28869219410166 C404.0556194400426 261.2818272285918, 406.14215608117195 255.05268107032515, 416.92943793019936 246.8433691794845 M397.90075258965487 268.0359412445401 C403.8265254504492 260.7452841013933, 411.06242081251787 253.13752233019318, 417.78145896128103 248.35056052309002 M404.26942369817124 270.45837487899973 C407.1655969729483 261.9623153710779, 409.2901525498822 260.61710369816996, 417.23901413345897 256.9364150133898 M404.63905590838124 268.17479392425435 C405.6718381505656 264.577748255577, 408.6721609982142 263.4067296601678, 417.1249353799429 255.68090403878892 M410.9380577380002 268.61136792110096 C412.8233576118812 266.0056054674111, 412.9802468907306 262.8358348300109, 415.15925410451086 261.36009796479027 M409.4616529328913 268.7550205091555 C409.9766476739832 266.879657169464, 413.14057950317783 264.5778319039469, 415.6184116549203 259.91421377868636 M414.2281265690291 268.6232649556564 C414.89315809332913 267.7717890917762, 415.05602190216706 267.44472024229975, 416.4073815034814 266.8179119594262 M414.011922656011 268.4041796585934 C414.89122128857497 267.96612505010285, 415.17748076949704 267.35192954763244, 416.3190100913979 266.32147927647986" stroke="#ef4444" stroke-width="1" fill="none" stroke-linecap="round" stroke-linejoin="round"></path><path d="M41.1141067851359 269.2526727121022 C41.64489989242575 266.75686587856853, 43.12295345039869 260.2854008342263, 47.92063771128636 254.95388251799605 M39.1569887796177 268.3438745771232 C42.626929666238595 265.96409114089107, 44.149631776951395 262.22309357517827, 48.19774069705018 255.42236583923474 M48.952 254.444 C58.63493015944958 243.34772679054737, 73.01090651214123 215.53624756920337, 91.07407380187512 203.26349031364919 M50.920413016200065 257.3087049933672 C56.3053869189322 239.725963776201, 76.96844099894166 211.60345991286636, 90.6949450520575 207.29960786780717 M93.714 204.741 C112.39350327575207 192.95162382805347, 127.17380396926403 204.82840034401417, 148.3815686711073 193.1463230201006 M95.01600590789317 205.86817991173268 C115.2594735173285 197.6411549640596, 129.13127012053133 206.63698816737534, 144.32574713507296 196.66495710620285 M147.429 195.704 C164.15451474654674 189.60533055794238, 182.59236243712903 161.9852026549578, 200.83415423858165 147.82525057518484 M146.67035746657848 196.07026920998098 C165.00962594214081 187.63785307940842, 186.1669961232245 159.52786416968704, 197.6711902398169 149.99006620177627 M201.143 150.519 C218.6258981655836 143.8033508864641, 236.7516405094862 149.36603340828418, 257.8616390980482 141.61490188515185 M200.69265128600597 152.53622679436208 C219.37919282618165 142.56991261443494, 234.7328113898337 152.86559866198897, 252.04477924910188 140.61313339671491 M254.857 141.481 C273.45946212661266 135.63831371986865, 288.18457178008555 103.24039651024341, 310.53970684325697 94.14403085625172 M253.99394595992564 138.599431571126 C269.8174290522635 131.37978181132672, 292.59081455317136 108.66529613646864, 310.1929252957404 99.93195068320632 M308.571 96.296 C327.9568902233839 89.71097296440601, 341.9679648426771 96.67592086708547, 362.6919160679579 84.43351639473438 M311.73117508208753 97.10738744652272 C324.85049575319886 87.50350266227126, 341.3290104960501 98.83065483531357, 360.54194576254486 83.69690380343795 M362.286 87.259 C382.16574104964735 76.41820752632617, 399.2285032910109 52.84836038506031, 405.033700365901 40.49836240684986 M360.8091472462416 87.69972332680226 C379.60246031180026 75.173710909456, 395.2523103512824 51.4789667507112, 407.68706428232787 40.06797224959731 M405.93603986598 35.95565060555977 C408.770750418004 33.45790439191901, 416.1107808862223 29.286743063536505, 415.45312567429716 23.475421796422488 M406.35153317561617 36.67623677947759 C408.8329300960899 34.70795003323407, 412.93140179036016 30.06937739528105, 417.2256647822077 24.6915036537922 M415.49402856368965 26.31917610287932 C413.6986936528667 105.51241621868323, 413.61102507864206 187.31548679681745, 415.920665526211 268.74062500971775 M415.74799795079616 25.02810752230743 C419.303093429025 76.88687236428518, 417.5993379199749 130.35648652586926, 416.5620642007358 267.2629741964624 M416.39421170131567 267.18951420732617 C413.59329494697135 266.82419105399936, 411.90858205859394 268.6506533031067, 406.76150250953555 268.96155779058574 M415.61218523924884 268.2160837822908 C413.9940466068424 268.325447273925, 410.9455433559057 268.31435628517454, 407.17204208886204 268.5380714605707 M407.048 268 C396.5825612705946 265.8700928717852, 377.0430139416456 270.2359771758318, 360.30473640716076 265.62511005699633 M403.90225457656385 266.1226653128862 C395.28338266745214 266.81974058017136, 381.64754545107485 270.9364688335359, 365.9399160813391 271.14316232070325 M362.286 268 C344.53013267791266 266.7834955245256, 324.588464377284 265.167955878377, 308.6119248799086 265.8848780661821 M360.6842051342726 266.1600364714861 C344.5424938630163 269.2302616630495, 324.5967370604575 266.0986453424394, 311.2395923708976 268.9023355947435 M308.571 268 C292.166275252223 268.31570005714894, 273.51945863616464 268.0858263045549, 253.90858686339854 266.3494831115007 M310.6925471714735 270.80351419746876 C291.79797361937165 264.7475806890428, 271.38944078531864 267.9141481147706, 255.35589991655945 268.47787224158645 M254.857 268 C235.9031725872755 270.45196037590506, 216.02730531203747 267.2467173606157, 200.72878095138074 266.83230409920213 M257.9507142819166 267.0821023970842 C240.41335806933046 264.4953646503389, 216.39503650847078 270.7993003927171, 200.4125311011374 269.2957830034196 M201.143 268 C186.1028832768202 267.580655387044, 166.34918799865247 270.8108829528093, 149.8544407376051 264.8498449355364 M198.87401505935193 265.0279299765825 C180.81408959570527 265.3408742891252, 165.07581036272646 269.51901916846634, 144.67808455744387 267.68067237243054 M147.429 268 C130.97134091460705 270.1932889968157, 108.67216528975963 267.74170198738574, 91.01337481582165 267.72173452675344 M146.32563309752942 268.1762508422136 C129.92651683130862 267.4899640975893, 110.87595473089814 265.7418151842058, 96.24906516829132 270.77073859080673 M93.714 268 C74.06235409438611 265.78449011147023, 57.027170779109 268.70567837059497, 46.13526677978039 269.4707267791033 M96.7146269901991 266.46544390022757 C78.62689465895295 266.32208231791856, 59.94056824579835 270.91479293212296, 47.85088406649232 269.9527736507356 M48.12484085643649 267.55330104585767 C46.08630545178935 267.5309247305665, 45.365568756859005 269.526029240416, 40.58272199180484 268.67310641134384 M48.66509595099509 267.95673048387465 C45.443208378864675 268.104863143943, 42.73093501632899 267.706053407634, 39.552031113596556 267.82892441947877 M40 268 C40 268, 40 268, 40 268 M40 268 C40 268, 40 268, 40 268" stroke="#1f2937" stroke-width="1.5" fill="none" stroke-linecap="round" stroke-linejoin="round"></path></g><g><path d="M41.12178609080944 265.65321516941174 C39.370808343282555 265.6781342230188, 46.33762078135304 262.097292860716, 46.76900509544822 256.5451745429527 M40.736516468445274 268.29881954287924 C43.79432272893688 263.8372202872823, 44.04156280400012 259.5811774456348, 48.92767870521352 255.27678083932145 M48.952 254.444 C59.201507972478865 239.02533952736854, 73.45532560706138 215.29037846016882, 92.91769009375572 204.46551568245889 M48.172650810003276 253.67924966835974 C55.204345946609976 237.9371888100505, 78.532049947083 211.7709956433177, 93.64125260287523 203.8713933903575 M93.714 204.741 C108.74416378760338 195.68519140267372, 130.41419846320153 205.91101720070841, 147.0574335553646 192.6201510050297 M91.61429539465904 206.6999955866337 C113.32267586642504 193.20174820297956, 128.28750602656604 207.54040836876632, 150.50635675364734 195.91185531014204 M147.429 195.704 C167.20873732733727 189.58352789711952, 186.15612185645102 162.61613274788857, 201.70071192908287 153.4315287592411 M144.69687332892417 198.01746049904824 C167.5642971070409 187.36965397042036, 186.16780616122483 161.82920848435165, 200.5125119908452 149.8323100888133 M201.143 150.519 C220.34290827918053 139.19854432320594, 236.5340254743099 153.67067041420938, 254.6889549024105 138.57609425759316 M201.0255643002987 152.18033971810343 C217.2076413090825 140.72663072174788, 240.07256949168445 153.76893309944867, 257.76596245509387 138.56766983574627 M254.857 141.481 C272.4351063306332 135.35968599343298, 291.34558900427817 106.30282551217078, 307.80634216284756 94.29754281258583 M253.30429799628257 141.4025785562992 C276.4134526131749 134.43309056633709, 287.4977276585698 106.34780682343245, 305.02726478701834 97.77353416031599 M308.571 96.296 C326.92051116919515 85.05764822030068, 342.12924213385577 99.29204335427285, 360.18180339789393 89.98481973671913 M309.77975410437585 95.26537232613565 C329.8407876599431 88.44413311356305, 342.66152480250594 94.22874176567794, 359.7232881272435 89.4741901718974 M362.286 87.259 C379.77705248236657 80.83237631630897, 400.3701645505429 51.57901925301552, 405.53301829504966 40.674120342493055 M362.0433623120785 86.89516634011268 C376.57301559001206 76.68754547280072, 399.4805175641179 51.10933753556013, 405.8812141163945 34.35461247986555 M406.0335464649847 38.114251618253206 C408.3886998753209 34.01855133453184, 411.51531152685754 27.881015836560696, 417.2476687065654 26.3624748128312 M407.314085816084 36.45491646143979 C410.91134556176905 34.101048174143195, 412.5304257524431 28.345451720482988, 416.2016439008291 23.485755654333342" stroke="#ef4444" stroke-width="1.5" fill="none" stroke-linecap="round" stroke-linejoin="round"></path></g></g><g><g><path d="M40.83204920370613 268.93553449859104 C114.8913412699328 268.01959517484084, 189.85973162795514 265.2113591325526, 415.22974693045063 268.38079594231226 M39.37041329970101 268.2568161076546 C123.65483848908916 266.4265054305921, 206.5404739852064 265.8735883006318, 415.4366959605844 268.7306736915432" stroke="#1f2937" stroke-width="1.5" fill="none" stroke-linecap="round" stroke-linejoin="round"></path></g><g><g><path d="M40.41148645490408 268.46266467481854 C39.727007509782915 269.7583491781727, 39.61162997873128 269.56957475818695, 39.619074564874175 274.1883210411668 M39.68864052966237 268.1270073322952 C40.1780641118437 269.71868708949535, 40.00859520830214 270.7733555857092, 39.72142034247518 274.3613516192138" stroke="#1f2937" stroke-width="1.5" fill="none" stroke-linecap="round" stroke-linejoin="round"></path></g><text x="40" y="280" text-anchor="middle" dominant-baseline="hanging" font-family="&quot;Comic Sans MS&quot;, &quot;Segoe Print&quot;, cursive" font-size="14" fill="#1f2937">0</text></g><g><g><path d="M94.1257721691898 268.46266467481854 C93.44129322406863 269.7583491781727, 93.325915693017 269.56957475818695, 93.33336027915989 274.1883210411668 M93.40292624394809 268.1270073322952 C93.89234982612943 269.71868708949535, 93.72288092258786 270.7733555857092, 93.43570605676089 274.3613516192138" stroke="#1f2937" stroke-width="1.5" fill="none" stroke-linecap="round" stroke-linejoin="round"></path></g><text x="93.71428571428572" y="280" text-anchor="middle" dominant-baseline="hanging" font-family="&quot;Comic Sans MS&quot;, &quot;Segoe Print&quot;, cursive" font-size="14" fill="#1f2937">1</text></g><g><g><path d="M147.8400578834755 268.46266467481854 C147.15557893835432 269.7583491781727, 147.0402014073027 269.56957475818695, 147.0476459934456 274.1883210411668 M147.11721195823378 268.1270073322952 C147.6066355404151 269.71868708949535, 147.43716663687354 270.7733555857092, 147.1499917710466 274.3613516192138" stroke="#1f2937" stroke-width="1.5" fill="none" stroke-linecap="round" stroke-linejoin="round"></path></g><text x="147.42857142857142" y="280" text-anchor="middle" dominant-baseline="hanging" font-family="&quot;Comic Sans MS&quot;, &quot;Segoe Print&quot;, cursive" font-size="14" fill="#1f2937">2</text></g><g><g><path d="M201.55434359776123 268.46266467481854 C200.86986465264005 269.7583491781727, 200.75448712158843 269.56957475818695, 200.76193170773132 274.1883210411668 M200.8314976725195 268.1270073322952 C201.32092125470083 269.71868708949535, 201.15145235115926 270.7733555857092, 200.8642774853323 274.3613516192138" stroke="#1f2937" stroke-width="1.5" fill="none" stroke-linecap="round" stroke-linejoin="round"></path></g><text x="201.14285714285714" y="280" text-anchor="middle" dominant-baseline="hanging" font-family="&quot;Comic Sans MS&quot;, &quot;Segoe Print&quot;, cursive" font-size="14" fill="#1f2937">3</text></g><g><g><path d="M255.26862931204693 268.46266467481854 C254.58415036692574 269.7583491781727, 254.46877283587412 269.56957475818695, 254.47621742201702 274.1883210411668 M254.5457833868052 268.1270073322952 C255.03520696898653 269.71868708949535, 254.86573806544496 270.7733555857092, 254.578563199618 274.3613516192138" stroke="#1f2937" stroke-width="1.5" fill="none" stroke-linecap="round" stroke-linejoin="round"></path></g><text x="254.85714285714283" y="280" text-anchor="middle" dominant-baseline="hanging" font-family="&quot;Comic Sans MS&quot;, &quot;Segoe Print&quot;, cursive" font-size="14" fill="#1f2937">4</text></g><g><g><path d="M308.9829150263327 268.46266467481854 C308.29843608121155 269.7583491781727, 308.1830585501599 269.56957475818695, 308.19050313630277 274.1883210411668 M308.260069101091 268.1270073322952 C308.7494926832723 269.71868708949535, 308.58002377973077 270.7733555857092, 308.2928489139038 274.3613516192138" stroke="#1f2937" stroke-width="1.5" fill="none" stroke-linecap="round" stroke-linejoin="round"></path></g><text x="308.5714285714286" y="280" text-anchor="middle" dominant-baseline="hanging" font-family="&quot;Comic Sans MS&quot;, &quot;Segoe Print&quot;, cursive" font-size="14" fill="#1f2937">5</text></g><g><g><path d="M362.69720074061837 268.46266467481854 C362.0127217954972 269.7583491781727, 361.89734426444556 269.56957475818695, 361.90478885058843 274.1883210411668 M361.97435481537667 268.1270073322952 C362.463778397558 269.71868708949535, 362.29430949401643 270.7733555857092, 362.0071346281895 274.3613516192138" stroke="#1f2937" stroke-width="1.5" fill="none" stroke-linecap="round" stroke-linejoin="round"></path></g><text x="362.2857142857143" y="280" text-anchor="middle" dominant-baseline="hanging" font-family="&quot;Comic Sans MS&quot;, &quot;Segoe Print&quot;, cursive" font-size="14" fill="#1f2937">6</text></g><g><g><path d="M416.4114864549041 268.46266467481854 C415.72700750978294 269.7583491781727, 415.6116299787313 269.56957475818695, 415.61907456487415 274.1883210411668 M415.6886405296624 268.1270073322952 C416.1780641118437 269.71868708949535, 416.00859520830215 270.7733555857092, 415.7214203424752 274.3613516192138" stroke="#1f2937" stroke-width="1.5" fill="none" stroke-linecap="round" stroke-linejoin="round"></path></g><text x="416" y="280" text-anchor="middle" dominant-baseline="hanging" font-family="&quot;Comic Sans MS&quot;, &quot;Segoe Print&quot;, cursive" font-size="14" fill="#1f2937">7</text></g></g><g><g><path d="M41.13383007784114 25.274849069785564 C35.559560819204584 74.3395254698633, 35.24164387818671 119.31385051926355, 38.95037926373283 268.51890908733566 M39.14206475503116 24.349962269101198 C39.4761485593709 79.08607326919343, 39.009185582086566 132.3424769482084, 39.232387868393 268.99568607826166" stroke="#1f2937" stroke-width="1.5" fill="none" stroke-linecap="round" stroke-linejoin="round"></path></g><g><g><path d="M40.41148645490408 268.46266467481854 C38.6464911910519 268.58750473086536, 37.331086686477065 267.19870333735645, 33.619074564874175 268.1883210411668 M39.68864052966237 268.1270073322952 C38.88282586950809 268.4527428074926, 37.38524561487139 268.1792999526113, 33.72142034247518 268.3613516192138" stroke="#1f2937" stroke-width="1.5" fill="none" stroke-linecap="round" stroke-linejoin="round"></path></g><text x="30" y="268" text-anchor="end" dominant-baseline="central" font-family="&quot;Comic Sans MS&quot;, &quot;Segoe Print&quot;, cursive" font-size="14" fill="#1f2937">0</text></g><g><g><path d="M40.41148645490408 214.2404424525963 C38.6464911910519 214.36528250864316, 37.331086686477065 212.97648111513425, 33.619074564874175 213.96609881894457 M39.68864052966237 213.904785110073 C38.88282586950809 214.23052058527043, 37.38524561487139 213.95707773038913, 33.72142034247518 214.13912939699162" stroke="#1f2937" stroke-width="1.5" fill="none" stroke-linecap="round" stroke-linejoin="round"></path></g><text x="30" y="213.7777777777778" text-anchor="end" dominant-baseline="central" font-family="&quot;Comic Sans MS&quot;, &quot;Segoe Print&quot;, cursive" font-size="14" fill="#1f2937">2</text></g><g><g><path d="M40.41148645490408 160.01822023037406 C38.6464911910519 160.1430602864209, 37.331086686477065 158.754258892912, 33.619074564874175 159.74387659672232 M39.68864052966237 159.68256288785074 C38.88282586950809 160.00829836304817, 37.38524561487139 159.73485550816687, 33.72142034247518 159.91690717476936" stroke="#1f2937" stroke-width="1.5" fill="none" stroke-linecap="round" stroke-linejoin="round"></path></g><text x="30" y="159.55555555555554" text-anchor="end" dominant-baseline="central" font-family="&quot;Comic Sans MS&quot;, &quot;Segoe Print&quot;, cursive" font-size="14" fill="#1f2937">4</text></g><g><g><path d="M40.41148645490408 105.79599800815186 C38.6464911910519 105.92083806419869, 37.331086686477065 104.53203667068979, 33.619074564874175 105.52165437450013 M39.68864052966237 105.46034066562852 C38.88282586950809 105.78607614082595, 37.38524561487139 105.51263328594467, 33.72142034247518 105.69468495254716" stroke="#1f2937" stroke-width="1.5" fill="none" stroke-linecap="round" stroke-linejoin="round"></path></g><text x="30" y="105.33333333333334" text-anchor="end" dominant-baseline="central" font-family="&quot;Comic Sans MS&quot;, &quot;Segoe Print&quot;, cursive" font-size="14" fill="#1f2937">6</text></g><g><g><path d="M40.41148645490408 51.57377578592964 C38.6464911910519 51.69861584197649, 37.331086686477065 50.30981444846758, 33.619074564874175 51.29943215227791 M39.68864052966237 51.23811844340631 C38.88282586950809 51.56385391860375, 37.38524561487139 51.29041106372246, 33.72142034247518 51.47246273032495" stroke="#1f2937" stroke-width="1.5" fill="none" stroke-linecap="round" stroke-linejoin="round"></path></g><text x="30" y="51.11111111111113" text-anchor="end" dominant-baseline="central" font-family="&quot;Comic Sans MS&quot;, &quot;Segoe Print&quot;, cursive" font-size="14" fill="#1f2937">8</text></g></g></svg>