<svg xmlns="http://www.w3.org/2000/svg" viewBox="0 0 440 300" width="440" height="300" role="img" aria-label="Weekly visits"><title>Weekly visits</title><g><g><path d="M40.3120184513898 268.35082543697166 C115.08530943921679 268.0073481905653, 190.19951228646715 266.9542596747072, 415.711155098919 268.14279847836707 M39.76390498738788 268.09630604037045 C123.38825901796808 267.40993953647205, 206.4880669135717 267.20259561273696, 415.78876098521914 268.27400263432867" stroke="#d1d5db" stroke-width="0.75" fill="none" stroke-linecap="round" stroke-linejoin="round"></path></g><g><path d="M40.3120184513898 217.51749210363832 C115.08530943921679 217.17401485723198, 190.19951228646715 216.1209263413739, 415.711155098919 217.30946514503376 M39.76390498738788 217.2629727070371 C123.38825901796808 216.5766062031387, 206.4880669135717 216.3692622794036, 415.78876098521914 217.44066930099535" stroke="#d1d5db" stroke-width="0.75" fill="none" stroke-linecap="round" stroke-linejoin="round"></path></g><g><path d="M40.3120184513898 166.68415877030498 C115.08530943921679 166.34068152389864, 190.19951228646715 165.28759300804055, 415.711155098919 166.4761318117004 M39.76390498738788 166.42963937370376 C123.38825901796808 165.74327286980537, 206.4880669135717 165.53592894607027, 415.78876098521914 166.607335967662" stroke="#d1d5db" stroke-width="0.75" fill="none" stroke-linecap="round" stroke-linejoin="round"></path></g><g><path d="M40.3120184513898 115.85082543697165 C115.08530943921679 115.50734819056532, 190.19951228646715 114.45425967470723, 415.711155098919 115.6427984783671 M39.76390498738788 115.59630604037046 C123.38825901796808 114.90993953647204, 206.4880669135717 114.70259561273693, 415.78876098521914 115.7740026343287" stroke="#d1d5db" stroke-width="0.75" fill="none" stroke-linecap="round" stroke-linejoin="round"></path></g><g><path d="M40.3120184513898 65.0174921036383 C115.08530943921679 64.67401485723198, 190.19951228646715 63.62092634137388, 415.711155098919 64.80946514503376 M39.76390498738788 64.76297270703712 C123.38825901796808 64.0766062031387, 206.4880669135717 63.869262279403586, 415.78876098521914 64.94066930099535" stroke="#d1d5db" stroke-width="0.75" fill="none" stroke-linecap="round" stroke-linejoin="round"></path></g></g><g><path d="M54.761760698980446 145.6546338229016 C54.761760698980446 145.6546338229016, 54.761760698980446 145.6546338229016, 54.761760698980446 145.6546338229016 M54.761760698980446 145.6546338229016 C54.761760698980446 145.6546338229016, 54.761760698980446 145.6546338229016, 54.761760698980446 145.6546338229016 M54.72258710355477 152.92614731809826 C56.22231235093573 148.8356913183704, 57.297406776053165 147.88485059541574, 60.59852343917756 145.28822031773458 M54.07142266900258 152.24772704920503 C56.52339597213079 150.92186172853184, 57.208164161997836 148.80217984524825, 59.66401715815931 145.49552928544412 M52.17830326337815 160.18103643890532 C57.71495596637822 156.1513683091251, 61.53789793747336 154.54233403562037, 65.58380630571746 146.49682550458417 M53.01365990300179 158.56138771172675 C56.15461383637284 154.99405850287425, 60.511775971912655 151.39113703097837, 63.653225102018354 147.09154174475177 M56.06736987467832 164.87547081592967 C56.32860206616224 161.82661363133016, 64.67726772134897 152.12189497938107, 67.3400344761817 146.54609844139492 M53.99535926666087 162.8514112058609 C58.29806335822202 160.21194718250348, 62.701614389206846 155.59407539687464, 69.92554754789752 145.44758323630964 M56.27554453178753 172.05448242165915 C59.89385751262872 164.8824875326318, 67.3586938213015 158.8024625347386, 73.38461776658215 143.96546380085 M55.48998101964106 168.91818759926431 C59.125033397771446 166.47146557347136, 66.7362106487651 157.55660411761627, 74.85272508993067 146.97406915736445 M54.91572731456692 174.91763027236115 C62.83651980256783 162.25297655019537, 73.08898726786684 151.77964961465824, 83.3294709014028 146.73039118652764 M53.93991869858439 175.65992817953477 C61.68699219656266 168.0164061233113, 70.65797152483637 158.4565035422114, 81.05186894855197 147.00652512466135 M55.48859313378551 179.70372805973122 C65.3998957276697 168.31754544998296, 78.38536265163927 153.18292687253978, 84.94714379141261 148.75781929012336 M54.046189011134885 182.21432359149287 C61.74780417363529 175.85798262302018, 66.13528474092344 165.75138481907766, 87.21305833140542 147.51857928302087 M55.25986898718378 191.74058573479658 C58.58769682590096 177.40454726467394, 66.00190336034882 171.42824401093503, 89.53129746334264 143.5989734824416 M54.104548251908035 189.65337323929077 C65.87141578282974 175.60883249858625, 75.6028811230188 163.92568199755056, 91.72717106209704 147.01345895637246 M53.99215687250223 192.60913824858454 C67.4524225913571 178.05604409133227, 84.27917903557393 156.2426826855528, 95.74823182796183 146.97704245517795 M55.48731521551933 195.7975140270808 C70.99817319333764 176.73970132530906, 89.52851411088884 156.3348814522047, 97.28741134827081 147.11166728953665 M53.0767567005099 203.70757429279055 C69.54839723587837 189.2950390064559, 79.49687201230621 176.37298578802506, 99.18535791200125 146.44950157913684 M54.52519410961281 201.22974909968343 C66.16314467891456 186.19483025604015, 78.97262398142091 171.38996162477602, 101.98778201353277 145.4633066064429 M51.6260794979377 204.66836923821913 C73.03404354775763 187.9366059971539, 89.02114992452302 166.72069269482046, 107.40272562622981 143.14578954601382 M55.349687757794406 206.16268078102814 C71.80474767781848 189.75209537079982, 86.29469175316521 171.4376951758619, 107.12461226552682 145.5357550519118 M55.12517517555473 213.49596177656576 C69.56085035913985 193.77242588967462, 91.47686501741074 174.08290565779598, 110.42543696838807 146.98434130683606 M55.294625367708186 213.82618721593545 C65.9138503644183 197.4771880186771, 81.22795452041106 183.54206324900488, 110.83897089886855 147.0806995300955 M52.324145731101446 217.7837868588577 C67.72359652181723 205.02214454073516, 87.10403183594593 185.03828110770795, 113.02699670429247 150.2743934544131 M54.53857573396962 220.93445530855757 C75.45747255682136 194.73609070736535, 96.62541531637515 171.2632634355733, 113.9500169762494 151.78594108692852 M52.76996816231834 225.4784044361222 C70.10775751257079 208.6941762095731, 87.4120021216392 185.6607308070733, 114.40655197663607 157.16708303865818 M54.38667015119421 223.7001094630468 C71.37520939659888 203.20595635732934, 89.51598915095235 181.84596954629856, 113.1822394372374 159.17649372544912 M57.13831737997443 229.24362820005476 C80.18819990241457 204.60588346627762, 101.39656515122873 179.4004441292881, 110.93588881214984 161.78551043037575 M53.952425327025956 231.84834032422364 C69.84200516253559 213.72995029730012, 86.19871543418829 195.2806718075784, 112.66245360543854 163.99464726958675 M56.52597941080071 236.8775585214599 C70.11790787318229 218.9001725030651, 83.67527688389623 199.0526675075099, 113.2594321216028 167.92473932126148 M55.00015658507086 238.28393771601753 C68.57221600058293 220.62609760407292, 83.84656719892185 206.61472571952095, 112.96980118849686 171.14996736416205 M57.10237916556617 245.8502590920331 C72.14467373293488 226.93547118757067, 89.96536041767067 205.71015373415273, 113.58665890273544 174.6688296623425 M55.34650563297292 243.2789672832491 C68.24355666622169 229.5128010858714, 84.25310543709463 213.44280598336346, 112.7781634810278 178.18632841332715 M53.8019936420113 248.12078986280164 C68.21714528836623 229.5402103238398, 81.5641139281595 218.62466837397218, 113.62392115328826 185.55496640464608 M53.70285376534761 249.73980343007048 C67.65984206493908 233.23809734888764, 81.13140987898315 218.87949477034508, 111.93798427764692 182.89604232123438 M51.85617483787663 258.5013357847927 C78.39848962471784 232.0222167611069, 94.03253534637386 209.71989251634366, 110.90626878403029 188.9375882398677 M55.95714477681048 254.8212580606339 C76.01537405300373 230.8167856416046, 97.8492658175302 207.84209087937543, 112.95809278599819 189.33398723270417 M53.12497266393116 263.0213355497018 C71.32504455930298 241.76122138539685, 96.24407930874126 219.36778593159016, 114.0898628216925 191.60542053881187 M54.25570787500551 262.34070931976 C70.2678969040226 242.95216676500218, 86.50046883620237 222.35070506946263, 111.44811682968763 195.08464047166606 M52.18954814690587 265.3445145283335 C69.95944954848444 249.38394193543414, 84.86830418992318 231.62297113616, 113.2035031770439 202.91915199317415 M55.845670883538695 266.8451345313781 C67.17349704562842 250.81975257426686, 81.7767600497852 236.34042895639206, 113.52001061635922 201.04975518294057 M55.996114400503316 265.62359435082385 C78.68396944115452 250.13462389492514, 96.8558127487152 223.0027175791023, 114.14104184782498 204.42846755398173 M60.26890121298758 267.7158197787494 C78.19163381063431 246.70591817770287, 97.13337022518274 224.98201621116718, 113.43046794062846 208.3153932706799 M67.48322827751147 270.056807869314 C76.26661109335726 254.65163845239354, 84.62435143129899 242.63740452252205, 112.19320583177627 213.43617717226184 M66.13929751301514 267.5748748671401 C82.04758015877016 245.80399171116684, 101.61538009706778 225.41937790976507, 111.06274509711088 214.5660541390363 M67.6423806597088 267.8408033557222 C83.6712469564337 253.58539347507173, 94.17394674950981 245.37707149642844, 113.57942003966673 221.76234453971003 M68.35337996227486 268.48813752159333 C81.63680374573892 254.8461725746527, 96.93066283908831 239.8784565589297, 111.80848379345043 218.49880343283033 M73.6422325738263 267.05180618085296 C82.40825348267165 261.2282737915494, 91.70929963807254 250.37438026278653, 115.54022049822736 226.16132002713078 M75.3645263843727 267.89633506603866 C84.01901535799865 258.52625350441843, 92.42034623268172 249.0659758418496, 112.21012435325312 224.6903059759914 M82.82408393063301 266.73800503640183 C91.60116924479637 253.50557065159362, 104.38258283236121 238.3057042819269, 111.78878211822719 228.45941732621958 M81.12844098695273 269.15747064529666 C90.93882284912601 253.85694778753643, 104.90675606223935 242.12461158449435, 112.562433484163 232.58450241334012 M87.99428672786941 271.33658487339596 C94.75434958452817 254.86906583117275, 102.8965455450681 245.713752533685, 111.0033318974067 240.37194638800375 M84.3455675646304 268.8138561635194 C96.06703225217461 258.34636458242517, 105.66484193303147 246.06714387028453, 112.1549174807955 238.1596421490287 M89.35606796327598 271.0378556428626 C97.20114469487875 262.90294071467866, 104.03812353608498 256.4674431120871, 113.55897183350643 241.46734216351047 M89.94291241202123 269.00624102485926 C97.79162134778211 260.9512971104001, 104.70927304749495 250.73524348716455, 112.35364513776621 244.74241208720935 M96.84135254762175 270.14938103649746 C99.58683701144082 266.1553672803549, 103.85387693357808 257.1560737748916, 110.65950183729532 249.13129334443522 M96.15586723676923 269.0879408741368 C101.58027250294634 262.91888475176114, 106.67754887566711 257.4195721956277, 111.68307066271905 249.82206537270258 M103.47756186260364 266.64848098528086 C104.89113683101893 262.31897339228277, 112.53471915306825 258.6451854227205, 112.48317035021613 256.1141208507189 M102.42989083921991 267.48051122893094 C106.79745225693303 265.22608621538495, 109.98647474950532 260.3938814413817, 112.34599220240841 254.867748024396 M106.01093182774203 269.3294226193694 C107.7707615043731 267.4624818937202, 111.10764945650946 264.3747910849665, 112.18355914940946 261.0819849990871 M106.66724771195965 268.9134696880994 C108.96189713437762 267.2573227367046, 110.94165516857994 265.23966014393375, 112.1249862296682 261.8685761681017" stroke="#1f2937" stroke-width="1" fill="none" stroke-linecap="round" stroke-linejoin="round"></path><path d="M55.833159977885416 147.54221558272837 C65.51942316511506 147.57972453198067, 76.70432221660249 142.95038655361765, 111.0379408572729 146.62773680388926 M53.42367356041305 146.42335777431725 C67.96901812026135 146.70256482085358, 80.20847736516826 145.79108863791595, 111.37909344927624 147.2045053973794 M114.7664190982397 143.20090651214122 C112.7140185138847 174.50369438584895, 113.82047593804852 196.44529756717387, 114.53256871448114 266.6090321034193 M112.78397664324596 144.7211615100503 C113.61666004472629 177.3680939981714, 112.05431039148228 211.5322643402964, 112.95869526163891 268.56358995586635 M113.99217488513544 267.65849575698377 C101.48055441482711 269.0645502678614, 84.66229637127658 268.19491077582654, 57.399869019480874 267.354362437129 M110.79820980326488 267.770028783381 C90.42199778419277 268.58101452254795, 70.09097466892923 268.1466715183212, 55.96385801056259 268.06695094257594 M53.30857186982267 267.549651286006 C54.353814194785876 230.56385389510544, 51.58192078887157 198.30652024932206, 55.40841899582975 144.0702707737684 M54.81026952484481 269.59715685993433 C51.41895759000115 222.57421356048434, 52.228644679921196 177.80024639628826, 55.16672337272995 147.5808481231332" stroke="#1f2937" stroke-width="1.5" fill="none" stroke-linecap="round" stroke-linejoin="round"></path></g><g><path d="M126.9721728823442 74.59987513791305 C126.9721728823442 74.59987513791305, 126.9721728823442 74.59987513791305, 126.9721728823442 74.59987513791305 M126.9721728823442 74.59987513791305 C126.9721728823442 74.59987513791305, 126.9721728823442 74.59987513791305, 126.9721728823442 74.59987513791305 M125.87528251555432 81.46511811123054 C129.19043987814382 78.38524010205381, 129.2412398356091 76.3386293128574, 132.37868295487584 74.78694075228526 M126.49295364644993 80.74827757344404 C128.92230156691878 79.1781189268879, 130.52214350026807 77.4262904886771, 132.42967039283934 74.56155868770435 M124.79060368582756 88.35346665850022 C128.57746847240412 82.08876237164654, 134.47061946241357 81.23557711320646, 136.68429415796 72.10458128685484 M125.2057365450278 86.27171311324577 C129.3417414461427 81.52482320101974, 136.3701102855971 76.43462764599836, 136.66180910009942 74.72835329721102 M126.51170267693378 91.40290665296432 C129.85037100253885 89.30568826953309, 136.99861897375789 79.9188569507042, 139.71161518416835 72.85719182924133 M127.16768146089889 92.15478743282672 C133.05871902307507 86.92057537048265, 138.71673774589027 81.30743778429435, 143.28264132760003 75.46016141907077 M127.18950881521364 99.36314584734735 C136.29673773569468 90.07468571856452, 140.87512617368563 82.4600682106599, 147.46982538609717 72.98110559263503 M127.2183817909207 97.89055620255766 C133.1164987376579 93.90808076052465, 141.14048349793833 83.87795608006248, 148.80604003279421 74.19831630566395 M124.0752721758434 105.84636711189822 C136.54443388501093 91.96259628330007, 146.55242435176086 83.09129569579021, 154.66039818989483 73.26027214914212 M126.92365494387833 105.73096292624548 C132.6453786730006 98.689455429532, 136.8903928656999 91.64500355089662, 151.7051942841932 75.41254002540956 M125.48246063834199 109.02077866956247 C140.237525977029 101.2230916612883, 153.85829269928306 85.16109659168956, 159.96478759104238 76.20031140081707 M127.39765239304074 112.44196973308577 C132.56226920286397 104.35618066571203, 138.37762764423624 94.42879739712232, 159.696616671028 75.32183138661209 M125.28646916919999 120.29671000261739 C131.89549462188734 105.73083352525262, 139.24483476029124 102.38191623231445, 162.8339614690588 73.43193157060541 M127.7758276986485 117.72228501160576 C141.66293253574486 100.53940399307726, 156.84679028563122 85.77679220554548, 162.4257086665676 75.46090251846708 M128.75644273490786 122.79074059334013 C140.28525113332807 105.32144115732082, 157.37365642830886 87.15069478348691, 170.9368738194251 72.67325256056161 M126.94675942094206 124.36749215033265 C143.46763803476762 104.26592294843053, 160.78745731035815 85.6843689188691, 169.21523286004305 74.542502229279 M127.1870992149846 132.18982866467627 C142.82966727790983 113.23410254446809, 153.14815500750413 98.40875597885888, 171.5119925216603 72.76748259363119 M125.28397403319043 128.834178278462 C140.85916216398223 111.83368504363649, 156.8996589457335 93.24270765236079, 175.5168407247233 75.59509264824335 M123.89114260491121 134.86834411868028 C137.8641393828271 120.41515753934024, 155.2444632086616 102.13403750180213, 176.55971254225483 72.19995115209142 M126.5383591246246 136.2569672042983 C139.90363243100427 123.12686961530864, 147.88963165400148 110.64877579256148, 180.80348582084886 75.37988216388742 M124.75079078420667 139.72574517829767 C147.13495373847252 121.07688103259748, 173.259502694206 94.70560874118613, 184.67417884769924 72.36223771821948 M126.68969116851358 141.986196057037 C141.35690980736672 126.97458457621254, 157.40578672271408 108.99475837085876, 183.90124670866018 74.15495416473837 M125.81018871936155 148.30361132580566 C143.31917992140626 128.41281513160217, 164.0021998336326 108.27891879351313, 182.42663708558848 80.45397715674312 M125.43904872509789 149.80494822520544 C148.73320060209517 126.0745379928279, 167.71338468914072 102.79654450517454, 185.8726776295023 81.87707242177399 M126.30723137686628 151.64977204348153 C151.0301178005687 132.7498008715321, 167.6919681084726 106.36579867845325, 185.44720445433705 87.84157230815738 M127.94063535461801 152.89318209733077 C140.418382658392 139.85624977896535, 153.60666434663307 123.7020533807453, 184.5985793755397 87.06039368173927 M128.9053866362399 159.18243555427082 C150.03739058570224 135.3732650567235, 175.49841965126853 105.43004743867515, 184.51127592043557 91.43535265473952 M127.33360253034296 159.59185980260855 C145.82285182197535 138.58756819080315, 163.65842164924973 115.12284173932498, 186.36440550701298 94.25362633316149 M127.2861084929634 168.80722176022795 C144.51727314092412 144.7497416661312, 166.4853722521191 118.33762028694159, 183.01981936340295 97.31602641943503 M125.8344628415037 166.81998014934328 C143.03799612886445 146.6015918681469, 158.84005961530934 128.66173671096368, 184.04055749719106 98.96648250523616 M128.70036482655576 173.95483888429845 C140.62633451408703 161.1427226628008, 153.31046864865152 145.10137048881666, 184.5917887787202 103.6517135042984 M126.78861776136927 173.61225526673041 C142.82299165910393 154.57161415983754, 160.27703779684612 135.50562003643037, 184.57479793530493 105.88671100626773 M128.7610506035075 178.4981164087596 C144.3014435168305 156.17212994472504, 159.317530080386 141.37487657295515, 183.6156520459063 114.13562213227519 M126.96277085018014 180.1361435432973 C141.5868370699762 159.1652198229732, 156.85212198203334 140.68184519385346, 185.04377829462362 110.4177739654518 M124.47481079030909 187.21613381588858 C146.47221591009512 165.83807632313065, 161.04702953294134 141.39920505744576, 184.84180413145174 120.90308178564257 M127.8767506681768 184.65597836757107 C143.30598476666694 164.59840742258191, 163.880490475254 145.2147951219652, 184.14545213538756 116.89587977131552 M127.27386326647958 189.85834932863096 C138.7062459618053 175.60712414187546, 158.7886140286198 157.6879142901928, 184.41439000184712 120.59567194667781 M127.93533368862829 190.0970968687473 C146.69392069398725 163.3525002012733, 170.6812138423158 135.5834073381596, 183.9308980178374 122.75411181238616 M125.00841202749996 195.26163284904123 C147.40762928699365 168.83777960593528, 165.67869965963823 146.5987266193078, 182.90312753661138 130.42535083832647 M127.5206575007656 196.66287285513044 C143.42361754814263 176.5094008836008, 161.08350464622325 157.63364225977196, 185.136142415242 131.48655721785929 M123.69817495288919 199.98794260006488 C144.3996996507999 186.62010375967742, 161.01405810002166 161.45228694577833, 185.6957207312255 132.69148836264296 M127.44374857785772 202.57239345591606 C145.1916274956329 181.2777892493522, 163.3671149444281 163.7014290677534, 185.87457291683245 135.6653397960393 M128.7247970091378 209.64135806397914 C140.26342857371492 194.77001664699375, 149.64594806520097 179.17715566515952, 187.1493874652085 139.41854274257284 M127.63693548014515 209.47749205963135 C149.14210974270983 182.2427195381992, 173.20470590691116 158.81299920805859, 183.28846599587771 143.27829667612176 M125.8636731627363 216.53220872306125 C146.25426078003684 193.64444290237472, 163.47647850126663 175.17985184126633, 183.78327270505085 149.67309346039335 M125.68567176786841 216.22687705480354 C136.64042248032 201.1458614513489, 150.00510722725045 190.5420840624162, 185.04140021261824 147.94601124663393 M126.31577129320367 222.1412028002568 C140.05577211253976 207.02855881677186, 149.0428161776769 195.41926168874994, 187.3102714172431 152.82796999838175 M128.16035891429647 222.23026057062822 C138.6535148953425 205.64667754329216, 152.8545684473219 189.71893009639524, 185.45007912729463 154.68594189610303 M128.7000453960209 226.43646019762016 C149.78430435502327 203.93528119885212, 165.0371286882384 178.03349220100154, 186.46885148130417 157.4263805794835 M126.90875950866031 226.4753914154098 C146.4031470349922 204.85875864168509, 166.819175316223 183.16349156191237, 183.2161542131758 160.87655075372456 M128.804963350707 234.91118913809692 C146.62186588033458 209.2444329075926, 162.0740670479423 191.89113226419295, 185.8154668927152 167.69894510575313 M126.307525024229 234.66573171834384 C147.55483257468148 208.7559656284063, 167.79568746971174 182.99511826849292, 186.5186380594928 164.87433662780302 M126.3809201237525 241.50071910396431 C145.5767040025758 213.5373001462531, 168.9726065833856 189.48248667321027, 183.47608553099505 171.40137180013616 M125.954609021243 239.0374898679576 C144.8339477096792 220.81587303629595, 161.4927679418811 200.3356812281424, 185.8654321395146 173.15151164753397 M125.37206068164787 244.64662957749957 C151.421446591472 222.28711813611616, 172.69829620653508 196.02965136038355, 184.33860236263428 180.3314901449098 M125.6010900599428 244.12374925277823 C140.93410319297965 230.53755931661595, 155.30459646722366 211.5350641495809, 184.7857400134817 180.11303420144455 M127.74810290391211 250.5608787816482 C146.83198297385857 227.3760193976879, 169.0847512873587 206.4598332485699, 187.4846623541234 182.39337962235126 M126.88299461359743 250.91859700200132 C147.91040557499787 230.59664735989165, 166.19791362599963 206.8212663250291, 185.56189024163464 184.26073767806207 M127.49675078602623 256.1428366184647 C146.51583926467123 234.9041923509981, 166.1910013184426 214.6457482437066, 186.4214833849814 189.6614984554062 M125.61371027143787 255.89415692393135 C139.92213772662762 243.13416296205824, 153.6011957155542 228.5528223831304, 184.5611592972424 191.55745920658205 M126.77522220750922 262.4169613108946 C150.40212778887815 238.90912765320013, 168.47921075527523 219.3269455474099, 182.27426945068927 195.69771654612893 M126.23551350673311 264.5382661477638 C143.65790677461266 244.05329441832055, 157.5601298201336 226.67749135305618, 183.72818476953597 195.24407259530895 M125.47083922182307 267.9857036005468 C145.22995822177182 251.81475410439856, 153.11120291723688 238.85393160189258, 187.13773843076598 201.78899211746506 M129.68015996669516 268.90737932135767 C145.09016653377003 247.9089288404849, 163.20273030428015 226.84433637129706, 185.83649313178432 202.1771649734383 M130.95255582444886 269.6671833894758 C142.4476675801151 253.64271952043384, 152.9358351919919 245.96911536302267, 186.0685352917021 212.66440465169185 M135.0204122405551 267.56424525301736 C148.23791986307333 250.9440979622421, 162.90182108817493 234.95502423903886, 183.58091294422798 209.44606972949737 M138.44672183692455 266.51402806107257 C152.16466124065528 249.5172744194096, 170.9853583128575 234.18268420554082, 182.11705499998808 214.15928363108645 M140.54580374360083 266.49674523238394 C150.94120148401342 256.13304144071765, 164.761497103303 241.70667208963417, 183.7093977671075 214.13699525201332 M144.88555513876912 267.5756958382828 C159.38229312702074 251.4306002939039, 174.7074311506774 231.95471126400196, 183.75926543514296 221.27933727859445 M143.1111109491014 267.780216388653 C161.12849872104937 251.3972664080721, 174.3474500866188 230.77003752185112, 183.1548490736918 223.0971536701817 M152.41925972546352 265.7890566231609 C159.0916450123048 257.7877367243953, 172.6676487977276 243.6663673764455, 186.08912059264767 229.11768549627035 M149.54847144628778 269.16803253012904 C158.51654939338525 257.551396290195, 169.47919855009962 245.2860362136788, 183.7275294532119 226.3517937923071 M152.56755347652683 270.61606863865234 C163.2680840686442 260.2769308063238, 172.3515798997567 248.74328699779147, 186.9700883520213 232.69253650705963 M155.91891170842894 268.0292807860074 C164.6235521597523 255.44311231459022, 176.69483448871256 243.24753517646596, 184.16659037893686 233.04187774758486 M159.26814038744 271.00610178681166 C169.01316254384957 257.6463529806614, 178.92234523172198 245.51183670897277, 187.4275636797543 241.8642197932395 M159.66081932475595 269.21108496459277 C169.53594176764173 259.6088148680616, 174.50713686942854 251.49390456860058, 185.2324854111071 238.44111392454232 M167.428238337722 268.03361429058435 C171.56463537619757 264.42620723649975, 171.59954127222235 255.9616162757786, 185.48069154233715 246.19931483708723 M164.44147076853773 269.77628219508057 C171.1707208236909 263.89594382705883, 175.30567414714656 255.4007139659354, 185.03879310996314 246.5200857117067 M173.17305132285395 269.860476052025 C177.93272236911227 260.44843119901884, 180.45324254473323 255.10935222746147, 182.7741898192889 250.2347798615484 M169.90550362900532 266.8657462857753 C176.51466996889013 260.88046599902736, 180.79984162336618 254.81143786116164, 183.984039948774 250.9103802382736 M176.82425247583663 267.2106861171809 C180.16668044006528 265.3235936779605, 183.15116326626134 262.5024639556268, 185.02112609621176 256.7758435124642 M176.35465548578773 268.0943794674364 C177.59038762638605 265.25685746933635, 179.47823883865945 262.9348435413898, 186.1924718036879 256.72448909317313 M181.05108688603693 268.61375735431756 C182.70172879969968 266.69551583844964, 183.34554767048027 266.25558806096205, 185.1335451073902 264.4540703941369 M181.63646203036956 267.6573494355365 C182.12112392971326 266.86715121227405, 182.72007630754328 266.4693234145714, 184.7138358086305 263.86650996471286" stroke="#1f2937" stroke-width="1" fill="none" stroke-linecap="round" stroke-linejoin="round"></path><path d="M126.31247380192465 74.71776449879012 C140.51576940715316 76.18109008960235, 151.31633674089727 73.32241413287628, 185.2758817145458 72.8888069411119 M126.29350096697992 74.08004888196787 C140.6149593174458 76.02677066734816, 153.5246470380288 74.20381830147292, 184.35818689855247 75.64234412809213 M186.33283819647937 72.43514635761579 C185.2867954375899 120.96521703628824, 187.4997102859175 163.57291833019505, 185.8651374289623 268.4180642068386 M183.96795328649193 73.87565635343394 C182.07265553847014 138.73785042784488, 182.1479562319821 203.43452021026363, 184.31739052327782 267.5271799117327 M184.7843497702709 270.5169915139675 C171.33033959888496 271.94079284341524, 155.6630542810147 270.20151385934537, 129.44589188511557 269.90872487425804 M183.1964196065298 269.140057566762 C165.58245710684704 266.17372135278816, 144.85887241478153 268.5050353443348, 128.173869867279 266.53390188515186 M127.66329758579916 270.2993025720119 C125.51067266442513 194.13851490787542, 126.36688585259652 121.03465473397327, 125.46299183781332 74.17387488087019 M125.86669289584346 269.59431371986864 C124.81847447097934 204.23902831055844, 126.43784865081942 140.18169517175605, 126.57960059161371 76.39502957959971" stroke="#1f2937" stroke-width="1.5" fill="none" stroke-linecap="round" stroke-linejoin="round"></path></g><g><path d="M199.0413578057172 196.87424649772285 C199.0413578057172 196.87424649772285, 199.0413578057172 196.87424649772285, 199.0413578057172 196.87424649772285 M199.0413578057172 196.87424649772285 C199.0413578057172 196.87424649772285, 199.0413578057172 196.87424649772285, 199.0413578057172 196.87424649772285 M199.53010687830155 203.34086750345648 C199.54202004082438 200.72948748197882, 201.32683871686407 200.0743090196109, 204.6723294891993 196.9076363212388 M198.77242691168792 203.9311990959418 C201.47998976672358 200.4499406269478, 202.869269903159 197.45296875966758, 204.3983707907627 196.16730408725851 M198.11287182414665 208.98760869720775 C199.70443518999653 206.34489228702807, 206.97448331774274 201.2279307799397, 212.21549202346839 197.20568246137287 M198.05894174301756 209.24866251567204 C201.18363686482186 206.29574019351784, 205.39695659313244 202.73218774796874, 208.98374841237106 196.42983118187573 M196.81480821919848 217.65947253479735 C200.95125477618694 213.73649893760373, 203.75000172428386 208.29016093696433, 211.94196863216428 198.89741526188612 M200.19877639514615 214.78729370459095 C200.4596386523663 210.58093958832956, 204.2230417278575 207.59514218665106, 213.29850784731178 195.6018696466303 M198.61830486763952 219.24622973761117 C202.11767653832317 212.22066901080638, 211.91585210772382 208.471017957404, 220.75774671663095 196.08058700944122 M199.4616143312001 219.43734527042665 C207.20998197929063 214.34975515136986, 215.24595816119307 203.66545341065606, 218.7620686866765 195.5064030789846 M199.4935897771291 230.1042339962337 C208.66207831343556 215.0013460612032, 218.4255917816364 207.73207182172058, 225.85009821839614 199.519283156555 M199.76616392918152 225.9311277177546 C208.71101012137188 216.65395813876893, 216.67853141042082 209.28728032081582, 225.41729235984369 197.14768497095613 M201.73510088290777 231.66695932419213 C212.90701270731836 219.80929457082473, 220.50878430659242 209.5124558526098, 227.7851451016909 197.72664313653192 M197.40788851495589 232.79874591947708 C204.8714321871502 226.35390197055446, 211.9797806071551 216.7609040107615, 231.38288872166933 197.20892311522445 M202.227901120216 241.42725473501378 C205.59626906609176 228.57479631605145, 212.74646526327788 221.6077336296812, 235.99539821478425 196.5940197035676 M198.76193891438874 238.36561724849636 C210.29334957440162 226.8503004060614, 220.06746438694543 217.82250576711954, 236.18301901104746 197.2374761253601 M196.97950133732274 246.3014729828941 C210.37792614035519 228.24392649959898, 227.48176670594978 213.99903148174417, 238.92822952190713 198.8533022909664 M198.26497636637407 246.2666003183829 C215.52885343766206 227.46064918626354, 231.37981497417124 207.7995426848174, 240.34576808283404 196.0571767940425 M201.81227349845906 253.2465035011376 C219.0389566112129 232.2778514986466, 229.5130892289897 215.79581383533363, 243.6973998713286 198.81459365292392 M199.75758572576783 252.2130279218162 C218.4620491902988 230.34265935890065, 234.28438195615453 208.25222372728712, 245.7046721759231 195.85600873484216 M196.01497845189397 258.3974490439398 C222.60760218554958 231.31605646121403, 239.33647351287573 209.99713778692967, 252.6315312272796 193.82853322274462 M197.58580323146407 256.4803836723668 C215.6468978705957 240.72995945506898, 231.02833417781497 221.7799410478895, 251.79719114517061 197.79842974043862 M200.6351791328679 265.68465862482793 C212.68861765854223 248.96277924118755, 231.15866501809577 229.55661659601856, 258.1256344380291 198.22397375462407 M197.94352970932826 263.47533494293697 C213.28734281455868 243.97281985679734, 229.9217328295642 225.31999581274937, 256.1662362294706 198.5130484244024 M201.12318153460242 269.8884370968837 C219.98209148584607 243.704699268326, 241.2094192903205 217.89306759151611, 258.0850502068937 203.96269090387156 M201.36647154320696 269.7404424459833 C216.82337884693072 249.15924650929978, 233.02386671345832 229.95703306006328, 257.6541110227645 202.09733380141785 M206.9199166503191 269.2484643131888 C219.3636335210036 256.9169416891286, 228.69002016414603 242.24423605490588, 257.00268870103787 211.09048204223225 M205.3700226169467 267.1135793939626 C222.70777421643834 248.18981802707205, 240.19726362728198 226.5962412526069, 256.52975108284187 207.5187141026051 M212.9963501833343 268.1108909290526 C230.17663723322693 244.59262126939404, 248.52467794088898 228.42395475325978, 257.9454357687306 214.41432492390166 M209.83867402448885 269.5250273015592 C219.84976715255544 258.60844680272186, 231.3265216883062 246.50684372592846, 256.7251301485967 214.64173544153462 M215.61860409787906 267.2888563777795 C233.1303168263225 247.5202644439918, 250.3878561355496 228.67548624071856, 259.69503837420285 219.28173398218422 M217.44113562068952 268.3079939614525 C229.26951171451455 251.77843030600198, 243.0274457362441 236.5498362801124, 258.82614557488506 222.5574181108859 M223.11918924222238 268.9737134135652 C232.523536346236 259.573768610963, 244.40771180624873 243.72770112695179, 254.79963236572365 226.71843697127548 M221.05156864444263 267.6598379872131 C233.17634674423263 255.14321618788188, 244.68135311726422 241.58651457736028, 258.7741461006008 227.6709332242295 M226.04547758059527 268.99735146971403 C239.44445045814572 252.3342950825627, 245.96803257077113 245.3449396348468, 259.86615567853363 236.0454079047027 M228.94805795060424 267.45439217152057 C235.31821425931642 257.6042705934931, 246.85649598858612 248.2281650130405, 258.0083450516096 234.46863565446762 M230.41122996126668 270.7698733004215 C241.36506545077086 259.20968014895254, 245.66702919907007 249.63331666776395, 259.292171247873 239.04299579599308 M233.11413977806825 269.32964012794525 C238.8151955704316 260.814671610957, 246.12857240120448 251.94738864272176, 255.84764325377674 240.2321927745025 M240.64506834846776 264.7419183389922 C242.35019987417886 260.14348204592284, 254.72488073022157 250.0012291084286, 254.59768992201106 242.91505339934213 M237.6372739816908 269.10003964916666 C243.2698951644755 261.0559633716383, 248.75974626519528 255.8377196776778, 256.2724519459964 246.95271319790467 M241.64200359046728 267.94233933962164 C247.46208024685268 264.82553808389105, 246.93291103729956 257.203391328897, 259.5175836651786 250.5059701480544 M243.01037180036576 269.2441993487555 C246.216597904515 261.59602632863636, 251.85552745985177 255.6686062709717, 257.2671059831246 251.2977797173536 M246.74364300094297 266.0175788693105 C250.51964539219776 267.4147145943004, 252.1719071898137 261.69020066788755, 256.71049527104617 256.0822352687591 M248.8355772852873 268.01741845376546 C249.85574815689665 265.51993975046787, 252.85063124145884 262.2035635728706, 257.40487615201295 257.4217404163206 M254.09281410257506 267.9151801899644 C254.53383641898066 267.8070190822424, 255.69285614937982 266.5144937355889, 256.5863605759959 264.5965087832582 M253.8848660292028 268.453730438334 C254.56584293176041 266.36455147168834, 256.32879319587124 265.13068296918107, 256.5385150249969 264.64391650833903" stroke="#1f2937" stroke-width="1" fill="none" stroke-linecap="round" stroke-linejoin="round"></path><path d="M196.79178762596388 195.05998008151846 C209.11211564919125 195.1725069292753, 219.52835126519204 194.0844929941862, 259.5138225718187 198.71654374500113 M199.1633283735468 198.1034066562851 C213.2609005146302 198.51764318050937, 230.04081671088937 198.9832146316965, 257.3372803478287 197.2468495254715 M257.89925729471906 194.836052869757 C256.8479572454179 214.30864811215238, 260.1673295179093 231.29768927739931, 257.19770614344344 270.22709631025793 M258.3519299297379 196.1968178634842 C259.6978350102314 210.50726272266667, 258.21078605049934 226.16942114386086, 255.67608578491672 266.490769867599 M255.57652465540633 266.97548727095125 C241.18012478294284 268.41703541896896, 226.6638121907528 272.2081169428642, 201.49191475075025 266.06308731138705 M255.59462940979466 267.31008635014297 C237.54291642950133 269.7430435676437, 219.6267701606338 268.4400145549637, 200.38388172399542 268.2008528277278 M202.01802330177566 266.64895385801793 C198.42593910305865 248.52998263067565, 196.51025888531572 231.79640263868495, 201.9175646797969 197.4441456546386 M200.1231162668421 269.591470579803 C198.81688891428627 247.33032988308307, 198.0459501840464 225.4161175921249, 197.9924778104975 198.37587770273285" stroke="#1f2937" stroke-width="1.5" fill="none" stroke-linecap="round" stroke-linejoin="round"></path></g><g><path d="M271.4296883936535 23.94814943438415 C271.4296883936535 23.94814943438415, 271.4296883936535 23.94814943438415, 271.4296883936535 23.94814943438415 M271.4296883936535 23.94814943438415 C271.4296883936535 23.94814943438415, 271.4296883936535 23.94814943438415, 271.4296883936535 23.94814943438415 M270.7773644841352 30.000851363943244 C272.8931945559474 28.690202668736507, 273.4554055781083 27.012051747056574, 275.9756931308542 25.2421732878349 M271.37270674592645 30.487170288370276 C272.9969179334973 28.3559603184047, 274.09721290742624 27.267374098695974, 276.71766800678114 24.151409158673065 M271.0006586246035 35.232346215721 C275.73967732187833 30.723105665341624, 279.61327852795006 26.4121805414614, 282.89183740241646 21.841562329129307 M270.5020851830981 35.15375130700671 C274.37853686669825 31.300497099845252, 280.84962983777905 26.54909383911309, 281.56951258762 22.94042728979978 M273.8370594260266 42.31556999348185 C274.6509421171362 39.344235197456534, 282.6492713812654 34.21578452993736, 284.49146774472354 23.337170271382384 M270.3490169939568 42.21933155320666 C275.398212721792 38.618229397958586, 280.41608348911353 31.437166195720604, 286.8335200315869 23.74310945104127 M269.7101875556382 51.08355478494922 C278.4494774640127 42.219993816807516, 285.1137115565469 30.820459078937706, 294.364813711728 23.979600003098845 M271.3679335070523 46.53837549536983 C276.9741810045836 44.960492643106896, 281.0237788664012 38.221612073389444, 292.2372430051221 24.81402142915666 M268.8310530429781 52.76163245742063 C282.54791080045123 42.83962741595782, 292.06694727010296 37.17237952450243, 297.3589439114607 24.177825740819326 M272.927818579048 54.13082408611517 C278.39827260835466 48.65566906663948, 281.63982876182916 40.60444195115089, 296.24853610005744 23.682361493354193 M271.9068867920368 59.11267155567327 C281.2707220348549 51.13807989339836, 295.65349851114905 33.80639752656724, 302.32464827690274 24.052506449098264 M270.9372703014343 61.15505368271985 C278.9246639033157 53.151154852248375, 284.12600230195335 43.89254220125213, 303.38830643687396 23.895546420688305 M272.4324197068047 68.1120406244844 C279.0790664850143 55.04460183040302, 286.1633743730312 50.70610068140772, 309.47598062507296 24.555639413381215 M272.6111367657017 67.76319064246115 C284.1624681860198 49.98218707422679, 299.32795460274497 34.745127555637616, 307.0594750200906 23.813581309104556 M271.92170560430094 74.61173694929956 C283.1444407022407 60.319039248278216, 300.26371653844905 43.59999558640246, 313.6387308889524 23.43288359822271 M269.9023389763693 72.96524006328461 C287.06390839541484 53.408002830497644, 304.6460121928427 35.867343857166844, 314.9954489701883 22.371382935657476 M269.7005344175064 79.85741949467321 C292.4828904073987 60.788152807658946, 309.69931722528 36.03470857497762, 316.20195288556016 23.261236289068187 M270.694284053918 77.94611872224469 C280.6664304953833 67.2988345821272, 293.4332074932398 52.335344346919676, 319.41164929168616 24.116456398292506 M268.45795996344 86.72608554605084 C287.55281324804815 61.98590272104961, 305.6298187481702 43.653639688279384, 321.96643654787715 21.011356450472125 M272.1523930028668 84.70333171728687 C283.87285167601584 72.30393504304615, 292.686610482662 59.26353903308241, 325.65398310506515 22.571218474064118 M270.4387131460924 90.04310364820972 C290.2392779592063 71.81169432681635, 312.732674438611 45.936810799924324, 331.89623569292235 22.485241367880075 M272.71651391470624 89.76400540568844 C288.76104081302566 71.77327088608108, 309.18094392768927 49.247449003338886, 328.75037141484427 24.47067426091787 M273.4750248694541 100.04634234592713 C283.36862330155157 79.50671139691148, 301.2168988990732 66.29301169586735, 327.66260899276233 32.27093622785152 M271.1327448809268 98.24901614472664 C289.3611466909069 79.66191736790485, 303.7902046154637 60.17560628417832, 329.75469008059 30.31712675791324 M273.418448950544 101.85029892464851 C291.975825989675 85.36680522853526, 308.8124395121321 58.92738276788388, 328.22125958331145 33.49363293338136 M271.8852569060475 102.73711903234695 C287.0529974640213 85.1658960557827, 302.0574345406748 69.13963807759262, 328.1240094257168 36.73127568054513 M273.1322753223432 109.76313234892838 C293.3892495352434 84.29831553096615, 320.69461395223846 57.97977862662814, 331.69874128158887 42.192828769915245 M271.5887071105493 108.98198084560387 C286.65752999149856 92.6372304796624, 301.99333143285435 72.78208711042453, 330.60500045474373 43.029376126759196 M268.84305780187066 117.72433990421227 C285.0181626438958 97.56075360908835, 299.46108304581986 77.70228807455067, 328.97728499158507 47.55639228223041 M270.73976649895127 115.34985668244293 C291.9941407968702 90.01037206274302, 315.2516288595271 64.21355036029742, 329.4187612591613 49.25730445383266 M271.9330272931168 121.62179013527744 C285.7191756155042 110.83273030617119, 299.4095931686021 92.18385648616828, 331.7266216172905 54.58469201510403 M269.7095331627438 122.5366229001414 C291.712489905538 96.48782912839727, 314.94273146499137 74.98967140954824, 330.09263993046 54.254687019042706 M272.9719147000722 129.95585158690105 C282.1608903188145 110.92322726874438, 295.1043831375126 101.94935627931697, 330.0358049757242 62.75472525398167 M270.97535519341744 128.43190585597645 C289.94848302558637 104.78118779540101, 308.58067515133564 81.50195633854361, 328.0920574731588 60.11902892033489 M269.74877383975587 136.1035215445287 C285.9969734113042 121.12920268232871, 298.6115447733516 105.0352238573524, 327.00562499986705 69.1371509634178 M271.75265359549127 132.58321064789365 C284.47581600153774 120.68817215879001, 299.47878820296387 105.11734614220738, 330.4129210077387 65.92274693476371 M269.8643946451488 140.63545897271482 C285.65122330139553 117.99808038511831, 307.54601227492094 102.21447289011878, 331.5001355067382 70.03396642885797 M272.7873354894462 139.51295405294744 C291.5193964307521 111.39784393883514, 315.88551879428644 86.21808926428868, 328.93315153871873 72.75084616027466 M270.68283093327 146.55366115690495 C293.9819342652221 121.65732856376255, 307.43079719004527 103.74499981434919, 328.73906740032817 76.89554019507935 M270.9073218798013 144.5561411690834 C292.7605496977529 119.34648916871686, 316.5336849836812 94.87786053298002, 328.40509715758947 80.61795295414498 M268.3238136081099 149.60849664187634 C293.2610719512562 128.50530740314304, 314.8119381336686 98.00350430331021, 327.52965158462735 82.18474080685922 M271.014960858047 153.1773983535787 C296.42080831421055 125.42336255434002, 317.8939324957698 100.50447271910778, 329.4873559558413 86.5324436736519 M272.89457357365904 155.36283397240624 C285.7406348545613 140.61728365373273, 299.0783473474424 129.43734442615298, 330.6984418766548 89.24106554964314 M272.3188505156738 156.63510196371064 C293.30156440777836 131.1183762921099, 317.8229889239491 108.21196441440053, 327.7765989379932 92.16057341674099 M272.5216646469365 164.25617043394016 C285.5451954472553 149.89377318105176, 297.0465890673879 132.9575415367901, 331.2837282093915 96.1976733879855 M270.56566185720067 165.24550709742473 C282.63744047676994 150.03804409689272, 294.7528289340768 138.76077250409884, 328.99998322452626 97.54350896046667 M273.68731773193264 169.0763745712553 C281.47740899121794 157.283575046327, 294.1736464054613 141.09881131824855, 330.88706439985634 104.01906160733189 M272.57649297411825 170.85449011199816 C283.4728945568234 152.91981249936765, 300.1971509447512 134.49814813353913, 328.7666798199594 102.93500540277448 M271.6612637326381 178.42381492912892 C289.14255719674645 158.60163748620644, 302.9549280427109 133.3638367143469, 329.46568135204 106.81809875245956 M272.87869195791694 176.9016773647082 C287.18024255668433 158.84859237187243, 301.71902129868005 138.82383543616854, 327.7602868157832 108.91843910094168 M272.1325564660718 182.57548879300654 C286.0227197566207 165.91097947385228, 299.9714206597741 151.67203924298366, 327.764309969933 115.32015336814568 M271.9376798131158 183.6845739535004 C289.4886531453145 157.33136074363227, 309.8146615033129 135.87732707973623, 330.7706523034882 114.47093641224548 M274.60198586521466 188.60205512744267 C291.00715493513246 164.83236468020004, 314.2038274730814 137.46583286857486, 329.7470040705541 122.72722273983581 M272.14936366019566 188.4755966554292 C284.8071323496023 174.46231119717112, 297.8213701358456 160.53949948401356, 329.7256972875932 121.42750243463142 M271.53360574708586 196.40551121788283 C292.80385095953864 170.18927091106528, 318.91051748508653 143.95684198169204, 332.3895535868846 127.03496583208445 M270.3916645036757 193.75975056844015 C291.3281526422315 175.051556342086, 308.7321307229014 153.28830238179086, 328.48382888857947 128.198053945154 M270.1471470156758 201.83622560910422 C286.5712653868624 183.73550998303804, 307.72110058180067 162.37079874073277, 331.23101233594326 132.67037993033708 M270.0169304350464 200.95166204981047 C290.32811058914115 182.5740817355981, 306.7474252590826 161.8909807218037, 328.98546811096577 134.80509604175867 M269.24984057497494 207.35706684588408 C282.6007930783685 190.0599588655645, 298.85783936544544 176.1088478748231, 329.36611122172064 140.80883357937097 M270.28375954579826 205.25970745681738 C285.74792217937534 188.437011475764, 301.55939924699555 172.5572189298291, 330.44546304624265 139.80075508172274 M268.0682402420024 213.507532213668 C290.3542903093223 191.958183868286, 303.15275481005443 173.2614807126362, 327.0770811482073 147.23819532396334 M271.78882284045017 212.95014188740646 C290.1436989968223 190.015371042409, 309.4702943718332 168.69759543984554, 328.3849117859007 144.7309074223234 M268.84063594973907 222.02078067701038 C289.4740474351172 203.6168490089793, 300.68943251555294 183.88840695331302, 330.6654759324222 153.02296244955977 M272.45927743948323 219.06413211863216 C282.5497411622309 204.05583851300247, 296.504398432915 190.74589898757606, 329.6629853344589 152.19930816150628 M269.56858151520396 224.66130952135677 C285.64119549660734 207.5253024450548, 298.1197563065821 195.55366534753466, 329.4445855073464 161.22129392071463 M272.9042943474164 225.25543324843997 C290.07674509295543 202.016188845006, 311.71366418048706 178.88539064263858, 329.26934081239824 159.58462407632567 M273.00930784238767 231.9419872914844 C286.81914664462084 216.46522195047993, 303.1101607618412 196.59448638196287, 326.89096368999884 165.72268702287352 M272.40747165574027 230.30742163410716 C290.05119605106626 211.72941221272052, 309.1217243540097 192.25422425649734, 328.47564922423766 164.07811026472723 M269.90754583528053 238.98818253217055 C289.6149243341451 213.2022133173474, 309.56894171150003 192.95507330692743, 330.43684138437 173.56501030081367 M271.15865745594516 237.79722363291097 C292.63888372328233 214.30068825764107, 311.948824558098 188.1271915617117, 327.6280086614677 172.4006430839882 M273.4273493109017 242.60189252886067 C296.12986638324935 217.3794546757647, 318.3754342608726 193.81857138866866, 328.3019494944504 177.1986322993123 M272.4857727525502 244.5598443427969 C290.2578324597752 219.47102689135264, 313.18402114403676 196.9889140766225, 328.3787672155789 176.46684889138572 M270.5445082022322 250.7787762461093 C288.12689717755075 235.1807923075306, 301.37321257125274 217.77409521193684, 330.3253418372591 184.35055030381494 M272.4472246660364 250.40520054081946 C291.0491346984819 225.3577974500697, 309.2808456190499 204.08512366986858, 329.5183458910902 183.44923278486542 M272.3980763262908 258.745830969362 C294.6100524347524 229.63052604317048, 317.02763018267825 208.77144170317825, 332.157808345777 189.1414232788761 M271.5834342009227 256.7557973249242 C285.73938583950826 240.305089141526, 296.69242223338426 226.5938319975091, 329.36765180848266 187.09521154148175 M272.08278458706826 264.87842524339584 C285.5627242793007 244.30586972335308, 297.6939405614257 227.26398693602872, 327.2134028370232 192.9232485099412 M270.90924944869965 263.56376105238826 C289.85065405389355 241.8306828956507, 310.09418920037365 217.94731813080608, 327.9296059722752 195.1647902591802 M272.6808638885549 268.5644276129882 C293.50237288097367 245.5166769493956, 314.73273988050573 223.57718690212116, 328.4618562149881 200.9963945417876 M270.9457685008577 267.3749680804889 C291.5190523256693 243.84306232280528, 313.5852393997452 219.8609926539919, 329.28155647395835 200.747595295238 M275.0862812507034 269.18536830202527 C287.32251132768715 254.30171733577063, 299.0385346771429 242.57290288148144, 332.4603993836623 207.6737299191925 M275.34457556484944 270.11020644561233 C291.60069601792645 250.16071002596777, 306.97620462781333 232.04381200244666, 331.0071014050227 205.92700300693244 M280.27597243255167 271.52766375639794 C296.06144888703636 251.1101095198861, 317.2932865694191 230.0536409204924, 328.1855861600647 213.34475192760138 M280.1589735872128 268.6764004061496 C291.68071325271615 257.67911913324815, 301.2242159940029 245.83007984690798, 329.6279117699871 213.444268492209 M287.47043222212807 267.4355208417747 C303.7994377829488 252.27118105958337, 314.84130634577843 232.57750377175523, 331.6257064771764 221.1926195315688 M287.80457454347624 268.819514640269 C298.1191852262884 255.47644276325806, 309.637543911998 242.85142824377542, 329.3961446893327 220.4155585281222 M294.75795055241383 266.7920985227098 C300.6107783195425 256.35070880969124, 314.43545882919994 241.982704024073, 327.3323141520163 226.03183001654014 M291.4835355541209 268.30571592502497 C299.3611373951391 261.3380044081143, 309.44166791235136 252.078532287424, 328.44597116757836 226.5696282126175 M297.5900812404278 267.9118940846491 C307.62294215381667 262.44066387447094, 311.58936257319914 251.49033123591911, 328.61264008857495 230.22525192729282 M295.8800276236656 269.11375935836315 C302.0980769631566 259.64808236262354, 311.1302586906857 254.00809045070892, 330.7859892962146 231.1648539029722 M304.830114219151 266.30306649214674 C310.7536506462319 262.9462371428892, 317.11067501182634 254.89574104881987, 328.7614151908429 235.14825380860395 M304.2087078725915 267.19731171733787 C313.15249366655155 257.36954589049316, 323.7112213598365 244.42635335110623, 329.3310471667321 237.45336195646354 M305.9046033056025 269.10511303064845 C314.7342579883058 263.87466926512207, 318.89662313495194 257.08038360383625, 329.09269327583905 245.45283294591906 M307.5662473054175 270.32262809989476 C315.0885486650116 263.3580385112747, 320.41047719874933 254.40107893048653, 330.5340657836496 244.34515747103694 M312.4518384327633 265.4511926647087 C320.35149491435175 262.17675651298146, 320.3429713636237 260.04968742268727, 328.7322642765445 246.5846483037927 M313.5798030426247 268.6308752830883 C320.6416257844791 262.3647326515409, 326.34334308366044 255.3192225476573, 331.1784522674484 249.725157223747 M318.9603187529212 266.84408144843155 C320.0210459155904 263.2139105814958, 326.7463063357297 256.793510880553, 330.064706580324 257.36723233357634 M319.54271552333887 268.51858628075894 C321.2629340752655 263.9868083420509, 322.8182053647835 262.7888201294174, 330.03108535109266 255.55687610671484 M324.69064933107927 268.7906761756991 C325.74801969831196 266.37437657419247, 326.9492262699204 265.223183247621, 329.1460043449857 262.99176860740323 M323.55450347946714 268.7742730084513 C325.7020699082501 266.35602709516337, 328.0735844790557 263.34407179531166, 329.8177093692281 261.90499381234787" stroke="#1f2937" stroke-width="1" fill="none" stroke-linecap="round" stroke-linejoin="round"></path><path d="M273.6711014500031 26.968862330913545 C284.10846189122935 22.107205820230337, 294.1403657894868 22.78985390677819, 327.35176342909153 23.3109472155571 M272.03315578011365 24.093431097269058 C289.1068417118145 23.398566975721945, 303.35698638374987 22.952662243971456, 330.3163737971049 24.018021589517595 M329.4249516658043 22.680381737930247 C323.0092010862183 88.45519167704674, 326.667745932347 155.01965379235952, 328.65171620497165 266.0459414840144 M329.48300637662334 23.7393174425125 C330.4432237091441 90.17168386031365, 330.56771605658633 156.3303939981026, 330.0607203373094 268.5409166017983 M326.36869954054174 269.833983027935 C311.02990996700066 271.29327799452267, 297.66457010049083 267.81472002638304, 273.5379376163849 268.6174497485161 M327.9928392130595 268.68011513352394 C312.7033757521556 267.33575039788394, 294.39466790648606 268.79837838097717, 272.5938935807118 266.66780377030375 M270.21751751281664 269.15613568350915 C270.5888129785494 183.12395815848419, 272.0043642136722 96.85524320246796, 271.8702816289664 25.554968748079627 M271.21509263569544 269.3132147259218 C273.8580798593653 206.27233174843263, 273.8901106019199 142.73208244202507, 272.39372125671844 25.259289248386295" stroke="#1f2937" stroke-width="1.5" fill="none" stroke-linecap="round" stroke-linejoin="round"></path></g><g><path d="M343.4866429354993 115.73659023871126 C343.4866429354993 115.73659023871126, 343.4866429354993 115.73659023871126, 343.4866429354993 115.73659023871126 M343.4866429354993 115.73659023871126 C343.4866429354993 115.73659023871126, 343.4866429354993 115.73659023871126, 343.4866429354993 115.73659023871126 M344.9926612836073 120.62831206616838 C344.8536179170128 118.86877936602401, 348.0012289179063 117.44732304974588, 348.25845403402496 114.26938363147849 M344.29683911084635 121.07621072170217 C345.8984249157578 118.70070742585366, 347.91379363316895 117.97997465121774, 348.7059226289337 115.3059284700262 M343.5570693789699 126.19162160190008 C346.9031603652807 124.93585691132097, 352.50031464967793 121.43096817064891, 353.23680673527406 116.31198006455153 M342.6138525770881 128.3333779660072 C345.72228888732565 123.43486253055134, 349.791766208407 119.91067911134901, 353.8239007167785 116.72556126538963 M344.7839936157545 130.93149573960937 C349.54473787740193 128.91179974475236, 356.3426494575635 117.70123641035342, 357.3656498401827 118.1367535683217 M344.02394057566727 133.6111976892654 C350.6614697741175 128.17112749642774, 356.9338082332694 119.99479849363027, 360.69321519876183 115.84417754289531 M346.8706941975464 141.23541769995308 C351.41035847329465 135.36399780390022, 357.14187330342315 127.5447206949887, 367.64050466073456 116.59315086442228 M342.94287663681405 138.35394358797885 C347.40578176932536 135.45562668908397, 354.8677790965974 127.83202597693719, 365.38104127747715 115.63617764699455 M344.2371402627366 146.53356878627338 C348.44831299954245 135.15586104044945, 357.9190188627991 124.46499888429696, 369.19247258742524 112.79619661252669 M342.55809718282393 147.04505832214153 C351.4688359007805 137.1596144376018, 361.84411217274726 125.34318859492898, 370.60446282317116 114.17686630319527 M342.4033556840659 150.51821207459744 C354.3745352270159 138.74899478696514, 362.5165364203928 127.43759766085807, 376.532775406024 115.09290762933041 M344.79133507081275 150.27118973340566 C349.96789329724606 144.0934527771849, 356.3126294204513 135.34131163802675, 375.06234810598806 115.29670759381796 M342.305562247303 159.5113643816208 C352.3581805419008 147.84592888916586, 359.51292149217295 139.57916947862986, 383.28124601826164 116.4770874106379 M342.92895857092424 158.67530190409178 C352.55374405407156 146.0847784811706, 362.7366331720662 136.09116126322976, 381.46061401203366 114.34951478029208 M347.188592854179 166.88182920314804 C353.70947687982544 152.19861943169843, 364.2628145322816 139.61407341761304, 388.01785620990717 112.72700277314478 M345.0643845692645 163.62370809562935 C359.5197620592838 146.80149226452374, 375.3910220784118 128.45965391381384, 386.11375381145206 116.60012694493824 M343.65741929046305 171.18287335587453 C356.2788104818978 158.31516544288098, 364.52887524773 148.79869870698911, 389.03118888269177 118.06770721265539 M344.49960633597766 171.5937473903389 C357.9970500661794 155.614121690802, 374.15213746240414 136.68357789074392, 390.2433093903493 116.3367323491858 M340.5695654288955 179.76925991582763 C355.1009591123624 163.77028684855094, 368.1260987852802 148.42467945729484, 397.36996582238413 112.90871754586537 M343.187606728179 177.64081762987266 C362.3955857049916 156.36615329908017, 378.46982328071084 137.00908448672328, 395.9793990188692 115.25854507535537 M346.96693014221694 184.76137695903452 C356.28968606502303 168.61222253455955, 370.9899258949798 156.26195304669105, 398.93546090172504 117.86104684880192 M344.6141811029842 183.21250415588293 C361.123750445603 157.7990626172744, 381.9077155846351 134.85499321659643, 401.00313055412744 115.14283796509916 M346.8076102161962 187.00936630219073 C358.9673719361966 171.96493900770975, 378.28029492668503 145.6147744824005, 403.9648507615308 124.53900983927441 M345.0797602305371 189.9627085506901 C356.25143861654755 170.43616142475668, 371.8683466860683 157.34266928951934, 402.1799521213154 122.49674800185157 M340.40225452357396 197.26486602132348 C366.40802057000457 172.21083442266286, 389.053787473076 142.36155634684866, 399.10845441949454 127.01132169219625 M342.0857644679533 194.77339115594654 C364.36791776026735 168.49922719584524, 386.04292678509205 141.10794709111633, 402.5868917225012 127.45837512615095 M344.7458869370907 202.54513919246006 C363.0983252730266 177.9163649740467, 388.25671133915404 146.85963814958458, 398.7206707483566 134.68587048359464 M344.8164266723483 199.56869981330442 C362.44488856532297 177.1913626885706, 382.41464036701774 155.57243347702325, 400.9534947148002 132.93155467964957 M345.8497292425153 206.09720263229596 C362.67869545758447 188.78924771015699, 379.3445115338164 162.12209721875462, 399.2402736208577 139.03616928949685 M344.62061511386605 206.7290986050843 C358.1004751647165 191.95242652347164, 370.49034011819975 178.53595537911266, 400.99211895532795 139.16230950399967 M344.03361434157887 211.81485983663566 C359.57736045016384 194.1670586473923, 379.4009604124453 167.7378030518273, 401.92223482276677 147.1654849265984 M344.85424667861264 211.75840079271563 C366.36505293706387 184.11673757659847, 390.6262411504969 160.098316511742, 401.0797577142286 145.55297868152172 M341.3775140200504 216.77637762217466 C358.2398993449582 200.2453167390397, 372.98548896376946 187.2367596295283, 400.5301372558147 153.42387089070365 M344.08181463673196 218.4714454585189 C367.15535327056523 193.29555299261858, 387.80178947666144 168.83786221176717, 401.7004528776079 152.9292504736452 M342.21395215067037 227.66151906494025 C357.1003508362851 211.40952918673017, 368.6296396808289 199.60897091949246, 400.7877027057706 157.54584399850833 M343.5188018453396 225.26113044414643 C366.45263546339623 197.92373946137957, 388.6452760731945 172.54329167666862, 401.44682271561015 159.5278389626907 M343.85982760617924 230.31567224095966 C352.9348975854553 214.62031296732556, 370.0434046196874 203.25297005751676, 401.6712050453749 161.86741732603957 M343.113503661551 230.11254109125045 C359.38042758630803 213.98353789706582, 376.69144163049305 194.9917331658035, 401.2624750853505 163.26351699031045 M343.3482371723461 239.31397896692835 C353.466941644436 223.47094151191058, 365.26824575623135 207.80597474434495, 398.94129314736824 172.89022894932452 M342.42885085551023 237.21707898215135 C357.45931285649266 220.98326342000294, 369.70449399414207 205.2146589176779, 400.52383034394484 169.94324489815656 M341.1208887509018 240.77836773865087 C358.9110206922639 224.16858298946147, 383.2764563781671 197.9637539852651, 404.6748137975194 174.0456706850589 M343.28482281332316 244.8394948782788 C363.2477598169 219.6393289248611, 381.90934838123746 198.02081402212607, 401.1219442615368 177.48029926854974 M344.4796291276155 252.11523037282265 C355.0034021333338 231.1869515793453, 367.34292478800234 218.75554491670772, 399.75722489755947 183.71192102904698 M344.1599753051339 249.30556536195314 C363.6592096550628 222.61811251338327, 385.5821479174731 197.94530327192777, 400.5049212242325 182.9613058629193 M345.6788571752277 258.4324549454711 C362.373345254821 237.12778077195594, 376.75008727998676 214.3574912166289, 401.3341232332576 186.95162179798444 M342.8338536880579 255.26912577482682 C359.65811422072204 236.55100387068953, 380.1218124713634 215.09595674770583, 402.0794420021761 189.8339162635859 M341.45734676647874 262.10355453262326 C355.72776154323924 245.74067777449375, 370.14228641223076 233.82498656646365, 402.50365767735406 193.5289110678985 M343.66881581921075 263.12619895855187 C360.9962446552205 242.71793673387685, 375.5978682375458 226.4612511389141, 401.8531769524829 195.7738408122017 M342.97006968713777 265.1317959509747 C357.2245522095232 246.43364148705064, 376.89669897948716 227.72076544613543, 404.64835210258957 197.8735519148163 M344.09185496873636 267.6291239954489 C355.94239836273454 250.9614766886954, 370.8962835089505 234.79512733943815, 402.1166089322686 202.49897735041895 M348.87302204186926 267.4842656347707 C368.7106964204061 244.34741581386317, 388.3485629159779 217.37505092294754, 401.7669282947329 206.24506115543343 M349.82942622567424 267.670622085388 C363.87182941885095 247.4404726517479, 384.0709130105042 228.57542445549353, 401.12485621167696 207.9835399605582 M351.65357144249924 268.3237378820432 C368.13720412155914 255.30985679041424, 376.8333253117852 238.69149018745168, 400.1667191555153 214.74974228555442 M354.5877936862255 267.76566479202637 C373.6477613378394 246.8712676447157, 391.38562357845 225.25634193595025, 400.54008567681416 211.9250919040489 M356.9879917617681 268.0862257688194 C370.61441181799825 254.79322626681832, 379.33162412142724 243.5120927004864, 399.5151964707055 221.07836212187465 M359.96056520750545 269.17902495701605 C367.7796182154991 255.88952646161323, 380.0491020112339 244.07844456279008, 401.4330405978241 218.13222226321156 M362.1687547854449 270.43749611179504 C375.8674975405425 254.0401463408149, 387.4084708787518 242.38933505070506, 399.7323841130442 228.1231837404215 M365.6059840596582 268.9317916626778 C375.95609296877524 258.1282025156658, 387.0493568294865 245.88419622807578, 402.1254538318223 227.19157887969848 M369.3969434152607 266.6901024067745 C379.2023857542229 259.75884335623283, 389.2314543505911 247.2786426018131, 404.5226809552718 232.74209521722216 M370.2893421287898 268.4684031704411 C379.7370067393542 255.55442582424232, 392.9826401631725 240.00360653004466, 400.67187073592436 231.88199709516184 M373.2337794369843 266.74106147045313 C387.6900551200316 255.87769670639716, 391.94488927377904 247.61587750162627, 402.5066837831574 236.92273836897206 M374.2845076850441 269.6443235626262 C381.6496837439125 261.90913294060755, 390.6357479799491 252.27639413553376, 402.1414720802742 236.58862849192215 M380.94909575234703 269.9341767986357 C387.83556605597573 262.47583210163185, 390.7841097912932 257.19123826237285, 402.91360049843195 241.79954169147584 M381.0723976145273 269.8383661006629 C390.13273850053054 258.3754460204495, 397.89866864608007 250.22999754222752, 402.0604872509778 241.96997383140896 M387.1728641471176 270.39771520801753 C392.2559749763824 266.5974565367685, 394.4032190137177 262.3064661159505, 400.6327778868644 249.79139700142895 M386.9425051873832 267.5403698668716 C390.5838127846673 260.1490130687199, 398.31070611544123 255.0597765269386, 403.21372201817917 248.94555969594273 M388.4785715005404 266.7166287395491 C393.80888644401216 262.9462153547241, 395.35284705516557 262.4075526779415, 399.5879182318446 258.1511278272006 M392.036735313893 267.32206308217184 C393.4736020914079 264.7939864960287, 395.1959740170918 263.70686221787025, 402.13260376608343 256.1865510690543 M394.769963999781 270.0233140210044 C397.3695292045689 266.32167632048504, 397.7725384665909 266.4444104786551, 402.96730207202825 260.90851763988843 M395.29371428640485 268.4533996401709 C397.6307911638062 267.7593104462324, 398.2096861555904 264.81176297696976, 401.2073336653957 262.5935610804241" stroke="#1f2937" stroke-width="1" fill="none" stroke-linecap="round" stroke-linejoin="round"></path><path d="M344.1504152740424 116.81107791364192 C352.7048081332675 119.77523804451869, 368.7523803137816 115.8285481527035, 401.58970428636445 118.63868401944637 M344.90298318668056 114.41678887158632 C361.75278290899905 115.3894394888832, 379.87315605661047 114.03205857419509, 400.0954672463812 115.12252698689699 M401.03209549119845 114.30453256070614 C402.8001908656598 156.38757364130578, 401.93247798647883 202.8646912599914, 399.8628435724057 267.4451605170965 M400.71988321622985 115.50580755025149 C398.71544534757885 167.17082259603777, 400.5036970813587 220.02202691184357, 401.59347630819457 267.6179497793317 M403.56087442567724 266.2924787849188 C387.2796951510586 267.76952057007645, 368.665328010229 269.82132310990187, 345.5839604820197 271.1718121856451 M400.3910490163244 266.8501439169049 C384.6638350748099 267.7050726127395, 369.16256565233846 268.7333575916061, 344.8039054374283 268.33475471287966 M344.32747473372865 265.74825643002987 C342.33749753215136 232.88084853016773, 347.6780305025798 198.0557593558915, 342.0267103637641 118.65135386884212 M342.2359630088394 269.5857842996717 C347.2676948826459 235.79671193412506, 348.11613033224614 200.452520244848, 344.01823224826506 117.0042406156659" stroke="#1f2937" stroke-width="1.5" fill="none" stroke-linecap="round" stroke-linejoin="round"></path></g><g><g><path d="M40.83204920370613 268.93553449859104 C114.8913412699328 268.01959517484084, 189.85973162795514 265.2113591325526, 415.22974693045063 268.38079594231226 M39.37041329970101 268.2568161076546 C123.65483848908916 266.4265054305921, 206.5404739852064 265.8735883006318, 415.4366959605844 268.7306736915432" stroke="#1f2937" stroke-width="1.5" fill="none" stroke-linecap="round" stroke-linejoin="round"></path></g><g><g><path d="M83.79610183951948 268.46266467481854 C83.11162289439831 269.7583491781727, 82.99624536334667 269.56957475818695, 83.00368994948957 274.1883210411668 M83.07325591427777 268.1270073322952 C83.56267949645911 269.71868708949535, 83.39321059291754 270.7733555857092, 83.10603572709057 274.3613516192138" stroke="#1f2937" stroke-width="1.5" fill="none" stroke-linecap="round" stroke-linejoin="round"></path></g><text x="83.3846153846154" y="280" text-anchor="middle" dominant-baseline="hanging" font-family="&quot;Comic Sans MS&quot;, &quot;Segoe Print&quot;, cursive" font-size="14" fill="#1f2937">Mon</text></g><g><g><path d="M156.1037941472118 268.46266467481854 C155.41931520209062 269.7583491781727, 155.303937671039 269.56957475818695, 155.3113822571819 274.1883210411668 M155.38094822197007 268.1270073322952 C155.8703718041514 269.71868708949535, 155.70090290060983 270.7733555857092, 155.41372803478288 274.3613516192138" stroke="#1f2937" stroke-width="1.5" fill="none" stroke-linecap="round" stroke-linejoin="round"></path></g><text x="155.6923076923077" y="280" text-anchor="middle" dominant-baseline="hanging" font-family="&quot;Comic Sans MS&quot;, &quot;Segoe Print&quot;, cursive" font-size="14" fill="#1f2937">Tue</text></g><g><g><path d="M228.41148645490412 268.46266467481854 C227.72700750978294 269.7583491781727, 227.61162997873132 269.56957475818695, 227.6190745648742 274.1883210411668 M227.6886405296624 268.1270073322952 C228.17806411184372 269.71868708949535, 228.00859520830215 270.7733555857092, 227.7214203424752 274.3613516192138" stroke="#1f2937" stroke-width="1.5" fill="none" stroke-linecap="round" stroke-linejoin="round"></path></g><text x="228.00000000000003" y="280" text-anchor="middle" dominant-baseline="hanging" font-family="&quot;Comic Sans MS&quot;, &quot;Segoe Print&quot;, cursive" font-size="14" fill="#1f2937">Wed</text></g><g><g><path d="M300.71917876259636 268.46266467481854 C300.0346998174752 269.7583491781727, 299.91932228642355 269.56957475818695, 299.9267668725664 274.1883210411668 M299.99633283735466 268.1270073322952 C300.48575641953596 269.71868708949535, 300.3162875159944 270.7733555857092, 300.02911265016746 274.3613516192138" stroke="#1f2937" stroke-width="1.5" fill="none" stroke-linecap="round" stroke-linejoin="round"></path></g><text x="300.30769230769226" y="280" text-anchor="middle" dominant-baseline="hanging" font-family="&quot;Comic Sans MS&quot;, &quot;Segoe Print&quot;, cursive" font-size="14" fill="#1f2937">Thu</text></g><g><g><path d="M373.02687107028873 268.46266467481854 C372.3423921251676 269.7583491781727, 372.22701459411593 269.56957475818695, 372.2344591802588 274.1883210411668 M372.30402514504704 268.1270073322952 C372.79344872722834 269.71868708949535, 372.6239798236868 270.7733555857092, 372.33680495785984 274.3613516192138" stroke="#1f2937" stroke-width="1.5" fill="none" stroke-linecap="round" stroke-linejoin="round"></path></g><text x="372.61538461538464" y="280" text-anchor="middle" dominant-baseline="hanging" font-family="&quot;Comic Sans MS&quot;, &quot;Segoe Print&quot;, cursive" font-size="14" fill="#1f2937">Fri</text></g></g><g><g><path d="M41.13383007784114 25.274849069785564 C35.559560819204584 74.3395254698633, 35.24164387818671 119.31385051926355, 38.95037926373283 268.51890908733566 M39.14206475503116 24.349962269101198 C39.4761485593709 79.08607326919343, 39.009185582086566 132.3424769482084, 39.232387868393 268.99568607826166" stroke="#1f2937" stroke-width="1.5" fill="none" stroke-linecap="round" stroke-linejoin="round"></path></g><g><g><path d="M40.41148645490408 268.46266467481854 C38.6464911910519 268.58750473086536, 37.331086686477065 267.19870333735645, 33.619074564874175 268.1883210411668 M39.68864052966237 268.1270073322952 C38.88282586950809 268.4527428074926, 37.38524561487139 268.1792999526113, 33.72142034247518 268.3613516192138" stroke="#1f2937" stroke-width="1.5" fill="none" stroke-linecap="round" stroke-linejoin="round"></path></g><text x="30" y="268" text-anchor="end" dominant-baseline="central" font-family="&quot;Comic Sans MS&quot;, &quot;Segoe Print&quot;, cursive" font-size="14" fill="#1f2937">0</text></g><g><g><path d="M40.41148645490408 217.62933134148517 C38.6464911910519 217.75417139753202, 37.331086686477065 216.3653700040231, 33.619074564874175 217.35498770783343 M39.68864052966237 217.29367399896185 C38.88282586950809 217.61940947415928, 37.38524561487139 217.345966619278, 33.72142034247518 217.52801828588048" stroke="#1f2937" stroke-width="1.5" fill="none" stroke-linecap="round" stroke-linejoin="round"></path></g><text x="30" y="217.16666666666666" text-anchor="end" dominant-baseline="central" font-family="&quot;Comic Sans MS&quot;, &quot;Segoe Print&quot;, cursive" font-size="14" fill="#1f2937">5</text></g><g><g><path d="M40.41148645490408 166.79599800815183 C38.6464911910519 166.92083806419868, 37.331086686477065 165.53203667068976, 33.619074564874175 166.5216543745001 M39.68864052966237 166.4603406656285 C38.88282586950809 166.78607614082594, 37.38524561487139 166.51263328594464, 33.72142034247518 166.69468495254714" stroke="#1f2937" stroke-width="1.5" fill="none" stroke-linecap="round" stroke-linejoin="round"></path></g><text x="30" y="166.33333333333331" text-anchor="end" dominant-baseline="central" font-family="&quot;Comic Sans MS&quot;, &quot;Segoe Print&quot;, cursive" font-size="14" fill="#1f2937">10</text></g><g><g><path d="M40.41148645490408 115.96266467481851 C38.6464911910519 116.08750473086535, 37.331086686477065 114.69870333735645, 33.619074564874175 115.68832104116679 M39.68864052966237 115.62700733229518 C38.88282586950809 115.95274280749261, 37.38524561487139 115.67929995261133, 33.72142034247518 115.86135161921382" stroke="#1f2937" stroke-width="1.5" fill="none" stroke-linecap="round" stroke-linejoin="round"></path></g><text x="30" y="115.5" text-anchor="end" dominant-baseline="central" font-family="&quot;Comic Sans MS&quot;, &quot;Segoe Print&quot;, cursive" font-size="14" fill="#1f2937">15</text></g><g><g><path d="M40.41148645490408 65.12933134148517 C38.6464911910519 65.254171397532, 37.331086686477065 63.8653700040231, 33.619074564874175 64.85498770783344 M39.68864052966237 64.79367399896184 C38.88282586950809 65.11940947415927, 37.38524561487139 64.84596661927799, 33.72142034247518 65.02801828588048" stroke="#1f2937" stroke-width="1.5" fill="none" stroke-linecap="round" stroke-linejoin="round"></path></g><text x="30" y="64.66666666666666" text-anchor="end" dominant-baseline="central" font-family="&quot;Comic Sans MS&quot;, &quot;Segoe Print&quot;, cursive" font-size="14" fill="#1f2937">20</text></g></g></svg>