<svg xmlns="http://www.w3.org/2000/svg" viewBox="0 0 880 340" width="880" height="340" role="img"><g transform="translate(130, 56)"><g><g><path d="M45.45905089432774 114.51614489424396 C85.72969627820751 114.53409087024428, 126.50190140401332 112.98475549325724, 249.07504272720846 114.21008939987708" stroke="#1d4ed8" stroke-width="1.25" fill="none" stroke-linecap="round" stroke-linejoin="round"></path></g><text x="102.26" y="108" text-anchor="middle" dominant-baseline="central" font-family="&quot;Courier New&quot;, ui-monospace, monospace" font-size="13" fill="#1d4ed8">1</text><text x="192.24" y="108" text-anchor="middle" dominant-baseline="central" font-family="&quot;Courier New&quot;, ui-monospace, monospace" font-size="13" fill="#1d4ed8">N</text></g><g><g><path d="M370.3287161372602 113.95666168704629 C408.6179722654633 114.46198747364804, 445.6312052918598 113.38998398987576, 557.2476864121854 113.27080260291696" stroke="#1d4ed8" stroke-width="1.25" fill="none" stroke-linecap="round" stroke-linejoin="round"></path></g><text x="422.72" y="108" text-anchor="middle" dominant-baseline="central" font-family="&quot;Courier New&quot;, ui-monospace, monospace" font-size="13" fill="#1d4ed8">1</text><text x="504.78" y="108" text-anchor="middle" dominant-baseline="central" font-family="&quot;Courier New&quot;, ui-monospace, monospace" font-size="13" fill="#1d4ed8">N</text></g><g><g><path d="M-44.88120497338203 148.11879502661796 C-44.88120497338203 148.11879502661796, -44.88120497338203 148.11879502661796, -44.88120497338203 148.11879502661796 M-44.88120497338203 148.11879502661796 C-44.88120497338203 148.11879502661796, -44.88120497338203 148.11879502661796, -44.88120497338203 148.11879502661796 M-36.65534108227953 148.0174665659693 C-38.39048468217443 145.1336450819702, -41.447818459726555 143.31500302061224, -44.66815685316651 139.1993245764773 M-36.317459109899545 148.47815532010318 C-39.774384685857065 144.78302294790842, -42.67886422896696 141.6076052539158, -44.72253836836396 139.98920448008437 M-26.824023919534685 148.27101355210218 C-32.69168057552373 144.96216066655273, -34.445894870246946 139.7686781404376, -44.73873464822499 132.33329793392363 M-28.17567009123117 148.15865959111872 C-33.910418437205024 142.9711575486151, -39.31196463300646 137.58811956061166, -44.51075352657317 130.810021189327 M-19.26008960311548 148.327185553464 C-27.17785852962052 139.3605605144061, -37.52943681082482 130.08673594394858, -44.761215815541426 123.45958902796585 M-19.794783528384425 147.71671889607134 C-25.412701430692238 142.43592617190774, -31.42094574690457 135.5826314850022, -45.00229795802114 122.58348938951124 M-11.752413297560533 147.152915126237 C-17.49668136538543 141.0945123687881, -25.619201168342578 134.34926333590388, -44.24270157575337 114.57517646295048 M-10.414036392722746 147.54448855106057 C-21.230378246248268 137.16496437819742, -31.45639044753135 127.3971034816362, -44.71321399438857 113.67021652371652 M-1.5220033036510983 148.65651525870234 C-17.237562449916634 131.98786226697115, -31.518968683378958 118.40245773009545, -45.54990335464207 104.5528263521587 M-2.794311252605502 147.87951128069582 C-16.368265580261617 134.49255206631454, -29.081302082432792 121.07051942318648, -44.47840764153478 105.52239375405213 M6.3925539528315936 148.83262706414138 C-6.947912969274579 134.1548092010891, -20.545079831275565 121.10330757937587, -43.97961070298877 96.46413293387182 M5.440423386107949 148.53804074708646 C-5.996673099306321 136.19038718573378, -16.30617835650997 125.5597798458008, -45.33962084281919 97.01467318012752 M13.722593921106249 148.17471978083523 C-6.225814311368424 127.24115294484633, -27.003281012313774 107.17666639507743, -45.571191296574746 89.59201857137109 M14.209363080058187 147.80879154984177 C-4.943822556354467 128.58147601877712, -23.76038491032169 109.67463776921436, -44.739181479101156 88.73791783905202 M23.156873925391668 148.48759077206523 C-3.067413607569941 122.82815171161376, -26.8999937459342 98.25523675250213, -45.31909093618123 79.8432337529377 M23.58111744838589 147.94668922607124 C-2.530332228449322 122.72564437848771, -27.41295090446949 96.37689874791204, -45.313753368740066 80.69295170543501 M31.329073164906575 148.49986552611264 C6.926919550553753 121.63976176583073, -21.01722710161878 95.8180541881745, -37.207158954537434 78.739031684905 M30.97996017273165 148.06662025038423 C16.14858931202086 132.97736660743968, -0.2959377775539117 116.89707488325568, -37.309911674543244 79.5624842844379 M39.805292713869726 147.87649765625866 C13.809536601344886 121.77875917921793, -10.204342591780376 96.87790057306015, -29.448565214290102 79.20025129368872 M39.79207899723611 148.43718203489007 C18.187156111089852 125.67691017611233, -4.029604717336655 104.33635103692914, -28.805309901735566 79.77744361380459 M44.53602161556714 144.09573499485182 C23.105194412960557 122.7858389085623, -0.36568576526180296 99.23308719694607, -19.485096672407035 78.37302066138358 M44.63629182260715 144.63889902326542 C24.400611270532885 123.61485442852285, 3.247618746841847 103.06952454683392, -20.68922646236295 79.4239296994579 M45.30049113184444 134.91847384280032 C28.640634299932678 120.90273215704815, 14.507330056647598 104.86890937719538, -11.456511629669475 79.58440277627084 M44.427150955612284 136.31482694024658 C33.24211745973486 125.21458231690588, 22.049854548105806 113.18132825394397, -11.513168924784766 79.48011026600722 M45.336815430226245 127.84339965669116 C32.80553371745561 114.1908008755804, 20.30114277073096 103.98020825630174, -3.520146511858664 78.8477887516317 M45.02383379619799 127.9069434787487 C30.303514735275172 112.0344981554421, 14.92057085042019 97.84468520482554, -2.791730794860385 79.00286397556188 M43.815783084931304 118.40577854980565 C31.271622969241267 104.90047680289523, 19.51853591680095 93.36018755910207, 5.136584130244131 79.67539782574744 M44.522684338504895 119.23618980088122 C35.98271317234253 109.61499753340419, 25.604228358955204 100.07193224373285, 5.403658484050806 80.02153042773129 M45.77810454517834 109.93970476042503 C36.64638136669594 102.19596462630798, 29.21043851390512 94.20322043055299, 13.283687620857668 80.29077736189933 M45.01321063917361 110.54596800625347 C36.49813335739311 102.75377200360853, 28.87110576064164 94.80050964895683, 13.450983531089438 79.83166015962483 M44.321912135186125 103.19060065183054 C36.48993044439925 95.35133013694717, 29.49989895338181 87.00801826854173, 22.636093159200705 78.84130284836861 M44.38433481734477 101.99589113197486 C40.064130930040044 97.0117212796133, 34.53758867582093 92.24373773978398, 21.78389302789614 79.48876464585187 M44.79026005417339 94.32771671230341 C40.8628846563131 89.77207573624581, 36.66691798822736 85.13618852353572, 29.64115181949198 79.81067789843651 M44.33064305465899 93.75553315265472 C42.360639074956495 90.4807678869589, 38.33168405842651 87.85450343601501, 31.097949718611535 79.70206629852179 M44.776263492929274 85.57442752265911 C43.41108084934601 83.2627577548703, 41.67265785475296 81.44233352240798, 39.58515581307037 79.73023605106744 M44.77626798048848 85.31104649277012 C43.62648709071106 83.78844672713936, 42.53938314177154 82.8539633464753, 39.381453356640776 79.6089617378113 M44.88120497338202 148.11879502661802 C44.88120497338202 148.11879502661802, 44.88120497338202 148.11879502661802, 44.88120497338202 148.11879502661802 M44.88120497338202 148.11879502661802 C44.88120497338202 148.11879502661802, 44.88120497338202 148.11879502661802, 44.88120497338202 148.11879502661802 M44.55904077231613 139.0053640004199 C42.92245107666751 142.8704058287859, 39.5699118067798 144.34705944040948, 36.71663599691255 147.78694773853098 M44.91803815621611 139.92808223668 C42.23484221331678 142.1307200085421, 39.68921096188771 144.9154455173259, 36.340439557236564 148.24860813897376 M45.40225336536494 130.6751616853351 C39.97910707444906 135.29666260115178, 35.05470327023029 142.88546555240424, 28.460000903886538 148.61158815041458 M44.86753115173158 131.09918738948798 C41.61590260626134 134.61805705025702, 38.37903892855423 137.63507314419337, 27.984191605244558 147.62093340341275 M44.53638154253093 121.69112029036367 C35.88189276036428 130.14417622161332, 28.61120299973695 137.78830443591497, 19.827794163723148 148.3772495926944 M44.34429459687052 123.06216631660098 C35.539894024232886 131.57206482517842, 26.23934389616736 140.68628482552788, 19.67135486663566 148.49593988243763 M45.2967346189889 113.0091926191471 C33.81699302257648 124.92700118732697, 26.141583404351707 134.80930262836668, 9.813206365820474 148.82687290326032 M45.23270450349626 114.61148767382869 C37.69042563250374 121.27628204588021, 31.193041843213823 128.31958363225874, 10.763237099279172 148.56040768806164 M45.590819918957635 106.71542603496665 C30.706326958054284 121.35070246968293, 14.718476185391284 135.5095624968015, 1.6405417093973056 147.94845857039365 M44.44199549074946 106.21145199828052 C31.665908673779402 118.18579431920107, 18.295036574376635 131.48043760924713, 2.363799484815766 147.52453579489415 M45.07106664165584 96.41969602610362 C24.90113253722934 117.8656019225898, 4.725171516695679 137.31360369171966, -5.233473731327621 148.56633520737563 M44.33706624027071 96.68632076456589 C26.101262007765346 115.57686533945491, 7.447605549185542 135.2246268509827, -6.111082732613949 147.9022341150445 M44.1223258613023 88.06820620583919 C30.545561241733758 101.7988898314995, 17.657499553646883 116.20318782482319, -14.932192007135555 149.15365955248748 M44.54472949620067 88.71406638479408 C25.096567511693262 108.18435582158364, 5.35181755541541 127.83290016186416, -14.927370246369346 147.90487349812213 M44.04937052711575 81.15598831245465 C26.265118119653945 98.15549831374713, 8.268173754769991 116.46228860300852, -24.171543293807762 147.84491646901046 M45.159962065179926 80.52012220857455 C31.569737561554074 93.60966022413044, 17.431536556463207 108.04757541302867, -22.626609687309816 148.13503573123637 M38.28622087026291 80.51757680228327 C13.446523473686508 103.99402987171985, -12.976012093863591 128.07568504528803, -31.672535892125453 147.6484189452258 M36.7739802232971 79.14930711606864 C11.600351588534611 105.64292942138705, -13.546956418091426 130.91897688037514, -31.2196836237947 148.08026353899663 M28.01106140182802 78.91209185174083 C8.414460808588418 100.87230902444793, -13.123685072791236 122.18076225598625, -39.173756227869916 148.45880809441482 M28.707906714058307 79.1321585200203 C13.031493777708343 95.26035714108308, -2.4695682233867338 110.7991643318449, -39.980560561683404 148.00681058351222 M19.120537477216374 79.84894279292202 C-3.2668189953424305 102.93836575892402, -26.651702232396875 126.57290815277776, -45.308334945889655 143.93401924892595 M19.605817312790702 79.59188580135232 C2.638135760796735 97.37562931503876, -15.065712714232099 114.85308418578903, -44.70451103840256 144.31785755845985 M11.274109545646713 80.34347386410808 C-5.160150605166168 95.15675919397952, -21.051360928499086 112.75139454325239, -45.07330115959281 135.96463620966742 M11.097845076134906 79.88126605967408 C-6.511212665536175 97.92293536848248, -23.270970088253396 115.26589086172582, -44.358711872438434 135.90411643857578 M2.388659931337796 79.02235742858026 C-7.953543529431807 90.4881197730533, -19.553451983403097 103.42588318460515, -45.88472313806646 127.3290319332262 M2.713537123231552 79.56928733209494 C-7.787543479015114 90.82311017737212, -18.449583615070317 101.89854552750812, -44.51863685045623 127.28022116677515 M-6.374007166491623 78.93609397461985 C-15.532904801272277 91.28668527860493, -27.45256957201465 101.36554900106849, -45.276499807091895 119.19216003288366 M-4.911895364278729 79.73489859322433 C-18.700511790952387 93.23510530285664, -31.654511482386585 106.10017782067634, -44.648098228315355 119.16476915516742 M-14.0196656736228 79.57151211550806 C-19.634201247999883 86.99843879279345, -26.078611939067383 91.21655649222276, -45.262608217450314 111.66780224692101 M-13.431327142255318 80.06075975517157 C-24.14820723480744 90.08745670444314, -33.854778171696026 99.81713354877192, -44.642744199375144 111.12381875336195 M-21.93416764083699 79.66426858952616 C-29.9639306945576 86.9665196005962, -36.693527360168126 94.08374539370915, -43.749603544923 103.03106843861949 M-22.3794689040576 80.12699166754608 C-28.953587821784904 86.72766451882048, -36.23153105387922 93.60197720815967, -44.623808894495 102.26463924846809 M-30.095943243915432 78.81134825995538 C-33.940879356585896 82.11497206152532, -38.47061350141951 87.45192151550201, -43.9491190902912 92.53089659626033 M-31.36661728054493 80.1049261174572 C-34.66508185645949 82.37526194061249, -37.01787823496416 86.10579679491673, -45.331862382034295 93.72946086509522 M-39.27410150614603 79.83108799694453 C-40.80002629255237 80.57690601987348, -41.42151709845361 82.33388304708822, -45.26896025412017 84.87279603385909 M-39.267663128720955 79.57800468271945 C-40.57878581052781 81.11718534565591, -41.814060819523455 82.35809553989326, -45.16103800952666 84.94746480675025" stroke="#ffffff" stroke-width="0.5" fill="none" stroke-linecap="round" stroke-linejoin="round"></path><path d="M-44.4856419313699 80.57833084352315 C-27.191447691433133 80.65412896648795, -9.335265002399684 78.9181272246018, 44.523843206092714 80.23540130145848 M44.22160132415593 80.31751833073795 C45.49008686158061 96.02836799174547, 45.066414602726695 110.39668950028718, 44.30355085618794 148.90337904803454 M45.92202254645527 146.95033994205295 C26.084135270677503 148.78742516683786, 6.9238492369651725 147.06479584621638, -44.16567134745419 147.47838703878224 M-44.642786748334764 147.04087113253772 C-44.76093561154604 128.71694760993122, -45.932697851479055 111.53095247782767, -44.511747784540056 80.42269246689975" stroke="#1d4ed8" stroke-width="1.25" fill="none" stroke-linecap="round" stroke-linejoin="round"></path></g><g><path d="M-44.4856419313699 108.57833084352315 C-27.191447691433133 108.65412896648795, -9.335265002399684 106.9181272246018, 44.523843206092714 108.23540130145848" stroke="#1d4ed8" stroke-width="1.25" fill="none" stroke-linecap="round" stroke-linejoin="round"></path></g><text x="0" y="94" text-anchor="middle" dominant-baseline="central" font-family="&quot;Courier New&quot;, ui-monospace, monospace" font-size="13" fill="#1d4ed8">User</text><text x="-35" y="118" text-anchor="start" dominant-baseline="central" font-family="&quot;Courier New&quot;, ui-monospace, monospace" font-size="13" fill="#1d4ed8">PK id: uuid</text><text x="-35" y="138" text-anchor="start" dominant-baseline="central" font-family="&quot;Courier New&quot;, ui-monospace, monospace" font-size="13" fill="#1d4ed8">email: text</text></g><g><g><path d="M249.39675298172568 157.8967529817257 C249.39675298172568 157.8967529817257, 249.39675298172568 157.8967529817257, 249.39675298172568 157.8967529817257 M249.39675298172568 157.8967529817257 C249.39675298172568 157.8967529817257, 249.39675298172568 157.8967529817257, 249.39675298172568 157.8967529817257 M258.08319938969214 158.41409606042836 C254.89033314004823 154.36387404257607, 251.9127218597917 150.98364619470786, 249.10284922215675 149.26309345568293 M257.67896333445213 158.25547356869612 C254.8995894075307 154.99968604930015, 252.48474287100635 152.04296321101037, 249.35408619176184 149.76285326289707 M267.3405523409432 157.0011900326941 C261.3586222280642 153.73686746069433, 258.8443061883132 149.14401495815954, 248.48169363203976 142.09632154481417 M266.43725999755026 157.37648211072718 C261.71525905439705 153.8304324757072, 257.70039176218506 149.8525815990912, 249.53765587534343 140.84976805562087 M273.98313959954305 157.11353403541779 C268.3910334215138 151.8237156322828, 260.2702145081915 143.45840414045404, 248.4367312974069 132.83418510713722 M274.71375174900516 157.6926007206324 C267.3079907430382 151.0832781227429, 260.3826709351567 143.66785757347498, 249.75456701244747 132.881985830228 M282.9132108364144 157.16499318096376 C275.73144109896276 149.51787146664952, 266.2746265924394 142.815598500272, 249.473759776983 123.55064135134498 M283.78996464608997 157.34814003061095 C275.652272436628 150.24700058485908, 268.7766982328435 144.28772899051827, 249.13273493971263 123.54072147287707 M292.4887494499947 157.7721934458945 C277.9263705294499 143.9072735874001, 266.3341208110024 131.3070272621258, 249.2593562192056 114.39122250400004 M291.7441335520859 158.0181854898814 C281.46496426875996 148.11300643310514, 271.8094540128947 138.23950389532618, 249.6023476454202 115.73035730778692 M299.8325825887215 158.12441705677247 C283.2117983418064 141.47330703154324, 266.1998022668907 123.15264143720313, 249.9999415225122 106.69911704166485 M299.7283214552742 158.1352444226626 C286.9142780817429 144.94446300083268, 275.27760521642193 132.66558597005297, 249.07992124285136 107.20019753417624 M308.40738115103227 156.8086024901602 C292.4119052610381 140.95770393896325, 274.61575970701546 124.58751868729347, 249.21678033534025 99.04016969090192 M308.78091946893613 157.87674602817333 C294.37588877106606 143.03835008682483, 279.3015519109996 127.7834614355673, 249.08079997028744 97.9319682262638 M316.39065978536456 157.43434447262024 C293.6579025193901 135.50544934689538, 273.145642640225 113.51251982623552, 249.7209810561273 90.42788142827375 M317.839146831353 158.15254138063227 C293.80623047286065 133.826269485414, 269.99389351838374 109.48167862182608, 249.13165619100963 90.32731733326837 M326.64977689015575 157.45889398071506 C299.999955614187 130.689844072232, 271.2126766561325 103.74744326321004, 250.38849583331083 81.14840948034286 M325.35155090580594 158.39240342925825 C306.03882204328767 138.57671082453373, 286.08045349737426 119.34681300940187, 249.5829903932992 80.99531467940866 M335.1169346138435 158.6121582410071 C305.21264260290104 128.16392290789187, 276.7272339191697 100.30455539809542, 248.93512056532836 73.58556732367175 M334.4905071805763 157.93352699826994 C313.6768611612488 137.24494810273663, 292.70909335177316 116.8295836717476, 249.62163119043743 72.93995196390348 M343.1641788548652 158.1217007300589 C316.65869067500756 132.18272466899967, 288.62054572068496 103.9808366478894, 254.44124236892316 68.39557215312871 M342.76471926894527 157.4080287868861 C321.445434021991 137.28464116602314, 300.8587857578895 116.71331818592583, 253.83298278901134 69.89739022927735 M350.77839926165836 156.73774117443298 C320.25333425938146 126.74536955972235, 289.81702048959045 97.30801871679593, 262.0131310801597 68.41833638290319 M350.8317189091941 157.7304473693255 C333.4025564516408 140.0950585029112, 314.55116419425246 120.7616839428572, 262.4998164899292 70.00975136237595 M359.33632923266066 157.1581555506919 C331.1228629866823 129.31923785849975, 305.5410072837057 103.52497881041513, 271.80057994154276 69.34510833362494 M359.3103659646041 157.88524319480697 C339.99432835343185 137.34585599485712, 320.6249298009756 117.96271931087776, 271.4574113755393 69.05525878148529 M367.1795459163093 157.65347608539798 C345.0996493330054 133.82793429580835, 322.32446626552337 111.47834684562059, 280.6287598515098 68.60032648185646 M367.99334842345644 157.51429858754912 C344.1663413453277 133.66241359788, 319.0068928878336 108.97380418781789, 279.3629085591232 69.89259168582414 M371.5326159615495 152.03503700562146 C341.62880484529217 124.94121830879023, 315.262017051721 95.06082782929069, 288.4376854584983 69.83108555416023 M370.60282814954 152.64756349727836 C345.2502709135841 127.40311052869282, 320.31614040714265 101.81651050645095, 288.1722772789619 69.51285114961122 M371.0202311415651 144.62211016267108 C350.53963390333064 124.30320531090538, 331.8111649659745 105.26817561877321, 296.2572151609458 69.33213652709874 M370.54507650588243 144.03269112295973 C352.5332007177677 126.15567727590894, 334.60867498388575 107.34826897080653, 296.35281489833665 70.02706012206528 M371.9569269795397 135.3816236578554 C348.05983852277063 110.16688145744584, 323.6958783607944 87.32308020622091, 304.1820511072898 68.87088662723455 M370.43769298051086 134.83725653855802 C356.33899157105253 120.70722082624754, 340.5467280415694 105.32033842793655, 305.2956469055289 69.25366342740509 M371.4936556239107 127.524734717737 C356.8867772415395 112.93200125837846, 342.6838517862803 98.31906961377297, 314.14673919596777 69.31239933113014 M370.8936780617067 126.80782956829208 C357.2005306700276 112.49861098850249, 342.630677167601 98.6918603274531, 313.72822691381975 69.3060277648494 M370.4212129731157 119.16025681887837 C354.36477874750875 101.92103275576906, 336.7943232052413 84.42695865843267, 323.1006690754172 69.04439436534797 M371.36236036275113 118.48590191138061 C353.1404525016165 100.28207701665494, 333.92484890529664 81.73253722972997, 321.7268366614905 69.57994170861696 M371.1452386755922 108.919659687842 C363.0761748703691 101.7305300918747, 354.1481195622016 91.30523409729058, 330.5830741440757 69.60224770645057 M370.5418966219255 110.19538714204239 C355.4051755096789 93.57810989446708, 339.576905521952 78.86488519196512, 331.1290860118224 69.34111570792649 M370.8612161297777 101.58206930119039 C363.4531943214871 92.9843751390122, 357.0206250143873 87.89437074852312, 339.09803155038054 69.2939915810004 M371.591771702511 101.83012070949616 C364.2032601170492 94.36661792066273, 358.1120239691304 88.31121029161139, 338.7464129530966 69.11268208699676 M371.52947248410965 92.09926788548611 C364.89987140710076 87.14763825711262, 358.6510680723354 80.5180706763603, 347.28946219276946 68.82531446556007 M370.54529859278887 93.04135993796072 C363.8390604854443 85.88523889261842, 356.0780341366635 78.80340730416016, 347.5765835985945 69.66269504504655 M370.65017863702565 83.22069391729153 C364.1860366689214 78.92803059230471, 360.60140701141313 73.04961026058677, 355.11613071967986 69.72456108669196 M371.12211840604033 84.62528402665473 C367.85504936890123 81.15136278290834, 364.3533805658587 78.47061923945594, 356.41619218659724 69.79163065629457 M371.1177727968299 76.25310045567356 C369.21069890430533 74.2328270306888, 367.2921923913232 71.83143592708097, 364.46232756162027 69.89510252280537 M370.89383081144257 76.06952382265604 C369.6660918948657 74.26065664317305, 368.0032758445089 73.12065116281785, 364.84325955949686 69.24357202485581 M370.31601717798213 158.18398282201792 C370.31601717798213 158.18398282201792, 370.31601717798213 158.18398282201792, 370.31601717798213 158.18398282201792 M370.31601717798213 158.18398282201792 C370.31601717798213 158.18398282201792, 370.31601717798213 158.18398282201792, 370.31601717798213 158.18398282201792 M370.12536224348645 149.63435840644883 C368.24386520043316 151.98596989698402, 365.60013840167926 153.56918026202217, 362.0510229707264 158.70582025306135 M370.2722466053645 150.0493906211947 C368.31361888447583 151.53178395066988, 365.8694540669462 153.86050202900276, 361.6968090836459 158.28727698782293 M369.8523482854495 141.85230863303127 C364.5035983225715 147.6713402295653, 358.9531677743644 151.4414626265273, 352.2044598829426 158.83622570680288 M370.2735313615779 141.18057642527106 C366.7168574485249 144.58715010093636, 363.46836207048585 148.43507384659011, 353.4943270959385 157.61646423125475 M371.4823981578479 133.504417800823 C362.78994722175065 141.79168821269002, 353.5122111465512 148.78766349992566, 345.68775606054567 158.44323065923362 M370.2579168639163 132.56787842839375 C362.02974913713433 141.7360223410381, 352.896330871138 149.92691951175854, 344.7934605972072 158.7069198467752 M370.3026419694553 124.20816652549955 C363.70861299352424 130.62690061913258, 355.5354632456694 138.34066506730477, 336.7705967632954 157.66400895761157 M369.8963325939159 124.04829986205849 C361.15719552086017 133.33170898558643, 352.94382499439246 141.62056989138762, 336.9569880956684 158.5600139358064 M369.4921568687091 115.19658703362333 C355.98202170364044 130.10906587666307, 342.7683136947191 143.8220921991831, 328.315652889629 158.08549907849934 M369.8627165398578 115.28247305048393 C355.3183110420728 129.96171432970863, 341.8358508955311 144.1913872676932, 327.7233007046032 158.25317569756712 M370.76986375404704 107.7003678017569 C351.15522564218645 126.4557548446264, 332.76945739499206 145.8483731437007, 320.3004390879841 159.11729574845936 M369.8173348150234 107.37595219288889 C358.37906601587 119.39626625603375, 347.58251613345516 130.15921227950085, 319.92961766229286 158.39625620627606 M369.9695272739063 98.97285355646271 C353.5116245799246 115.50467504663496, 336.81995904151785 132.4720505002029, 310.1923137567983 158.81664994405415 M370.0192816576938 98.26671336349207 C354.39975569394437 114.18090441194425, 339.7935218907301 129.61392864332012, 311.1244863320187 158.11902841115202 M369.41475582672456 90.31504527430332 C347.38460112391454 113.95878170824388, 324.50450336970323 135.5572773658975, 302.9234790445088 157.1134688918462 M370.5389794311504 90.11265451151228 C352.2923573291465 108.75929466893012, 333.429042277215 126.24475537363263, 302.38028220206184 157.6586871364137 M371.0940015609394 80.70060018184117 C354.2415653298589 98.615833569919, 338.13240845996967 112.67240445653178, 294.4659808495534 159.035316068398 M370.4706786236743 82.2790954611682 C350.90429150153267 101.75931412931118, 331.01848526935896 121.69133217636532, 293.90570888570375 158.5473490812799 M369.8355603749881 72.4008317556388 C350.0965113545669 93.08644028920106, 328.2224705278173 113.33573937095558, 286.6067088203694 158.7324112002721 M370.7449578485469 73.92627791167864 C336.12217510510766 107.35154343240157, 302.4729303506962 141.39352710130282, 285.4582981212254 157.7995528199693 M365.53282444900253 69.5594571905645 C338.68504843890463 95.39741765637154, 312.8354131385768 122.86148357498546, 277.7223963553945 157.10263026403095 M364.79147637574357 70.34661290556811 C340.9165427594655 93.04928141347102, 317.8506052075142 117.67069591702143, 276.7569097719083 157.69975880170074 M358.0329907437932 70.10388890080772 C335.7784338567205 91.0735163163754, 315.49915345235723 112.230227827306, 267.95462060306596 157.81650548623708 M357.4651826309186 69.43847232968233 C331.0395490864463 95.8971303719194, 306.02702349277666 120.93783189179759, 267.8942318260335 157.58984935069287 M348.06942031373035 70.81287520699821 C312.4534347865074 104.68017196248809, 278.64155893452624 141.06880753431784, 259.5848024618215 158.54222534345294 M348.016173508286 69.73632960230731 C316.95092027868424 101.08225765969476, 284.75748301651043 133.38028076018642, 259.74928039688234 157.65662866616452 M339.17978405725154 68.9983545856985 C318.92871269487944 91.36236732260335, 297.26561671023353 112.95037976537914, 252.6092065800985 158.9706345622411 M340.44534012112706 70.25511392266179 C315.8998215973795 93.69817619463308, 292.1797399462383 118.09671453370149, 251.9998997227361 157.91932282233444 M332.0165966227941 69.39492176347102 C310.9121178709526 91.00811757775004, 288.1590302464746 113.09560652363923, 249.0779023870134 152.87627308848508 M331.852401707723 69.54217636496449 C302.49953071170245 99.52226998107042, 272.8671709093196 127.99816825848981, 249.89922319755493 152.05311873774238 M322.3222164087957 70.5848277168783 C307.7328985958664 85.26292096989943, 293.2045881444157 98.60894573104248, 248.49920134388444 143.5129388358667 M322.44840563135506 69.46478987843417 C300.0587421623435 93.1524189315386, 276.5668864147189 116.13785587880915, 248.91761062250075 143.34722692372642 M313.3038455636938 70.62297967248283 C292.1555702371378 93.64628424205392, 267.56928644874006 115.81992345342526, 248.94257900558947 134.11076562450805 M314.7682273803045 69.3976492872896 C298.31846316034046 85.56974100853914, 282.51210281508537 101.0984362155496, 249.08307026729523 134.56445942306496 M306.40852998592584 70.26194110684715 C292.38566840577715 83.48163975546602, 280.0947031106596 96.62842971183838, 249.81367502056597 126.3012231809717 M305.68307056785255 70.01037129074953 C291.10892152321674 84.37898679546153, 276.2492879826873 98.8621697973557, 249.39375887021956 126.92872980997677 M296.8981593239294 68.97693174653372 C288.23497431868395 80.398185249391, 276.4782737355729 90.39050785703814, 250.10797278725144 118.26343748182009 M297.61296693228053 69.8549944630327 C280.32818475199696 86.214940642875, 263.5549801892299 102.87912020411615, 249.70916129455503 117.63387353368054 M288.624466976142 70.5908275681051 C278.2654170104821 80.66367108058738, 270.111988980004 88.55634662388289, 248.78579945408342 110.34919075361577 M289.33927633686966 70.35347925335789 C273.5426246133822 85.13401659424099, 258.44088876228454 99.65411391842218, 249.9625905285829 109.63114791839509 M280.004030091001 69.69916079812371 C270.534994059104 79.09205829558378, 263.14406841558514 88.66218506520126, 249.94732591949938 101.10792147292122 M280.0171867699011 69.98520798594379 C268.94173139399885 81.1054149464163, 258.6817949970194 92.66481022858862, 249.3736876855844 101.0167321633391 M271.593269566944 69.29511991315208 C263.70015171936194 79.61092993641034, 255.61291446526093 86.46615005489124, 248.8075668319368 92.91172436629891 M271.9882143446562 69.27448486000918 C267.2994751964536 74.95974769249518, 261.97429481568116 79.91294530806985, 249.2609220038408 92.41922734273135 M264.0634500524085 69.59454963975273 C257.90023904298664 74.24419216861011, 255.12017314232466 80.14235079693316, 248.87138058983322 83.18035041031138 M263.99270329941623 69.77803594977281 C259.1782854431805 74.01481719126201, 254.66153086921258 78.42935828714164, 249.85409084663328 83.58715640579061 M255.50483908507775 69.42176148601493 C252.8718300800558 71.66508131755927, 251.02421226255913 74.00951142143288, 249.76384229369998 75.19397638652354 M255.1074975057299 69.66638478600106 C252.93916292304496 72.12402399947574, 250.78840798262263 74.19578563850644, 249.4431824379468 75.66207932460934" stroke="#ffffff" stroke-width="0.5" fill="none" stroke-linecap="round" stroke-linejoin="round"></path><path d="M249.3287161372602 69.95666168704629 C274.51738334354013 70.3685026558861, 298.43002744801345 69.29649917211383, 370.74768641218543 69.27080260291696 M370.14320264831184 69.43503666147589 C370.46945831732154 92.11081165745854, 369.6221137996137 112.10153034850954, 370.30710171237587 158.6067580960691 M371.1440450929105 157.10067988410592 C342.18312755022197 158.11839208609015, 314.5774124916643 157.07313344484717, 249.96865730509163 158.15677407756448 M249.01442650333047 157.28174226507545 C248.95910857693553 127.49806502833962, 249.0155840970695 97.59024457260966, 249.27650443091989 69.6453849337995" stroke="#1d4ed8" stroke-width="1.25" fill="none" stroke-linecap="round" stroke-linejoin="round"></path></g><g><path d="M249.3287161372602 97.95666168704629 C274.51738334354013 98.3685026558861, 298.43002744801345 97.29649917211383, 370.74768641218543 97.27080260291696" stroke="#1d4ed8" stroke-width="1.25" fill="none" stroke-linecap="round" stroke-linejoin="round"></path></g><text x="310" y="84" text-anchor="middle" dominant-baseline="central" font-family="&quot;Courier New&quot;, ui-monospace, monospace" font-size="13" fill="#1d4ed8">Order</text><text x="259.5" y="108" text-anchor="start" dominant-baseline="central" font-family="&quot;Courier New&quot;, ui-monospace, monospace" font-size="13" fill="#1d4ed8">PK id: uuid</text><text x="259.5" y="128" text-anchor="start" dominant-baseline="central" font-family="&quot;Courier New&quot;, ui-monospace, monospace" font-size="13" fill="#1d4ed8">FK user_id: uuid</text><text x="259.5" y="148" text-anchor="start" dominant-baseline="central" font-family="&quot;Courier New&quot;, ui-monospace, monospace" font-size="13" fill="#1d4ed8">total: numeric</text></g><g><g><path d="M557.3462838120872 148.3462838120872 C557.3462838120872 148.3462838120872, 557.3462838120872 148.3462838120872, 557.3462838120872 148.3462838120872 M557.3462838120872 148.3462838120872 C557.3462838120872 148.3462838120872, 557.3462838120872 148.3462838120872, 557.3462838120872 148.3462838120872 M566.4933127369177 148.04229843014124 C563.5397801123725 145.9220028026871, 560.8989476042593 144.11724544315635, 557.9854281727338 139.99843521014233 M566.0669586540577 148.7043646925429 C563.2451363761724 145.88792202594573, 560.5999228462334 143.14989404335876, 557.1022836271414 140.20807492096353 M575.176701476675 148.80293938853984 C569.1619566080988 143.18314713008976, 565.88753882332 139.19092465113525, 557.7736947875584 132.5309180309585 M574.7217629615856 148.46587750558948 C567.6183968715577 141.96716772835768, 561.5960959332396 136.00039141343365, 557.2576381525139 131.56108779716854 M583.2979416774555 148.97145539262542 C577.631498247902 142.55844362541333, 571.7414387024617 137.50164521221328, 557.706251285609 122.88035406156234 M582.8938599016486 148.34005542044736 C574.9002557920224 140.40220294883184, 565.8578604924718 131.22465653720153, 556.9830048581699 122.65205514619849 M591.2504078456432 147.84864411094432 C582.6311364385648 138.61280343976475, 574.2400272284751 131.95350653989382, 556.8617940049733 115.59767911499331 M591.6655385601566 147.82336438541506 C580.7811882977526 137.04946716499825, 570.467826992076 126.91055977348707, 557.8502567490676 114.08279929729143 M600.1710750788943 147.55944450834036 C589.365523137052 136.2946110301011, 578.0624299336192 124.67952291642823, 557.7401886683072 104.90119153109512 M599.9541512320311 148.82843257432074 C584.6881323717785 132.92339905389264, 569.6048669879807 118.11314524722418, 557.354675807629 105.40989373677543 M609.3441840998653 148.08777992465738 C597.4697962808057 137.2457153863375, 587.2253086420616 128.63822346845674, 557.651066623267 97.60567402471165 M607.6877923996943 148.4040209734926 C593.496802138046 134.37011169118534, 580.5329616646076 120.44296496955896, 557.1710362037758 96.85729476347873 M616.7637412562121 148.514058074739 C604.7211977086986 135.63093326250836, 589.9063733015985 122.95504930893766, 557.6763248425091 89.15989368568653 M617.024048733068 148.61627338175867 C594.002673595632 126.28740310619233, 571.9911683055323 104.00507012930599, 557.7723542949299 88.99759148872936 M625.6960185205912 149.4526710484291 C604.0547915216041 129.18015466220155, 584.462851901638 107.3672105799935, 558.4326259236897 79.28410197886359 M625.7687490895738 147.82996641044713 C602.6143660494242 125.27263266282334, 581.0723108164907 102.93219656622317, 557.2486386260132 80.6332558363555 M633.2420534906588 149.48949531057124 C611.9479715013686 125.6211090188587, 587.5555215624714 102.79597630351054, 564.1049659013305 79.07860255595203 M633.3947145141341 148.189759483386 C613.7364316358268 128.62695093154292, 594.0383242568341 108.8215496487227, 564.996707741313 79.14896035455074 M641.7001493890712 147.61939170100928 C621.0963136370989 126.3813759286294, 598.9093188465896 106.33344289902251, 572.8101843735952 78.06226138230318 M641.6605082391702 148.10144483690354 C616.8682909641334 123.445513148476, 591.112710800694 97.91853805276648, 572.3399503112589 78.59383834265077 M649.5283750634844 149.28370543458706 C633.4712491254701 131.4948283710628, 614.008946511136 111.78691115654712, 580.9300272507675 77.98056948538773 M651.0291856846045 148.51319751982786 C626.3334548683414 124.1709144170797, 601.6061735921154 98.86662106686, 580.9176378808996 78.73329659961068 M660.3070649865549 147.20776610114817 C643.8082814831049 133.86800589332503, 627.7178225992878 116.87599139980499, 590.445219630503 79.21471583004947 M658.8870444578585 147.79682539348696 C644.0811915748479 134.47441507695316, 630.4562670841972 119.52651713230378, 590.275247745157 78.90183829925861 M666.5013192559388 149.03838766553645 C642.7499228487621 122.09217778459467, 616.6521174054238 98.07576732359422, 597.2837522354581 79.40487375613203 M667.9623743538541 148.02901913170908 C644.0951414163281 124.54400643899923, 620.8619386202109 101.29019644559726, 598.268999386453 78.67009942792257 M675.2235035942927 148.5813684675956 C649.4958245635215 120.40941728709068, 621.5922113373389 93.14419748684955, 606.2833814132895 79.48770097847935 M676.1442073550135 148.6726022208223 C654.7766247738526 126.27648963436133, 632.5039685228102 104.11009195446671, 607.0846044747095 79.32609878443088 M684.0886425680858 147.93188444098288 C669.7668880474956 132.68190620863805, 655.6746541399815 116.91926827223149, 616.154129136653 78.93383958693501 M684.1939608500716 147.35067417846824 C658.6783498348061 122.75703292923947, 634.6714110803439 97.77138990107662, 615.4560168673482 78.7564879801115 M684.5200653381091 139.85513486367654 C671.6134410731484 126.83010987142276, 658.8125280518782 114.7693557179886, 624.8407830032049 79.38541604634275 M683.5073333845851 138.67100630410948 C668.5119098034202 122.78176370791152, 652.2123471817393 107.55787722940013, 623.4841826092912 78.92780143879256 M683.5251090950709 130.23704579357238 C670.8443327722123 118.25267794285163, 657.5102449895145 105.99882852628086, 631.2853962356015 79.89354119654652 M683.3462580965277 130.9204951146263 C671.5282166772589 117.68623589268353, 658.4357203190533 105.20181123123614, 632.0557899329602 79.56770639680232 M682.8302020616275 122.69435307051405 C667.409731973075 104.92137223006723, 651.5976379205729 88.49426889354571, 640.7897876814992 78.15581025238987 M684.0302357183215 121.91899534634665 C671.8334478823011 110.71138791166611, 660.1851800836411 99.0077743750719, 640.4620192582772 79.64625290296878 M684.821538085435 113.19027690934539 C673.6112181593593 103.884133733767, 661.3707584933492 91.75824623515334, 649.9780418135541 80.15380280371662 M683.5332591698882 114.27874454809874 C671.0741141911053 100.53846902974797, 658.3822598618157 88.84571041455054, 649.417293192664 79.4571238186201 M684.7075766391497 104.47202189991012 C676.1564880579293 97.07158475356127, 666.2750364400301 87.34427210603712, 656.9590087294224 79.79058281537053 M684.1025635586496 105.4856130812107 C676.9309485341547 97.8850813911903, 669.2843960732293 90.71109685810222, 657.4780265310425 78.49888481758441 M683.081542820428 97.708277007052 C676.6957067458608 89.66980875217322, 671.8639767824297 85.65192616365836, 665.4888041517605 78.12819862719532 M683.8773761795279 96.58035411951064 C680.7754946341047 93.19264552157861, 676.5087235683358 89.57961723411087, 666.4613762558346 78.75623438618985 M683.2459919543196 87.9071377148304 C680.5446287564004 85.24181389466585, 677.387803325532 80.93374332396009, 673.950754449515 79.55380565965454 M683.6514224102817 88.24067746599314 C681.7189664374196 85.46060781279101, 678.7693790696084 83.17323533629444, 674.4256978201944 79.00525172465387 M682.786363288515 148.2136367114851 C682.786363288515 148.2136367114851, 682.786363288515 148.2136367114851, 682.786363288515 148.2136367114851 M682.786363288515 148.2136367114851 C682.786363288515 148.2136367114851, 682.786363288515 148.2136367114851, 682.786363288515 148.2136367114851 M682.623670190551 140.1298235204213 C680.4641709475458 141.8896499491548, 679.0442141964293 144.33742335829123, 674.2754204072511 147.90703109028138 M682.7157862197763 139.9426702543863 C680.3045351499621 142.1839141129495, 676.9789030492486 145.37233435682106, 674.1372844030043 147.86397009438224 M683.3559482933364 131.2808416977591 C675.8550825327395 138.02781173395692, 670.5502051233487 143.54881138913626, 665.8068291622031 147.156257253758 M682.353947089181 130.8807159131459 C677.4592539264862 136.53971572529218, 672.5123507038547 142.06893410676767, 665.5740021583441 148.7639539767647 M682.9097259522757 123.19693498544297 C676.2837069512263 130.9878664012998, 666.5610300712443 138.05925219699228, 658.4812370832565 148.9182302890936 M682.9769368569708 122.73451552230766 C672.5119381204796 132.6411789353202, 663.2301120633537 142.8343881444543, 657.2957023655551 148.7718721259976 M682.6908599497161 114.63084405376654 C669.6180071766735 127.14485995071774, 656.2529699126687 141.43943498785484, 647.733745971717 147.39200103866256 M682.4226345639087 113.92324574212623 C675.3358857445271 121.31483173247209, 669.3315270104833 128.2183330179378, 648.7685467912108 148.26235882534033 M683.9359347583137 106.3516484925734 C671.237048574515 117.08555824062236, 658.9018355048879 129.59813012830372, 639.801330925241 149.2025084673086 M682.9992128174163 105.84683943392953 C669.1285998953815 119.32638277573322, 655.7052888388249 133.13591218937592, 639.9598877302333 148.09804224862103 M683.3663004757248 97.84991226670753 C666.6561111156426 114.12810992393572, 648.9101342372239 131.1850088528306, 631.8682326664849 149.2336759148756 M683.0568364124157 97.31011227154593 C668.3215619011078 112.76169934674839, 653.2283535248202 126.76814329203609, 631.8478196650444 147.87768338216785 M682.1505728246054 89.77518371601249 C663.9281509733204 107.70313405678388, 647.5106378516595 124.86962464884277, 622.2284575431046 148.6659110962072 M682.4064123313284 89.0040127413034 C670.5193618003192 101.81902818235433, 657.6359814330137 114.02322773682408, 622.8399292655658 148.61742602480888 M681.6671331526122 80.37349555533211 C665.5866707143439 98.5171030073297, 648.9994460895349 115.4146027099585, 614.4482775277565 147.81360610114726 M682.3383397440767 80.18687214203011 C659.302603997222 103.98517828087037, 636.6778133308746 127.15956315879632, 615.3920453892197 147.63204678787235 M675.0884538393491 80.50303946756222 C654.7579563956068 99.90415624052463, 632.790908448961 123.48476905991228, 605.9287302180969 147.3626373945395 M674.8630854150304 79.74382917810627 C655.5825892751737 99.1823657169322, 635.799254833662 119.00588580068629, 606.4269890809276 148.41620509518629 M665.771015294338 80.2442491056809 C640.1880351846197 107.91950518450153, 611.1758106747368 133.80932654954808, 596.8681188367822 148.40786581622754 M666.5573507009767 79.04066296149435 C651.9374738988158 93.49471143032663, 638.8755788421511 107.48982496614792, 597.5533235731117 148.3256931830788 M657.4046025214217 79.7505035283456 C642.7217144838626 95.19857798911985, 627.851406209292 108.1900072887759, 588.4245122314683 148.89063658105525 M657.9696181155241 80.01824644733615 C630.9549191227027 105.95017846313166, 604.7471905739751 133.42722473417976, 589.0841042856938 148.45868610037806 M650.6316593682561 80.02877295039983 C623.4585231260139 105.22832276315731, 600.1539458991589 129.6957873725196, 582.0782448748116 148.43627927886635 M649.2957555785944 80.21694218445958 C629.5647247382362 99.97154452708956, 608.7977790107234 120.72759862633701, 580.6556288260956 148.5369917084122 M640.716895307498 79.87001196168752 C618.402815754133 102.84847720839434, 594.0947362353137 127.178202654643, 572.9944168644685 147.19160787450465 M640.5048731976095 80.15074553419294 C619.8273264241715 100.26298816179398, 599.4828646416294 121.14066537173483, 572.4461869892392 148.38730068100932 M632.5097854368033 79.48665952705235 C615.134884677827 98.31046278215562, 597.4150012486331 114.94649287120075, 563.7853939230952 148.26242070781382 M632.5580732674914 79.98853467036427 C609.9445923945747 103.07699689481886, 586.7505708509548 126.31328232775155, 563.3948107575463 147.62243650449753 M623.0070704788283 80.5501389863381 C596.6683010870979 105.46700409827375, 570.5444989568746 134.25594580827, 556.1804141795342 148.6438937124511 M624.4272002706617 79.23532057930173 C607.5785858293358 95.5115528106147, 591.9385785359693 112.50843886145788, 556.7271310821254 147.61549869651847 M616.3152567812293 80.22835805438848 C593.0177945257623 101.83042914208146, 572.5046294680291 124.6309688870095, 556.0449424183075 138.40122616639476 M615.5135908770427 79.41349705983342 C603.4668038646032 91.7875028452447, 590.4023573610657 104.66963438067313, 556.630982132264 139.52425855653476 M606.2131163166625 80.82320882104726 C591.9193702233338 94.69312292753722, 576.5038602141302 109.11023491885742, 555.1299666440193 130.32034412754052 M607.4668239440559 80.14409072328748 C589.6951418103861 97.25101355722886, 572.7767673768686 114.23469570330123, 556.6619478598316 130.58561260142648 M598.3141866827842 79.0080677511582 C586.0766433606437 91.72824364232142, 572.5945504964548 104.63690797104907, 555.4619150793259 122.91798343573224 M598.2034705166232 79.42801099349202 C586.8355492696825 91.16454908829219, 574.923307377909 103.51716277953457, 555.7895289972504 122.36941556752187 M590.2292711022507 80.26529568456499 C578.1054015935058 91.35211937226858, 567.0296369038398 101.20891719639505, 557.3269815718834 114.25736430581358 M589.7258438271667 79.32730010677516 C577.4346626762444 91.71664401977378, 565.7201582195917 104.81465076905967, 556.6377184644421 114.03790500364896 M581.728938422718 78.52373783611151 C575.1654812424844 86.38839257549618, 570.0345771990333 91.6030336108296, 556.2336255943482 104.38569132762834 M582.1407492956081 79.04638311196507 C573.8553320229867 86.97713390110553, 567.4606892641677 94.00710085197176, 556.5037513688286 105.62695127113595 M574.1060231168426 80.1962237956414 C570.5382278949361 83.20391313437548, 565.8839776430823 87.61159642303362, 555.4750722443764 96.57165346602025 M573.0782345293693 79.41331787038986 C569.2947049664036 83.89619307758215, 566.1122371744237 87.51512336727316, 555.7768550053318 97.12730754381093 M564.002687501513 79.25995209135505 C562.66572151361 82.49965450986237, 560.4878540437197 84.44284474128824, 556.0207871292238 87.88957856075122 M564.8260159261679 79.58633860808254 C562.6284474166373 81.89760907193985, 560.006754584794 83.9958272295585, 556.1798990962733 88.1433400090526" stroke="#ffffff" stroke-width="0.5" fill="none" stroke-linecap="round" stroke-linejoin="round"></path><path d="M556.1430742058903 79.33499253056944 C581.6261424491182 79.50985835227519, 606.3951760396361 79.10185312661677, 683.9715296182782 80.70620390437543 M683.0648039724678 80.95255499221385 C682.0702605847418 98.48510397523643, 683.1992438081801 116.79006850086154, 683.3106525685638 148.31013714410363 M683.3660676393658 147.25101982615888 C650.7621567307041 148.02139984342904, 620.1910495482385 147.65351188156455, 557.1029859576374 148.8351611163467 M558.0716397549957 147.52261339761316 C557.7171931653619 133.3508428297937, 556.6019064455628 120.192857433483, 556.0647566463798 78.86807740069926" stroke="#1d4ed8" stroke-width="1.25" fill="none" stroke-linecap="round" stroke-linejoin="round"></path></g><g><path d="M556.1430742058903 107.33499253056944 C581.6261424491182 107.50985835227519, 606.3951760396361 107.10185312661677, 683.9715296182782 108.70620390437543" stroke="#1d4ed8" stroke-width="1.25" fill="none" stroke-linecap="round" stroke-linejoin="round"></path></g><text x="620" y="94" text-anchor="middle" dominant-baseline="central" font-family="&quot;Courier New&quot;, ui-monospace, monospace" font-size="13" fill="#1d4ed8">LineItem</text><text x="567" y="118" text-anchor="start" dominant-baseline="central" font-family="&quot;Courier New&quot;, ui-monospace, monospace" font-size="13" fill="#1d4ed8">PK id: uuid</text><text x="567" y="138" text-anchor="start" dominant-baseline="central" font-family="&quot;Courier New&quot;, ui-monospace, monospace" font-size="13" fill="#1d4ed8">FK order_id: uuid</text></g></g></svg>