<svg xmlns="http://www.w3.org/2000/svg" viewBox="-61 32 896 120" width="820" height="240" role="img"><g><g><g><path d="M45.40075231636984 92.45059548844503 C99.35174697761643 92.44049374783795, 153.74060426119618 91.08792097468046, 317.1290114810062 92.18340845140665" stroke="#1d4ed8" stroke-width="1.25" fill="none" stroke-linecap="round" stroke-linejoin="round"></path></g><text x="121.30000000000001" y="86" text-anchor="middle" dominant-baseline="central" font-family="&quot;Courier New&quot;, ui-monospace, monospace" font-size="13" fill="#1d4ed8">1</text><text x="241.2" y="86" text-anchor="middle" dominant-baseline="central" font-family="&quot;Courier New&quot;, ui-monospace, monospace" font-size="13" fill="#1d4ed8">N</text></g><g><g><path d="M438.36140850577624 91.9649335234895 C490.0627801355458 92.45233827109953, 540.731678854472 91.58494444746303, 693.2004113488254 91.40998203082705" stroke="#1d4ed8" stroke-width="1.25" fill="none" stroke-linecap="round" stroke-linejoin="round"></path></g><text x="509.76" y="86" text-anchor="middle" dominant-baseline="central" font-family="&quot;Courier New&quot;, ui-monospace, monospace" font-size="13" fill="#1d4ed8">1</text><text x="621.74" y="86" text-anchor="middle" dominant-baseline="central" font-family="&quot;Courier New&quot;, ui-monospace, monospace" font-size="13" fill="#1d4ed8">N</text></g><g><g><path d="M-45.19491347236679 125.8050865276332 C-45.19491347236679 125.8050865276332, -45.19491347236679 125.8050865276332, -45.19491347236679 125.8050865276332 M-45.19491347236679 125.8050865276332 C-45.19491347236679 125.8050865276332, -45.19491347236679 125.8050865276332, -45.19491347236679 125.8050865276332 M-36.96904958126429 125.70375806698455 C-38.70419318115919 122.81993658298545, -41.761526958711315 121.00129452162749, -44.98186535215127 116.88561607749253 M-36.631167608884304 126.16444682111843 C-40.088093184841824 122.46931444892365, -42.99257272795172 119.29389675493104, -45.03624686734872 117.6754959810996 M-27.137732418519445 125.9573050531174 C-33.00538907450849 122.64845216756798, -34.759603369231705 117.45496964145286, -45.05244314720974 110.01958943493888 M-28.489378590215928 125.84495109213394 C-34.22412693618978 120.65744904963036, -39.62567313199122 115.27441106162692, -44.82446202555792 108.49631269034222 M-19.573798102100238 126.01347705447925 C-27.491567028605278 117.04685201542138, -37.84314530980958 107.77302744496384, -45.074924314526186 101.14588052898111 M-20.108492027369184 125.40301039708658 C-25.726409929676997 120.12221767292297, -31.734654245889335 113.26892298601743, -45.3160064570059 100.2697808905265 M-12.0661217965453 124.83920662725222 C-17.810389864370194 118.78080386980334, -25.932909667327337 112.03555483691913, -44.55641007473813 92.26146796396571 M-10.727744891707513 125.2307800520758 C-21.54408674523303 114.85125587921266, -31.77009894651611 105.08339498265143, -45.02692249337333 91.35650802473175 M-1.8357118026358576 126.34280675971759 C-17.551270948901394 109.6741537679864, -31.832677182363717 96.08874923111068, -45.86361185362683 82.23911785317394 M-3.1080197515902612 125.56580278171104 C-16.681974079246377 112.17884356732978, -29.39501058141755 98.75681092420172, -44.79211614051954 83.20868525506737 M6.07884545384682 126.5189185651566 C-7.261621468259351 111.84110070210434, -20.858788330260335 98.78959908039113, -44.29331920197354 74.15042443488707 M5.126714887123176 126.22433224810167 C-6.310381598291093 113.87667868674903, -16.61988685549474 103.24607134681605, -45.65332934180395 74.70096468114276 M13.408885422121497 125.8610112818505 C-6.53952281035318 104.92744444586161, -27.316989511298534 84.86295789609268, -45.884899795559505 67.27831007238632 M13.895654581073435 125.49508305085703 C-5.257531055339223 106.2677675197924, -24.07409340930645 87.36092927022962, -45.052889978085915 66.42420934006725 M22.8431654264069 126.17388227308048 C-3.381122106554697 100.51444321262902, -27.213702244918945 75.94152825351739, -45.632799435165985 57.52952525395296 M23.267408949401123 125.6329807270865 C-2.844040727434078 100.41193587950296, -27.726659403454235 74.06319024892728, -45.62746186772482 58.37924320645026 M31.015364665921823 126.18615702712788 C6.613211051569 99.32605326684596, -21.33093560060353 73.50434568918973, -37.520867453522186 56.42532318592024 M30.6662516737469 125.75291175139948 C15.834880813036106 110.66365810845492, -0.609646276538664 94.58336638427093, -37.623620173527996 57.24877578545315 M39.49158421488496 125.5627891572739 C13.49582810236012 99.46505068023315, -10.518051090765143 74.56419207407536, -29.762273713274862 56.88654279470396 M39.478370498251344 126.1234735359053 C17.873447612105085 103.36320167712759, -4.343313216321421 82.02264253794439, -29.119018400720325 57.46373511481983 M44.92941989776892 122.48913327705363 C23.25030419819847 100.92943938800401, -0.469844520284569 77.12741913612712, -19.798805171391795 56.059312162398825 M45.029690104808935 123.03229730546722 C24.569901504738052 101.78336226337524, 3.19212106777358 81.01324446841286, -21.00293496134771 57.11022120047314 M45.693889414046225 113.31187212500211 C28.83964199432921 99.1022338858363, 14.512478030900967 82.87455138584036, -11.770220128654234 57.27069427728607 M44.82054923781407 114.70822522244836 C33.491639108272004 103.46464240894055, 22.15554801926746 91.28756016860315, -11.826877423769526 57.16640176702244 M45.730213712428046 106.23679793889295 C33.018086031975436 92.40153668678226, 20.33254821385437 82.00979719610719, -3.833855010843427 56.53408025264694 M45.41723207839979 106.30034176095049 C30.47745155682523 90.20739026590432, 14.873816006688891 75.79688565000642, -3.105439293845148 56.68915547657711 M44.209181367133084 96.79917683200745 C31.432160502335112 83.05921994459375, 19.445563681619948 71.28542093252574, 4.822875631259368 57.361689326762686 M44.916082620706675 97.62958808308302 C36.20627908998037 87.83973612031596, 25.65909754934389 78.12797410339546, 5.089949985066043 57.70782192874653 M46.171502827380124 88.33310304262682 C36.84808028002854 80.39789659670015, 29.2200744082805 72.21308938198794, 12.969979121872909 57.97706886291458 M45.406608921375394 88.93936628845526 C36.71161892085299 80.96903464157126, 28.904958625521363 72.83613958833938, 13.137275032104679 57.51795166064007 M44.71531041738791 81.58399893403232 C36.64570331855066 73.50831034010312, 29.419734219552694 64.92906086371715, 22.32238466021594 56.52759434938385 M44.77773309954656 80.38928941417664 C40.30107359916263 75.2480229354034, 34.61754036117391 70.32304841180449, 21.470184528911375 57.17505614686711 M45.18365833637518 72.7211149945052 C41.05740144839463 67.96617388046948, 36.661953869652216 63.13080575710274, 29.327443320507218 57.49696939945174 M44.724041336860786 72.14893143485651 C42.603673978072244 68.722861254472, 38.42344129286764 65.94531913485349, 30.78424121962677 57.38835779953702 M45.15152518208352 64.01634280756639 C43.615694708052345 61.415714318803964, 41.65996883913517 59.36773705728387, 39.31152904224226 57.441627402025745 M45.15153023058762 63.720039148941275 C43.85802672958802 62.007114412606654, 42.63503478703106 60.955820609359584, 39.08236377875896 57.30519379961258 M45.1949134723668 125.80508652763325 C45.1949134723668 125.80508652763325, 45.1949134723668 125.80508652763325, 45.1949134723668 125.80508652763325 M45.1949134723668 125.80508652763325 C45.1949134723668 125.80508652763325, 45.1949134723668 125.80508652763325, 45.1949134723668 125.80508652763325 M44.8727492713009 116.69165550143514 C43.23615957565227 120.55669732980115, 39.88362030576456 122.03335094142471, 37.03034449589731 125.47323923954625 M45.23174665520088 117.61437373769525 C42.54855071230154 119.81701150955737, 40.00291946087247 122.60173701834117, 36.654148056221324 125.93489963998901 M45.715961864349715 108.36145318635036 C40.292815573433835 112.98295410216704, 35.36841176921507 120.57175705341949, 28.77370940287132 126.29787965142982 M45.18123965071636 108.78547889050324 C41.92961110524612 112.30434855127228, 38.692747427539004 115.32136464520865, 28.29790010422934 125.307224904428 M44.85009004151569 99.3774117913789 C36.19560125934904 107.83046772262858, 28.92491149872171 115.47459593693023, 20.141502662707907 126.06354109370965 M44.65800309585528 100.74845781761621 C35.853602523217646 109.25835632619366, 26.55305239515212 118.37257632654314, 19.98506336562042 126.18223138345289 M45.61044311797367 90.69548412016233 C34.13070152156125 102.61329268834221, 26.45529190333647 112.49559412938191, 10.126914864805233 126.51316440427559 M45.546413002481025 92.29777917484392 C38.004134131488506 98.96257354689544, 31.506750342198586 106.00587513327399, 11.076945598263931 126.24669918907689 M45.904528417942394 84.4017175359819 C31.020035457039047 99.03699397069818, 15.032184684376046 113.19585399781673, 1.954250208382072 125.6347500714089 M44.75570398973422 83.89774349929577 C31.979617172764165 95.87208582021631, 18.6087450733614 109.16672911026238, 2.6775079838005325 125.21082729590938 M45.38477514064061 74.10598752711886 C25.21484103621411 95.55189342360504, 5.038880015680445 114.9998951927349, -4.919765232342861 126.25262670839086 M44.65077473925548 74.37261226558113 C26.414970506750112 93.26315684047015, 7.761314048170301 112.91091835199794, -5.797374233629189 125.58852561605975 M44.43603436028706 65.75449770685444 C30.859269740718517 79.48518133251474, 17.971208052631642 93.88947932583844, -14.618483508150796 126.83995105350273 M44.858437995185426 66.40035788580933 C25.41027601067802 85.87064732259888, 5.6655260544001695 105.51919166287942, -14.613661747384587 125.59116499913739 M44.36307902610051 58.8422798134699 C26.578826618638708 75.84178981476236, 8.581882253754758 94.14858010402375, -23.857834794822995 125.53120797002569 M45.473670564164685 58.206413709589796 C31.883446060538834 71.29595172514567, 17.745245055447974 85.7338669140439, -22.31290118832505 125.82132723225162 M38.599929369247675 58.20386830329851 C13.760231972671274 81.6803213727351, -12.662303594878825 105.76197654630325, -31.3588273931407 125.33471044624105 M37.08768872228187 56.83559861708389 C11.914060087519378 83.3292209224023, -13.23324791910666 108.60526838139037, -30.90597512480995 125.76655504001185 M28.324769900812782 56.598383352756066 C8.72816930757318 78.55860052546316, -12.809976573806473 99.86705375700149, -38.86004772888515 126.14509959543005 M29.02161521304307 56.81845002103553 C13.345202276693106 72.94664864209831, -2.155859724401971 88.48545583286014, -39.66685206269864 125.69310208452747 M19.434245976201137 57.53523429393725 C-3.2123634909683085 80.88393821250169, -26.856395098596355 104.77762897692902, -45.70173322809144 122.32741753112774 M19.919525811775465 57.27817730236755 C2.7611020783993814 75.25412614413868, -15.133995700211916 92.92283031847141, -45.097909320604344 122.71125584066164 M11.58781804463148 58.0297653651233 C-5.046050393210654 73.04374032121825, -21.138155388442645 90.83927034239018, -45.46669944179459 114.35803449186918 M11.411553575119672 57.5675575606893 C-6.418589131414238 75.83273694477961, -23.400739658184396 93.39808554207586, -44.752110154640214 114.29751472077753 M2.7023684303225624 56.708648929595505 C-7.808442606180284 68.34119683650832, -19.57620238997652 81.44681157788511, -46.27812142026825 105.722430215428 M3.0272456222163187 57.255578833110185 C-7.634903916158565 68.67013250822312, -18.458242410183697 79.90686621632906, -44.91203513265802 105.67361944897695 M-6.060298667506856 56.622385475635085 C-15.40734289021771 69.1615007974594, -27.514722891103936 79.4280797500668, -45.669898089293675 97.58555831508545 M-4.598186865293963 57.42119009423957 C-18.62254544501555 71.15842236059815, -31.812897837282577 84.25984757925067, -45.041496510517135 97.5581674373692 M-13.705957174638037 57.25780361652329 C-19.466431449277927 64.82940348587759, -26.055325280668736 69.19200432563021, -45.6560064996521 90.0612005291228 M-13.117618643270555 57.74705125618681 C-24.06650153118684 68.00648692138944, -34.00603869702586 77.96912999466866, -45.03614248157693 89.51721703556373 M-21.62045914185222 57.35056009054139 C-29.878769327180308 64.87905306328982, -36.83538856661176 72.2233014302237, -44.14300182712478 81.42446672082127 M-22.06576040507283 57.813283168561306 C-28.852656336490156 64.62644539096998, -36.342326392668 71.7124849043927, -45.01720717669678 80.65803753066987 M-29.782234744930673 56.49763976097063 C-33.80156819703001 59.978027916953366, -38.50686346824612 65.49053849731253, -44.34251737249298 70.92429487846213 M-31.05290878156017 57.79121761847243 C-34.51681879537833 60.22751438651161, -37.035510480190645 64.12394454712349, -45.725260664236075 72.12285914729702 M-38.96159294695238 57.55508584113747 C-40.6782583316595 58.39413111693254, -41.37743548829841 60.37073027254911, -45.705809038423276 63.22700738266634 M-38.95434977234917 57.270367112634254 C-40.42936278938188 59.00194535843776, -41.81904717450199 60.39796932695477, -45.58439651325559 63.3110097521689" stroke="#ffffff" stroke-width="0.5" fill="none" stroke-linecap="round" stroke-linejoin="round"></path><path d="M-44.4856419313699 58.57833084352315 C-27.191447691433133 58.654128966487946, -9.335265002399684 56.918127224601804, 44.523843206092714 58.23540130145848 M44.22160132415593 58.31751833073795 C45.49008686158061 74.02836799174547, 45.066414602726695 88.39668950028718, 44.30355085618794 126.90337904803455 M45.92202254645527 124.95033994205296 C26.084135270677503 126.78742516683786, 6.9238492369651725 125.06479584621638, -44.16567134745419 125.47838703878224 M-44.642786748334764 125.04087113253772 C-44.76093561154604 106.71694760993124, -45.932697851479055 89.53095247782767, -44.511747784540056 58.422692466899754" stroke="#1d4ed8" stroke-width="1.25" fill="none" stroke-linecap="round" stroke-linejoin="round"></path></g><g><path d="M-44.4856419313699 86.57833084352315 C-27.191447691433133 86.65412896648795, -9.335265002399684 84.9181272246018, 44.523843206092714 86.23540130145848" stroke="#1d4ed8" stroke-width="1.25" fill="none" stroke-linecap="round" stroke-linejoin="round"></path></g><text x="0" y="72" text-anchor="middle" dominant-baseline="central" font-family="&quot;Courier New&quot;, ui-monospace, monospace" font-size="13" fill="#1d4ed8">User</text><text x="-35" y="96" text-anchor="start" dominant-baseline="central" font-family="&quot;Courier New&quot;, ui-monospace, monospace" font-size="13" fill="#1d4ed8">PK id: uuid</text><text x="-35" y="116" text-anchor="start" dominant-baseline="central" font-family="&quot;Courier New&quot;, ui-monospace, monospace" font-size="13" fill="#1d4ed8">email: text</text></g><g><g><path d="M317.73127676088177 136.23127676088177 C317.73127676088177 136.23127676088177, 317.73127676088177 136.23127676088177, 317.73127676088177 136.23127676088177 M317.73127676088177 136.23127676088177 C317.73127676088177 136.23127676088177, 317.73127676088177 136.23127676088177, 317.73127676088177 136.23127676088177 M326.4177231688482 136.74861983958445 C323.22485691920434 132.69839782173213, 320.24724563894773 129.31816997386392, 317.43737300131284 127.59761723483898 M326.0134871136082 136.5899973478522 C323.2341131866868 133.33420982845624, 320.81926665016243 130.37748699016643, 317.6886099709179 128.09737704205313 M335.6750761200993 135.33571381185018 C329.69314600722026 132.0713912398504, 327.1788299674693 127.47853873731563, 316.81621741119585 120.43084532397026 M334.77178377670634 135.71100588988327 C330.04978283355314 132.16495625486326, 326.03491554134115 128.18710537824728, 317.8721796544995 119.18429183477694 M342.31766337869914 135.44805781457387 C336.72555720066987 130.1582394114389, 328.6047382873476 121.79292791961011, 316.77125507656297 111.16870888629329 M343.04827552816124 136.0271244997885 C335.6425145221943 129.417801901899, 328.71719471431277 122.00238135263105, 318.08909079160355 111.21650960938406 M351.2477346155705 135.49951696011982 C344.06596487811885 127.85239524580561, 334.6091503715955 121.15012227942803, 317.8082835561391 101.88516513050106 M352.12448842524606 135.682663809767 C343.98679621578407 128.58152436401514, 337.1112220119996 122.62225276967435, 317.4672587188687 101.87524525203315 M360.8232732291508 136.10671722505055 C346.260894308606 122.24179736655617, 334.66864459015846 109.64155104128187, 317.5938799983617 92.7257462831561 M360.07865733124197 136.35270926903746 C349.799488047916 126.4475302122612, 340.1439777920508 116.57402767448222, 317.9368714245763 94.06488108694298 M368.1671063678775 136.45894083592856 C351.54632212096243 119.80783081069934, 334.5343260460468 101.48716521635922, 318.3344653016683 85.03364082082092 M368.06284523443026 136.46976820181868 C355.24880186089894 123.27898677998876, 343.612128995578 111.00010974920906, 317.41444502200744 85.53472131333231 M376.74190493018835 135.1431262693163 C360.7464290401942 119.29222771811934, 342.9502834861715 102.92204246644953, 317.55130411449636 77.37469347005798 M377.1154432480922 136.21126980732942 C362.71041255022215 121.37287386598092, 347.6360756901557 106.11798521472338, 317.41532374944353 76.26649200541986 M384.7251835645206 135.76886825177633 C361.99242629854615 113.83997312605145, 341.4801664193811 91.8470436053916, 318.0555048352834 68.76240520742984 M386.173670610509 136.48706515978836 C362.1407542520167 112.16079326457009, 338.3284172975398 87.81620240098216, 317.46617997016574 68.66184111242445 M394.98430066931184 135.79341775987115 C368.3344793933431 109.02436785138806, 339.5472004352886 82.08196704236613, 318.72301961246694 59.48293325949895 M393.686074684962 136.72692720841434 C374.37334582244375 116.91123460368982, 354.4149772765303 97.68133678855796, 317.9175141724553 59.32983845856476 M403.4514583929996 136.94668202016317 C373.5471663820571 106.49844668704793, 345.0617576983258 78.63907917725147, 317.26964434448445 51.92009110282781 M402.8250309597324 136.268050777426 C382.0113849404049 115.57947188189267, 361.04361713092925 95.16410745090366, 317.9561549695935 51.27447574305954 M411.49870263402124 136.45622450921496 C384.7777831164356 110.3021926113851, 356.5239437940663 81.88461022222808, 322.0686593668927 46.02298915109823 M411.0992430481013 135.74255256604215 C389.61288736135356 115.45392381922983, 368.8595059831798 94.71586772506026, 321.4603997869809 47.52480722724686 M419.11292304081445 135.0722649535891 C388.3421952754392 104.83521864456338, 357.65958342159917 75.15156971758793, 329.64054807812926 46.04575338087274 M419.16624268835017 136.06497114848162 C401.5924453759797 118.28263020169554, 382.5948181200777 98.80302064312785, 330.1272334878987 47.63716836034549 M427.6708530118167 135.49267932984793 C399.2354191304369 107.43155510816815, 373.4326910409048 81.41642367352803, 339.4279969395123 46.972525331594476 M427.64488974376013 136.219766973963 C408.1710748674842 115.52051308673383, 388.6431356969399 95.97883578466639, 339.08482837350886 46.68267577945484 M435.51406969546537 135.98799986455407 C413.2495972701454 111.97768756270733, 390.29023737858824 89.4439232884445, 348.25617684947935 46.22774347982595 M436.3278722026125 135.8488223667052 C412.304318807868 111.79934228641847, 386.948898252113 86.91476077809538, 346.9903255570927 47.52000868379365 M439.160032959519 129.662454003591 C409.25622184326164 102.56863530675975, 382.8894340496905 72.6882448272602, 356.0651024564678 47.45850255212973 M438.23024514750955 130.2749804952479 C412.8776879115536 105.03052752666235, 387.94355740511213 79.44392750442047, 355.79969427693135 47.14026814758073 M438.64764813953457 122.24952716064058 C418.1670509013001 101.93062230887489, 399.43858196394405 82.89559261674272, 363.88463215891534 46.959553525068266 M438.1724935038519 121.66010812092924 C420.16061771573726 103.78309427387845, 402.2360919818552 84.97568596877603, 363.9802318963062 47.6544771200348 M439.58434397750915 113.00904065582492 C415.6872555207401 87.79429845541534, 391.32329535876386 64.95049720419043, 371.8094681052593 46.498303625204095 M438.06510997848034 112.46467353652753 C423.96640856902206 98.33463782421705, 408.17414503953887 82.94775542590608, 372.9230639034984 46.881080425374634 M439.12107262188016 105.15215171570654 C424.514194239509 90.559418256348, 410.31126878424976 75.9464866117425, 381.77415619393724 46.93981632909966 M438.52109505967616 104.43524656626161 C424.8279476679971 90.12602798647202, 410.25809416557047 76.31927732542263, 381.35564391178923 46.933444762818944 M438.04862997108523 96.78767381684787 C421.9921957454783 79.54844975373857, 404.4217402032108 62.05437565640218, 390.72808607338675 46.671811363317474 M438.98977736072067 96.11331890935011 C420.767869499586 77.90949401462444, 401.55226590326623 59.359954227699475, 389.35425365946 47.20735870658646 M438.7726556735617 86.54707668581153 C430.70359186833855 79.35794708984423, 421.7755365601711 68.9326510952601, 398.21049114204516 47.229664704420074 M438.169313619895 87.82280414001193 C423.03259250764836 71.2055268924366, 407.2043225199215 56.49230218993462, 398.75650300979186 46.968532705896 M438.48863312774716 79.20948629915998 C431.0806113194566 70.61179213698179, 424.64804201235677 65.5217877464927, 406.7254485483501 46.92140857896997 M439.21918870048046 79.45753770746575 C431.83067711501866 71.99403491863231, 425.7394409670999 65.93862728958096, 406.3738299510661 46.74009908496631 M439.1568894820791 69.72668488345562 C432.52728840507024 64.77505525508212, 426.27848507030495 58.14548767432982, 414.916879190739 46.452731463529595 M438.17271559075834 70.66877693593023 C431.4664774834138 63.512655890587936, 423.705451134633 56.430824302129686, 415.204000596564 47.29011204301609 M438.2775956349951 60.84811091526104 C431.8134536668909 56.55544759027422, 428.2288240093826 50.67702725855631, 422.74354771764934 47.351978084661496 M438.7495354040098 62.25270102462424 C435.4824663668707 58.778779780877855, 431.98079756382816 56.098036237425454, 424.0436091845667 47.419047654264105 M438.7451897947994 53.88051745364309 C436.8381159022748 51.86024402865832, 434.91960938929276 49.45885292505048, 432.0897445595898 47.52251952077488 M438.52124780941205 53.69694082062558 C437.2935088928352 51.88807364114258, 435.6306928424784 50.74806816078738, 432.4706765574664 46.87098902282531 M438.57085117392114 135.92914882607883 C438.57085117392114 135.92914882607883, 438.57085117392114 135.92914882607883, 438.57085117392114 135.92914882607883 M438.57085117392114 135.92914882607883 C438.57085117392114 135.92914882607883, 438.57085117392114 135.92914882607883, 438.57085117392114 135.92914882607883 M438.38019623942546 127.37952441050973 C436.4986991963722 129.73113590104492, 433.8549723976182 131.31434626608308, 430.3058569666654 136.45098625712225 M438.5270806013035 127.79455662525561 C436.56845288041484 129.27694995473078, 434.12428806288517 131.60566803306367, 429.95164307958487 136.03244299188384 M438.10718228138853 119.59747463709213 C432.75843231851053 125.41650623362618, 427.2080017703034 129.1866286305882, 420.45929387888157 136.58139171086376 M438.5283653575169 118.92574242933192 C434.9716914444639 122.33231610499723, 431.72319606642486 126.18023985065099, 421.74916109187745 135.36163023531563 M439.7372321537869 111.24958380488391 C431.04478121768966 119.53685421675094, 421.7670451424902 126.53282950398655, 413.9425900564847 136.18839666329453 M438.5127508598553 110.31304443245466 C430.28458313307334 119.48118834509899, 421.151164867077 127.67208551581945, 413.0482945931462 136.4520858508361 M438.5574759653943 101.95333252956047 C431.96344698946325 108.37206662319352, 423.79029724160836 116.08583107136572, 405.0254307592343 135.40917496167253 M438.1511665898549 101.7934658661194 C429.4120295167992 111.07687498964737, 421.19865899033147 119.36573589544857, 405.21182209160736 136.30517993986737 M437.7469908646481 92.94175303768425 C424.23685569957945 107.85423188072399, 411.0231476906581 121.56725820324398, 396.570486885568 135.83066508256024 M438.1175505357968 93.02763905454485 C423.57314503801183 107.70688033376953, 410.0906848914701 121.9365532717541, 395.9781347005422 135.99834170162802 M439.024697749986 85.44553380581783 C419.4100596381254 104.20092084868733, 401.024291390931 123.59353914776165, 388.55527308392305 136.8624617525203 M438.07216881096235 85.12111819694982 C426.633900011809 97.14143226009469, 415.8373501293941 107.90437828356178, 388.1844516582318 136.141422210337 M438.2243612698453 76.71801956052362 C421.7664585758636 93.24984105069586, 405.0747930374568 110.21721650426379, 378.44714775273724 136.56181594811505 M438.2741156536328 76.01187936755298 C422.6545896898834 91.92607041600516, 408.04835588666907 107.35909464738101, 379.37932032795766 135.86419441521292 M437.66958982266357 68.06021127836422 C415.63943511985354 91.70394771230478, 392.75933736564224 113.30244336995843, 371.1783130404478 134.85863489590713 M438.7938134270894 67.85782051557318 C420.5471913250855 86.50446067299104, 401.683876273154 103.98992137769353, 370.63511619800084 135.40385314047464 M439.3488355568784 58.445766185902066 C422.4963993257979 76.36099957397991, 406.3872424559087 90.4175704605927, 362.7208148454923 136.78048207245894 M438.7255126196133 60.0242614652291 C419.1591254974717 79.5044801333721, 399.2733192652979 99.43649818042624, 362.1605428816427 136.29251508534082 M438.09039437092713 50.14599775969971 C418.35134535050594 70.83160629326198, 396.4773045237563 91.0809053750165, 354.86154281630843 136.47757720433304 M438.9997918444859 51.671443915739545 C404.37700910104667 85.09670943646248, 370.72776434663524 119.13869310536376, 353.71313211716443 135.54471882403024 M433.78765844494154 47.3046231946254 C406.93988243484364 73.14258366043245, 381.09024713451583 100.60664957904636, 345.9772303513335 134.84779626809186 M433.0463103716826 48.091778909629014 C409.1713767554045 70.79444741753193, 386.1054392034532 95.41586192108234, 345.0117437678473 135.44492480576164 M426.28782473973223 47.84905490486865 C404.0332678526595 68.81868232043632, 383.75398744829624 89.97539383136693, 336.20945459900497 135.561671490298 M425.7200166268576 47.18363833374327 C399.2943830823853 73.64229637598034, 374.2818574887157 98.68299789585852, 336.1490658219725 135.3350153547538 M416.32425430966936 48.55804121105915 C380.7082687824464 82.42533796654902, 346.89639293046525 118.8139735383788, 327.8396364577605 136.28739134751387 M416.271007504225 47.481495606368235 C385.20575427462325 78.82742366375571, 353.01231701244944 111.12544676424736, 328.00411439282135 135.40179467022546 M407.4346180531905 46.7435205897594 C387.1835466908184 69.10753332666425, 365.5204507061725 90.69554576944006, 320.8640405760375 136.71580056630202 M408.700174117066 48.0002799267227 C384.15465559331847 71.443342198694, 360.43457394217734 95.8418805377624, 320.2547337186751 135.66448882639537 M400.2714306187331 47.140087767531924 C378.9800897875615 68.93994729114851, 356.038775608493 91.21566279162819, 316.62562960176587 131.32854587373254 M400.107235703662 47.2873423690254 C370.5007831813207 77.5199232884467, 340.6146684149837 106.24957652982022, 317.4469504123074 130.50539152298984 M390.57705040473473 48.329993720939186 C375.84234589924466 63.151264232340694, 361.1699388900214 76.64138555125629, 316.0469285586369 121.96521162111414 M390.70323962729407 47.209955882495066 C368.0881158417053 71.12122941740046, 344.3714076644531 94.33151879429866, 316.46533783725323 121.79949970897388 M381.5586795596328 48.36814567654373 C360.15991171135727 71.64325598424614, 335.3218788942696 94.06864422430746, 316.4903062203419 112.5630384097555 M383.0230613762435 47.14281529135051 C366.40199938005503 63.48626342198598, 350.4229869732662 79.18761069053022, 316.6307974820477 113.01673220831242 M374.66336398186485 48.00710711090808 C360.4775357685243 61.389092878619564, 348.0235407842105 74.6989125241882, 317.3614022353184 104.75349596621918 M373.93790456379156 47.755537294810466 C359.1789119605328 62.30969887592714, 344.13519928152306 76.97696101630166, 316.94148608497204 105.38100259522425 M365.1529933198684 46.72209775059467 C356.33663314286815 58.29558609157319, 344.4271485544849 68.44069270449253, 317.6557000020039 96.71571026706756 M365.86780092821954 47.60016046709364 C348.3346644925265 64.20596981760144, 331.3146997747954 81.11690953380663, 317.2568885093075 96.08614631892802 M356.879300972081 48.33599357216599 C346.3440833156367 58.58562336916216, 338.0131340005871 66.65582019702916, 316.3335266688359 88.80146353886323 M357.59411033280867 48.098645257418774 C341.5269642893526 63.15064699314809, 326.1541085301724 77.94186422541179, 317.51031774333535 88.08342070364255 M348.25886408694 47.444326802184605 C338.5838308166414 57.04523835462142, 330.98603419302066 66.8222361043408, 317.4950531342518 79.56019425816866 M348.27202076584007 47.73037399000468 C336.94108938044445 59.10509617725932, 326.4272530427814 70.91839140011524, 316.92141490033686 79.46900494858654 M339.848103562883 47.040285917212984 C331.6813644343582 57.62722576129338, 323.32193089882537 64.75464216120608, 316.35529404668927 71.36399715154637 M340.24304834059524 47.01965086407008 C335.3954995907708 52.86328023953131, 329.91148493795794 57.97531212714635, 316.80864921859325 70.8715001279788 M332.3182840483475 47.33971564381363 C325.92293078731893 52.22114478085864, 322.9104998932348 58.35166840260384, 316.4191078045857 61.63262319555882 M332.24753729535524 47.52320195383372 C327.2114959585364 51.983007943389595, 322.47315218733075 56.61913823650686, 317.40181806138577 62.039429191038046 M323.8155764860796 47.12019327911531 C320.8534413554299 49.643928089602696, 318.7748713107461 52.281411956460495, 317.35695509577965 53.6139350421875 M323.36856720931326 47.3953944915997 C320.92919080379266 50.16023860675871, 318.50959149581763 52.49097045066825, 316.9962127580573 54.140550847534016" stroke="#ffffff" stroke-width="0.5" fill="none" stroke-linecap="round" stroke-linejoin="round"></path><path d="M317.3287161372602 47.95666168704629 C342.51738334354013 48.36850265588611, 366.43002744801345 47.29649917211383, 438.74768641218543 47.27080260291696 M438.14320264831184 47.4350366614759 C438.46945831732154 70.11081165745854, 437.6221137996137 90.10153034850954, 438.30710171237587 136.6067580960691 M439.1440450929105 135.10067988410592 C410.18312755022197 136.11839208609015, 382.5774124916643 135.07313344484717, 317.9686573050916 136.15677407756448 M317.01442650333047 135.28174226507545 C316.95910857693553 105.49806502833962, 317.0155840970695 75.59024457260966, 317.2765044309199 47.645384933799505" stroke="#1d4ed8" stroke-width="1.25" fill="none" stroke-linecap="round" stroke-linejoin="round"></path></g><g><path d="M317.3287161372602 75.95666168704629 C342.51738334354013 76.3685026558861, 366.43002744801345 75.29649917211383, 438.74768641218543 75.27080260291696" stroke="#1d4ed8" stroke-width="1.25" fill="none" stroke-linecap="round" stroke-linejoin="round"></path></g><text x="378" y="62" text-anchor="middle" dominant-baseline="central" font-family="&quot;Courier New&quot;, ui-monospace, monospace" font-size="13" fill="#1d4ed8">Order</text><text x="327.5" y="86" text-anchor="start" dominant-baseline="central" font-family="&quot;Courier New&quot;, ui-monospace, monospace" font-size="13" fill="#1d4ed8">PK id: uuid</text><text x="327.5" y="106" text-anchor="start" dominant-baseline="central" font-family="&quot;Courier New&quot;, ui-monospace, monospace" font-size="13" fill="#1d4ed8">FK user_id: uuid</text><text x="327.5" y="126" text-anchor="start" dominant-baseline="central" font-family="&quot;Courier New&quot;, ui-monospace, monospace" font-size="13" fill="#1d4ed8">total: numeric</text></g><g><g><path d="M692.914826307011 125.91482630701103 C692.914826307011 125.91482630701103, 692.914826307011 125.91482630701103, 692.914826307011 125.91482630701103 M692.914826307011 125.91482630701103 C692.914826307011 125.91482630701103, 692.914826307011 125.91482630701103, 692.914826307011 125.91482630701103 M702.0618552318415 125.61084092506506 C699.1083226072963 123.49054529761091, 696.4674900991831 121.68578793808014, 693.5539706676576 117.56697770506614 M701.6355011489815 126.2729071874667 C698.8136788710962 123.45646452086956, 696.1684653411572 120.71843653828257, 692.6708261220653 117.77661741588734 M710.7452439715988 126.37148188346364 C704.7304991030226 120.75168962501355, 701.4560813182438 116.75946714605908, 693.3422372824822 110.09946052588238 M710.2903054565094 126.03442000051328 C703.1869393664815 119.5357102232815, 697.1646384281634 113.5689339083575, 692.8261806474377 109.1296302920924 M718.8664841723793 126.53999788754923 C713.2000407428258 120.12698612033715, 707.3099811973855 115.07018770713711, 693.2747937805328 100.44889655648618 M718.4624023965724 125.90859791537119 C710.4687982869463 117.9707454437557, 701.4264029873956 108.79319903212536, 692.5515473530937 100.22059764112232 M726.818950340567 125.41718660586812 C718.1996789334886 116.18134593468855, 709.8085697233989 109.52204903481763, 692.4303364998971 93.16622160991712 M727.2340810550804 125.39190688033887 C716.3497307926764 114.61800965992202, 706.0363694869998 104.47910226841086, 693.4187992439914 91.65134179221523 M735.7396175738181 125.12798700326421 C724.9340656319758 113.86315352502493, 713.630972428543 102.24806541135204, 693.308731163231 82.46973402601895 M735.5226937269549 126.39697506924458 C720.2566748667023 110.49194154881647, 705.1734094829045 95.68168774214801, 692.9232183025528 82.97843623169926 M744.912726594789 125.65632241958119 C733.0383387757295 114.8142578812613, 722.7938511369853 106.20676596338052, 693.2196091181908 75.17421651963545 M743.256334894618 125.97256346841641 C729.0653446329696 111.93865418610916, 716.1015041595314 98.01150746448276, 692.7395786986996 74.42583725840254 M752.332283751136 126.08260056966283 C740.2897402036224 113.19947575743218, 725.4749157965223 100.52359180386149, 693.2448673374329 66.72843618061039 M752.5925912279918 126.18481587668248 C729.5712160905558 103.85594560111616, 707.5597108004561 81.57361262422985, 693.3408967898537 66.56613398365322 M761.264561015515 127.02121354335291 C739.6233340165279 106.74869715712538, 720.0313943965618 84.93575307491733, 694.0011684186135 56.85264447378743 M761.3372915844976 125.39850890537096 C738.182908544348 102.84117515774719, 716.6408533114145 80.500739061147, 692.817181120937 58.201798331279335 M768.8105959855826 127.05803780549505 C747.7463924452799 103.41998382740496, 723.5854387088383 80.82634731451233, 700.3806151774409 57.35425183206239 M768.9632570090579 125.75830197830983 C749.5048875369636 106.3970552421938, 730.0070493782773 86.79192317967987, 701.2723570174234 57.424609630661095 M777.268691883995 125.18793419593312 C756.8821386838171 104.16620498488702, 734.9119873245172 84.3351153864897, 709.0858336497056 56.337910658413556 M777.229050734094 125.66998733182736 C752.6971256580329 101.27201533787174, 727.2004578378104 76.00395258537922, 708.6155995873693 56.86948761876115 M785.0969175584081 126.85224792951085 C769.2223657988859 109.2470788493175, 749.9421833803847 89.72128183063464, 717.2056765268777 56.25621876149806 M786.5977281795282 126.08174001475163 C762.1534515510928 101.98986418533978, 737.6762699459752 76.93567050622848, 717.1932871570099 57.00894587572101 M795.8756074814787 124.77630859607197 C779.5357316727326 111.5939739797778, 763.602587880633 94.75927457797529, 726.7208689066133 57.490365106159835 M794.4555869527823 125.36536788841076 C779.7985212582911 112.19012942990369, 766.3222385872921 97.39087330490615, 726.5508970212674 57.17748757536897 M802.0698617508626 126.60693016046031 C778.5781605342572 99.92247086749394, 752.7409529926335 76.16665830820813, 733.5594015115685 57.68052303224245 M803.5309168487779 125.59756162663294 C779.9011983370449 102.3498033804298, 756.9058064680597 79.33380431415993, 734.5446486625633 56.94574870403299 M810.7920460892165 126.14991096251943 C785.3420793496068 98.2542670222627, 757.7147313595369 71.26531245813418, 742.5590306893998 57.7633502545897 M811.7127498499373 126.24114471574612 C790.568427537444 104.06816850268059, 768.5190187556743 82.12501829205881, 743.3602537508199 57.60174806054124 M819.6571850630096 125.50042693590669 C805.486264580315 110.40397768282853, 791.5459556609607 94.79326473458168, 752.4297784127633 57.209488863045365 M819.7625033449954 124.91921667339204 C794.5037877734809 100.58053375695556, 770.7529044022846 75.85094611205858, 751.7316661434586 57.03213725622186 M820.0886078330329 117.42367735860039 C807.3257802547244 104.5422211785349, 794.6669946324465 92.62359442409308, 761.1164322793152 57.66106532245317 M819.0758758795089 116.23954879903336 C804.2669764251069 100.53875336959578, 788.1555440422603 85.50299712991855, 759.7598318854015 57.203450714902964 M819.0936515899947 107.80558828849618 C806.5886497813347 95.99485678299784, 793.428740661895 83.91518602968517, 767.5610455117119 58.16919047265687 M818.9148005914515 108.4890376095501 C807.2684007095158 95.4258504191988, 794.3468946448595 83.11241605130061, 768.3314392090706 57.843355672912686 M818.3987445565513 100.26289556543786 C803.2530764591187 82.7660303092903, 787.7155971131359 66.61354167928812, 777.0654369576096 56.43145952850023 M819.5987782132453 99.48753784127045 C807.5961953323758 88.47292664300299, 796.1418749100842 76.96326048277723, 776.7376685343876 57.92190217907914 M820.3900805803588 90.75881940426919 C809.3985009679552 81.66947977355225, 797.3758988052958 69.76144977828943, 786.2536910896644 58.42945207982698 M819.101801664812 91.84728704302255 C806.9013662697304 78.36616320306229, 794.4681858146815 66.93207846210565, 785.6929424687743 57.73277309473046 M820.2761191340735 82.04056439483392 C811.9602376039921 74.87654502644016, 802.3143175533106 65.3847639461336, 793.2346580055328 58.06623209148088 M819.6711060535735 83.0541555761345 C812.699169758166 75.65289849207507, 805.2528336253595 68.67913028710575, 793.7536758071528 56.774534093694776 M818.6500853153518 75.27681950197587 C812.5062866376055 67.47934570820729, 807.9154128740355 63.70231931955334, 801.7644534278709 56.403847903305675 M819.4459186744517 74.1488966144345 C816.4882548299724 70.9043754583106, 812.3658888962419 67.43575230288134, 802.7370255319449 57.031883662300196 M818.866257963871 65.50145480178499 C816.3726919350227 63.04115589086388, 813.4586992296055 59.06447536405856, 810.2860387286668 57.790686750853446 M819.2405014616824 65.80933764901215 C817.4566959482709 63.2431195075948, 814.7339999164453 61.13169876005949, 810.7244479939093 57.28432927239129 M818.9823227814084 126.01767721859181 C818.9823227814084 126.01767721859181, 818.9823227814084 126.01767721859181, 818.9823227814084 126.01767721859181 M818.9823227814084 126.01767721859181 C818.9823227814084 126.01767721859181, 818.9823227814084 126.01767721859181, 818.9823227814084 126.01767721859181 M818.8196296834444 117.93386402752796 C816.6601304404392 119.69369045626146, 815.2401736893227 122.14146386539792, 810.4713799001444 125.71107159738803 M818.9117457126697 117.74671076149295 C816.5004946428555 119.98795462005616, 813.1748625421419 123.17637486392772, 810.3332438958976 125.66801060148889 M819.5519077862298 109.08488220486575 C812.0510420256329 115.8318522410636, 806.746164616242 121.35285189624298, 802.0027886550964 124.96029776086473 M818.5499065820744 108.68475642025257 C813.6552134193796 114.34375623239886, 808.708310196748 119.87297461387435, 801.7699616512374 126.5679944838714 M819.105685445169 101.00097549254968 C812.4796664441196 108.79190690840652, 802.7569895641376 115.863292704099, 794.6771965761498 126.72227079620028 M819.1728963498641 100.53855602941438 C808.7078976133729 110.44521944242692, 799.4260715562469 120.638428651561, 793.4916618584484 126.57591263310427 M818.8868194426095 92.43488456087314 C805.8139666695669 104.94890045782435, 792.4489294055621 119.24347549496147, 783.9297054646104 125.19604154576916 M818.6185940568021 91.72728624923283 C811.5318452374205 99.11887223957869, 805.5274865033767 106.02237352504442, 784.9645062841042 126.06639933244693 M820.1318942512071 84.15568899968012 C807.4330080674084 94.88959874772907, 795.0977949977812 107.4021706354104, 775.9972904181343 127.00654897441531 M819.1951723103097 83.65087994103625 C805.3245593882749 97.13042328283993, 791.9012483317183 110.93995269648262, 776.1558472231266 125.90208275572772 M819.562259968618 75.6539527738142 C802.8520706085359 91.9321504310424, 785.1060937301172 108.98904935993725, 768.0641921593782 127.0377164219823 M819.252795905309 75.1141527786526 C804.517521394001 90.56573985385506, 789.4243130177135 104.57218379914276, 768.0437791579377 125.68172388927454 M818.3465323174988 67.57922422311916 C800.1241104662138 85.50717456389057, 783.7065973445528 102.67366515594946, 758.424417035998 126.46995160331393 M818.6023718242218 66.80805324841006 C806.7153212932126 79.62306868946101, 793.8319409259071 91.82726824393077, 759.0358887584592 126.42146653191561 M817.8630926455055 58.17753606243883 C801.7826302072372 76.3211435144364, 785.1954055824282 93.2186432170652, 750.6442370206498 125.61764660825396 M818.53429923697 57.99091264913683 C795.4985634901153 81.78921878797709, 772.8737728237679 104.96360366590301, 751.588004882113 125.43608729497905 M811.2844133322425 58.30707997466882 C790.9539158885002 77.70819674763125, 768.9868679418543 101.28880956701889, 742.1246897109902 125.16667790164608 M811.0590449079237 57.547869685212866 C791.778548768067 76.9864062240388, 771.9952143265552 96.80992630779289, 742.6229485738208 126.2202456022929 M801.9669747872314 58.04828961278762 C776.3839946775131 85.72354569160825, 747.3717701676302 111.61336705665477, 733.0640783296756 126.21190632333422 M802.7533101938701 56.84470346860106 C788.1334333917092 71.29875193743334, 775.0715383350445 85.29386547325463, 733.7492830660051 126.12973369018549 M793.600562014315 57.55454403545226 C778.9176739767559 73.00261849622653, 764.0473657021853 85.99404779588258, 724.6204717243616 126.69467708816195 M794.1655776084174 57.822286954442816 C767.150878615596 83.75421897023834, 740.9431500668684 111.23126524128645, 725.2800637785871 126.26272660748477 M786.8276188611495 57.8328134575065 C759.6544826189073 83.03236327026396, 736.3499053920522 107.49982787962624, 718.2742043677049 126.24031978597301 M785.4917150714878 58.020982691566246 C765.7606842311295 77.77558503419623, 744.9937385036167 98.53163913344368, 716.8515883189889 126.34103221551884 M776.9128548003913 57.674052468794244 C754.5987752470263 80.65251771550105, 730.290695728207 104.98224316174972, 709.1903763573617 124.99564838161135 M776.7008326905028 57.954786041299656 C756.0232859170648 78.06702866890069, 735.6788241345226 98.94470587884152, 708.6421464821325 126.19134118811601 M768.7057449296966 57.29070003415902 C751.3308441707203 76.11450328926227, 733.6109607415264 92.7505333783074, 699.9813534159885 126.06646121492047 M768.7540327603847 57.79257517747094 C746.140551887468 80.88103740192551, 722.946530343848 104.1173228348582, 699.5907702504396 125.42647701160419 M759.2030299717215 58.35417949344476 C732.8642605799912 83.27104460538041, 706.740458449768 112.0599863153767, 692.3763736724276 126.4479342195578 M760.623159763555 57.03936108640839 C743.7745453222291 73.31559331772137, 728.1345380288627 90.31247936856455, 692.9230905750188 125.41953920362518 M752.5112162741226 58.03239856149514 C729.2137540186555 79.6344696491881, 708.7005889609223 102.43500939411612, 692.2409019112008 116.20526667350137 M751.709550369936 57.21753756694009 C739.6627633574965 69.59154335235137, 726.598316853959 82.47367488777978, 692.8269416251572 117.32829906364137 M742.4090758095558 58.62724932815392 C728.1153297162272 72.49716343464388, 712.6998197070235 86.9142754259641, 691.3259261369127 108.12438463464721 M743.6627834369492 57.94813123039414 C725.8911013032794 75.05505406433552, 708.9727268697619 92.03873621040789, 692.857907352725 108.38965310853317 M734.5101461756775 56.812108258264914 C722.272602853537 69.53228414942814, 708.790509989348 82.44094847815579, 691.6578745722192 100.72202394283896 M734.3994300095164 57.23205150059874 C723.0315087625758 68.9685895953989, 711.1192668708023 81.32120328664129, 691.9854884901437 100.17345607462859 M726.425230595144 58.06933619167169 C714.3013610863991 69.15615987937525, 703.2255963967331 79.01295770350173, 693.5229410647767 92.06140481292024 M725.92180332006 57.13134061388185 C713.6306221691377 69.52068452688046, 701.916117712485 82.61869127616635, 692.8336779573353 91.84194551075562 M717.9248979156114 56.327778343218164 C711.3614407353778 64.19243308260286, 706.2305366919267 69.40707411793629, 692.4295850872415 82.18973183473503 M718.3367087885015 56.85042361907174 C710.05129151588 64.78117440821221, 703.6566487570611 71.81114135907843, 692.699710861722 83.43099177824264 M710.3019826097359 58.00026430274804 C706.7341873878294 61.00795364148212, 702.0799371359756 65.41563693014024, 691.6710317372697 74.37569397312686 M709.2741940222626 57.217358377496495 C705.4906644592969 61.70023358468879, 702.308196667317 65.31916387437977, 691.972814498225 74.93134805091753 M700.1986469944064 57.0639925984617 C698.8616810065034 60.30369501696903, 696.6838135366131 62.246885248394925, 692.2167466221172 65.69361906785791 M701.0219754190613 57.39037911518921 C698.8244069095307 59.70164957904653, 696.2027140776873 61.79986773666517, 692.3758585891667 65.94738051615928" stroke="#ffffff" stroke-width="0.5" fill="none" stroke-linecap="round" stroke-linejoin="round"></path><path d="M692.1430742058903 57.33499253056944 C717.6261424491182 57.509858352275195, 742.3951760396361 57.101853126616774, 819.9715296182782 58.706203904375435 M819.0648039724678 58.95255499221385 C818.0702605847418 76.48510397523643, 819.1992438081801 94.79006850086154, 819.3106525685638 126.31013714410365 M819.3660676393658 125.25101982615888 C786.7621567307041 126.02139984342904, 756.1910495482385 125.65351188156455, 693.1029859576374 126.83516111634671 M694.0716397549957 125.52261339761317 C693.7171931653619 111.35084282979369, 692.6019064455628 98.192857433483, 692.0647566463798 56.868077400699256" stroke="#1d4ed8" stroke-width="1.25" fill="none" stroke-linecap="round" stroke-linejoin="round"></path></g><g><path d="M692.1430742058903 85.33499253056944 C717.6261424491182 85.50985835227519, 742.3951760396361 85.10185312661677, 819.9715296182782 86.70620390437543" stroke="#1d4ed8" stroke-width="1.25" fill="none" stroke-linecap="round" stroke-linejoin="round"></path></g><text x="756" y="72" text-anchor="middle" dominant-baseline="central" font-family="&quot;Courier New&quot;, ui-monospace, monospace" font-size="13" fill="#1d4ed8">LineItem</text><text x="703" y="96" text-anchor="start" dominant-baseline="central" font-family="&quot;Courier New&quot;, ui-monospace, monospace" font-size="13" fill="#1d4ed8">PK id: uuid</text><text x="703" y="116" text-anchor="start" dominant-baseline="central" font-family="&quot;Courier New&quot;, ui-monospace, monospace" font-size="13" fill="#1d4ed8">FK order_id: uuid</text></g></g></svg>