<svg xmlns="http://www.w3.org/2000/svg" viewBox="0 0 860 320" width="860" height="320" role="img"><g transform="translate(40, 24)"><g><g><path d="M108.43761759360792 132.49204584799435 C153.73780315299018 132.4988086711056, 199.51613039562466 131.02181248670294, 337.0948841808106 132.2002802276453" stroke="#1d4ed8" stroke-width="1.25" fill="none" stroke-linecap="round" stroke-linejoin="round"></path></g><text x="172.26" y="126" text-anchor="middle" dominant-baseline="central" font-family="&quot;Courier New&quot;, ui-monospace, monospace" font-size="13" fill="#1d4ed8">1</text><text x="273.24" y="126" text-anchor="middle" dominant-baseline="central" font-family="&quot;Courier New&quot;, ui-monospace, monospace" font-size="13" fill="#1d4ed8">N</text></g><g><g><path d="M458.34913218025235 131.96182736258817 C501.52089936629335 132.4383494790252, 543.568738003329 131.49412259289835, 670.2181636284341 131.35771870330436" stroke="#1d4ed8" stroke-width="1.25" fill="none" stroke-linecap="round" stroke-linejoin="round"></path></g><text x="517.72" y="126" text-anchor="middle" dominant-baseline="central" font-family="&quot;Courier New&quot;, ui-monospace, monospace" font-size="13" fill="#1d4ed8">1</text><text x="610.78" y="126" text-anchor="middle" dominant-baseline="central" font-family="&quot;Courier New&quot;, ui-monospace, monospace" font-size="13" fill="#1d4ed8">N</text></g><g><g><path d="M17.923881554251167 165.92388155425118 C17.923881554251167 165.92388155425118, 17.923881554251167 165.92388155425118, 17.923881554251167 165.92388155425118 M17.923881554251167 165.92388155425118 C17.923881554251167 165.92388155425118, 17.923881554251167 165.92388155425118, 17.923881554251167 165.92388155425118 M26.14974544535369 165.82255309360252 C24.41460184545879 162.93873160960342, 21.357268067906666 161.12008954824543, 18.136929674466717 157.0044111041105 M26.487627417733673 166.2832418477364 C23.030701841776157 162.58810947554164, 20.126222298666267 159.41269178154903, 18.082548159269262 157.79429100771756 M35.98106260809851 166.0761000797354 C30.113405952109463 162.76724719418596, 28.35919165738626 157.57376466807082, 18.066351879408213 150.13838446155683 M34.62941643640203 165.96374611875194 C28.894668090428173 160.77624407624833, 23.49312189462674 155.39320608824488, 18.294333001060043 148.61510771696018 M43.54499692451773 166.13227208109723 C35.627227998012685 157.16564704203932, 25.27564971680838 147.8918224715818, 18.043870712091778 141.26467555559907 M43.01030299924878 165.52180542370456 C37.39238509694097 160.24101269954096, 31.384140780728632 153.38771801263542, 17.80278856961206 140.38857591714446 M51.052673230072664 164.9580016538702 C45.308405162247766 158.8995988964213, 37.18588535929063 152.1543498635371, 18.56238495187984 132.3802629905837 M52.39105013491045 165.3495750786938 C41.574708281384936 154.97005090583065, 31.348696080101856 145.2021900092694, 18.09187253324465 131.47530305134973 M61.28308322398211 166.46160178633556 C45.56752407771658 149.79294879460437, 31.286117844254246 136.20754425772867, 17.25518317299113 122.35791287979193 M60.010775275027704 165.68459780832904 C46.43682094737159 152.29763859394777, 33.72378444520041 138.8756059508197, 18.326678886098417 123.32748028168535 M69.19764048046478 166.63771359177457 C55.857173558358625 151.9598957287223, 42.260006696357635 138.9083941070091, 18.82547582464443 114.26921946150505 M68.24550991374115 166.34312727471965 C56.80841342832687 153.995473713367, 46.498908171123226 143.364866373434, 17.465465684814017 114.81975970776074 M76.52768044873947 165.97980630846845 C56.57927221626479 145.04623947247956, 35.80180551531944 124.98175292271064, 17.233895231058458 107.39710509900429 M77.0144496076914 165.613878077475 C57.861263971278746 146.38656254641035, 39.04470161731152 127.47972429684756, 18.06590504853205 106.54300436668522 M85.96196045302489 166.29267729969845 C59.737672920063275 140.633238239247, 35.90509278169902 116.06032328013535, 17.48599559145198 97.64832028057093 M86.3862039760191 165.75177575370446 C60.2747542991839 140.53073090612094, 35.39213562316373 114.18198527554526, 17.49133315889315 98.49803823306823 M94.13415969253978 166.30495205374586 C69.73200607818697 139.44484829346396, 41.78785942601443 113.6231407158077, 25.59792757309577 96.54411821253821 M93.78504670036486 165.87170677801745 C78.95367583965407 150.7824531350729, 62.5091487500793 134.7021614108889, 25.49517485308996 97.36757081207111 M102.61037924150293 165.68158418389189 C76.61462312897808 139.58384570685115, 52.600743935852826 114.68298710069334, 33.356521313343094 97.00533782132193 M102.5971655248693 166.2422685625233 C80.99224263872304 143.48199670374555, 58.77548181029654 122.14143756456235, 33.99977662589764 97.5825301414378 M108.04821492438688 162.6079283036716 C86.36909922481644 141.04823441462202, 62.6489505063334 117.24621416274509, 43.31998985522618 96.1781071890168 M108.1484851314269 163.1510923320852 C87.68869653135602 141.9021572899932, 66.31091609439154 121.13203949503084, 42.11586006527027 97.22901622709112 M108.81268444066419 153.43066715162007 C91.95843702094716 139.22102891245424, 77.63127305751894 122.99334641245831, 51.34857489796373 97.38948930390403 M107.93934426443202 154.82702024906632 C96.61043413488996 143.5834374355585, 85.27434304588542 131.40635519522112, 51.291917602848436 97.28519679364041 M108.84900873904601 146.3555929655109 C96.1368810585934 132.52033171340025, 83.45134324047234 122.12859222272516, 59.284940015774545 96.6528752792649 M108.53602710501775 146.41913678756845 C93.5962465834432 130.3261852925223, 77.99261103330686 115.9156806766244, 60.01335573277282 96.80795050319509 M107.32797639375106 136.9179718586254 C94.55095552895308 123.17801497121171, 82.56435870823792 111.40421595914371, 67.94167065787732 97.48048435338065 M108.03487764732465 137.74838310970097 C99.32507411659834 127.95853114693395, 88.77789257596187 118.24676913001343, 68.208745011684 97.8266169553645 M109.2902978539981 128.45189806924478 C99.96687530664651 120.51669162331811, 92.33886943489848 112.3318844086059, 76.08877414849087 98.09586388953255 M108.52540394799337 129.05816131507322 C99.83041394747096 121.08782966818923, 92.02375365213933 112.95493461495737, 76.25607005872264 97.63674668725805 M107.83410544400587 121.70279396065028 C99.76449834516862 113.62710536672108, 92.53852924617067 105.04785589033511, 85.44117968683392 96.64638937600182 M107.89652812616453 120.5080844407946 C103.41986862578061 115.36681796202137, 97.73633538779188 110.44184343842245, 84.58897955552936 97.29385117348508 M108.30245336299315 112.83991002112317 C104.17619647501259 108.08496890708746, 99.78074889627018 103.24960078372071, 92.44623834712517 97.61576442606972 M107.84283636347875 112.26772646147448 C105.72246900469021 108.84165628108997, 101.54223631948561 106.06411416147147, 93.90303624624474 97.507152826155 M108.27032020870149 104.13513783418435 C106.73448973467032 101.53450934542194, 104.77876386575315 99.48653208390184, 102.43032406886024 97.56042242864372 M108.27032525720558 103.83883417555924 C106.976821756206 102.12590943922463, 105.75382981364905 101.07461563597755, 102.20115880537693 97.42398882623056 M108.00862197135154 165.9913780286485 C108.00862197135154 165.9913780286485, 108.00862197135154 165.9913780286485, 108.00862197135154 165.9913780286485 M108.00862197135154 165.9913780286485 C108.00862197135154 165.9913780286485, 108.00862197135154 165.9913780286485, 108.00862197135154 165.9913780286485 M107.68645777028567 156.87794700245038 C106.04986807463705 160.74298883081644, 102.69732880474932 162.21964244243995, 99.84405299488209 165.6595307405615 M108.04545515418566 157.8006652387105 C105.36225921128631 160.00330301057264, 102.81662795985726 162.78802851935643, 99.4678565552061 166.1211911410043 M108.52967036333447 148.5477446873656 C103.1065240724186 153.16924560318228, 98.18212026819982 160.75804855443474, 91.58741790185607 166.48417115244507 M107.99494814970112 148.97177039151848 C104.74331960423088 152.49064005228752, 101.50645592652376 155.50765614622387, 91.1116086032141 165.49351640544324 M107.66379854050045 139.56370329239417 C99.00930975833381 148.01675922364385, 91.73861999770648 155.66088743794546, 82.95521116169267 166.24983259472492 M107.47171159484004 140.93474931863148 C98.66731102220241 149.4446478272089, 89.36676089413687 158.5588678275584, 82.79877186460517 166.36852288446815 M108.42415161695844 130.88177562117758 C96.944410020546 142.79958418935746, 89.26900040232124 152.68188563039718, 72.94062336379001 166.69945590529082 M108.3601215014658 132.4840706758592 C100.81784263047328 139.14886504791073, 94.32045884118335 146.19216663428926, 73.8906540972487 166.43299069009214 M108.71823691692715 124.58800903699715 C93.8337439560238 139.2232854717134, 77.8458931833608 153.38214549883202, 64.76795870736683 165.82104157242415 M107.56941248871898 124.08403500031102 C94.79332567174892 136.05837732123155, 81.42245357234616 149.35302061127763, 65.49121648278529 165.39711879692464 M108.19848363962537 114.29227902813412 C88.02854953519886 135.7381849246203, 67.8525885146652 155.18618669375016, 57.8939432666419 166.43891820940613 M107.46448323824023 114.55890376659639 C89.22867900573486 133.4494483414854, 70.57502254715506 153.0972098530132, 57.01633426535557 165.774817117075 M107.24974285927183 105.94078920786968 C93.67297823970328 119.67147283352999, 80.78491655161642 134.07577082685367, 48.19522499083397 167.02624255451798 M107.67214649417019 106.58664938682458 C88.2239845096628 126.05693882361413, 68.47923455338494 145.70548316389466, 48.200046751600176 165.77745650015262 M107.17678752508526 99.02857131448515 C89.39253511762345 116.02808131577763, 71.39559075273951 134.334871605039, 38.955873704161775 165.71749947104095 M108.28737906314944 98.39270521060504 C94.6971545595236 111.48224322616093, 80.55895355443273 125.92015841505916, 40.50080731065972 166.00761873326687 M101.41363786823244 98.39015980431378 C76.57394047165603 121.86661287375036, 50.15140490410593 145.94826804731852, 31.454881105844073 165.5210019472563 M99.90139722126663 97.02189011809915 C74.72776858650415 123.51551242341756, 49.58046057987811 148.79155988240564, 31.907733374174825 165.95284654102713 M91.13847839979755 96.7846748537713 C71.54187780655795 118.74489202647842, 50.00373192517828 140.05334525801675, 23.9536607700996 166.33139109644532 M91.83532371202784 97.00474152205078 C76.15891077567788 113.13294014311357, 60.6578487745828 128.67174733387537, 23.14685643628611 165.87939358554272 M82.24795447518589 97.7215257949525 C59.601345008016445 121.07022971351694, 35.9573134003884 144.9639204779443, 17.111975270893318 162.513709032143 M82.73323431076022 97.4644688033828 C65.57481057738413 115.44041764515393, 47.67971279877284 133.10912181948666, 17.715799178380415 162.8975473416769 M74.40152654361624 98.21605686613857 C57.76765810577412 113.23003182223351, 41.675553110542126 131.02556184340543, 17.347009057190178 154.54432599288444 M74.22526207410444 97.75384906170457 C56.39511936757052 116.01902844579487, 39.41296884080036 133.58437704309114, 18.061598344344553 154.4838062217928 M65.51607692930733 96.89494043061076 C55.00526589280449 108.52748833752356, 43.23750610900825 121.63310307890036, 16.535587078716514 145.90872171644324 M65.84095412120108 97.44187033412544 C55.1788045828262 108.85642400923838, 44.355466088801066 120.09315771734431, 17.901673366326747 145.85991094999218 M56.75340983147791 96.80867697665033 C47.40636560876706 109.34779229847464, 35.29898560788083 119.61437125108206, 17.143810409691092 137.7718498161007 M58.215521633690805 97.60748159525481 C44.19116305396922 111.3447138616134, 31.000810661702186 124.44613908026592, 17.77221198846763 137.74445893838447 M49.10775132434672 97.44409511753855 C43.34727704970683 105.01569498689285, 36.75838321831603 109.37829582664548, 17.157701999332666 130.24749203013806 M49.6960898557142 97.93334275720207 C38.74720696779792 108.19277842240471, 28.807669801958898 118.15542149568394, 17.777566017407832 129.70350853657902 M41.193249357132544 97.53685159155665 C32.93493917180445 105.06534456430508, 25.978319932373005 112.40959293123896, 18.670706671859985 121.61075822183653 M40.74794809391194 97.99957466957657 C33.9610521624946 104.81273689198525, 26.471382106316767 111.89877640540797, 17.79650132228798 120.84432903168513 M33.03147375405409 96.68393126198589 C29.012140301954755 100.16431941796863, 24.30684503073864 105.6768299983278, 18.47119112649178 111.1105863794774 M31.760799717424597 97.9775091194877 C28.296889703606436 100.41380588752686, 25.778198018794114 104.31023604813875, 17.088447834748685 112.30915064831228 M23.852115552032387 97.74137734215273 C22.135450167325263 98.5804226179478, 21.436273010686357 100.55702177356437, 17.10789946056149 103.4132988836816 M23.859358726635598 97.45665861364951 C22.384345709602883 99.18823685945303, 20.99466132448278 100.58426082797004, 17.22931198572918 103.49730125318416" stroke="#ffffff" stroke-width="0.5" fill="none" stroke-linecap="round" stroke-linejoin="round"></path><path d="M18.5143580686301 98.57833084352315 C35.80855230856687 98.65412896648795, 53.66473499760032 96.9181272246018, 107.52384320609272 98.23540130145848 M107.22160132415593 98.31751833073795 C108.49008686158061 114.02836799174547, 108.0664146027267 128.39668950028718, 107.30355085618794 166.90337904803454 M108.92202254645527 164.95033994205295 C89.0841352706775 166.78742516683786, 69.92384923696518 165.06479584621638, 18.83432865254581 165.47838703878224 M18.357213251665236 165.04087113253772 C18.23906438845396 146.71694760993122, 17.067302148520948 129.53095247782767, 18.488252215459944 98.42269246689975" stroke="#1d4ed8" stroke-width="1.25" fill="none" stroke-linecap="round" stroke-linejoin="round"></path></g><g><path d="M18.5143580686301 126.57833084352315 C35.80855230856687 126.65412896648795, 53.66473499760032 124.9181272246018, 107.52384320609272 126.23540130145848" stroke="#1d4ed8" stroke-width="1.25" fill="none" stroke-linecap="round" stroke-linejoin="round"></path></g><text x="63" y="112" text-anchor="middle" dominant-baseline="central" font-family="&quot;Courier New&quot;, ui-monospace, monospace" font-size="13" fill="#1d4ed8">User</text><text x="28" y="136" text-anchor="start" dominant-baseline="central" font-family="&quot;Courier New&quot;, ui-monospace, monospace" font-size="13" fill="#1d4ed8">PK id: uuid</text><text x="28" y="156" text-anchor="start" dominant-baseline="central" font-family="&quot;Courier New&quot;, ui-monospace, monospace" font-size="13" fill="#1d4ed8">email: text</text></g><g><g><path d="M337.4297615707168 175.92976157071675 C337.4297615707168 175.92976157071675, 337.4297615707168 175.92976157071675, 337.4297615707168 175.92976157071675 M337.4297615707168 175.92976157071675 C337.4297615707168 175.92976157071675, 337.4297615707168 175.92976157071675, 337.4297615707168 175.92976157071675 M346.11620797868324 176.4471046494194 C342.92334172903935 172.3968826315671, 339.94573044878274 169.0166547836989, 337.13585781114784 167.296102044674 M345.71197192344323 176.28848215768716 C342.9325979965218 173.03269463829122, 340.51775145999744 170.0759718000014, 337.38709478075293 167.79586185188813 M355.37356092993434 175.0341986216852 C349.39163081705533 171.76987604968542, 346.8773147773043 167.1770235471506, 336.51470222103086 160.12933013380524 M354.4702685865414 175.40949069971828 C349.7482676433882 171.86344106469826, 345.73340035117616 167.8855901880823, 337.5706644643345 158.88277664461194 M362.01614818853415 175.14654262440885 C356.4240420105049 169.85672422127388, 348.3032230971826 161.49141272944507, 336.469739886398 150.86719369612825 M362.74676033799625 175.72560930962348 C355.3409993320293 169.11628671173395, 348.4156795241478 161.70086616246604, 337.78757560143856 150.91499441921903 M370.9462194254055 175.19800176995477 C363.76444968795386 167.55088005564056, 354.3076351814305 160.848607089263, 337.5067683659741 141.58364994033602 M371.82297323508107 175.38114861960196 C363.6852810256191 168.2800091738501, 356.8097068218346 162.32073757950928, 337.16574352870373 141.5737300618681 M380.5217580389858 175.80520203488555 C365.959379118441 161.94028217639118, 354.3671293999935 149.34003585111688, 337.2923648081967 132.4242310929911 M379.777142141077 176.05119407887247 C369.497972857751 166.1460150220962, 359.8424626018858 156.27251248431725, 337.6353562344113 133.763365896778 M387.86559117771253 176.1574256457635 C371.24480693079744 159.5063156205343, 354.2328108558818 141.1856500261942, 338.0329501115033 124.7321256306559 M387.76133004426526 176.16825301165363 C374.94728667073394 162.97747158982372, 363.310613805413 150.69859455904404, 337.11292983184245 125.23320612316729 M396.4403897400234 174.8416110791513 C380.44491385002925 158.99071252795434, 362.64876829600655 142.62052727628455, 337.24978892433137 117.07317827989297 M396.8139280579273 175.90975461716442 C382.4088973600572 161.07135867581593, 367.3345604999907 145.81647002455836, 337.11380855927854 115.96497681525486 M404.4236683743556 175.4673530616113 C381.69091110838116 153.5384579358864, 361.1786512292161 131.54552841522658, 337.7539896451184 108.4608900172648 M405.87215542034403 176.18554996962334 C381.8392390618517 151.85927807440507, 358.0269021073748 127.51468721081713, 337.16466478000075 108.36032592225942 M414.68278547914684 175.49190256970607 C388.0329642031781 148.72285266122302, 359.2456852451236 121.78045185220108, 338.42150442230195 99.1814180693339 M413.38455949479703 176.42541201824926 C394.07183063227876 156.60971941352474, 374.1134620863653 137.3798215983929, 337.6159989822903 99.0283232683997 M423.1499432028346 176.64516682999817 C393.24565119189214 146.19693149688294, 364.7602425081608 118.33756398708647, 336.96812915431946 91.6185759126628 M422.5235157695674 175.966535587261 C401.70986975023993 155.2779566917277, 380.74210194076426 134.86259226073867, 337.6546397794285 90.97296055289453 M431.19718744385625 176.15470931904994 C404.6916992639986 150.2157332579907, 376.65355430967605 122.01384523688044, 342.47425095791425 86.42858074211975 M430.7977278579363 175.44103737587713 C409.4784426109821 155.31764975501417, 388.89179434688054 134.74632677491687, 341.86599137800243 87.93039881826839 M438.8114078506495 174.77074976342408 C408.2863428483726 144.77837814871344, 377.8500290785816 115.341027305787, 350.0461396691508 86.45134497189424 M438.86472749818523 175.7634559583166 C421.43556504063196 158.1280670919023, 402.58417278324356 138.79469253184826, 350.53282507892027 88.042759951367 M447.3693378216517 175.1911641396829 C419.15587157567336 147.35224644749076, 393.5740158726968 121.55798739940617, 359.83358853053386 87.37811692261599 M447.34337455359514 175.91825178379798 C428.0273369424229 155.37886458384816, 408.65793838996666 135.9957278998688, 359.4904199645304 87.08826737047634 M455.2125545053004 175.686484674389 C433.1326579219965 151.86094288479939, 410.35747485451446 129.5113554346116, 368.6617684405009 86.6333350708475 M456.02635701244753 175.54730717654013 C432.1993499343187 151.695422186871, 407.0399014768247 127.00681277680893, 367.3959171481143 87.92560027481518 M459.5656245505406 170.06804559461256 C429.6618134342832 142.97422689778128, 403.2950256407121 113.09383641828177, 376.47069404748936 87.86409414315129 M458.6358367385311 170.68057208626945 C433.28327950257517 145.43611911768392, 408.3491489961337 119.84951909544203, 376.2052858679529 87.54585973860229 M459.05323973055613 162.6551187516621 C438.5726424923217 142.3362138998964, 419.8441735549656 123.30118420776425, 384.2902237499369 87.36514511608979 M458.5780850948735 162.06569971195074 C440.5662093067588 144.18868586489995, 422.6416835728768 125.38127755979755, 384.38582348732774 88.06006871105633 M459.9899355685307 153.41463224684645 C436.09284711176167 128.19989004643688, 411.7288869497854 105.35608879521195, 392.2150596962809 86.9038952162256 M458.4707015695019 152.87026512754906 C444.3720001600436 138.7402294152386, 428.57973663056043 123.35334701692759, 393.32865549452 87.28667201639614 M459.5266642129018 145.557743306728 C444.91978583053054 130.96500984736946, 430.7168603752714 116.35207820276399, 402.17974778495886 87.34540792012118 M458.9266866506978 144.8408381572831 C445.2335392590187 130.5316195774935, 430.6636857565921 116.72486891644412, 401.76123550281085 87.33903635384044 M458.45422156210674 137.1932654078694 C442.3977873364998 119.95404134476009, 424.82733179423235 102.45996724742369, 411.1336776644083 87.07740295433901 M459.39536895174217 136.51891050037165 C441.1734610906076 118.31508560564596, 421.95785749428774 99.765545818721, 409.7598452504816 87.612950297608 M459.17824726458326 126.9526682768331 C451.1091834593601 119.76353868086579, 442.18112815119264 109.33824268628166, 418.6160827330667 87.63525629544164 M458.57490521091654 128.2283957310335 C443.4381840986699 111.61111848345816, 427.60991411094307 96.89789378095618, 419.1620946008134 87.37412429691756 M458.8942247187687 119.61507789018145 C451.48620291047814 111.01738372800328, 445.05363360337833 105.92737933751421, 427.13104013937163 87.32700016999149 M459.624780291502 119.86312929848722 C452.2362687060402 112.3996265096538, 446.14503255812144 106.34421888060247, 426.7794215420877 87.14569067598785 M459.5624810731007 110.13227647447715 C452.9328799960918 105.18064684610366, 446.6840766613265 98.55107926535133, 435.32247078176056 86.85832305455111 M458.5783071817799 111.07436852695176 C451.8720690744354 103.91824748160946, 444.11104272565456 96.8364158931512, 435.6095921875856 87.69570363403759 M458.68318722601674 101.25370250628254 C452.2190452579125 96.96103918129573, 448.6344156004042 91.08261884957783, 443.14913930867095 87.75756967568303 M459.1551269950314 102.65829261564573 C455.88805795789233 99.18437137189936, 452.3863891548498 96.50362782844697, 444.44920077558834 87.82463924528564 M459.15078138582095 94.28610904466458 C457.24370749329637 92.26583561967983, 455.3252009803143 89.86444451607201, 452.49533615061137 87.92811111179641 M458.9268394004336 94.10253241164708 C457.69910048385674 92.2936652321641, 456.0362844335 91.15365975180889, 452.87626814848795 87.27658061384685 M458.6713562373095 175.82864376269052 C458.6713562373095 175.82864376269052, 458.6713562373095 175.82864376269052, 458.6713562373095 175.82864376269052 M458.6713562373095 175.82864376269052 C458.6713562373095 175.82864376269052, 458.6713562373095 175.82864376269052, 458.6713562373095 175.82864376269052 M458.48070130281377 167.2790193471214 C456.5992042597605 169.63063083765658, 453.9554774610066 171.21384120269474, 450.40636203005374 176.3504811937339 M458.6275856646918 167.69405156186727 C456.66895794380315 169.17644489134244, 454.22479312627354 171.50516296967533, 450.05214814297324 175.9319379284955 M458.2076873447769 159.49696957370386 C452.8589373818989 165.31600117023788, 447.30850683369175 169.0861235671999, 440.55979894226994 176.48088664747547 M458.6288704209053 158.82523736594365 C455.07219650785225 162.23181104160895, 451.82370112981323 166.0797347872627, 441.8496661552658 175.26112517192735 M459.8377372171752 151.14907874149557 C451.1452862810779 159.43634915336258, 441.8675502058785 166.43232444059822, 434.043095119873 176.0878915999062 M458.61325592324357 150.21253936906632 C450.3850881964616 159.38068328171067, 441.25166993046525 167.5715804524311, 433.1487996565345 176.35158078744777 M458.6579810287826 141.85282746617216 C452.06395205285156 148.27156155980518, 443.8908023049967 155.9853260079774, 425.1259358226227 175.3086698982842 M458.2516716532432 141.69296080273108 C449.5125345801875 150.97636992625905, 441.2991640537198 159.26523083206024, 425.3123271549957 176.20467487647903 M457.8474959280365 132.8412479742959 C444.3373607629678 147.75372681733566, 431.1236527540465 161.46675313985565, 416.6709919489564 175.7301600191719 M458.21805559918516 132.92713399115652 C443.6736501014002 147.6063752703812, 430.1911899548585 161.83604820836575, 416.0786397639306 175.89783663823968 M459.1252028133743 125.34502874242949 C439.5105647015138 144.10041578529902, 421.1247964543194 163.4930340843733, 408.6557781473114 176.76195668913198 M458.17267387435066 125.02061313356148 C446.7344050751973 137.04092719670635, 435.9378551927825 147.80387322017344, 408.2849567216202 176.0409171469487 M458.3248663332337 116.61751449713528 C441.866963639252 133.14933598730752, 425.17529810084517 150.11671144087546, 398.5476528161256 176.46131088472671 M458.3746207170212 115.91137430416464 C442.75509475327175 131.82556535261682, 428.14886095005744 147.2585895839927, 399.479825391346 175.76368935182458 M457.7700948860519 107.95970621497588 C435.73994018324186 131.60344264891646, 412.85984242903055 153.2019383065701, 391.2788181038361 174.7581298325188 M458.8943184904777 107.75731545218484 C440.64769638847383 126.4039556096027, 421.7843813365423 143.8894163143052, 390.73562126138916 175.3033480770863 M459.4493406202667 98.34526112251379 C442.5969043891862 116.26049451059163, 426.487747519297 130.31706539720443, 382.8213199088807 176.67997700907063 M458.8260176830016 99.92375640184082 C439.25963056086 119.4039750699838, 419.3738243286863 139.33599311703793, 382.26104794503107 176.1920100219525 M458.1908994343155 90.04549269631137 C438.4518504138943 110.73110122987363, 416.5778095871446 130.98040031162816, 374.96204787969674 176.37707214094468 M459.1002969078743 91.5709388523512 C424.47751416443504 124.99620437307414, 390.82826941002355 159.0381880419754, 373.81363718055275 175.44421376064187 M453.88816350832985 87.20411813123712 C427.04038749823195 113.04207859704415, 401.19075219790415 140.50614451565806, 366.0777354147218 174.74729120470354 M453.1468154350709 87.99127384624073 C429.2718818187928 110.69394235414364, 406.2059442668415 135.315356857694, 365.1122488312356 175.34441974237333 M446.3883298031206 87.74854984148028 C424.13377291604786 108.71817725704797, 403.8544925116846 129.87488876797855, 356.30995966239334 175.46116642690964 M445.820521690246 87.08313327035489 C419.3948881457737 113.54179131259197, 394.38236255210404 138.58249283247014, 356.24957088536087 175.23451029136544 M436.4247593730577 88.45753614767081 C400.80877384583476 122.32483290316068, 366.9968979938536 158.71346847499046, 347.94014152114886 176.18688628412553 M436.37151256761337 87.3809905429799 C405.3062593380116 118.72691860036736, 373.1128220758378 151.02494170085902, 348.1046194562097 175.30128960683712 M427.53512311657886 86.64301552637109 C407.28405175420676 109.00702826327594, 385.62095576956085 130.59504070605175, 340.96454563942586 176.6152955029137 M428.8006791804544 87.89977486333439 C404.25516065670683 111.34283713530569, 380.5350790055657 135.7413754743741, 340.35523878206345 175.56398376300706 M420.37193568212143 87.03958270414358 C399.0805948509498 108.83944222776017, 376.1392806718813 131.1151577282398, 336.7261346651542 171.2280408103442 M420.2077407670503 87.18683730563706 C390.601288244709 117.41941822505837, 360.7151734783721 146.14907146643188, 337.5474554756957 170.4048864596015 M410.67755546812305 88.22948865755087 C395.942850962633 103.05075916895237, 381.2704439534097 116.54088048786797, 336.14743362202523 161.8647065577258 M410.8037446906824 87.10945081910675 C388.1886209050936 111.02072435401215, 364.4719127278414 134.23101373091032, 336.56584290064154 161.69899464558554 M401.65918462302113 88.26764061315542 C380.2604167747456 111.54275092085784, 355.4223839576579 133.96813916091918, 336.5908112837302 152.46253334636722 M403.1235664396318 87.04231022796219 C386.50250444344334 103.38575835859768, 370.5234920366545 119.08710562714194, 336.731302545436 152.91622714492414 M394.76386904525316 87.90660204751974 C380.57804083191263 101.28858781523124, 368.12404584759884 114.59840746079988, 337.4619072987067 144.65299090283085 M394.0384096271799 87.65503223142213 C379.2794170239211 102.2091938125388, 364.23570434491137 116.87645595291333, 337.04199114836035 145.28049753183592 M385.2534983832568 86.62159268720633 C376.4371382062565 98.19508102818486, 364.5276536178733 108.34018764110418, 337.75620506539224 136.61520520367924 M385.9683059916079 87.4996554037053 C368.43516955591485 104.1054647542131, 351.41520483818374 121.0164044704183, 337.3573935726958 135.9856412555397 M376.9798060354693 88.23548850877768 C366.444588379025 98.48511830577384, 358.11363906397537 106.55531513364083, 336.4340317322242 128.7009584754749 M377.694615396197 87.99814019403047 C361.6274693527409 103.05014192975976, 346.2546135935607 117.84135916202345, 337.61082280672366 127.9829156402542 M368.35936915032835 87.34382173879627 C358.6843358800298 96.94473329123308, 351.08653925640897 106.72173104095246, 337.5955581976401 119.45968919478034 M368.37252582922844 87.62986892661634 C357.0415944438328 99.00459111387099, 346.5277581061697 110.81788633672691, 337.02191996372517 119.36849988519822 M359.9486086262713 86.93978085382467 C351.7818694977465 97.52672069790506, 343.4224359622137 104.65413709781777, 336.4557991100776 111.26349208815806 M360.34355340398355 86.91914580068178 C355.4960046541591 92.762775176143, 350.0119900013463 97.87480706375806, 336.90915428198156 110.7709950645905 M352.4187891117358 87.23921058042532 C346.02343585070724 92.12063971747033, 343.01100495662314 98.25116333921552, 336.519612867974 101.53211813217051 M352.34804235874356 87.42269689044541 C347.3120010219247 91.8825028800013, 342.57365725071907 96.51863317311856, 337.5023231247741 101.93892412764974 M343.9160815494679 87.01968821572697 C340.95394641881813 89.54342302621437, 338.8753763741344 92.18090689307216, 337.4574601591679 93.51342997879915 M343.46907227270157 87.29488942821136 C341.029695867181 90.05973354337037, 338.6100965592059 92.3904653872799, 337.09671782144557 94.04004578414568" stroke="#ffffff" stroke-width="0.5" fill="none" stroke-linecap="round" stroke-linejoin="round"></path><path d="M337.3287161372602 87.95666168704629 C362.51738334354013 88.3685026558861, 386.43002744801345 87.29649917211383, 458.74768641218543 87.27080260291696 M458.14320264831184 87.43503666147589 C458.46945831732154 110.11081165745854, 457.6221137996137 130.10153034850956, 458.30710171237587 176.6067580960691 M459.1440450929105 175.10067988410592 C430.18312755022197 176.11839208609015, 402.5774124916643 175.07313344484717, 337.9686573050916 176.15677407756448 M337.01442650333047 175.28174226507545 C336.95910857693553 145.49806502833962, 337.0155840970695 115.59024457260966, 337.2765044309199 87.6453849337995" stroke="#1d4ed8" stroke-width="1.25" fill="none" stroke-linecap="round" stroke-linejoin="round"></path></g><g><path d="M337.3287161372602 115.95666168704629 C362.51738334354013 116.3685026558861, 386.43002744801345 115.29649917211383, 458.74768641218543 115.27080260291696" stroke="#1d4ed8" stroke-width="1.25" fill="none" stroke-linecap="round" stroke-linejoin="round"></path></g><text x="398" y="102" text-anchor="middle" dominant-baseline="central" font-family="&quot;Courier New&quot;, ui-monospace, monospace" font-size="13" fill="#1d4ed8">Order</text><text x="347.5" y="126" text-anchor="start" dominant-baseline="central" font-family="&quot;Courier New&quot;, ui-monospace, monospace" font-size="13" fill="#1d4ed8">PK id: uuid</text><text x="347.5" y="146" text-anchor="start" dominant-baseline="central" font-family="&quot;Courier New&quot;, ui-monospace, monospace" font-size="13" fill="#1d4ed8">FK user_id: uuid</text><text x="347.5" y="166" text-anchor="start" dominant-baseline="central" font-family="&quot;Courier New&quot;, ui-monospace, monospace" font-size="13" fill="#1d4ed8">total: numeric</text></g><g><g><path d="M669.9001076812496 165.9001076812496 C669.9001076812496 165.9001076812496, 669.9001076812496 165.9001076812496, 669.9001076812496 165.9001076812496 M669.9001076812496 165.9001076812496 C669.9001076812496 165.9001076812496, 669.9001076812496 165.9001076812496, 669.9001076812496 165.9001076812496 M679.0471366060799 165.5961222993037 C676.0936039815347 163.47582667184955, 673.4527714734216 161.67106931231876, 670.5392520418962 157.55225907930478 M678.6207825232199 166.25818856170534 C675.7989602453346 163.44174589510817, 673.1537467153958 160.7037179125212, 669.6561074963039 157.76189879012597 M687.7305253458373 166.35676325770223 C681.7157804772611 160.73697099925215, 678.4413626924824 156.74474852029763, 670.3275186567208 150.0847419001209 M687.2755868307479 166.01970137475186 C680.17222074072 159.52099159752007, 674.149919802402 153.55421528259603, 669.8114620216763 149.11491166633093 M695.8517655466179 166.52527926178777 C690.1853221170644 160.1122674945757, 684.2952625716241 155.05546908137566, 670.2600751547715 140.43417793072476 M695.4476837708111 165.8938792896097 C687.4540796611849 157.95602681799423, 678.4116843616342 148.7784804063639, 669.5368287273324 140.2058790153609 M703.8042317148055 165.4024679801067 C695.1849603077271 156.16662730892713, 686.7938510976375 149.5073304090562, 669.4156178741356 133.15150298415568 M704.219362429319 165.37718825457745 C693.3350121669149 154.60329103416063, 683.0216508612383 144.46438364264944, 670.40408061823 131.63662316645383 M712.7248989480566 165.11326837750278 C701.9193470062144 153.8484348992635, 690.6162538027817 142.23334678559067, 670.2940125374696 122.45501540025754 M712.5079751011934 166.38225644348316 C697.2419562409409 150.47722292305502, 682.158690857143 135.6669691163866, 669.9084996767914 122.96371760593784 M721.8980079690276 165.64160379381983 C710.0236201499681 154.79953925549995, 699.7791325112239 146.1920473376192, 670.2048904924294 115.15949789387409 M720.2416162688567 165.95784484265505 C706.0506260072083 151.9239355603478, 693.08678553377 137.9967888387214, 669.7248600729382 114.41111863264118 M729.3175651253746 166.0678819439014 C717.275021577861 153.18475713167075, 702.4601971707609 140.50887317810006, 670.2301487116715 106.71371755484891 M729.5778726022304 166.17009725092106 C706.5564974647945 143.84122697535474, 684.5449921746947 121.55889399846838, 670.3261781640923 106.55141535789174 M738.2498423897536 167.00649491759145 C716.6086153907664 146.73397853136393, 697.0166757708005 124.92103444915588, 670.9864497928521 96.837925848026 M738.3225729587361 165.38379027960949 C715.1681899185867 142.82645653198574, 693.626134685653 120.48602043538556, 669.8024624951756 98.18707970551792 M745.7958773598211 167.04331917973363 C724.7316738195184 143.40526520164354, 700.5707200830768 120.81162868875087, 677.3658965516794 97.33953320630091 M745.9485383832964 165.7435833525484 C726.4901689112021 146.38233661643238, 706.9923307525158 126.7772045539184, 678.2576383916619 97.40989100489962 M754.2539732582336 165.1732155701717 C733.8674200580557 144.15148635912558, 711.8972686987559 124.32039676072829, 686.0711150239442 96.32319203265214 M754.2143321083327 165.65526870606595 C729.6824070322715 141.2572967121103, 704.185739212049 115.98923395961779, 685.6008809616079 96.85476899299974 M762.0821989326466 166.83752930374948 C746.2076471731244 149.23236022355613, 726.9274647546232 129.70656320487328, 694.1909579011162 96.2415001357367 M763.5830095537667 166.06702138899027 C739.1387329253313 141.97514555957844, 714.6615513202137 116.92095188046713, 694.1785685312484 96.99422724995965 M772.8608888557172 164.76158997031055 C756.5210130469711 151.57925535401637, 740.5878692548715 134.74455595221386, 703.7061502808518 97.47564648039841 M771.4408683270208 165.35064926264934 C756.7838026325296 152.1754108041423, 743.3075199615306 137.37615467914475, 703.5361783955059 97.16276894960755 M779.0551431251013 166.59221153469883 C755.5634419084959 139.9077522417325, 729.7262343668722 116.15193968244671, 710.5446828858071 97.66580440648103 M780.5161982230165 165.58284300087146 C756.8864797112835 142.33508475466834, 733.8910878422984 119.31908568839849, 711.5299300368019 96.93103007827156 M787.7773274634549 166.135192336758 C762.3273607238452 138.23954839650128, 734.7000127337753 111.2505938323727, 719.5443120636382 97.74863162882824 M788.6980312241757 166.2264260899847 C767.5537089116824 144.0534498769192, 745.5043001299127 122.11029966629737, 720.3455351250583 97.58702943477977 M796.6424664372482 165.48570831014527 C782.4715459545536 150.3892590570671, 768.5312370351993 134.7785461088203, 729.4150597870018 97.19477023728395 M796.747784719234 164.90449804763063 C771.4890691477195 140.56581513119414, 747.7381857765232 115.83622748629716, 728.7169475176971 97.01741863046044 M797.0738892072716 157.40895873283898 C784.311061628963 144.52750255277348, 771.6522760066852 132.60887579833167, 738.1017136535538 97.64634669669175 M796.0611572537475 156.22483017327193 C781.2522577993456 140.52403474383436, 765.140825416499 125.48827850415715, 736.7451132596401 97.18873208914155 M796.0789329642333 147.7908696627347 C783.5739311555732 135.98013815723635, 770.4140220361336 123.90046740392371, 744.5463268859504 98.15447184689546 M795.9000819656901 148.47431898378863 C784.2536820837545 135.41113179343733, 771.332176019098 123.09769742553915, 745.3167205833091 97.82863704715126 M795.3840259307899 140.24817693967645 C780.2383578333573 122.75131168352888, 764.7008784873746 106.5988230535267, 754.0507183318481 96.41674090273881 M796.5840595874839 139.47281921550905 C784.5814767066145 128.45820801724162, 773.1271562843228 116.94854185701581, 753.7229499086261 97.90718355331772 M797.3753619545973 130.74410077850783 C786.3837823421937 121.65476114779088, 774.3611801795345 109.74673115252803, 763.238972463903 98.41473345406555 M796.0870830390505 131.8325684172612 C783.886647643969 118.3514445773009, 771.4534671889202 106.91735983634423, 762.6782238430129 97.71805446896904 M797.2614005083121 122.0258457690725 C788.9455189782308 114.86182640067874, 779.2995989275493 105.37004532037218, 770.2199393797714 98.05151346571947 M796.6563874278121 123.03943695037309 C789.6844511324047 115.63817986631365, 782.2381149995981 108.66441166134433, 770.7389571813915 96.75981546793335 M795.6353666895905 115.26210087621445 C789.4915680118442 107.46462708244587, 784.900694248274 103.68760069379192, 778.7497348021094 96.38912927754426 M796.4312000486904 114.13417798867309 C793.4735362042111 110.88965683254918, 789.3511702704806 107.42103367711992, 779.7223069061835 97.01716503653878 M795.8515393381097 105.48673617602351 C793.3579733092612 103.02643726510243, 790.443980603844 99.04975673829712, 787.2713201029053 97.77596812509204 M796.225782835921 105.79461902325068 C794.4419773225095 103.22840088183334, 791.7192812906839 101.11698013429805, 787.7097293681478 97.26961064662987 M795.6625176280138 166.33748237198648 C795.6625176280138 166.33748237198648, 795.6625176280138 166.33748237198648, 795.6625176280138 166.33748237198648 M795.6625176280138 166.33748237198648 C795.6625176280138 166.33748237198648, 795.6625176280138 166.33748237198648, 795.6625176280138 166.33748237198648 M795.4998245300498 158.25366918092269 C793.3403252870445 160.0134956096562, 791.920368535928 162.46126901879262, 787.1515747467498 166.03087675078277 M795.591940559275 158.06651591488767 C793.1806894894609 160.3077597734509, 789.8550573887474 163.49618001732244, 787.013438742503 165.98781575488363 M796.2321026328351 149.40468735826047 C788.7312368722382 156.1516573944583, 783.4263594628475 161.67265704963768, 778.6829835017019 165.28010291425946 M795.2301014286797 149.0045615736473 C790.3354082659849 154.66356138579357, 785.3885050433535 160.1927797672691, 778.4501564978428 166.88779963726614 M795.7858802917746 141.32078064594435 C789.1598612907252 149.1117120618012, 779.437184410743 156.18309785749366, 771.3573914227552 167.04207594959496 M795.8530911964697 140.85836118280906 C785.3880924599785 150.7650245958216, 776.1062664028524 160.95823380495565, 770.1718567050539 166.89571778649895 M795.5670142892149 132.75468971426793 C782.4941615161722 145.2687056112191, 769.1291242521676 159.56328064835623, 760.6099003112158 165.51584669916394 M795.2987889034074 132.04709140262761 C788.2120400840258 139.4386773929735, 782.2076813499822 146.34217867843918, 761.6447011307097 166.38620448584172 M796.8120890978125 124.47549415307479 C784.1132029140139 135.20940390112375, 771.7779898443866 147.72197578880508, 752.6774852647397 167.32635412780996 M795.8753671569151 123.97068509443092 C782.0047542348804 137.4502284362346, 768.5814431783238 151.2597578498773, 752.836042069732 166.2218879091224 M796.2424548152234 115.97375792720892 C779.5322654551412 132.25195558443713, 761.7862885767224 149.308854513332, 744.7443870059835 167.357521575377 M795.9329907519143 115.43395793204732 C781.1977162406064 130.8855450072498, 766.1045078643189 144.8919889525375, 744.723974004543 166.00152904266926 M795.0267271641042 107.89902937651382 C776.8043053128191 125.82697971728524, 760.3867921911583 142.99347030934416, 735.1046118826034 166.78975675670858 M795.2825666708271 107.12785840180473 C783.3955161398179 119.94287384285568, 770.5121357725125 132.14707339732544, 735.7160836050647 166.74127168531027 M794.5432874921111 98.4973412158335 C778.4628250538427 116.64094866783107, 761.8756004290336 133.53844837045986, 727.3244318672553 165.93745176164862 M795.2144940835756 98.3107178025315 C772.1787583367209 122.10902394137176, 749.5539676703734 145.28340881929768, 728.2681997287184 165.75589244837371 M788.6717149600345 97.91977834687705 C768.1216316141168 117.5418032072339, 745.9338723904707 141.34312730362174, 718.8048845575956 165.48648305504088 M788.4463465357157 97.1605680574211 C768.965486299949 116.80184848582941, 748.9810994970021 136.82642093101867, 719.3031434204263 166.54005075568767 M779.3542764150233 97.66098798499573 C753.4896992539891 125.6155792923097, 724.1971717661492 151.78570363531315, 709.7442731762809 166.5317114767289 M780.140611821662 96.45740184080918 C765.3757998727567 111.05344744232134, 752.1705321385427 125.1919336556919, 710.4294779126104 166.44953884358017 M770.9878636421068 97.16724240766038 C756.1533963287836 112.76649373216675, 741.1324813457178 125.90852974031812, 701.300666570967 167.0144822415566 M771.5528792362093 97.43498532665093 C744.2630418134577 123.6408694215277, 717.7806786465907 151.3925503107152, 701.9602586251925 166.58253176087942 M764.2149204889415 97.44551182971466 C736.7838010331384 122.90291757134504, 713.2224201535325 147.62718583345819, 694.9543992143103 166.56012493936774 M762.8790166992798 97.63368106377442 C742.9373129991131 117.5980933385456, 721.9594508680617 138.5650638413317, 693.5317831655943 166.66083736891358 M754.3001564281833 97.28675084100236 C731.7423334564567 120.50927232592325, 707.1904132709643 145.0828384388448, 685.8705712039672 165.31545353500601 M754.0881343182948 97.56748441350777 C733.1970939436205 117.89476716328579, 712.6377889546301 138.98728757967493, 685.3223413287379 166.51114634151068 M746.0930465574885 96.90339840636724 C728.5364923035718 115.90926841577745, 710.6358873596449 132.72602001955536, 676.6615482625938 166.38626636831523 M746.1413343881766 97.40527354967917 C723.2884130605993 120.73183420596399, 699.8556082283347 144.2069029275414, 676.270965097045 165.74628216499895 M736.5903315995137 97.96687786565293 C709.9722010577052 123.16306520084572, 683.5685250613411 152.23188077698285, 669.0565685190329 166.76773937295246 M738.0104613913471 96.65205945861656 C720.9919609123865 113.09836829604852, 705.1818279533167 130.2653800125951, 669.6032854216242 165.73934435701983 M729.8985179019146 97.64509693370331 C706.3380017243678 119.51180251005098, 685.5618737661654 142.5753051554482, 668.9210967578063 156.52507182689615 M729.096851997728 96.83023593914825 C716.903726271613 109.35045440849485, 703.6920113182337 122.37985439376502, 669.5071364717627 157.64810421703615 M719.7963774373477 98.2399477003621 C705.2922003750052 112.31999522087716, 689.6650612120345 126.94873636596441, 668.006120983518 148.44418978804188 M721.0500850647411 97.56082960260231 C703.03860346969 114.90760761969172, 685.8810179464788 132.1305008554579, 669.5381021993303 148.70945826192784 M711.8974478034696 96.42480663047303 C699.4426729706254 109.36229399361909, 685.7444352697776 122.48710315900553, 668.3380694188246 141.04182909623364 M711.7867316373085 96.84474987280686 C700.222889799877 108.77618186220856, 688.1147906198993 121.32465284165512, 668.6656833367491 140.49326122802324 M703.8125322229359 97.68203456387985 C691.4517997034369 109.00429697440563, 680.1398328269731 119.09729698532979, 670.2031359113821 132.38120996631497 M703.309104947852 96.74403898609002 C690.7584315481807 109.39126604130497, 678.7849489992274 122.74825088289154, 669.5138728039408 132.16175066415036 M695.3121995434033 95.94047671542634 C688.574154563363 103.98039703974358, 683.2694166642361 109.36887193075273, 669.1097799338469 122.5095369881297 M695.7240104162934 96.4631219912799 C687.2328870119936 104.6006326887713, 680.6328362235727 111.8360076692394, 669.3799057083273 123.75079693163731 M687.6892842375279 97.61296267495621 C683.9632854642452 100.77914212089094, 679.1505698826018 105.34529073933871, 668.3512265838752 114.69549912652164 M686.6614956500546 96.83005674970467 C682.720112322743 101.47214026295151, 679.379636332673 105.24907875073264, 668.6530093448306 115.25115320431232 M677.5278783447943 96.64633040025029 C676.0794985245661 100.15600802029988, 673.7201420988517 102.26113077101125, 668.8808196081476 105.9950924087628 M678.4198174715038 96.99991579337177 C676.0391182528457 99.50379212921717, 673.1989510183486 101.77686179997069, 669.0531909057846 106.27000064442262" stroke="#ffffff" stroke-width="0.5" fill="none" stroke-linecap="round" stroke-linejoin="round"></path><path d="M669.1430742058903 97.33499253056944 C694.6261424491182 97.50985835227519, 719.3951760396361 97.10185312661677, 796.9715296182782 98.70620390437543 M796.0648039724678 98.95255499221385 C795.0702605847418 116.48510397523643, 796.1992438081801 134.79006850086154, 796.3106525685638 166.31013714410363 M796.3660676393658 165.25101982615888 C763.7621567307041 166.02139984342904, 733.1910495482385 165.65351188156455, 670.1029859576374 166.8351611163467 M671.0716397549957 165.52261339761316 C670.7171931653619 151.3508428297937, 669.6019064455628 138.192857433483, 669.0647566463798 96.86807740069926" stroke="#1d4ed8" stroke-width="1.25" fill="none" stroke-linecap="round" stroke-linejoin="round"></path></g><g><path d="M669.1430742058903 125.33499253056944 C694.6261424491182 125.50985835227519, 719.3951760396361 125.10185312661677, 796.9715296182782 126.70620390437543" stroke="#1d4ed8" stroke-width="1.25" fill="none" stroke-linecap="round" stroke-linejoin="round"></path></g><text x="733" y="112" text-anchor="middle" dominant-baseline="central" font-family="&quot;Courier New&quot;, ui-monospace, monospace" font-size="13" fill="#1d4ed8">LineItem</text><text x="680" y="136" text-anchor="start" dominant-baseline="central" font-family="&quot;Courier New&quot;, ui-monospace, monospace" font-size="13" fill="#1d4ed8">PK id: uuid</text><text x="680" y="156" text-anchor="start" dominant-baseline="central" font-family="&quot;Courier New&quot;, ui-monospace, monospace" font-size="13" fill="#1d4ed8">FK order_id: uuid</text></g></g></svg>