<svg xmlns="http://www.w3.org/2000/svg" viewBox="0 0 480 300" width="480" height="300" role="img"><g transform="translate(40, 24)"><g><g><path d="M120 122 C133.30231402926148 120.80050648041069, 133.248315904662 65.89036727336547, 146.8003776293248 65.06187847045561" stroke="#1d4ed8" stroke-width="1.25" fill="none" stroke-linecap="round" stroke-linejoin="round"></path></g><g><path d="M147.40035927108283 73.49487636296914 C148.42365851949688 72.07136803547117, 147.98133510401448 70.20271915829501, 147.58010609919205 64.49484743292754 M147.70804417109116 64.75351607515788 C145.03451677426358 66.59709429749557, 143.38796669146575 68.54831194801534, 140.89253004922645 70.00345420587546" stroke="#1d4ed8" stroke-width="1.25" fill="none" stroke-linecap="round" stroke-linejoin="round"></path></g></g><g><g><path d="M120 122 C133.30231402926148 120.80050648041069, 133.248315904662 180.22370060669877, 146.8003776293248 179.39521180378892" stroke="#1d4ed8" stroke-width="1.25" fill="none" stroke-linecap="round" stroke-linejoin="round"></path></g><g><path d="M140.38657276841926 173.2639319525313 C142.81950722469585 174.7635243395411, 143.78016182736795 175.8081893359834, 147.58010609919205 178.82818076626086 M147.70804417109116 179.0868494084912 C147.47152567769888 175.85721048559472, 148.276036171441 172.71874840463425, 147.90631655189003 169.7725097954376" stroke="#1d4ed8" stroke-width="1.25" fill="none" stroke-linecap="round" stroke-linejoin="round"></path></g><text x="134" y="150.58333333333331" text-anchor="middle" dominant-baseline="central" font-family="&quot;Courier New&quot;, ui-monospace, monospace" font-size="13" fill="#1d4ed8">maybe</text></g><g><g><path d="M268 64.83333333333334 C281.3023140292615 63.63383981374404, 281.24831590466204 65.89036727336547, 294.80037762932477 65.06187847045561" stroke="#1d4ed8" stroke-width="1.25" fill="none" stroke-linecap="round" stroke-linejoin="round"></path></g><g><path d="M287.35150810506303 68.40002914248927 C289.98715968198024 68.00688173047513, 291.1548597898877 67.1573626277046, 295.58010609919205 64.49484743292754 M295.70804417109116 64.75351607515788 C292.6636635761112 63.285446919806844, 290.65539643939985 61.92744667082121, 287.8574653858702 60.53402368258415" stroke="#1d4ed8" stroke-width="1.25" fill="none" stroke-linecap="round" stroke-linejoin="round"></path></g></g><g><g><path d="M268 179.16666666666666 C281.3023140292615 177.96717314707735, 281.24831590466204 180.22370060669877, 294.80037762932477 179.39521180378892" stroke="#1d4ed8" stroke-width="1.25" fill="none" stroke-linecap="round" stroke-linejoin="round"></path></g><g><path d="M287.35150810506303 182.7333624758226 C289.98715968198024 182.34021506380842, 291.1548597898877 181.49069596103791, 295.58010609919205 178.82818076626086 M295.70804417109116 179.0868494084912 C292.6636635761112 177.61878025314016, 290.65539643939985 176.26078000415453, 287.8574653858702 174.86735701591746" stroke="#1d4ed8" stroke-width="1.25" fill="none" stroke-linecap="round" stroke-linejoin="round"></path></g><text x="282" y="179.16666666666666" text-anchor="middle" dominant-baseline="central" font-family="&quot;Courier New&quot;, ui-monospace, monospace" font-size="13" fill="#1d4ed8">yes</text></g><g><g><path d="M4.53608719057619 131.22841479724093 C4.53608719057619 131.22841479724093, 4.53608719057619 131.22841479724093, 4.53608719057619 131.22841479724093 M4.53608719057619 131.22841479724093 C4.53608719057619 131.22841479724093, 4.53608719057619 131.22841479724093, 4.53608719057619 131.22841479724093 M22.108308657894487 140.73738547856007 C16.3915056142858 133.57707564019015, 9.736146819981531 126.80947254981194, 0.13515831555075977 119.3713743183071 M22.59198674418276 139.9622886998022 C15.652366897900784 134.02855307369134, 9.532562116053398 127.17388514172416, 0.6760441113898906 118.86962526899373 M32.596554636756714 142.4645037687535 C26.275933801430586 135.3274406482133, 20.216116773365382 130.68131392490426, 2.8687942307799146 113.2037175973577 M32.99768704323733 143.5268969942967 C23.460558272511157 132.34371726148055, 12.609938461196203 122.92658413830266, 3.9811155556126523 113.26638859842694 M42.431746187156996 145.48996152086585 C35.667672587450916 138.73169829522712, 30.123281649966913 129.91123402114187, 9.203791611824553 110.66672150604212 M43.83652084870543 144.56764912540493 C34.123107142330085 135.4190057143085, 25.884708733026155 127.4854101399922, 8.438171214979509 109.80454539898568 M52.9855530785631 146.44087284030235 C43.587669570943746 135.2350536708723, 32.79037406177201 125.5070041915544, 13.46205979077936 106.29008346239257 M53.02501266638297 145.59463649345406 C43.33134682305681 136.45380824122918, 34.18295153075927 126.67785761436362, 14.464170470413276 107.17470007112402 M61.20886642425629 144.1821669262818 C49.83947096820651 133.72115652945016, 38.31593529928264 121.22305051464767, 20.764336224739054 104.03592275944128 M61.251291158379345 144.86650778008467 C50.06355948758448 134.14739505098194, 37.649288552371914 121.80039567023944, 20.19853364033679 104.17937107779606 M67.95140546251781 144.31119485302298 C55.64362868684786 130.4872007049599, 41.954802078053625 116.49163288236714, 26.05690005817143 102.10049412759352 M69.1759459243039 144.50382572943744 C58.70548268424315 134.3974884824819, 48.44198174609684 123.49163042143748, 26.01110554304598 101.95345450682896 M75.48132433781548 143.2523363509311 C67.88517389335993 134.9845104804631, 55.70774300295816 123.50559426615538, 34.00275177935774 101.78036739106805 M76.4328842824526 143.60242392933952 C63.20317742537192 130.66560712953958, 50.3939748825455 118.40582259504065, 33.674585153150204 100.84915372736336 M84.08349853843053 142.63028624422503 C70.43729008334756 128.69543167985591, 55.541285912372224 113.99140608267972, 41.39411322039268 100.45992746789707 M83.9088677074348 143.0254432489316 C70.66495650955866 129.45736429332945, 56.71347493708807 115.59183904400564, 41.05827560157231 98.84222938985332 M91.27202489645764 142.25755445093685 C80.61415529271787 128.73781890190762, 66.69566715709 118.86876249559646, 49.28624790074405 97.52019471348589 M92.03726183017328 141.40958183866763 C74.16482984594553 124.61767735594198, 57.86833453210638 107.86929923866273, 47.943154519108205 98.65956976962602 M98.41693515017812 140.5361795452854 C82.61575387203746 125.37026107297199, 69.06918773676124 111.29535033034254, 56.981533902506555 98.8978977958667 M97.5060000002775 139.18555869268835 C85.19170680411257 126.39368165776922, 71.52842347593378 113.58465833315717, 56.287196911680724 98.55701364213553 M105.1566959440597 137.0452287576759 C94.94987402553092 128.61280408178877, 83.93050234869948 118.1778632187467, 65.27039099514798 97.30140082044477 M104.75133328604332 138.18436364882083 C93.86831490194365 127.1912824536163, 83.3034495785476 115.68666124938758, 64.74755228508577 97.75402740770902 M110.08938848519713 134.20697763114063 C98.58465111948468 123.88447082476124, 87.62090272500114 113.35926167302212, 73.5224602919496 99.07688298643892 M109.5302601308936 134.92218704501923 C99.45018869934809 123.83412967285307, 88.48206373328611 113.22543362515276, 73.25297430143276 98.71863474798714 M114.50652888687164 132.39573036489827 C104.7327459450579 120.90466319916041, 94.24634666099185 110.22802584460636, 82.4991042500061 99.1958385868813 M114.93559669693768 130.72799006292416 C108.11176290046619 125.09217683115305, 101.23080000139738 117.493887708234, 83.09757077914448 98.97366662592395 M118.99135460617795 125.1111062519811 C110.97455750086557 119.51760035302632, 104.6002405710485 110.74216354730135, 95.40854735734491 102.48521769573685 M118.07551330259844 125.73554116548969 C113.36336901444567 121.0445215565757, 107.48753818801684 115.46702879767847, 94.67719438007651 103.34565197290627 M121.41675026615184 119.80674385293746 C116.52564263440513 116.23918812367612, 113.81049127996934 113.86937683042807, 108.91542481808565 108.39528624468453 M120.56551824902218 119.90604498713637 C117.16014692556656 116.28144493166327, 112.68839057672407 112.61951351682652, 108.96727799935839 108.68019946136481 M115.53014515451694 131.08649434062104 C115.53014515451694 131.08649434062104, 115.53014515451694 131.08649434062104, 115.53014515451694 131.08649434062104 M115.53014515451694 131.08649434062104 C115.53014515451694 131.08649434062104, 115.53014515451694 131.08649434062104, 115.53014515451694 131.08649434062104 M119.3643876829798 118.82959721103859 C112.2904998127401 125.35202766213433, 105.95318284402374 131.01948588909042, 98.34488571746228 139.14792138877533 M119.02525817115406 119.10893187072676 C112.5464447520777 125.18296991841736, 105.75074282221077 131.97373458098085, 98.0432159903827 139.2485255308377 M116.42324599325266 113.78651820310186 C105.69707221590635 123.24570067929635, 98.79736473878037 131.77266245177142, 86.89222249541551 143.15145302448636 M115.97252111900207 114.0461132528333 C108.26530920515786 121.99918876537576, 100.22443645301036 130.10868687229012, 86.08733314596236 142.73766557142355 M111.12853946875009 109.27384118814369 C103.44728706842965 119.55465797058079, 94.71563821845083 127.42063509051808, 78.17876711405731 143.22249679021195 M110.95602044820015 109.6082002213632 C102.09331424105301 117.97713389632996, 94.58144972621398 127.29026841925614, 77.87801917280919 143.4186248022656 M105.51897431656683 106.73743027156935 C93.79722550700582 117.45260588799059, 83.92692874290236 128.2680158341619, 68.28635856192275 145.245034009917 M106.18744210217112 107.54590917664365 C94.96208445335556 117.08931348158681, 84.67636858881487 127.87115103878497, 68.1202881082864 144.85816652975075 M99.4409052123572 104.24675109022449 C88.96382244139005 115.6114248079515, 79.14267731673431 125.38592896428447, 59.12409107729307 145.50704075782033 M100.17850330539747 103.64430023794215 C90.96138649775014 114.19755196865508, 81.37494467349441 123.3402992013886, 58.370042052003356 145.2065409980196 M93.91819461321589 102.12501149951443 C77.4307976746424 118.1618921571579, 60.06002270756672 134.78548294302018, 50.71949380463608 145.00930820195407 M93.19206187630203 101.77166793058589 C82.39140593646302 112.64545926686377, 71.35757631857503 124.56423504029986, 50.806500822255984 144.9250557325262 M85.99313988242417 100.3082344486579 C68.06875974768401 117.8358077973894, 52.32800384017547 136.11379724829393, 42.616817232233004 145.06715616653702 M85.96429335199416 101.05736406121548 C71.6132365632983 116.44584741082402, 54.95988925826938 131.98436364972133, 42.11173839365365 144.8065391024112 M78.73897328944985 99.73275798068711 C66.35876211661585 113.34252000400974, 52.82104204952154 126.58060227660941, 36.19663997336513 141.99082635078796 M79.79844098826979 99.69804771778503 C63.76153986137301 114.97237462160781, 48.17077510060551 130.22323812581402, 35.67153967830574 143.67448353931522 M71.1510416663876 97.44405557600737 C57.10266686508333 111.35375035514575, 44.8008153618408 124.091553663503, 29.581261985127117 141.18008911011208 M71.53724541605172 99.08525561312169 C58.90659709086524 111.30037552921857, 47.363037333037234 123.4567958713056, 28.96204374463507 141.69640231856542 M63.78773353270523 97.15580902765086 C51.33589306098569 111.41814794443701, 38.67666853738666 122.31512481026017, 21.368524911986793 138.39042311254167 M63.685121766135914 97.58322496017954 C55.2584751554637 106.65013284146109, 46.05837524617323 115.8968122070809, 22.36481416093757 139.06875921561593 M55.154551970497465 97.86583556602292 C44.833266786393004 107.94018555520191, 34.87510821807366 117.09785794035476, 15.415884961038858 138.348942463482 M55.07348254444519 97.76357059678577 C41.59385807978208 111.40505636846096, 27.911496391778606 124.65179841611408, 15.232161870636075 137.85164563079383 M46.63793496804551 97.92226751534224 C33.29531834071877 111.94542925082094, 22.3197958270835 123.33593799339909, 10.881340026751094 135.31346958096526 M46.675807975588896 98.49021464208097 C35.75621484197412 108.39597452269354, 26.002975468467636 118.61860219041999, 10.60932231702649 135.14660346455327 M36.917755419817205 100.01105229364106 C24.89997317195383 112.19404366655067, 11.831733899335134 124.84020251772161, 4.607502566218221 131.68846232039678 M37.50139600286299 99.32563649651922 C25.199106381761048 111.4334517652453, 13.30418018922756 123.49310621781908, 4.099778318531657 132.1313022422214 M26.04428722053413 101.67898631869775 C17.7715786367637 109.99678185162749, 7.810555323114565 119.73986903093825, 1.7767402862811195 126.76987328743563 M25.95357838231717 101.87265674780083 C18.51390388677918 109.40288755197484, 10.248066729952798 117.02224996591181, 0.8016507558205831 127.0231484268792 M10.246763100258947 109.39480675545492 C6.5459018073658655 112.76033555010169, 3.3989048663118537 115.8521508543454, 0.1382467658182238 119.70240708571475 M9.877698892567247 109.01643726943963 C7.083201046960224 112.41586443473247, 4.410190485735471 114.83610799575887, 0.33268746561534757 119.38942699267145" stroke="#ffffff" stroke-width="0.5" fill="none" stroke-linecap="round" stroke-linejoin="round"></path><path d="M0 122 C0.2431877184659299 140.98956668269813, 50.57833084352315 151.83036170357943, 88.8000539470464 141.78868756755827 M90 142.78460969082653 C107.52596561943587 138.02126581802128, 120.23540130145848 129.63059685998618, 120.69790275581181 121.66392579190433 M120 122 C119.22160132415593 103.84230971666992, 70.52734305150808 92.95422534814001, 29.726057427003994 101.73344921827675 M30.000000000000014 101.21539030917347 C10.739486250677764 106.40595643610598, -0.9899723242968294 112.8715597098225, 0.10367079265415668 122.29283220879734 M0 122 C0 122, 0 122, 0 122" stroke="#1d4ed8" stroke-width="1.25" fill="none" stroke-linecap="round" stroke-linejoin="round"></path></g><text x="60" y="122" text-anchor="middle" dominant-baseline="central" font-family="&quot;Courier New&quot;, ui-monospace, monospace" font-size="13" fill="#1d4ed8">Start</text></g><g><g><path d="M147.67016579148677 88.50349912482011 C147.67016579148677 88.50349912482011, 147.67016579148677 88.50349912482011, 147.67016579148677 88.50349912482011 M147.67016579148677 88.50349912482011 C147.67016579148677 88.50349912482011, 147.67016579148677 88.50349912482011, 147.67016579148677 88.50349912482011 M156.35661219945322 89.0208422035228 C153.1637459498093 84.9706201856705, 150.18613466955279 81.59039233780227, 147.37626203191783 79.86983959877733 M155.9523761442132 88.86221971179056 C153.17300221729175 85.60643219239459, 150.7581556807674 82.64970935410481, 147.62749900152292 80.36959940599148 M165.61396515070433 87.60793617578852 C159.6320350378253 84.34361360378875, 157.11771899807434 79.75076110125396, 146.75510644180085 72.70306768790861 M164.71067280731137 87.98322825382161 C159.98867186415816 84.43717861880164, 155.97380457194615 80.45932774218562, 147.81106868510452 71.4565141987153 M172.25655240930413 87.72028017851221 C166.66444623127487 82.43046177537722, 158.54362731795257 74.06515028354843, 146.710144107168 63.44093125023162 M172.98716455876624 88.29934686372685 C165.58140355279926 81.69002426583731, 158.65608374491774 74.27460371656937, 148.02797982220855 63.48873197332239 M181.1866236461755 87.77173932405817 C174.00485390872387 80.12461760974394, 164.54803940220043 73.42234464336637, 147.74717258674409 54.1573874944394 M182.06337745585105 87.95488617370533 C173.92568524638904 80.85374672795346, 167.05011104260458 74.89447513361267, 147.40614774947372 54.14746761597148 M190.7621622597558 88.3789395889889 C176.199783339211 74.51401973049451, 164.6075336207635 61.91377340522022, 147.5327690289667 44.99796864709444 M190.017546361847 88.62493163297582 C179.738377078521 78.71975257619955, 170.0828668226558 68.84625003842058, 147.87576045518128 46.33710345088131 M198.1059953984826 88.73116319986688 C182.67057292020345 73.25956527941482, 166.83738433709695 56.11770717688386, 151.808888238206 40.84139709069199 M198.0017342650353 88.74199056575704 C186.07758732286692 76.44345146845664, 175.3303465251472 65.05400650527828, 150.88886795854518 41.34247758320338 M206.68079396079338 87.41534863325462 C194.05889500798708 74.94894715988305, 179.61913450075 61.93514695499884, 159.51100842527265 41.66773111416763 M207.05433227869727 88.48349217126773 C195.61664731141965 76.64832008764701, 183.53597402397088 64.38709500900715, 159.37502806021985 40.559529649529516 M214.66407259512562 88.04109061571467 C198.78859443741592 72.96832604526398, 185.09659459882815 57.79565656518146, 168.50049052029829 41.54072422577805 M216.11255964111407 88.7592875237267 C199.27967178844028 71.65069918615501, 182.7110626936636 54.549836182267306, 167.9111656551806 41.440160130772654 M224.9231896999169 88.06564012380946 C208.39903666433705 71.43466408907003, 189.8048376438868 54.68534321765237, 177.65328667172037 40.74653365208573 M223.62496371556705 88.99914957235265 C211.7788724653828 76.60237869698844, 199.22728780975106 64.77926477213825, 176.84778123170875 40.59343885115154 M233.3903474236046 89.2189043841015 C216.19024149063281 71.49962612106513, 200.36352196335798 56.29894776772525, 184.68519277797645 41.66897286965316 M232.76391999033737 88.54027314136434 C221.17724632900382 76.99625144469344, 209.35771464652885 65.7291231407051, 185.37170340308552 41.02335750988489 M241.43759166462632 88.72844687315335 C227.42712107299175 75.26270934479118, 211.89924946538073 59.571094670392455, 193.72684848750401 40.014511605042884 M241.03813207870635 88.01477492998053 C229.40893233977363 77.47537261418022, 218.49280469186286 66.57457025027364, 193.1185889075922 41.516329681191515 M249.0518120714195 87.3444873175274 C232.77518732884715 71.5432479730917, 216.62416243389893 56.39118600500811, 201.29873719874058 40.03727583481735 M249.1051317189552 88.33719351241992 C240.06479084079567 79.22502530756854, 229.69502849719998 68.37328066130715, 201.78542260851 41.6286908142901 M257.6097420424217 87.76490169378626 C242.27039864972932 72.81396271187909, 229.49914136697257 59.83030208401429, 211.08618606012365 40.9640477855391 M257.58377877436516 88.49198933790134 C247.4188225392077 77.22487000015187, 237.24477983585987 67.03708916528095, 210.7430174941202 40.674198233399466 M265.4529587260704 88.26022222849238 C254.0784609797004 75.1513701498137, 241.98553370857263 63.484038495980236, 219.91436597009067 40.21926593377059 M266.26676123321755 88.1210447306435 C253.8394405188007 75.72967499679393, 240.04637376044445 62.407447285869615, 218.64851467770404 41.51153113773829 M268.39181520893754 81.2275695863428 C253.10847035923433 68.7262503089188, 241.3039634662915 53.40814073004762, 227.72329157707915 41.450025006074384 M267.4620273969281 81.84009607799969 C255.11189165927064 69.5884624203544, 243.2484036082101 57.07250485349343, 227.45788339754267 41.13179060152538 M267.8794303889531 73.81464274339235 C258.84149599179557 64.79352125215974, 251.454977263625 57.100441769213134, 235.54282127952666 40.95107597901292 M267.40427575327044 73.22522370368101 C259.78361553691246 65.61270027530149, 252.21272648114362 57.15892864831223, 235.63842101691753 41.64599957397945 M268.8161262269277 64.5741562385767 C260.4013585868417 54.891972597792005, 251.4898263294278 47.50059925112952, 243.46765722587065 40.489826079148735 M267.29689222789887 64.02978911927931 C262.85833831101803 59.469238418882796, 256.73411364824943 53.75039488728638, 244.58125302410974 40.872602879319274 M268.35285487129863 56.7172672984583 C264.63623275723324 53.06733383457888, 261.4178955627475 49.43899045074684, 253.43234531454863 40.9313387830443 M267.75287730909463 56.00036214901336 C264.622414122702 52.27336127598988, 260.63888279975924 49.05293279442435, 253.0138330324006 40.924967216763584 M267.6092607254866 47.878973428620064 C265.66576850801215 45.39970200999274, 263.04046274993743 42.808767902136985, 261.90672049668564 40.918539849694724 M268.0327770508226 47.575513720246065 C265.7023699667902 45.23479603578801, 262.9367482364742 42.76890301969973, 261.28849591041865 41.15953615416577 M268.2192278773582 88.61410545597519 C268.2192278773582 88.61410545597519, 268.2192278773582 88.61410545597519, 268.2192278773582 88.61410545597519 M268.2192278773582 88.61410545597519 C268.2192278773582 88.61410545597519, 268.2192278773582 88.61410545597519, 268.2192278773582 88.61410545597519 M268.1244859477377 80.28113937036974 C266.05276078761636 81.39465196331429, 264.6017812019659 84.60291052540522, 259.67317691789765 88.4854572045311 M268.56281929137765 80.42997021535321 C266.34218242793156 81.52421742246112, 264.83859884075173 83.48398390911608, 259.4622057595273 88.37667150812891 M268.729581015656 70.89988148042082 C263.69206862807914 75.63974954046934, 258.97398090552286 78.70471417037429, 250.85353175499475 87.93101458812801 M267.7454071243352 71.84197353289542 C263.01122531399847 77.16918405223183, 257.2234077400095 82.58434137078868, 251.14065316081977 88.76839516761449 M267.850287168572 62.02130751222625 C257.2785109759242 73.30645728093272, 249.59501216311014 83.00373973937667, 241.70963753342798 88.83026120925989 M268.32222693758666 63.42589762158945 C262.8809521585511 68.17043445551174, 257.20990909098276 73.73331311725734, 243.0096990003454 88.8973307788625 M268.4384577685094 55.51905571810394 C258.2619252922216 65.21346078630592, 248.15932379243938 74.05808079499928, 233.8495895948202 89.47343254352654 M267.9408089120931 55.111107644731696 C261.06204868467034 61.38141555508149, 253.1136776358693 69.17732898516918, 234.69610514565713 88.02558699252751 M267.3989512139059 45.81287707461641 C253.08997373880558 62.90023325318935, 236.2497070217868 78.28458146740049, 226.18684008760894 88.30918581749046 M267.7309504111356 45.74612655154095 C254.36745954078444 60.41911237704286, 239.07031203115633 75.30446999256696, 226.23162208503626 88.78098363282824 M265.07304252845256 40.42360593307236 C252.94039848609347 53.19683859498405, 239.6162985640995 64.75341112745164, 217.6746849102316 89.48383450771418 M265.3178497982493 41.11532629098215 C253.255517369001 52.3262479928622, 240.43908131318122 64.95027281668737, 217.08432843176402 88.78626239898351 M256.44185048584086 41.16973289478041 C240.82263148895495 57.2802549831879, 224.96458495127172 71.357993369626, 207.6812637111258 89.26634834076013 M256.86303356196925 40.498000687020195 C247.06676713359258 50.1581567125229, 237.55349282405518 60.27085938967505, 208.9711309241217 88.04658686521198 M249.58661898400067 41.30712343681075 C233.69898630066268 56.83085657687623, 217.2177921534041 71.03028993617094, 201.16455988872897 88.87335329319086 M248.36213769006906 40.3705840643815 C232.34487572519387 57.41741289731131, 215.3817107642637 73.43805676296563, 200.27026442539048 89.13704248073246 M239.92158142136947 40.49615353572583 C230.3076281018262 49.97666015306619, 219.08656043361773 60.73834252159203, 192.2474005914786 88.09413159156884 M239.51527204583005 40.336286872284774 C227.07799958367826 53.33010501822839, 215.16222827324998 65.32136670799017, 192.43379192385163 88.99013656976368 M230.62581494638476 39.9698554180882 C215.2439500175416 56.754511352131274, 200.1466097792396 72.35116990403192, 183.79245671781226 88.51562171245659 M230.99637461753343 40.0557414349488 C214.51788861733434 56.66532066343093, 199.10681046337177 72.82361160883637, 183.20010453278644 88.68329833152437 M223.41824045748402 40.958917560460314 C204.8415714420077 58.667684793391615, 187.4972751450566 77.01883114222262, 175.77724291616735 89.54741838241661 M222.4657115184604 40.63450195159231 C211.67153981341062 52.004894487479895, 201.5227639135208 62.12006652842196, 175.4064214904761 88.82637884023333 M214.13262260310475 40.71668468940473 C200.78026773239222 54.1469569809034, 187.1971030485867 68.00583157987006, 165.66911758498145 89.24677257801142 M214.18237698689228 40.01054449643409 C201.48146817984633 53.01693778954102, 189.77404013187297 65.551156265676, 166.60129016020193 88.54915104510928 M205.09256978168446 40.54415778148389 C189.5913084526251 57.63786476676862, 173.26346561182496 72.68410551101117, 158.40028287269206 87.54359152580345 M206.21679338611025 40.34176701869285 C193.29965348119705 53.682089524424356, 179.75249372661477 65.85139493177759, 157.85708603024514 88.08880977037096 M198.2865341416607 39.414994063260316 C187.38445743111848 51.481108586311926, 177.1770975376017 59.635882496552355, 149.94278467773663 89.46543870235529 M197.66321120439565 40.99348934258735 C185.41122146339612 53.10043698423675, 172.84900504827223 65.708865214241, 149.38251271388697 88.97747171523716 M188.54281158147091 39.600507011296514 C179.50214121790995 49.66314298112558, 168.2426513715287 59.297891082511725, 149.15458046041817 82.09146602236387 M189.4522090550297 41.12595316733635 C172.3404344333992 57.075878243162514, 156.1771917786313 73.63185981242012, 148.00616976127415 81.15860764206109 M180.7045417495526 40.294666352154955 C170.37332567218317 49.510213409200915, 161.09006119754235 60.40790850212785, 148.75554936968177 71.97640371188416 M179.9631936762936 41.08182206715857 C171.19041955175035 48.869015871871014, 163.16365325365965 58.45125912156083, 147.7900627861956 72.57353224955394 M173.20470804434325 40.83909806239819 C166.10581220185017 46.52503861781669, 161.08008483047632 52.428197095757895, 147.47305499159185 64.2049975598517 M172.6368999314686 40.17368149127281 C164.87266965458667 47.94939757027969, 158.63611137789627 54.21413177317859, 147.41266621455935 63.97834142430753 M163.24113761428038 41.54808436858868 C156.5771497861458 46.46605640002224, 151.69421253746518 53.925753368551554, 147.58851822458595 56.445436042829016 M163.18789080883602 40.47153876389777 C158.41281078802209 45.63073910744154, 152.46773559659172 51.6804001371898, 147.7529961596468 55.559839365540604 M154.71682212265608 40.132204041289434 C153.76847522945076 42.08170179163755, 152.1406287535485 43.672006496604745, 148.55463939637335 47.995238017267 M155.34960015459384 40.76058370977108 C153.1187448548592 42.32582798528527, 151.36284724205464 44.420953942053465, 148.24998596769214 47.469582147313666" stroke="#ffffff" stroke-width="0.5" fill="none" stroke-linecap="round" stroke-linejoin="round"></path><path d="M147.8287161372602 40.789995020379635 C172.81737435236573 41.200408740093316, 196.53000946566462 40.12840525632104, 268.24768641218543 40.1041359362503 M267.64320264831184 40.26836999480924 C267.9172891290009 53.235993642856684, 267.06994461129307 63.518560985972485, 267.80710171237587 89.44009142940244 M268.6440450929105 87.93401321743926 C239.91813216283919 88.95303052418431, 212.54742171689867 87.90777188294133, 148.46865730509163 88.99010741089782 M147.51442650333047 88.1150755984088 C147.4235489768803 71.80305874471864, 147.48002449701428 55.36689867203435, 147.77650443091989 40.47871826713285" stroke="#1d4ed8" stroke-width="1.25" fill="none" stroke-linecap="round" stroke-linejoin="round"></path></g><text x="208" y="64.83333333333334" text-anchor="middle" dominant-baseline="central" font-family="&quot;Courier New&quot;, ui-monospace, monospace" font-size="13" fill="#1d4ed8">Clean</text></g><g><g><path d="M147.75833312075915 178.9249997874258 C147.75833312075915 178.9249997874258, 147.75833312075915 178.9249997874258, 147.75833312075915 178.9249997874258 M147.75833312075915 178.9249997874258 C147.75833312075915 178.9249997874258, 147.75833312075915 178.9249997874258, 147.75833312075915 178.9249997874258 M162.50707066586594 184.30320077013437 C159.7996657600328 182.35959644496808, 157.37890262759566 180.70523553206485, 154.70817648203078 176.92965948513535 M162.1162460899109 184.91009484400254 C159.529575668516 182.32835573295515, 157.1047965994054 179.81849674891708, 153.89862731523777 177.1218292200548 M176.90245928433168 190.69536386286316 C171.07005695311133 185.26011902871744, 167.9794540194017 181.45171140083207, 160.2065593764016 175.1304492864684 M176.44752076924223 190.3583019799128 C169.61105587654708 184.12704607373726, 163.85467486936057 178.42618968994475, 159.69050274135708 174.16061905267844 M190.68055373460453 196.52073411644113 C185.30455440750188 190.39733752147302, 179.70619894271843 185.63224318892986, 166.5030769051312 171.84384634775117 M190.27647195879769 195.88933414426307 C182.75237780993447 188.41534636666157, 174.17627936598555 179.70409681063305, 165.77983047769203 171.6155474323873 M204.28987415228463 201.05477708425244 C196.21374393278165 192.36131121352383, 188.3670067101885 186.24638630114947, 172.0225806551743 170.92513243186104 M204.70500486679796 201.02949735872318 C194.48706561185796 190.9252402261222, 184.84042292628556 181.4530514547153, 173.01104339926874 169.4102526141592 M212.50343460434925 200.05847070046195 C203.95530993920772 191.07912060955525, 194.92605968972072 181.73787544982807, 178.55782956800056 165.88549909745527 M212.28651075748604 201.32745876644233 C199.99798391472345 188.4013275616244, 187.91043551077854 176.5867907348089, 178.17231670732244 166.3942013031356 M219.5552232817605 198.46548577321929 C211.0631773464423 191.00437488945354, 204.21493482418117 185.79312808805577, 184.8326685536394 164.9539426217507 M217.89883158158958 198.7817268220545 C208.43840402620452 189.45454132621404, 200.18141816464808 180.23424921646958, 184.35263813414815 164.2055633605178 M224.85346009454773 196.77044357974128 C218.2498699587633 189.30059917335373, 208.85060484548944 182.0402745136092, 190.51478102237385 162.16501653221798 M225.11376757140354 196.87265888676095 C211.34534970346212 183.84814900957548, 198.57898191703472 170.81095353636138, 190.61081047479462 162.0027143352608 M230.95731023418065 194.88062942868515 C219.51209760572547 184.7198171319585, 210.06499229745725 173.0517073614481, 197.63504313423337 158.65318585607397 M231.03004080316333 193.25792479070319 C219.0040948562516 181.95432006963466, 208.65824231352767 170.81008666324416, 196.45105583655686 160.0023397135659 M236.38202486068857 192.7961333472677 C226.3519868717864 180.21403042305488, 213.30285085321034 168.73221162802764, 201.893169549501 157.0334728707893 M236.5346858841638 191.49639752008247 C226.67215991029352 181.81011793886594, 216.78724432630892 171.81790845105365, 202.7849113894836 157.103830669388 M242.01169363435469 188.09760261295955 C232.27198547209483 177.6739149072688, 220.92716224206427 168.46815343814066, 208.47706767820625 153.89581135358083 M241.97205248445385 188.5796557488538 C230.19444515819757 176.82170878402079, 217.3844821556081 164.24035084916127, 208.00683361586985 154.42738831392842 M247.71859896520834 187.64059600297765 C242.79849791521158 181.05790592263958, 234.44552724667932 172.45932065392574, 222.25376480487068 159.47097370615776 M249.21940958632837 186.87008808821844 C239.86238422755096 177.80264865898494, 230.39118288893624 167.75443524637652, 222.24137543500296 160.22370082038069 M255.66886176353268 182.73622954479256 C250.77033997346277 180.88853751858167, 246.16388278502748 175.38052472044333, 237.42581143409862 166.36197430031186 M254.2488412348362 183.32528883713135 C250.30445311373592 180.74642415654927, 247.5303814576697 176.64937904648446, 237.25583954875276 166.049096769521 M260.0878824157319 182.23789960958646 C257.641262335901 177.66713479638562, 253.60144395918218 175.08429290730336, 250.24361575418092 172.1024701257889 M261.11062098427254 181.53134163590732 C257.37184557630104 178.04592553027646, 254.0930802404324 174.75273515630855, 250.9332887598773 171.58812809604225 M267.1218712227155 179.6673692669386 C266.51195317469023 178.6743713007669, 265.55871445328034 177.81689159324827, 265.0540022354476 177.5764684834538 M267.25997678682364 179.68105432992263 C266.6669845430593 178.93233301068017, 265.9380814958952 178.2193687491882, 265.17418569466065 177.55222815434652 M268.1310605480859 179.03560611858094 C268.1310605480859 179.03560611858094, 268.1310605480859 179.03560611858094, 268.1310605480859 179.03560611858094 M268.1310605480859 179.03560611858094 C268.1310605480859 179.03560611858094, 268.1310605480859 179.03560611858094, 268.1310605480859 179.03560611858094 M262.0980167489034 177.2999673388792 C260.1768292795077 178.3955914067022, 258.21738163178486 179.97003391412045, 254.55347889212513 184.8770386028688 M261.54101417446515 176.64869663111736 C259.92643427103536 178.78546466924456, 257.68733086743265 181.27684839873683, 253.80734867547258 184.6253505687162 M255.71695671850622 173.65429016142394 C251.89831524883456 178.363958081695, 247.27316062904163 182.83126033790148, 238.83258291836424 191.19303655830666 M255.53810571996303 174.33773948247787 C252.33209838141815 177.52263534337203, 247.78911670067296 181.4532788626487, 239.6029766157229 190.86720175856246 M248.65808865438385 172.47555846904456 C240.67000767890858 180.83149844799232, 232.2725107024286 190.49279223080774, 225.70955736629236 195.11215986364238 M249.85812231107784 171.70020074487715 C242.92238362134185 178.89191328640365, 236.51069498462968 185.61330050481135, 225.38178894307035 196.6026025142213 M244.99257042869903 168.62833655736827 C234.51968999320025 180.01549432465043, 222.93280283724252 188.5860696443655, 212.27039450037776 202.7670066644615 M243.70429151315219 169.71680419612164 C232.0245605558457 180.5519801430944, 220.10872784927838 193.43323958077139, 211.70964587948768 202.070327679365 M238.51464795173484 166.27404257861193 C227.34512826444416 178.88404032764703, 214.87282940715133 189.17691089361904, 202.98790544895553 201.69667989492885 M237.90963487123477 167.28763375991252 C228.4899443197856 176.715848903721, 218.64101224955394 186.56025226072634, 203.5069232505756 200.40498189714273 M230.52465310233413 165.87425871643273 C218.6853518090527 175.4151130426689, 208.31392924882016 188.9797330440025, 196.66845846637608 197.91297536319402 M231.32048646143406 164.74633582889138 C224.88360440922017 171.9282087450672, 217.2955153065659 178.85675509640922, 197.64103057045014 198.54101112218854 M224.6701833843397 161.5495515294879 C213.30762624585847 174.83508350793414, 201.30763221318782 185.55539290162773, 190.57082811910922 196.78153256528725 M225.29392254735845 162.06268960819983 C217.12804130196741 170.5720154057303, 207.3417049412074 179.7993613833421, 191.30151022784673 195.93760343451697 M218.18728158303472 158.8382922949943 C208.74981468958464 169.26412529897596, 201.28826113308287 178.54635432392257, 184.41894781743798 193.60908215342548 M219.19519123655678 160.04517745903908 C212.38188741997558 166.46311037641192, 205.26618625088753 174.01656493676586, 184.8690400178141 194.0096865078294 M213.4126832334485 157.7844095404225 C204.8041004383099 165.66776301789633, 197.46702748213139 174.71786373744155, 178.99283694020528 191.25251881126582 M213.56620994882397 157.47248743036414 C202.98090747463974 167.82843175790555, 190.83049960124723 179.750153203228, 178.76261026646065 191.18075048476726 M207.8894623708642 155.03174329298943 C194.37099168388767 167.8094118576451, 183.01928674656435 179.37723904075696, 173.3697804912538 187.87772159746552 M206.88746116670882 154.63161750837625 C196.85108353477594 165.43225897861035, 186.76182253376308 176.10383513846725, 173.13695348739483 189.4854183204722 M193.3011044060726 161.08997220440426 C186.4654941226145 169.08772522583254, 176.5348439022906 176.36708436186692, 168.1655087558668 187.51837428924142 M193.36831531076768 160.62755274126897 C182.6292290744628 170.8081979996925, 173.07418964150546 181.27462058465795, 166.9799740381654 187.3720161261454 M178.94010277978197 166.66601689645873 C172.31340195883632 172.75643040162626, 165.40412708985076 180.59524304374412, 160.24644476907352 183.16371791406416 M178.6718773939745 165.95841858481842 C174.87070689272156 170.09248924929523, 172.15215876960107 173.71017992383784, 161.28124558856734 184.03407570074194 M165.69817052370902 172.35963136331225 C162.3165870515067 174.4065851943743, 159.17667864770064 177.6706447708183, 154.60293771378156 182.55624347240354 M165.04246516508084 172.00626502226154 C161.62018312035704 175.08472816614196, 158.54060994322353 178.4346541932358, 154.71392747727612 181.78311711932224 M150.80932858983996 177.6761889362732 C150.32931718678432 178.1143297640648, 149.74340748788035 178.63133166801637, 149.336477071086 179.13761003892 M150.77838218350905 177.62220893675706 C150.38384435422336 178.0924159980668, 149.95076429612223 178.41681961306796, 149.33443577094195 179.00201078564922" stroke="#ffffff" stroke-width="0.5" fill="none" stroke-linecap="round" stroke-linejoin="round"></path><path d="M207.1430742058903 154.50165919723608 C219.39703953710196 159.57315103773274, 230.96518300135432 163.96546949435273, 268.97152961827817 179.87287057104209 M268.06480397246776 180.1192216588805 C251.29924089115858 185.93182212508717, 236.58488358174264 192.6183369266192, 208.31065256856382 203.4768038107703 M208.36606763936578 202.41768649282554 C192.3921989028692 197.01950582719843, 178.48654836950598 190.59145181111492, 148.10298595763743 180.00182778301337 M149.07163975499572 178.6892800642798 C161.12815568712352 173.51302122567097, 172.32410482917726 169.38327546138564, 207.06475664637983 154.03474406736592" stroke="#1d4ed8" stroke-width="1.25" fill="none" stroke-linecap="round" stroke-linejoin="round"></path></g><text x="208" y="179.16666666666666" text-anchor="middle" dominant-baseline="central" font-family="&quot;Courier New&quot;, ui-monospace, monospace" font-size="13" fill="#1d4ed8">Decision?</text></g><g><g><path d="M295.91637781607426 88.74971114940762 C295.91637781607426 88.74971114940762, 295.91637781607426 88.74971114940762, 295.91637781607426 88.74971114940762 M295.91637781607426 88.74971114940762 C295.91637781607426 88.74971114940762, 295.91637781607426 88.74971114940762, 295.91637781607426 88.74971114940762 M304.0839892577686 89.06439730681299 C301.1127339834744 85.77770114550565, 298.5516239726567 82.4113579994646, 296.0485702969364 80.68767347156061 M304.35551714728854 89.10715232334852 C302.2112465184393 86.7300545095502, 300.055665995086 84.21072138266601, 296.1910442361466 80.6071930859889 M313.63341378603224 88.15858525134442 C307.504395460566 84.98332330644399, 303.46987593075943 79.19173085106982, 295.28625911670247 72.91941102406174 M312.4268290992463 88.3091694074106 C307.61766911323167 83.45191203766242, 302.98204707850306 78.89032283412584, 295.59818360330974 72.2263040456751 M320.83330692899335 88.38327325679181 C312.4013574233724 80.43371124917047, 303.65088842127096 71.19425709005604, 295.1963344474367 62.880419522946326 M321.69453122791754 88.94140662722108 C312.0352720664212 79.55283623009063, 302.07580127520134 69.8131639560979, 296.0320058775178 63.57602096912787 M330.2081680284974 88.48619154788373 C320.1513949517924 80.06163191983883, 310.4259910381364 71.04531108647458, 294.8703914065889 55.19861338560049 M330.16167564784854 88.25248524717807 C321.955975029508 80.7569727538725, 314.99305172133 74.42665466458179, 295.9883417320482 54.578773628664656 M338.4739638814195 89.70059207774518 C328.82159216529794 78.83949173274273, 320.20765547688 70.60956183067128, 296.8415842910341 45.36505706514914 M338.78473208560183 88.39257616571902 C326.81349826967937 77.16932280289592, 315.98775913218753 65.90759910157655, 295.72756714346326 46.24332667272289 M347.07634878463443 88.00503929950119 C335.0800633955856 75.93874289164992, 322.175467680923 62.81680813813844, 298.7511820223935 41.29455463946352 M346.2678265177399 88.62669403128147 C331.79562611168456 74.60477095769556, 318.3620239133418 59.88676042843535, 298.71114146307184 40.4967156244863 M355.74066453501746 87.77341016627668 C337.4320272758565 72.17448314355723, 320.17428965648577 55.368666128892265, 308.0701410222881 40.54722268641481 M355.8877411708252 89.30969724230287 C340.9645241360006 75.01808467203779, 327.2676340708145 59.76009102446949, 307.1981802921825 40.13081975713858 M363.2219404294434 89.02489413119672 C350.3467725884177 75.35523267524019, 339.3257145980972 63.7728354019301, 315.1638238381009 40.29320890963564 M364.31891452142025 88.66128794722079 C349.27448974760074 74.26424461382416, 334.87100856772145 58.79625561572283, 315.78517410786554 40.692080719624855 M372.85489326478734 89.07399314738629 C358.4305567790955 74.4354055105288, 342.3782397748787 59.67284480437713, 324.98413476670646 41.10482776225099 M372.0584412960876 89.14101204447267 C357.7340846215539 73.71762372362653, 341.88626100319425 59.326741566829966, 323.9731238866832 40.1986381603826 M381.3039273379242 88.98052166797042 C368.17301649871905 74.81033141421692, 355.275195509181 63.16459277254876, 332.96266560498003 40.54970619738588 M380.65107247138974 88.22325918249608 C366.86158956339864 74.29139055645595, 352.4939619649631 61.02856971499366, 332.53568685519815 41.05847547784934 M388.91313444572904 87.99960664607406 C379.5792352085884 79.7559245373929, 369.725407705547 69.57461090077607, 340.16069564979665 39.6407836681653 M388.71421527388907 88.37226275972844 C376.0537269672634 75.2642282736765, 363.50465766743446 62.74580954185591, 340.74417648997303 40.84441982046256 M398.0562938850769 87.6316875348222 C384.12962349531995 74.65776407890509, 368.1682819855996 60.69434842291396, 349.2191916980312 39.68631212771425 M397.56293318014826 89.01709992460725 C387.49423411164236 79.03091140498765, 377.2788916515606 67.85160433957455, 349.59256251757 41.06914208665977 M406.68687245284264 88.4725162873399 C394.9129546716187 77.47492953951394, 385.76199978126823 67.89916795894746, 357.90880804655876 41.53985602915773 M406.0349459167296 89.32669157557008 C393.6907313136547 76.20477157633918, 382.64221689492 65.12878089455822, 357.82247091455184 40.36015692487845 M413.8880244459014 89.46315735675216 C400.50192931995593 72.60796422570736, 383.16437335368727 58.52159949402733, 367.07988649225416 40.050292325620774 M414.9156294601958 88.58480236105443 C398.1999474489573 71.93892476294685, 381.0385219598598 54.51917736871328, 366.34818390748086 40.83482273355615 M415.9515238492626 82.46891988431845 C403.80079186177346 71.08317126962595, 393.7112460360615 58.76642007205722, 374.2124563319926 40.11181047022829 M415.8919482252437 81.89397286763224 C407.0647107595723 73.26405963489708, 398.1069238991331 64.20133374285699, 375.48163997291965 40.07534166113028 M414.92675420929385 73.72834757265616 C405.4529102958355 61.736829609779726, 394.4071902194377 52.4779880238299, 383.7662343626491 41.51391241610536 M415.77644493792843 73.14950949323345 C406.77219762837984 64.00963075412528, 397.7906806811546 54.46234866445924, 383.3574338374308 41.10375960603842 M416.8001458852429 63.7326559372634 C409.12888538199667 55.92488884118837, 400.407392161154 47.84371344184837, 391.1306248810984 40.59141261637697 M415.56167788718534 64.44392169866863 C409.913191335728 58.554463662868834, 403.35080016003553 52.80283474952069, 391.55781647757664 40.756966216718055 M415.873603173985 56.50415943126518 C411.1512850027515 51.9134671028312, 407.45972750897505 47.40189723036214, 400.1747196842158 41.47443802416811 M416.473648049577 55.67034913237531 C411.73456680245636 50.93754139527694, 406.5258965878088 47.2550768633839, 401.13769511991984 40.86169489160666 M416.12662424509114 47.99900142418721 C414.6531503381982 45.300965944790896, 411.6475646672228 43.57176171874654, 409.32538043739896 40.802439060663104 M416.1677716347266 47.62464651668945 C413.8005457877634 45.23450822433594, 411.0831468451408 42.583173091108186, 408.8515480234723 40.4379864039321 M415.7583331207592 89.07500021257428 C415.7583331207592 89.07500021257428, 415.7583331207592 89.07500021257428, 415.7583331207592 89.07500021257428 M415.7583331207592 89.07500021257428 C415.7583331207592 89.07500021257428, 415.7583331207592 89.07500021257428, 415.7583331207592 89.07500021257428 M416.2888492615182 80.17434941560191 C413.86281989142134 82.16468300194147, 411.21791699496805 85.44414385127563, 407.87151257607655 89.53770370968608 M416.0855159487981 80.83201110556884 C414.0409338214555 82.02308456963877, 412.0108229219435 84.24556126810096, 407.08957025933586 88.9601323168817 M415.5790393973548 71.81711500994263 C411.2573978213002 77.8620092297479, 405.21533492588287 80.59782593986239, 399.1975036245093 88.90881847687984 M415.41069161471313 71.90129911489186 C411.57128244402685 75.72676570357746, 407.98387239543973 79.76885524130027, 399.17174643615937 88.78357963585282 M416.22045170318665 62.54524844779208 C405.3203309928719 72.47211631022421, 397.73567101633 81.68434357802585, 389.3949965556144 88.30731171914364 M415.3643312412161 63.55442866651848 C410.83404453358264 69.21342753571444, 404.5831272229891 74.0480160346625, 390.1951194894492 89.04145085834885 M414.99679290306153 55.62602623378608 C401.5134117510696 68.14515256960647, 388.09643385089595 81.44616748760234, 382.1601820526374 89.59365438767699 M415.8014951902289 55.41013008704159 C407.5507411335816 62.44397950954301, 399.6422241353703 71.24758127032752, 382.05321315431127 88.4979632856789 M415.3177797938544 47.09895032104957 C401.1685642156401 61.801276553227446, 386.8585935300797 75.59941023317262, 372.9199644124534 89.66516093560485 M415.3817781883139 46.365449274898644 C404.52718257257953 58.639034800934475, 392.10345030180054 70.23918728350553, 373.6095284073081 88.80875656628041 M413.494389547694 41.977262287453776 C396.56115351380254 55.62247521382978, 381.92960589395165 71.51896805462792, 364.38093543193736 89.61445831605224 M413.38400408728745 41.560703003273375 C397.79139127961764 55.68129400958608, 382.97517139211504 71.31269143309939, 365.0002224750022 88.8193140985909 M404.71728683670926 41.069516210869914 C392.5967534645219 54.17265576610044, 380.1139648374295 65.49482809070255, 355.27937440796427 89.17948598214413 M404.959652988966 41.52605179534949 C394.86837252966006 51.3451114489075, 385.4584761347223 60.75386457907474, 356.0591088339561 88.53996303104783 M397.0921052072674 41.344297294930584 C384.4347444621759 53.043059300097816, 373.1056606159328 64.60862157041316, 348.33124813740926 88.39349588700557 M396.4431426194042 41.27121855007208 C382.3265233112383 54.816171940967976, 367.633497837652 68.82415522400251, 348.3426572107322 89.52087426208878 M388.6473114562436 42.122357492760784 C376.5206572146044 51.351318676614795, 366.09517410232456 63.25803118952943, 338.9822109171471 89.23505248376156 M387.2346927051647 41.20262416587866 C371.8614001783086 56.2582084069392, 356.4465097815891 71.8240795623257, 339.9549935818931 89.22706244015123 M378.5410598805127 41.069761257485546 C366.8952346444108 53.12116850398725, 353.5338586160808 67.48118115951445, 330.55760454405294 90.07803272553708 M378.68217922281 40.641533291206756 C365.07391149737555 54.51198747320726, 352.2850596377245 67.59526491574405, 331.1729001740013 88.61338596367266 M370.21119227694976 40.64788554222978 C354.57575886758156 56.716715733128645, 339.12047072195344 74.18570398251653, 323.0124583150017 89.74162606545713 M370.10613439890255 40.59905432449377 C358.01904338625036 53.60778734544224, 346.13814381060774 65.4214792031893, 322.87081546361924 88.89954698109057 M362.52523794242984 40.163419800118575 C345.3217805984522 57.522711985668515, 327.7721034549782 75.62380895946481, 313.68148902686846 89.1403344566467 M362.0247467100049 40.55113941417731 C346.3549811467397 55.631873949564465, 331.35677727493004 71.08365867769737, 313.7458341773094 89.54509139084246 M352.9304136738279 39.818365984276895 C341.0457956372936 54.88787533326192, 327.6234144039674 65.7470523734729, 305.2291009765283 88.1339723522308 M353.3788608826795 41.213584458694825 C337.2766331236797 57.19297707271043, 320.9989658386523 73.1149356632799, 305.9427072916344 88.62440884136582 M345.40362376801886 39.960038547829754 C335.7315223977611 52.191015196485566, 324.9334548348646 61.28391079282936, 296.799385960856 89.57766670533444 M344.7569778934888 41.31702910648382 C329.75425080893706 55.79887233895591, 314.2464702028264 71.39907657482735, 297.47884203315664 89.20173273109819 M336.8014600218778 40.331064443902115 C324.620987220461 52.15546845785514, 312.70444618946243 63.22252599886349, 296.63719108859215 81.90078915721712 M336.82025496899536 41.58195675598178 C320.3000123132034 57.17535884804739, 304.37840432719565 73.88244466303472, 296.1403696903041 81.83507239661154 M327.21020173227976 41.71938312561906 C315.3750873758142 53.56703026415175, 303.3139408134488 66.45703806308937, 295.83912890711935 72.55594591049628 M327.52750558576173 41.49369455562628 C316.5654043122345 51.840764366777925, 305.81725410296934 63.29986847924131, 295.70815574014694 73.15020298583583 M320.69581569609966 40.40824654610551 C313.64865020983723 46.914101631529164, 306.0055215791581 53.91209247534305, 295.67414015093954 65.49841498066992 M320.16019947035045 40.87741340385473 C310.58236511531027 50.47821936314481, 301.71757467399794 59.39936165687407, 294.95336259687457 64.44510270958156 M311.6539562102125 41.826219158486495 C304.5858554664317 47.80228830886534, 298.64252064351194 54.09914257148235, 295.9050666169277 56.06457332086312 M310.94746259932384 41.47312794910467 C306.45717747018426 45.60632419979724, 300.789566761765 51.48310658485215, 295.63402248704944 56.09337996628629 M302.49060660120244 40.794458503888016 C300.7911558144165 43.26226987946266, 298.94967642498506 45.028665727023956, 296.03730896050246 48.24945864397766 M302.85616266507805 41.15121784085132 C300.3916950652333 43.45052226675812, 297.69411340199724 45.62656061792139, 295.72800210314006 48.098146904070994" stroke="#ffffff" stroke-width="0.5" fill="none" stroke-linecap="round" stroke-linejoin="round"></path><path d="M296.8574322745204 41.94665670742592 C320.4347487047315 40.0794841468533, 343.86001893132925 40.33547717930874, 415.2953728243709 40.574938539167256 M416.48640529662373 40.903406656285135 C416.9193782580018 54.83865395238003, 415.22468922258616 68.20378863861164, 416.8142034247518 88.84684952547154 M416.08809018582104 88.23469310154519 C382.6362643256783 88.16072771503529, 351.89484343379735 88.47021043254934, 295.73731461018326 87.9468814884623 M296.2288530066609 88.59681786348423 C295.93189795376065 75.17278415610394, 296.0448489940286 61.500464010735364, 296.75300886183976 41.324103200932356" stroke="#1d4ed8" stroke-width="1.25" fill="none" stroke-linecap="round" stroke-linejoin="round"></path></g><text x="356" y="64.83333333333334" text-anchor="middle" dominant-baseline="central" font-family="&quot;Courier New&quot;, ui-monospace, monospace" font-size="13" fill="#1d4ed8">Chart it</text></g><g><g><path d="M300.7294491538797 188.58844342721113 C300.7294491538797 188.58844342721113, 300.7294491538797 188.58844342721113, 300.7294491538797 188.58844342721113 M300.7294491538797 188.58844342721113 C300.7294491538797 188.58844342721113, 300.7294491538797 188.58844342721113, 300.7294491538797 188.58844342721113 M317.17277159062996 196.25663743091994 C310.13407608706893 189.41327955294722, 303.41425382287395 182.13223580838263, 295.69536752722973 175.4149292779735 M317.19116202207135 197.1811535371306 C312.4825496389303 191.6080370630549, 305.97789321881123 186.22906489233685, 295.9997965064254 175.30618403140667 M329.8662742701886 201.4856271640889 C319.76451066851314 189.2739939550815, 308.42421337605515 180.20214818640423, 300.02141147964454 171.57563554644977 M329.47193630259164 200.7975932918049 C318.8492766369042 190.0595733614932, 308.5740563140984 179.75178647937264, 299.58301810380823 170.688990551796 M338.7371454945568 200.64895489397153 C332.62144673667365 194.7284096987624, 323.17082675231586 185.6974230313984, 304.6974085116444 168.23279071360278 M338.561018802299 200.83739291666703 C329.63373386507436 192.33131726809157, 320.88035676900813 182.7019543469635, 304.4693065274192 167.52191017832058 M348.24373411107337 203.28219114759446 C336.4676536168621 192.80222646448271, 327.66264106974467 179.7434440666344, 309.8542256272624 164.1562022131533 M348.44103205017274 202.65100941335294 C340.0247783928755 194.13307460268626, 331.1024858036527 184.4730053406234, 310.06477902543196 163.77928525681054 M357.819175342585 201.58866157749185 C348.18054708868453 194.09195861968183, 339.7775007146489 185.61606051625319, 317.2452975802779 162.50621397856813 M356.8312990132003 202.61036584650614 C349.30098968557434 194.43257564369387, 340.04426698009524 185.51221071056509, 316.81628465826657 162.02345557034204 M365.2191721616846 202.66222833594375 C355.67361115002313 193.14287396828013, 344.2264477257219 182.56200447498634, 323.0522726247241 158.91435219356788 M365.34187447061504 202.42538271801612 C355.6196118944858 192.91645660144945, 345.5285140749471 183.21357316742026, 322.8233000490968 159.3791540897451 M371.7560681659648 200.19636295023074 C358.2680451345277 185.74996278873127, 341.48770160442245 170.06219263909628, 329.6972599831937 158.17057276043292 M372.91386788915037 200.74680084227282 C359.31146825553947 187.8229332261283, 345.8256719242626 174.6842269364889, 329.25642685215604 158.31450444190946 M381.2542407968319 199.91453954144635 C369.38963215032834 189.42757030467428, 356.286479902444 177.2843109257856, 335.96979594090647 157.2252273940704 M380.3810866418532 200.69032456497914 C364.37027517275175 184.04823932916634, 348.4216118306779 168.52935760282656, 336.69060784680465 156.33673700385162 M386.51260133950564 198.9077348244979 C371.97084870424897 181.8496115972626, 355.11192167848907 166.03784321808615, 344.31777097045523 154.9549907467607 M387.93878600808387 199.4678717631518 C372.39024793075214 184.31493032779915, 357.5213932053634 169.58666158520995, 344.802304062276 155.8518660274613 M394.3813084853923 196.3861416704791 C380.5819169398338 183.76356943492087, 368.8561063894614 171.79603584778246, 351.68150260705966 155.07193328341089 M394.6266327358892 196.83303740749383 C379.51832686307216 181.9370649813379, 364.8650703301857 167.95510846628517, 351.8098176529305 155.76751251475505 M400.2242683320845 194.61666910667032 C390.8132057118828 184.47955643754784, 379.9303197811196 174.11882457573154, 360.87755579212603 153.58234162511485 M400.5974550420026 195.51234356239496 C386.5463128099673 181.2916440479642, 373.0766755695422 166.72322740337574, 360.663362241815 154.64547456143603 M406.35320725861556 191.0320151917921 C396.92148916009893 182.88440009827576, 385.5684529648258 171.3240601167248, 370.8754564356201 155.53843211152585 M405.95756548709784 191.00806226118522 C395.60898829036455 180.59492046651354, 385.44775690501507 171.03083367297242, 369.5280264830359 156.14719091926696 M411.7470261749514 189.6250212654979 C402.3203685511627 181.3646775868247, 394.4360993455848 172.52921802880698, 378.9891236042022 155.70478298899152 M411.4923652252816 188.48631975562733 C402.98177543037616 180.96309771948742, 395.23280505774784 172.02749622760783, 379.58145624989413 156.9939231842048 M415.22901914775196 182.6008905741353 C405.5464621561773 175.3227839002088, 396.8763060420792 166.64702840657122, 390.653078020211 160.40954290953837 M414.2498126298544 183.32306514167826 C406.73269878413555 175.15959754871307, 397.22116367531623 167.13975277755168, 391.796313133869 159.9117142953854 M416.6776246168894 176.06155418460844 C411.77665627794374 173.86655876505372, 409.9773063653838 170.08599038931135, 405.90406845027206 166.79675351711563 M416.2874745365941 176.5270282511658 C413.47586223930426 173.53686958429856, 410.06374675902254 170.32080848216876, 405.247130237488 166.33228422030447 M411.6145245083768 188.16878165342786 C411.6145245083768 188.16878165342786, 411.6145245083768 188.16878165342786, 411.6145245083768 188.16878165342786 M411.6145245083768 188.16878165342786 C411.6145245083768 188.16878165342786, 411.6145245083768 188.16878165342786, 411.6145245083768 188.16878165342786 M414.2436015269601 174.96755712620086 C408.47833668893577 180.67082266032884, 403.7990678306458 186.8007978098175, 393.570478317012 196.9347913972451 M414.9479539678314 176.36423042464173 C408.36120285774143 183.22867541386165, 400.1900091936986 190.17518274138715, 394.4621296816141 196.23781210755692 M411.2800287020553 171.9511519597406 C402.3171306787769 179.65741070633487, 395.4082469275252 187.50256593433215, 381.9904233274634 200.41031395206932 M411.42640433080237 170.84912720839776 C402.0208814047674 181.3448095133866, 390.8078956726782 191.70092201930996, 382.7659765801976 200.74137668675516 M406.57705882801963 166.3583296334268 C397.63775712814237 176.45837064627258, 390.32063837520275 184.24713074900475, 372.7926990423729 200.337105655951 M406.91446372526985 166.83012479952436 C397.5791407841031 175.93366767740386, 389.16094370686227 184.95821479508052, 373.6889593361323 201.31774571621935 M401.15665006507277 164.98998354953986 C392.4997852658661 173.77375831331543, 383.3202927288132 182.87881676070768, 364.90020890340054 200.4213646297302 M402.0989889930943 164.23237807491134 C393.5240799976147 172.1371842464305, 385.8674919583757 179.87438074895687, 364.0698566352188 202.08702722889893 M395.79372154199416 161.45029614180038 C384.23812066015796 172.2511576911331, 373.5613398434336 182.69473366624374, 355.1513173207661 202.01007802568714 M395.88171200719563 160.83804188038866 C380.95964333330534 176.44112442387845, 366.78751784829205 190.7947769512807, 353.7810721943175 202.90757922668348 M388.8360126690034 159.32687956248859 C375.41264981994306 175.29766100689892, 359.97239682837164 189.40199309240336, 345.376563235622 201.21430846516932 M390.0053489844341 158.76016171784588 C376.94262380314984 171.60968647791873, 363.7069893660893 184.47005169271978, 347.0115983237215 201.9930461180299 M382.2950102625067 158.29984855769837 C365.6389722386736 172.97185265148818, 349.8801853948365 189.41680721230534, 338.3758787458147 201.93197541283033 M382.1507776103566 157.2454966204863 C366.76192729578855 174.43191471769887, 349.6720593776363 190.74762730519316, 338.2504845529179 201.82889009220116 M376.708448545097 156.27932046733682 C362.1931212205695 169.11202084147232, 349.2991075613447 182.90784552822393, 331.45215691775064 200.1142873647637 M376.00578703919666 156.1057691528264 C359.13122299142753 172.13822651895387, 343.4961521295352 188.47379109803978, 331.2266554424537 201.3325733074001 M367.48148880199375 154.8642355686843 C351.8139129093906 169.83841135045807, 337.2648717760332 184.16721150938915, 324.966645005209 198.61034862969026 M368.2125075503144 155.8702357542559 C358.01948230723724 165.59970068294786, 347.2618999009526 175.82158601052777, 324.2705538027488 198.79191467195704 M358.67053972460354 154.5585367328345 C346.87500275487747 169.00757648962178, 333.64204024488987 180.62930071072995, 318.2516969810366 196.25440679726327 M359.35748089175695 155.49561639547787 C348.600193191265 166.45496837031257, 338.3751337168177 176.91292512640658, 317.2331432257905 197.24608731263453 M352.55286419170545 155.00156264350818 C340.7344883204128 163.3753328429565, 332.94167522526277 174.36571502227403, 312.2514481301991 194.22517814501694 M350.9475170614441 154.49023779732244 C339.3667069887198 166.88035440510725, 327.59207019372775 178.87689299834756, 311.3328326781852 194.13869398157618 M341.9393318011463 154.85529526535865 C330.3405731011976 167.11058002599822, 318.7503847097408 178.37569956216947, 307.40614045672993 192.76152223141807 M342.1286968388632 155.29503089905228 C335.2594666993371 162.40269581342946, 327.3682048404214 170.24089914344506, 306.0460519081069 191.92719164935815 M332.5079866817052 155.27079203210656 C319.8182637150042 169.25494815589673, 308.92012644724065 180.44268331642152, 301.064370152035 188.3501944275604 M333.0261895969341 156.64371304649745 C324.9139297640403 164.09585947208387, 316.28235789670276 172.35107263962283, 300.92574891360215 189.3643940366836 M320.99547968122886 159.49675365840537 C316.8299165088233 164.12533945508608, 311.42277968702433 168.44279560519317, 296.25269437608046 183.55623913597805 M321.74193549014404 159.26510580392073 C313.2796357007678 167.0989810757164, 305.24893472647085 175.4973083355663, 297.3772467237778 183.62261483319594 M306.6332558242691 165.7115845947293 C302.0832774224515 170.3599356567067, 298.52758562843775 173.63971926666892, 295.68865389851214 175.9716064995817 M306.4679347858106 166.33973716465286 C303.5823570574052 168.8424439157915, 301.25669817521543 170.74426779698945, 296.6608573974978 176.08670603436522" stroke="#ffffff" stroke-width="0.5" fill="none" stroke-linecap="round" stroke-linejoin="round"></path><path d="M296 179.16666666666666 C294.81593859232964 197.81366562388516, 346.49165421761575 208.22961919312158, 384.800269735232 199.77166574115196 M386 199.95127635749319 C404.17356967513854 195.6833053090588, 417.1770065072924 187.82215433541398, 417.0895137790591 179.8862956261883 M416 179.16666666666666 C416.90800662077964 159.87904970628838, 366.23671525754037 149.22664939880886, 327.0302871350199 158.5723515213565 M326 158.38205697584013 C306.3536896754295 162.38613929491083, 295.85013837851585 170.22196184696296, 296.5183539632708 178.23082771065333 M296 179.16666666666666 C296 179.16666666666666, 296 179.16666666666666, 296 179.16666666666666" stroke="#1d4ed8" stroke-width="1.25" fill="none" stroke-linecap="round" stroke-linejoin="round"></path></g><text x="356" y="179.16666666666666" text-anchor="middle" dominant-baseline="central" font-family="&quot;Courier New&quot;, ui-monospace, monospace" font-size="13" fill="#1d4ed8">Ship</text></g></g></svg>