<svg xmlns="http://www.w3.org/2000/svg" viewBox="0 0 540 300" width="540" height="300" role="img"><g transform="translate(76, 36)"><g><g><path d="M60 114 C96.30231402926147 112.80050648041069, 96.24831590466201 48.55703394003213, 132.8003776293248 47.728545137122275" stroke="#1d4ed8" stroke-width="1.25" fill="none" stroke-linecap="round" stroke-linejoin="round"></path></g><g><path d="M130.03912004792903 55.486165317519195 C131.7350816247657 54.20244396488092, 131.96511182912224 52.46889188366388, 133.58010609919205 47.16151409959421 M133.70804417109116 47.42018274182454 C130.48373314311047 48.19456313878072, 128.28934112976498 49.08026255271297, 125.32486322987249 49.6211071118667" stroke="#1d4ed8" stroke-width="1.25" fill="none" stroke-linecap="round" stroke-linejoin="round"></path></g></g><g><g><path d="M60 114 C96.30231402926147 112.80050648041069, 96.24831590466201 181.5570339400321, 132.8003776293248 180.72854513712227" stroke="#1d4ed8" stroke-width="1.25" fill="none" stroke-linecap="round" stroke-linejoin="round"></path></g><g><path d="M124.81890594906528 177.64627904654003 C127.56402942775688 178.53816020995743, 128.83826672737993 178.97292650451402, 133.58010609919205 180.1615140995942 M133.70804417109116 180.42018274182453 C132.2975477255672 177.4186740868269, 131.92742866007436 174.51623169135505, 130.54507732873623 171.78122084088753" stroke="#1d4ed8" stroke-width="1.25" fill="none" stroke-linecap="round" stroke-linejoin="round"></path></g><text x="97" y="147.25" text-anchor="middle" dominant-baseline="central" font-family="&quot;Courier New&quot;, ui-monospace, monospace" font-size="13" fill="#1d4ed8">maybe</text></g><g><g><path d="M254 47.5 C290.3023140292615 46.3005064804107, 290.24831590466204 48.55703394003213, 326.80037762932477 47.728545137122275" stroke="#1d4ed8" stroke-width="1.25" fill="none" stroke-linecap="round" stroke-linejoin="round"></path></g><g><path d="M319.35150810506303 51.06669580915593 C321.98715968198024 50.673548397141786, 323.1548597898877 49.82402929437126, 327.58010609919205 47.16151409959421 M327.70804417109116 47.42018274182454 C324.6636635761112 45.9521135864735, 322.65539643939985 44.59411333748787, 319.8574653858702 43.200690349250806" stroke="#1d4ed8" stroke-width="1.25" fill="none" stroke-linecap="round" stroke-linejoin="round"></path></g></g><g><g><path d="M254 180.5 C290.3023140292615 179.3005064804107, 290.24831590466204 181.5570339400321, 326.80037762932477 180.72854513712227" stroke="#1d4ed8" stroke-width="1.25" fill="none" stroke-linecap="round" stroke-linejoin="round"></path></g><g><path d="M319.35150810506303 184.06669580915593 C321.98715968198024 183.67354839714176, 323.1548597898877 182.82402929437126, 327.58010609919205 180.1615140995942 M327.70804417109116 180.42018274182453 C324.6636635761112 178.9521135864735, 322.65539643939985 177.59411333748787, 319.8574653858702 176.2006903492508" stroke="#1d4ed8" stroke-width="1.25" fill="none" stroke-linecap="round" stroke-linejoin="round"></path></g><text x="291" y="180.5" text-anchor="middle" dominant-baseline="central" font-family="&quot;Courier New&quot;, ui-monospace, monospace" font-size="13" fill="#1d4ed8">yes</text></g><g><g><path d="M-55.405038306378096 123.28728930028664 C-55.405038306378096 123.28728930028664, -55.405038306378096 123.28728930028664, -55.405038306378096 123.28728930028664 M-55.405038306378096 123.28728930028664 C-55.405038306378096 123.28728930028664, -55.405038306378096 123.28728930028664, -55.405038306378096 123.28728930028664 M-38.539923620246356 132.08915320041925 C-44.038102194905356 125.14931280028159, -50.47323547228749 118.60193522682553, -59.80596718140353 111.43024882135285 M-38.05624553395808 131.31405642166138 C-44.788772159831254 125.58826430230312, -50.700872268398214 118.94130104361636, -59.2650813855644 110.92849977203947 M-27.344570860197567 134.52337827179923 C-33.665191695523696 127.38631515125901, -39.72500872358891 122.74018842794997, -57.07233126617437 105.26259210040341 M-26.943438453716958 135.58577149734242 C-36.48056722444313 124.40259176452628, -47.331187035758084 114.98545864134837, -55.96000994134163 105.32526310147266 M-17.50937930979729 137.54883602391158 C-24.273452909503376 130.79057279827285, -29.81784384698738 121.97010852418758, -50.737333885129736 102.72559600908785 M-16.104604648248852 136.62652362845066 C-25.818018354624204 127.47788021735421, -34.056416763928134 119.54428464303793, -51.50295428197477 101.86341990203141 M-6.955572418391188 138.49974734334808 C-16.53429263419216 127.1109093375804, -27.513469736667666 117.2009782649587, -47.186172487361475 97.64185118425175 M-6.916112830571313 137.6535109964998 C-16.78286767898949 128.3370789652211, -26.105500789886065 118.3868905197565, -46.18406180772756 98.5264677929832 M1.2677409273020004 136.24104142932754 C-10.101654528747776 125.78003103249587, -21.625190197671646 113.2819250176934, -39.176789272215224 96.09479726248699 M1.3101656614250516 136.9253822831304 C-9.877566009369808 126.20626955402767, -22.291836944582364 113.85927017328515, -39.74259185661749 96.23824558084178 M8.010279965563525 136.3700693560687 C-4.297496810106424 122.54607520800563, -17.98632341890066 108.55050738541287, -33.884225438782856 94.15936863063925 M9.234820427349616 136.56270023248317 C-1.2356428127111454 126.4563629855276, -11.499143750857451 115.5505049244832, -33.93001995390831 94.01232900987469 M15.540198840861184 135.31121085397683 C7.944048396405637 127.04338498350882, -4.233382493996123 115.56446876920111, -25.938373717596548 93.83924189411378 M16.491758785498302 135.66129843238525 C3.26205192841763 122.72448163258531, -9.547150614408787 110.46469709808638, -26.266540343804078 92.90802823040909 M24.142373041476223 134.68916074727073 C10.496164586393263 120.75430618290163, -4.399839584582066 106.05028058572543, -18.54701227656161 92.5188019709428 M23.967742210480484 135.0843177519773 C10.723831012604371 121.51623879637515, -3.227650559866226 107.65071354705135, -18.882849895381977 90.90110389289904 M31.330899399503345 134.31642895398255 C20.67302979576357 120.79669340495332, 6.754541660135697 110.92763699864216, -10.654877596210246 89.57906921653161 M32.096136333218986 133.46845634171333 C14.223704348991234 116.67655185898768, -2.0727909648479197 99.92817374170845, -11.99797097784609 90.71844427267173 M38.47580965322381 132.5950540483311 C22.674628375083163 117.42913557601769, 9.128062239806932 103.35422483338824, -2.9595915944477382 90.95677229891241 M37.564874503323196 131.24443319573405 C25.25058130715828 118.45255616081492, 11.587297978979484 105.64353283620288, -3.65392858527357 90.61588814518124 M45.215570447105414 129.10410326072162 C35.00874852857662 120.6716785848345, 23.989376851745178 110.23673772179242, 5.329265498193699 89.3602753234905 M44.81020778908903 130.24323815186656 C33.92718940498936 119.25015695666202, 23.36232408159332 107.74553575243331, 4.8064267881314935 89.81290191075475 M50.148262988242834 126.26585213418635 C38.64352562253039 115.94334532780698, 27.679777228046838 105.41813617606788, 13.581334794995309 91.13575748948465 M49.589134633939295 126.98106154806497 C39.50906320239379 115.89300417589881, 28.540938236331826 105.28430812819852, 13.311848804478467 90.77750925103287 M54.56540338991736 124.45460486794401 C44.79162044810363 112.96353770220612, 34.30522116403756 102.28690034765208, 22.5579787530518 91.25471308992702 M54.9944711999834 122.78686456596989 C48.17063740351191 117.15105133419877, 41.2896745044431 109.55276221127971, 23.156445282190187 91.03254112896968 M59.05022910922365 117.16998075502681 C51.03343200391129 111.57647485607204, 44.65911507409421 102.80103805034707, 35.46742186039062 94.54409219878258 M58.134387805644145 117.79441566853541 C53.42224351749138 113.10339605962143, 47.54641269106255 107.52590330072418, 34.73606888312223 95.404526475952 M61.47562476919754 111.86561835598319 C56.58451713745083 108.29806262672184, 53.86936578301504 105.9282513334738, 48.97429932113136 100.45416074773026 M60.62439275206788 111.9649194901821 C57.21902142861226 108.340319434709, 52.74726507976977 104.67838801987224, 49.02615250240411 100.73907396441054 M55.36719425061469 123.24944524452329 C55.36719425061469 123.24944524452329, 55.36719425061469 123.24944524452329, 55.36719425061469 123.24944524452329 M55.36719425061469 123.24944524452329 C55.36719425061469 123.24944524452329, 55.36719425061469 123.24944524452329, 55.36719425061469 123.24944524452329 M59.20143677907752 110.99254811494083 C52.127548908837824 117.51497856603658, 45.79023194012146 123.18243679299268, 38.181934813560005 131.31087229267757 M58.86230726725178 111.271882774629 C52.38349384817543 117.3459208223196, 45.58779191830849 124.13668548488307, 37.880265086480435 131.41147643473994 M56.96740187053694 105.24236232581758 C46.24122809319062 114.70154480201207, 39.34152061606464 123.22850657448716, 27.43637837269979 134.60729714720208 M56.51667699628635 105.50195737554901 C48.80946508244215 113.45503288809148, 40.76859233029464 121.56453099500584, 26.631489023246637 134.19350969413927 M50.96558856484783 101.43679209204595 C43.284336164527375 111.71760887448305, 34.552687314548585 119.58358599442033, 18.015816210155045 135.3854476941142 M50.79306954429787 101.77115112526546 C41.93036333715074 110.14008480023222, 34.418498822311705 119.4532193231584, 17.715068268906926 135.58157570616785 M45.35602341266457 98.90038117547158 C33.63427460310357 109.61555679189281, 23.76397783900011 120.43096673806414, 8.123407658020497 137.40798491381923 M46.02449119826887 99.70886008054588 C34.7991335494533 109.25226438548906, 24.51341768491261 120.0341019426872, 7.957337204384149 137.021117433653 M39.98506108964147 95.70259521294018 C29.33008089527297 107.2467285969808, 19.330864713926825 117.19930381000418, -1.0388598266091975 137.66999166172258 M40.72265918268176 95.10014436065784 C31.3432079615891 105.8157983556704, 21.593694850185425 115.12161687555185, -1.7929088518989118 137.36949190192183 M33.755243709313625 94.28796240341667 C17.544070296893725 110.048796930208, 0.4494801805635774 126.39620286532475, -8.736350318079646 136.46515232466976 M33.029110972399764 93.93461883448813 C22.412743738855927 104.62598349447735, 11.562715173290574 116.36095821559081, -8.649343300459737 136.3808998552419 M26.537295759708464 91.7640785713736 C8.612915624968284 109.29165192010512, -7.127840282540258 127.56964137100967, -16.83902689048271 136.52300028925274 M26.508449229278444 92.51320818393118 C12.157392440582576 107.90169153353972, -4.495954864446341 123.44020777243703, -17.34410572906207 136.2623832251269 M18.576022385547585 91.89570888458937 C6.195811212713581 105.50547090791198, -7.341908854380736 118.74355318051167, -23.966310930537144 134.1537772546902 M19.635490084367518 91.86099862168729 C3.598588957470734 107.13532552551005, -11.992175803296767 122.38618902971626, -24.491411225596526 135.83743444321746 M10.988090762485339 89.60700647990961 C-3.0602840388189256 103.51670125904799, -15.362135542061448 116.25450456740525, -30.58168891877514 133.34304001401432 M11.374294512149467 91.24820651702393 C-1.256353813037021 103.46332643312081, -12.799913570865023 115.61974677520784, -31.200907159267185 133.85935322246766 M3.624782628802977 89.31875993155312 C-8.827057842916565 103.58109884833927, -21.486282366515592 114.47807571416243, -38.79442599191547 130.5533740164439 M3.5221708622336605 89.74617586408179 C-4.904475748438555 98.81308374536334, -14.104575657729022 108.05976311098316, -37.79813674296469 131.23171011951817 M-4.301292152218252 89.32167968873861 C-14.79919380357223 99.57167250297192, -24.933017142774624 108.90500965900782, -44.74706594286341 130.51189336738423 M-4.382361578270524 89.21941471950146 C-18.103014629115357 103.10205297637309, -32.02522851174499 116.58864721865237, -44.93078903326619 130.01459653469607 M-12.817909154670199 89.37811163805794 C-26.40192329952128 103.64426141538524, -37.619631774800546 115.27695611960739, -49.28161087715116 127.4764204848675 M-12.780036147126813 89.94605876479667 C-23.896220098341225 100.05148018740081, -33.847723573485084 110.47237195676463, -49.55362858687577 127.30955436845551 M-23.245195484085066 92.1740031975433 C-34.98269884034697 104.07872154362704, -47.77158991575375 116.44553219758606, -54.8483415564975 123.14430644311247 M-22.661554901039285 91.48858740042147 C-34.701067284394476 103.33535647547589, -46.334074225019286 115.13309167614099, -55.35606580418407 123.5871463649371 M-34.118663683368126 93.84193722260001 C-42.135797983172615 101.90502714099736, -51.84099200834908 111.39228503183544, -57.6791038364346 118.22571741015133 M-34.20937252158509 94.03560765170309 C-41.42995964788319 101.34773032291616, -49.478140520818535 108.74943645296209, -58.654193366895136 118.4789925495949 M-49.92158268525314 101.54142747138455 C-53.35809674293958 104.66656135212796, -56.28030818820402 107.53753270606853, -59.308062138662386 111.11277063519722 M-50.264285163824006 101.19008437722749 C-52.859176020459095 104.34669531642797, -55.341257255882084 106.59406433738104, -59.12751006027934 110.82214626308559" stroke="#ffffff" stroke-width="0.5" fill="none" stroke-linecap="round" stroke-linejoin="round"></path><path d="M-60 114 C-59.75681228153407 132.98956668269813, -9.421669156476863 143.83036170357943, 28.800053947046393 133.78868756755827 M29.999999999999993 134.78460969082653 C47.52596561943585 130.02126581802128, 60.23540130145848 121.63059685998621, 60.69790275581181 113.66392579190433 M60 114 C59.22160132415593 95.84230971666992, 10.527343051508083 84.95422534814001, -30.273942572996006 93.73344921827675 M-29.999999999999986 93.21539030917347 C-49.260513749322236 98.40595643610598, -60.98997232429683 104.8715597098225, -59.89632920734584 114.29283220879734 M-60 114 C-60 114, -60 114, -60 114" stroke="#1d4ed8" stroke-width="1.25" fill="none" stroke-linecap="round" stroke-linejoin="round"></path></g><text x="0" y="114" text-anchor="middle" dominant-baseline="central" font-family="&quot;Courier New&quot;, ui-monospace, monospace" font-size="13" fill="#1d4ed8">Start</text></g><g><g><path d="M133.7804832720494 71.2804832720494 C133.7804832720494 71.2804832720494, 133.7804832720494 71.2804832720494, 133.7804832720494 71.2804832720494 M133.7804832720494 71.2804832720494 C133.7804832720494 71.2804832720494, 133.7804832720494 71.2804832720494, 133.7804832720494 71.2804832720494 M142.46692968001585 71.79782635075209 C139.27406343037194 67.74760433289978, 136.2964521501154 64.36737648503156, 133.48657951248046 62.64682374600662 M142.06269362477582 71.63920385901984 C139.28331969785438 68.38341633962388, 136.86847316133003 65.4266935013341, 133.73781648208555 63.14658355322076 M151.72428263126696 70.38492032301781 C145.74235251838792 67.12059775101804, 143.22803647863697 62.52774524848324, 132.86542392236348 55.48005183513789 M150.820990287874 70.7602124010509 C146.0989893447208 67.21416276603092, 142.08412205250877 63.23631188941491, 133.92138616566714 54.23349834594457 M158.3668698898668 70.4972643257415 C152.77476371183752 65.20744592260651, 144.6539447985152 56.842134430777726, 132.82046158773062 46.21791539746089 M159.0974820393289 71.07633101095614 C151.6917210333619 64.4670084130666, 144.7664012254804 57.051587863798645, 134.13829730277118 46.26571612055166 M167.29694112673812 70.54872347128746 C160.1151713892865 62.90160175697322, 150.65835688276306 56.19932879059566, 133.8574900673067 36.93437164166868 M168.17369493641368 70.73187032093462 C160.03600272695166 63.63073087518275, 153.1604285231672 57.671459280841965, 133.51646523003635 36.924451763200764 M176.87247974031843 71.15592373621818 C162.31010081977362 57.2910038777238, 150.71785110132612 44.690757552449504, 133.64308650952933 27.774952794323724 M176.12786384240962 71.4019157802051 C165.84869455908364 61.49673672342883, 156.19318430321843 51.62323418564986, 133.9860779357439 29.114087598110597 M184.2163128790452 71.50814734709617 C168.54381804703888 55.800647005688674, 152.47486796557055 38.42302740479589, 137.21209893758208 22.911274456734727 M184.1120517455979 71.51897471298632 C172.00992551715694 59.04198715078002, 161.084798305917 47.47465577408139, 136.29207865792125 23.41235494924612 M192.79111144135598 70.19233278048392 C179.9707667863622 57.52684324371085, 165.3335718646083 44.315608624309846, 144.91421912464872 23.737608480210383 M193.16464975925987 71.26047631849703 C181.5524150431239 59.248644007951135, 169.29564389846232 46.811321072098465, 144.77823875959592 22.62940701557227 M200.77439007568825 70.81807476294397 C184.66245401769356 55.508891897483814, 170.73527279839624 40.101041036691726, 153.90370121967436 23.61060159182079 M202.2228771216767 71.536271670956 C185.14171242397467 54.178797693465455, 168.32331960989796 36.82815097027774, 153.31437635455669 23.510037496815393 M211.03350718047952 70.84262427103873 C194.2623866268414 53.96437814181775, 175.41957590059593 36.96644556460487, 163.05649737109644 22.816411018128466 M209.73528119612968 71.77613371958192 C197.70707683344946 59.1984135337455, 184.9748389122011 47.19464634327869, 162.25099193108483 22.66331621719427 M219.5006649041672 71.99588853133079 C202.06085734708276 54.03644126697216, 185.99529462817668 38.59691972200103, 170.08840347735253 23.73885023569591 M218.87423747089997 71.31725728859362 C207.1134699914911 59.60069677684985, 195.12133008020479 48.16096024405018, 170.7749141024616 23.09323487592764 M227.54790914518892 71.50543102038262 C213.32200721582637 57.82463765524981, 197.57844124016862 41.91732861280434, 179.1300591868801 22.08438897108562 M227.14844955926895 70.7917590772098 C215.35217938054274 60.08711563546013, 204.2693186185597 49.019580157481315, 178.52179960696827 23.586207047234247 M235.16212955198213 70.12147146475671 C218.63984204631143 54.075557426005915, 202.2425190673142 38.677197373873305, 186.70194789811666 22.107153200860107 M235.21544919951782 71.11417765964923 C226.03047346654114 61.855057374426096, 215.5144761244318 50.857077729651024, 187.18863330788608 23.698568180332863 M243.72005952298431 70.54188584101556 C228.15874849489046 55.36874032962071, 215.16661882557818 42.1642073152004, 196.48939675949973 23.033925151581833 M243.6940962549278 71.26897348513064 C233.3713627546666 59.84198746010185, 223.03877943323073 49.49566600714283, 196.14622819349628 22.744075599442194 M251.56327620663293 71.03720637572167 C240.00420261824686 57.74358378478592, 227.72709852304402 45.89207530687738, 205.31757666946672 22.289143299813354 M252.37707871378012 70.89802887787279 C239.75321168274755 58.309064053405656, 225.76417282613028 44.790864244220344, 204.0517253770801 23.581408503781045 M254.50213268950012 64.00455373357207 C238.975113402021 51.260026132491284, 226.92790182740106 35.69921187194297, 213.12650227645523 23.519902372117112 M253.57234487749068 64.61708022522896 C241.0055021148616 52.14889957906801, 228.92417002287806 39.41509797128401, 212.86109409691875 23.20166796756811 M253.98974786951575 56.59162689062163 C244.76110242500698 47.38220901004679, 237.18555119334994 39.50009702361376, 220.94603197890274 23.020953345055652 M253.51459323383304 56.002207850910274 C245.72074609127912 48.21860958221958, 237.9772964242084 39.59227734392844, 221.0416317162936 23.71587694002218 M254.92644370749028 47.351140385806005 C246.25363738712622 37.41008076902755, 237.08456466463636 29.761166957289024, 228.87086792524673 22.559703445191467 M253.40720970846147 46.80677326650862 C248.807653333371 42.08673114924686, 242.52229468949048 36.20675363653853, 229.98446372348582 22.94248024536201 M254.4631723518613 39.4942514456876 C250.56504596665746 35.661937981883526, 247.16363230115883 31.850518127038583, 238.83555601392467 23.00121614908702 M253.86319478965729 38.77734629624266 C250.55668686650986 34.8739751281064, 246.3967168405757 31.47710794354947, 238.41704373177666 22.9948445828063 M253.6896828874144 30.699031755029313 C251.53024709022063 27.944285734332297, 248.61324069235982 25.06547005893702, 247.35352707763556 22.965216667334523 M254.1602565822321 30.36185430128043 C251.57091537775167 27.761056874104817, 248.4980023440673 25.021175745117844, 246.6666108706722 23.232990338969017 M253.96677477306463 71.5332252269354 C253.96677477306463 71.5332252269354, 253.96677477306463 71.5332252269354, 253.96677477306463 71.5332252269354 M253.96677477306463 71.5332252269354 C253.96677477306463 71.5332252269354, 253.96677477306463 71.5332252269354, 253.96677477306463 71.5332252269354 M253.87203284344412 63.20025914132994 C251.80030768332273 64.31377173427448, 250.34932809767224 67.52203029636541, 245.42072381360404 71.4045769754913 M254.3103661870841 63.3490899863134 C252.08972932363804 64.44333719342131, 250.58614573645818 66.40310368007627, 245.20975265523367 71.2957912790891 M254.47712791136243 53.819001251381 C249.43961552378556 58.55886931142954, 244.72152780122923 61.623833941334496, 236.60107865070114 70.8501343590882 M253.4929540200416 54.761093303855624 C248.75877220970486 60.08830382319203, 242.9709546357159 65.50346114174887, 236.88820005652616 71.68751493857468 M253.59783406427837 44.940427283186445 C243.02605787163063 56.22557705189291, 235.34255905881656 65.92285951033688, 227.4571844291344 71.74938098022008 M254.06977383329308 46.34501739254964 C248.62849905425753 51.08955422647194, 242.95745598668918 56.652432888217525, 228.7572458960518 71.81645054982269 M254.18600466421583 38.438175489064164 C244.00947218792803 48.13258055726613, 233.9068706881458 56.9772005659595, 219.59713649052662 72.39255231448676 M253.68835580779947 38.03022741569192 C246.80959558037677 44.30053532604171, 238.8612245315757 52.096448756129405, 220.44365204136355 70.94470676348773 M253.14649810961225 28.73199684557663 C238.83752063451195 45.81935302414957, 221.9972539174932 61.20370123836071, 211.93438698331533 71.22830558845068 M253.47849730684197 28.66524632250117 C240.1150064364908 43.33823214800308, 224.8178589268627 58.22358976352717, 211.97916898074266 71.70010340378846 M250.82058942415892 23.34272570403254 C238.68794538179984 36.11595836594423, 225.3638454598059 47.672530898411836, 203.422231805938 72.40295427867437 M251.06539669395568 24.034446061942337 C239.00306426470738 35.24536776382238, 226.18662820888758 47.86939258764757, 202.8318753274704 71.7053821699437 M242.1893973815473 24.088852665740607 C226.5701783846614 40.199374754148096, 210.71213184697817 54.2771131405862, 193.4288106068322 72.18546811172034 M242.61058045767567 23.417120457980392 C232.814314029299 33.0772764834831, 223.30103971976158 43.18997916063525, 194.7186778198281 70.96570663617219 M235.3341658797071 24.226243207770942 C219.4465331963691 39.74997634783642, 202.9653390491105 53.94940970713114, 186.91210678443537 71.79247306415105 M234.10968458577548 23.28970383534169 C218.0924226209003 40.3365326682715, 201.12925765997008 56.357176533925816, 186.01781132109687 72.05616225169265 M225.6691283170759 23.41527330668604 C216.0551749975326 32.8957799240264, 204.83410732932415 43.65746229255224, 177.994947487185 71.01325136252905 M225.26281894153647 23.255406643244978 C212.82554647938468 36.249224789188595, 200.9097751689564 48.24048647895037, 178.18133881955802 71.90925634072389 M216.37336184209113 22.888975189048406 C200.991496913248 39.67363112309148, 185.89415667494598 55.27028967499213, 169.54000361351865 71.4347414834168 M216.7439215132398 22.97486120590901 C200.26543551304073 39.58444043439114, 184.85435735907814 55.742731379796574, 168.94765142849283 71.60241810248458 M209.1657873531904 23.878037331420536 C190.5891183377141 41.58680456435184, 173.24482204076298 59.937950913182846, 161.52478981187375 72.46653815337683 M208.2132584141668 23.553621722552535 C197.419086709117 34.92401425844012, 187.2703108092272 45.03918629938218, 161.1539683861825 71.74549861119355 M199.88016949881114 23.635804460364934 C186.5278146280986 37.0660767518636, 172.9446499442931 50.92495135083026, 151.41666448068784 72.16589234897161 M199.92992388259867 22.9296642673943 C187.22901507555272 35.936057560501226, 175.52158702757936 48.47027603663619, 152.34883705590832 71.46827081606948 M190.84011667739088 23.463277552444083 C175.33885534833152 40.55698453772881, 159.01101250753135 55.60322528197135, 144.14782976839845 70.46271129676364 M191.96434028181667 23.260886789653046 C179.04720037690345 36.60120929538455, 165.5000406223212 48.77051470273779, 143.60463292595153 71.00792954133115 M184.0340810373671 22.334113834220524 C173.13200432682487 34.400228357272134, 162.9246444333081 42.55500226751255, 135.69033157344302 72.38455847331548 M183.41075810010204 23.91260911354756 C171.1587683591025 36.01955675519695, 158.59655194397862 48.62798498520119, 135.13005960959336 71.89659148619735 M174.29035847717728 22.519626782256704 C165.24968811361632 32.582262752085775, 153.99019826723506 42.217010853471926, 134.90212735612457 65.01058579332408 M175.19975595073606 24.04507293829654 C158.08798132910556 39.99499801412271, 141.9247386743377 56.550979583380325, 133.75371665698054 64.0777274130213 M166.45208864525898 23.213786123115163 C156.12087256788956 32.42933318016112, 146.83760809324878 43.32702827308806, 134.50309626538817 54.89552348284436 M165.710740572 24.000941838118774 C156.93796644745674 31.78813564283122, 148.91120014936604 41.37037889252103, 133.53760968190198 55.492652020514136 M158.95225494004967 23.758217833358405 C151.8533590975566 29.4441583887769, 146.82763172618274 35.3473168667181, 133.22060188729827 47.12411733081191 M158.38444682717503 23.092801262233017 C150.6202165502931 30.8685173412399, 144.3836582736027 37.1332515441388, 133.16021311026577 46.89746119526774 M148.9886845099868 24.46720413954888 C142.32469668185223 29.38517617098244, 137.44175943317157 36.844873139511755, 133.33606512029235 39.36455581378922 M148.93543770454244 23.39065853485797 C144.1603576837285 28.54985887840174, 138.21528249229812 34.59951990815, 133.5005430553532 38.478959136500805 M140.46436901836248 23.051323812249635 C139.51602212515715 25.000821562597746, 137.8881756492549 26.591126267564945, 134.30218629207974 30.914357788227203 M141.09714705030024 23.679703480731284 C138.86629175056558 25.244947756245473, 137.11039413776103 27.34007371301366, 133.99753286339853 30.388701918273867" stroke="#ffffff" stroke-width="0.5" fill="none" stroke-linecap="round" stroke-linejoin="round"></path><path d="M133.8287161372602 23.45666168704629 C158.81737435236573 23.867075406759977, 182.53000946566462 22.7950719229877, 254.24768641218543 22.770802602916955 M253.64320264831184 22.9350366614759 C253.91728912900092 35.90266030952334, 253.0699446112931 46.18522765263915, 253.80710171237587 72.1067580960691 M254.64404509291052 70.60067988410592 C225.91813216283919 71.61969719085097, 198.54742171689867 70.57443854960799, 134.46865730509163 71.65677407756448 M133.51442650333047 70.78174226507545 C133.4235489768803 54.4697254113853, 133.48002449701428 38.03356533870101, 133.77650443091989 23.145384933799505" stroke="#1d4ed8" stroke-width="1.25" fill="none" stroke-linecap="round" stroke-linejoin="round"></path></g><text x="194" y="47.5" text-anchor="middle" dominant-baseline="central" font-family="&quot;Courier New&quot;, ui-monospace, monospace" font-size="13" fill="#1d4ed8">Clean</text></g><g><g><path d="M133.72770542341354 180.22770542341357 C133.72770542341354 180.22770542341357, 133.72770542341354 180.22770542341357, 133.72770542341354 180.22770542341357 M133.72770542341354 180.22770542341357 C133.72770542341354 180.22770542341357, 133.72770542341354 180.22770542341357, 133.72770542341354 180.22770542341357 M148.47644296852033 185.60590640612213 C145.7690380626872 183.66230208095584, 143.34827493025006 182.0079411680526, 140.67754878468517 178.2323651211231 M148.0856183925653 186.2128004799903 C145.4989479711704 183.6310613689429, 143.0741689020598 181.12120238490485, 139.86799961789217 178.42453485604256 M162.87183158698608 191.99806949885092 C157.22177179312163 186.74737208900956, 154.31498371048113 183.12277931219333, 146.88303846024255 177.14026170364272 M162.41689307189662 191.66100761590056 C155.84732937653428 185.69720558078131, 150.3568683004793 180.26226912812032, 146.36698182519802 176.17043146985276 M176.64992603725892 197.82343975242884 C171.27392671015627 191.70004315746073, 165.67557124537282 186.93494882491757, 152.47244920778562 173.1465519837389 M176.24584426145208 197.19203978025078 C168.72175011258886 189.71805200264927, 160.14565166863997 181.00680244662078, 151.74920278034645 172.91825306837504 M190.25924645493905 202.35748272024017 C182.18311623543607 193.66401684951157, 174.3363790128429 187.5490919371372, 157.99195295782872 172.22783806784878 M190.67437716945238 202.3322029947109 C180.45643791451238 192.22794586210995, 170.80979522893995 182.755757090703, 158.98041570192316 170.71295825014693 M198.47280690700364 201.36117633644972 C189.92468224186212 192.381826245543, 180.8954319923751 183.04058108581583, 164.52720187065495 167.18820473344303 M198.25588306014043 202.6301644024301 C185.96735621737784 189.70403319761218, 173.87980781343293 177.88949637079665, 164.14168900997683 167.69690693912335 M205.5245955844149 199.76819140920705 C197.0325496490967 192.3070805254413, 190.18430712683556 187.09583372404353, 170.8020408562938 166.25664825773848 M203.86820388424397 200.08443245804227 C194.40777632885892 190.7572469622018, 186.15079046730247 181.53695485245734, 170.32201043680254 165.50826899650556 M210.82283239720212 198.07314921572902 C204.2192422614177 190.60330480934147, 194.81997714814383 183.34298014959694, 176.48415332502825 163.46772216820574 M211.08313987405793 198.17536452274868 C197.3147220061165 185.15085464556321, 184.54835421968912 172.11365917234914, 176.580182777449 163.30541997124857 M216.92668253683505 196.1833350646729 C205.48146990837986 186.0225227679462, 196.03436460011164 174.35441299743584, 183.60441543688776 159.9558914920617 M216.99941310581772 194.56063042669092 C204.973467158906 183.2570257056224, 194.62761461618206 172.1127922992319, 182.42042813921125 161.30504534955364 M222.351397163343 194.0988389832554 C212.55123762342834 181.74706837266504, 199.7335978073078 170.49674578009333, 188.56964863334198 159.04328528796358 M222.5040581868182 192.79910315607017 C212.84144561916094 183.31438539058072, 203.1567992554826 173.52244512307473, 189.46139047332457 159.1136430865623 M227.98106593700908 189.4003082489473 C218.24135777474922 178.97662054325656, 206.89653454471866 169.77085907412842, 194.44643998086065 155.1985169895686 M227.94142478710825 189.88236138484157 C216.16381746085196 178.12441442000855, 203.3538544582625 165.54305648514904, 193.97620591852424 155.73009394991618 M233.68797126786274 188.94330163896538 C228.76787021786598 182.36061155862734, 220.4148995493337 173.76202628991348, 208.22313710752508 160.77367934214553 M235.18878188898276 188.17279372420617 C225.83175653020535 179.1053542949727, 216.36055519159063 169.05714088236428, 208.21074773765736 161.52640645636845 M241.63823406618707 184.03893518078033 C236.73971227611716 182.19124315456943, 232.13325508768187 176.68323035643107, 223.395183736753 167.6646799362996 M240.21821353749058 184.62799447311912 C236.2738254163903 182.049129792537, 233.4997537603241 177.95208468247222, 223.22521185140715 167.35180240550872 M246.05725471838633 183.54060524557417 C243.61063463855538 178.96984043237333, 239.5708162618366 176.3869985432911, 236.21298805683531 173.40517576177663 M247.079993286927 182.83404727189503 C243.34121787895543 179.34863116626417, 240.0624525430868 176.05544079229628, 236.9026610625317 172.89083373203 M253.09124352536992 180.97007490292637 C252.48132547734465 179.97707693675463, 251.52808675593482 179.119597229236, 251.02337453810202 178.87917411944153 M253.22934908947803 180.9837599659104 C252.63635684571375 180.23503864666793, 251.90745379854957 179.52207438517596, 251.143557997315 178.85493379033426 M254.01955262170046 180.48044737829957 C254.01955262170046 180.48044737829957, 254.01955262170046 180.48044737829957, 254.01955262170046 180.48044737829957 M254.01955262170046 180.48044737829957 C254.01955262170046 180.48044737829957, 254.01955262170046 180.48044737829957, 254.01955262170046 180.48044737829957 M247.98650882251792 178.74480859859784 C246.0653213531222 179.84043266642084, 244.10587370539938 181.41487517383908, 240.4419709657397 186.32187986258742 M247.4295062480797 178.093537890836 C245.81492634464993 180.2303059289632, 243.57582294104722 182.72168965845546, 239.69584074908715 186.07019182843482 M241.60544879212082 175.09913142114257 C237.78680732244916 179.80879934141362, 233.1616527026562 184.2761015976201, 224.7210749919788 192.6378778180253 M241.42659779357763 175.7825807421965 C238.22059045503275 178.96747660309066, 233.67760877428753 182.89812012236732, 225.49146868933747 192.3120430182811 M234.54658072799842 173.9203997287632 C226.55849975252315 182.27633970771095, 218.16100277604318 191.93763349052637, 211.59804943990693 196.557001123361 M235.7466143846924 173.14504200459578 C228.81087569495642 180.33675454612228, 222.39918705824425 187.05814176452998, 211.27028101668492 198.04744377393993 M230.8810625023136 170.07317781708687 C220.40818206681482 181.46033558436906, 208.8212949108571 190.0309109040841, 198.15888657399233 204.21184792418012 M229.59278358676676 171.16164545584024 C217.91305262946028 181.99682140281303, 205.99721992289295 194.87808084049, 197.59813795310225 203.51516893908362 M224.40314002534942 167.71888383833056 C213.23362033805873 180.32888158736566, 200.7613214807659 190.62175215333767, 188.8763975225701 203.14152115464748 M223.79812694484934 168.73247501963115 C214.37843639340016 178.16069016343963, 204.52950432316848 188.00509352044494, 189.39541532419017 201.84982315686136 M217.12025195713525 166.61199319496484 C205.041275660953 176.39356545981266, 194.42899690085952 190.1990416610072, 182.55695053999065 199.35781662291265 M217.91608531623518 165.48407030742348 C211.3346107008882 172.81156604586812, 203.60211646619547 179.88451752924863, 183.5295226440647 199.98585238190716 M210.55867545795428 162.99439278920653 C199.19611831947304 176.27992476765277, 187.1961242868024 187.00023416134636, 176.4593201927238 198.22637382500588 M211.18241462097302 163.50753086791846 C203.016533375582 172.01685666544893, 193.23019701482198 181.24420264306073, 177.1900023014613 197.3824446942356 M204.07577365664932 160.28313355471292 C194.63830676319924 170.70896655869458, 187.17675320669747 179.9911955836412, 170.30743989105258 195.0539234131441 M205.08368331017138 161.4900187187577 C198.27037949359018 167.90795163613055, 191.15467832450213 175.4614061964845, 170.7575320914287 195.45452776754803 M199.30117530706306 159.22925080014113 C190.8653310426186 166.94190395245687, 183.6996538923361 175.82060886610608, 165.5884357950064 191.9902532897979 M199.45470202243854 158.91732869008277 C189.09583233070813 169.0449786073965, 177.17327575750653 180.73884875252804, 165.35820912126178 191.91848496329933 M194.48506122566533 155.76947777152148 C180.7158570000896 168.79842544152956, 169.1122009157691 180.61820377163863, 159.25827256486838 189.32256285718412 M193.48306002150994 155.3693519869083 C183.23244553669215 166.3842285262294, 172.92891962824672 177.27006959351883, 159.0254455610094 190.9302595801908 M179.89670326087372 161.82770668293634 C172.85150169500702 170.03228130993608, 162.7128781343412 177.51961378631236, 154.05400082948137 188.96321554896005 M179.9639141655688 161.36528721980105 C168.95074042945032 171.8199143236356, 159.12248762066156 182.55955028443242, 152.86846611177998 188.81685738586404 M165.5357016345831 167.4037513749908 C158.62873333745932 173.77345194067064, 151.43877314695115 181.8929499043111, 146.1349368426881 184.6085591737828 M165.26747624877564 166.6961530633505 C161.32345451629968 170.97185482895205, 158.46204506226948 174.73240683440437, 147.16973766218192 185.47891696046057 M152.35124795200008 173.12558677445838 C148.7281228032119 175.31875159345344, 145.36393522770538 178.8159582825006, 140.46349851279206 184.05052831991335 M151.648706496327 172.7469799804755 C147.98197573412295 176.04533334891877, 144.68243304433705 179.6345398065193, 140.58241611653625 183.22217865589766 M137.43392430400158 178.44132160483798 C136.71390719941806 179.09853284652536, 135.83504265106214 179.8740357024527, 135.22464702587064 180.63345325880815 M137.3875046945052 178.36035160556375 C136.79569795057662 179.06566219752838, 136.14607786342492 179.55226762003014, 135.22158507565456 180.43005437890199" stroke="#ffffff" stroke-width="0.5" fill="none" stroke-linecap="round" stroke-linejoin="round"></path><path d="M193.1430742058903 155.83499253056942 C205.39703953710196 160.90648437106609, 216.96518300135432 165.29880282768607, 254.97152961827814 181.20620390437543 M254.0648039724678 181.45255499221383 C237.29924089115858 187.2651554584205, 222.58488358174264 193.95167025995255, 194.31065256856382 204.81013714410363 M194.36606763936578 203.75101982615888 C178.3921989028692 198.35283916053177, 164.48654836950598 191.92478514444826, 134.10298595763743 181.3351611163467 M135.07163975499572 180.02261339761316 C147.12815568712352 174.8463545590043, 158.32410482917726 170.71660879471898, 193.06475664637983 155.36807740069926" stroke="#1d4ed8" stroke-width="1.25" fill="none" stroke-linecap="round" stroke-linejoin="round"></path></g><text x="194" y="180.5" text-anchor="middle" dominant-baseline="central" font-family="&quot;Courier New&quot;, ui-monospace, monospace" font-size="13" fill="#1d4ed8">Decision?</text></g><g><g><path d="M327.6541122946064 71.15411229460639 C327.6541122946064 71.15411229460639, 327.6541122946064 71.15411229460639, 327.6541122946064 71.15411229460639 M327.6541122946064 71.15411229460639 C327.6541122946064 71.15411229460639, 327.6541122946064 71.15411229460639, 327.6541122946064 71.15411229460639 M335.8217237363008 71.4687984520118 C332.8504684620066 68.18210229070445, 330.2893584511889 64.8157591446634, 327.7863047754686 63.09207461675942 M336.0932516258207 71.51155346854732 C333.94898099697144 69.134455654749, 331.79340047361814 66.61512252786481, 327.92877871467874 63.0115942311877 M345.37114826456445 70.56298639654321 C339.24212993909816 67.38772445164278, 335.20761040929165 61.5961319962686, 327.02399359523463 55.323812169260535 M344.1645635777785 70.71357055260938 C339.3554035917639 65.85631318286121, 334.7197815570352 61.29472397932462, 327.3359180818419 54.63070519087389 M352.5710414075255 70.7876744019906 C344.1390919019046 62.83811239436926, 335.3886228998031 53.598658235254824, 326.93406892596886 45.284820668145116 M353.4322657064497 71.34580777241987 C343.7730065449534 61.957237375289424, 333.8135357537335 52.217565101296685, 327.76974035604997 45.98042211432666 M361.94590250702964 70.89059269308251 C351.8891294303246 62.466033065037614, 342.16372551666853 53.44971223167335, 326.60812588512107 37.603014530799264 M361.89941012638076 70.65688639237685 C353.69370950804023 63.161373899071286, 346.73078619986217 56.83105580978057, 327.72607621058035 36.98317477386343 M370.21169835995164 72.10499322294396 C360.5593266438301 61.2438928779415, 351.94538995541217 53.01396297587005, 328.57931876956627 27.769458210347914 M370.522466564134 70.7969773109178 C358.55123274821153 59.573723948094695, 347.7254936107197 48.312000246775334, 327.4653016219954 28.647727817921663 M378.8140832631666 70.40944044469998 C367.0074028128227 58.5304091100101, 354.2914873824091 45.59715464074768, 331.1960232821122 24.406062565848863 M378.00556099627204 71.03109517648026 C363.7462007502498 57.22295062019401, 350.5269500227102 42.71929156173703, 331.15598272279055 23.608223550871646 M387.4783990135496 70.17781131147547 C369.4235347462516 54.83394200304685, 352.41924459967714 38.281572461178186, 340.5149822820068 23.658730612800156 M387.6254756493574 71.71409838750166 C372.91163381228705 57.632687858574755, 359.42551810528926 42.58546856919476, 339.6430215519012 23.24232768352393 M394.95967490797557 71.42929527639551 C382.2728830987704 57.94793064170842, 371.43934515739437 46.55305341734285, 347.6086650978196 23.40471683602098 M396.0566489999524 71.06568909241957 C381.22763225998955 56.885271382660875, 367.04087580623565 41.63400711068495, 348.23001536758426 23.803588646010194 M404.59262774331955 71.47839429258508 C390.3810806375445 57.0532011884909, 374.5431443324435 42.505021181455064, 357.4289760264252 24.21633568863631 M403.7961757746198 71.54541318967146 C389.6929269125659 56.34080507725757, 374.0649884692021 42.169808095456936, 356.4179651464019 23.31014608676792 M413.0416618164564 71.38492281316921 C400.105614456727 57.410530793310734, 387.40263713797685 45.95963582243047, 365.40750686469875 23.661214123771224 M412.3888069499219 70.62766032769487 C398.8043932655694 56.90114503183804, 384.6405607685192 43.8421192917611, 364.98052811491686 24.16998340423468 M420.6508689242612 70.40400779127285 C411.4666867063768 62.30929169993322, 401.76140522695425 52.276524086935254, 372.60553690951537 22.752291594550645 M420.4519497524212 70.77666390492723 C407.9824839128704 57.85938737081154, 395.62545948494864 45.53301351089815, 373.18901774969174 23.9559277468479 M429.7940283636091 70.036088680021 C416.0775378438491 57.27036895653427, 400.3259497897521 43.51670675616657, 381.6640329577499 22.797820054099596 M429.3006676586804 71.42150106980604 C419.38151399984633 61.586098298417845, 409.3172201805546 50.55783987379477, 382.0374037772887 24.180650013045106 M438.4246069313748 70.87691743253869 C426.8100846522043 60.03920397493861, 417.8180318224903 50.62234445500853, 390.3536493062774 24.651363955543076 M437.7726803952618 71.73109272076887 C425.60429602243175 58.78578768358446, 414.7314414836359 47.88545688174232, 390.2673121742705 23.471664851263796 M445.6257589244336 71.86755850195095 C432.46569707000816 55.23878798290816, 415.3550733956523 41.37935554314094, 399.5247277519729 23.16180025200606 M446.65336393872803 70.98920350625322 C430.1876561482088 54.595397676868615, 413.27675349939597 37.42617312291971, 398.7930251671996 23.94633065994144 M447.6892583277948 64.87332102951724 C435.741335447108 53.68944929338885, 425.8543562722756 41.57526474669978, 406.6572975917113 23.22331839661363 M447.62968270377587 64.29837401283103 C438.95471363184794 55.82040910092744, 430.1497721407802 46.91052857825876, 407.92648123263837 23.186849587515628 M446.664488687826 56.13274871785495 C437.4289484565581 44.37809923370049, 426.61987203089586 35.35590129848621, 416.2110756223678 24.625420342490706 M447.5141794164606 55.55391063843224 C438.71318754679174 46.61645727998399, 429.9353704659329 37.27287505668442, 415.8022750971495 24.21526753242377 M448.53788036377506 46.13705708246219 C441.0981574523354 38.56250216962519, 432.6089024491702 30.713564987962656, 423.5754661408171 23.702920542762314 M447.2994123657175 46.84832284386742 C441.833206430717 41.13812334183563, 435.451661861011 35.567341034474, 424.00265773729535 23.868474143103395 M447.61133765251714 38.90856057646397 C443.112303723598 34.542903947916834, 439.6454778156101 30.256065661236246, 432.61956094393446 24.58594595055345 M448.21138252810914 38.0747502775741 C443.6846664545356 33.554958830738805, 438.68745228963354 30.08395034859125, 433.5825363796385 23.973202817992007 M447.86414936089295 30.37725421102604 C446.53802284468935 27.94902227956935, 443.8329957408115 26.39273847612942, 441.74302993397 23.900348083854325 M447.90118201156486 30.040334794278053 C445.77067874929804 27.889210331159884, 443.3250197009377 25.503008711254896, 441.31658076143594 23.572340692796416 M447.8404037956216 71.65959620437837 C447.8404037956216 71.65959620437837, 447.8404037956216 71.65959620437837, 447.8404037956216 71.65959620437837 M447.8404037956216 71.65959620437837 C447.8404037956216 71.65959620437837, 447.8404037956216 71.65959620437837, 447.8404037956216 71.65959620437837 M448.37091993638063 62.75894540740604 C445.9448905662838 64.74927899374559, 443.2999876698305 68.02873984307973, 439.953583250939 72.1222997014902 M448.16758662366055 63.41660709737295 C446.12300449631795 64.60768056144289, 444.09289359680594 66.83015725990508, 439.1716409341983 71.54472830868582 M447.66111007221724 54.40171100174675 C443.3394684961626 60.44660522155203, 437.2974056007453 63.18242193166652, 431.27957429937175 71.493414468684 M447.4927622895756 54.485895106695985 C443.6533531188893 58.31136169538159, 440.0659430703022 62.35345123310443, 431.2538171110218 71.36817562765697 M448.30252237804916 45.129844439596205 C437.4024016677344 55.05671230202833, 429.81774169119245 64.26893956982997, 421.47706723047685 70.89190771094776 M447.4464019160786 46.139024658322604 C442.91611520844515 51.79802352751858, 436.66519789785156 56.632612026466624, 422.27719016431166 71.62604685015297 M447.078863577924 38.2106222255902 C433.59548242593206 50.72974856141059, 420.1785045257584 64.03076347940646, 414.2422527274999 72.17825037948111 M447.8835658650913 37.99472607884571 C439.63281180844405 45.028575501347134, 431.7242948102328 53.832177262131644, 414.1352838291737 71.08255927748303 M447.39985046871686 29.68354631285369 C433.25063489050257 44.38587254503157, 418.94066420494215 58.18400622497673, 405.00203508731585 72.24975692740897 M447.46384886317634 28.950045266702766 C436.609253247442 41.2236307927386, 424.185520976663 52.82378327530965, 405.69159908217057 71.39335255808453 M445.57646022255653 24.561858279257926 C428.64322418866504 38.207071205633916, 414.01167656881415 54.103564046432055, 396.4630061067998 72.19905430785636 M445.46607476214996 24.145298995077525 C429.87346195448015 38.26589000139022, 415.0572420669775 53.897287424903524, 397.08229314986465 71.40391009039502 M436.7993575115717 23.654112202674035 C424.67882413938435 36.75725175790457, 412.196035512292 48.079424082506684, 387.3614450828268 71.76408197394828 M437.04172366382846 24.110647787153606 C426.9504432045225 33.92970744071163, 417.5405468095847 43.33846057087887, 388.1411795088186 71.12455902285198 M429.1741758821299 23.928893286734706 C416.5168151370383 35.62765529190194, 405.1877312907952 47.19321756221727, 380.41331881227165 70.97809187880969 M428.5252132942667 23.855814541876203 C414.4085939861007 37.4007679327721, 399.71556851251444 51.40875121580663, 380.4247278855946 72.1054702538929 M420.72938213110604 24.706953484564906 C408.60272788946685 33.935914668418924, 398.177244777187 45.842627181333555, 371.06428159200954 71.81964847556569 M419.31676338002717 23.787220157682782 C403.94347085317105 38.84280439874332, 388.52858045645155 54.40867555412983, 372.03706425675557 71.81165843195535 M410.62313055537516 23.654357249289667 C398.9773053192732 35.70576449579138, 385.61592929094326 50.065777151318585, 362.6396752189154 72.66262871734122 M410.76424989767247 23.226129283010874 C397.155982172238 37.09658346501139, 384.36713031258694 50.17986090754819, 363.25497084886376 71.19798195547679 M402.29326295181227 23.2324815340339 C386.65782954244406 39.301311724932766, 371.20254139681595 56.770299974320665, 355.09452898986416 72.32622205726126 M402.18820507376506 23.183650316297893 C390.10111406111287 36.19238333724637, 378.2202144854702 48.00607519499345, 354.9528861384817 71.4841429728947 M394.6073086172923 22.748015791922693 C377.4038512733147 40.10730797747263, 359.8541741298407 58.20840495126891, 345.76355970173097 71.7249304484508 M394.1068173848673 23.13573540598143 C378.43705182160215 38.21646994136859, 363.4388479497925 53.668254669501486, 345.8279048521719 72.12968738264657 M385.01248434869035 22.40296197608102 C373.1278663121561 37.47247132506604, 359.7054850788298 48.331648365277026, 337.3111716513907 70.71856834403492 M385.4609315575419 23.798180450498943 C369.35870379854214 39.77757306451455, 353.0810365135147 55.69953165508401, 338.0247779664968 71.20900483316994 M377.4856944428813 22.544634539633876 C367.8135930726236 34.77561118828968, 357.01552550972707 43.86850678463348, 328.88145663571845 72.16226269713856 M376.83904856835125 23.901625098287944 C361.8363214837995 38.38346833076003, 346.32854087768885 53.98367256663147, 329.5609127080191 71.78632872290231 M368.88353069674025 22.915660435706265 C356.70305789532347 34.740064449659286, 344.7865168643249 45.80712199066763, 328.7192617634546 64.48538514902125 M368.9023256438578 24.166552747785932 C352.38208298806586 39.759954839851524, 336.4604750020581 56.46704065483885, 328.22244036516656 64.41966838841567 M359.29227240714226 24.303979117423182 C347.4571580506767 36.15162625595587, 335.3960114883113 49.0416340548935, 327.9211995819818 55.1405419023004 M359.60957626062424 24.078290547430402 C348.6474749870969 34.42536035858205, 337.89932477783185 45.88446447104543, 327.7902264150094 55.734798977639954 M352.7778863709621 22.99284253790963 C345.7307208846997 29.49869762333329, 338.08759225402054 36.49668846714717, 327.756210825802 48.08301097247404 M352.2422701452129 23.462009395658857 C342.6644357901727 33.06281535494893, 333.7996453488604 41.98395764867819, 327.035433271737 47.02969870138568 M343.736026885075 24.410815150290613 C336.6679261412942 30.38688430066946, 330.7245913183744 36.68373856328646, 327.98713729179013 38.649169312667226 M343.0295332741863 24.057723940908794 C338.5392481450467 28.190920191601357, 332.87163743662745 34.067702576656266, 327.7160931619119 38.6779759580904 M334.5726772760649 23.379054495692138 C332.873226489279 25.84686587126679, 331.0317470998475 27.61326171882809, 328.1193796353649 30.834054635781797 M334.9382333399405 23.735813832655435 C332.47376574009576 26.03511825856224, 329.7761840768597 28.211156609725524, 327.8100727780025 30.68274289587513" stroke="#ffffff" stroke-width="0.5" fill="none" stroke-linecap="round" stroke-linejoin="round"></path><path d="M328.8574322745204 24.61332337409258 C352.4347487047315 22.746150813519954, 375.86001893132925 23.0021438459754, 447.2953728243709 23.241605205833913 M448.48640529662373 23.570073322951792 C448.9193782580018 37.505320619046685, 447.22468922258616 50.8704553052783, 448.8142034247518 71.5135161921382 M448.08809018582104 70.90135976821185 C414.6362643256783 70.82739438170195, 383.89484343379735 71.136877099216, 327.73731461018326 70.61354815512895 M328.2288530066609 71.26348453015089 C327.93189795376065 57.839450822770594, 328.0448489940286 44.16713067740202, 328.75300886183976 23.99076986759901" stroke="#1d4ed8" stroke-width="1.25" fill="none" stroke-linecap="round" stroke-linejoin="round"></path></g><text x="388" y="47.5" text-anchor="middle" dominant-baseline="central" font-family="&quot;Courier New&quot;, ui-monospace, monospace" font-size="13" fill="#1d4ed8">Chart it</text></g><g><g><path d="M333.0333452356902 190.22567284235495 C333.0333452356902 190.22567284235495, 333.0333452356902 190.22567284235495, 333.0333452356902 190.22567284235495 M333.0333452356902 190.22567284235495 C333.0333452356902 190.22567284235495, 333.0333452356902 190.22567284235495, 333.0333452356902 190.22567284235495 M349.47666767244044 197.89386684606373 C342.4379721688794 191.050508968091, 335.7181499046844 183.76946522352645, 327.9992636090402 177.05215869311732 M349.49505810388183 198.8183829522744 C344.7864457207408 193.2452664781987, 338.2817893006217 187.86629430748067, 328.3036925882359 176.9434134465505 M361.4630635708126 202.41574979804614 C351.6169687831579 190.45964811161403, 340.5338849915229 181.64501584375978, 332.325307561455 173.21286496159357 M361.0687256032156 201.72771592576214 C350.7025010613319 191.2441594451147, 340.6828205357062 181.19191236017434, 331.8869141856187 172.3262199669398 M371.04104157636726 202.28618430911536 C364.7729478854144 196.21345400343435, 355.169579020507 187.0297184555207, 336.2941978122683 169.16291334756008 M370.86491488410945 202.47462233181085 C361.74607863037346 193.77963755446953, 352.8023188619947 183.95989196102892, 336.06609582804305 168.45203281227788 M379.8405234116973 204.21231378155176 C368.26830790230696 193.9335482738422, 359.66559654052185 181.0770670613262, 342.1581217090729 165.79343162829713 M380.03782135079666 203.58113204731023 C371.78669416287227 195.2273211256265, 363.0284838854581 185.73133417537224, 342.36867510724244 165.41651467195436 M389.41596464320895 202.51878421144906 C379.77733638930846 195.02208125363907, 371.37429001527283 186.54618315021042, 348.84208688090183 163.4363366125254 M388.4280883138242 203.54048848046335 C380.89777898619826 195.3626982776511, 371.64105628071917 186.44233334452232, 348.4130739588905 162.9535782042993 M396.8159614623085 203.59235096990105 C387.43701088503394 194.24100423573162, 376.1578652235892 183.8281525052943, 355.3561687065345 160.55158160871173 M396.93866377123896 203.35550535197342 C387.37766456736057 194.00702305167687, 377.4486640062859 184.4662368761117, 355.12719613090724 161.01638350488895 M404.0599642477752 201.83359236537453 C390.31384666597535 187.12668197641773, 373.2738521036737 171.17926079458627, 361.2940492838177 159.1006953943902 M405.2177639709608 202.3840302574166 C391.39753103873767 189.24390445150453, 377.69508106996386 175.88854452436814, 360.85321615278 159.24462707586673 M413.55813687864236 201.55176895659017 C401.5055600970493 190.87490252611065, 388.2135006541202 178.5427359521772, 367.5665852415304 158.15535002802767 M412.68498272366367 202.32755398012296 C396.4130058947995 185.42461892140474, 380.20427906264507 169.6456737049845, 368.2873971474286 157.2668596378089 M418.1093906401296 199.83785745845515 C403.56763800487295 182.77973423121983, 386.70871097911305 166.9679658520434, 375.9145602710792 155.88511338071794 M419.53557530870785 200.39799439710904 C403.9870372313761 185.2450529617564, 389.11818250598736 170.5167842191672, 376.3990933629 156.78198866141855 M426.68520456720273 198.02337108562293 C412.66953654284816 185.18341161967692, 400.72707662484964 172.99922866491244, 383.2782919076836 156.00205591736815 M426.9305288176996 198.47026682263765 C411.57259542347845 183.32517165438682, 396.6685353370839 169.09241158582594, 383.40660695355444 156.69763514871232 M432.52816441389496 196.25389852181414 C423.1171017936933 186.11678585269166, 412.23421586293006 175.75605399087533, 393.1814518739365 155.21957104025861 M432.9013511238131 197.14957297753878 C418.85020889177775 182.928873463108, 405.3805716513527 168.3604568185195, 392.96725832362546 156.2827039765798 M438.65710334042603 192.66924460693596 C429.03525178044606 184.3316455836558, 417.49144481664507 172.580534833577, 402.4722457362441 156.46855474548315 M438.2614615689083 192.64529167632907 C427.709139159832 182.02613930418394, 417.3434493381389 172.25759407429916, 401.12481578365987 157.07731355322426 M444.0509222567618 191.26225068064167 C434.6242646329731 183.00190700196848, 426.73999542739523 174.16644744395077, 411.2930196860126 157.34201240413535 M443.79626130709204 190.1235491707711 C435.2856715121866 182.6003271346312, 427.53670113955826 173.66472564275162, 411.88535233170455 158.6311525993486 M447.5329152295625 184.23811998927908 C437.59813246421993 176.7100039347745, 428.6771998278901 167.78347191890524, 422.24986732083494 161.33966554349567 M446.5537087116649 184.96029455682205 C438.78126869100373 176.5421569019793, 429.01337804960997 168.26595659824352, 423.3931024344929 160.8418369293427 M449.0275053740067 177.66504533559018 C443.7998058124646 175.32371688806512, 441.88049923906743 171.2911106206066, 437.53571212961486 167.78259129026443 M448.6113452883584 178.1615510065847 C445.6122921712492 174.97204842859296, 441.97270232561544 171.5415832529878, 436.83497803597857 167.28715737366588 M443.13043357996094 189.98620591517698 C443.13043357996094 189.98620591517698, 443.13043357996094 189.98620591517698, 443.13043357996094 189.98620591517698 M443.13043357996094 189.98620591517698 C443.13043357996094 189.98620591517698, 443.13043357996094 189.98620591517698, 443.13043357996094 189.98620591517698 M446.4666173797308 176.07787460676352 C440.51042298646144 181.97238104179323, 435.6410309775811 188.29247934187228, 425.0863873885961 198.7522156589943 M447.17096982060207 177.4745479052044 C440.33349871145316 184.59003142849883, 431.9125120383522 191.78633176508242, 425.97803875319823 198.0552363693061 M443.503044554826 173.06146944030326 C434.5401465315476 180.76772818689753, 427.6312627802959 188.61288341489478, 414.2134391802341 201.52063143263194 M443.64942018357306 171.95944468896042 C434.2438972575381 182.45512699394922, 423.0309115254489 192.8112394998726, 414.9889924329683 201.8516941673178 M438.09296789960376 168.175753895176 C429.1536661997265 178.2757949080218, 421.8365474467869 186.06455501075393, 404.308608113957 202.1545299177002 M438.430372796854 168.64754906127357 C429.09504985568725 177.75109193915307, 420.6768527784464 186.7756390568297, 405.20486840771645 203.13516997796853 M433.37966591784357 166.10030103010251 C424.5454284803808 175.0635016559241, 415.18698475270276 184.34751129394152, 396.41611797498473 202.23878889147937 M434.3220048458651 165.342695555474 C425.5961035993835 173.3974767594821, 417.78892593811327 181.28526288403964, 395.585765706803 203.9044514906481 M428.01673739476485 162.56061362236295 C416.46113651292865 173.36147517169567, 405.7843556962043 183.8050511468063, 387.3743331735368 203.1203955062497 M428.1047278599663 161.94835936095123 C413.182659186076 177.55144190444102, 399.01053370106274 191.90509443184328, 386.0040880470882 204.01789670724605 M421.0590285217741 160.43719704305124 C407.63566567271374 176.40797848746158, 392.19541268114233 190.51231057296602, 377.59957908839266 202.32462594573198 M422.22836483720477 159.87047919840853 C409.16563965592053 172.72000395848139, 395.93000521886 185.58036917328243, 379.2346141764922 203.10336359859255 M414.5180261152774 159.41016603826097 C397.8619880914443 174.08217013205078, 382.10320124760716 190.52712469286791, 370.5988945985854 203.0422928933929 M414.3737934631273 158.3558141010489 C398.98494314855924 175.54223219826147, 381.895075230407 191.85794478575573, 370.4735004056886 202.93920757276373 M408.2243576166812 158.096744729086 C393.9216112947092 170.71594036925774, 381.24175547951677 184.297607211977, 363.6751727705214 201.22460484532635 M407.52169611078085 157.9231934145756 C390.9036241052081 173.6970893705349, 375.526668908363 189.77453828457365, 363.44967129522445 202.44289078796277 M398.99739787357794 156.6816598304335 C383.5721486806329 171.41237960135672, 369.2660111119624 185.4982761956009, 357.18966085797973 199.7206661102529 M399.7284166218986 157.68766001600508 C389.69951132978093 167.25044207875192, 379.10739139918695 177.30686493064107, 356.49356965551954 199.90223215251967 M390.8935555773743 155.66885421339717 C379.0980186076482 170.11789397018444, 365.8650560976606 181.73961819129264, 350.47471283380736 197.36472427782593 M391.5804967445277 156.60593387604052 C380.82320904403576 167.56528585087523, 370.59814956958843 178.02324260696923, 349.45615907856126 198.35640479319719 M384.77588004447614 156.1118801240708 C372.7849227306721 164.6567576676042, 364.8208925622934 175.81835692015045, 343.7673572017833 196.04260240676612 M383.1705329142148 155.60055527788506 C371.3813176293424 168.19969659289146, 359.39736935488077 180.40554666560138, 342.8487417497694 195.95611824332536 M374.162347653917 155.96561274592128 C362.5635889539683 168.22089750656085, 350.9734005625115 179.48601704273207, 339.6291563095006 193.87183971198067 M374.3517126916339 156.4053483796149 C367.4824825521078 163.5130132939921, 359.5912206931921 171.35121662400766, 338.2690677608776 193.03750912992075 M364.7310025344759 156.38110951266918 C352.04127956777495 170.36526563645933, 341.1431423000114 181.55300079698412, 333.28738600480574 189.460511908123 M365.24920544970485 157.75403052706008 C357.13694561681103 165.2061769526465, 348.5053737494735 173.46139012018546, 333.1487647663729 190.4747115172462 M352.51138875281305 161.31417792015455 C348.4923261503387 165.79381826897236, 343.23296492100457 169.9634988266146, 328.47571022885114 184.66655661654067 M353.25784456172823 161.0825300656699 C345.03566525602815 168.67778692263448, 337.24471756376255 176.83636090045303, 329.60026257654846 184.73293231375857 M338.85627167703984 166.8219020752919 C334.30629327522223 171.4702531372693, 330.7506014812085 174.75003674723155, 327.91166975128283 177.08192398014432 M338.69095063858134 167.45005464521546 C335.80537291017595 169.9527613963541, 333.4797140279862 171.85458527755208, 328.8838732502685 177.19702351492785" stroke="#ffffff" stroke-width="0.5" fill="none" stroke-linecap="round" stroke-linejoin="round"></path><path d="M328 180.5 C326.81593859232964 199.14699895721853, 378.49165421761575 209.56295252645492, 416.800269735232 201.1049990744853 M418 201.28460969082653 C436.17356967513854 197.01663864239214, 449.1770065072924 189.15548766874733, 449.0895137790591 181.21962895952166 M448 180.5 C448.90800662077964 161.2123830396217, 398.23671525754037 150.5599827321422, 359.0302871350199 159.90568485468984 M358 159.71539030917347 C338.3536896754295 163.71947262824418, 327.85013837851585 171.5552951802963, 328.5183539632708 179.56416104398667 M328 180.5 C328 180.5, 328 180.5, 328 180.5" stroke="#1d4ed8" stroke-width="1.25" fill="none" stroke-linecap="round" stroke-linejoin="round"></path></g><text x="388" y="180.5" text-anchor="middle" dominant-baseline="central" font-family="&quot;Courier New&quot;, ui-monospace, monospace" font-size="13" fill="#1d4ed8">Ship</text></g></g></svg>