<svg xmlns="http://www.w3.org/2000/svg" viewBox="-76 10.833333333333336 568 222.33333333333331" width="480" height="300" role="img"><g><g><g><path d="M60 122 C103.30231402926147 120.80050648041069, 103.24831590466201 51.89036727336546, 146.8003776293248 51.06187847045561" stroke="#1d4ed8" stroke-width="1.25" fill="none" stroke-linecap="round" stroke-linejoin="round"></path></g><g><path d="M143.6107658195441 58.63028547951736 C145.39249820948464 57.3850104289876, 145.70821273944466 55.68930693640777, 147.58010609919205 50.49484743292754 M147.70804417109116 50.753516075157876 C144.44166057172504 51.36935425221654, 142.20563292095946 52.09679109265353, 139.20572155113885 52.50156714109556" stroke="#1d4ed8" stroke-width="1.25" fill="none" stroke-linecap="round" stroke-linejoin="round"></path></g></g><g><g><path d="M60 122 C103.30231402926147 120.80050648041069, 103.24831590466201 194.22370060669877, 146.8003776293248 193.39521180378892" stroke="#1d4ed8" stroke-width="1.25" fill="none" stroke-linecap="round" stroke-linejoin="round"></path></g><g><path d="M138.69976427033166 190.76581901731114 C141.46851283006987 191.5672775153432, 142.7665822147223 191.91145489755888, 147.58010609919205 192.82818076626086 M147.70804417109116 193.0868494084912 C146.1480362214073 190.1504583795034, 145.6282230981341 187.3141390324941, 144.1167231003513 184.63710067888937" stroke="#1d4ed8" stroke-width="1.25" fill="none" stroke-linecap="round" stroke-linejoin="round"></path></g><text x="104" y="157.58333333333331" text-anchor="middle" dominant-baseline="central" font-family="&quot;Courier New&quot;, ui-monospace, monospace" font-size="13" fill="#1d4ed8">maybe</text></g><g><g><path d="M268 50.833333333333336 C311.3023140292615 49.63383981374403, 311.24831590466204 51.89036727336546, 354.80037762932477 51.06187847045561" stroke="#1d4ed8" stroke-width="1.25" fill="none" stroke-linecap="round" stroke-linejoin="round"></path></g><g><path d="M347.35150810506303 54.40002914248927 C349.98715968198024 54.00688173047512, 351.1548597898877 53.15736262770459, 355.58010609919205 50.49484743292754 M355.70804417109116 50.753516075157876 C352.6636635761112 49.28544691980684, 350.65539643939985 47.927446670821205, 347.8574653858702 46.53402368258414" stroke="#1d4ed8" stroke-width="1.25" fill="none" stroke-linecap="round" stroke-linejoin="round"></path></g></g><g><g><path d="M268 193.16666666666666 C311.3023140292615 191.96717314707735, 311.24831590466204 194.22370060669877, 354.80037762932477 193.39521180378892" stroke="#1d4ed8" stroke-width="1.25" fill="none" stroke-linecap="round" stroke-linejoin="round"></path></g><g><path d="M347.35150810506303 196.7333624758226 C349.98715968198024 196.34021506380842, 351.1548597898877 195.49069596103791, 355.58010609919205 192.82818076626086 M355.70804417109116 193.0868494084912 C352.6636635761112 191.61878025314016, 350.65539643939985 190.26078000415453, 347.8574653858702 188.86735701591746" stroke="#1d4ed8" stroke-width="1.25" fill="none" stroke-linecap="round" stroke-linejoin="round"></path></g><text x="312" y="193.16666666666666" text-anchor="middle" dominant-baseline="central" font-family="&quot;Courier New&quot;, ui-monospace, monospace" font-size="13" fill="#1d4ed8">yes</text></g><g><g><path d="M-55.16239761925881 131.52992998740592 C-55.16239761925881 131.52992998740592, -55.16239761925881 131.52992998740592, -55.16239761925881 131.52992998740592 M-55.16239761925881 131.52992998740592 C-55.16239761925881 131.52992998740592, -55.16239761925881 131.52992998740592, -55.16239761925881 131.52992998740592 M-38.297282933127065 140.33179388753854 C-43.795461507786065 133.39195348740088, -50.23059478516821 126.84457591394481, -59.56332649428425 119.67288950847212 M-37.813604846838786 139.55669710878067 C-44.54613147271196 133.8309049894224, -50.45823158127893 127.18394173073564, -59.022440698445116 119.17114045915875 M-27.80903695426483 142.05891217773197 C-33.96470811928701 135.0847348016768, -39.85994536219777 130.6031878635222, -56.8296905790551 113.5052327875227 M-27.40790454778422 143.12130540327516 C-36.694398749997546 132.18700825912413, -47.29592070314423 123.01897299411449, -55.717369254222355 113.56790378859195 M-17.973845403864566 145.0843699298443 C-24.59498175447681 138.4696808112898, -29.99568583086104 129.7929033983043, -50.49469319801047 110.96823669620713 M-16.56907074231613 144.1620575343834 C-26.1027528291519 135.19261730527742, -34.16165334775601 127.43851962166097, -51.2603135948555 110.10606058915069 M-7.42003851245845 146.03528124928079 C-16.817922020077802 134.82946207985074, -27.615217529249534 125.10141260053284, -46.94353180024219 105.88449187137104 M-7.380578924638575 145.1890449024325 C-17.07424476796474 136.04821665020762, -26.222640060262286 126.27226602334206, -45.941421120608275 106.76910848010249 M0.8032748332347381 143.77657533526028 C-10.566120622815038 133.31556493842862, -22.08965629173891 120.81745892362613, -39.641255366282486 103.63033116841974 M0.8456995673577893 144.46091618906314 C-10.34203210343707 133.7418034599604, -22.756303038649627 121.3948040792179, -40.20705795068475 103.77377948677453 M8.252920652682809 144.612710043188 C-4.054856122987144 130.7887158951249, -17.743682731781384 116.79314807253216, -33.64158475166358 102.40200931775854 M9.4774611144689 144.80534091960246 C-0.9930021255918633 134.6990036726469, -11.25650306373817 123.7931456116025, -33.68737926678903 102.25496969699398 M15.782839527980475 143.55385154109612 C8.023290733482401 135.12214418516666, -4.319207448348502 123.47816067942982, -26.40283981166381 101.37477580004652 M16.734399472617593 143.90393911950454 C3.292777973349581 130.7541650542663, -9.729460924461007 118.28134416478322, -26.73100643787134 100.44356213634182 M24.385013728595514 142.93180143439005 C10.503900570272355 128.7602987100373, -4.6278749384441635 113.8205017751199, -19.01147837062888 100.05433587687554 M24.210382897599775 143.32695843909661 C10.744533000286333 129.53768271393852, -3.4286668976851393 115.45043913911385, -19.347315989449246 98.43663779883178 M30.866433305436082 141.85196285991532 C20.405691073861284 128.5282007820048, 6.682689620637543 118.85463105809777, -10.412236909090955 97.8217099036509 M31.631670239151724 141.0039902476461 C14.034453472976193 124.48698445896866, -1.9866042317461363 108.01404395080624, -11.7553302907268 98.96108495979102 M38.7184503403431 140.83769473545038 C22.917269062202447 125.67177626313698, 9.370702926926215 111.59686552050754, -2.7169509073284543 99.1994129860317 M37.80751519044248 139.48707388285334 C25.493221994277565 126.69519684793421, 11.829938666098768 113.88617352332217, -3.4112878981542862 98.85852883230054 M45.458211134224705 137.3467439478409 C35.07367418772425 128.7369969915563, 23.87607969604497 118.1238333136664, 4.864799404126437 96.89580922942324 M45.05284847620832 138.48587883898585 C33.98029560734115 127.30202874750651, 23.225350853729488 115.60732811306218, 4.341960694064231 97.34843581668748 M49.68379689417557 133.8013860401191 C38.17905952846313 123.4788792337397, 27.215311133979576 112.95367008200058, 13.116868700928046 98.67129139541738 M49.12466853987203 134.5165954539977 C39.04459710832653 123.42853808183153, 28.076472142264564 112.81984203413123, 12.847382710411205 98.3130431569656 M54.808044077036634 132.69724555506326 C45.034261135222906 121.20617838932542, 34.547861851156846 110.52954103477138, 22.800619440171083 99.49735377704631 M55.23711188710268 131.02950525308916 C48.41327809063119 125.39369202131805, 41.53231519156238 117.79540289839899, 23.39908596930947 99.27518181608897 M59.29286979634294 125.4126214421461 C51.055921908792214 119.6000868621009, 44.46174404704403 110.60478912444479, 35.00295576632336 102.07962610471532 M58.377028492763436 126.0370563556547 C53.50203952965224 121.18060800435546, 47.46180051171868 115.4387070539535, 34.27160278905497 102.94006038188473 M61.011158675130275 119.40115226191593 C56.12005104338357 115.83359653265458, 53.40489968894778 113.46378523940653, 48.5098332270641 107.989694653663 M60.159926658000614 119.50045339611484 C56.754555334544996 115.87585334064174, 52.282798985702506 112.21392192580498, 48.56168640833685 108.27460787034327 M55.1245535634954 131.49208593164258 C55.1245535634954 131.49208593164258, 55.1245535634954 131.49208593164258, 55.1245535634954 131.49208593164258 M55.1245535634954 131.49208593164258 C55.1245535634954 131.49208593164258, 55.1245535634954 131.49208593164258, 55.1245535634954 131.49208593164258 M59.665902873144795 118.52808202087358 C52.38276581935145 125.25778745712452, 45.83771859303224 131.13297594168347, 37.93929412644073 139.5535129797969 M59.326773361319056 118.80741668056176 C52.62811031494614 125.10204688506197, 45.612744155782806 132.11247577692185, 37.63762439936116 139.65411712185926 M56.72476118341765 113.48500301293686 C45.99858740607133 122.94418548913134, 39.098879928945365 131.47114726160643, 27.193737685580505 142.84993783432134 M56.27403630916706 113.74459806266829 C48.56682439532287 121.69767357521074, 40.52595164317535 129.80717168212513, 26.388848336127353 142.43615038125853 M50.722947877728544 109.67943277916523 C43.04169547740808 119.96024956160232, 34.310046627429294 127.82622668153961, 17.773175523035754 143.62808838123348 M50.55042885717859 110.01379181238474 C41.687722650031446 118.3827254873515, 34.175858135192414 127.69586001027767, 17.472427581787635 143.82421639328714 M45.82048950673183 106.43591508140435 C33.892881719524915 117.35600267520961, 23.817089089811645 128.37690848699074, 7.880766970901206 145.65062560093855 M46.48895729233613 107.24439398647864 C35.06301674332545 116.9861412803845, 24.57747732689374 127.96780238947366, 7.714696517264858 145.2637581207723 M39.742420402522185 103.94523590005947 C29.087440208153687 115.48936928410009, 19.088224026807545 125.44194449712349, -1.2815005137284743 145.9126323488419 M40.480018495562476 103.34278504777713 C31.100567274469817 114.0584390427897, 21.351054163066145 123.36425756267116, -2.035549539018189 145.61213258904115 M34.2197098033809 101.82349630934941 C17.73231286480741 117.86037696699289, 0.3615378977317306 134.4839677528552, -8.978991005198916 144.70779301178908 M33.49357706646704 101.47015274042087 C22.692921126628022 112.34394407669876, 11.659091508740023 124.26271985013486, -8.891983987579007 144.6235405423612 M26.29465507258918 100.00671925849288 C8.370274937849 117.5342926072244, -7.370480969659542 135.81228205812891, -17.081667577601987 144.76564097637203 M26.26580854215916 100.75584887105046 C11.914751753463296 116.144332220659, -4.738595551565618 131.6828484595563, -17.586746416181345 144.5050239122462 M18.3333816984283 100.13834957170864 C5.953170525594295 113.74811159503128, -7.5845495415000235 126.98619386763094, -24.208951617656435 142.3964179418095 M19.392849397248234 100.10363930880656 C3.3559482703514485 115.37796621262935, -12.234816490416055 130.62882971683555, -24.734051912715817 144.08007513033675 M10.745450075366048 97.84964716702892 C-3.0833961135019474 111.53958747149254, -15.166961276322324 124.05910443942764, -30.117222824707877 140.87857391994706 M11.131653825030176 99.49084720414324 C-1.2964648824796412 111.50428256458619, -12.637226517684725 123.4579047840503, -30.736441065199923 141.3948871284004 M3.382141941683686 97.56140061867241 C-9.069698530035856 111.82373953545856, -21.728923053634883 122.72071640128172, -39.03706667903476 138.7960147035632 M3.2795301751143695 97.98881655120108 C-5.147116435557846 107.05572443248263, -14.347216344848313 116.30240379810245, -38.04077743008398 139.47435080663746 M-4.543932839337543 97.5643203758579 C-15.041834490691521 107.81431319009121, -25.175657829893915 117.14765034612711, -44.9897066299827 138.75453405450355 M-4.625002265389815 97.46205540662075 C-18.345655316234648 111.34469366349238, -32.26786919886428 124.83128790577167, -45.17342972038548 138.2572372218154 M-13.060549841789483 97.62075232517724 C-26.403166469116222 111.64391406065593, -37.37868898275149 123.03442280323408, -48.8171447830839 135.01195439080024 M-13.022676834246097 98.18869945191597 C-23.942269967860874 108.09445933252853, -33.69550934136736 118.31708700025497, -49.089162492808505 134.84508827438825 M-22.780729390017797 99.70953710347604 C-34.79851163788116 111.89252847638565, -47.86675091049986 124.53868732755659, -55.09098224361677 131.38694713023176 M-22.197088806972015 99.0241213063542 C-34.49937842807395 111.13193657508027, -46.394304620607436 123.19159102765406, -55.59870649130334 131.8297870520564 M-34.36130437048741 102.0845779097193 C-42.3784386702919 110.14766782811665, -52.083632695468374 119.63492571895473, -57.92174452355388 126.46835809727062 M-34.45201320870437 102.27824833882238 C-41.67260033500247 109.59037101003545, -49.72078120793782 116.99207714008138, -58.89683405401442 126.7216332367142 M-49.45172170957605 109.0932915652899 C-53.152583002469136 112.45882035993667, -56.29957994352314 115.55063566418038, -59.56023804401678 119.40089189554975 M-49.82078591726775 108.71492207927461 C-52.615283762874775 112.11434924456745, -55.28829432409953 114.53459280559385, -59.36579734421965 119.08791180250644" stroke="#ffffff" stroke-width="0.5" fill="none" stroke-linecap="round" stroke-linejoin="round"></path><path d="M-60 122 C-59.75681228153407 140.98956668269813, -9.421669156476863 151.83036170357943, 28.800053947046393 141.78868756755827 M29.999999999999993 142.78460969082653 C47.52596561943585 138.02126581802128, 60.23540130145848 129.63059685998618, 60.69790275581181 121.66392579190433 M60 122 C59.22160132415593 103.84230971666992, 10.527343051508083 92.95422534814001, -30.273942572996006 101.73344921827675 M-29.999999999999986 101.21539030917347 C-49.260513749322236 106.40595643610598, -60.98997232429683 112.8715597098225, -59.89632920734584 122.29283220879734 M-60 122 C-60 122, -60 122, -60 122" stroke="#1d4ed8" stroke-width="1.25" fill="none" stroke-linecap="round" stroke-linejoin="round"></path></g><text x="0" y="122" text-anchor="middle" dominant-baseline="central" font-family="&quot;Courier New&quot;, ui-monospace, monospace" font-size="13" fill="#1d4ed8">Start</text></g><g><g><path d="M148.30620476080784 75.13953809414119 C148.30620476080784 75.13953809414119, 148.30620476080784 75.13953809414119, 148.30620476080784 75.13953809414119 M148.30620476080784 75.13953809414119 C148.30620476080784 75.13953809414119, 148.30620476080784 75.13953809414119, 148.30620476080784 75.13953809414119 M156.99265116877427 75.65688117284388 C153.7997849191304 71.60665915499158, 150.82217363887386 68.22643130712335, 148.0123010012389 66.5058785680984 M156.58841511353424 75.49825868111164 C153.8090411866128 72.24247116171567, 151.39419465008848 69.28574832342588, 148.263537970844 67.00563837531254 M166.2500041200254 74.2439751451096 C160.26807400714637 70.97965257310983, 157.75375796739542 66.38680007057502, 147.39114541112193 59.339106657229685 M165.34671177663245 74.61926722314269 C160.62471083347924 71.07321758812272, 156.60984354126722 67.0953667115067, 148.4471076544256 58.09255316803636 M172.89259137862524 74.35631914783329 C167.30048520059597 69.0665007446983, 159.17966628727365 60.70118925286952, 147.34618307648907 50.076970219552685 M173.62320352808734 74.93538583304793 C166.21744252212034 68.32606323515839, 159.29212271423884 60.91064268589044, 148.66401879152963 50.12477094264345 M181.82266261549657 74.40777829337925 C174.64089287804495 66.76065657906501, 165.1840783715215 60.05838361268745, 148.38321155606516 40.793426463760476 M182.69941642517213 74.59092514302641 C174.56172421571011 67.48978569727454, 167.68615001192566 61.53051410293376, 148.0421867187948 40.78350658529256 M191.39820122907688 75.01497855830998 C176.83582230853207 61.150058699815595, 165.24357259008457 48.5498123745413, 148.16880799828778 31.634007616415516 M190.65358533116807 75.2609706022969 C180.3744160478421 65.35579154552063, 170.71890579197688 55.482289007741656, 148.51179942450236 32.973142420202386 M198.74203436780368 75.36720216918795 C183.06953953579736 59.65970182778045, 167.000589454329 42.282082226887674, 151.73782042634053 26.77032927882652 M198.6377732343564 75.3780295350781 C186.53564700591542 62.901041972871795, 175.61051979467547 51.33371059617318, 150.8178001466797 27.27140977133791 M207.31683293011443 74.0513876025757 C194.49648827512064 61.38589806580263, 179.85929335336675 48.174663446401624, 159.43994061340717 27.596663302302154 M207.69037124801832 75.1195311405888 C196.07813653188234 63.107698830042914, 183.82136538722077 50.670375894190244, 159.30396024835437 26.48846183766404 M215.3001115644467 74.67712958503574 C199.188175506452 59.3679467195756, 185.2609942871547 43.96009585878352, 168.4294227084328 27.46965641391258 M216.74859861043515 75.39532649304778 C199.66743391273312 58.03785251555724, 182.84904109865641 40.687205792369525, 167.84009784331514 27.369092318907185 M225.55922866923797 74.70167909313054 C208.78810811559987 57.82343296390955, 189.94529738935438 40.82550038669667, 177.58221885985492 26.67546584022026 M224.26100268488813 75.63518854167373 C212.23279832220794 63.05746835583731, 199.50056040095956 51.0537011653705, 176.7767134198433 26.522371039286064 M234.02638639292567 75.8549433534226 C216.5865788358412 57.89549608906396, 200.52101611693513 42.45597454409283, 184.61412496611098 27.597905057787703 M233.39995895965845 75.17631211068543 C221.63919148024956 63.45975159894166, 209.64705156896324 52.02001506614199, 185.30063559122004 26.95228969801943 M242.07363063394737 75.3644858424744 C227.84772870458482 61.68369247734159, 212.10416272892707 45.776383434896125, 193.65578067563854 25.943443793177412 M241.6741710480274 74.65081389930158 C229.8779008693012 63.946170457551915, 218.79504010731816 52.87863497957311, 193.04752109572672 27.44526186932604 M249.68785104074058 73.98052628684849 C233.16556353506988 57.93461224809769, 216.76824055607264 42.53625219596508, 201.2276693868751 25.966208022951886 M249.74117068827627 74.97323248174101 C240.5561949552996 65.71411219651787, 230.04019761319026 54.7161325517428, 201.71435479664453 27.55762300242464 M258.2457810117428 74.40094066310733 C242.68446998364894 59.22779515171249, 229.69234031433666 46.02326213729219, 211.01511824825818 26.892979973673626 M258.21981774368624 75.12802830722242 C247.89708424342507 63.70104228219364, 237.5645009219892 53.354720829234616, 210.67194968225473 26.603130421533987 M266.08899769539147 74.89626119781347 C254.52992410700534 61.60263860687772, 242.2528200118025 49.75113012896917, 219.84329815822517 26.148198121905146 M266.90280020253863 74.7570836999646 C254.27893317150603 62.16811887549746, 240.28989431488876 48.64991906631215, 218.57744686583854 27.440463325872837 M268.320747397072 67.15650177447732 C253.0374025473688 54.65518249705332, 241.232895654426 39.337072918182145, 227.65222376521368 27.378957194208905 M267.39095958506255 67.76902826613421 C255.04082384740514 55.517394608488935, 243.17733579634464 43.00143704162795, 227.3868155856772 27.060722789659902 M267.80836257708756 59.74357493152689 C258.7704281799301 50.72245344029427, 251.3839094517595 43.02937395734766, 235.4717534676612 26.880008167147444 M267.3332079414049 59.15415589181553 C259.71254772504693 51.54163246343602, 252.14165866927812 43.087860836446765, 235.56735320505206 27.574931762113973 M268.74505841506215 50.50308842671123 C260.33029077497616 40.82090478592653, 251.41875851756234 33.429531439264046, 243.39658941400518 26.41875826728326 M267.22582441603333 49.958721307413846 C262.7872704991525 45.39817060701733, 256.6630458363839 39.679327075420915, 244.51018521224427 26.801535067453802 M268.2817870594332 42.64619948659283 C264.5651649453678 38.99626602271341, 261.3468277508821 35.36792263888137, 253.36127750268315 26.860270971178828 M267.6818094972292 41.92929433714789 C264.55134631083655 38.2022934641244, 260.5678149878938 34.981864982558875, 252.94276522053514 26.853899404898108 M267.5381929136211 33.8079056167546 C265.5947006961467 31.32863419812728, 262.96939493807196 28.737700090271524, 261.83565268482016 26.847472037829267 M267.9617092389571 33.5044459083806 C265.6313021549247 31.163728223922547, 262.86568042460874 28.697835207834263, 261.21742809855317 27.08846834230031 M268.29029568922374 74.54303764410975 C268.29029568922374 74.54303764410975, 268.29029568922374 74.54303764410975, 268.29029568922374 74.54303764410975 M268.29029568922374 74.54303764410975 C268.29029568922374 74.54303764410975, 268.29029568922374 74.54303764410975, 268.29029568922374 74.54303764410975 M268.19555375960323 66.21007155850427 C266.1238285994819 67.32358415144881, 264.67284901383135 70.53184271353975, 259.7442447297631 74.41438939266563 M268.6338871032432 66.35890240348773 C266.4132502397971 67.45314961059564, 264.90966665261726 69.4129160972506, 259.5332735713928 74.30560369626343 M268.8006488275215 56.82881366855535 C263.7631364399447 61.56868172860388, 259.04504871738834 64.63364635850883, 250.92459956686022 73.85994677626253 M267.81647493620073 57.77090572102997 C263.082293125864 63.098116240366366, 257.29447555187505 68.5132735589232, 251.21172097268524 74.69732735574901 M267.92135498043746 47.950239700360775 C257.34957878778965 59.23538946906724, 249.66607997497562 68.9326719275112, 241.78070534529346 74.75919339739441 M268.39329474945214 49.354829809723974 C262.9520199704166 54.09936664364627, 257.28097690284824 59.662245305391856, 243.08076681221087 74.82626296699702 M268.50952558037494 41.44798790623847 C258.3329931040871 51.14239297444043, 248.23039160430488 59.9870129831338, 233.9206574066857 75.40236473166107 M268.0118767239586 41.04003983286622 C261.1331164965359 47.31034774321601, 253.1847454477348 55.10626117330371, 234.76717295752263 73.95451918066203 M267.47001902577136 31.741809262750934 C253.16104155067106 48.82916544132387, 236.32077483365228 64.21351365553501, 226.25790789947442 74.23811800562498 M267.8020182230011 31.67505873967547 C254.4385273526499 46.34804456517738, 239.1413798430218 61.233402180701475, 226.30268989690174 74.70991582096276 M265.14411034031804 26.352538121206884 C253.01146629795895 39.125770783118575, 239.687366375965 50.68234331558617, 217.7457527220971 75.4127666958487 M265.3889176101148 27.04425847911668 C253.3265851808665 38.255180180996724, 240.5101491250467 50.8792050048219, 217.15539624362953 74.71519458711803 M256.51291829770634 27.098665082914938 C240.89369930082043 43.20918717132243, 225.0356527631372 57.28692555776053, 207.75233152299128 75.19528052889467 M256.9341013738347 26.426932875154723 C247.13783494545805 36.08708890065743, 237.62456063592066 46.19979157780958, 209.04219873598717 73.97551905334652 M249.65768679586614 27.236055624945273 C233.77005411252816 42.759788765010754, 217.28885996526958 56.95922212430547, 201.23562770059445 74.80228548132538 M248.43320550193454 26.29951625251602 C232.41594353705935 43.34634508544583, 215.45277857612916 59.36698895110015, 200.34133223725595 75.06597466886699 M239.992649233235 26.425085723860356 C230.3786959136917 35.905592341200716, 219.15762824548327 46.667274709726556, 192.3184684033441 74.02306377970336 M239.58633985769558 26.265219060419295 C227.1490673955438 39.25903720636291, 215.2332960851155 51.25029889612469, 192.50485973571713 74.9190687578982 M230.69688275825024 25.898787606222722 C215.31501782940708 42.683443540265806, 200.2176775911051 58.28010209216645, 183.86352452967773 74.44455390059113 M231.0674424293989 25.984673623083328 C214.5889564291998 42.59425285156546, 199.17787827523725 58.7525437969709, 183.27117234465192 74.61223051965891 M223.4893082693495 26.887849748594853 C204.91263925387318 44.596616981526154, 187.56834295692207 62.94776333035716, 175.84831072803283 75.47635057055115 M222.53677933032588 26.56343413972685 C211.7426076252761 37.933826675614434, 201.59383172538628 48.0489987165565, 175.47748930234158 74.75531102836787 M214.20369041497023 26.64561687753925 C200.85133554425772 40.07588916903792, 187.2681708604522 53.934763768004586, 165.74018539684695 75.17570476614594 M214.25344479875776 25.939476684568618 C201.5525359917118 38.94586997767554, 189.84510794373847 51.48008845381052, 166.67235797206743 74.47808323324381 M205.16363759354994 26.473089969618428 C189.66237626449058 43.566796954903154, 173.33453342369043 58.61303769914569, 158.47135068455754 73.47252371393799 M206.28786119797573 26.27069920682739 C193.37072129306253 39.611021712558895, 179.82356153848025 51.78032711991214, 157.92815384211062 74.0177419585055 M198.35760195352617 25.34392625139484 C187.45552524298395 37.41004077444645, 177.24816534946717 45.56481468468688, 150.0138524896021 75.39437089048981 M197.73427901626113 26.922421530721877 C185.4822892752616 39.02936917237127, 172.9200728601377 51.63779740237551, 149.45358052575244 74.90640390337168 M188.6138793933364 25.529439199431035 C179.57320902977543 35.592075169260106, 168.31371918339417 45.22682327064625, 149.22564827228365 68.0203982104984 M189.52327686689517 27.05488535547087 C172.41150224526467 43.00481043129704, 156.2482595904968 59.56079200055464, 148.07723757313963 67.08753983019561 M180.77560956141807 26.223598540289494 C170.44439348404865 35.439145597335454, 161.16112900940783 46.33684069026239, 148.82661718154725 57.90533590001869 M180.03426148815907 27.010754255293104 C171.26148736361583 34.79794806000555, 163.23472106552512 44.38019130969536, 147.86113059806107 58.50246443768847 M173.27577585620872 26.76803025053272 C166.17688001371565 32.453970805951215, 161.1511526423418 38.35712928389242, 147.54412280345736 50.13392974798623 M172.70796774333408 26.102613679407334 C164.94373746645215 33.87832975841422, 158.70717918976175 40.14306396131312, 147.48373402642486 49.907273612442054 M163.31220542614585 27.477016556723196 C156.64821759801129 32.39498858815676, 151.76528034933065 39.85468555668608, 147.65958603645143 42.37436823096354 M163.2589586207015 26.400470952032286 C158.48387859988756 31.55967129557606, 152.5388034084572 37.609332325324324, 147.8240639715123 41.48877155367513 M154.78788993452156 26.061136229423973 C153.83954304131623 28.010633979772084, 152.21169656541397 29.600938684739283, 148.62570720823882 33.92417020540154 M155.42066796645932 26.689515897905622 C153.18981266672466 28.25476017341981, 151.43391505392012 30.349886130187997, 148.32105377955762 33.398514335448205" stroke="#ffffff" stroke-width="0.5" fill="none" stroke-linecap="round" stroke-linejoin="round"></path><path d="M147.8287161372602 26.789995020379624 C172.81737435236573 27.200408740093312, 196.53000946566462 26.128405256321034, 268.24768641218543 26.10413593625029 M267.64320264831184 26.268369994809234 C267.9172891290009 39.235993642856684, 267.06994461129307 49.518560985972485, 267.80710171237587 75.44009142940244 M268.6440450929105 73.93401321743926 C239.91813216283919 74.95303052418431, 212.54742171689867 73.90777188294133, 148.46865730509163 74.99010741089782 M147.51442650333047 74.1150755984088 C147.4235489768803 57.80305874471864, 147.48002449701428 41.36689867203435, 147.77650443091989 26.47871826713284" stroke="#1d4ed8" stroke-width="1.25" fill="none" stroke-linecap="round" stroke-linejoin="round"></path></g><text x="208" y="50.833333333333336" text-anchor="middle" dominant-baseline="central" font-family="&quot;Courier New&quot;, ui-monospace, monospace" font-size="13" fill="#1d4ed8">Clean</text></g><g><g><path d="M147.82940093262462 192.99606759929128 C147.82940093262462 192.99606759929128, 147.82940093262462 192.99606759929128, 147.82940093262462 192.99606759929128 M147.82940093262462 192.99606759929128 C147.82940093262462 192.99606759929128, 147.82940093262462 192.99606759929128, 147.82940093262462 192.99606759929128 M162.57813847773141 198.37426858199984 C159.87073357189828 196.43066425683355, 157.44997043946114 194.77630334393032, 154.77924429389626 191.00072729700082 M162.18731390177638 198.98116265586802 C159.60064348038148 196.39942354482062, 157.17586441127088 193.88956456078256, 153.96969512710325 191.19289703192027 M176.97352709619713 204.76643167472864 C171.14112476497678 199.33118684058292, 168.05052183126713 195.52277921269757, 160.27762718826705 189.2015170983339 M176.51858858110768 204.42936979177827 C169.68212368841253 198.19811388560274, 163.925742681226 192.49725750181025, 159.76157055322253 188.23168686454395 M190.75162154647 210.5918019283066 C185.37562221936736 204.4684053333385, 179.7772667545839 199.70331100079534, 166.57414471699667 185.91491415961664 M190.34753977066316 209.96040195612855 C182.82344562179995 202.48641417852704, 174.24734717785103 193.77516462249852, 165.8508982895575 185.68661524425278 M204.3609419641501 215.1258448961179 C196.28481174464713 206.4323790253893, 188.43807452205397 200.31745411301495, 172.09364846703977 184.99620024372652 M204.77607267866344 215.10056517058865 C194.55813342372343 204.9963080379877, 184.91149073815103 195.52411926658078, 173.08211121113422 183.48132042602467 M212.57450241621473 214.12953851232743 C204.0263777510732 205.15018842142072, 194.9971275015862 195.80894326169354, 178.62889737986603 179.95656690932074 M212.35757856935152 215.3985265783078 C200.06905172658892 202.4723953734899, 187.98150332264402 190.65785854667436, 178.2433845191879 180.46526911500106 M219.62629109362598 212.53655358508476 C211.13424515830778 205.07544270131902, 204.28600263604665 199.86419589992124, 184.90373636550487 179.0250104336162 M217.96989939345505 212.85279463391998 C208.50947183807 203.52560913807952, 200.25248597651355 194.30531702833505, 184.42370594601363 178.27663117238328 M224.21742112522665 210.13440461042023 C217.76922965834876 202.81922535848534, 208.52469481061277 195.7136309642787, 190.5858488342393 176.23608434408348 M224.47772860208246 210.2366199174399 C210.97368094184088 197.47794890877958, 198.47145994123267 184.7049002213847, 190.68187828666007 176.0737821471263 M231.0283780460461 208.95169724055063 C219.58316541759095 198.79088494382398, 210.1360601093227 187.12277517331358, 197.70611094609882 172.72425366793945 M231.10110861502878 207.32899260256866 C219.07516266811706 196.02538788150014, 208.7293101253931 184.88115447510964, 196.5221236484223 174.07340752543138 M236.45309267255405 206.86720115913317 C226.42305468365188 194.28509823492035, 213.37391866507582 182.80327943989312, 201.9642373613665 171.10454068265477 M236.60575369602927 205.56746533194794 C226.743227722159 195.88118575073142, 216.8583121381744 185.88897626291913, 202.85597920134907 171.17489848125348 M242.08276144622016 202.16867042482502 C232.3430532839603 191.74498271913427, 220.99823005392975 182.53922125000614, 208.54813549007173 167.9668791654463 M242.04312029631933 202.65072356071929 C230.26551297006304 190.89277659588626, 217.4555499674736 178.31141866102675, 208.07790142773533 168.4984561257939 M247.78966677707382 201.71166381484312 C242.86956572707706 195.12897373450508, 234.5165950585448 186.53038846579122, 222.32483261673616 173.54204151802327 M249.29047739819384 200.9411559000839 C239.93345203941644 191.87371647085044, 230.46225070080172 181.82550305824202, 222.31244324686844 174.2947686322462 M255.73992957539812 196.80729735665807 C250.84140778532822 194.95960533044718, 246.23495059689296 189.4515925323088, 237.4968792459641 180.43304211217733 M254.31990904670164 197.39635664899686 C250.3755209256014 194.81749196841477, 247.60144926953515 190.72044685834996, 237.32690736061824 180.12016458138646 M260.15895022759736 196.30896742145194 C257.7123301477664 191.7382026082511, 253.67251177104762 189.15536071916884, 250.31468356604637 186.17353793765437 M261.181688796138 195.6024094477728 C257.4429133881665 192.11699334214194, 254.16414805229786 188.82380296817402, 251.00435657174276 185.65919590790773 M266.53166822625116 193.0195760648421 C266.12505619423433 192.35757742072764, 265.48956371329444 191.7859242823819, 265.1530889014059 191.62564220918557 M266.6237386023233 193.0286994401648 C266.22841043981373 192.52955189400316, 265.74247507503765 192.05424238634185, 265.2332112075479 191.60948198978073 M268.05999273622035 193.1066739304464 C268.05999273622035 193.1066739304464, 268.05999273622035 193.1066739304464, 268.05999273622035 193.1066739304464 M268.05999273622035 193.1066739304464 C268.05999273622035 193.1066739304464, 268.05999273622035 193.1066739304464, 268.05999273622035 193.1066739304464 M262.02694893703784 191.3710351507447 C260.10576146764214 192.46665921856768, 258.1463138199193 194.04110172598592, 254.4824110802596 198.94810641473427 M261.4699463625996 190.71976444298284 C259.85536645916983 192.85653248111004, 257.6162630555671 195.3479162106023, 253.73628086360705 198.69641838058166 M255.64588890664075 187.7253579732894 C251.8272474369691 192.43502589356044, 247.20209281717612 196.90232814976693, 238.76151510649873 205.2641043701721 M255.46703790809755 188.40880729434332 C252.26103056955267 191.59370315523748, 247.71804888880746 195.52434667451413, 239.5319088038574 204.9382695704279 M248.58702084251837 186.54662628091 C240.5989398670431 194.90256625985776, 232.20144289056313 204.56386004267318, 225.63848955442688 209.18322767550782 M249.78705449921236 185.7712685567426 C242.85131580947638 192.9629810982691, 236.4396271727642 199.6843683166768, 225.31072113120487 210.67367032608675 M244.92150261683352 182.69940436923372 C234.44862218133474 194.08656213651588, 222.86173502537702 202.65713745623094, 212.19932668851226 216.83807447632694 M243.63322370128668 183.7878720079871 C231.9534927439802 194.62304795495984, 220.03766003741288 207.50430739263683, 211.63857806762218 216.14139549123044 M238.44358013986934 180.34511039047737 C227.27406045257865 192.95510813951248, 214.80176159528583 203.24797870548448, 202.91683763709003 215.7677477067943 M237.83856705936927 181.35870157177797 C228.4188765079201 190.78691671558644, 218.5699444376884 200.63132007259176, 203.4358554387101 214.47604970900818 M230.45358529046862 179.9453265282982 C218.6142839971872 189.48618085453438, 208.24286143695466 203.05080085586795, 196.59739065451058 211.98404317505947 M231.24941864956855 178.81740364075685 C224.81253659735466 185.99927655693267, 217.2244474947004 192.92782290827466, 197.56996275858464 212.61207893405398 M224.5991155724742 175.62061934135338 C213.23655843399297 188.90615131979962, 201.2365644013223 199.6264607134932, 190.49976030724372 210.85260037715273 M225.22285473549294 176.1337574200653 C217.0569734901019 184.64308321759577, 207.2706371293419 193.87042919520758, 191.23044241598123 210.00867124638245 M218.11621377116924 172.90936010685976 C208.67874687771916 183.33519311084143, 201.2171933212174 192.61742213578802, 184.3478800055725 207.68014996529092 M219.1241234246913 174.11624527090456 C212.3108196081101 180.5341781882774, 205.19511843902205 188.0876327486313, 184.7979722059486 208.08075431969485 M213.341615421583 171.85547735228795 C204.90577115713853 179.5681305046037, 197.74009400685603 188.4468354182529, 179.62887590952633 204.6164798419447 M213.49514213695846 171.5435552422296 C203.13627244522806 181.67120515954332, 191.21371587202646 193.36507530467486, 179.3986492357817 204.54471151544615 M207.8183945589987 169.10281110485485 C194.29992387202216 181.88047966951052, 182.94821893469884 193.4483068526224, 173.2987126793883 201.94878940933097 M206.8163933548433 168.70268532024167 C196.78001572291043 179.5033267904758, 186.69075472189758 190.17490295033267, 173.06588567552933 203.55648613233765 M193.2300365942071 175.1610400162697 C186.394426310749 183.158793037698, 176.46377609042509 190.43815217373236, 168.0944409440013 201.58944210110687 M193.29724749890218 174.69862055313442 C182.5581612625973 184.87926581155796, 173.00312182963992 195.34568839652337, 166.9089062262999 201.44308393801086 M178.8690349679165 180.73708470832418 C172.24233414697085 186.8274982134917, 165.33305927798529 194.66631085560957, 160.17537695720804 197.2347857259296 M178.60080958210904 180.02948639668386 C174.79963908085608 184.16355706116067, 172.0810909577356 187.7812477357033, 161.21017777670187 198.10514351260738 M165.62710271184352 186.43069917517772 C162.2455192396412 188.47765300623976, 159.10561083583514 191.7417125826838, 154.53186990191605 196.627311284269 M164.97139735321534 186.07733283412702 C161.54911530849154 189.15579597800743, 158.46954213135803 192.50572200510126, 154.6428596654106 195.85418493118772 M150.73826077797446 191.74725674813865 C150.25824937491882 192.18539757593024, 149.67233967601484 192.70239947988182, 149.2654092592205 193.20867785078545 M150.70731437164355 191.6932767486225 C150.31277654235785 192.16348380993225, 149.87969648425673 192.4878874249334, 149.26336795907645 193.07307859751467" stroke="#ffffff" stroke-width="0.5" fill="none" stroke-linecap="round" stroke-linejoin="round"></path><path d="M207.1430742058903 168.50165919723608 C219.39703953710196 173.57315103773274, 230.96518300135432 177.96546949435273, 268.97152961827817 193.87287057104209 M268.06480397246776 194.1192216588805 C251.29924089115858 199.93182212508717, 236.58488358174264 206.6183369266192, 208.31065256856382 217.4768038107703 M208.36606763936578 216.41768649282554 C192.3921989028692 211.01950582719843, 178.48654836950598 204.59145181111492, 148.10298595763743 194.00182778301337 M149.07163975499572 192.6892800642798 C161.12815568712352 187.51302122567097, 172.32410482917726 183.38327546138564, 207.06475664637983 168.03474406736592" stroke="#1d4ed8" stroke-width="1.25" fill="none" stroke-linecap="round" stroke-linejoin="round"></path></g><text x="208" y="193.16666666666666" text-anchor="middle" dominant-baseline="central" font-family="&quot;Courier New&quot;, ui-monospace, monospace" font-size="13" fill="#1d4ed8">Decision?</text></g><g><g><path d="M356.2509015952303 75.08423492856369 C356.2509015952303 75.08423492856369, 356.2509015952303 75.08423492856369, 356.2509015952303 75.08423492856369 M356.2509015952303 75.08423492856369 C356.2509015952303 75.08423492856369, 356.2509015952303 75.08423492856369, 356.2509015952303 75.08423492856369 M364.4185130369247 75.39892108596906 C361.44725776263044 72.11222492466172, 358.8861477518128 68.74588177862067, 356.38309407609245 67.02219725071669 M364.6900409264446 75.44167610250459 C362.54577029759537 73.06457828870627, 360.39018977424206 70.54524516182208, 356.5255680153026 66.94171686514497 M373.9679375651883 74.4931090305005 C367.83891923972203 71.31784708560008, 363.8043997099155 65.5262546302259, 355.6207828958585 59.25393480321783 M372.76135287840236 74.64369318656668 C367.95219289238776 69.78643581681851, 363.3165708576591 65.22484661328193, 355.93270738246576 58.560827824831186 M381.16783070814944 74.7177970359479 C372.7358812025285 66.76823502832656, 363.98541220042705 57.52878086921212, 355.5308582265928 49.21494330210241 M382.0290550070736 75.27593040637717 C372.3697958455773 65.88736000924672, 362.41032505435743 56.14768773525398, 356.3665296566739 49.910544748283954 M390.5426918076535 74.8207153270398 C380.48591873094847 66.39615569899492, 370.7605148172924 57.37983486563065, 355.20491518574494 41.53313716475656 M390.4961994270046 74.58700902633414 C382.2904988086641 67.09149653302858, 375.32757550048603 60.76117844373787, 356.3228655112042 40.91329740782073 M398.8084876605755 76.03511585690126 C389.156115944454 65.1740155118988, 380.54217925603604 56.94408560982735, 357.17610807019014 31.69958084430521 M399.11925586475786 74.72709994487509 C387.1480220488354 63.50384658205199, 376.32228291134356 52.24212288073263, 356.0620909226193 32.57785045187896 M407.4108725637906 74.33956307865725 C395.41458717474177 62.27326667080598, 382.5099914600791 49.15133191729451, 359.0857058015495 27.629078418619606 M406.602350296896 74.96121781043753 C392.1301498908407 60.93929473685163, 378.69654769249786 46.22128420759143, 359.04566524222787 26.83123940364239 M416.0751883141735 74.10793394543276 C397.7665510550126 58.5090069227133, 380.5088134356418 41.70318990804833, 368.4046648014442 26.88174646557087 M416.22226494998125 75.64422102145896 C401.2990479151567 61.352608451193866, 387.6021578499705 46.09461480362556, 367.53270407133857 26.465343536294643 M423.5564642085995 75.3594179103528 C410.6812963675738 61.68975645439625, 399.6602383772532 50.107359181086174, 375.4983476172569 26.627732688791696 M424.65343830057634 74.99581172637687 C409.60901352675677 60.59876839298023, 395.20553234687753 45.1307793948789, 376.1196978870216 27.02660449878091 M433.1894170439434 75.40851692654238 C418.7650805582516 60.76992928968488, 402.7127635540348 46.007368583533214, 385.3186585458625 27.43935154140708 M432.3929650752437 75.47553582362876 C418.06860840071 60.052147502782624, 402.2207847823503 45.66126534598605, 384.3076476658392 26.53316193953869 M441.6384511170803 75.31504544712648 C428.50754027787514 61.144855193372976, 415.6097192883371 49.499116551704816, 393.2971893841362 26.88422997654194 M440.9855962505458 74.55778296165214 C427.1961133425548 60.625914335612016, 412.82848574411923 47.363093494149716, 392.8702106343543 27.392999257005396 M449.2476582248852 74.33413042523009 C439.9137589877445 66.09044831654894, 430.0599314847031 55.90913467993211, 400.4952194289527 25.97530744732136 M449.0487390530452 74.70678653888447 C436.38825074641954 61.59875205283254, 423.8391814465905 49.080333321011956, 401.07870026912906 27.178943599618616 M458.39081766423294 73.96621131397826 C444.46414727447603 60.99228785806113, 428.50280576475564 47.02887220207002, 409.55371547718727 26.02083590687031 M457.8974569593043 75.35162370376331 C447.8287578907984 65.3654351841437, 437.61341543071666 54.186128118730615, 409.9270862967261 27.40366586581582 M467.0213962319987 74.80704006649599 C455.24747845077474 63.80945331867003, 446.0965235604243 54.23369173810352, 418.2433318257148 27.87437980831379 M466.3694696958857 75.66121535472617 C454.02525509281077 62.53929535549526, 442.97674067407604 51.463304673714276, 418.1569946937079 26.69468070403451 M474.2225482250575 75.79768113590819 C460.836453099112 58.94248800486339, 443.49889713284335 44.85612327318336, 427.41441027141025 26.384816104776803 M475.2501532393519 74.91932614021046 C458.5344712281134 58.273448542102884, 441.3730457390159 40.85370114786931, 426.68270768663695 27.169346512712185 M475.5789408472322 68.09633688228796 C463.6310179665454 56.91246514615956, 453.744038791713 44.798280599470495, 434.54698011114874 26.446334249384346 M475.5193652232133 67.52138986560175 C466.84439615128537 59.04342495369816, 458.03945466021764 50.13354443102948, 435.8161637520758 26.409865440286342 M474.5541712072634 59.35576457062564 C465.31863097599546 47.60111508647118, 454.5095545503332 38.57891715125692, 444.1007581418051 27.84843619526142 M475.40386193589796 58.77692649120293 C466.60287006622906 49.83947313275468, 457.8250529853703 40.49589090945512, 443.6919576165868 27.438283385194485 M476.42756288321243 49.360072935232935 C468.9878399717728 41.78551802239592, 460.4985849686076 33.93658084073338, 451.46514866025456 26.92593639553303 M475.1890948851549 50.071338696638165 C469.7228889501544 44.361139194606366, 463.3413443804484 38.79035688724473, 451.8923402567328 27.09148999587411 M475.5010201719545 42.13157642923474 C471.0019862430354 37.765919800687584, 467.53516033504746 33.47908151400698, 460.50924346337183 27.808961803324166 M476.1010650475465 41.29776613034487 C471.574348973973 36.77797468350956, 466.5771348090709 33.30696620136199, 461.47221889907587 27.196218670762722 M475.7538318803303 33.600270063796756 C474.4277053641267 31.172038132340074, 471.72267826024887 29.61575432890015, 469.63271245340735 27.123363936625065 M475.7908645310022 33.26335064704877 C473.6603612687354 31.11222618393061, 471.21470222037505 28.726024564025632, 469.2062632808733 26.79535654556716 M476.23499252364616 74.59834080968727 C476.23499252364616 74.59834080968727, 476.23499252364616 74.59834080968727, 476.23499252364616 74.59834080968727 M476.23499252364616 74.59834080968727 C476.23499252364616 74.59834080968727, 476.23499252364616 74.59834080968727, 476.23499252364616 74.59834080968727 M476.76550866440516 65.69769001271489 C474.3394792943083 67.68802359905443, 471.69457639785503 70.96748444838857, 468.3481719789636 75.061044306799 M476.5621753516851 66.35535170268179 C474.51759322434253 67.54642516675173, 472.48748232483047 69.76890186521392, 467.5662296622229 74.48347291399463 M476.05569880024177 57.34045560705562 C471.73405722418715 63.385349826860896, 465.69199432876985 66.12116653697538, 459.6741630273963 74.43215907399284 M475.8873510176001 57.424639712004854 C472.04794184691383 61.250106300690454, 468.4605317983267 65.29219583841328, 459.64840583904635 74.30692023296581 M476.69711110607363 48.068589044905075 C465.7969903957589 57.99545690733721, 458.212330419217 67.20768417513885, 449.8716559585014 73.83065231625666 M475.8409906441031 49.077769263631474 C471.3107039364696 54.73676813282746, 465.0597866258761 59.5713566317755, 450.6717788923362 74.56479145546187 M475.47345230594857 41.14936683089904 C461.99007115395665 53.66849316671943, 448.573093253783 66.9695080847153, 442.63684145552446 75.11699498478995 M476.2781545931159 40.93347068415455 C468.02740053646863 47.967320106655976, 460.11888353825736 56.770921867440485, 442.5298725571983 74.02130388279187 M475.79443919674145 32.622290918162534 C461.64522361852715 47.32461715034041, 447.3352529329667 61.12275083028557, 433.3966238153404 75.18850153271781 M475.8584375912009 31.888789872011607 C465.00384197546657 44.16237539804744, 452.5801097046875 55.76252788061849, 434.0861878101951 74.33209716339337 M473.97104895058106 27.500602884566767 C457.0378129166896 41.14581581094276, 442.4062652968387 57.042308651740896, 424.8575948348244 75.1377989131652 M473.8606634901745 27.084043600386366 C458.2680506825047 41.20463460669906, 443.4518307950021 56.836032030212365, 425.47688187788924 74.34265469570386 M465.19394623959624 26.592856807982905 C453.0734128674089 39.69599636321343, 440.5906242403165 51.01816868781554, 415.7560338108513 74.70282657925712 M465.436312391853 27.049392392462476 C455.34503193254704 36.868452046020494, 445.93513553760926 46.27720517618773, 416.5357682368431 74.06330362816082 M457.56876461015446 26.867637892043575 C444.9114038650629 38.56639989721081, 433.5823200188198 50.13196216752614, 408.80790754029624 73.91683648411856 M456.91980202229126 26.794559147185073 C442.8031827141253 40.33951253808097, 428.110157240539 54.3474958211155, 408.8193166136192 75.04421485920177 M449.12397085913057 27.645698089873775 C436.9973166174914 36.874659273727794, 426.57183350521154 48.781371786642424, 399.45887032003407 74.75839308087455 M447.7113521080517 26.72596476299165 C432.3380595811956 41.78154900405219, 416.9231691844761 57.3474201594387, 400.4316529847801 74.75040303726422 M439.01771928339974 26.59310185459848 C427.3718940472978 38.6445091011002, 414.01051801896784 53.00452175662741, 391.0342639469399 75.60137332265006 M439.15883862569706 26.164873888319686 C425.5505709002626 40.03532807032021, 412.7617190406115 53.118605512857016, 391.6495595768883 74.13672656078563 M430.6878516798368 26.171226139342743 C415.0524182704686 42.2400563302416, 399.5971301248405 59.70904457962949, 383.48911771788875 75.26496666257007 M430.5827938017896 26.122394921606734 C418.4957027891374 39.1311279425552, 406.6148032134948 50.94481980030228, 383.3474748665063 74.42288757820351 M423.0018973453168 25.686760397231563 C405.7984400013392 43.0460525827815, 388.24876285786524 61.14714955657778, 374.1581484297555 74.66367505375968 M422.50140611289186 26.074480011290298 C406.8316405496267 41.155214546677456, 391.833436677817 56.606999274810356, 374.22249358019644 75.06843198795544 M413.4070730767149 25.34170658138989 C401.5224550401806 40.41121593037491, 388.10007380685437 51.270392970585895, 365.70576037941527 73.65731294934379 M413.85552028556646 26.736925055807813 C397.75329252656667 42.71631766982342, 381.47562524153926 58.63827626039288, 366.4193666945214 74.14774943847881 M405.8802831709059 25.483379144942717 C396.20818180064816 37.71435579359853, 385.41011423775166 46.80725138994234, 357.27604536374304 75.10100730244743 M405.23363729637583 26.840369703596785 C390.2309102118241 41.32221293606888, 374.72312960571344 56.922417171940324, 357.9555014360437 74.72507332821118 M397.27811942476484 25.854405041015106 C385.09764662334806 37.67880905496813, 373.18110559234947 48.74586659597647, 357.1138504914792 67.4241297543301 M397.2969143718824 27.105297353094773 C380.77667171609045 42.698699445160365, 364.8550637300827 59.40578526014769, 356.61702909319115 67.35841299372451 M387.6868611351668 27.242723722732023 C375.8517467787012 39.09037086126471, 363.79060021633586 51.98037866020234, 356.3157883100064 58.07928650760924 M388.00416498864877 27.017035152739243 C377.0420637151215 37.36410496389089, 366.2939135058564 48.823209076354274, 356.184815143034 58.673543582948795 M381.17247509898664 25.931587143218472 C374.1253096127242 32.43744222864213, 366.48218098204507 39.435433072456014, 356.1507995538266 51.02175557778288 M380.63685887323743 26.400754000967698 C371.05902451819725 36.00155996025777, 362.194234076885 44.92270225398703, 355.4300219997616 49.968443306694525 M372.1306156130995 27.349559755599483 C365.0625148693187 33.325628905978334, 359.1191800463989 39.62248316859533, 356.3817260198147 41.587913917976095 M371.4241220022108 26.996468546217663 C366.93383687307124 31.129664796910227, 361.26622616465204 37.006447181965136, 356.1106818899365 41.61672056339927 M362.9672660040895 26.31779910100098 C361.26781521730356 28.78561047657563, 359.4263358278721 30.552006324136933, 356.5139683633895 33.77279924109064 M363.3328220679651 26.674558437964276 C360.86835446812034 28.97386286387108, 358.1707728048843 31.149901215034365, 356.2046615060271 33.62148750118397" stroke="#ffffff" stroke-width="0.5" fill="none" stroke-linecap="round" stroke-linejoin="round"></path><path d="M356.8574322745204 27.946656707425916 C380.4347487047315 26.07948414685329, 403.86001893132925 26.335477179308736, 475.2953728243709 26.57493853916725 M476.48640529662373 26.903406656285128 C476.9193782580018 40.83865395238002, 475.22468922258616 54.20378863861164, 476.8142034247518 74.84684952547154 M476.08809018582104 74.23469310154519 C442.6362643256783 74.16072771503529, 411.89484343379735 74.47021043254934, 355.73731461018326 73.9468814884623 M356.2288530066609 74.59681786348423 C355.93189795376065 61.17278415610394, 356.0448489940286 47.500464010735364, 356.75300886183976 27.324103200932345" stroke="#1d4ed8" stroke-width="1.25" fill="none" stroke-linecap="round" stroke-linejoin="round"></path></g><text x="416" y="50.833333333333336" text-anchor="middle" dominant-baseline="central" font-family="&quot;Courier New&quot;, ui-monospace, monospace" font-size="13" fill="#1d4ed8">Chart it</text></g><g><g><path d="M361.2061085567667 203.06510283009817 C361.2061085567667 203.06510283009817, 361.2061085567667 203.06510283009817, 361.2061085567667 203.06510283009817 M361.2061085567667 203.06510283009817 C361.2061085567667 203.06510283009817, 361.2061085567667 203.06510283009817, 361.2061085567667 203.06510283009817 M377.649430993517 210.73329683380692 C370.359353057532 203.6361199020968, 363.3869313461502 196.10247671034543, 355.4649201489302 189.18448189967398 M377.6678214249584 211.65781294001758 C372.76887696464746 205.89350706960278, 366.0742253155501 200.3245396699065, 355.7693491281259 189.07573665310716 M389.63582689188917 215.25517978578932 C379.5340632902137 203.04354657678192, 368.1937659977557 193.9717008081047, 359.7909641013451 185.34518816815026 M389.2414889242922 214.56714591350533 C378.61882925860476 203.82912598319362, 368.34360893579895 193.52133910107312, 359.35257072550877 184.45854317349648 M399.2138048974438 215.12561429685857 C392.94571120649096 209.05288399117757, 383.3423423415836 199.86914844326392, 364.4669611333449 182.0023433353033 M399.037678205186 215.31405231955407 C389.9188419514501 206.61906754221275, 380.97508218307127 196.79932194877213, 364.23885914911966 181.2914628000211 M408.01328673277385 217.05174376929494 C396.4410712233835 206.7729782615854, 387.8383598615984 193.9164970490694, 370.33088503014943 178.63286161604032 M408.2105846718732 216.42056203505342 C399.9594574839488 208.0667511133697, 391.2012472065347 198.57076416311543, 370.541438428319 178.25594465969755 M417.58872796428545 215.35821419919228 C407.95009971038496 207.8615112413823, 399.54705333634934 199.38561313795364, 377.01485020197833 176.2757666002686 M416.6008516349007 216.37991846820657 C409.07054230727476 208.20212826539432, 399.8138196017957 199.28176333226554, 376.585837279967 175.79300819204252 M424.98872478338507 216.43178095764424 C415.4431637717236 206.9124265899806, 403.99600034742235 196.33155709668682, 382.8218252464245 172.68390481526836 M425.1114270923155 216.1949353397166 C415.38916451618627 206.68600922314994, 405.2980666966476 196.98312578912075, 382.59285267079724 173.14870671144558 M431.5256207876652 213.96591557193116 C418.0375977562282 199.51951541043172, 401.25725422612294 183.8317452607967, 389.46681260489424 171.94012538213337 M432.6834205108508 214.51635346397325 C419.0810208772399 201.59248584782873, 405.59522454596316 188.45377955818935, 389.0259794738566 172.08405706360992 M441.02379341853236 213.68409216314683 C429.1591847720288 203.19712292637476, 416.0560325241445 191.0538635474861, 395.73934856260695 170.99478001577089 M440.15063926355367 214.45987718667962 C424.13982779445223 197.81779195086682, 408.19116445237836 182.29891022452705, 396.46016046850514 170.1062896255521 M446.2821539612061 212.67728744619833 C431.74040132594945 195.61916421896302, 414.8814743001895 179.80739583978664, 404.0873235921557 168.72454336846118 M447.70833862978435 213.23742438485223 C432.1598005524526 198.0844829494996, 417.29094582706387 183.3562142069104, 404.5718566839765 169.6214186491618 M454.15086110709274 210.1556942921796 C440.3514695615342 197.53312205662135, 428.6256590111619 185.56558846948295, 411.45105522876014 168.84148590511137 M454.3961853575896 210.60259002919432 C439.2878794847726 195.70661760303838, 424.6346229518862 181.72466108798565, 411.579370274631 169.53706513645554 M459.99382095378496 208.38622172837077 C450.7676208048047 198.43200779259877, 440.0687421670942 188.25528322383508, 421.35421519501307 168.0590010280018 M460.3670076637031 209.28189618409542 C446.5598251868684 195.3045402573023, 433.3334783163349 180.97941398260537, 421.140021644702 169.12213396432298 M466.8298666615026 205.50867459467915 C457.2080151015226 197.171075571399, 445.66420813772163 185.41996482132018, 430.64500905732064 169.30798473322633 M466.4342248899849 205.48472166407225 C455.88190248090854 194.86556929192713, 445.51621265921546 185.09702406204235, 429.2975791047364 169.91674354096745 M471.51657879665186 203.3945738871984 C462.2625116263718 195.30734898517952, 454.5510337673229 186.64468077369077, 439.46578300708916 170.18144239187856 M471.2619178469821 202.25587237732782 C462.9300965090874 194.9102438661953, 455.3603509658933 186.15386720375, 440.0581156527811 171.47058258709183 M474.99857176945244 196.37044319583578 C465.3160147778778 189.0923365219093, 456.64585866377973 180.4165810282717, 450.4226306419115 174.17909553123886 M474.01936525155486 197.09261776337874 C466.50225140583603 188.92915017041355, 456.99071629701666 180.90930539925216, 451.56586575556946 173.68126691708588 M477.2002686950832 190.5044753233334 C471.9725691335411 188.16314687580837, 470.05326256014393 184.13054060834986, 465.70847545069137 180.6220212780077 M476.7841086094349 191.0009809943279 C473.7850554923257 187.8114784163362, 470.14546564669195 184.38101324073108, 465.00774135705507 180.12658736140915 M471.2419415063463 202.5413646554583 C471.2419415063463 202.5413646554583, 471.2419415063463 202.5413646554583, 471.2419415063463 202.5413646554583 M471.2419415063463 202.5413646554583 C471.2419415063463 202.5413646554583, 471.2419415063463 202.5413646554583, 471.2419415063463 202.5413646554583 M473.8710185249296 189.34014012823135 C468.10575368690525 195.04340566235933, 463.4264848286153 201.173380811848, 453.19789531498145 211.3073743992756 M474.57537096580086 190.73681342667223 C467.9886198557109 197.60125841589212, 459.81742619166806 204.54776574341764, 454.0895466795836 210.61039510958742 M471.6145524812113 185.61662818058454 C462.6516544579329 193.3228869271788, 455.74277070668126 201.1680421551761, 442.32494710661945 214.07579017291326 M471.7609281099584 184.5146034292417 C462.35540518392344 195.01028573423054, 451.14241945183426 205.3663982401539, 443.10050035935365 214.4068529075991 M466.2044758259891 180.7309126354573 C457.26517412611184 190.83095364830308, 449.9480553731722 198.61971375103525, 432.42011604034235 214.7096886579815 M466.54188072323933 181.20270780155485 C457.2065577820726 190.30625067943436, 448.78836070483175 199.33079779711102, 433.3163763341018 215.69032871824984 M461.4911738442289 178.6554597703838 C452.65693640676614 187.6186603962054, 443.2984926790881 196.9026700342228, 424.5276259013701 214.79394763176066 M462.4335127722504 177.89785429575528 C453.70761152576887 185.95263549976337, 445.9004338644986 193.84042162432092, 423.69727363318833 216.4596102309294 M456.1282453211502 175.11577236264424 C444.572644439314 185.91663391197696, 433.8958636225896 196.3602098870876, 415.48584109992214 215.675554246531 M456.21623578635166 174.50351810123252 C441.29416711246137 190.1066006447223, 427.1220416274481 204.46025317212457, 414.11559597347355 216.57305544752734 M448.4634296669729 173.69946256451908 C435.28981359878196 189.4213842045672, 420.0991140110398 203.27616288624247, 405.711087014778 214.8797846860133 M449.63276598240355 173.13274471987637 C436.78098343885904 185.77045465459315, 423.7572474822251 198.41892138896753, 407.34612210287753 215.65852233887387 M442.62953404166274 171.96532477854225 C425.97349601782963 186.63732887233206, 410.2147091739925 203.0822834331492, 398.71040252497073 215.59745163367418 M442.48530138951264 170.9109728413302 C427.0964510749446 188.09739093854276, 410.0065831567923 204.41310352603702, 398.5850083320739 215.49436631304502 M436.3358655430664 170.65190346936728 C422.03311922109447 183.27109910953902, 409.353263405902 196.85276595225832, 391.78668069690667 213.77976358560767 M435.6332040371661 170.47835215485688 C419.0151320315934 186.2522481108162, 403.63817683474826 202.32969702485497, 391.56117922160973 214.99804952824408 M427.1089057999633 169.2368185707148 C411.4413299073601 184.21099435248857, 396.89228877400274 198.53979451141961, 384.5940620031785 212.98293163172073 M427.83992454828393 170.2428187562864 C417.6468993052068 179.97228368497835, 406.8893168989221 190.19416901255823, 383.8979708007183 213.1644976739875 M419.00506350375963 168.22401295367845 C407.20952653403356 182.67305271046573, 393.97656402404596 194.29477693157392, 378.5862207601927 209.9198830181072 M419.69200467091304 169.1610926163218 C408.9347169704211 180.1204445911565, 398.7096574959738 190.57840134725052, 377.5676670049466 210.91156353347847 M412.8873879708615 168.66703886435212 C400.89643065705746 177.21191640788552, 392.93240048867875 188.37351566043176, 371.8788651281686 208.59776114704744 M411.28204084060013 168.15571401816638 C399.49282555572773 180.75485533317277, 387.5088772812661 192.9607054058827, 370.9602496761547 208.51127698360668 M402.2738555803023 168.52077148620256 C390.67509688035364 180.77605624684213, 379.0849084888968 192.04117578301336, 367.74066423588596 206.42699845226196 M402.46322061801925 168.9605071198962 C395.59399047849314 176.06817203427337, 387.70272861957744 183.90637536428895, 366.38057568726293 205.59266787020204 M392.13540367967465 169.64337503413702 C379.71231020853287 183.36074864859694, 369.07954307693046 194.28311367296064, 361.398893931191 202.01567064840432 M392.6536065949036 171.01629604852792 C384.72046798829535 178.29118824310493, 376.2671215306027 186.368176000999, 361.2602726927582 203.0298702575275 M380.6228966791984 173.86933666043583 C376.60383407672407 178.34897700925364, 371.3444728473899 182.5186575668959, 356.5872181552365 197.221715356822 M381.3693524881136 173.6376888059512 C373.1471731824135 181.23294566291577, 365.3562254901479 189.39151964073434, 357.7117705029338 197.28809105403988 M366.23369841418946 180.12251665689655 C362.0087184696445 184.43884264301846, 358.70700466091745 187.4843559951262, 356.07085376884373 189.64967985425952 M366.0801860213352 180.7058011861113 C363.4007209878159 183.02974316931147, 361.2411805972111 184.79572248756674, 356.9736141607589 189.75655799370136" stroke="#ffffff" stroke-width="0.5" fill="none" stroke-linecap="round" stroke-linejoin="round"></path><path d="M356 193.16666666666666 C354.81593859232964 211.81366562388516, 406.49165421761575 222.22961919312158, 444.800269735232 213.77166574115196 M446 213.95127635749319 C464.17356967513854 209.6833053090588, 477.1770065072924 201.82215433541398, 477.0895137790591 193.8862956261883 M476 193.16666666666666 C476.90800662077964 173.87904970628838, 426.23671525754037 163.22664939880886, 387.0302871350199 172.5723515213565 M386 172.38205697584013 C366.3536896754295 176.38613929491083, 355.85013837851585 184.22196184696296, 356.5183539632708 192.23082771065333 M356 193.16666666666666 C356 193.16666666666666, 356 193.16666666666666, 356 193.16666666666666" stroke="#1d4ed8" stroke-width="1.25" fill="none" stroke-linecap="round" stroke-linejoin="round"></path></g><text x="416" y="193.16666666666666" text-anchor="middle" dominant-baseline="central" font-family="&quot;Courier New&quot;, ui-monospace, monospace" font-size="13" fill="#1d4ed8">Ship</text></g></g></svg>