<svg xmlns="http://www.w3.org/2000/svg" viewBox="0 0 440 280" width="440" height="280" role="img"><g><g><path d="M43.61522278868091 27.57147447601089 L115.29755950322662 27.836745633037182 L114.20158031931435 79.68762796902065 L44.3619837232722 78.3306170978487" stroke="none" stroke-width="0" fill="#440154" stroke-linecap="round" stroke-linejoin="round"></path><path d="M44.88712974757385 27.792287197188827 C58.268895602000256 27.785764119466688, 72.11898516400723 26.33909600122824, 113.91150306700085 27.506512578801605 M113.65963483205353 27.574943436534497 C114.65895775934712 39.60381136331707, 114.30589754363552 50.51390582971146, 113.72792610874687 79.92522966646557 M115.07665251730297 78.29769707814758 C99.66525964962297 79.9070400732814, 84.81853448366417 78.47151563943015, 45.153771900836944 78.73773632542198 M44.756175733436464 78.37313973688488 C44.57808638370672 64.39273709449917, 43.60161785042921 51.3606081108659, 44.865374869932054 27.662588550002667" stroke="#1f2937" stroke-width="1.5" fill="none" stroke-linecap="round" stroke-linejoin="round"></path></g><text x="79.38339920948619" y="53.241379310344826" text-anchor="middle" dominant-baseline="central" font-family="&quot;Comic Sans MS&quot;, &quot;Segoe Print&quot;, cursive" font-size="14" fill="#1f2937">0</text></g><g><g><path d="M43.771947553646385 82.00501791753902 L115.28681861119632 82.5355602315916 L115.09486024337177 134.3752559380413 L45.26546942282897 133.6612341956974" stroke="none" stroke-width="0" fill="#3fba73" stroke-linecap="round" stroke-linejoin="round"></path><path d="M44.31576147143227 82.44664335989489 C59.109332705976776 82.95747072223718, 72.83955135568242 82.06413448576028, 114.51470573874478 81.87509412312045 M114.01096926885013 82.01195583858623 C114.3985806406787 95.69727789904793, 113.69246020925551 107.14505303873327, 114.14755182223682 134.85045933293114 M114.84500463934903 133.59539415629516 C97.99217937829732 134.29020662877622, 82.26868952068799 133.41915776107373, 44.84904577795845 134.47547265084395 M44.05385344315749 133.74627947376976 C44.086640260939376 116.15788798210178, 44.13370319438435 98.46604380793869, 44.27225171614867 82.18724606552257" stroke="#1f2937" stroke-width="1.5" fill="none" stroke-linecap="round" stroke-linejoin="round"></path></g><text x="79.38339920948619" y="108.41379310344827" text-anchor="middle" dominant-baseline="central" font-family="&quot;Comic Sans MS&quot;, &quot;Segoe Print&quot;, cursive" font-size="14" fill="#1f2937">13</text></g><g><g><path d="M43.92867231861186 138.43856135906717 L115.27607771916603 137.23437483014604 L113.9881401674292 189.06288390706197 L44.16895512238574 188.99185129354612" stroke="none" stroke-width="0" fill="#33638d" stroke-linecap="round" stroke-linejoin="round"></path><path d="M43.744393195290684 137.10099952260097 C57.949769809953295 137.08143028943456, 71.5601175473576 136.74142593471922, 115.11790841048871 138.2436756674393 M114.36230370564674 138.44896824063798 C113.36027248752751 151.79074443477882, 114.30109184039273 165.7762002477551, 114.56717753572677 189.77568899939672 M114.61335676139508 188.89309123444275 C96.31909910697166 189.72112021984418, 79.71884455771183 189.41454691829045, 44.54431965507996 190.21320897626595 M45.35153115287852 189.11941921065466 C44.81726310368928 178.29545266280786, 43.88785750385674 168.3163070912184, 43.67912856236529 136.7119035810425" stroke="#1f2937" stroke-width="1.5" fill="none" stroke-linecap="round" stroke-linejoin="round"></path></g><text x="79.38339920948619" y="163.58620689655174" text-anchor="middle" dominant-baseline="central" font-family="&quot;Comic Sans MS&quot;, &quot;Segoe Print&quot;, cursive" font-size="14" fill="#1f2937">6</text></g><g><g><path d="M44.085397083577334 192.8721048005953 L115.26533682713573 191.93318942870047 L114.88142009148662 243.75051187608264 L45.07244082194251 244.32246839139484" stroke="none" stroke-width="0" fill="#fde725" stroke-linecap="round" stroke-linejoin="round"></path><path d="M45.1730249191491 193.75535568530705 C58.79020691392982 192.25313689220505, 72.28068373903281 192.46646441925125, 113.72111108223264 192.61225721175816 M114.71363814244334 192.88598064268973 C115.0998953688591 207.88421097050968, 113.68765450601272 222.4073474567769, 114.98680324921672 244.7009186658623 M114.38170888344114 244.19078831259034 C94.64601883564602 244.10428677533903, 77.16899959473567 244.36218903993407, 44.23959353220147 243.95094530168794 M44.64920886259955 244.49255894753955 C44.32581698092194 230.0606035504105, 44.419942847811896 215.4217427882912, 45.08600540858191 193.2365610965624" stroke="#1f2937" stroke-width="1.5" fill="none" stroke-linecap="round" stroke-linejoin="round"></path></g><text x="79.38339920948619" y="218.75862068965517" text-anchor="middle" dominant-baseline="central" font-family="&quot;Comic Sans MS&quot;, &quot;Segoe Print&quot;, cursive" font-size="14" fill="#1f2937">19</text></g><g><g><path d="M118.55042224379972 26.61599306970963 L189.56289633036232 27.942348854841086 L188.08300041080093 79.74848467268949 L118.28422691675618 78.96343031682973" stroke="none" stroke-width="0" fill="#2e718e" stroke-linecap="round" stroke-linejoin="round"></path><path d="M118.90995703826442 27.72005667559931 C131.93894441316326 28.73518832256174, 147.3095503259649 27.501847731369494, 188.63261414923346 28.291183583663198 M189.37327297449684 26.633337872327658 C189.14781864544756 43.28802233382674, 189.3825175668896 58.3488394933849, 187.71472935796356 78.93649315991406 M188.45836140074408 78.79883021832411 C169.28123895957725 77.79779815842004, 148.9274550270164 78.62017598916383, 118.24316780457988 78.99902645469611 M118.25518696757749 79.17604351201062 C118.1426712534115 61.1360992655993, 119.26032858702395 43.83752331295018, 118.80118265005544 27.07156343966851" stroke="#1f2937" stroke-width="1.5" fill="none" stroke-linecap="round" stroke-linejoin="round"></path></g><text x="153.6916996047431" y="53.241379310344826" text-anchor="middle" dominant-baseline="central" font-family="&quot;Comic Sans MS&quot;, &quot;Segoe Print&quot;, cursive" font-size="14" fill="#1f2937">7</text></g><g><g><path d="M118.70714700876519 83.04953651123776 L189.55215543833202 82.6411634533955 L188.97628033485836 134.43611264171014 L119.18771261631295 134.29404741467843" stroke="none" stroke-width="0" fill="#440154" stroke-linecap="round" stroke-linejoin="round"></path><path d="M118.33858876212284 82.37441283830537 C132.77938151713977 82.8591478897591, 146.0301165176401 82.1791391803284, 189.2358168209774 82.65976512798204 M187.72460741129345 83.0703502743794 C188.10951049229638 99.3814888695576, 187.99114919802682 116.9799867024067, 188.1343550714535 133.86172282637963 M188.22671352279013 134.0965272964717 C167.60815868825162 135.22871174948799, 146.37761006404023 134.61556514638053, 117.93844168170139 134.73676278011808 M119.55286467729852 134.5491832488955 C118.87329409616142 123.27366394630536, 119.01448289649635 111.68778659622987, 118.20805949627206 81.59622095518841" stroke="#1f2937" stroke-width="1.5" fill="none" stroke-linecap="round" stroke-linejoin="round"></path></g><text x="153.6916996047431" y="108.41379310344827" text-anchor="middle" dominant-baseline="central" font-family="&quot;Comic Sans MS&quot;, &quot;Segoe Print&quot;, cursive" font-size="14" fill="#1f2937">0</text></g><g><g><path d="M118.86387177373066 137.4830799527659 L189.54141454630172 137.33997805194994 L187.86956025891578 189.1237406107308 L118.09119831586972 189.62466451252715" stroke="none" stroke-width="0" fill="#3fba73" stroke-linecap="round" stroke-linejoin="round"></path><path d="M117.76722048598126 137.02876900101145 C133.61981862111628 138.0308544925296, 146.75068270931527 137.90417766486047, 187.83901949272132 137.0283466723009 M188.07594184809005 137.50736267643114 C187.84913337362795 155.47495540528848, 189.3777118636468 173.6111339114285, 188.55398078494346 188.78695249284522 M187.9950656448362 189.39422437461928 C165.93507841692596 189.61187830498284, 143.82776510106407 189.56320726802414, 119.6337155588229 190.47449910554008 M118.85054238701954 189.9223229857804 C118.38184797339407 175.038814833908, 119.54656824045149 160.79322229330268, 119.61493634248868 138.12087847070833" stroke="#1f2937" stroke-width="1.5" fill="none" stroke-linecap="round" stroke-linejoin="round"></path></g><text x="153.6916996047431" y="163.58620689655174" text-anchor="middle" dominant-baseline="central" font-family="&quot;Comic Sans MS&quot;, &quot;Segoe Print&quot;, cursive" font-size="14" fill="#1f2937">13</text></g><g><g><path d="M119.02059653869614 191.91662339429405 L189.53067365427142 192.03879265050438 L188.7628401829732 243.81136857975147 L118.99468401542649 244.95528161037586" stroke="none" stroke-width="0" fill="#33638d" stroke-linecap="round" stroke-linejoin="round"></path><path d="M119.19585220983967 193.68312516371753 C132.46025572509282 192.154814059727, 147.47124890099047 192.5814691138194, 188.44222216446525 193.39692821661976 M188.42727628488666 191.9443750784829 C188.81082522047677 211.56842194101935, 187.98634349478402 232.24228112045034, 188.9736064984334 243.7121821593108 M187.76341776688224 244.69192145276688 C164.2619981456003 245.0427918960508, 141.2779201380879 245.55859642524086, 119.32898943594441 244.21223543096207 M118.14822009674057 245.2954627226653 C119.89040185062673 226.80396572151062, 118.07865358440664 207.89865799037548, 119.0218131887053 192.64553598622825" stroke="#1f2937" stroke-width="1.5" fill="none" stroke-linecap="round" stroke-linejoin="round"></path></g><text x="153.6916996047431" y="218.75862068965517" text-anchor="middle" dominant-baseline="central" font-family="&quot;Comic Sans MS&quot;, &quot;Segoe Print&quot;, cursive" font-size="14" fill="#1f2937">6</text></g><g><g><path d="M193.48562169891852 27.66051166340837 L263.82823315749806 28.04795207664499 L261.96442050228757 79.80934137635832 L192.20647011024016 79.59624353581076" stroke="none" stroke-width="0" fill="#5bc462" stroke-linecap="round" stroke-linejoin="round"></path><path d="M192.932784328955 27.647826154009792 C207.60899322432624 26.63686549008367, 220.50011548792259 27.61685242593763, 263.3537252314661 27.07585458852479 M263.0869111169402 27.69173230812082 C262.8587484970653 46.97223330433641, 263.68120655566094 68.18377315705834, 263.7015326071803 79.94775665336256 M263.84007028418523 79.29996335850065 C238.89721826953158 78.73630327913182, 213.03637557036865 79.81658337447064, 193.33256370832282 79.26031658397024 M193.7541982017185 79.97894728713636 C192.92932508863353 68.25187522980288, 192.14110828913593 57.05926610124136, 192.73699043017882 26.48053832933435" stroke="#1f2937" stroke-width="1.5" fill="none" stroke-linecap="round" stroke-linejoin="round"></path></g><text x="228" y="53.241379310344826" text-anchor="middle" dominant-baseline="central" font-family="&quot;Comic Sans MS&quot;, &quot;Segoe Print&quot;, cursive" font-size="14" fill="#1f2937">14</text></g><g><g><path d="M193.642346463884 82.0940551049365 L263.81749226546776 82.74676667519941 L262.857700426345 134.49696934537897 L193.10995580979693 134.92686063365946" stroke="none" stroke-width="0" fill="#2e718e" stroke-linecap="round" stroke-linejoin="round"></path><path d="M192.3614160528134 82.30218231671586 C206.44943032830275 83.80857209285416, 221.2206816795978 83.34189091046967, 261.95692790321004 83.44443613284363 M263.4382455537368 82.12874471017255 C262.59837137839685 92.69328604696382, 263.0677692212809 104.07009277987325, 262.12115832067025 134.87298631982813 M263.6084224062313 134.59766043664823 C237.22413799820592 133.11946983462664, 210.4865306073925 134.76422549611422, 193.02783758544433 134.99805290939221 M193.05187591143954 133.35208702402124 C192.4378789658662 120.01702611740549, 192.67319363309107 104.16470179831416, 192.14386727639544 83.00519584485426" stroke="#1f2937" stroke-width="1.5" fill="none" stroke-linecap="round" stroke-linejoin="round"></path></g><text x="228" y="108.41379310344827" text-anchor="middle" dominant-baseline="central" font-family="&quot;Comic Sans MS&quot;, &quot;Segoe Print&quot;, cursive" font-size="14" fill="#1f2937">7</text></g><g><g><path d="M193.79907122884947 138.52759854646465 L263.80675137343746 137.44558127375385 L263.7509803504024 189.18459731439964 L194.0134415093537 190.25747773150817" stroke="none" stroke-width="0" fill="#440154" stroke-linecap="round" stroke-linejoin="round"></path><path d="M193.79004777667183 136.95653847942194 C207.2898674322793 137.93253166005155, 221.94124787127296 138.0191823594286, 262.560130574954 137.8130176771625 M263.7895799905334 138.5657571122243 C263.5600632252457 150.7867525826947, 263.67640085241817 162.70123998889508, 262.5407840341602 189.7982159862937 M263.37677452827734 189.89535751479582 C235.5510577268803 190.5503834256946, 207.93668564441631 190.75961465333094, 192.72311146256584 188.7357892348142 M192.34955362116057 188.72522676090614 C193.94643284309885 171.78217700500812, 193.20527897704622 153.27013749538696, 193.55074412261206 137.52985336037418" stroke="#1f2937" stroke-width="1.5" fill="none" stroke-linecap="round" stroke-linejoin="round"></path></g><text x="228" y="163.58620689655174" text-anchor="middle" dominant-baseline="central" font-family="&quot;Comic Sans MS&quot;, &quot;Segoe Print&quot;, cursive" font-size="14" fill="#1f2937">0</text></g><g><g><path d="M193.95579599381495 192.9611419879928 L263.79601048140717 192.14439587230828 L262.64426027445984 243.8722252834203 L192.91692720891047 245.5880948293569" stroke="none" stroke-width="0" fill="#3fba73" stroke-linecap="round" stroke-linejoin="round"></path><path d="M193.21867950053024 193.61089464212802 C206.1303045362558 193.10423826282204, 220.66181406294817 193.74422084396065, 263.1633332466979 192.18159922148135 M262.14091442733 193.00276951427605 C263.29968610657727 206.88021911842557, 263.06296351803815 219.3323871979169, 262.96040974765015 244.7234456527593 M263.1451266503234 245.1930545929434 C247.84793792986292 244.93354998118946, 233.32676163005675 243.70725677497455, 192.41838533968735 244.4735255602362 M193.6472313308816 244.09836649779103 C192.67705568584876 233.9197416857142, 192.95943328651862 221.12040077866666, 192.95762096882868 192.0545108758941" stroke="#1f2937" stroke-width="1.5" fill="none" stroke-linecap="round" stroke-linejoin="round"></path></g><text x="228" y="218.75862068965517" text-anchor="middle" dominant-baseline="central" font-family="&quot;Comic Sans MS&quot;, &quot;Segoe Print&quot;, cursive" font-size="14" fill="#1f2937">13</text></g><g><g><path d="M266.4208211540373 26.70503025710711 L338.09356998463375 28.153555298448893 L337.84584059377414 79.87019808002715 L268.1287133037241 78.22905675479178" stroke="none" stroke-width="0" fill="#441363" stroke-linecap="round" stroke-linejoin="round"></path><path d="M266.95561161964554 27.575595632420274 C281.2790420354892 26.5385426576056, 295.6906806498802 27.73185712050576, 338.0748363136987 27.860525593386384 M336.8005492593835 26.75012674391398 C336.56967834868294 42.28403048174263, 335.9798955444322 55.2738792345249, 337.688335856397 78.95902014681106 M337.2217791676263 79.80109649867718 C320.48315805379417 79.6748083998436, 305.08521706233745 79.01299075977745, 266.42195961206573 79.52160671324437 M267.2532094358595 78.7818510622621 C266.4939099583383 64.99523740090301, 267.79981902573064 49.53618130332565, 266.6727982103022 27.889513219000193" stroke="#1f2937" stroke-width="1.5" fill="none" stroke-linecap="round" stroke-linejoin="round"></path></g><text x="302.3083003952569" y="53.241379310344826" text-anchor="middle" dominant-baseline="central" font-family="&quot;Comic Sans MS&quot;, &quot;Segoe Print&quot;, cursive" font-size="14" fill="#1f2937">1</text></g><g><g><path d="M266.5775459190028 83.13857369863524 L338.08282909260345 82.85236989700331 L336.73912051783157 134.5578260490478 L267.0321990032809 133.5596738526405" stroke="none" stroke-width="0" fill="#5bc462" stroke-linecap="round" stroke-linejoin="round"></path><path d="M266.38424334350395 82.22995179512634 C282.11947913946574 81.71024926037609, 294.41124684155545 83.4568956050378, 336.67803898544264 82.22910713770523 M337.1518836961801 83.18713914596572 C336.3093012300145 98.3774970174735, 337.3664582100522 113.9050264435467, 338.1079615698869 133.88424981327663 M336.9901312896724 135.09879357682476 C320.8100777824685 134.05797495533844, 302.5353720993613 133.96063288142105, 268.11723348918724 135.25934303866634 M266.55088714558053 134.154990799147 C268.00246383557095 116.76038828850562, 268.3319043696858 96.64161700039844, 268.0796750565188 82.4141707345201" stroke="#1f2937" stroke-width="1.5" fill="none" stroke-linecap="round" stroke-linejoin="round"></path></g><text x="302.3083003952569" y="108.41379310344827" text-anchor="middle" dominant-baseline="central" font-family="&quot;Comic Sans MS&quot;, &quot;Segoe Print&quot;, cursive" font-size="14" fill="#1f2937">14</text></g><g><g><path d="M266.73427068396825 137.57211714016339 L338.07208820057315 137.55118449555775 L337.632400441889 189.24545401806847 L267.93568470283765 188.8902909504892" stroke="none" stroke-width="0" fill="#2e718e" stroke-linecap="round" stroke-linejoin="round"></path><path d="M267.81287506736237 136.88430795783242 C280.95991624344225 138.8819558631466, 295.1318130332306 137.18193408956986, 337.28124165718657 138.59768868202408 M337.5032181329767 137.62415154801747 C338.04892411134614 154.47096355320437, 336.75302087567223 170.53617365256852, 336.5275872833769 188.8094794797422 M336.75848341171843 190.39649065497235 C319.13699751114285 188.44114151083326, 299.98552713638514 188.90827500306463, 267.81250736630875 188.99707936408834 M267.84856485530156 189.52813053603188 C266.7330866783209 176.8979529692117, 268.0860586791582 166.49188028367814, 267.4865519027354 136.93882825004002" stroke="#1f2937" stroke-width="1.5" fill="none" stroke-linecap="round" stroke-linejoin="round"></path></g><text x="302.3083003952569" y="163.58620689655174" text-anchor="middle" dominant-baseline="central" font-family="&quot;Comic Sans MS&quot;, &quot;Segoe Print&quot;, cursive" font-size="14" fill="#1f2937">7</text></g><g><g><path d="M266.8909954489337 192.00566058169153 L338.06134730854285 192.24999909411218 L336.5256803659464 243.93308198708914 L266.8391704023944 244.22090804833792" stroke="none" stroke-width="0" fill="#440154" stroke-linecap="round" stroke-linejoin="round"></path><path d="M267.2415067912208 193.5386641205385 C281.80035334741876 193.00591543034398, 295.8523792249058 191.8592255385288, 337.8844443289305 192.96627022634294 M337.8545525697733 192.06116395006921 C337.01061595819493 210.56443008893524, 337.36165250680943 229.16732086159033, 336.9472129968668 243.7347091462078 M336.5268355337645 243.69418773311995 C317.4639172398172 245.87205510190122, 297.43568217340896 244.90366416028135, 267.50778124343026 244.73481568951033 M267.1462425650226 244.90127027291678 C268.24164055555354 228.66310385681433, 266.61814402311336 213.59731598075095, 266.89342874895203 193.46348576555994" stroke="#1f2937" stroke-width="1.5" fill="none" stroke-linecap="round" stroke-linejoin="round"></path></g><text x="302.3083003952569" y="218.75862068965517" text-anchor="middle" dominant-baseline="central" font-family="&quot;Comic Sans MS&quot;, &quot;Segoe Print&quot;, cursive" font-size="14" fill="#1f2937">0</text></g><g><g><path d="M341.35602060915613 27.74954885080585 L412.3589068117695 28.259158520252797 L411.7272606852608 79.93105478369598 L342.0509564972081 78.86186997377281" stroke="none" stroke-width="0" fill="#297e8d" stroke-linecap="round" stroke-linejoin="round"></path><path d="M340.97843891033614 27.503365110830757 C354.9490908466522 27.487966860700652, 368.88124581183797 26.894608850647018, 410.79594739593136 26.645196598247978 M412.51418740182686 27.808521179707142 C411.05853923478344 45.9682414522523, 411.05651556768635 65.10881289819834, 411.6751391056137 79.97028364025955 M410.6034880510675 78.30222963885372 C390.09913736374847 79.56556648498226, 369.1941376056897 79.16165110951114, 341.5113555158087 79.7828968425185 M340.75222067000055 79.58475483738785 C342.05849482804314 59.73859957200314, 341.45852976232544 42.01309650540994, 342.6086059904256 27.298488108666035" stroke="#1f2937" stroke-width="1.5" fill="none" stroke-linecap="round" stroke-linejoin="round"></path></g><text x="376.6166007905138" y="53.241379310344826" text-anchor="middle" dominant-baseline="central" font-family="&quot;Comic Sans MS&quot;, &quot;Segoe Print&quot;, cursive" font-size="14" fill="#1f2937">8</text></g><g><g><path d="M341.5127453741216 82.18309229233398 L412.3481659197392 82.95797311880722 L410.6205406093182 134.61868275271664 L340.9544421967649 134.1924870716215" stroke="none" stroke-width="0" fill="#441363" stroke-linecap="round" stroke-linejoin="round"></path><path d="M342.40707063419455 82.15772127353682 C355.7895279506287 81.61192642789801, 369.60181200351315 81.57190029960593, 411.3991500676753 83.01377814256682 M410.86552183862347 82.24553358175888 C412.798162116115 102.06170798798317, 412.4430782333063 121.73996010722014, 412.09476481910366 134.89551330672512 M412.3718401731135 133.5999267170013 C390.4260570924228 133.94873304047707, 366.6442926427136 134.1092932311547, 341.2066293929302 133.52063316794047 M342.0498983797216 134.95789457427273 C340.789117670793 121.8761642527092, 341.2126840717978 109.86335978868962, 342.0154828366422 81.82314562418594" stroke="#1f2937" stroke-width="1.5" fill="none" stroke-linecap="round" stroke-linejoin="round"></path></g><text x="376.6166007905138" y="108.41379310344827" text-anchor="middle" dominant-baseline="central" font-family="&quot;Comic Sans MS&quot;, &quot;Segoe Print&quot;, cursive" font-size="14" fill="#1f2937">1</text></g><g><g><path d="M341.6694701390871 138.61663573386213 L412.3374250277089 137.65678771736165 L411.5138205333756 189.3063107217373 L341.85792789632166 189.52310416947023" stroke="none" stroke-width="0" fill="#5bc462" stroke-linecap="round" stroke-linejoin="round"></path><path d="M341.83570235805297 136.8120774362429 C356.6299650546053 136.7836330306685, 370.3223781951883 137.29693878413798, 412.0023527394192 137.38235968688568 M411.21685627542007 136.68254598381063 C411.75985396296386 147.7827607306106, 411.0517098644436 159.62627973003507, 412.5143905325936 189.8207429731907 M412.1401922951596 188.8976237951489 C388.75297682109715 189.37964663154503, 364.0944476797374 190.10468238837143, 340.9019032700517 189.25836949336247 M341.3475760894426 190.33103431115762 C342.2976715480257 173.64131514031183, 341.74476941575296 158.96879548576243, 341.4223596828588 138.34780313970586" stroke="#1f2937" stroke-width="1.5" fill="none" stroke-linecap="round" stroke-linejoin="round"></path></g><text x="376.6166007905138" y="163.58620689655174" text-anchor="middle" dominant-baseline="central" font-family="&quot;Comic Sans MS&quot;, &quot;Segoe Print&quot;, cursive" font-size="14" fill="#1f2937">14</text></g><g><g><path d="M341.82619490405256 193.05017917539027 L412.3266841356786 192.3556023159161 L412.40710045743305 243.99393869075797 L340.7614135958784 244.85372126731895" stroke="none" stroke-width="0" fill="#2e718e" stroke-linecap="round" stroke-linejoin="round"></path><path d="M341.2643340819114 193.46643359894898 C355.4704021585818 193.95533963343902, 369.0429443868635 193.02197726867004, 410.60555541116315 193.75094123120454 M411.5681907122167 193.11955838586238 C411.49947684429543 203.87622726634146, 412.43827253006356 216.25742693905687, 410.93401624608356 244.7459726396563 M411.90854441720563 244.19532087329648 C387.07989654977155 243.76281318703988, 363.54460271676123 245.05232451001504, 342.5971771471732 244.99610581878446 M342.64525379916364 243.70417404804252 C341.80622542525833 225.40646602791446, 342.2768547597081 206.07423118283523, 340.82923652907544 192.87246065522578" stroke="#1f2937" stroke-width="1.5" fill="none" stroke-linecap="round" stroke-linejoin="round"></path></g><text x="376.6166007905138" y="218.75862068965517" text-anchor="middle" dominant-baseline="central" font-family="&quot;Comic Sans MS&quot;, &quot;Segoe Print&quot;, cursive" font-size="14" fill="#1f2937">7</text></g><g><g><path d="M40.83204920370613 248.93553449859107 C114.8913412699328 248.01959517484084, 189.85973162795514 245.2113591325526, 415.22974693045063 248.38079594231226 M39.37041329970101 248.25681610765457 C123.65483848908916 246.42650543059213, 206.5404739852064 245.8735883006318, 415.4366959605844 248.7306736915432" stroke="#1f2937" stroke-width="1.5" fill="none" stroke-linecap="round" stroke-linejoin="round"></path></g><g><g><path d="M79.79488566439026 248.4626646748185 C79.1104067192691 249.75834917817264, 78.99502918821746 249.56957475818692, 79.00247377436035 254.18832104116677 M79.07203973914855 248.1270073322952 C79.5614633213299 249.71868708949538, 79.39199441778833 250.77335558570923, 79.10481955196136 254.36135161921382" stroke="#1f2937" stroke-width="1.5" fill="none" stroke-linecap="round" stroke-linejoin="round"></path></g><text x="79.38339920948619" y="260" text-anchor="middle" dominant-baseline="hanging" font-family="&quot;Comic Sans MS&quot;, &quot;Segoe Print&quot;, cursive" font-size="14" fill="#1f2937">c0</text></g><g><g><path d="M154.1031860596472 248.4626646748185 C153.418707114526 249.75834917817264, 153.30332958347438 249.56957475818692, 153.31077416961728 254.18832104116677 M153.38034013440546 248.1270073322952 C153.8697637165868 249.71868708949538, 153.70029481304522 250.77335558570923, 153.41311994721826 254.36135161921382" stroke="#1f2937" stroke-width="1.5" fill="none" stroke-linecap="round" stroke-linejoin="round"></path></g><text x="153.6916996047431" y="260" text-anchor="middle" dominant-baseline="hanging" font-family="&quot;Comic Sans MS&quot;, &quot;Segoe Print&quot;, cursive" font-size="14" fill="#1f2937">c1</text></g><g><g><path d="M228.4114864549041 248.4626646748185 C227.7270075097829 249.75834917817264, 227.6116299787313 249.56957475818692, 227.61907456487418 254.18832104116677 M227.68864052966236 248.1270073322952 C228.1780641118437 249.71868708949538, 228.00859520830213 250.77335558570923, 227.72142034247517 254.36135161921382" stroke="#1f2937" stroke-width="1.5" fill="none" stroke-linecap="round" stroke-linejoin="round"></path></g><text x="228" y="260" text-anchor="middle" dominant-baseline="hanging" font-family="&quot;Comic Sans MS&quot;, &quot;Segoe Print&quot;, cursive" font-size="14" fill="#1f2937">c2</text></g><g><g><path d="M302.719786850161 248.4626646748185 C302.0353079050398 249.75834917817264, 301.91993037398817 249.56957475818692, 301.92737496013103 254.18832104116677 M301.9969409249193 248.1270073322952 C302.4863645071006 249.71868708949538, 302.31689560355903 250.77335558570923, 302.0297207377321 254.36135161921382" stroke="#1f2937" stroke-width="1.5" fill="none" stroke-linecap="round" stroke-linejoin="round"></path></g><text x="302.3083003952569" y="260" text-anchor="middle" dominant-baseline="hanging" font-family="&quot;Comic Sans MS&quot;, &quot;Segoe Print&quot;, cursive" font-size="14" fill="#1f2937">c3</text></g><g><g><path d="M377.0280872454179 248.4626646748185 C376.34360830029675 249.75834917817264, 376.2282307692451 249.56957475818692, 376.23567535538797 254.18832104116677 M376.3052413201762 248.1270073322952 C376.7946649023575 249.71868708949538, 376.62519599881597 250.77335558570923, 376.338021132989 254.36135161921382" stroke="#1f2937" stroke-width="1.5" fill="none" stroke-linecap="round" stroke-linejoin="round"></path></g><text x="376.6166007905138" y="260" text-anchor="middle" dominant-baseline="hanging" font-family="&quot;Comic Sans MS&quot;, &quot;Segoe Print&quot;, cursive" font-size="14" fill="#1f2937">c4</text></g></g><g><g><path d="M41.179554452710086 25.326260368451397 C35.72307520336785 70.40147632149996, 35.39233751109951 111.22138784830949, 38.908050829381644 248.5398353214301 M39.107466490687244 24.364075323865837 C39.54925605867234 74.70243620826066, 39.063461696826465 123.50141708025741, 39.20143209684883 249.03583947018868" stroke="#1f2937" stroke-width="1.5" fill="none" stroke-linecap="round" stroke-linejoin="round"></path></g><g><g><path d="M40.41148645490408 53.70404398516334 C38.6464911910519 53.82888404121019, 37.331086686477065 52.440082647701274, 33.619074564874175 53.429700351511606 M39.68864052966237 53.368386642640004 C38.88282586950809 53.694122117837445, 37.38524561487139 53.420679262956156, 33.72142034247518 53.602730929558646" stroke="#1f2937" stroke-width="1.5" fill="none" stroke-linecap="round" stroke-linejoin="round"></path></g><text x="30" y="53.241379310344826" text-anchor="end" dominant-baseline="central" font-family="&quot;Comic Sans MS&quot;, &quot;Segoe Print&quot;, cursive" font-size="14" fill="#1f2937">r0</text></g><g><g><path d="M40.41148645490408 108.87645777826678 C38.6464911910519 109.00129783431362, 37.331086686477065 107.61249644080472, 33.619074564874175 108.60211414461506 M39.68864052966237 108.54080043574345 C38.88282586950809 108.86653591094088, 37.38524561487139 108.5930930560596, 33.72142034247518 108.77514472266209" stroke="#1f2937" stroke-width="1.5" fill="none" stroke-linecap="round" stroke-linejoin="round"></path></g><text x="30" y="108.41379310344827" text-anchor="end" dominant-baseline="central" font-family="&quot;Comic Sans MS&quot;, &quot;Segoe Print&quot;, cursive" font-size="14" fill="#1f2937">r1</text></g><g><g><path d="M40.41148645490408 164.04887157137026 C38.6464911910519 164.1737116274171, 37.331086686477065 162.7849102339082, 33.619074564874175 163.77452793771852 M39.68864052966237 163.71321422884694 C38.88282586950809 164.03894970404437, 37.38524561487139 163.76550684916307, 33.72142034247518 163.94755851576556" stroke="#1f2937" stroke-width="1.5" fill="none" stroke-linecap="round" stroke-linejoin="round"></path></g><text x="30" y="163.58620689655174" text-anchor="end" dominant-baseline="central" font-family="&quot;Comic Sans MS&quot;, &quot;Segoe Print&quot;, cursive" font-size="14" fill="#1f2937">r2</text></g><g><g><path d="M40.41148645490408 219.2212853644737 C38.6464911910519 219.34612542052054, 37.331086686477065 217.95732402701162, 33.619074564874175 218.94694173082195 M39.68864052966237 218.88562802195037 C38.88282586950809 219.2113634971478, 37.38524561487139 218.9379206422665, 33.72142034247518 219.119972308869" stroke="#1f2937" stroke-width="1.5" fill="none" stroke-linecap="round" stroke-linejoin="round"></path></g><text x="30" y="218.75862068965517" text-anchor="end" dominant-baseline="central" font-family="&quot;Comic Sans MS&quot;, &quot;Segoe Print&quot;, cursive" font-size="14" fill="#1f2937">r3</text></g></g></svg>