<svg xmlns="http://www.w3.org/2000/svg" viewBox="0 0 440 300" width="440" height="300" role="img"><g><g><path d="M40.42518627919043 24.478068401169587 C38.33483530720172 73.37800762824673, 38.21561645432001 120.7440650988198, 39.60639222389981 268.19459090775086 M39.67827428313669 24.131235850912947 C39.80355570976409 78.41344098294901, 39.62844459328247 132.1407558695811, 39.71214545064737 268.3733822793481" stroke="#d1d5db" stroke-width="0.75" fill="none" stroke-linecap="round" stroke-linejoin="round"></path></g><g><path d="M94.13947199347615 24.478068401169587 C92.04912102148744 73.37800762824673, 91.92990216860574 120.7440650988198, 93.32067793818554 268.19459090775086 M93.39255999742241 24.131235850912947 C93.51784142404982 78.41344098294901, 93.34273030756819 132.1407558695811, 93.42643116493309 268.3733822793481" stroke="#d1d5db" stroke-width="0.75" fill="none" stroke-linecap="round" stroke-linejoin="round"></path></g><g><path d="M147.85375770776184 24.478068401169587 C145.76340673577312 73.37800762824673, 145.64418788289143 120.7440650988198, 147.03496365247122 268.19459090775086 M147.1068457117081 24.131235850912947 C147.2321271383355 78.41344098294901, 147.05701602185388 132.1407558695811, 147.1407168792188 268.3733822793481" stroke="#d1d5db" stroke-width="0.75" fill="none" stroke-linecap="round" stroke-linejoin="round"></path></g><g><path d="M201.56804342204757 24.478068401169587 C199.47769245005884 73.37800762824673, 199.35847359717715 120.7440650988198, 200.74924936675694 268.19459090775086 M200.82113142599383 24.131235850912947 C200.94641285262122 78.41344098294901, 200.7713017361396 132.1407558695811, 200.8550025935045 268.3733822793481" stroke="#d1d5db" stroke-width="0.75" fill="none" stroke-linecap="round" stroke-linejoin="round"></path></g><g><path d="M255.28232913633326 24.478068401169587 C253.19197816434453 73.37800762824673, 253.07275931146285 120.7440650988198, 254.46353508104264 268.19459090775086 M254.53541714027952 24.131235850912947 C254.66069856690692 78.41344098294901, 254.4855874504253 132.1407558695811, 254.5692883077902 268.3733822793481" stroke="#d1d5db" stroke-width="0.75" fill="none" stroke-linecap="round" stroke-linejoin="round"></path></g><g><path d="M308.99661485061904 24.478068401169587 C306.90626387863034 73.37800762824673, 306.7870450257486 120.7440650988198, 308.17782079532844 268.19459090775086 M308.24970285456527 24.131235850912947 C308.37498428119267 78.41344098294901, 308.19987316471105 132.1407558695811, 308.283574022076 268.3733822793481" stroke="#d1d5db" stroke-width="0.75" fill="none" stroke-linecap="round" stroke-linejoin="round"></path></g><g><path d="M362.7109005649047 24.478068401169587 C360.620549592916 73.37800762824673, 360.5013307400343 120.7440650988198, 361.8921065096141 268.19459090775086 M361.96398856885094 24.131235850912947 C362.08926999547833 78.41344098294901, 361.9141588789967 132.1407558695811, 361.99785973636165 268.3733822793481" stroke="#d1d5db" stroke-width="0.75" fill="none" stroke-linecap="round" stroke-linejoin="round"></path></g><g><path d="M416.4251862791904 24.478068401169587 C414.33483530720173 73.37800762824673, 414.21561645432 120.7440650988198, 415.60639222389983 268.19459090775086 M415.67827428313666 24.131235850912947 C415.80355570976405 78.41344098294901, 415.62844459328244 132.1407558695811, 415.71214545064737 268.3733822793481" stroke="#d1d5db" stroke-width="0.75" fill="none" stroke-linecap="round" stroke-linejoin="round"></path></g><g><path d="M40.3120184513898 268.35082543697166 C115.08530943921679 268.0073481905653, 190.19951228646715 266.9542596747072, 415.711155098919 268.14279847836707 M39.76390498738788 268.09630604037045 C123.38825901796808 267.40993953647205, 206.4880669135717 267.20259561273696, 415.78876098521914 268.27400263432867" stroke="#d1d5db" stroke-width="0.75" fill="none" stroke-linecap="round" stroke-linejoin="round"></path></g><g><path d="M40.3120184513898 214.12860321474946 C115.08530943921679 213.78512596834312, 190.19951228646715 212.73203745248503, 415.711155098919 213.9205762561449 M39.76390498738788 213.87408381814825 C123.38825901796808 213.18771731424985, 206.4880669135717 212.98037339051476, 415.78876098521914 214.0517804121065" stroke="#d1d5db" stroke-width="0.75" fill="none" stroke-linecap="round" stroke-linejoin="round"></path></g><g><path d="M40.3120184513898 159.9063809925272 C115.08530943921679 159.56290374612087, 190.19951228646715 158.50981523026277, 415.711155098919 159.69835403392264 M39.76390498738788 159.651861595926 C123.38825901796808 158.9654950920276, 206.4880669135717 158.7581511682925, 415.78876098521914 159.82955818988424" stroke="#d1d5db" stroke-width="0.75" fill="none" stroke-linecap="round" stroke-linejoin="round"></path></g><g><path d="M40.3120184513898 105.68415877030499 C115.08530943921679 105.34068152389867, 190.19951228646715 104.28759300804057, 415.711155098919 105.47613181170044 M39.76390498738788 105.42963937370381 C123.38825901796808 104.74327286980538, 206.4880669135717 104.53592894607027, 415.78876098521914 105.60733596766204" stroke="#d1d5db" stroke-width="0.75" fill="none" stroke-linecap="round" stroke-linejoin="round"></path></g><g><path d="M40.3120184513898 51.461936548082775 C115.08530943921679 51.118459301676445, 190.19951228646715 50.06537078581835, 415.711155098919 51.253909589478226 M39.76390498738788 51.20741715148159 C123.38825901796808 50.52105064758317, 206.4880669135717 50.31370672384806, 415.78876098521914 51.38511374543982" stroke="#d1d5db" stroke-width="0.75" fill="none" stroke-linecap="round" stroke-linejoin="round"></path></g></g><g><g><path d="M40 268 C40.6485005825758 269.3716215163469, 74.61621558272839 191.642393881917, 90.51414385879039 184.01120767128467 M41.86107401549816 267.10380211174487 C40.721897324472664 265.1057496200502, 72.2339094428122 193.74271398791672, 90.53049644270538 185.20678583201766 M93.714 186.667 C111.33724813735485 184.95883825600146, 131.48845544707774 218.86988589012623, 145.35327019774914 214.62471554863453 M91.85680228316784 189.0760107947588 C110.77041968336701 185.18253580912946, 127.9930424889624 220.11098470458387, 144.39308487215638 212.07886386069654 M147.429 213.778 C165.4427348278761 210.51487640678883, 179.1120321034193 136.92066415321827, 203.11141301620006 135.30870499336717 M148.4363399990797 211.88709557640553 C168.9586787671149 205.12476740226148, 177.80027456465362 138.03251039561627, 202.2384539717734 129.50267147311567 M201.143 132.444 C214.66051924788954 128.968614874959, 241.80662914550302 165.55148257744312, 256.1590059078932 160.68317991173268 M200.80149575698377 134.09268536293504 C216.00374195852876 131.51208014163376, 237.89851680269837 166.66058305320144, 254.5018273743689 156.45818816146254 M254.857 159.556 C272.47803499114514 153.60805756676197, 287.650805167079 84.55422006905079, 307.81235746657853 78.58826920998096 M257.40395315063 159.53153406059744 C275.01158289042115 156.73870351943376, 287.7015865859091 82.3840884195268, 312.02633496275547 78.37598716792463 M308.571 78.222 C322.3425906513929 73.15633338844776, 346.3569937618971 110.59188053429126, 361.835651286006 107.35022679436207 M306.64127077376844 80.26252057564258 C325.5900814456046 77.58446077784896, 343.2142075470984 107.23850598677993, 364.5500128697455 102.85823548468947 M362.286 105.333 C384.3363698223829 103.00769624626636, 413.4395035237074 23.07459287941456, 415.13694595992564 21.118431571125985 M363.95888222014906 108.23064881432056 C384.62902375689146 102.66576890906691, 413.2250095690787 24.436908997148276, 416.4668034781516 20.75069385394454" stroke="#ef4444" stroke-width="1.5" fill="none" stroke-linecap="round" stroke-linejoin="round"></path></g><g><path d="M37.94342117032534 264.86098664678127 C37.94342117032534 264.86098664678127, 37.94342117032534 264.86098664678127, 37.94342117032534 264.86098664678127 M37.94342117032534 264.86098664678127 C37.94342117032534 264.86098664678127, 37.94342117032534 264.86098664678127, 37.94342117032534 264.86098664678127 M38.0791071632321 269.6395905549722 C40.419284572345276 269.7038508329815, 40.801866876928294 266.6672214847834, 42.77624221524215 266.8450982465939 M38.705819319915314 270.14210581003596 C39.72180880606644 269.5184498987216, 41.0173672141767 267.4010206669521, 41.80975630616761 265.7637813092367" stroke="#ef4444" stroke-width="1" fill="none" stroke-linecap="round" stroke-linejoin="round"></path><path d="M40.935853003843306 263.15559007192724 C41.58441981898031 263.29450056639524, 42.38308561582063 265.6889876659634, 42.61711228305682 266.5658807839472 C42.851138950293006 267.442773901931, 42.28423182032139 267.8598403876013, 42.34001300726043 268.4169487798301 C42.395794194199475 268.97405717205885, 43.29361639986171 269.2388460756564, 42.95179940469108 269.9085311373197 C42.60998240952045 270.578216198983, 40.97521310368177 272.26823301485354, 40.28911103623665 272.43505914981 C39.60300896879153 272.60188528476647, 39.42579937196997 271.7177839637303, 38.83518700002034 270.9094879470585 C38.24457462807071 270.1011919303867, 36.87017395001001 268.62084946798836, 36.74543680453887 267.58528304977904 C36.620699659067725 266.5497166315697, 37.8560711700947 265.15838672736896, 38.08676412719349 264.6960894378025 C38.31745708429228 264.2337921482361, 37.13032797417854 264.8872349776366, 38.12959454713159 264.8114993123804 C39.128861120084636 264.73576364712426, 43.03297466949496 263.6566658360348, 44.08236356491179 264.2416754462657 C45.13175246032861 264.82668505649656, 44.43964640555819 268.267758317291, 44.42592791963254 268.32155697376567 M42.69847540101859 263.41033716856185 C43.65237296233155 263.5778904144397, 43.99545331671092 264.2668925703378, 44.21171911648015 264.9196258263191 C44.42798491624937 265.57235908230035, 44.70261685080844 266.2535358101724, 43.996070199633955 267.3267367044494 C43.28952354845947 268.39993759872635, 40.60184790577973 270.49662643962495, 39.97243920943325 271.358831191981 C39.34303051308677 272.221035944337, 41.03478523187737 272.57100840717675, 40.219618021555085 272.4999652185856 C39.4044508112328 272.42892202999445, 35.335344746936514 271.4923053447225, 35.08143594749954 270.932572060434 C34.82752714806257 270.37283877614544, 38.375826947191015 269.83965249356464, 38.696165224933246 269.14156551285424 C39.01650350267548 268.44347853214384, 36.911513747352835 267.8871763960198, 37.00346561395295 266.7440501761715 C37.09541748055306 265.60092395632324, 38.57193628325628 262.2347726556741, 39.24787642453393 262.2828081937646 C39.92381656581158 262.3308437318551, 40.69710539545429 266.2937569090501, 41.05910646161887 267.03226340471446 C41.42110752778345 267.7707699003788, 41.399785321545906 266.98249676101705, 41.4198828215214 266.7138471677509" stroke="#1f2937" stroke-width="1.5" fill="none" stroke-linecap="round" stroke-linejoin="round"></path></g><g><path d="M91.47495998044126 182.86898303447492 C91.47495998044126 182.86898303447492, 91.47495998044126 182.86898303447492, 91.47495998044126 182.86898303447492 M91.47495998044126 182.86898303447492 C91.47495998044126 182.86898303447492, 91.47495998044126 182.86898303447492, 91.47495998044126 182.86898303447492 M91.8030599243203 188.2415123084516 C93.23923988311637 188.14198037295654, 94.72007046923481 185.0193727678077, 96.52028116442307 184.2672094612251 M91.55429234214218 188.94155298862168 C92.01930450637279 188.53950454872913, 93.37473803523056 186.58809725405663, 95.86298540689096 183.3036976282726" stroke="#ef4444" stroke-width="1" fill="none" stroke-linecap="round" stroke-linejoin="round"></path><path d="M94.31177845887467 181.71114244569034 C94.93281866876458 181.4349537022721, 95.97926694417517 181.87957725800217, 96.32758622794293 182.72283891025629 C96.6759055117107 183.5661005625104, 96.3338586780181 185.89288915868642, 96.40169416148127 186.77071235921505 C96.46952964494444 187.6485355597437, 97.08171181186614 187.45250679509695, 96.73459912872197 187.9897781134281 C96.38748644557779 188.52704943175922, 94.8481340130257 189.83606700749817, 94.3190180626162 189.99434026920187 C93.78990211220669 190.15261353090557, 94.31929677313315 189.20549306869498, 93.55990342626495 188.93941768365028 C92.80051007939676 188.67334229860558, 90.20893726157254 189.04164431226525, 89.76265798140705 188.39788795893372 C89.31637870124155 187.7541316056022, 90.61086263151716 185.982237217538, 90.88222774527193 185.07687956366115 C91.1535928590267 184.1715219097843, 90.65218100792268 183.51915831175572, 91.39084866393569 182.96574203567266 C92.12951631994869 182.4123257595896, 94.64759368224932 181.6395001225577, 95.31423368134993 181.75638190716288 C95.98087368045054 181.87326369176805, 95.33537931101131 183.57620816948713, 95.39068865853933 183.6670327433037 M93.95646189075306 182.6248978910272 C94.46959112130135 182.42933713357982, 95.49984092256996 182.74450221087488, 95.86061922008861 183.21684407663307 C96.22139751760726 183.68918594239125, 96.2552157703912 184.7935801470356, 96.12113167586497 185.4589490855762 C95.98704758133874 186.12431802411677, 95.50929405989353 186.49492641762865, 95.05611465293124 187.2090577078766 C94.60293524596895 187.92318899812457, 94.27708985828946 189.5269552696314, 93.40205523409124 189.74373682706403 C92.52702060989301 189.96051838449665, 89.9621760684333 188.8691178323346, 89.80590690774193 188.50974705247233 C89.64963774705056 188.15037627261006, 92.04046005579107 188.17801973355995, 92.46444026994303 187.58751214789046 C92.88842048409498 186.99700456222098, 92.04943095387998 185.97869726656265, 92.34978819265366 184.96670153845548 C92.65014543142735 183.95470581034832, 93.74526106603511 181.49852964176793, 94.26658370258511 181.51553777924744 C94.7879063391351 181.53254591672695, 95.14642592500613 184.59181220126365, 95.47772401195363 185.0687503633325 C95.80902209890112 185.54568852540135, 96.16826431389295 184.96009188631342, 96.25437222427009 184.37716675166052" stroke="#1f2937" stroke-width="1.5" fill="none" stroke-linecap="round" stroke-linejoin="round"></path></g><g><path d="M144.6349064971043 209.2050246241979 C144.6349064971043 209.2050246241979, 144.6349064971043 209.2050246241979, 144.6349064971043 209.2050246241979 M144.6349064971043 209.2050246241979 C144.6349064971043 209.2050246241979, 144.6349064971043 209.2050246241979, 144.6349064971043 209.2050246241979 M144.25276006596644 214.1746874750644 C145.98685259504737 213.96112929381246, 147.82551616964201 210.39384723428734, 148.55145687411056 211.0077255126029 M145.17289653601605 214.72223324025572 C146.60169613099947 213.8371649954639, 148.12655885096447 212.12183178895737, 148.53199914688693 210.6437747005313 M147.4815632683597 218.83381656237316 C148.3677650490556 217.26170142120216, 148.78555904225774 215.51028627306835, 151.16494357356768 214.78403935122364 M147.19828068180004 218.1000807413496 C148.66293197572602 216.93273371581947, 149.816813644306 215.98610638730608, 150.95921613084118 214.51465150068574" stroke="#ef4444" stroke-width="1" fill="none" stroke-linecap="round" stroke-linejoin="round"></path><path d="M144.50569274008046 209.35366804805645 C145.50598933292565 209.19877156774015, 148.76024541101626 210.81654346216942, 149.65148246851675 211.00019889906068 C150.54271952601724 211.18385433595193, 149.80019488983268 209.9269148160279, 149.85311508508343 210.45560066940405 C149.90603528033418 210.9842865227802, 149.72469030271478 213.35064066481624, 149.96900364002124 214.1723140193175 C150.2133169773277 214.99398737381875, 151.56703873256615 214.7445835017844, 151.3189951089222 215.38564079641154 C151.07095148527824 216.02669809103867, 149.28219349217255 217.69033724597602, 148.48074189815756 218.01865778708037 C147.67929030414257 218.34697832818472, 147.20804268656923 218.01891004879434, 146.51028554483233 217.35556404303762 C145.81252840309543 216.6922180372809, 144.5348731442565 214.719028593937, 144.29419904773616 214.03858175254004 C144.05352495121582 213.35813491114308, 144.63362097375435 214.0978982592672, 145.06624096571034 213.2728829946559 C145.49886095766632 212.4478677300446, 146.66322105122725 209.6686249441824, 146.88991899947206 209.08849016487235 C147.11661694771686 208.5083553855623, 146.30782172755883 209.68710645017666, 146.42642865517914 209.79207431879567 M149.94754981846086 210.4890351996206 C150.7769051461689 210.71387237939572, 151.64464713940896 209.80701764151422, 152.1251622071175 210.05530900840276 C152.60567727482606 210.3036003752913, 153.18585043113717 210.96802335321127, 152.83064022471225 211.9787834009519 C152.47543001828734 212.98954344869253, 151.03625262892143 215.5818187804033, 149.99390096856808 216.11986929484655 C148.95154930821474 216.6579198092898, 147.46483572032432 214.6986129431395, 146.57653026259212 215.20708648761146 C145.6882248048599 215.71556003208343, 144.68590609846677 219.29578656643736, 144.66406822217485 219.1707105616784 C144.64223034588292 219.04563455691942, 146.70810936320817 215.69143863591265, 146.44550300484056 214.45663045905758 C146.18289664647295 213.2218222822025, 143.40148831380438 212.60293486928305, 143.08843007196919 211.76186150054795 C142.775371830134 210.92078813181286, 143.44365139911403 209.41136484539192, 144.56715355382946 209.410190246647 C145.69065570854488 209.4090156479021, 149.55341841986117 211.54218556937562, 149.8294430002617 211.75481390807855 C150.10546758066224 211.96744224678147, 146.87006773942005 210.78657982393224, 146.2233010362326 210.68596027886454" stroke="#1f2937" stroke-width="1.5" fill="none" stroke-linecap="round" stroke-linejoin="round"></path></g><g><path d="M198.76175517114808 129.05552897484407 C198.76175517114808 129.05552897484407, 198.76175517114808 129.05552897484407, 198.76175517114808 129.05552897484407 M198.76175517114808 129.05552897484407 C198.76175517114808 129.05552897484407, 198.76175517114808 129.05552897484407, 198.76175517114808 129.05552897484407 M199.06808171997307 134.02440761127357 C201.85764015721534 133.6131956319106, 202.61212840174917 130.26181914752388, 202.73080568721937 130.11234469018657 M199.19273845116138 134.6894788015712 C200.08123588850083 133.8122695272007, 201.53476192341518 131.4539001738357, 203.26053811153815 128.9861989825197 M202.40661591650885 137.64825697176914 C202.38382889374594 137.17913602366178, 203.28442867091334 135.91082965328835, 203.7372611316847 134.84314478307226 M202.09998984726113 137.30126831495028 C202.57618849493292 136.61298019257254, 203.4256584124026 135.98850407789547, 203.9726791775035 135.18763450264194" stroke="#ef4444" stroke-width="1" fill="none" stroke-linecap="round" stroke-linejoin="round"></path><path d="M203.43789466937758 128.83543008768794 C203.76898446276473 129.4572340973628, 203.75642427647625 130.61896115975009, 203.8521444798836 131.59290984069983 C203.94786468329096 132.56685852164958, 204.08576149289718 133.80947396995657, 204.01221588982162 134.6791221733864 C203.93867028674606 135.5487703768162, 204.10849698463403 136.38110979286978, 203.4108708614302 136.81079906127866 C202.71324473822636 137.24048832968754, 200.68068474329067 137.85979981421914, 199.82645915059857 137.2572577838396 C198.97223355790646 136.65471575346007, 198.67123337203458 133.95763630622957, 198.2855173052776 133.19554687900145 C197.89980123852064 132.43345745177334, 197.40609603693008 133.4054318344658, 197.51216275005666 132.68472122047095 C197.61822946318324 131.9640106064761, 198.51560863385953 129.58366865877395, 198.92191758403703 128.87128319503233 C199.32822653421454 128.15889773129072, 198.979617765825 128.15711821773894, 199.95001645112166 128.41040843802134 C200.9204151364183 128.66369865830373, 204.1672961627824 129.75308518183923, 204.74430969581695 130.39102451672667 C205.3213232288515 131.02896385161412, 203.33483823125343 132.15918112623444, 203.41209764932896 132.23804444734606 M201.12370129655335 130.13366311778898 C202.22489989774954 129.97326145366713, 202.8720350440827 128.60836983424207, 203.4387091343361 128.594770422061 C204.0053832245895 128.58117100987994, 204.30500822519502 129.54493371988804, 204.5237458380737 130.0520666447026 C204.74248345095236 130.55919956951715, 204.7566281529654 130.5128582407732, 204.75113481160818 131.63756797094828 C204.74564147025097 132.76227770112337, 205.3475548617421 136.00822690698362, 204.49078578993053 136.80032502575307 C203.63401671811894 137.5924231445225, 200.25530890206878 137.05603789815967, 199.61052038073873 136.3901566835649 C198.9657318594087 135.72427546897012, 200.75076014003042 133.83793005714122, 200.62205466195022 132.80503773818444 C200.49334918387 131.77214541922766, 198.97599070651108 130.81704608624534, 198.8382875122575 130.19280276982423 C198.7005843180039 129.5685594534031, 199.70784582531255 129.05481695756177, 199.7958354964287 129.05957783965766 C199.88382516754487 129.06433872175356, 199.16926610043055 130.26950674991534, 199.36622553895447 130.2213680623996 C199.5631849774784 130.17322937488385, 200.75698450349725 129.19280858761266, 200.97759212757217 128.77074571456316" stroke="#1f2937" stroke-width="1.5" fill="none" stroke-linecap="round" stroke-linejoin="round"></path></g><g><path d="M252.76649793045635 154.80092774110665 C252.76649793045635 154.80092774110665, 252.76649793045635 154.80092774110665, 252.76649793045635 154.80092774110665 M252.76649793045635 154.80092774110665 C252.76649793045635 154.80092774110665, 252.76649793045635 154.80092774110665, 252.76649793045635 154.80092774110665 M252.68287399725574 161.3102844806573 C254.18688419598735 160.65511562663974, 256.019877322129 157.75120259883693, 257.88321874962656 156.59104232526425 M251.74095504181045 162.10038618108243 C254.196434646898 160.3198187429244, 255.25532402265762 157.2888358345996, 256.55997935579626 155.782262742883 M256.2060048846622 164.3009008827069 C255.89990539041375 161.9545699499639, 257.5401696834268 161.92358761663021, 258.5581086300405 160.6003041315335 M255.46720057372946 163.8780078476676 C257.0459371343667 162.15380571867348, 257.7796808863429 161.0641364180406, 258.748562892163 160.41799104730367" stroke="#ef4444" stroke-width="1" fill="none" stroke-linecap="round" stroke-linejoin="round"></path><path d="M257.00138125962326 155.29319085579598 C257.9431443910288 155.5238395433424, 257.76308374865215 158.03652308276497, 258.0298941917537 159.07640980675828 C258.2967046348553 160.11629653075158, 258.6845814181079 160.75542361967388, 258.60224391823266 161.53251119975576 C258.51990641835744 162.30959877983764, 258.3275268479542 163.35728989406863, 257.5358691925024 163.73893528724952 C256.7442115370506 164.1205806804304, 254.6646424686785 163.8909408935698, 253.85229798552209 163.82238355884112 C253.03995350236568 163.75382622411246, 253.30391459370608 164.1510615688925, 252.6618022935639 163.32759127887752 C252.01968999342174 162.50412098886255, 250.23422896249852 159.86065700542008, 249.9996241846691 158.88156181875138 C249.76501940683968 157.90246663208268, 250.74888513541669 158.1839063979275, 251.25417362658746 157.45302015886531 C251.75946211775823 156.72213391980313, 252.14827627765186 154.80420233997114, 253.03135513169372 154.4962443843782 C253.91443398573557 154.18828642878526, 255.6228167472099 155.46366236831628, 256.5526467508387 155.60527242530776 C257.4824767544674 155.74688248229924, 258.47365568424686 155.21760043792762, 258.61033515346634 155.34590472632715 M252.33776211993293 153.65427840487368 C252.86766851444943 153.11450257187732, 254.0311116479728 155.27026732752645, 254.64355056520316 155.7652330997838 C255.2559894824335 156.26019887204117, 255.23568244268043 155.86889287615492, 256.01239562331494 156.62407303841778 C256.78910880394943 157.37925320068064, 259.05654138488785 159.42944026635288, 259.3038296490102 160.29631407336103 C259.55111791313254 161.16318788036918, 258.28098975213857 161.5694380555726, 257.4961252080489 161.8253158804667 C256.71126066395925 162.0811937053608, 255.01645725591206 161.42417641023383, 254.59464238447237 161.83158102272563 C254.17282751303267 162.23898563521743, 255.7300486171366 164.25928642723886, 254.96523597941075 164.26974355541748 C254.2004233416849 164.2802006835961, 250.76808865102268 163.05234815123976, 250.00576655811727 161.89432379179735 C249.24344446521187 160.73629943235494, 249.76877827784216 158.07666643312308, 250.39130342197834 157.321597398763 C251.0138285661145 156.56652836440293, 252.8446289303819 157.66302787531598, 253.74091742293436 157.36390958563692 C254.63720591548682 157.06479129595786, 255.48168424837723 155.4742529104612, 255.76903437729305 155.52688766068866" stroke="#1f2937" stroke-width="1.5" fill="none" stroke-linecap="round" stroke-linejoin="round"></path></g><g><path d="M307.34449976758754 73.7186005597997 C307.34449976758754 73.7186005597997, 307.34449976758754 73.7186005597997, 307.34449976758754 73.7186005597997 M307.34449976758754 73.7186005597997 C307.34449976758754 73.7186005597997, 307.34449976758754 73.7186005597997, 307.34449976758754 73.7186005597997 M306.3906294593699 79.66509087624014 C308.47308886990794 79.15019319481317, 310.9263385961219 75.179721880545, 311.82850880877254 75.31848002538935 M306.8576145561523 80.38269766168655 C308.22772378712943 79.20050733159235, 309.9487715192077 77.31125000770085, 311.2231074452507 75.02926146388904" stroke="#ef4444" stroke-width="1" fill="none" stroke-linecap="round" stroke-linejoin="round"></path><path d="M307.1642566961099 73.92594649484803 C308.06071724806526 73.72105178133053, 310.77272855691564 74.77982700511033, 311.67476273939866 75.22483585895758 C312.5767969218817 75.66984471280482, 312.6472101155214 76.05173813337849, 312.5764617910079 76.59599961793151 C312.5057134664944 77.14026110248453, 311.50220319888984 77.71088650618447, 311.2502727923177 78.49040476627569 C310.9983423857455 79.26992302636691, 311.701863084896 80.80134633321842, 311.06487935157486 81.27310917847883 C310.42789561825373 81.74487202373925, 308.2228017002703 81.57537654096807, 307.4283703923908 81.32098183783813 C306.63393908451127 81.0665871347082, 306.8475918526572 80.3084216229076, 306.29829150429777 79.74674095969924 C305.7489911559383 79.18506029649087, 304.1259134100568 78.57913777745269, 304.13256830223406 77.95089785858795 C304.13922319441133 77.32265793972321, 305.6115774010778 76.65868995123776, 306.3382208573614 75.97730144651082 C307.06486431364505 75.29591294178388, 307.8159978361368 73.91098263196281, 308.4924290399357 73.86256683022631 C309.1688602437346 73.81415102848982, 310.2028993136928 75.53385289608404, 310.396808080155 75.6868066360918 M308.4403367039682 73.75463698246188 C309.1596136083274 73.65281423816043, 309.97502397763185 74.52434929088726, 310.5884057609206 74.70866792719205 C311.2017875442093 74.89298656349685, 311.6120126469463 74.70198265831517, 312.12062740370044 74.86054880029066 C312.62924216045457 75.01911494226614, 313.93515014373054 75.10023959143503, 313.64009430144523 75.66006477904494 C313.3450384591599 76.21988996665486, 311.02971053207415 76.93057936215344, 310.3502923499887 78.21949992595013 C309.67087416790326 79.50842048974683, 309.7159116470669 82.71077679189303, 309.5635852089326 83.39358816182508 C309.41125877079827 84.07639953175713, 309.9995305701207 82.828575149183, 309.4363337211829 82.31636814554248 C308.8731368722451 81.80416114190197, 306.7600649802265 81.1622022548326, 306.1844041153056 80.32034613998196 C305.6087432503847 79.47849002513134, 305.6457487062801 77.93759007987273, 305.98236853165747 77.2652314564387 C306.31898835703487 76.59287283300466, 308.2266478041034 76.82068478501445, 308.20412306756987 76.28619439937778 C308.18159833103635 75.7517040137411, 306.29460270804407 74.33469323136333, 305.8472201124565 74.05828914261869" stroke="#1f2937" stroke-width="1.5" fill="none" stroke-linecap="round" stroke-linejoin="round"></path></g><g><path d="M360.6981746764264 101.54806066492834 C360.6981746764264 101.54806066492834, 360.6981746764264 101.54806066492834, 360.6981746764264 101.54806066492834 M360.6981746764264 101.54806066492834 C360.6981746764264 101.54806066492834, 360.6981746764264 101.54806066492834, 360.6981746764264 101.54806066492834 M359.92410751116626 108.31216266137976 C360.62000453652155 107.53849586214618, 364.394439356012 103.92704588590742, 364.59320127171577 103.0962943005424 M359.37342097354286 109.16230504197496 C362.37931405707343 107.03318782584697, 363.743942515306 104.53833295120614, 364.5326661203534 103.24400288520864" stroke="#ef4444" stroke-width="1" fill="none" stroke-linecap="round" stroke-linejoin="round"></path><path d="M360.58106256802705 101.6827827345339 C360.7732168368023 101.05408782488904, 360.86731032449796 100.05568646418203, 361.7619162219373 100.34802000351935 C362.6565221193767 100.64035354285667, 365.5090003283338 102.73486308227993, 365.9486979526632 103.43678397055785 C366.38839557699265 104.13870485883578, 364.5891409220333 104.04321234083795, 364.400101967914 104.55954533318689 C364.21106301379467 105.07587832553583, 365.15505140318663 105.5755368139206, 364.81446422794727 106.53478192465144 C364.4738770527079 107.49402703538227, 363.1743891523498 109.95356269410351, 362.3565789164777 110.31501599757188 C361.5387686806056 110.67646930104024, 360.69508687668304 109.25660379959918, 359.9076028127146 108.70350174546162 C359.1201187487461 108.15039969132407, 357.6020370233046 107.91136191253132, 357.6316745326669 106.99640367274657 C357.66131204202924 106.08144543296181, 359.73962101384876 104.13459012816247, 360.0854278688885 103.2137523067531 C360.4312347239282 102.29291448534372, 359.60892965626255 101.65020953667141, 359.70651566290513 101.4713767442903 C359.8041016695477 101.29254395190918, 360.4077109172704 101.97827021192874, 360.67094390874405 102.14075555246637 M365.126785168645 101.88325115434003 C365.3834536642197 102.61874523702576, 366.17115509606083 104.6795744402458, 366.10791489975975 105.58197243538444 C366.04467470345867 106.48437043052309, 364.82837298582206 106.6276680379392, 364.7473439908383 107.29763912517186 C364.6663149958546 107.96761021240451, 365.8998831651246 109.10583645149376, 365.6217409298574 109.60179895878036 C365.34359869459024 110.09776146606697, 364.12542676215725 110.71255846618106, 363.07849057923505 110.27341416889145 C362.03155439631286 109.83426987160183, 359.7068429944741 108.0308210364147, 359.34012383232425 106.96693317504268 C358.97340467017443 105.90304531367067, 361.08247013804584 104.83622553929021, 360.878175606336 103.8900870006594 C360.6738810746262 102.9439484620286, 358.1528270705125 101.68340870831423, 358.1143566420652 101.29010194325787 C358.07588621361793 100.8967951782015, 359.79121204385535 101.20580759962947, 360.6473530356523 101.53024641032125 C361.5034940274493 101.85468522101304, 362.35882772368086 103.38739754315516, 363.25120259284694 103.23673480740858 C364.143577462013 103.086072071662, 365.67344880208356 100.42477644272266, 366.0016022506486 100.62626999584178" stroke="#1f2937" stroke-width="1.5" fill="none" stroke-linecap="round" stroke-linejoin="round"></path></g><g><path d="M411.98434476154495 21.57922677852096 C411.98434476154495 21.57922677852096, 411.98434476154495 21.57922677852096, 411.98434476154495 21.57922677852096 M411.98434476154495 21.57922677852096 C411.98434476154495 21.57922677852096, 411.98434476154495 21.57922677852096, 411.98434476154495 21.57922677852096 M413.97845468325636 26.239200034304062 C415.35381506709007 25.400180817072297, 417.26582627498436 23.05061467292265, 416.71148941481545 21.458041253689498 M412.547768145633 27.009342414899272 C414.39948917024776 25.30173519534057, 415.2680585994898 22.76158990092252, 417.210954263453 20.88574983835575 M416.68130407714807 28.621842984590312 C417.4587231559878 27.734088987643013, 418.20466338422193 25.86111066662101, 419.43649298278183 24.64501692338124 M416.8592171796557 28.665214128527424 C417.69992182661105 27.204357050969872, 419.07542918918625 25.877479582269128, 419.82121980217784 24.59331598861352" stroke="#ef4444" stroke-width="1" fill="none" stroke-linecap="round" stroke-linejoin="round"></path><path d="M419.5418964145181 20.938445678222887 C420.17988067943475 21.671787329134638, 419.20225014936295 23.516170247849903, 419.33610494462437 24.14086405174749 C419.4699597398858 24.765557855645074, 420.56239360137187 24.119316906690937, 420.3450251860867 24.686608501608394 C420.1276567708015 25.25390009652585, 419.1934512795109 26.87386633409965, 418.0318944529133 27.544613621252225 C416.87033762631575 28.2153609084048, 414.3720353079686 29.03317131454992, 413.3756842265011 28.71109222452385 C412.3793331450336 28.389013134497777, 411.96791486233275 26.411958656394212, 412.0537879641083 25.612139081095783 C412.1396610658839 24.812319505797355, 413.8945357643777 24.593484836881647, 413.8909228371546 23.912174772733287 C413.88730990993156 23.230864708584928, 411.87400699277856 21.975517703086574, 412.03211040077014 21.524278696205624 C412.1902138087617 21.073039689324673, 413.82060077577074 20.997134926510395, 414.83954328510396 21.20474073144759 C415.8584857944372 21.412346536384785, 417.5354239823697 22.140991525783914, 418.1457654567695 22.769913525828787 C418.75610693116926 23.39883552587366, 418.289454301199 24.84182531251465, 418.50159213150255 24.978272731716828 M416.4439440562538 20.948461584256904 C417.08249941622404 21.318978630426614, 416.9805188140185 23.02230876144576, 417.8713006911581 23.7649199856048 C418.7620825682977 24.507531209763837, 422.1056845759348 25.110467776763876, 421.7886353190913 25.40412892921113 C421.47158606224787 25.697790081658383, 416.89342410363173 25.15130793638251, 415.96900515009736 25.52688690028833 C415.044586196563 25.90246586419415, 416.5749235803714 27.79802086811995, 416.24212159788505 27.65760271264604 C415.9093196153987 27.51718455717213, 414.25859860870526 25.55889133578059, 413.9721932551793 24.68437796744486 C413.6857879016534 23.80986459910913, 414.62488839811573 23.276817652145947, 414.52368947672954 22.410522502631665 C414.42249055534336 21.544227353117382, 413.17857597313895 19.780289358709812, 413.36499972686215 19.48660707035916 C413.55142348058536 19.192924782008507, 414.9148998633699 20.375551372007926, 415.6422319990689 20.648428772527748 C416.36956413476787 20.92130617304757, 417.6536844403485 21.541405220057065, 417.7289925410561 21.123871473478093 C417.80430064176363 20.70633772689912, 416.5009029509787 18.253519109779063, 416.0940806033142 18.143226293053907" stroke="#1f2937" stroke-width="1.5" fill="none" stroke-linecap="round" stroke-linejoin="round"></path></g></g><g><g><path d="M40 240.889 C38.097001165151596 240.43224303269386, 76.63843116545678 228.288787763834, 90.5142877175808 211.66641534256934 M40.52214803099632 242.29660422348977 C37.763794648945336 238.7804992401004, 78.75381888562441 225.6094279758334, 91.02699288541078 214.5375716640353 M93.714 213.778 C112.42949627470969 201.89367651200294, 125.67891089415549 161.02677178025246, 146.47754039549827 158.04943109726906 M93.19960456633568 215.39602158951757 C110.81583936673402 201.86107161825896, 125.56808497792481 163.02896940916776, 145.03716974431276 159.83772772139312 M147.429 159.556 C162.3384696557522 158.04475281357765, 185.3440642068386 192.15532830643656, 201.87982603240013 189.19640998673438 M146.24367999815942 158.97419115281107 C162.49035753422976 154.14453480452298, 183.20054912930726 187.4990207912326, 199.65390794354678 184.46434294623137 M201.143 186.667 C219.58603849577904 179.650229749918, 237.3482582910061 110.98996515488625, 254.26101181578636 104.38735982346535 M203.65999151396753 186.76437072587012 C222.7524839170575 184.2571602832675, 236.41203360539677 112.72816610640287, 257.82665474873784 102.81737632292509 M254.857 105.333 C268.2360699822903 103.30211513352394, 294.992610334158 135.24444013810157, 310.25371493315697 129.9765384199619 M256.75090630126 108.48406812119484 C273.7831657808423 102.68340703886747, 295.5741731718183 137.78417683905363, 311.8016699255109 129.07197433584926 M308.571 132.444 C327.5201813027859 128.6476667768955, 339.02198752379417 55.29276106858253, 364.5853025720119 51.945453588724135 M307.9115415475369 133.32504115128515 C327.1351628912091 130.6239215556979, 339.61641509419684 55.46601197355985, 363.134025739491 49.841470969378946 M362.286 51.111 C378.1227396447659 49.92339249253273, 414.0790070474148 79.57118575882912, 417.4738919198513 75.65886314225196 M362.4317644402981 53.706297628641124 C378.228047513783 48.75953781813383, 414.13001913815737 75.41581799429655, 413.25360695630314 75.40338770788908" stroke="#f59e0b" stroke-width="1.5" fill="none" stroke-linecap="round" stroke-linejoin="round"></path></g><g><path d="M38.6833019156262 235.02885631921419 C38.6833019156262 235.02885631921419, 38.6833019156262 235.02885631921419, 38.6833019156262 235.02885631921419 M38.6833019156262 235.02885631921419 C38.6833019156262 235.02885631921419, 38.6833019156262 235.02885631921419, 38.6833019156262 235.02885631921419 M39.442635413428896 240.21616905862598 C40.09606209225241 239.70887021906785, 40.209384994833975 239.32423776179434, 41.430246842784754 238.14718155235553 M38.931599325930826 240.6331894393465 C39.781425183207936 239.71225013083978, 40.43999967926501 238.94289063533108, 41.10270843452024 238.2606762158176 M40.01480110788444 247.42644642965485 C41.84568849264806 242.9362501226215, 43.0467470477927 242.9585245510117, 43.936127305567766 240.16255095394934 M39.688645778537776 246.3025435371845 C40.732187080631235 244.18975280290923, 42.432335071155315 243.6084764183275, 45.22760905736735 240.15819207164134" stroke="#f59e0b" stroke-width="1" fill="none" stroke-linecap="round" stroke-linejoin="round"></path><path d="M41.437752370634605 238.41423488805262 C42.123266307151916 238.5477724819893, 42.874306976441744 238.3623431738773, 43.358303736098264 239.26851454414233 C43.842300495754785 240.17468591440738, 44.709713563725096 242.8606467156627, 44.34173292857371 243.85126310964284 C43.97375229342233 244.84187950362298, 41.79786318957887 244.9396780830991, 41.15041992518997 245.21221290802322 C40.502976660801075 245.48474773294734, 41.07663378813745 245.5879962262819, 40.45707334224034 245.48647205918752 C39.837512896343235 245.38494789209315, 37.95026310275172 245.5458050766179, 37.43305724980734 244.60306790545695 C36.91585139686296 243.660330734296, 37.379955263401385 240.71195258465494, 37.35383822457405 239.83004903222184 C37.32772118574671 238.94814547978874, 37.100418084727714 240.05934215993983, 37.27635501684334 239.31164659085832 C37.452291948958965 238.5639510217768, 37.66679127332051 235.6912398852421, 38.40945981726781 235.34387561773278 C39.152128361215105 234.99651135022344, 41.14809735481409 236.70367808228644, 41.732366280527124 237.2274609858023 C42.31663520624016 237.75124388931818, 41.73753455377724 238.5717312686225, 41.91507337154601 238.4865730388279 M40.15831700561601 237.6605677404893 C40.891294916643474 237.43334381630325, 42.22043632338968 236.35684789625412, 42.98572553988907 236.54858367314995 C43.75101475638846 236.74031945004577, 44.85029344800354 237.34773136853235, 44.75005230461236 238.81098240186435 C44.64981116122118 240.27423343519635, 43.43375700039601 244.4848961384847, 42.38427867954198 245.32808987314195 C41.33480035868795 246.1712836077992, 38.82757841211518 243.87608836401614, 38.45318237948818 243.87014480980793 C38.078786346861186 243.8642012555997, 40.49135493223879 245.89376430517012, 40.13790248378001 245.29242854789274 C39.78445003532123 244.69109279061536, 37.24275643079415 241.21491810539072, 36.33246768873551 240.2621302661436 C35.42217894667687 239.30934242689648, 34.26896715454771 239.66654513337488, 34.67617003142818 239.57570151240995 C35.08337290830865 239.48485789144502, 37.45803760088231 239.86716586043795, 38.77568495001834 239.7170685403541 C40.09333229915437 239.56697122027023, 42.42263154352323 238.8632081549585, 42.582054126244365 238.67511759190685 C42.7414767089655 238.4870270288552, 40.0425779738666 238.994261162372, 39.73222044634515 238.5885251620443" stroke="#1f2937" stroke-width="1.5" fill="none" stroke-linecap="round" stroke-linejoin="round"></path></g><g><path d="M91.55490667800447 210.76375249872387 C91.55490667800447 210.76375249872387, 91.55490667800447 210.76375249872387, 91.55490667800447 210.76375249872387 M91.55490667800447 210.76375249872387 C91.55490667800447 210.76375249872387, 91.55490667800447 210.76375249872387, 91.55490667800447 210.76375249872387 M91.21532844352093 215.18283605025968 C94.16104481996729 213.45257568713927, 95.5930744802207 210.4606887818236, 98.31933404868904 208.69652129088595 M91.34228841605155 216.46767007501683 C92.89092044341562 214.1880315215891, 95.88816903938641 212.86076367621072, 98.04698996028367 209.5750298752363" stroke="#f59e0b" stroke-width="1" fill="none" stroke-linecap="round" stroke-linejoin="round"></path><path d="M94.87264832841058 210.91824418715632 C95.57771591037499 210.62171257934978, 96.6327243153994 209.03408442395212, 97.2602486024838 209.40174264264587 C97.8877728895682 209.76940086133962, 98.9976955393245 211.75719322224396, 98.63779405091697 213.12419349931884 C98.27789256250944 214.49119377639371, 95.78890381809683 216.87345156686126, 95.10083967203857 217.60374430509515 C94.41277552598032 218.33403704332903, 95.02212969031422 217.5846146804106, 94.50940917456747 217.50594992872215 C93.99668865882072 217.4272851770337, 92.75200662733936 217.5409842394616, 92.02451657755809 217.13175579496442 C91.29702652777682 216.72252735046723, 90.50556848756042 215.58543245072536, 90.14446887587988 215.05057926173907 C89.78336926419934 214.51572607275278, 89.62039854271421 214.63992319725557, 89.8579189074748 213.9226366610466 C90.09543927223538 213.20535012483762, 90.74966836976088 211.3967915418165, 91.56959106444334 210.74686004448517 C92.3895137591258 210.09692854715385, 94.14844117539522 209.91080697553255, 94.77745507556952 210.02304767705868 C95.40646897574382 210.13528837858482, 95.12732812557675 211.48608086623028, 95.34367446548913 211.42030425364197 M91.33427490755503 211.42152725268156 C91.5590287170266 210.79840892311844, 93.4945273002427 209.26284382046833, 94.36207711523913 209.19977055216842 C95.22962693023557 209.1366972838685, 96.06218238807664 210.06282061019522, 96.53957379753362 211.043087642882 C97.0169652069906 212.02335467556878, 97.2495018104787 213.62697443355006, 97.22642557198103 215.08137274828906 C97.20334933348335 216.53577106302805, 96.7636806307462 219.47483395357838, 96.40111636654753 219.76947753131594 C96.03855210234886 220.0641211090535, 96.04717606911362 217.1899324001223, 95.05103998678898 216.84923421471436 C94.05490390446434 216.5085360293064, 91.21121580975385 218.4909124880495, 90.4242998725997 217.7252884188682 C89.63738393544556 216.95966434968688, 90.54338339786193 213.75354765979966, 90.3295443638641 212.25548979962656 C90.11570532986627 210.75743193945345, 88.84308254779279 208.9031890010587, 89.14126566861272 208.73694125782959 C89.43944878943265 208.57069351460046, 91.22780039471007 210.9155335491682, 92.11864308878367 211.25800334025175 C93.00948578285727 211.6004731313353, 93.92930180704415 210.717174488837, 94.48632183305429 210.7917600043308" stroke="#1f2937" stroke-width="1.5" fill="none" stroke-linecap="round" stroke-linejoin="round"></path></g><g><path d="M142.8774289238453 158.65179192384835 C142.8774289238453 158.65179192384835, 142.8774289238453 158.65179192384835, 142.8774289238453 158.65179192384835 M142.8774289238453 158.65179192384835 C142.8774289238453 158.65179192384835, 142.8774289238453 158.65179192384835, 142.8774289238453 158.65179192384835 M144.21026370670168 162.57953751086922 C145.14462167685474 160.85631599303247, 147.38825777708772 159.1230924918672, 148.97930985982936 156.56561128870376 M144.51873322452872 163.75163253962725 C145.29546302146477 162.15477993399583, 146.30770631370513 160.56681797467974, 149.3685783469252 157.82475189165004" stroke="#f59e0b" stroke-width="1" fill="none" stroke-linecap="round" stroke-linejoin="round"></path><path d="M145.02889082706739 156.99611604169138 C145.62663949566786 156.7848690557706, 146.29074021164516 155.8175953681564, 147.50446239813837 156.0641856455444 C148.7181845846316 156.3107759229324, 151.60279032802492 157.9483596994384, 152.31122394602667 158.47565770601943 C153.01965756402842 159.00295571260045, 152.40290794547363 158.6862921790528, 151.75506410614892 159.22797368503043 C151.1072202668242 159.76965519100807, 149.2331082357046 160.7386468362478, 148.42416091007846 161.7257467418853 C147.6152135844523 162.7128466475228, 147.72041558756456 164.94966163923164, 146.901380152392 165.15057311885542 C146.08234471721943 165.3514845984792, 144.15437866349953 164.04451788112428, 143.5099482990431 162.931215619628 C142.86551793458665 161.81791335813173, 142.77529780019893 159.55132083873315, 143.03479796565327 158.47075954987778 C143.2942981311076 157.39019826102242, 144.42417894808455 156.96858142561925, 145.06694929176916 156.44784788649577 C145.70971963545378 155.92711434737228, 145.93076829697333 155.4985012682177, 146.89142002776106 155.34635831513683 C147.8520717585488 155.19421536205596, 150.56018708372542 155.5753657476914, 150.83085967649558 155.5349901680105 M147.32450830274257 153.51567622370368 C148.59700191758554 153.2976928616521, 149.4775391540343 154.47360607280729, 150.40972744514713 154.9203923235646 C151.34191573625995 155.36717857432194, 152.67370888678454 154.95104189939374, 152.91763804941957 156.19639372824756 C153.1615672120546 157.44174555710137, 152.44935267398768 161.17113218537267, 151.87330242095737 162.39250329668747 C151.29725216792707 163.61387440800226, 150.56937657459076 162.9452255071932, 149.46133653123778 163.52462039613636 C148.3532964878848 164.10401528507953, 146.0190971482661 165.9289633453395, 145.22506216083946 165.86887263034643 C144.43102717341282 165.80878191535336, 145.3347480061327 164.49610492493252, 144.69712660667798 163.16407610617802 C144.05950520722325 161.8320472874235, 141.439285039024 159.13080456071356, 141.39933376411116 157.8766997178194 C141.3593824891983 156.62259487492526, 143.6123899937907 155.78988391054534, 144.4574189572008 155.6394470488132 C145.30244792061086 155.48901018708105, 146.4700085035805 156.89343667322066, 146.4695075445715 156.9740785474265 C146.46900658556254 157.05472042163234, 144.63025354849276 156.3724629388986, 144.454413203147 156.12329829404823" stroke="#1f2937" stroke-width="1.5" fill="none" stroke-linecap="round" stroke-linejoin="round"></path></g><g><path d="M198.56881948594403 181.88833227639714 C198.56881948594403 181.88833227639714, 198.56881948594403 181.88833227639714, 198.56881948594403 181.88833227639714 M198.56881948594403 181.88833227639714 C198.56881948594403 181.88833227639714, 198.56881948594403 181.88833227639714, 198.56881948594403 181.88833227639714 M199.37219560317632 187.5570254824589 C200.95620931370806 185.8871458864493, 201.52877164225202 185.18102790798898, 202.1926886782412 182.0775660731822 M198.69327061407205 188.6088764301966 C199.51295640350327 186.53084316625132, 200.99167145308883 184.84763576043048, 203.08573171052976 182.47777767384346 M200.14963527257933 192.3670535989928 C201.02858773657093 190.48013954045257, 203.06746028163207 187.92083528253033, 204.14511491990984 185.62442402370047 M201.14765373821749 192.03640841864822 C201.28109011734958 190.55639959816855, 202.54718866389675 189.71569132636458, 205.5471430329174 186.9234670109279" stroke="#f59e0b" stroke-width="1" fill="none" stroke-linecap="round" stroke-linejoin="round"></path><path d="M198.5621455091351 181.89600980846873 C198.93317559466658 181.27772169309512, 200.08931443560988 181.432609720436, 200.7000870047451 181.48925903336124 C201.3108595738803 181.54590834628647, 201.57626761924598 181.62107320749766, 202.22678092394634 182.2359056860202 C202.8772942286467 182.85073816454275, 204.11293811505502 183.9032629782752, 204.60316683294712 185.1782539044966 C205.09339555083923 186.45324483071798, 205.63262619405094 188.98198718245257, 205.16815323129902 189.88585124334858 C204.7036802685471 190.7897153042446, 202.59359838730083 190.3051169394735, 201.8163290564356 190.60143826987272 C201.03905972557035 190.89775960027194, 201.33542115098516 192.17802820980765, 200.5045372461076 191.66377922574398 C199.67365334123002 191.1495302416803, 197.06776598367546 188.27524021510138, 196.8310256271701 187.51594436549072 C196.59428527066476 186.75664851588007, 198.4043660379209 187.8667773192633, 199.08409510707543 187.10800412808004 C199.76382417622995 186.3492309368968, 200.67676646201116 183.44512036645847, 200.9094000420973 182.96330521839116 C201.14203362218345 182.48149007032384, 200.66663132633337 184.24809283531368, 200.47989658759224 184.21711323967617 M198.58103047142728 181.98577907065987 C199.2599005184826 181.38620270010742, 200.62120330762522 182.0609001670863, 201.57486410394318 182.19233519520355 C202.52852490026115 182.32377022332082, 203.51423116525527 182.11328759433204, 204.30299524933508 182.77438923936344 C205.0917593334149 183.43549088439485, 206.6265575723722 185.22097599034873, 206.3074486084221 186.15894506539206 C205.988339644472 187.0969141404354, 203.4049633299396 187.56590123103672, 202.38834146563445 188.4022036896235 C201.37171960132932 189.23850614821026, 200.75304179540183 190.948527315642, 200.20771742259123 191.17675981691272 C199.66239304978063 191.40499231818345, 199.57020612157538 190.0303673155494, 199.11639522877078 189.77159869724778 C198.6625843359662 189.51283007894617, 197.3446435688825 190.58124544945892, 197.48485206576373 189.62414810710303 C197.62506056264496 188.66705076474713, 199.39067809204263 184.92202138920698, 199.9576462100581 184.02901464311236 C200.52461432807357 183.13600789701775, 200.99835721365503 184.43328706291277, 200.88666077385648 184.26610763053534 C200.77496433405793 184.09892819815792, 199.39727310086016 182.80289652975236, 199.28746757126686 183.0259380488478" stroke="#1f2937" stroke-width="1.5" fill="none" stroke-linecap="round" stroke-linejoin="round"></path></g><g><path d="M250.73437678343342 101.35892503776006 C250.73437678343342 101.35892503776006, 250.73437678343342 101.35892503776006, 250.73437678343342 101.35892503776006 M250.73437678343342 101.35892503776006 C250.73437678343342 101.35892503776006, 250.73437678343342 101.35892503776006, 250.73437678343342 101.35892503776006 M250.8227767260205 106.47259396508164 C252.837460323603 105.09130436779206, 254.05626866878933 103.26073403059114, 255.92112309700025 101.58967964437429 M251.34755317775716 107.39669574677772 C252.34291063429148 105.74869895872745, 253.33139741532642 104.95982351450331, 255.24010264417302 102.29140122186962 M254.01215959807547 110.41285931423113 C257.53962331613474 108.05079411863558, 257.5317072699917 102.74941098385521, 259.39105595508227 103.49802655997674 M253.4453566448173 110.26750258974538 C256.470047569833 107.32593464121538, 258.3102175593988 104.7170476089308, 259.3902270633132 102.36659197608927" stroke="#f59e0b" stroke-width="1" fill="none" stroke-linecap="round" stroke-linejoin="round"></path><path d="M257.51710592230967 100.21455284156353 C258.50209463770705 100.97871547650149, 258.8144822571245 103.58895929239578, 258.8009457498689 104.66647636498173 C258.7874092426133 105.74399343756768, 257.94378808016313 105.99579441105551, 257.43588687877616 106.67965527707922 C256.9279856773892 107.36351614310293, 256.32326606287546 108.25005549908767, 255.75353854154716 108.769641561124 C255.18381102021888 109.28922762316034, 254.77037350323025 110.13798514667221, 254.01752175080648 109.79717164929724 C253.26466999838271 109.45635815192227, 251.81015640542842 107.69041371924911, 251.23642802700454 106.7247605768742 C250.66269964858066 105.7591074344993, 250.71178232611692 104.83664022461332, 250.5751514802633 104.0032527950478 C250.43852063440966 103.16986536548228, 249.9620778854357 102.21183342044101, 250.41664295188284 101.72443599948113 C250.87120801832998 101.23703857852125, 252.06636053778945 101.04704673918535, 253.3025418789461 101.0788682692885 C254.53872322010275 101.11068979939166, 257.31847378931764 101.62660518807317, 257.8337309988227 101.91536518010005 C258.3489882083278 102.20412517212694, 256.60666638860226 102.82933779142562, 256.3940851359767 102.8114282214498 M249.95193507253464 102.2375574367882 C250.00093696822591 101.28141305638336, 251.77957843888015 101.46016849576107, 252.70855452415393 101.26296114175766 C253.6375306094277 101.06575378775425, 254.2232201149103 100.22112828186847, 255.52579158417737 101.05431331276773 C256.82836305344443 101.88749834366699, 259.78753074184436 104.86111398147997, 260.5239833397562 106.2620713271532 C261.2604359376681 107.66302867282641, 260.84079718538544 109.20531574325793, 259.9445071716486 109.46005738680702 C259.0482171579117 109.71479903035612, 256.19717897351467 108.07929276245635, 255.14624325733516 107.79052118844774 C254.09530754115565 107.50174961443913, 253.86782411173 107.68262986008975, 253.63889287457147 107.72742794275538 C253.40996163741295 107.77222602542102, 254.23504402097996 108.66763998209731, 253.77265583438412 108.05930968444159 C253.3102676477883 107.45097938678586, 251.39030698813306 104.86402906542523, 250.8645637549964 104.07744615682103 C250.33882052185973 103.29086324821682, 250.05685427420332 103.73509810502864, 250.6181964355641 103.33981223281633 C251.17953859692489 102.94452636060402, 254.27829381087554 101.81425190656623, 254.23261672316102 101.70573092354718" stroke="#1f2937" stroke-width="1.5" fill="none" stroke-linecap="round" stroke-linejoin="round"></path></g><g><path d="M306.25717452493217 128.42394886731665 C306.25717452493217 128.42394886731665, 306.25717452493217 128.42394886731665, 306.25717452493217 128.42394886731665 M306.25717452493217 128.42394886731665 C306.25717452493217 128.42394886731665, 306.25717452493217 128.42394886731665, 306.25717452493217 128.42394886731665 M307.63690369688146 132.95075035878563 C308.2632713281868 131.6839180030188, 309.88564547834693 130.73733742563175, 310.9195097377538 130.32645940232814 M307.39647753723136 132.93959788941885 C308.325975810852 131.87999063698328, 309.57328777281595 131.01277965387803, 310.74658776950236 129.61012993577657 M309.8474628078534 136.98934244534888 C310.820784578153 135.29173320721117, 311.68383084375097 135.20561988309575, 312.3455727870356 133.41575562744853 M309.4133416944338 136.40907657108224 C310.2208592673069 135.75787316232268, 311.2482338177651 135.16303485788197, 312.18367707263343 133.58772571891066" stroke="#f59e0b" stroke-width="1" fill="none" stroke-linecap="round" stroke-linejoin="round"></path><path d="M307.725709885426 127.64655747874055 C308.7129238411753 127.42331265624132, 311.9758454151835 128.50980807007545, 312.6290885446204 129.45831978999013 C313.2823316740573 130.4068315099048, 311.6092156363036 132.4323412845086, 311.64516866204724 133.33762779822854 C311.6811216877909 134.24291431194848, 313.44133290448764 134.5596124861488, 312.8448066990823 134.89003887230984 C312.248280493677 135.22046525847088, 309.22662149696095 135.12386980447405, 308.06601142961534 135.32018611519476 C306.90540136226974 135.51650242591546, 306.11694391402085 136.41570301599253, 305.8811462950087 136.06793673663412 C305.64534867599656 135.7201704572757, 306.5854409200995 134.10492109290527, 306.65122571554247 133.23358843904427 C306.71701051098546 132.36225578518327, 306.3016937661004 131.68737405981193, 306.2758550676668 130.83994081346813 C306.25001636923315 129.99250756712433, 305.6353763860661 128.30511801586417, 306.49619352494057 128.14898896098148 C307.357010663815 127.9928599060988, 310.7403361239601 129.36069056601826, 311.4407579009136 129.90316648417203 C312.14117967786706 130.4456424023258, 310.88186355226077 131.41853896251692, 310.6987241866613 131.40384446990416 M311.4081150673759 130.19083847557778 C311.92012916944975 130.86022659512207, 313.0446634964939 131.43448566098337, 313.40279371740775 131.97180811712735 C313.7609239383216 132.50913057327134, 314.41454928060114 132.83493149581236, 313.5568963928588 133.41477321244173 C312.69924350511644 133.9946149290711, 309.16421317355037 134.8762054030681, 308.2568763909538 135.4508584169036 C307.3495396083572 136.0255114307391, 308.69910547913224 136.71372352516465, 308.1128756972794 136.86269129545474 C307.5266459154265 137.01165906574482, 305.3316841815873 136.78354241772888, 304.7394976998366 136.34466503864405 C304.14731121808586 135.90578765955922, 304.50172175502365 135.44607063491415, 304.55975680677506 134.22942702094576 C304.61779185852646 133.01278340697738, 304.1962601084178 130.04332574183601, 305.087708010345 129.0448033548337 C305.97915591227223 128.0462809678314, 309.0172276382282 128.0599233401111, 309.9084442183383 128.23829269893193 C310.7996607984484 128.41666205775275, 310.49352556724295 130.13775407318997, 310.43500749100565 130.11501950775855 C310.37648941476834 130.09228494232713, 309.62697232997897 128.5295864286139, 309.5573357609143 128.10188530634343" stroke="#1f2937" stroke-width="1.5" fill="none" stroke-linecap="round" stroke-linejoin="round"></path></g><g><path d="M361.31333396172965 46.43226475263691 C361.31333396172965 46.43226475263691, 361.31333396172965 46.43226475263691, 361.31333396172965 46.43226475263691 M361.31333396172965 46.43226475263691 C361.31333396172965 46.43226475263691, 361.31333396172965 46.43226475263691, 361.31333396172965 46.43226475263691 M359.57178342229105 53.24641178307967 C360.9803821398414 51.587303726528845, 363.6552717550393 49.22608067800094, 364.2716915494049 49.91102780828908 M360.38998418739413 53.2555440749033 C361.79815175276076 52.30613495337556, 362.05594284565046 50.95935553441439, 364.5376992784286 49.41011551107004" stroke="#f59e0b" stroke-width="1" fill="none" stroke-linecap="round" stroke-linejoin="round"></path><path d="M361.09150312650576 46.68745193722596 C361.4204775459457 46.58703998465282, 362.13418249795905 48.868611244167944, 362.82469475607337 49.18202588445604 C363.5152070141877 49.49544052474413, 364.6688741802316 47.977974620494656, 365.2345766751918 48.56793977895453 C365.800279170152 49.15790493741441, 366.2343338501451 52.07968844326493, 366.2189097258346 52.721816835215286 C366.20348560152405 53.363945227165644, 366.04871828675357 52.26693313219005, 365.14203192932854 52.42071013065667 C364.2353455719035 52.5744871291233, 361.62125093556585 53.41287713501124, 360.7787915812845 53.64447882601505 C359.93633222700316 53.87608051701886, 360.2937289095472 54.19894340183206, 360.0872758036406 53.810320276679555 C359.88082269773395 53.42169715152705, 359.5451535926531 51.967781632855996, 359.5400729458446 51.31274007510001 C359.5349922990361 50.65769851734402, 359.5915146031207 50.4274119899008, 360.0567919227896 49.88007093014364 C360.52206924245854 49.33272987038648, 361.63869729903007 48.472784570453804, 362.3317368638583 48.02869371655706 C363.0247764286865 47.58460286266031, 364.3234593246799 47.20337472822546, 364.215029311759 47.215525806763154 M362.66690437125715 49.4076943730206 C363.5386883769771 49.71631855957926, 364.5510182341561 49.91962696925509, 365.0539761319812 50.278113311075465 C365.55693402980626 50.63659965289584, 365.96991498002683 50.58666275466146, 365.6846517582074 51.55861242394284 C365.39938853638796 52.53056209322422, 364.07393114850896 55.684879116626064, 363.3423968010645 56.10981132676372 C362.6108624536201 56.534743536901374, 361.9421239571692 54.47387695058485, 361.2954456735408 54.10820568476879 C360.64876738991245 53.74253441895273, 359.9573373663802 54.15642599815547, 359.46232709929427 53.91578373186734 C358.9673168322083 53.675141465579216, 358.16383600184827 53.774211876909945, 358.3253840710251 52.66435208704004 C358.48693214020193 51.55449229717013, 360.13149633151676 48.12310838167863, 360.4316155143553 47.256624992647886 C360.7317346971939 46.390141603617145, 359.38896377786784 47.315922311404584, 360.1260991680565 47.46545175285561 C360.86323455824515 47.61498119430663, 364.14334239657546 48.4368012398748, 364.8544278554872 48.153801641354036 C365.5655133143989 47.870802042833276, 364.3962514604256 45.70946907830453, 364.39261192152685 45.767454161731024" stroke="#1f2937" stroke-width="1.5" fill="none" stroke-linecap="round" stroke-linejoin="round"></path></g><g><path d="M410.73395905232775 77.4678417783424 C410.73395905232775 77.4678417783424, 410.73395905232775 77.4678417783424, 410.73395905232775 77.4678417783424 M410.73395905232775 77.4678417783424 C410.73395905232775 77.4678417783424, 410.73395905232775 77.4678417783424, 410.73395905232775 77.4678417783424 M413.62984647480994 79.84926079878632 C415.9127591114483 78.05124351260484, 417.395689361652 76.38469410841343, 417.17053547999075 76.32764199695406 M413.6347593965962 79.8809083456737 C415.1629674337733 78.1590223089243, 416.8890460999846 76.56046515446093, 417.91005729993987 75.22541276237783 M416.1427635975714 82.91134199822345 C417.44224434791545 81.87436012682815, 418.00326685336216 80.60459305455286, 418.85585232888985 79.61709954830403 M416.62422510465336 82.57975035274424 C417.3781066514927 82.12306286121348, 418.0693708686678 80.77379097907716, 419.6509019783669 79.85872945281263" stroke="#f59e0b" stroke-width="1" fill="none" stroke-linecap="round" stroke-linejoin="round"></path><path d="M414.66853442071397 74.78391393121785 C415.2892553231977 74.31612828329229, 415.40270985377816 74.57390634323, 416.0051367792698 74.72987432582664 C416.6075637047614 74.88584230842329, 417.7873708781417 75.03423934480132, 418.2830959736637 75.71972182679771 C418.7788210691857 76.4052043087941, 418.9235090652349 78.02092860750636, 418.979487352402 78.84276921780494 C419.03546563956905 79.66460982810352, 418.63579260199526 80.08591990094202, 418.61896569666624 80.65076548858923 C418.6021387913372 81.21561107623644, 419.6607513300731 81.9443630763769, 418.87852592042793 82.23184274368825 C418.0963005107828 82.51932241099959, 414.8356106014244 82.72008411962372, 413.92561323879545 82.3756434924573 C413.0156158761665 82.03120286529088, 413.91344562071316 81.02577383989436, 413.41854174465453 80.16519898068972 C412.9236378685959 79.30462412148509, 410.8702555976673 77.92172130096141, 410.9561899824438 77.21219433722949 C411.04212436722025 76.50266737349757, 413.24370144105103 76.4588661427441, 413.93414805331315 75.90803719829819 C414.6245946655753 75.35720825385228, 415.14444752003385 73.8900468842811, 415.09886965601635 73.90722067055405 M418.65814528184416 72.47126793060671 C419.04670915669016 72.40264931454719, 416.6972603318836 76.18719770041893, 416.5203788962888 77.12361940914428 C416.3434974606939 78.06004111786963, 417.3031774169096 77.57190588980309, 417.5968566682751 78.0897981829588 C417.8905359196406 78.60769047611451, 418.0034798232631 79.98326263001712, 418.28245440448177 80.23097316807856 C418.56142898570045 80.47868370614, 419.9312103152646 79.6523401592764, 419.27070415558705 79.57606141132749 C418.6101979959095 79.49978266337857, 415.48053104980386 79.78203026646135, 414.31941744641654 79.773300680385 C413.1583038430292 79.76457109430866, 412.82932308252475 79.67919438786197, 412.30402253526313 79.52368389486945 C411.7787219880015 79.36817340187693, 410.68077731449205 79.53548514869092, 411.16761416284675 78.84023772242989 C411.65445101120144 78.14499029616886, 414.6852626814199 76.0190220518594, 415.22504362539115 75.3521993373032 C415.7648245693624 74.68537662274701, 414.5501919881211 74.58538545581868, 414.40629982667446 74.83930143509279 C414.2624076652278 75.0932174143669, 414.298207358889 77.1353951440861, 414.361690656711 76.8756952129479" stroke="#1f2937" stroke-width="1.5" fill="none" stroke-linecap="round" stroke-linejoin="round"></path></g></g><g><g><path d="M40.83204920370613 268.93553449859104 C114.8913412699328 268.01959517484084, 189.85973162795514 265.2113591325526, 415.22974693045063 268.38079594231226 M39.37041329970101 268.2568161076546 C123.65483848908916 266.4265054305921, 206.5404739852064 265.8735883006318, 415.4366959605844 268.7306736915432" stroke="#1f2937" stroke-width="1.5" fill="none" stroke-linecap="round" stroke-linejoin="round"></path></g><g><g><path d="M40.41148645490408 268.46266467481854 C39.727007509782915 269.7583491781727, 39.61162997873128 269.56957475818695, 39.619074564874175 274.1883210411668 M39.68864052966237 268.1270073322952 C40.1780641118437 269.71868708949535, 40.00859520830214 270.7733555857092, 39.72142034247518 274.3613516192138" stroke="#1f2937" stroke-width="1.5" fill="none" stroke-linecap="round" stroke-linejoin="round"></path></g><text x="40" y="280" text-anchor="middle" dominant-baseline="hanging" font-family="&quot;Comic Sans MS&quot;, &quot;Segoe Print&quot;, cursive" font-size="14" fill="#1f2937">0</text></g><g><g><path d="M94.1257721691898 268.46266467481854 C93.44129322406863 269.7583491781727, 93.325915693017 269.56957475818695, 93.33336027915989 274.1883210411668 M93.40292624394809 268.1270073322952 C93.89234982612943 269.71868708949535, 93.72288092258786 270.7733555857092, 93.43570605676089 274.3613516192138" stroke="#1f2937" stroke-width="1.5" fill="none" stroke-linecap="round" stroke-linejoin="round"></path></g><text x="93.71428571428572" y="280" text-anchor="middle" dominant-baseline="hanging" font-family="&quot;Comic Sans MS&quot;, &quot;Segoe Print&quot;, cursive" font-size="14" fill="#1f2937">1</text></g><g><g><path d="M147.8400578834755 268.46266467481854 C147.15557893835432 269.7583491781727, 147.0402014073027 269.56957475818695, 147.0476459934456 274.1883210411668 M147.11721195823378 268.1270073322952 C147.6066355404151 269.71868708949535, 147.43716663687354 270.7733555857092, 147.1499917710466 274.3613516192138" stroke="#1f2937" stroke-width="1.5" fill="none" stroke-linecap="round" stroke-linejoin="round"></path></g><text x="147.42857142857142" y="280" text-anchor="middle" dominant-baseline="hanging" font-family="&quot;Comic Sans MS&quot;, &quot;Segoe Print&quot;, cursive" font-size="14" fill="#1f2937">2</text></g><g><g><path d="M201.55434359776123 268.46266467481854 C200.86986465264005 269.7583491781727, 200.75448712158843 269.56957475818695, 200.76193170773132 274.1883210411668 M200.8314976725195 268.1270073322952 C201.32092125470083 269.71868708949535, 201.15145235115926 270.7733555857092, 200.8642774853323 274.3613516192138" stroke="#1f2937" stroke-width="1.5" fill="none" stroke-linecap="round" stroke-linejoin="round"></path></g><text x="201.14285714285714" y="280" text-anchor="middle" dominant-baseline="hanging" font-family="&quot;Comic Sans MS&quot;, &quot;Segoe Print&quot;, cursive" font-size="14" fill="#1f2937">3</text></g><g><g><path d="M255.26862931204693 268.46266467481854 C254.58415036692574 269.7583491781727, 254.46877283587412 269.56957475818695, 254.47621742201702 274.1883210411668 M254.5457833868052 268.1270073322952 C255.03520696898653 269.71868708949535, 254.86573806544496 270.7733555857092, 254.578563199618 274.3613516192138" stroke="#1f2937" stroke-width="1.5" fill="none" stroke-linecap="round" stroke-linejoin="round"></path></g><text x="254.85714285714283" y="280" text-anchor="middle" dominant-baseline="hanging" font-family="&quot;Comic Sans MS&quot;, &quot;Segoe Print&quot;, cursive" font-size="14" fill="#1f2937">4</text></g><g><g><path d="M308.9829150263327 268.46266467481854 C308.29843608121155 269.7583491781727, 308.1830585501599 269.56957475818695, 308.19050313630277 274.1883210411668 M308.260069101091 268.1270073322952 C308.7494926832723 269.71868708949535, 308.58002377973077 270.7733555857092, 308.2928489139038 274.3613516192138" stroke="#1f2937" stroke-width="1.5" fill="none" stroke-linecap="round" stroke-linejoin="round"></path></g><text x="308.5714285714286" y="280" text-anchor="middle" dominant-baseline="hanging" font-family="&quot;Comic Sans MS&quot;, &quot;Segoe Print&quot;, cursive" font-size="14" fill="#1f2937">5</text></g><g><g><path d="M362.69720074061837 268.46266467481854 C362.0127217954972 269.7583491781727, 361.89734426444556 269.56957475818695, 361.90478885058843 274.1883210411668 M361.97435481537667 268.1270073322952 C362.463778397558 269.71868708949535, 362.29430949401643 270.7733555857092, 362.0071346281895 274.3613516192138" stroke="#1f2937" stroke-width="1.5" fill="none" stroke-linecap="round" stroke-linejoin="round"></path></g><text x="362.2857142857143" y="280" text-anchor="middle" dominant-baseline="hanging" font-family="&quot;Comic Sans MS&quot;, &quot;Segoe Print&quot;, cursive" font-size="14" fill="#1f2937">6</text></g><g><g><path d="M416.4114864549041 268.46266467481854 C415.72700750978294 269.7583491781727, 415.6116299787313 269.56957475818695, 415.61907456487415 274.1883210411668 M415.6886405296624 268.1270073322952 C416.1780641118437 269.71868708949535, 416.00859520830215 270.7733555857092, 415.7214203424752 274.3613516192138" stroke="#1f2937" stroke-width="1.5" fill="none" stroke-linecap="round" stroke-linejoin="round"></path></g><text x="416" y="280" text-anchor="middle" dominant-baseline="hanging" font-family="&quot;Comic Sans MS&quot;, &quot;Segoe Print&quot;, cursive" font-size="14" fill="#1f2937">7</text></g></g><g><g><path d="M41.13383007784114 25.274849069785564 C35.559560819204584 74.3395254698633, 35.24164387818671 119.31385051926355, 38.95037926373283 268.51890908733566 M39.14206475503116 24.349962269101198 C39.4761485593709 79.08607326919343, 39.009185582086566 132.3424769482084, 39.232387868393 268.99568607826166" stroke="#1f2937" stroke-width="1.5" fill="none" stroke-linecap="round" stroke-linejoin="round"></path></g><g><g><path d="M40.41148645490408 268.46266467481854 C38.6464911910519 268.58750473086536, 37.331086686477065 267.19870333735645, 33.619074564874175 268.1883210411668 M39.68864052966237 268.1270073322952 C38.88282586950809 268.4527428074926, 37.38524561487139 268.1792999526113, 33.72142034247518 268.3613516192138" stroke="#1f2937" stroke-width="1.5" fill="none" stroke-linecap="round" stroke-linejoin="round"></path></g><text x="30" y="268" text-anchor="end" dominant-baseline="central" font-family="&quot;Comic Sans MS&quot;, &quot;Segoe Print&quot;, cursive" font-size="14" fill="#1f2937">0</text></g><g><g><path d="M40.41148645490408 214.2404424525963 C38.6464911910519 214.36528250864316, 37.331086686477065 212.97648111513425, 33.619074564874175 213.96609881894457 M39.68864052966237 213.904785110073 C38.88282586950809 214.23052058527043, 37.38524561487139 213.95707773038913, 33.72142034247518 214.13912939699162" stroke="#1f2937" stroke-width="1.5" fill="none" stroke-linecap="round" stroke-linejoin="round"></path></g><text x="30" y="213.7777777777778" text-anchor="end" dominant-baseline="central" font-family="&quot;Comic Sans MS&quot;, &quot;Segoe Print&quot;, cursive" font-size="14" fill="#1f2937">2</text></g><g><g><path d="M40.41148645490408 160.01822023037406 C38.6464911910519 160.1430602864209, 37.331086686477065 158.754258892912, 33.619074564874175 159.74387659672232 M39.68864052966237 159.68256288785074 C38.88282586950809 160.00829836304817, 37.38524561487139 159.73485550816687, 33.72142034247518 159.91690717476936" stroke="#1f2937" stroke-width="1.5" fill="none" stroke-linecap="round" stroke-linejoin="round"></path></g><text x="30" y="159.55555555555554" text-anchor="end" dominant-baseline="central" font-family="&quot;Comic Sans MS&quot;, &quot;Segoe Print&quot;, cursive" font-size="14" fill="#1f2937">4</text></g><g><g><path d="M40.41148645490408 105.79599800815186 C38.6464911910519 105.92083806419869, 37.331086686477065 104.53203667068979, 33.619074564874175 105.52165437450013 M39.68864052966237 105.46034066562852 C38.88282586950809 105.78607614082595, 37.38524561487139 105.51263328594467, 33.72142034247518 105.69468495254716" stroke="#1f2937" stroke-width="1.5" fill="none" stroke-linecap="round" stroke-linejoin="round"></path></g><text x="30" y="105.33333333333334" text-anchor="end" dominant-baseline="central" font-family="&quot;Comic Sans MS&quot;, &quot;Segoe Print&quot;, cursive" font-size="14" fill="#1f2937">6</text></g><g><g><path d="M40.41148645490408 51.57377578592964 C38.6464911910519 51.69861584197649, 37.331086686477065 50.30981444846758, 33.619074564874175 51.29943215227791 M39.68864052966237 51.23811844340631 C38.88282586950809 51.56385391860375, 37.38524561487139 51.29041106372246, 33.72142034247518 51.47246273032495" stroke="#1f2937" stroke-width="1.5" fill="none" stroke-linecap="round" stroke-linejoin="round"></path></g><text x="30" y="51.11111111111113" text-anchor="end" dominant-baseline="central" font-family="&quot;Comic Sans MS&quot;, &quot;Segoe Print&quot;, cursive" font-size="14" fill="#1f2937">8</text></g></g></svg>