<svg xmlns="http://www.w3.org/2000/svg" viewBox="-76 26 648 212" width="560" height="320" role="img"><g><g><g><path d="M60 132 C81.96898069592814 130.8005064804107, 81.91498257132868 133.0570339400321, 104.13371096265814 132.22854513712227" stroke="#1d4ed8" stroke-width="1.25" fill="none" stroke-linecap="round" stroke-linejoin="round"></path></g><g><path d="M96.68484143839638 135.56669580915593 C99.32049301531357 135.17354839714176, 100.48819312322105 134.32402929437126, 104.9134394325254 131.6615140995942 M105.04137750442452 131.92018274182453 C101.99699690944459 130.4521135864735, 99.98872977273321 129.09411333748787, 97.19079871920358 127.7006903492508" stroke="#1d4ed8" stroke-width="1.25" fill="none" stroke-linecap="round" stroke-linejoin="round"></path></g></g><g><g><path d="M225.33333333333334 132 C247.30231402926148 130.8005064804107, 247.248315904662 133.0570339400321, 269.46704429599146 132.22854513712227" stroke="#1d4ed8" stroke-width="1.25" fill="none" stroke-linecap="round" stroke-linejoin="round"></path></g><g><path d="M262.0181747717297 135.56669580915593 C264.65382634864693 135.17354839714176, 265.8215264565544 134.32402929437126, 270.24677276585874 131.6615140995942 M270.37471083775785 131.92018274182453 C267.3303302427779 130.4521135864735, 265.32206310606654 129.09411333748787, 262.5241320525369 127.7006903492508" stroke="#1d4ed8" stroke-width="1.25" fill="none" stroke-linecap="round" stroke-linejoin="round"></path></g></g><g><g><path d="M390.6666666666667 132 C412.63564736259485 130.8005064804107, 412.5816492379954 67.05703394003213, 434.80037762932477 66.22854513712227" stroke="#1d4ed8" stroke-width="1.25" fill="none" stroke-linecap="round" stroke-linejoin="round"></path></g><g><path d="M434.08806405076837 74.55652525318548 C435.3739116426127 73.15585492572295, 435.1940885679564 71.30821290865285, 435.58010609919205 65.6615140995942 M435.70804417109116 65.92018274182453 C432.7762250543934 67.38060414102517, 430.8724363075103 68.9503927158711, 428.15643356618006 70.07864964237729" stroke="#1d4ed8" stroke-width="1.25" fill="none" stroke-linecap="round" stroke-linejoin="round"></path></g><text x="413.33333333333337" y="99" text-anchor="middle" dominant-baseline="central" font-family="&quot;Courier New&quot;, ui-monospace, monospace" font-size="13" fill="#1d4ed8">yes</text></g><g><g><path d="M390.6666666666667 132 C412.63564736259485 130.8005064804107, 412.5816492379954 199.0570339400321, 434.80037762932477 198.22854513712227" stroke="#1d4ed8" stroke-width="1.25" fill="none" stroke-linecap="round" stroke-linejoin="round"></path></g><g><path d="M427.65047628537286 193.18873651602945 C430.2301543016763 194.47102743775628, 431.33805136525916 195.297363840537, 435.58010609919205 197.6615140995942 M435.70804417109116 197.92018274182453 C435.0130280558759 194.7241634847618, 435.35893960622667 191.62240125652644, 434.59402133157556 188.71086090522124" stroke="#1d4ed8" stroke-width="1.25" fill="none" stroke-linecap="round" stroke-linejoin="round"></path></g><text x="413.33333333333337" y="165" text-anchor="middle" dominant-baseline="central" font-family="&quot;Courier New&quot;, ui-monospace, monospace" font-size="13" fill="#1d4ed8">no</text></g><g><g><path d="M-55.21265015095298 141.47967745571177 C-55.21265015095298 141.47967745571177, -55.21265015095298 141.47967745571177, -55.21265015095298 141.47967745571177 M-55.21265015095298 141.47967745571177 C-55.21265015095298 141.47967745571177, -55.21265015095298 141.47967745571177, -55.21265015095298 141.47967745571177 M-38.347535464821235 150.28154135584438 C-43.845714039480235 143.34170095570673, -50.28084731686238 136.79432338225067, -59.61357902597842 129.62263697677795 M-37.863857378532956 149.5064445770865 C-44.59638400440613 143.78065245772825, -50.5084841129731 137.1336891990415, -59.072693230139286 129.1208879274646 M-27.859289485958993 152.0086596460378 C-34.014960650981166 145.03448226998265, -39.91019789389194 140.55293533182802, -56.87994311074926 123.45498025582853 M-27.458157079478383 153.071052871581 C-36.74465128169171 142.13675572742997, -47.346173234838396 132.96872046242032, -55.76762178591652 123.51765125689778 M-18.02409793555873 155.03411739815016 C-24.645234286170975 148.41942827959565, -30.045938362555205 139.74265086661015, -50.54494572970464 120.91798416451296 M-16.61932327401029 154.11180500268924 C-26.153005360846063 145.14236477358327, -34.21190587945017 137.38826708996683, -51.31056612654967 120.05580805745652 M-7.47029104415262 155.98502871758666 C-16.868174551771972 144.77920954815662, -27.665470060943704 135.05116006883873, -46.99378433193636 115.83423933967687 M-7.430831456332745 155.13879237073837 C-17.12449729965891 145.9979641185135, -26.272892591956456 136.22201349164789, -45.991673652302445 116.71885594840832 M1.4601290827271214 154.43342958475267 C-10.109360968725717 143.7721880830313, -21.831503358525914 131.0754753473525, -39.691507897976656 113.58007863672557 M1.5025538168501726 155.11777043855554 C-9.885156335528208 144.20075885016925, -22.498086581269284 131.65510015889825, -40.25731048237892 113.72352695508036 M8.202668120988639 154.56245751149385 C-4.105108654681314 140.73846336343075, -17.793935263475554 126.74289554083798, -33.69183728335775 112.35175678606436 M9.42720858277473 154.7550883879083 C-1.0432546572860333 144.64875114095275, -11.30675559543234 133.74289307990833, -33.7376317984832 112.2047171652998 M15.732586996286305 153.50359900940197 C7.973038201788232 145.0718916534725, -4.369459980042672 133.42790814773565, -26.45309234335798 111.32452326835235 M16.684146940923423 153.8536865878104 C3.242525441655411 140.70391252257215, -9.779713456155177 128.23109163308905, -26.78125896956551 110.39330960464765 M24.334761196901336 152.88154890269587 C10.45364803857818 138.7100461783431, -4.678127470138337 123.77024924342571, -19.06173090232305 110.00408334518137 M24.160130365905598 153.27670590740243 C10.694280468592158 139.48743018224434, -3.478919429379313 125.40018660741968, -19.397568521143416 108.38638526713761 M31.523287554928466 152.5088171094077 C20.86541795118869 138.98908156037845, 6.946929815560818 129.1200251540673, -10.462489440785125 107.77145737195673 M32.28852448864411 151.66084449713847 C14.416092504416355 134.8689400144128, -1.8804028094227987 118.12056189713357, -11.80558282242097 108.91083242809685 M38.66819780864893 150.78744220375623 C22.867016530508277 135.6215237314428, 9.320450395232045 121.54661298881338, -2.7672034390226243 109.14916045433755 M37.75726265874831 149.43682135115918 C25.442969462583395 136.64494431624004, 11.779686134404598 123.83592099162802, -3.4615404298484562 108.80827630060638 M45.40795860253053 147.29649141614675 C35.023421656030074 138.68674445986213, 23.825827164350795 128.07358078197223, 4.81454687243226 106.84555669772908 M45.00259594451414 148.4356263072917 C33.93004307564697 137.25177621581236, 23.17509832203531 125.55707558136803, 4.291708162370054 107.29818328499333 M49.6335443624814 143.7511335084249 C38.12880699676896 133.42862670204553, 27.165058602285406 122.90341755030641, 13.066616169233876 108.62103886372321 M49.07441600817786 144.4663429223035 C38.99434457663236 133.37828555013735, 28.026219610570394 122.76958950243706, 12.797130178717035 108.26279062527144 M54.75779154534248 142.64699302336913 C44.98400860352875 131.15592585763127, 34.49760931946268 120.47928850307723, 22.75036690847692 109.44710124535214 M55.18685935540852 140.97925272139503 C48.36302555893703 135.3434394896239, 41.48206265986822 127.74515036670486, 23.34883343761531 109.2249292843948 M59.24261726464877 135.36236891045195 C51.005669377098044 129.54983433040672, 44.41149151534986 120.55453659275064, 34.95270323462919 112.02937357302116 M58.326775961069266 135.98680382396054 C53.45178699795807 131.1303554726613, 47.41154798002451 125.38845452225934, 34.2213502573608 112.88980785019058 M60.96090614343611 129.35089973022178 C56.069798511689406 125.78334400096043, 53.35464715725361 123.41353270771239, 48.45958069536992 117.93944212196882 M60.10967412630645 129.45020086442068 C56.70430280285083 125.82560080894757, 52.232546454008336 122.16366939411081, 48.51143387664267 118.2243553386491 M55.17480609518957 141.4418333999484 C55.17480609518957 141.4418333999484, 55.17480609518957 141.4418333999484, 55.17480609518957 141.4418333999484 M55.17480609518957 141.4418333999484 C55.17480609518957 141.4418333999484, 55.17480609518957 141.4418333999484, 55.17480609518957 141.4418333999484 M59.71615540483896 128.4778294891794 C52.43301835104562 135.20753492543034, 45.88797112472641 141.08272340998928, 37.9895466581349 149.5032604481027 M59.37702589301322 128.7571641488676 C52.678362846640304 135.0517943533678, 45.662996687476976 142.06222324522767, 37.68787693105533 149.60386459016507 M56.77501371511182 123.43475048124269 C46.0488399377655 132.89393295743716, 39.149132460639535 141.42089472991225, 27.243990217274675 152.79968530262718 M56.32428884086123 123.69434553097412 C48.61707692701704 131.64742104351657, 40.57620417486952 139.75691915043095, 26.439100867821523 152.38589784956437 M50.77320040942271 119.62918024747106 C43.09194800910225 129.90999702990814, 34.360299159123464 137.7759741498454, 17.823428054729924 153.5778358495393 M50.60068138887275 119.96353928069057 C41.737975181725616 128.33247295565732, 34.22611066688658 137.6456074785835, 17.522680113481805 153.77396386159296 M45.870742038425995 116.38566254971016 C33.94313425121908 127.30575014351543, 23.867341621505812 138.32665595529656, 7.931019502595376 155.60037306924437 M46.539209824030294 117.19414145478446 C35.11326927501961 126.93588874869032, 24.627729858587905 137.91754985777948, 7.764949048959028 155.21350558907812 M39.792672934216355 113.8949833683653 C29.137692739847857 125.43911675240592, 19.138476558501708 135.3916919654293, -1.2312479820343185 155.8623798171477 M40.530271027256646 113.29253251608296 C31.150819806163984 124.00818651109552, 21.401306694760308 133.31400503097697, -1.9852970073240328 155.56188005734697 M33.56285555388852 112.48035055884178 C17.351682141468615 128.2411850856331, 0.2570920251384635 144.5885910207499, -8.92873847350476 154.6575404800949 M32.83672281697466 112.12700698991324 C22.22035558343082 122.81837164990247, 11.370327017865463 134.55334637101592, -8.841731455884851 154.57328801066703 M26.344907604283343 109.95646672679872 C8.420527469543163 127.48404007553023, -7.320228437965379 145.76202952643476, -17.03141504590783 154.71538844467784 M26.316061073853323 110.7055963393563 C11.965004285157455 126.09407968896484, -4.688343019871462 141.63259592786216, -17.53649388448719 154.45477138055202 M18.38363423012247 110.08809704001447 C6.003423057288467 123.69785906333709, -7.53429700980585 136.93594133593677, -24.158699085962258 152.3461654101153 M19.443101928942404 110.0533867771124 C3.4062008020456203 125.32771368093516, -12.184563958721881 140.57857718514137, -24.68379938102164 154.02982259864257 M10.795702607060218 107.79939463533474 C-3.033143581807781 121.48933493979837, -15.116708744628161 134.0088519077335, -30.06697029301372 150.8283213882529 M11.181906356724346 109.44059467244905 C-1.2462123507854748 121.45403003289202, -12.586973985990562 133.40765225235614, -30.686188533505767 151.34463459670624 M3.432394473377856 107.51114808697824 C-9.019445998341688 121.77348700376439, -21.678670521940713 132.67046386958756, -38.98681414734059 148.74576217186905 M3.3297827068085395 107.93856401950691 C-5.096863903863676 117.00547190078846, -14.296963813154143 126.25215126640828, -37.99052489838981 149.4240982749433 M-4.493680307643373 107.51406784416373 C-14.991581958997351 117.76406065839704, -25.125405298199745 127.09739781443294, -44.93945409828853 148.70428152280937 M-4.574749733695645 107.41180287492658 C-18.295402784540478 121.29444113179821, -32.21761666717011 134.7810353740775, -45.12317718869131 148.2069846901212 M-13.01029731009532 107.57049979348305 C-26.352913937422056 121.59366152896175, -37.32843645105732 132.9841702715399, -48.76689225138973 144.96170185910609 M-12.972424302551934 108.13844692022178 C-23.892017436166707 118.04420680083436, -33.6452568096732 128.26683446856083, -49.038909961114335 144.7948357426941 M-22.730476858323634 109.65928457178188 C-34.74825910618701 121.8422759446915, -47.816498378805704 134.48843479586245, -55.040729711922616 141.3366945985376 M-22.146836275277852 108.97386877466005 C-34.44912589637979 121.08168404338612, -46.34405208891328 133.14133849595987, -55.54845395960918 141.77953452036223 M-34.31105183879324 112.03432537802513 C-42.32818613859773 120.09741529642247, -52.033380163774204 129.58467318726056, -57.87149199185971 136.41810556557644 M-34.4017606770102 112.22799580712821 C-41.6223478033083 119.54011847834128, -49.67052867624365 126.94182460838721, -58.84658152232025 136.67138070502003 M-49.4014691778819 119.04303903359575 C-53.10233047077498 122.4085678282425, -56.24932741182899 125.5003831324862, -59.509985512322615 129.35063936385555 M-49.7705333855736 118.66466954758046 C-52.56503123118062 122.06409671287328, -55.238041792405376 124.48434027389968, -59.31554481252549 129.03765927081227" stroke="#ffffff" stroke-width="0.5" fill="none" stroke-linecap="round" stroke-linejoin="round"></path><path d="M-60 132 C-59.75681228153407 150.98956668269813, -9.421669156476863 161.83036170357943, 28.800053947046393 151.78868756755827 M29.999999999999993 152.78460969082653 C47.52596561943585 148.02126581802128, 60.23540130145848 139.63059685998618, 60.69790275581181 131.66392579190432 M60 132 C59.22160132415593 113.84230971666992, 10.527343051508083 102.95422534814001, -30.273942572996006 111.73344921827675 M-29.999999999999986 111.21539030917347 C-49.260513749322236 116.40595643610598, -60.98997232429683 122.8715597098225, -59.89632920734584 132.29283220879734 M-60 132 C-60 132, -60 132, -60 132" stroke="#1d4ed8" stroke-width="1.25" fill="none" stroke-linecap="round" stroke-linejoin="round"></path></g><text x="0" y="132" text-anchor="middle" dominant-baseline="central" font-family="&quot;Courier New&quot;, ui-monospace, monospace" font-size="13" fill="#1d4ed8">Start</text></g><g><g><path d="M105.48142118617795 156.1480878528446 C105.48142118617795 156.1480878528446, 105.48142118617795 156.1480878528446, 105.48142118617795 156.1480878528446 M105.48142118617795 156.1480878528446 C105.48142118617795 156.1480878528446, 105.48142118617795 156.1480878528446, 105.48142118617795 156.1480878528446 M114.16786759414441 156.6654309315473 C110.97500134450048 152.615208913695, 107.99739006424396 149.2349810658268, 105.18751742660902 147.51442832680186 M113.76363153890438 156.50680843981505 C110.98425761198293 153.25102092041908, 108.56941107545859 150.2942980821293, 105.43875439621411 148.014188134016 M123.42522054539553 155.25252490381305 C117.44329043251652 151.98820233181328, 114.92897439276554 147.39534982927847, 104.56636183649206 140.3476564159331 M122.52192820200256 155.62781698184614 C117.79992725884935 152.08176734682613, 113.78505996663733 148.10391647021015, 105.62232407979572 139.1011029267398 M130.06780780399535 155.36486890653674 C124.47570162596608 150.07505050340174, 116.35488271264376 141.70973901157296, 104.52139950185918 131.08551997825612 M130.79841995345745 155.94393559175137 C123.39265894749046 149.33461299386184, 116.46733913960894 141.9191924445939, 105.83923521689974 131.1333207013469 M138.9978790408667 155.41632805208266 C131.8161093034151 147.76920633776845, 122.35929479689163 141.0669333713909, 105.5584279814353 121.8019762224639 M139.87463285054227 155.59947490172985 C131.73694064108025 148.49833545597798, 124.8613664372958 142.53906386163717, 105.21740314416492 121.792056343996 M148.57341765444698 156.0235283170134 C134.01103873390218 142.158608458519, 122.41878901545468 129.5583621332447, 105.34402442365788 112.64255737511894 M147.82880175653818 156.2695203610003 C137.5496324732122 146.36434130422404, 127.894122217347 136.49083876644508, 105.68701584987245 113.98169217890582 M155.9172507931738 156.3757519278914 C140.24475596116747 140.66825158648388, 124.17580587969914 123.29063198559109, 108.91303685171066 107.77887903752996 M155.8129896597265 156.38657929378152 C143.71086343128553 143.90959173157523, 132.78573622004558 132.3422603548766, 107.99301657204984 108.27995953004135 M164.49204935548454 155.05993736127917 C151.67170470049075 142.3944478245061, 137.03450977873686 129.1832132051051, 116.61515703877728 108.6052130610056 M164.86558767338843 156.12808089929229 C153.25335295725245 144.1162485887464, 140.99658181259088 131.6789256528937, 116.47917667372447 107.49701159636749 M172.4753279898168 155.6856793437392 C156.36339193182212 140.37649647827908, 142.4362107125248 124.96864561748697, 125.6046391338029 108.47820617261601 M173.92381503580526 156.40387625175123 C156.8426503381032 139.04640227426069, 140.02425752402652 121.69575555107296, 125.01531426868523 108.37764207761063 M182.73444509460805 155.71022885183396 C165.96332454096995 138.83198272261302, 147.12051381472446 121.83405014540011, 134.757435285225 107.6840155989237 M181.4362191102582 156.64373830037715 C169.40801474757802 144.06601811454075, 156.67577682632964 132.06225092407394, 133.95192984521339 107.5309207979895 M191.20160281829578 156.863493112126 C173.76179526121135 138.90404584776738, 157.69623254230527 123.46452430279626, 141.78934139148112 108.60645481649114 M190.57517538502856 156.18486186938884 C178.81440790561967 144.4683013576451, 166.82226799433337 133.0285648248454, 142.47585201659018 107.96083945672287 M199.2488470593175 156.37303560117786 C185.02294512995496 142.69224223604508, 169.2793791542972 126.7849331935996, 150.83099710100868 106.95199355188086 M198.84938747339754 155.65936365800505 C187.05311729467132 144.95472021625537, 175.9702565326883 133.88718473827655, 150.22273752109686 108.4538116280295 M206.8630674661107 154.98907604555194 C190.34077996044 138.94316200680115, 173.94345698144275 123.54480195466851, 158.40288581224522 106.97475778165533 M206.91638711364638 155.98178224044446 C197.7314113806697 146.7226619552213, 187.21541403856037 135.7246823104462, 158.88957122201464 108.56617276112809 M215.42099743711287 155.4094904218108 C199.85968640901902 140.23634491041594, 186.8675567397067 127.03181189599563, 168.19033467362826 107.90152973237707 M215.39503416905637 156.13657806592587 C205.07230066879515 144.7095920408971, 194.73971734735926 134.36327058793808, 167.84716610762482 107.61168018023743 M223.26421412076152 155.90481095651688 C211.70514053237542 142.61118836558114, 199.42803643717258 130.75967988767258, 177.01851458359528 107.15674788060858 M224.0780166279087 155.76563345866802 C211.4541495968761 143.17666863420087, 197.46511074025887 129.65846882501558, 175.75266329120865 108.44901308457626 M226.2030706036287 148.8721583143673 C210.6760513161496 136.1276307132865, 198.62883974152965 120.5668164527382, 184.82744019058381 108.38750695291236 M225.27328279161927 149.4846848060242 C212.7064400289902 137.01650415986327, 200.62510793700665 124.28270255207927, 184.56203201104734 108.06927254836336 M225.69068578364428 141.45923147141687 C216.4620403391355 132.24981359084202, 208.8864891074785 124.36770160440902, 192.64696989303133 107.8885579258509 M225.21553114796157 140.86981243170553 C217.42168400540768 133.08621416301483, 209.67823433833695 124.4598819247237, 192.7425696304222 108.58348152081744 M226.62738162161884 132.21874496660124 C217.9545753012548 122.27768534982279, 208.78550257876492 114.62877153808427, 200.57180583937532 107.42730802598669 M225.10814762259002 131.67437784730384 C220.50859124749957 126.95433573004209, 214.22323260361907 121.07435821733375, 201.6854016376144 107.81008482615722 M226.16411026598985 124.36185602648283 C222.26598388078602 120.52954256267876, 218.8645702152874 116.71812270783381, 210.53649392805323 107.86882072988226 M225.56413270378584 123.6449508770379 C222.25762478063842 119.74157970890163, 218.09765475470425 116.34471252434469, 210.11798164590522 107.86244916360153 M225.39062080154295 115.56663633582453 C223.2311850043492 112.81189031512751, 220.31417860648838 109.93307463973223, 219.05446499176412 107.83282124812973 M225.86119449636067 115.22945888207565 C223.27185329188023 112.62866145490004, 220.19894025819585 109.88878032591306, 218.36754878480076 108.10059491976423 M225.3148989448075 156.0184343885259 C225.3148989448075 156.0184343885259, 225.3148989448075 156.0184343885259, 225.3148989448075 156.0184343885259 M225.3148989448075 156.0184343885259 C225.3148989448075 156.0184343885259, 225.3148989448075 156.0184343885259, 225.3148989448075 156.0184343885259 M225.22015701518697 147.6854683029204 C223.1484318550656 148.79898089586496, 221.6974522694151 152.00723945795588, 216.76884798534692 155.88978613708179 M225.65849035882695 147.83429914790386 C223.4378534953809 148.92854635501178, 221.93426990820103 150.88831284166673, 216.55787682697655 155.7810004406796 M225.82525208310528 138.3042104129715 C220.78773969552842 143.04407847302002, 216.06965197297208 146.10904310292497, 207.949202822444 155.33534352067866 M224.84107819178445 139.24630246544612 C220.1068963814477 144.57351298478252, 214.31907880745877 149.98867030333932, 208.236324228269 156.17272410016514 M224.94595823602123 129.42563644477693 C214.37418204337345 140.71078621348337, 206.6906832305594 150.40806867192734, 198.80530860087723 156.23459014181054 M225.41789800503594 130.83022655414013 C219.97662322600038 135.57476338806242, 214.30558015843204 141.13764204980802, 200.10537006779464 156.30165971141315 M225.5341288359587 122.92338465065463 C215.3575963596709 132.61778971885659, 205.25499485988865 141.46240972754995, 190.94526066226948 156.8777614760772 M225.03647997954235 122.51543657728237 C218.15771975211965 128.7857444876322, 210.20934870331854 136.58165791771987, 191.7917762131064 155.42991592507818 M224.49462228135513 113.2172060071671 C210.18564480625483 130.30456218574005, 193.34537808923605 145.68891039995123, 183.2825111550582 155.71351475004118 M224.82662147858485 113.15045548409165 C211.46313060823368 127.82344130959358, 196.16598309860558 142.70879892511766, 183.3272931524855 156.18531256537895 M222.1687135959018 107.82793486562302 C210.03606955354272 120.60116752753474, 196.71196963154875 132.1577400600023, 174.77035597768085 156.88816344026486 M222.41352086569856 108.51965522353282 C210.35118843645026 119.73057692541288, 197.53475238063047 132.35460174923804, 174.17999949921327 156.1905913315342 M213.53752155329013 108.57406182733108 C197.91830255640423 124.68458391573857, 182.06025601872102 138.76232230217667, 164.77693477857505 156.6706772733108 M213.9587046294185 107.90232961957086 C204.16243820104182 117.56248564507356, 194.64916389150443 127.67518832222571, 166.06680199157094 155.45091579776266 M206.6822900514499 108.71145236936141 C190.79465736811193 124.2351855094269, 174.31346322085335 138.43461886872163, 158.26023095617822 156.27768222574153 M205.4578087575183 107.77491299693216 C189.44054679264312 124.82174182986198, 172.47738183171293 140.8423856955163, 157.36593549283972 156.54137141328312 M197.01725248881877 107.90048246827652 C187.40329916927547 117.38098908561687, 176.18223150106704 128.14267145414271, 149.34307165892787 155.4984605241195 M196.61094311327935 107.74061580483546 C184.17367065112757 120.73443395077906, 172.25789934069928 132.72569564054083, 149.5294629913009 156.39446550231435 M187.721486013834 107.3741843506389 C172.33962108499085 124.15884028468197, 157.24228084668886 139.75549883658263, 140.8881277852615 155.9199506450073 M188.09204568498268 107.4600703674995 C171.61355968478358 124.06964959598163, 156.20248153082102 140.22794054138708, 140.2957756002357 156.08762726407508 M180.51391152493326 108.36324649301102 C161.93724250945695 126.07201372594233, 144.59294621250584 144.4231600747733, 132.8729139836166 156.95174731496732 M179.56138258590966 108.03883088414301 C168.76721088085986 119.4092234200306, 158.61843498097005 129.52439546097267, 132.50209255792535 156.23070777278403 M171.228293670554 108.12101362195541 C157.87593879984146 121.55128591345408, 144.29277411603596 135.41016051242076, 122.76478865243071 156.65110151056209 M171.27804805434153 107.41487342898478 C158.57713924729558 120.4212667220917, 146.8697111993222 132.95548519822668, 123.69696122765119 155.95347997765995 M162.18824084913373 107.94848671403457 C146.68697952007437 125.0421936993193, 130.3591366792742 140.08843444356185, 115.49595394014132 154.94792045835413 M163.31246445355953 107.74609595124353 C150.39532454864633 121.08641845697504, 136.84816479406405 133.2557238643283, 114.9527570976944 155.49313870292164 M155.38220520910997 106.819322995811 C144.48012849856775 118.8854375188626, 134.27276860505097 127.04021142910302, 107.0384557451859 156.86976763490594 M154.75888227184493 108.39781827513804 C142.5068925308454 120.50476591678742, 129.9446761157215 133.11319414679167, 106.47818378133623 156.38180064778783 M145.63848264892016 107.0048359438472 C136.5978122853592 117.06747191367626, 125.33832243897793 126.70222001506241, 106.25025152786742 149.49579495491457 M146.54788012247894 108.53028209988703 C129.43610550084844 124.48020717571319, 113.27286284608056 141.0361887449708, 105.10184082872341 148.56293657461177 M137.80021281700184 107.69899528470566 C127.46899673963242 116.91454234175161, 118.18573226499161 127.81223743467854, 105.85122043713102 139.38073264443483 M137.05886474374284 108.48615099970927 C128.2860906191996 116.2733448044217, 120.25932432110889 125.85558805411152, 104.88573385364482 139.97786118210462 M130.30037911179252 108.24342699494886 C123.20148326929943 113.92936755036737, 118.17575589792561 119.83252602830858, 104.56872605904113 131.6093264924024 M129.73257099891788 107.57801042382347 C121.96834072203595 115.35372650283036, 115.73178244534554 121.61846070572926, 104.50833728200863 131.3826703568582 M120.33680868172965 108.95241330113937 C113.67282085359508 113.87038533257294, 108.7898836049144 121.33008230110224, 104.6841892920352 123.8497649753797 M120.28356187628529 107.87586769644847 C115.50848185547135 113.03506803999223, 109.56340666404095 119.0847290697405, 104.84866722709606 122.9641682980913 M111.81249319010534 107.53653297384012 C110.86414629690003 109.48603072418823, 109.23629982099777 111.07633542915544, 105.65031046382259 115.39956694981768 M112.44527122204312 108.16491264232177 C110.21441592230846 109.73015691783596, 108.4585183095039 111.82528287460414, 105.3456570351414 114.87391107986436" stroke="#ffffff" stroke-width="0.5" fill="none" stroke-linecap="round" stroke-linejoin="round"></path><path d="M105.16204947059354 107.95666168704629 C130.15070768569908 108.36707540675998, 153.86334279899796 107.2950719229877, 225.58101974551877 107.27080260291696 M224.97653598164518 107.43503666147589 C225.25062246233426 120.40266030952334, 224.40327794462644 130.68522765263916, 225.1404350457092 156.6067580960691 M225.97737842624386 155.10067988410592 C197.25146549617253 156.11969719085099, 169.880755050232 155.074438549608, 105.80199063842497 156.15677407756448 M104.84775983666381 155.28174226507545 C104.75688231021365 138.9697254113853, 104.81335783034763 122.53356533870101, 105.10983776425323 107.6453849337995" stroke="#1d4ed8" stroke-width="1.25" fill="none" stroke-linecap="round" stroke-linejoin="round"></path></g><text x="165.33333333333334" y="132" text-anchor="middle" dominant-baseline="central" font-family="&quot;Courier New&quot;, ui-monospace, monospace" font-size="13" fill="#1d4ed8">Build</text></g><g><g><path d="M270.8587659714994 132.1920993048327 C270.8587659714994 132.1920993048327, 270.8587659714994 132.1920993048327, 270.8587659714994 132.1920993048327 M270.8587659714994 132.1920993048327 C270.8587659714994 132.1920993048327, 270.8587659714994 132.1920993048327, 270.8587659714994 132.1920993048327 M285.6626491458222 137.5449681723791 C282.70911652127694 135.42467254492496, 280.0682840131637 133.61991518539418, 277.15476458163835 129.5011049523802 M285.23629506296214 138.20703443478075 C282.4144727850768 135.39059176818358, 279.76925925513797 132.6525637855966, 276.271620036046 129.71074466320138 M300.00289213507193 143.9624633802701 C294.1704898038515 138.52721854612435, 291.0798868701419 134.718810918239, 283.30699222714185 128.3975488038753 M299.5479536199825 143.62540149731973 C292.7114887272873 137.39414559114417, 286.9551077201008 131.69328920735168, 282.7909355920973 127.42771857008535 M313.7809865853448 149.787833633848 C308.25976520701676 143.51962945275793, 302.51555770190487 138.60868307988633, 288.8964029746849 124.40383908397152 M313.37690480953796 149.15643366166995 C305.61805568029325 141.45051353706143, 296.80880880854346 132.50611555323204, 288.1731565472458 124.17554016860767 M327.3903070030249 154.32187660165934 C319.13312972099675 145.4476191307804, 311.1049351692381 139.15123688924052, 294.415906724728 123.4851251680814 M327.8054377175382 154.29659687613008 C317.36536146011025 143.96912638092383, 307.49647923450306 134.27469806948216, 295.40436946882244 121.97024535037951 M335.60386745508947 153.32557021786886 C327.055742789948 144.34622012696215, 318.02649254046094 135.00497496723497, 301.6582624187408 119.15259861486219 M335.38694360822626 154.59455828384924 C323.0984167654637 141.66842707903132, 311.0108683615187 129.8538902522158, 301.2727495580626 119.6613008205425 M341.94854935131417 151.02547850943967 C333.456503415996 143.56436762567392, 326.60826089373484 138.35312082427615, 307.22599462319306 117.51393535797106 M340.29215765114327 151.3417195582749 C330.8317300957582 142.01453406243442, 322.5747442342018 132.79424195268993, 306.7459642037019 116.76555609673815 M347.2467861641014 149.33043631596163 C340.79859469722356 142.01525706402674, 331.55405984948754 134.9096626698201, 313.6152138731141 115.4321160496249 M347.50709364095724 149.4326516229813 C334.0030459807157 136.673980614321, 321.50082498010744 123.90093192692613, 313.7112433255349 115.26981385266772 M354.0577430849209 148.14772894609203 C342.400113490413 137.77625614750076, 332.7416574673177 125.89679566216336, 320.02836920378707 111.2131785922943 M354.13047365390355 146.52502430811006 C341.87268526754934 134.9869668989883, 331.2935785021127 123.6094792698851, 318.8443819061105 112.56233244978621 M358.77535093024227 145.35612608348802 C348.9751913903276 133.00435547289766, 336.157551574207 121.75403288032598, 324.9936024002413 110.3005723881962 M358.9280119537175 144.0563902563028 C349.2653993860602 134.57167249081334, 339.5807530223819 124.77973222330733, 325.88534424022384 110.37093018679491 M365.11212648509496 141.36470213036642 C355.1551357710408 130.72472786334188, 343.59346910980065 121.30212296300417, 330.8703937477599 106.45580408980116 M365.07248533519413 141.8467552662607 C353.03458580996227 129.83084860695578, 339.9657104641558 116.99057832887928, 330.40015968542355 106.98738105014876 M370.11192503476207 140.200588739198 C365.19182398476534 133.61789865885993, 356.838853316233 125.0193133901461, 344.64709087442435 112.0309664423781 M371.6127356558821 139.4300808244388 C362.25571029710466 130.3626413952053, 352.78450895849 120.31442798259688, 344.63470150455663 112.78369355660105 M378.7692946142729 136.0033290621995 C373.7118651294992 133.99821144445968, 368.9480928493464 128.33288355460377, 359.8191375036523 118.92196703653221 M377.34927408557644 136.5923883545383 C373.2560987759569 133.86635181592945, 370.33338530023883 129.6206648862128, 359.6491656183064 118.60908950574135 M382.4812084852856 134.79789234580682 C380.03458840545466 130.22712753260598, 375.9947700287359 127.64428564352373, 372.6369418237346 124.66246286200925 M383.50394705382627 134.09133437212768 C379.76517164585476 130.60591826649681, 376.48640630998614 127.3127278925289, 373.326614829431 124.14812083226263 M389.5151972922692 132.22736200315896 C388.9052792442439 131.23436403698724, 387.952040522834 130.37688432946862, 387.4473283050013 130.13646121967417 M389.6533028563773 132.24104706614298 C389.06031061261297 131.49232574690052, 388.33140756544884 130.77936148540857, 387.5675117642143 130.1122208905669 M390.73387429047153 131.93279237619518 C390.73387429047153 131.93279237619518, 390.73387429047153 131.93279237619518, 390.73387429047153 131.93279237619518 M390.73387429047153 131.93279237619518 C390.73387429047153 131.93279237619518, 390.73387429047153 131.93279237619518, 390.73387429047153 131.93279237619518 M384.700830491289 130.1971535964935 C382.7796430218933 131.29277766431647, 380.82019537417045 132.86722017173471, 377.1562926345107 137.77422486048306 M384.1438279168508 129.54588288873163 C382.52924801342095 131.68265092685883, 380.2901446098183 134.1740346563511, 376.4101624178582 137.52253682633045 M378.31977046089185 126.55147641903818 C374.5011289912202 131.2611443393092, 369.87597437142733 135.72844659551572, 361.4353966607499 144.0902228159209 M378.1409194623487 127.2349257400921 C374.93491212380377 130.41982160098627, 370.39193044305864 134.35046512026292, 362.2057903581086 143.7643880161767 M371.26090239676955 125.3727447266588 C363.2728214212943 133.72868470560655, 354.8753244448142 143.38997848842195, 348.31237110867806 148.0093461212566 M372.46093605346357 124.59738700249139 C365.5251973637275 131.78909954401786, 359.11350872701536 138.5104867624256, 347.984602685456 149.49978877183554 M367.5953841710847 121.52552281498251 C357.12250373558584 132.9126805822647, 345.53561657962814 141.48325590197973, 334.8732082427634 155.66419292207576 M366.3071052555378 122.61399045373587 C354.62737429823136 133.44916640070866, 342.71154159166406 146.33042583838565, 334.3124596218733 154.96751393697926 M361.11746169412055 119.17122883622618 C349.94794200682986 131.78122658526127, 337.475643149537 142.07409715123327, 325.5907191913412 154.59386615254311 M360.51244861362045 120.18482001752676 C351.0927580621713 129.61303516133526, 341.2438259919396 139.45743851834058, 326.10973699296125 153.302168154757 M353.1274668447198 118.77144497404703 C341.28816555143834 128.3122993002832, 330.9167429912058 141.8769193016168, 319.2712722087618 150.8101616208083 M353.92330020381974 117.64352208650567 C347.4864181516058 124.82539500268149, 339.89832904895155 131.75394135402348, 320.24384431283585 151.4381973798028 M347.2729971267254 114.4467377871022 C335.9104399882441 127.73226976554844, 323.9104459555735 138.45257915924202, 313.1736418614949 149.67871882290154 M347.8967362897441 114.95987586581411 C339.7308550443531 123.46920166334455, 329.94451868359306 132.6965476409564, 313.90432397023244 148.83478969213127 M340.7900953254204 111.73547855260855 C331.35262843197034 122.16131155659022, 323.8910748754686 131.4435405815368, 307.02176155982363 146.5062684110397 M341.79800497894246 112.94236371665335 C334.9847011623612 119.36029663402617, 327.8689999932732 126.91375119438008, 307.47185376019974 146.90687276544364 M336.0154969758342 110.68159579803677 C327.5796527113897 118.3942489503525, 320.41397556110724 127.27295386400172, 302.30275746377754 143.44259828769353 M336.16902369120965 110.36967368797839 C325.8101539994792 120.49732360529214, 313.88759742627764 132.19119375042368, 302.0725307900329 143.37082996119497 M330.4922761132499 107.92892955060367 C316.9738054262734 120.70659811525931, 305.62210048895 132.2744252983712, 295.9725942336395 140.77490785507976 M329.4902749090945 107.52880376599049 C319.4538972771617 118.32944523622459, 309.3646362761487 129.00102139608146, 295.73976722978045 142.38260457808644 M315.9039181484583 113.9871584620185 C309.0683078650002 121.98491148344681, 299.13765764467627 129.26427061948115, 290.7683224982524 140.41556054685566 M315.9711290531534 113.5247389988832 C305.23204281684855 123.70538425730675, 295.67700338389113 134.1718068422722, 289.5827877805511 140.26920238375965 M301.5429165221677 119.563203154073 C294.91621570122203 125.65361665924051, 288.00694083223647 133.49242930135838, 282.8492585114592 136.06090417167843 M301.2746911363602 118.85560484243268 C297.47352063510726 122.98967550690948, 294.7549725119868 126.60736618145212, 283.88405933095305 136.9312619583562 M288.30098426609464 125.25681762092654 C284.9194007938924 127.30377145198857, 281.7794923900863 130.56783102843258, 277.2057514561672 135.4534297300178 M287.64527890746643 124.90345127987582 C284.22299686274266 127.98191442375621, 281.14342368560915 131.33184045085005, 277.31674121966176 134.6803033769365 M273.41214233222564 130.57337519388747 C272.93213092916994 131.01151602167906, 272.34622123026605 131.5285179256306, 271.9392908134717 132.03479629653424 M273.3811959258947 130.51939519437133 C272.98665809660895 130.98960225568106, 272.55357803850785 131.31400587068222, 271.93724951332763 131.89919704326346" stroke="#ffffff" stroke-width="0.5" fill="none" stroke-linecap="round" stroke-linejoin="round"></path><path d="M329.809740872557 107.33499253056944 C342.0637062037687 112.40648437106609, 353.63184966802106 116.79880282768607, 391.63819628494485 132.70620390437543 M390.73147063913444 132.95255499221383 C373.9659075578253 138.7651554584205, 359.25155024840933 145.45167025995255, 330.9773192352305 156.31013714410363 M331.03273430603247 155.25101982615888 C315.05886556953595 149.85283916053177, 301.1532150361727 143.42478514444826, 270.7696526243041 132.8351611163467 M271.7383064216624 131.52261339761316 C283.7948223537902 126.34635455900431, 294.99077149584394 122.21660879471898, 329.7314233130465 106.86807740069926" stroke="#1d4ed8" stroke-width="1.25" fill="none" stroke-linecap="round" stroke-linejoin="round"></path></g><text x="330.6666666666667" y="132" text-anchor="middle" dominant-baseline="central" font-family="&quot;Courier New&quot;, ui-monospace, monospace" font-size="13" fill="#1d4ed8">Tests pass?</text></g><g><g><path d="M440.7478113297575 75.44013893642224 C440.7478113297575 75.44013893642224, 440.7478113297575 75.44013893642224, 440.7478113297575 75.44013893642224 M440.7478113297575 75.44013893642224 C440.7478113297575 75.44013893642224, 440.7478113297575 75.44013893642224, 440.7478113297575 75.44013893642224 M458.49658182885304 83.991750414237 C452.76433590107723 79.8965039375281, 448.23700622714506 72.52019707930032, 437.0720178910136 62.59574320476058 M457.43129417400615 83.89136329920552 C449.8208387307452 75.60966925849497, 441.9430010449544 68.39237897222512, 436.23556107437014 62.38874700750711 M469.6155470285343 87.92204898195868 C459.82343093667436 76.97905829506807, 451.00325371031454 69.01364228773289, 439.79995983413204 57.574358725880394 M469.42007665445675 87.9716218841315 C463.5235724339849 81.20580836112534, 456.95927496052707 75.5754576402157, 440.049245133463 57.225042730157384 M478.5507216391138 87.87413252210212 C472.3493928336447 81.69859264486395, 463.91125182628036 74.55615829109458, 445.49070695339304 53.232976078416286 M478.76982028530756 88.3848829402585 C471.4694510367206 80.77856372020545, 463.9867493598676 73.31507338330303, 445.4282253660129 53.98427165019053 M488.38878473846296 89.55645745628853 C478.66934053871904 80.3551168423525, 470.8271714492909 71.98993187233972, 449.64611013954857 50.70459849687011 M487.94662308974245 89.17151206889528 C473.00729631035654 74.59338188696525, 458.1239748516105 59.599839089947125, 449.45455285808424 51.24306493179591 M496.5333007797065 88.42874058139299 C484.1607613943867 77.2897414329456, 470.876373365747 62.5070720207915, 455.39175990809684 48.48034384049008 M497.3029997161987 89.36610399660442 C484.45711547189853 76.80097846330814, 471.2097863781041 62.62273558739395, 456.1285495704878 48.45413711390922 M504.9689331535965 88.66617263191722 C493.0587627926369 75.89842628734867, 478.3298632286528 62.34256186817048, 462.2701321497895 47.10259034377795 M505.66709500074086 88.83669613757513 C489.34290953970435 72.36172114299599, 472.54474990983476 56.59413302153406, 462.68695408928767 45.91443186071974 M511.7540848756311 88.95205896710948 C499.50460949065666 74.01394933640952, 483.6389890234726 58.5423875736017, 469.7332288177518 44.55761730360882 M512.5603246541796 88.55240928074315 C503.51880662355177 79.68871596431558, 495.2704714658754 70.03805283994909, 469.0205623129217 43.83276264879005 M520.4282578989352 88.58517888384465 C506.9683920450476 72.20203352705586, 491.22499579471224 57.22655157191701, 476.3925779274817 44.22560507923071 M520.3297345749522 87.1658069026709 C510.09992770605425 76.62889402478763, 498.1346218497378 65.00741346105845, 476.8492274522002 43.154812767055674 M527.9691598954473 86.53689239781129 C515.3550537006888 71.86828155636358, 501.38791208008087 59.698866853022466, 484.6265928697311 41.787994405145625 M528.0301076303099 86.1450019487344 C511.7970756434884 70.63407996792134, 497.17131077098713 55.40078388165963, 484.6542193431877 43.345494629706124 M535.0569178182924 83.61535380588433 C518.071113835088 69.57110632685297, 503.2041493839894 52.590763446341505, 492.07321309762506 42.22012707822849 M534.41317721869 83.61287039549609 C524.3751782038205 74.26478866604197, 513.8413449811115 63.54799545760006, 492.29586513432173 42.656590463303814 M540.524077901782 80.81551168612535 C531.1332671302205 73.53039646009454, 523.3869583856098 65.72181097064149, 499.06569056428845 42.32703239535434 M540.7026272697165 82.37205125070507 C529.759752808688 71.17745231456067, 517.7840430163478 59.04271899888989, 499.97433572403963 41.137538744411295 M544.9771785366679 77.24068177303624 C532.7858614966076 64.98088263498838, 518.0465782908968 51.99575640025526, 510.00391006640615 43.21474749695776 M545.7406651194538 78.30151942855072 C531.0340374243293 64.53718118057253, 517.4881980665574 50.02905749624723, 509.52596610433875 42.38175454315065 M550.9036045196351 76.50940120705165 C540.9991753086704 64.68857016512662, 530.8733833258008 56.20182590030507, 518.3333214323568 43.9692495551676 M550.8198757598992 75.23843999915518 C543.8927911984182 68.11070263173931, 535.4608226941797 60.40942923209987, 518.9271875489104 43.68056171133821 M553.4363056790621 69.42014716030037 C549.3878446025467 65.35393948711729, 542.2527637158964 58.21437909683556, 530.8015412400116 45.81305749160507 M555.1729404647441 70.11788681433475 C546.3248632084704 62.89017148537785, 538.9888854729418 54.347546019975525, 530.876129330938 46.25479460028269 M556.7380327668467 63.9144644863058 C554.3266133332265 61.117276375251244, 551.1513974718905 59.23708574336928, 545.277867489993 52.94130360875191 M555.7959127026105 63.836843739551696 C552.8087394898182 60.02756278169393, 548.4462548994571 56.001921693854314, 545.0223169197659 52.659728171302994 M551.6033050074354 75.01333448770254 C551.6033050074354 75.01333448770254, 551.6033050074354 75.01333448770254, 551.6033050074354 75.01333448770254 M551.6033050074354 75.01333448770254 C551.6033050074354 75.01333448770254, 551.6033050074354 75.01333448770254, 551.6033050074354 75.01333448770254 M555.1336734034886 63.2481918098867 C548.1906431419694 70.58225092271233, 539.2462525906319 79.24720650700884, 534.9739555046483 83.00319855760407 M555.5771553561857 62.56553044863939 C550.2172129662607 67.40794208908012, 544.7405019012028 72.86490408492412, 534.3672765963299 84.00561512585352 M551.5757083623782 57.92511818305732 C539.272853597718 70.09916635764773, 527.667126112133 81.01391102462932, 522.8257484569751 86.01072338264999 M551.5728088653759 58.36349838198306 C544.0066429401866 66.77396008742787, 535.0362543545153 74.81885009216656, 522.6061910591625 87.35557357039866 M547.924804325726 52.60233218458241 C539.7970712255857 61.5283228131893, 534.423376223234 68.239330895375, 513.1490913978176 86.57357810199261 M547.8347282435261 53.339768317460475 C539.4553451113084 60.944061320956756, 532.9607874495156 68.64369901509806, 513.7460996328251 87.95809015020728 M542.45710646547 50.9419698925236 C528.0413827321025 63.911288818465835, 513.7415231979984 77.19160108084155, 503.5566216555548 87.7424066372533 M542.1309776078872 51.1758855128208 C529.7008185175014 63.23800715798466, 517.3392825816484 75.18402986446769, 504.6923398410094 87.99493671658827 M535.1153927971086 47.0645345413828 C528.1707857714237 57.16524904489218, 519.1493611180441 66.00010982498068, 493.7776094021249 89.77622006649347 M536.2657851692697 47.65473113225342 C522.4794340186869 61.985893378515904, 509.7129616270759 75.37758740403794, 493.761413300966 90.37422102729053 M529.7164334925802 44.94153720922142 C513.2305825539072 62.23236388970574, 497.9076990684598 76.96651065029967, 486.3221712153991 89.47818306184192 M529.8119025449247 46.52816293350726 C518.819610140238 55.827078655012414, 509.1911025905894 66.59537082685326, 486.07019928587874 89.74117318413039 M521.6294180050098 44.31706969291466 C505.2562944534499 61.502966100439906, 490.1020153436949 77.20617938377889, 479.6459887049429 89.43089526373339 M522.1140318832897 44.31358814314502 C513.6133317597449 53.57442948842168, 503.2086870599083 63.119749923731824, 478.2256733506255 88.98842700723006 M516.2259550687088 43.85780450815078 C505.2859219342355 51.88343862793217, 497.2326200954458 61.13818928874336, 472.0713763238813 86.87532346904278 M515.0638258639885 43.11896345654245 C505.45831243951193 52.6424940813273, 496.7540739271783 62.38712756741586, 470.57097514364375 88.20995222315193 M506.8087523556159 41.62431523299147 C496.4593281010754 53.81901939886845, 487.98543574048466 61.63671897991811, 465.13017458771225 84.76790841227209 M507.75356735427243 42.78911538144876 C492.8342645426643 57.45334542222989, 477.5668364332558 72.77221586867448, 464.453301625744 85.03316124608553 M499.982936818856 43.29975616431163 C481.4513939646309 60.07405072009926, 466.5899359422399 75.08651811138681, 457.8640026060012 83.08031223385589 M498.9724897525787 42.00941989442633 C489.3978623245417 52.345850326196754, 478.82904274138366 63.10098773467221, 457.6491596018043 83.99365664615291 M491.61316147392716 40.63275553661327 C476.7719140395518 57.26640279685272, 460.6980676141425 72.53830448959606, 451.4524326754328 81.37124388710959 M491.88888376971806 42.023695659664675 C477.85347111168676 55.50655354574442, 462.7220041061195 70.09554198991025, 451.31754031382167 81.18205655635698 M482.7238579303947 43.53716299033095 C470.12928739158446 56.28081422171465, 455.0896431775573 68.1804033515133, 445.48481568675885 77.71463373128128 M482.27534996056824 42.80895149728586 C470.7872844884686 54.5223847372733, 459.4242836668538 65.362938735768, 446.19674484786043 78.84716926563334 M473.82030420375685 42.57098175996657 C460.2156632997297 54.904846696036564, 449.3750005307524 68.8571877792229, 439.7600285931045 76.49988606324585 M473.15486653593996 42.82931857147928 C464.4121961389586 52.462479090815094, 454.6647856903221 61.66880257961275, 440.7291316023582 75.2712457505444 M461.8675569035789 45.55743648595485 C456.0158104087124 51.70832471669783, 450.6702019639509 58.58218862410585, 436.6435811911543 71.67477233631885 M462.104721550711 45.732118202367154 C456.0729518189472 52.24490710791434, 450.1583405331709 57.97361942213308, 436.9432230693121 70.88787289409316 M445.70650798079026 53.16751479738709 C444.53373309669547 54.72647726419222, 442.1451392564134 56.894344557233055, 436.65092745286233 63.01943130859137 M446.33025115002346 52.91403685332593 C443.09561450473257 56.840873201664316, 439.4831682091229 60.28225149648054, 436.16869025205085 63.02751093641818" stroke="#ffffff" stroke-width="0.5" fill="none" stroke-linecap="round" stroke-linejoin="round"></path><path d="M436 66 C435.7727508738637 85.33264088858841, 487.1133233740926 96.45480482073603, 524.8002157881856 86.40092119775355 M526 86.78460969082653 C544.0116686612128 81.79279543629943, 555.7416052058339 74.39926496655706, 555.1916110232472 65.85570316761732 M556 66 C556.4864052966237 47.59486470888377, 506.9093722060323 36.28354338614167, 466.1042297080159 46.087625945586566 M466 45.21539030917347 C448.2501388192416 49.516093580209635, 435.64011070281265 56.40936131267784, 435.21468317061664 65.97132883518934 M436 66 C436 66, 436 66, 436 66" stroke="#1d4ed8" stroke-width="1.25" fill="none" stroke-linecap="round" stroke-linejoin="round"></path></g><text x="496" y="66" text-anchor="middle" dominant-baseline="central" font-family="&quot;Courier New&quot;, ui-monospace, monospace" font-size="13" fill="#1d4ed8">Ship</text></g><g><g><path d="M435.80465325174464 221.8046532517446 C435.80465325174464 221.8046532517446, 435.80465325174464 221.8046532517446, 435.80465325174464 221.8046532517446 M435.80465325174464 221.8046532517446 C435.80465325174464 221.8046532517446, 435.80465325174464 221.8046532517446, 435.80465325174464 221.8046532517446 M444.4328472103029 221.29801094850131 C441.70092556110734 219.94124117759213, 440.916594322433 218.15036851988856, 435.42989385282226 214.02842649799547 M443.96225707220276 222.1614547191707 C442.4955380923896 220.22370175817122, 440.82959057562186 217.92306348698983, 435.877986276835 213.65782601603084 M453.40830752707285 222.5657458791656 C447.16501574471664 217.11647294900754, 442.3703944698823 211.9255105172137, 436.51700487752987 205.95941878218156 M452.65007666859043 222.00397607424833 C448.8536640853964 217.58817111198377, 445.60472095425723 214.4317690198346, 435.25691048578904 204.34303505919826 M462.08685361221455 222.84660588597484 C453.45837880328037 213.7738505142764, 446.9386691690609 207.84290943379074, 436.4045990409477 195.53199974934688 M461.8133839858698 222.19427259901144 C455.4574505452575 216.5683411526982, 449.6720730869115 211.3577118408862, 436.3991883285491 195.9515015570738 M470.48410964303497 221.77525374983975 C458.98983489670314 211.5990577625441, 450.3301362794809 202.6257129956865, 436.597170239888 187.45106242122424 M469.9759941672239 221.33312087395765 C459.02363549594145 210.1648506059871, 447.4229250858712 199.654896719526, 435.444608146712 187.72626272505445 M478.0950341156279 222.09325441216657 C461.11056125098855 205.34695907318064, 446.70049970334685 189.61690600847203, 434.86116134544443 178.48043736421974 M477.7334943708559 221.80823452213386 C461.771764225025 205.5814799426772, 445.51826995960056 189.38300497246834, 435.4186399109809 179.7282743736869 M486.12669490108703 222.97381343936152 C471.275587948138 206.48899323284056, 455.1448433048098 190.68657479095123, 438.34105172845705 174.8065228944858 M486.16604206746877 221.50088185408688 C470.3934047459167 205.50649102481114, 455.70556505402243 190.41314091927018, 438.741001029305 173.95922412576425 M496.0357692455062 222.0842770228309 C480.9913117963302 206.3423571958964, 466.03162894021955 192.547575095668, 446.0684301347658 173.27235795317486 M494.86961504026584 221.45463586786363 C484.7838331314758 210.71605945311782, 473.975209718096 200.65605656176027, 446.62847922213376 173.8018542915796 M504.4660437699789 221.248631978981 C492.0092600374378 210.9141310544659, 481.24126366160556 198.84446057489683, 455.814213310972 174.15484073220097 M504.18726138495003 222.14412424901107 C489.5612065730716 208.14269606435107, 476.96518121029106 194.21603592879293, 455.8409011481778 173.60343049468747 M511.3859144705991 221.31000574921794 C499.3349700188805 208.99124735854218, 484.677899875678 195.34637258792114, 463.5682816281694 174.56936429797014 M512.0403495097245 221.54377937057592 C496.0833165059537 205.18215715553526, 479.27770003903834 188.99771751557384, 464.25451802814035 173.88662729563464 M519.8258867184607 222.9931663999481 C510.0494242381951 209.63300447818682, 497.5354741133411 197.4841572881701, 473.2201248324518 174.47546234188871 M520.9598181352926 222.19658829310518 C510.36430362507895 211.48079154867503, 500.81725829513726 201.51475466494995, 472.83640139522447 173.76142394246804 M529.616075259657 221.76702262257763 C512.1423247978696 205.54064374467487, 494.4167143069993 187.40567558683532, 481.8963420449129 172.73930918036302 M528.9174262948571 222.0828427646456 C510.9011029855235 202.84938681768432, 492.21060330470294 184.79720034687435, 480.6756930951333 173.19385437073458 M537.1237042152821 220.7071237335129 C521.001916098103 203.14546963025438, 502.85023921095274 185.0912000602655, 490.49814176164637 173.9962197547992 M537.5570033341213 221.68888922074422 C527.5310427711612 211.8237667572367, 516.2660277520934 201.1537959815046, 489.0148552860699 173.4747572034811 M545.7906070814298 222.95815967416 C533.6174596382618 208.04002619604995, 519.1787660253237 195.47032422034184, 498.6388418537461 172.71314963160359 M546.6256989112885 222.07587878444772 C529.0624176447382 204.0135655127369, 511.0476115652855 187.1644141044764, 497.48092043873754 173.48852575125449 M553.8707267291935 222.99646101092526 C541.8640471198472 209.16880872189444, 531.6045913301142 197.57334197539717, 505.58136956730584 174.45119500218232 M555.0052329970615 222.34851726630308 C536.2436434957201 202.58958310806491, 516.2960246903825 184.41906192130722, 506.9167413363392 173.78185801210154 M555.496547592802 213.6214311233495 C542.0343106604846 199.915423407028, 527.6223783783446 185.1194844100671, 514.7757615234192 172.7280926829417 M556.4720780627783 214.25274735249175 C544.7149946507625 203.4407484955875, 533.8177610752136 192.1123411305374, 514.4122410745781 174.03250667156922 M555.4155855428407 206.61703607733125 C547.8718335883658 196.56522385540512, 539.5437202830557 188.67070866315504, 522.7966637181802 172.6807201152881 M555.727698953634 206.64348847805286 C545.4401869719451 195.54740491509298, 535.2396363846427 185.53964789973952, 523.3356630616573 173.51802910270442 M555.3573251377771 198.64374187665 C550.5333006857793 193.16448401030576, 546.8397602717944 187.27134087319928, 531.0808315226822 172.7275953656276 M555.4592401402051 198.18282407840655 C549.4016883272542 191.6509581699929, 542.7007808856556 184.76350355632485, 532.3648210182799 173.38453736605396 M556.5991467487047 189.32944158771187 C551.7830323650202 184.75252998362, 549.5020378757152 181.44652002094927, 539.6646296830194 173.83137712536652 M556.5992028431947 189.63717871409955 C550.5438349340874 183.92698793056675, 545.4108146250832 179.50172472500566, 540.7183489776493 173.51544820966473 M555.5654230875875 180.36931442242397 C553.8179595630967 178.91660477642648, 551.9680842555639 177.1622062750576, 549.1316352809387 173.44137842098522 M556.2918573246319 180.87637078805176 C553.4356891564273 178.5745915003608, 551.1960472593357 175.96752936501267, 549.0643447635302 173.66081260007144 M555.8772003600252 222.12279963997491 C555.8772003600252 222.12279963997491, 555.8772003600252 222.12279963997491, 555.8772003600252 222.12279963997491 M555.8772003600252 222.12279963997491 C555.8772003600252 222.12279963997491, 555.8772003600252 222.12279963997491, 555.8772003600252 222.12279963997491 M556.0003455359739 213.65830648731907 C552.5282712481674 216.21557870778, 549.1578785588889 220.37916883815961, 547.5999950227316 222.16117901136462 M555.8361788950739 213.49038359977772 C553.8592594604849 215.4498701923287, 552.6458849048068 217.4437019966945, 547.6125671268057 222.06921477035914 M556.5530832057697 205.09308382380465 C553.0457039597275 207.73416419923694, 549.2387097527276 211.00835067460847, 538.5188041768323 221.0150724703569 M555.5926484774676 204.74831395499118 C549.3250543757185 211.8170211280468, 542.843735540137 217.36668932504807, 538.9366076913948 221.60852391907312 M555.5548485880596 195.62457096467608 C548.1750460052883 202.44890151348847, 543.1853898591543 211.27301677369738, 529.5869906842731 223.26318902318658 M556.4346980105963 196.43604623808406 C551.0988113127695 202.01337015081143, 545.1579568806634 207.08381356836068, 530.7371443515667 221.9308629471931 M557.0252750879032 188.49686354072819 C545.2825821477545 199.19715536304773, 532.4025285970806 210.13225518599947, 522.6647928991116 221.27111735885327 M556.0811529468623 188.37699335729758 C544.3502894259075 199.26818478676296, 532.4675869032956 210.76974326259128, 521.481081776204 221.55150348135567 M556.8265087013942 180.55933899336725 C542.8589974481139 193.9673268758567, 528.6141747782826 206.9723532886689, 512.6358411924414 221.96050054376312 M555.5565066944686 179.4924626856786 C545.4581820825335 189.2645246854905, 535.671157431179 200.42207460158502, 513.0477961860097 222.23999508210755 M554.0543776748802 173.17144251374557 C535.9208456452226 190.8526455723537, 518.2355741764434 208.91909856731712, 505.28337531035584 222.49712226932232 M552.5663958493722 174.00074340852007 C541.81696896456 185.7370433016013, 529.0091832732846 196.86380091289016, 505.3074841141869 222.25319199749563 M545.204319629709 173.83675991801576 C527.6248029578024 188.9291344920367, 512.021317173937 206.0818498977893, 495.42774437394917 223.15340685193723 M544.7572773200299 174.25742939861524 C534.5184898452593 183.44054103951126, 524.5602824076215 193.69731939618606, 495.9524124064389 222.20400316306686 M537.1941629364665 174.18023627309157 C516.7660855897403 192.26776510825707, 498.39640466986793 210.9330440582198, 487.0639068793149 222.17091923301402 M535.6329597016374 174.53888784201845 C523.066661721826 186.33290351189737, 510.1087059919117 199.93455650362202, 488.1281682209687 221.93014220186802 M526.9594910912462 173.35281152037936 C511.05276044980087 190.86432609955872, 495.0167435034168 205.7518797967363, 478.69893069754687 221.422864978959 M528.0437176523976 174.4531448617767 C510.23321474656854 191.1396121503957, 493.66876480670345 207.8927880385946, 479.46490902847944 221.5628774244461 M518.8479969651422 173.2370662262853 C507.7547917487214 185.43724895570597, 496.4613978253775 195.57893866304644, 471.48949307473885 221.27659028117844 M518.8743961430139 174.3517812684368 C502.37751161620366 190.69179869264434, 484.89144679163985 208.24589549581532, 470.90861261217435 221.9957818288479 M511.15698280424823 173.30972158221556 C500.60049331000266 184.83485731334005, 488.4980353521045 195.85444040093785, 461.7793806319845 221.45608195607844 M510.2756604566892 174.59868256004557 C492.73378367816724 192.034911935593, 475.17849615257984 210.1061898138111, 462.9523270677564 222.35348310062022 M503.07086022965797 173.9041394045766 C482.8572514757374 193.2279415371522, 465.72431810242915 212.25014969836326, 454.0369893653776 223.10446744506547 M502.2952461891267 174.23878892215 C485.8564520744416 189.87209390536694, 469.8128602907138 206.7826617594988, 453.6674208034288 221.66041361281015 M493.19865023746513 173.47282213477447 C477.22942756181453 191.02315895098852, 461.65145102015674 204.59713025125222, 446.1928246460119 222.44651481454554 M493.3092092485296 173.8668452277969 C480.90736384786544 186.84204695719637, 468.0727689096839 200.43200602730542, 445.7348325398946 222.30956042596432 M484.1114831987635 174.24991283921557 C475.05436949864804 185.47872037736312, 463.9609481010616 195.04067681675863, 437.7770012199812 222.4511327559251 M484.6531758556009 174.29615103753315 C473.91420586472094 186.24171612665842, 461.14196927518543 197.9294822533949, 437.27632131035705 222.1312152881298 M476.0800988596469 174.713695209306 C468.8309441701841 183.4161931783802, 460.6870968777589 191.09818610831766, 436.7278110202447 214.6228027737448 M476.25359254354385 174.62731059940558 C464.1303352015531 185.84280260476777, 451.8307638808073 198.52422121173797, 435.9567842723847 215.59065682298785 M469.2123463412089 172.84909356145218 C459.5306652321115 181.90740835381197, 451.38596001280007 189.2881901188387, 435.73023329340367 205.6630690589034 M467.65897615806136 174.5169828489612 C455.5241467213991 186.22205525197543, 443.4153045565468 198.01958979582562, 436.01651683468816 206.85589040307784 M459.59068413954344 173.01017283706025 C453.71168391805145 181.18368510083133, 444.7598546577197 187.52909212758155, 436.123997348179 198.96247574018014 M459.6711638573569 173.4466314092468 C453.9371536619613 179.75165619660993, 449.1665732504066 184.59267642368587, 435.0730254055977 197.49583540131968 M451.0096801257442 174.78263860253645 C444.8648524480469 180.16242678848124, 438.39131883800763 187.0778596981421, 436.41265543066413 189.89149400898125 M451.77656311213326 174.1912745908092 C447.7843103474412 176.85583387646574, 445.01106679913806 179.89054202056357, 435.3238502683163 189.77750231576022 M443.3268134580412 174.5429377842884 C440.7589175056514 175.97976975403824, 440.117728440642 177.72710439171004, 435.52795836013263 180.59392100643407 M442.65875853788566 173.86388695549252 C440.4845915691725 176.14008523815755, 438.9232746619073 177.9494730053318, 435.81632478842965 180.92978133155074" stroke="#ffffff" stroke-width="0.5" fill="none" stroke-linecap="round" stroke-linejoin="round"></path><path d="M436.1717903431505 174.49165421761572 C459.04343588091433 175.37368851689993, 484.72502366416154 173.89367980746925, 556.0192160304636 175.1770065072924 M556.9080066207796 173.18759165368974 C556.3356228225023 188.80665077380834, 556.6172615282327 202.51306913159786, 554.9177542809397 221.71689524017273 M555.8101127322764 221.5516997102648 C522.395330407098 220.64324297712741, 487.5685542922467 221.63009637401998, 435.37164326272904 221.7919351939112 M435.3860662583262 222.00435566268862 C435.1012724422008 205.22431352846326, 436.4424612425357 189.33391334675252, 436.04126107729974 173.71346233449876" stroke="#1d4ed8" stroke-width="1.25" fill="none" stroke-linecap="round" stroke-linejoin="round"></path></g><text x="496" y="198" text-anchor="middle" dominant-baseline="central" font-family="&quot;Courier New&quot;, ui-monospace, monospace" font-size="13" fill="#1d4ed8">Fix it</text></g></g></svg>