<svg xmlns="http://www.w3.org/2000/svg" viewBox="0 0 600 320" width="600" height="320" role="img"><g transform="translate(80, 40)"><g><g><path d="M60 120 C72.6356473625948 118.80050648041069, 72.58164923799534 121.05703394003213, 85.46704429599146 120.22854513712227" stroke="#1d4ed8" stroke-width="1.25" fill="none" stroke-linecap="round" stroke-linejoin="round"></path></g><g><path d="M78.01817477172969 123.56669580915593 C80.65382634864689 123.17354839714179, 81.82152645655437 122.32402929437126, 86.24677276585871 119.6615140995942 M86.37471083775783 119.92018274182453 C83.3303302427779 118.45211358647352, 81.32206310606652 117.09411333748787, 78.5241320525369 115.7006903492508" stroke="#1d4ed8" stroke-width="1.25" fill="none" stroke-linecap="round" stroke-linejoin="round"></path></g></g><g><g><path d="M206.66666666666666 120 C219.30231402926148 118.80050648041069, 219.248315904662 121.05703394003213, 232.1337109626581 120.22854513712227" stroke="#1d4ed8" stroke-width="1.25" fill="none" stroke-linecap="round" stroke-linejoin="round"></path></g><g><path d="M224.68484143839635 123.56669580915593 C227.32049301531353 123.17354839714179, 228.488193123221 122.32402929437126, 232.91343943252537 119.6615140995942 M233.04137750442447 119.92018274182453 C229.99699690944453 118.45211358647352, 227.98872977273317 117.09411333748787, 225.19079871920354 115.7006903492508" stroke="#1d4ed8" stroke-width="1.25" fill="none" stroke-linecap="round" stroke-linejoin="round"></path></g></g><g><g><path d="M353.3333333333333 120 C365.9689806959281 118.80050648041069, 365.91498257132866 61.05703394003213, 378.80037762932477 60.228545137122275" stroke="#1d4ed8" stroke-width="1.25" fill="none" stroke-linecap="round" stroke-linejoin="round"></path></g><g><path d="M379.73535663451605 68.65753585128351 C380.6916476998167 67.23436163963694, 380.1823142695787 65.36651432423358, 379.58010609919205 59.66151409959421 M379.70804417109116 59.92018274182454 C377.1088533965876 61.8549138920756, 375.5363896533708 63.89678686846386, 373.10453042716836 65.42953392298112" stroke="#1d4ed8" stroke-width="1.25" fill="none" stroke-linecap="round" stroke-linejoin="round"></path></g><text x="366.66666666666663" y="90" text-anchor="middle" dominant-baseline="central" font-family="&quot;Courier New&quot;, ui-monospace, monospace" font-size="13" fill="#1d4ed8">yes</text></g><g><g><path d="M353.3333333333333 120 C365.9689806959281 118.80050648041069, 365.91498257132866 181.0570339400321, 378.80037762932477 180.22854513712227" stroke="#1d4ed8" stroke-width="1.25" fill="none" stroke-linecap="round" stroke-linejoin="round"></path></g><g><path d="M372.59857314636116 173.83785223542563 C374.9892194307685 175.38903957664218, 375.9074672863889 176.4855953466702, 379.58010609919205 179.6615140995942 M379.70804417109116 179.92018274182453 C379.58859880884364 176.69273047799794, 380.510178567589 173.55566875857951, 380.24131391532325 170.60985030712322" stroke="#1d4ed8" stroke-width="1.25" fill="none" stroke-linecap="round" stroke-linejoin="round"></path></g><text x="366.66666666666663" y="150" text-anchor="middle" dominant-baseline="central" font-family="&quot;Courier New&quot;, ui-monospace, monospace" font-size="13" fill="#1d4ed8">no</text></g><g><g><path d="M-54.86950440044536 129.82282320621937 C-54.86950440044536 129.82282320621937, -54.86950440044536 129.82282320621937, -54.86950440044536 129.82282320621937 M-54.86950440044536 129.82282320621937 C-54.86950440044536 129.82282320621937, -54.86950440044536 129.82282320621937, -54.86950440044536 129.82282320621937 M-38.004389714313604 138.62468710635198 C-43.502568288972604 131.68484670621433, -49.93770156635475 125.13746913275826, -59.270433275470786 117.96578272728557 M-37.520711628025325 137.84959032759411 C-44.2532382538985 132.12379820823585, -50.16533836246547 125.47683494954909, -58.729547479631655 117.4640336779722 M-27.516143735451376 140.35180539654542 C-33.836764570777504 133.2147422760052, -39.89658159884272 128.56861555269617, -57.24390414142819 111.09101922514961 M-27.115011328970766 141.4141986220886 C-36.65214009969694 130.23101888927246, -47.5027599110119 120.81388576609457, -56.13158281659545 111.15369022621886 M-17.680952185051098 143.37726314865776 C-24.445025784757185 136.61899992301903, -29.989416722241188 127.79853564893376, -50.908906760383545 108.55402313383402 M-16.27617752350266 142.45495075319684 C-25.989591229878013 133.30630734210038, -34.227989639181935 125.37271176778411, -51.67452715722858 107.69184702677758 M-7.127145293644989 144.32817446809426 C-16.525028801264337 133.12235529866422, -27.32232431043607 123.39430581934631, -46.65063858142872 104.17738509018449 M-7.087685705825114 143.48193812124597 C-16.781351549151275 134.3411098690211, -25.929746841448818 124.56515924215553, -45.64852790179481 105.06200169891594 M1.0961680520481991 142.0694685540737 C-10.273227404001581 131.60845815724204, -21.796763072925454 119.11035214243957, -39.34836214746904 101.92322438723318 M1.1385927861712504 142.75380940787656 C-10.049138884623614 132.03469667877383, -22.463409819836176 119.68769729803134, -39.9141647318713 102.06667270558796 M7.838707090309731 142.19849648081487 C-4.469069685360222 128.37450233275177, -18.15789629415446 114.37893451015904, -34.05579831403666 99.98779575538543 M9.063247552095822 142.39112735722932 C-1.4072156879649413 132.28479011027378, -11.670716626111249 121.37893204922938, -34.10159282916211 99.84075613462088 M15.368625965607375 141.13963797872302 C7.77247552115183 132.871812108255, -4.404955369249928 121.39289589394728, -26.10994659285035 99.66766901885995 M16.320185910244493 141.48972555713144 C3.0904790531638233 128.5529087573315, -9.718723489662592 116.29312422283255, -26.43811321905788 98.73645535515526 M24.677906947408967 141.22469465320347 C10.796793789085811 127.0531919288507, -4.334981719630706 112.11339499393333, -18.718585151815418 98.34722909568899 M24.50327611641323 141.61985165791003 C11.037426219099789 127.83057593275196, -3.135773678871682 113.74333235792729, -19.054422770635785 96.72953101764523 M31.15932652424955 140.14485607872876 C20.50145692050977 126.62512052969953, 6.582968784881899 116.75606412338837, -10.826450471464048 95.40749634127779 M31.924563457965192 139.29688346645955 C14.052131473737436 122.50497898373389, -2.244363840101721 105.75660086645465, -12.169543853099892 96.54687139741792 M39.01134355915655 139.13058795426383 C22.970274731544325 123.72320213714065, 9.182388824010639 109.40697162225375, -3.1311644697015466 96.7851994236586 M38.100408409255934 137.77996710166678 C25.56648408132543 124.76788106833398, 11.683334414960234 111.73899140553551, -3.8255014605273785 96.44431526992743 M45.043997571851605 134.9325303854678 C34.83717565332282 126.50010570958068, 23.81780397649137 116.06516484653861, 5.157692622939891 95.18870244823668 M44.63863491383522 136.07166527661275 C33.75561652973555 125.07858408140821, 23.190751206339513 113.5739628771795, 4.634853912877685 95.64132903550093 M49.97669011298904 132.09427925893254 C38.471952747276596 121.77177245255315, 27.50820435279304 111.24656330081403, 13.409761919741507 96.96418461423083 M49.4175617586855 132.80948867281114 C39.337490327139996 121.72143130064498, 28.369365361078028 111.11273525294467, 13.140275929224666 96.60593637577905 M54.39383051466355 130.28303199269018 C44.8511979172639 119.02389965850546, 34.597346801235865 108.57981047198943, 23.093512658984544 97.79024699585975 M54.82289832472959 128.61529169071608 C48.14863412716004 123.12813424893629, 41.416653278967935 115.67882717689393, 23.691979188122932 97.5680750349024 M59.585763015156395 123.70551466095955 C51.34881512760567 117.89298008091434, 44.75463726585748 108.89768234325824, 35.295848985136814 100.37251932352876 M58.66992171157689 124.32994957446815 C53.79493274846568 119.47350122316891, 47.75469373053213 113.73160027276694, 34.56449600786842 101.23295360069818 M61.304051893943736 117.69404548072937 C56.41294426219703 114.12648975146801, 53.69779290776123 111.75667845821998, 48.802726445877546 106.28258787247643 M60.452819876814075 117.79334661492828 C57.04744855335846 114.16874655945519, 52.57569220451595 110.50681514461843, 48.854579627150294 106.5675010891567 M55.538767125868496 129.07787236926947 C55.538767125868496 129.07787236926947, 55.538767125868496 129.07787236926947, 55.538767125868496 129.07787236926947 M55.538767125868496 129.07787236926947 C55.538767125868496 129.07787236926947, 55.538767125868496 129.07787236926947, 55.538767125868496 129.07787236926947 M59.37300965433133 116.82097523968702 C52.29912178409163 123.34340569078276, 45.961804815375274 129.01086391773887, 38.353507688813814 137.13929941742376 M59.03388014250559 117.10030989937519 C52.55506672342924 123.17434794706578, 45.7593647935623 129.96511260962924, 38.05183796173424 137.23990355948612 M56.43186796460418 111.7778962317503 C45.70569418725786 121.23707870794479, 38.80598671013189 129.76404048041988, 26.900844466767037 141.14283105313478 M55.98114309035359 112.03749128148173 C48.27393117650939 119.99056679402419, 40.23305842436188 128.10006490093855, 26.095955117313885 140.72904360007198 M51.137161440101636 107.26521921679213 C43.45590903978118 117.54603599922923, 34.724260189802386 125.41201311916652, 18.187389085408853 141.21387481886038 M50.96464241955168 107.59957825001165 C42.10193621240454 115.9685119249784, 34.59007169756551 125.28164644790458, 17.886641144160734 141.41000283091404 M45.527596287918364 104.72880830021778 C33.80584747835736 115.44398391663901, 23.935550714253896 126.25939386281034, 8.294980533274284 143.23641203856545 M46.19606407352266 105.53728720529207 C34.97070642470709 115.08069151023525, 24.684990560166394 125.86252906743341, 8.128910079637937 142.8495445583992 M39.44952718370873 102.2381291188729 C28.794546989340233 113.78226250291353, 18.795330807994088 123.7348377159369, -1.5743937325419353 144.20552556765531 M40.18712527674902 101.63567826659056 C30.807674055656364 112.35133226160312, 21.058160944252688 121.65715078148459, -2.32844275783165 143.90502580785457 M33.92681658456743 100.11638952816286 C17.43941964599394 116.15327018580633, 0.0686446789182554 132.77686097166864, -9.27188422401239 143.00068623060253 M33.20068384765357 99.76304595923432 C22.40002790781455 110.63683729551221, 11.366198289926551 122.5556130689483, -9.184877206392482 142.91643376117466 M26.00176185377572 98.29961247730633 C8.07738171903554 115.82718582603785, -7.663374188473003 134.10517527694236, -17.374560796415455 143.05853419518547 M25.9729153233457 99.04874208986391 C11.621858534649832 114.43722543947244, -5.031488770379086 129.97574167836976, -17.879639634994813 142.79791713105965 M18.747595260801386 97.72413600933554 C6.155841082481455 111.54766225195557, -7.5944161809041 124.99828172084649, -24.50184483646989 140.68931116062294 M19.80706295962132 97.68942574643346 C3.5215523480629587 113.21481247604198, -12.318825444446215 128.71528901198985, -25.02694513152927 142.3729683491502 M11.15966363773914 95.4354336046558 C-2.888711163565128 109.34512838379418, -15.190562666807654 122.08293169215143, -30.410116043521345 139.1714671387605 M11.545867387403268 97.07663364177012 C-1.0847809377832216 109.291753557867, -12.628340695611225 121.44817389995403, -31.02933428401339 139.68778034721385 M3.7963555040567782 95.1471870562993 C-8.655484967662767 109.40952597308545, -21.314709491261798 120.30650283890861, -38.62285311666167 136.3818011411901 M3.6937437374874618 95.57460298882798 C-4.732902873184756 104.64151087010953, -13.933002782475224 113.88819023572934, -37.62656386771089 137.06013724426435 M-4.836826058151004 95.85721359467135 C-15.158111242255456 105.93156358385033, -25.1162698105748 115.08923596900318, -44.5754930676096 136.34032049213042 M-4.917895484203276 95.7549486254342 C-18.397519948866385 109.39643439710939, -32.07988163686986 122.6431764447625, -44.75921615801238 135.84302365944225 M-13.353443060602944 95.91364554399068 C-26.696059687929683 109.93680727946938, -37.67158220156496 121.32731602204753, -49.110038001897365 133.3048476096137 M-13.315570053059558 96.48159267072941 C-24.235163186674335 106.38735255134198, -33.98840256018083 116.60998021906842, -49.38205571162197 133.1379814932017 M-23.073622608831258 98.00243032228948 C-35.09140485669462 110.1854216951991, -48.15964412931332 122.83158054637003, -55.38387546243024 129.6798403490452 M-22.489982025785476 97.31701452516765 C-34.792271646887414 109.42482979389372, -46.687197839420904 121.4844842464675, -55.89159971011681 130.12268027086984 M-33.94709080811433 99.67036434734618 C-42.21979939188477 107.98815988027592, -52.180822705533906 117.73124705958668, -58.214637742367344 124.76125131608406 M-34.037799646331294 99.86403477644926 C-41.47747414186928 107.39426558062327, -49.74331129869566 115.01362799456024, -59.18972727282788 125.01452645552763 M-49.744614928389524 107.38618478410336 C-53.445476221282604 110.75171357875011, -56.59247316233662 113.84352888299382, -59.85313126283024 117.69378511436318 M-50.113679136081224 107.00781529808808 C-52.90817698168824 110.4072424633809, -55.581187542913 112.82748602440729, -59.65869056303311 117.38080502131987" stroke="#ffffff" stroke-width="0.5" fill="none" stroke-linecap="round" stroke-linejoin="round"></path><path d="M-60 120 C-59.75681228153407 138.98956668269813, -9.421669156476863 149.83036170357943, 28.800053947046393 139.78868756755827 M29.999999999999993 140.78460969082653 C47.52596561943585 136.02126581802128, 60.23540130145848 127.6305968599862, 60.69790275581181 119.66392579190433 M60 120 C59.22160132415593 101.84230971666992, 10.527343051508083 90.95422534814001, -30.273942572996006 99.73344921827675 M-29.999999999999986 99.21539030917347 C-49.260513749322236 104.40595643610598, -60.98997232429683 110.8715597098225, -59.89632920734584 120.29283220879734 M-60 120 C-60 120, -60 120, -60 120" stroke="#1d4ed8" stroke-width="1.25" fill="none" stroke-linecap="round" stroke-linejoin="round"></path></g><text x="0" y="120" text-anchor="middle" dominant-baseline="central" font-family="&quot;Courier New&quot;, ui-monospace, monospace" font-size="13" fill="#1d4ed8">Start</text></g><g><g><path d="M86.59173866674057 143.92507200007392 C86.59173866674057 143.92507200007392, 86.59173866674057 143.92507200007392, 86.59173866674057 143.92507200007392 M86.59173866674057 143.92507200007392 C86.59173866674057 143.92507200007392, 86.59173866674057 143.92507200007392, 86.59173866674057 143.92507200007392 M95.27818507470703 144.4424150787766 C92.0853188250631 140.39219306092428, 89.10770754480656 137.01196521305607, 86.29783490717163 135.29141247403115 M94.87394901946699 144.28379258704436 C92.09457509254554 141.0280050676484, 89.6797285560212 138.0712822293586, 86.54907187677672 135.79117228124528 M104.53553802595813 143.02950905104234 C98.55360791307912 139.76518647904257, 96.03929187332814 135.1723339765078, 85.67667931705466 128.12464056316242 M103.63224568256516 143.40480112907542 C98.91024473941195 139.85875149405544, 94.89537744719993 135.88090061743944, 86.73264156035832 126.87808707396911 M111.17812528455796 143.14185305376603 C105.58601910652868 137.85203465063105, 97.46520019320637 129.48672315880225, 85.63171698242179 118.86250412548543 M111.90873743402007 143.72091973898065 C104.50297642805306 137.11159714109112, 97.57765662017154 129.69617659182322, 86.94955269746235 118.9103048485762 M120.10819652142929 143.19331219931198 C112.92642678397767 135.54619048499777, 103.46961227745423 128.8439175186202, 86.66874546199791 109.5789603696932 M120.98495033110487 143.37645904895916 C112.84725812164285 136.2753196032073, 105.97168391785841 130.3160480088665, 86.32772062472753 109.5690404912253 M129.6837351350096 143.8005124642427 C115.12135621446483 129.93559260574833, 103.5291064960173 117.33534628047403, 86.4543419042205 100.41954152234825 M128.9391192371008 144.04650450822962 C118.65994995377484 134.14132545145335, 109.00443969790963 124.26782291367438, 86.79733333043507 101.75867632613513 M137.0275682737364 144.1527360751207 C121.35507344173008 128.4452357337132, 105.28612336026174 111.0676161328204, 90.02335433227327 95.55586318475926 M136.9233071402891 144.16356344101084 C124.82118091184813 131.68657587880455, 113.89605370060818 120.11924450210591, 89.10333405261245 96.05694367727065 M145.60236683604714 142.83692150850845 C132.78202218105335 130.1714319717354, 118.14482725929945 116.96019735233438, 97.72547451933988 96.3821972082349 M145.97590515395103 143.90506504652157 C134.36367043781505 131.8932327359757, 122.10689929315346 119.45590980012301, 97.58949415428707 95.27399574359679 M153.5856454703794 143.46266349096848 C137.47370941238472 128.15348062550837, 123.5465281930874 112.74562976471627, 106.71495661436552 96.25519031984531 M155.03413251636786 144.1808603989805 C137.95296781866583 126.82338642148999, 121.13457500458914 109.47273969830226, 106.12563174924784 96.15462622483993 M163.84476257517068 143.48721299906327 C147.07364202153255 126.6089668698423, 128.2308312952871 109.61103429262943, 115.8677527657876 95.460999746153 M162.54653659082084 144.42072244760647 C150.51833222814062 131.84300226177007, 137.78609430689227 119.83923507130324, 115.06224732577599 95.30790494521881 M172.3119202988584 144.64047725935535 C154.87211274177395 126.68102999499672, 138.80655002286787 111.24150845002558, 122.8996588720437 96.38343896372044 M171.6854928655912 143.96184601661818 C159.9247253861823 132.24528550487443, 147.93258547489597 120.80554897207472, 123.58616949715278 95.73782360395217 M180.35916453988008 144.15001974840715 C166.13326261051753 130.46922638327436, 150.3896966348598 114.56191734082888, 131.94131458157128 94.72897769911016 M179.9597049539601 143.43634780523433 C168.1634347752339 132.73170436348465, 157.0805740132509 121.66416888550584, 131.33305500165946 96.2307957752588 M187.9733849466733 142.76606019278123 C171.4510974410026 126.72014615403043, 155.05377446200535 111.32178610189781, 139.51320329280782 94.75174192888463 M188.02670459420898 143.75876638767375 C178.8417288612323 134.49964610245058, 168.32573151912297 123.50166645767553, 139.99988870257724 96.34315690835739 M196.53131491767547 143.1864745690401 C180.97000388958162 128.01332905764522, 167.97787422026934 114.80879604322493, 149.30065215419089 95.67851387960637 M196.50535164961897 143.91356221315516 C186.18261814935775 132.48657618812638, 175.8500348279219 122.14025473516737, 148.95748358818744 95.38866432746673 M204.37453160132415 143.6817951037462 C192.81545801293805 130.38817251281046, 180.5383539177352 118.5366640349019, 158.12883206415788 94.93373202783789 M205.18833410847134 143.54261760589733 C192.56446707743874 130.95365278143018, 178.57542822082146 117.43545297224486, 156.86298077177125 96.22599723180558 M207.31338808419133 136.64914246159663 C191.78636879671222 123.90461486051582, 179.73915722209222 108.3438005999675, 165.9377576711464 96.16449110014165 M206.3836002721819 137.26166895325352 C193.8167575095528 124.79348830709256, 181.73542541756925 112.05968669930857, 165.6723494916099 95.84625669559264 M206.8010032642069 129.23621561864618 C197.57235781969814 120.02679773807134, 189.9968065880411 112.1446857516383, 173.7572873735939 95.66554207308019 M206.3258486285242 128.64679657893484 C198.53200148597028 120.86319831024414, 190.78855181889955 112.236866071953, 173.85288711098477 96.36046566804673 M207.73769910218144 119.99572911383052 C199.06489278181738 110.05466949705207, 189.89582005932752 102.40575568531355, 181.6821233199379 95.204292173216 M206.21846510315262 119.45136199453313 C201.61890872806217 114.73131987727137, 195.33355008418164 108.85134236456305, 182.79571911817698 95.58706897338654 M207.27442774655245 112.13884017371211 C203.37630136134862 108.30652670990806, 199.97488769585 104.49510685506311, 191.64681140861586 95.64580487711157 M206.67445018434844 111.42193502426719 C203.36794226120105 107.51856385613091, 199.20797223526685 104.12169667157399, 191.22829912646785 95.63943331083084 M206.50093828210558 103.34362048305381 C204.3415024849118 100.5888744623568, 201.424496087051 97.71005878696151, 200.16478247232675 95.60980539535902 M206.9715119769233 103.00644302930493 C204.38217077244286 100.40564560212933, 201.30925773875848 97.66576447314235, 199.4778662653634 95.87757906699352 M206.44603170554137 144.22063496112526 C206.44603170554137 144.22063496112526, 206.44603170554137 144.22063496112526, 206.44603170554137 144.22063496112526 M206.44603170554137 144.22063496112526 C206.44603170554137 144.22063496112526, 206.44603170554137 144.22063496112526, 206.44603170554137 144.22063496112526 M206.35128977592086 135.88766887551978 C204.2795646157995 137.00118146846432, 202.828585030149 140.20944003055524, 197.89998074608081 144.09198670968115 M206.78962311956084 136.03649972050323 C204.56898625611478 137.13074692761114, 203.06540266893492 139.0905134142661, 197.68900958771044 143.98320101327897 M206.95638484383917 126.50641098557087 C201.9188724562623 131.24627904561936, 197.20078473370597 134.31124367552434, 189.08033558317788 143.53754409327806 M205.97221095251834 127.44850303804547 C201.2380291421816 132.7757135573819, 195.45021156819266 138.1908708759387, 189.3674569890029 144.37492467276454 M206.07709099675512 117.62783701737628 C195.50531480410734 128.91298678608274, 187.82181599129328 138.6102692445267, 179.93644136161112 144.4367907144099 M206.54903076576983 119.03242712673948 C201.10775598673428 123.77696396066179, 195.43671291916593 129.3398426224074, 181.23650282852853 144.50386028401252 M206.6652615966926 111.12558522325399 C196.4887291204048 120.81999029145595, 186.38612762062255 129.66461030014932, 172.07639342300337 145.07996204867658 M206.16761274027624 110.71763714988174 C199.28885251285354 116.98794506023154, 191.34048146405243 124.78385849031923, 172.9229089738403 143.63211649767754 M205.625755042089 101.41940657976647 C191.3167775669887 118.50676275833942, 174.47651084996994 133.8911109725506, 164.41364391579208 143.91571532264055 M205.95775423931872 101.35265605669102 C192.59426336896755 116.02564188219294, 177.29711585933944 130.91099949771703, 164.4584259132194 144.38751313797832 M203.2998463566357 96.03013543822239 C191.1672023142766 108.80336810013411, 177.84310239228265 120.35994063260169, 155.90148873841474 145.09036401286423 M203.54465362643245 96.72185579613219 C191.48232119718415 107.93277749801224, 178.66588514136436 120.55680232183742, 155.31113225994716 144.39279190413356 M194.66865431402402 96.77626239993045 C179.04943531713812 112.88678448833794, 163.19138877945488 126.96452287477602, 145.90806753930895 144.87287784591015 M195.08983739015238 96.10453019217023 C185.2935709617757 105.76468621767293, 175.78029665223832 115.87738889482507, 147.19793475230483 143.65311637036203 M187.81342281218383 96.91365294196078 C171.92579012884585 112.43738608202626, 155.44459598158727 126.63681944132098, 139.39136371691214 144.4798827983409 M186.58894151825223 95.97711356953153 C170.57167955337704 113.02394240246134, 153.60851459244685 129.04458626811567, 138.49706825357364 144.74357198588248 M178.14838524955266 96.10268304087589 C168.53443193000936 105.58318965821624, 157.31336426180093 116.34487202674207, 130.47420441966176 143.70066109671887 M177.74207587401324 95.94281637743482 C165.30480341186146 108.93663452337843, 153.38903210143317 120.92789621314022, 130.6605957520348 144.5966660749137 M168.8526187745679 95.57638492323824 C153.47075384572474 112.36104085728131, 138.37341360742272 127.95769940918196, 122.0192605459954 144.12215121760664 M169.22317844571657 95.66227094009884 C152.74469244551747 112.27185016858097, 137.33361429155488 128.43014111398642, 121.42690836096958 144.28982783667442 M161.64504428566715 96.56544706561039 C143.06837527019084 114.2742142985417, 125.72407897323973 132.62536064737267, 114.00404674435052 145.1539478875667 M160.69251534664355 96.24103145674238 C149.89834364159375 107.61142399262997, 139.74956774170394 117.72659603357204, 113.63322531865927 144.4329083453834 M152.35942643128791 96.32321419455478 C139.00707156057538 109.75348648605345, 125.42390687676985 123.61236108502011, 103.89592141316461 144.85330208316145 M152.40918081507544 95.61707400158414 C139.7082720080295 108.62346729469107, 128.00084396005613 121.15768577082603, 104.82809398838509 144.15568055025932 M143.31937360986763 96.15068728663394 C127.81811228080825 113.24439427191867, 111.49026944000809 128.29063501616122, 96.6270867008752 143.1501210309535 M144.44359721429342 95.9482965238429 C131.5264573093802 109.2886190295744, 117.97929755479795 121.45792443692766, 96.08388985842828 143.695339275521 M136.51333796984383 95.02152356841037 C125.61126125930161 107.08763809146197, 115.40390136578483 115.24241200170239, 88.16958850591979 145.0719682075053 M135.8900150325788 96.6000188477374 C123.63802529157925 108.70696648938679, 111.07580887645538 121.31539471939104, 87.60931654207012 144.5840012203872 M126.76961540965404 95.20703651644656 C117.72894504609309 105.26967248627562, 106.46945519971183 114.90442058766178, 87.38138428860131 137.69799552751394 M127.67901288321282 96.7324826724864 C110.56723826158232 112.68240774831256, 94.40399560681445 129.23838931757018, 86.2329735894573 136.76513714721114 M118.93134557773574 95.90119585730503 C108.60012950036634 105.11674291435098, 99.31686502572552 116.0144380072779, 86.98235319786492 127.5829332170342 M118.18999750447674 96.68835157230863 C109.4172233799335 104.47554537702106, 101.3904570818428 114.05778862671089, 86.01686661437873 128.18006175470398 M111.43151187252639 96.44562756754823 C104.33261603003331 102.13156812296674, 99.30688865865949 108.03472660090793, 85.69985881977502 119.81152706500174 M110.86370375965176 95.78021099642284 C103.09947348276982 103.55592707542972, 96.86291520607942 109.82066127832861, 85.63947004274252 119.58487092945757 M101.46794144246353 97.15461387373874 C94.80395361432896 102.0725859051723, 89.92101636564828 109.5322828737016, 85.81532205276909 112.05196554797907 M101.41469463701917 96.07806826904783 C96.63961461620522 101.23726861259159, 90.69453942477483 107.28692964233987, 85.97979998782995 111.16636887069066 M92.94362595083923 95.73873354643949 C91.99527905763392 97.68823129678759, 90.36743258173166 99.2785360017548, 86.78144322455648 103.60176752241705 M93.57640398277701 96.36711321492113 C91.34554868304235 97.93235749043532, 89.58965107023779 100.02748344720351, 86.47678979587529 103.07611165246372" stroke="#ffffff" stroke-width="0.5" fill="none" stroke-linecap="round" stroke-linejoin="round"></path><path d="M86.49538280392686 95.95666168704629 C111.48404101903239 96.36707540675998, 135.19667613233128 95.2950719229877, 206.9143530788521 95.27080260291696 M206.3098693149785 95.43503666147589 C206.58395579566758 108.40266030952334, 205.73661127795975 118.68522765263914, 206.47376837904253 144.6067580960691 M207.31071175957717 143.10067988410592 C178.58479882950584 144.11969719085099, 151.21408838356533 143.074438549608, 87.13532397175828 144.15677407756448 M86.18109316999713 143.28174226507545 C86.09021564354697 126.9697254113853, 86.14669116368094 110.53356533870101, 86.44317109758654 95.6453849337995" stroke="#1d4ed8" stroke-width="1.25" fill="none" stroke-linecap="round" stroke-linejoin="round"></path></g><text x="146.66666666666666" y="120" text-anchor="middle" dominant-baseline="central" font-family="&quot;Courier New&quot;, ui-monospace, monospace" font-size="13" fill="#1d4ed8">Build</text></g><g><g><path d="M233.44336196330354 120.11002862997022 C233.44336196330354 120.11002862997022, 233.44336196330354 120.11002862997022, 233.44336196330354 120.11002862997022 M233.44336196330354 120.11002862997022 C233.44336196330354 120.11002862997022, 233.44336196330354 120.11002862997022, 233.44336196330354 120.11002862997022 M248.24724513762632 125.46289749751664 C245.29371251308112 123.34260187006248, 242.65288000496787 121.53784451053173, 239.73936057344255 117.41903427751774 M247.82089105476626 126.12496375991827 C244.9990687768809 123.30852109332115, 242.3538552469421 120.57049311073416, 238.85621602785017 117.62867398833895 M262.5874881268761 131.88039270540762 C256.7550857956557 126.44514787126187, 253.66448286194608 122.63674024337652, 245.891588218946 116.31547812901285 M262.13254961178666 131.54333082245725 C255.29608471909148 125.3120749162817, 249.539703711905 119.61121853248919, 245.37553158390148 115.34564789522287 M276.365582577149 137.70576295898553 C270.98958325004634 131.58236636401742, 265.3912277852629 126.81727203147427, 252.18810574767562 113.0288751902956 M275.96150080134214 137.07436298680747 C268.4374066524789 129.60037520920596, 259.86130820853 120.88912565317746, 251.46485932023646 112.80057627493174 M289.97490299482905 142.23980592679683 C281.7177257128009 133.36554845591792, 273.6895311610422 127.06916621437803, 257.00050271653214 111.40305449321892 M290.3900337093424 142.21452620126757 C279.9499574519144 131.88705570606132, 270.08107522630723 122.19262739461965, 257.98896546062656 109.88817467551704 M298.1884634468936 141.24349954300635 C289.6403387817522 132.26414945209967, 280.6110885322651 122.92290429237246, 264.242858410545 107.0705279399997 M297.9715396000304 142.51248760898673 C285.6830127572678 129.5863564041688, 273.59546435332294 117.77181957735328, 263.85734554986686 107.57923014568001 M305.24025212430485 139.65051461576368 C296.60727527716415 132.0485306630582, 289.6175225417162 126.69577364847362, 269.8105906149972 105.43186468310857 M303.58386042413395 139.9667556645989 C293.92632608932126 130.44345667765566, 285.4732212856031 121.02704562574947, 269.330560195506 104.68348542187566 M309.8313821559056 137.24836564109916 C303.38319068902774 129.93318638916426, 294.1386558412917 122.82759199495763, 276.1998098649183 103.35004537476242 M310.0916896327614 137.35058094811882 C296.58764197251986 124.5919099394585, 284.0854209719117 111.81886125206366, 276.2958393173391 103.18774317780525 M316.6423390767251 136.06565827122955 C304.98470948221717 125.69418547263828, 295.32625345912186 113.81472498730088, 282.6129651955912 99.13110791743183 M316.71506964570773 134.44295363324758 C304.4572812593535 122.9048962241258, 293.87817449391684 111.52740859502264, 281.42897789791465 100.48026177492375 M321.35994692204645 133.27405540862557 C311.5597873821318 120.9222847980352, 298.74214756601117 109.6719622054635, 287.57819839204546 98.21850171333372 M321.51260794552167 131.97431958144034 C311.8499953778644 122.48960181595088, 302.16534901418606 112.69766154844487, 288.469940232028 98.28885951193243 M327.6967224768991 129.28263145550397 C317.73973176284494 118.64265718847945, 306.17806510160483 109.22005228814172, 293.4549897395641 94.3737334149387 M327.65708132699825 129.76468459139824 C315.6191818017664 117.74877793209333, 302.55030645595997 104.90850765401682, 292.9847556772277 94.90531037528629 M332.6965210265662 128.11851806433552 C327.77641997656946 121.53582798399748, 319.42344930803716 112.93724271528363, 307.23168686622853 99.94889576751562 M334.1973316476862 127.34801014957631 C324.84030628890883 118.28057072034281, 315.3691049502942 108.2323573077344, 307.2192974963608 100.70162288173857 M341.353890606077 123.921258387337 C336.2964611213033 121.91614076959719, 331.5326888411505 116.25081287974126, 322.40373349545644 106.83989636166974 M339.93387007738056 124.5103176796758 C335.840694767761 121.78428114106696, 332.91798129204295 117.53859421135034, 322.23376161011055 106.52701883087889 M345.7152301372139 123.45753364480335 C343.0938514802521 118.56028563065956, 338.76547464805344 115.79295503521432, 335.16780157126635 112.59814491216311 M346.8110214606503 122.70050724443283 C342.8051906663951 118.96613284554262, 339.29222780653583 115.43771458771985, 335.9067369345125 112.04706416600601 M352.0997932840733 120.1452913282965 C351.4898752360481 119.15229336212475, 350.5366365146382 118.29481365460613, 350.03192429680547 118.05439054481167 M352.23789884818143 120.15897639128049 C351.64490660441714 119.41025507203801, 350.91600355725296 118.69729081054605, 350.1521077560185 118.0301502157044 M353.339285562447 119.99404777088635 C353.339285562447 119.99404777088635, 353.339285562447 119.99404777088635, 353.339285562447 119.99404777088635 M353.339285562447 119.99404777088635 C353.339285562447 119.99404777088635, 353.339285562447 119.99404777088635, 353.339285562447 119.99404777088635 M347.3062417632645 118.25840899118465 C345.3850542938688 119.35403305900765, 343.425606646146 120.92847556642589, 339.7617039064862 125.8354802551742 M346.74923918882627 117.60713828342278 C345.1346592853965 119.74390632154997, 342.89555588179377 122.23529005104226, 339.01557368983373 125.5837922210216 M340.9251817328674 114.61273181372933 C337.1065402631957 119.32239973400036, 332.4813856434028 123.78970199020688, 324.0408079327254 132.15147821061205 M340.7463307343242 115.29618113478324 C337.5403233957793 118.4810769956774, 332.9973417150341 122.41172051495408, 324.81120163008404 131.82564341086785 M333.86631366874497 113.43400012134997 C325.8782326932697 121.78994010029774, 317.4807357167897 131.45123388311313, 310.91778238065353 136.0706015159478 M335.066347325439 112.65864239718256 C328.1306086357029 119.85035493870903, 321.7189199989908 126.57174215711676, 310.5900139574315 137.56104416652673 M330.20079544306014 109.58677820967368 C319.7279150075613 120.97393597695586, 308.14102785160355 129.54451129667092, 297.4786195147388 143.72544831676692 M328.9125165275133 110.67524584842704 C317.2327855702068 121.51042179539984, 305.3169528636395 134.3916812330768, 296.9178708938487 143.02876933167042 M323.72287296609596 107.23248423091735 C312.55335327880533 119.84248197995242, 300.0810544215125 130.13535254592446, 288.19613046331665 142.65512154723427 M323.11785988559586 108.24607541221793 C313.6981693341467 117.67429055602642, 303.8492372639151 127.51869391303175, 288.7151482649367 141.36342354944816 M316.4399848978818 106.12559358755162 C304.3610086016995 115.90716585239946, 293.74872984160606 129.71264205359398, 281.87668348073726 138.87141701549945 M317.23581825698176 104.99767070001026 C310.6543436416347 112.32516643845493, 302.921849406942 119.39811792183541, 282.8492555848113 139.49945277449396 M309.87840839870086 102.50799318179334 C298.51585126021956 115.79352516023958, 286.5158572275489 126.51383455393317, 275.7790531334703 137.73997421759267 M310.5021475617196 103.02113126050526 C302.3362663163286 111.5304570580357, 292.54992995556853 120.75780303564753, 276.50973524220785 136.8960450868224 M303.3955065973958 99.79673394729969 C293.95803970394576 110.22256695128135, 286.49648614744405 119.50479597622794, 269.6271728317991 134.56752380573084 M304.40341625091787 101.00361911134448 C297.5901124343366 107.4215520287173, 290.4744112652486 114.97500658907121, 270.0772650321752 134.96812816013477 M298.6209082478096 98.74285119272794 C290.1850639833651 106.45550434504368, 283.01938683308265 115.33420925869288, 264.90816873575295 131.5038536823847 M298.77443496318506 98.43092908266956 C288.4155652714546 108.55857899998331, 276.49300869825305 120.25244914511482, 264.6779420620083 131.43208535588613 M293.80479416641185 95.28307816410829 C280.0355899408362 108.31202583411635, 268.4319338565156 120.13180416422541, 258.57800550561495 128.83616324977092 M292.8027929622565 94.88295237949511 C282.55217847743876 105.8978289188162, 272.24865256899324 116.78366998610562, 258.3451785017559 130.4438599727776 M279.21643620162024 101.34130707552312 C272.17123463575354 109.5458817025229, 262.0326110750878 117.03321417889916, 253.37373377022791 128.47681594154685 M279.28364710631536 100.87888761238781 C268.2704733701969 111.33351471622238, 258.44222056140813 122.0731506770192, 252.18819905252653 128.33045777845084 M264.85543457532964 106.9173517675776 C257.94846627820584 113.28705233325745, 250.7585060876977 121.40655029689792, 245.45466978343464 124.12215956636958 M264.5872091895222 106.20975345593729 C260.6431874570462 110.48545522153884, 257.78177800301603 114.24600722699117, 246.48947060292846 124.99251735304735 M251.6709808927466 112.63918716704518 C248.04785574395842 114.83235198604021, 244.6836681684519 118.3295586750874, 239.78323145353858 123.56412871250015 M250.96843943707353 112.26058037306228 C247.30170867486947 115.55893374150556, 244.00216598508356 119.14814019910611, 239.90214905728277 122.73577904848445 M236.7536572447481 117.95492199742478 C236.03364014016458 118.61213323911214, 235.15477559180866 119.38763609503948, 234.54437996661719 120.14705365139493 M236.70723763525172 117.87395199815055 C236.11543089132314 118.57926259011516, 235.46581080417147 119.06586801261689, 234.5413180164011 119.94365477148877" stroke="#ffffff" stroke-width="0.5" fill="none" stroke-linecap="round" stroke-linejoin="round"></path><path d="M292.4764075392236 95.33499253056944 C304.7303728704353 100.40648437106609, 316.2985163346877 104.79880282768607, 354.3048629516115 120.70620390437543 M353.3981373058011 120.95255499221385 C336.6325742244919 126.76515545842052, 321.91821691507596 133.45167025995255, 293.6439859018971 144.31013714410363 M293.6994009726991 143.25101982615888 C277.7255322362026 137.85283916053177, 263.8198817028393 131.42478514444826, 233.43631929097074 120.83516111634671 M234.40497308832903 119.52261339761317 C246.46148902045684 114.34635455900431, 257.6574381625106 110.21660879471898, 292.3980899797131 94.86807740069926" stroke="#1d4ed8" stroke-width="1.25" fill="none" stroke-linecap="round" stroke-linejoin="round"></path></g><text x="293.3333333333333" y="120" text-anchor="middle" dominant-baseline="central" font-family="&quot;Courier New&quot;, ui-monospace, monospace" font-size="13" fill="#1d4ed8">Tests pass?</text></g><g><g><path d="M384.6351129575494 69.32744056421413 C384.6351129575494 69.32744056421413, 384.6351129575494 69.32744056421413, 384.6351129575494 69.32744056421413 M384.6351129575494 69.32744056421413 C384.6351129575494 69.32744056421413, 384.6351129575494 69.32744056421413, 384.6351129575494 69.32744056421413 M402.383883456645 77.87905204202886 C396.6516375288692 73.78380556531995, 392.124307854937 66.40749870709217, 380.95931951880556 56.48304483255244 M401.3185958017981 77.77866492699738 C393.70814035853715 69.49697088628683, 385.83030267274637 62.279680600016974, 380.1228627021621 56.27604863529897 M413.5028486563262 81.80935060975054 C403.71073256446624 70.86635992285994, 394.8905553381064 62.90094391552476, 383.6872614619239 51.46166035367228 M413.30737828224864 81.85892351192335 C407.4108740617768 75.09310998891719, 400.84657658831895 69.46275926800757, 383.9365467612549 51.11234435794927 M423.1451300480923 82.46854093108055 C416.7946192586849 76.14127163794257, 408.2059948756334 68.84835390848602, 389.378008581185 47.12027770620814 M423.36422869428606 82.97929134923695 C415.9123154487649 75.22014776989634, 408.2773076340618 67.60435129514386, 389.31552699380484 47.871573277982385 M432.9831931474414 84.15086586526702 C423.1009963710957 74.78822649975427, 415.0969863334018 66.26120058147563, 393.5334117673405 44.591900124662025 M432.5410314987209 83.76592047787378 C417.32852159885437 68.9147304172651, 402.17251293442416 53.648500414562754, 393.3418544858762 45.13036655958782 M440.4206024074984 82.31604220918484 C428.0480630221786 71.17704306073746, 414.76367499353887 56.39437364858337, 399.27906153588873 42.367645468281964 M441.1903013439906 83.25340562439628 C428.3444170996904 70.68828009110001, 415.097088005896 56.510037215185825, 400.0158511982797 42.341438741701104 M448.8562347813884 82.55347425970916 C436.94606442042885 69.7857279151406, 422.21716485644475 56.229863495962405, 406.15743377758145 40.98989197156986 M449.5543966285328 82.72399776536707 C433.2302111674963 66.24902277078792, 416.43205153762676 50.48143464932598, 406.5742557170796 39.80173348851165 M455.641386503423 82.83936059490136 C443.6263316187313 68.13760400615978, 427.9967162485519 52.902047340356596, 414.32763722673025 39.15202571258726 M456.44762628197145 82.43971090853503 C447.55175120773106 73.7224369289489, 439.44845468880476 64.21681244333256, 413.61497072190014 38.42717105776849 M464.3155595267271 82.47248051163659 C450.85569367283955 66.08933515484779, 435.1122974225041 51.11385319970893, 420.27987955527357 38.112906707022624 M464.21703620274417 81.05310853046284 C453.9872293338462 70.51619565257955, 442.0219234775297 58.894715088850376, 420.73652907999207 37.04211439484759 M471.8564615232392 80.42419402560317 C459.24235532848076 65.75558318415547, 445.27521370787275 53.58616848081435, 428.513894497523 35.67529603293751 M471.91740925810177 80.03230357652629 C455.6843772712803 64.52138159571322, 441.05861239877896 49.28808550945151, 428.5415209709796 37.23279625749801 M478.9442194460842 77.50265543367627 C461.9584154628799 63.458407954644905, 447.09145101178126 46.47806507413343, 435.96051472541694 36.1074287060204 M478.3004788464818 77.50017202328803 C468.2624798316124 68.15209029383391, 457.7286466089035 57.435297085391994, 436.1831667621136 36.54389209109573 M484.4113795295738 74.70281331391729 C475.1674405012245 67.56639295335164, 467.56833759105615 59.90501329834067, 443.66009897326694 36.921440804332775 M484.5899288975083 76.25935287849701 C473.8412040068755 65.26044704622764, 462.0601265104487 53.32034602647009, 444.56874413301813 35.73194715338973 M489.57158694564646 71.83509018201468 C477.1160442851906 59.3084697588911, 462.11100737966746 46.05758982434583, 453.89121169419803 37.102049124749676 M490.3350735284323 72.89592783752916 C475.3512943446786 58.853304631327404, 461.5287511528419 44.068477112937344, 453.41326773213063 36.26905617094256 M494.79090614742694 70.39670283484354 C484.88647693646226 58.57587179291851, 474.76068495359266 50.089127528096974, 462.2206230601487 37.856551182959514 M494.7071773876911 69.12574162694706 C487.78009282621014 61.99800425953121, 479.3481243219717 54.29673085989177, 462.81448917670224 37.56786333913012 M497.323607306854 63.30744878809226 C493.44694552183057 59.41194611435931, 486.4842015817183 52.444722670615505, 475.39594964899004 40.40746590058357 M499.06024209253593 64.00518844212664 C490.4443706362086 57.00983284517427, 483.34176159798693 48.70057607707893, 475.4705377399165 40.84920300926119 M501.3812289160706 58.54188228395462 C498.8090481868759 55.55821496549641, 495.4221512681175 53.55267829148897, 489.15705262076017 46.837177347897075 M500.37630084755193 58.45908682075024 C497.189982753907 54.39585379903527, 492.5366658575217 50.10183663867299, 488.88446534585114 46.53683021461823 M495.14746088471975 69.4691786104182 C495.14746088471975 69.4691786104182, 495.14746088471975 69.4691786104182, 495.14746088471975 69.4691786104182 M495.14746088471975 69.4691786104182 C495.14746088471975 69.4691786104182, 495.14746088471975 69.4691786104182, 495.14746088471975 69.4691786104182 M499.3849360619595 56.996929151415806 C492.17568565999954 64.59609983618775, 482.9660595031998 73.52629102594639, 478.51811138193244 77.4590426803197 M499.8284180146565 56.3142677901685 C494.2978809530067 61.3268501078366, 488.6496197519498 66.95536223967962, 477.9114324736142 78.46145924856916 M495.8269710208491 51.67385552458643 C483.52411625618885 63.84790369917684, 471.91838877060377 74.76264836615842, 467.0770111154459 79.75946072417906 M495.8240715238467 52.112235723512164 C488.2579055986575 60.52269742895696, 479.28751701298614 68.56758743369565, 466.8574537176333 81.10431091192774 M491.46896020301017 47.05817630729807 C483.3412271028698 55.98416693590496, 477.9675321005181 62.69517501809067, 456.6932472751019 81.02942222470827 M491.3788841208103 47.795612440176136 C482.9995009885925 55.39990544367242, 476.50494332679983 63.099543137813725, 457.29025551010943 82.41393427292294 M486.7083691239408 44.69070723405271 C472.03659196121384 57.91568570085669, 457.4804343896196 71.45229600072238, 447.10077753283906 82.19825075996893 M486.38224026635805 44.924622854349906 C473.7171320564159 57.21952219923978, 461.1219873379479 69.39915368833762, 448.23649571829367 82.4507808393039 M479.3666554555794 40.813271882911906 C472.4220484298944 50.913986386421286, 463.4006237765149 59.74884716650979, 438.0288720605957 83.52495740802257 M480.51704782774056 41.403468473782524 C466.7306966771577 55.73463072004501, 453.9642242855468 69.12632474556705, 438.0126759594368 84.12295836881964 M473.2605893698644 39.39738133193708 C457.0294073421071 56.43085457016185, 441.96273512221796 70.9087900651975, 430.57343387386993 83.22692040337103 M473.356058422209 40.98400705622292 C462.53353836147875 50.113810328698165, 453.07454959617166 60.712583716197656, 430.32146194434955 83.4899105256595 M465.8806806634806 38.065807034443736 C449.5075571119207 55.251703441968985, 434.35327800216567 70.95491672530797, 423.8972513634137 83.17963260526247 M466.3652945417605 38.0623254846741 C457.8645944182156 47.32316682995076, 447.45994971837905 56.8684872652609, 422.47693600909633 82.73716434875914 M459.7701109459931 38.31364863086647 C448.97423422110137 46.196423823469345, 441.06397438629006 55.30813248030213, 416.3226389823521 80.62406081057192 M458.60798174127285 37.57480757925814 C449.1534692868432 46.94771820714842, 440.59915476405234 56.542427703694145, 414.82223780211456 81.95868956468107 M450.3529082329002 36.08015935570713 C440.1694004780936 48.108043572896186, 431.861546698005 55.75970457344381, 409.38143724618305 78.5166457538012 M451.2977232315567 37.24495950416442 C436.62455052198084 51.66304557845456, 421.6026294781148 66.73640895935674, 408.7045642842148 78.78189858761463 M444.2341994773268 37.04849350584074 C425.7026566231017 53.82278806162838, 410.84119860071064 68.83525545291593, 402.11526526447193 76.82904957538503 M443.22375241104953 35.75815723595544 C433.6491249830125 46.09458766772586, 423.0803053998544 56.84972507620133, 401.90042226027504 77.74239398768205 M435.8644241323979 34.381492878142346 C420.7460660665609 51.29514442616204, 404.39382462633125 66.84544113372566, 394.996588552717 75.82708800982525 M436.1401464281888 35.772433001193754 C421.8528173754417 49.5077028780481, 406.46904837255636 64.34899331953204, 394.86169619110586 75.63790067907264 M426.97512058886554 37.28590033186003 C414.38055005005526 50.02955156324373, 399.34090583602807 61.92914069304238, 389.7360783452296 71.46337107281036 M426.5266126190391 36.55768883881494 C415.03854714693944 48.27112207880238, 403.6755463253246 59.111676077297076, 390.4480075063312 72.59590660716242 M418.0715668622276 36.31971910149568 C404.4669259582005 48.65358403756567, 393.62626318922315 62.60592512075201, 384.01129125157524 70.24862340477496 M417.4061291944107 36.578055913008384 C408.66345879742937 46.2112164323442, 398.91604834879286 55.41753992114186, 384.980394260829 69.0199830920735 M405.41171278086307 40.013280608670485 C399.7354323407114 45.988783349883185, 394.5646129124167 52.687858240824404, 380.8948438496251 65.42350967784796 M405.6488774279952 40.187962325082786 C399.7812592231799 46.53712253624763, 394.03016629178114 52.10231649608879, 381.19448572778293 64.63661023562227 M389.957770639261 46.9162521389162 C388.7849957551662 48.47521460572133, 386.3964019148842 50.64308189876217, 380.90219011133314 56.76816865012048 M390.5815138084942 46.66277419485504 C387.3468771632033 50.58961054319342, 383.7344308675937 54.03098883800965, 380.41995291052166 56.77624827794729" stroke="#ffffff" stroke-width="0.5" fill="none" stroke-linecap="round" stroke-linejoin="round"></path><path d="M380 60 C379.7727508738637 79.33264088858841, 431.1133233740926 90.45480482073603, 468.8002157881856 80.40092119775355 M470 80.78460969082653 C488.01166866121287 75.79279543629943, 499.74160520583393 68.39926496655706, 499.1916110232472 59.85570316761732 M500 60 C500.48640529662373 41.59486470888377, 450.9093722060323 30.283543386141673, 410.1042297080159 40.087625945586566 M410 39.21539030917347 C392.2501388192416 43.516093580209635, 379.64011070281265 50.40936131267784, 379.21468317061664 59.97132883518934 M380 60 C380 60, 380 60, 380 60" stroke="#1d4ed8" stroke-width="1.25" fill="none" stroke-linecap="round" stroke-linejoin="round"></path></g><text x="440" y="60" text-anchor="middle" dominant-baseline="central" font-family="&quot;Courier New&quot;, ui-monospace, monospace" font-size="13" fill="#1d4ed8">Ship</text></g><g><g><path d="M380.0351006300441 204.03510063004416 C380.0351006300441 204.03510063004416, 380.0351006300441 204.03510063004416, 380.0351006300441 204.03510063004416 M380.0351006300441 204.03510063004416 C380.0351006300441 204.03510063004416, 380.0351006300441 204.03510063004416, 380.0351006300441 204.03510063004416 M388.6632945886024 203.52845832680086 C385.93137293940686 202.17168855589168, 385.14704170073253 200.3808158981881, 379.66034123112183 196.258873876295 M388.1927044505023 204.39190209747025 C386.7259854706891 202.45414913647076, 385.0600379539214 200.15351086528938, 380.10843365513455 195.88827339433038 M397.6387549053723 204.79619325746518 C391.3954631230161 199.3469203273071, 386.60084184818174 194.15595789551324, 380.74745225582933 188.18986616048107 M396.8805240468899 204.2344234525479 C393.0841114636959 199.81861849028334, 389.8351683325567 196.66221639813415, 379.4873578640885 186.57348243749777 M406.317300990514 205.0770532642744 C397.6888261815798 196.004297892576, 391.1691165473604 190.07335681209034, 380.63504641924715 177.7624471276465 M406.04383136416925 204.424719977311 C399.68789792355693 198.79878853099777, 393.90252046521096 193.5881592191858, 380.62963570684855 178.18194893537344 M414.71455702133454 204.0057011281393 C403.22028227500266 193.82950514084365, 394.5605836577804 184.85616037398603, 380.82761761818745 169.68150979952378 M414.2064415455235 203.5635682522572 C403.25408287424096 192.39529798428666, 391.65337246417073 181.88534409782557, 379.6750555250115 169.956710103354 M422.3254814939274 204.32370179046612 C405.341008629288 187.5774064514802, 390.9309470816463 171.84735338677157, 379.0916087237439 160.71088474251928 M421.96394174915537 204.0386819004334 C406.00221160332444 187.81192732097674, 389.7487173379 171.6134523507679, 379.6490872892804 161.95872175198645 M430.35714227938655 205.2042608176611 C415.50603532643754 188.71944061114013, 399.37529068310926 172.9170221692508, 382.57149910675656 157.03697027278537 M430.3964894457683 203.73132923238646 C414.6238521242162 187.7369384031107, 399.93601243232195 172.64358829756975, 382.9714484076045 156.18967150406382 M440.26621662380563 204.3147244011305 C425.22175917462965 188.572804574196, 410.262076318519 174.77802247396758, 390.2988775130653 155.5028053314744 M439.1000624185653 203.68508324616323 C429.0142805097753 192.94650683141742, 418.20565709639544 182.88650394005984, 390.8589266004333 156.03230166987913 M448.69649114827837 203.47907935728054 C436.23970741573726 193.14457843276543, 425.4717110399051 181.07490795319637, 400.0446606892715 156.3852881105005 M448.4177087632495 204.37457162731062 C433.7916539513711 190.37314344265062, 421.1956285885905 176.44648330709248, 400.0713485264773 155.83387787298702 M455.6163618488987 203.54045312751748 C443.5654173971801 191.22169473684173, 428.9083472539776 177.57681996622068, 407.7987290064689 156.79981167626968 M456.27079688802405 203.77422674887546 C440.31376388425326 187.4126045338348, 423.5081474173379 171.22816489387338, 408.4849654064398 156.11707467393418 M464.0563340967601 205.22361377824765 C454.27987161649463 191.86345185648636, 441.76592149164065 179.71460466646968, 417.4505722107513 156.70590972018832 M465.190265513592 204.42703567140472 C454.5947510033784 193.71123892697457, 445.0477056734368 183.7452020432495, 417.066848773524 155.99187132076764 M473.84652263795647 203.99747000087717 C456.37277217616906 187.77109112297444, 438.64716168529884 169.63612296513486, 426.12678942321236 154.96975655866257 M473.14787367315654 204.31329014294514 C455.131550363823 185.0798341959839, 436.44105068300246 167.0276477251739, 424.90614047343274 155.42430174903413 M481.3541515935817 202.93757111181245 C465.2323634764028 185.37591700855393, 447.0806865892523 167.32164743856504, 434.7285891399459 156.22666713309874 M481.7874507124209 203.91933659904376 C471.7614901494607 194.05421413553626, 460.49647513039287 183.38424335980415, 433.24530266436943 155.70520458178063 M490.02105445972927 205.18860705245953 C477.8479070165613 190.2704735743495, 463.4092134036233 177.70077159864138, 442.8692892320456 154.94359700990313 M490.85614628958797 204.30632616274727 C473.2928650230376 186.24401289103642, 455.27805894358494 169.39486148277595, 441.71136781703706 155.71897312955403 M498.10117410749314 205.2269083892248 C486.0944944981468 191.39925610019398, 475.8350387084138 179.80378935369671, 449.8118169456053 156.68164238048186 M499.2356803753611 204.57896464460262 C480.4740908740196 184.82003048636446, 460.52647206868204 166.64950929960676, 451.1471887146387 156.01230539040108 M499.7269949711014 195.85187850164905 C486.2647580387841 182.14587078532756, 471.85282575664405 167.34993178836666, 459.00620890171876 154.9585400612413 M500.7025254410778 196.4831947307913 C488.945442029062 185.67119587388706, 478.0482084535131 174.34278850883697, 458.6426884528776 156.26295404986882 M499.6460329211403 188.84748345563082 C492.1022809666654 178.7956712337047, 483.77416766135525 170.9011560414546, 467.02711109647964 154.91116749358767 M499.95814633193356 188.87393585635243 C489.67063435024465 177.77785229339256, 479.4700837629421 167.7700952780391, 467.5661104399568 155.748476481004 M499.58777251607665 180.87418925494956 C494.76374806407875 175.3949313886053, 491.07020765009395 169.50178825149882, 475.31127890098173 154.95804274392714 M499.6896875185046 180.4132714567061 C493.63213570555365 173.88140554829243, 486.9312282639551 166.9939509346244, 476.5952683965795 155.6149847443535 M500.82959412700427 171.55988896601144 C496.0134797433197 166.98297736191958, 493.73248525401476 163.67696739924884, 483.8950770613188 156.0618245036661 M500.82965022149426 171.86762609239912 C494.774282312387 166.15743530886633, 489.64126200338274 161.73217210330523, 484.9487963559488 155.7458955879643 M499.795870465887 162.59976180072354 C498.04840694139597 161.14705215472605, 496.1985316338633 159.39265365335717, 493.3620826592381 155.6718257992848 M500.5223047029313 163.10681816635133 C497.6661365347267 160.80503887866038, 495.426494637635 158.19797674331224, 493.2947921418297 155.891259978371 M499.7853172679884 204.21468273201162 C499.7853172679884 204.21468273201162, 499.7853172679884 204.21468273201162, 499.7853172679884 204.21468273201162 M499.7853172679884 204.21468273201162 C499.7853172679884 204.21468273201162, 499.7853172679884 204.21468273201162, 499.7853172679884 204.21468273201162 M499.9084624439372 195.75018957935586 C496.43638815613053 198.30746179981676, 493.065995466852 202.47105193019638, 491.50811193069484 204.2530621034014 M499.7442958030371 195.5822666918145 C497.7673763684481 197.54175328436546, 496.55400181276997 199.5355850887313, 491.5206840347689 204.1610978623959 M500.46120011373284 187.1849669158414 C496.95382086769075 189.82604729127365, 493.1468266606908 193.1002337666452, 482.4269210847954 203.1069555623936 M499.5007653854308 186.8401970470279 C493.23317128368166 193.90890422008354, 486.7518524481001 199.45857241708478, 482.84472459935796 203.70040701110983 M499.46296549602283 177.71645405671285 C492.0831629132516 184.54078460552526, 487.09350676711733 193.36489986573417, 473.49510759223637 205.35507211522338 M500.3428149185596 178.52792933012083 C495.0069282207326 184.1052532428482, 489.0660737886265 189.17569666039745, 474.64526125952983 204.0227460392299 M500.93339199586643 170.58874663276495 C489.1906990557177 181.28903845508452, 476.3106455050438 192.22413827803624, 466.57290980707484 203.36300045089007 M499.9892698548255 170.46887644933435 C488.2584063338706 181.36006787879973, 476.37570381125875 192.86162635462807, 465.3891986841671 203.64338657339246 M500.7346256093574 162.651222085404 C486.76711435607695 176.05920996789345, 472.5222916862458 189.0642363807056, 456.5439581004044 204.05238363579983 M499.46462360243174 161.58434577771533 C489.36629899049666 171.35640777752724, 479.57927433914216 182.51395769362176, 456.95591309397275 204.33187817414426 M497.9624945828436 155.26332560578237 C479.8289625531858 172.9445286643905, 462.14369108440656 191.01098165935392, 449.191492218319 204.58900536135909 M496.4745127573354 156.09262650055686 C485.7250858725232 167.82892639363808, 472.9173001812478 178.95568400492692, 449.21560102215005 204.3450750895324 M489.11243653767224 155.9286430100525 C471.53291986576556 171.02101758407343, 455.9294340819001 188.17373298982605, 439.3358612819124 205.24528994397397 M488.66539422799315 156.34931249065198 C478.42660675322253 165.532424131548, 468.4683993155846 175.7892024882228, 439.86052931440213 204.2958862551036 M481.1022798444296 156.27211936512836 C460.67420249770345 174.35964820029386, 442.30452157783105 193.02492715025656, 430.9720237872781 204.26280232505079 M479.54107660960057 156.63077093405525 C466.9747786297893 168.42478660393417, 454.0168228998749 182.02643959565881, 432.03628512893187 204.0220252939048 M470.8676079992094 155.44469461241607 C454.96087735776416 172.95620919159546, 438.9248604113801 187.843762888773, 422.6070476055101 203.51474807099575 M471.95183456036085 156.54502795381342 C454.1413316545318 173.23149524243243, 437.57688171466674 189.9846711306313, 423.3730259364427 203.65476051648284 M462.75611387310545 155.328949318322 C451.6629086566845 167.52913204774268, 440.36951473334057 177.67082175508315, 415.39760998270197 203.36847337321515 M462.78251305097706 156.44366436047352 C446.2856285241668 172.78368178468105, 428.7995636996029 190.33777858785203, 414.81672952013747 204.0876649208846 M455.06509971221146 155.40160467425235 C444.5086102179659 166.92674040537685, 432.40615226006776 177.94632349297464, 405.6874975399477 203.54796504811523 M454.1837773646524 156.69056565208237 C436.6419005861305 174.12679502762978, 419.086613060543 192.19807290584788, 406.8604439757196 204.44536619265702 M446.9789771376212 155.99602249661334 C426.76536838370066 175.3198246291889, 409.6324350103924 194.34203279039997, 397.94510627334085 205.19635053710218 M446.20336309708995 156.33067201418675 C429.76456898240485 171.96397699740368, 413.720977198677 188.87454485153552, 397.57553771139203 203.75229670484686 M437.10676714542836 155.56470522681124 C421.13754446977777 173.11504204302528, 405.55956792812 186.689013343289, 390.1009415539751 204.5383979065823 M437.21732615649285 155.95872831983365 C424.8154807558286 168.93393004923314, 411.9808858176471 182.5238891193422, 389.6429494478578 204.4014435180011 M428.0196001067267 156.34179593125228 C418.9624864066113 167.57060346939983, 407.86906500902484 177.13255990879534, 381.6851181279444 204.54301584796184 M428.56129276356415 156.38803412956986 C417.8223227726842 168.33359921869513, 405.05008618314866 180.02136534543163, 381.1844382183203 204.22309838016653 M419.9882157676101 156.8055783013428 C412.7390610781473 165.50807627041698, 404.5952137857221 173.19006920035446, 380.6359279282079 196.71468586578158 M420.161709451507 156.71919369144237 C408.0384521095163 167.93468569680454, 395.7388807887705 180.61610430377476, 379.8649011803479 197.68253991502462 M413.12046324917213 154.94097665348897 C403.43878214007475 163.99929144584877, 395.2940769207633 171.3800732108755, 379.6383502013669 187.7549521509402 M411.5670930660246 156.608865940998 C399.43226362936235 168.31393834401223, 387.32342146451003 180.11147288786242, 379.9246337426514 188.94777349511463 M403.4988010475067 155.102055929097 C397.6198008260147 163.27556819286806, 388.6679715656829 169.62097521961826, 380.03211425614217 181.05435883221685 M403.5792807653201 155.53851450128354 C397.8452705699245 161.84353928864667, 393.07469015836983 166.6845595157226, 378.9811423135609 179.5877184933564 M394.9177970337074 156.87452169457322 C388.77296935601015 162.254309880518, 382.29943574597087 169.16974279017887, 380.32077233862736 171.98337710101802 M395.6846800200965 156.28315768284597 C391.6924272554044 158.9477169685025, 388.9191837071013 161.98242511260034, 379.2319671762795 171.86938540779698 M387.23493036600445 156.6348208763251 C384.66703441361466 158.07165284607495, 384.02584534860523 159.81898748374675, 379.4360752680958 162.6858040984708 M386.5668754458489 155.95577004752923 C384.3927084771357 158.23196833019426, 382.8313915698705 160.04135609736855, 379.72444169639283 163.02166442358748" stroke="#ffffff" stroke-width="0.5" fill="none" stroke-linecap="round" stroke-linejoin="round"></path><path d="M380.1717903431505 156.49165421761572 C403.04343588091433 157.37368851689993, 428.72502366416154 155.89367980746925, 500.01921603046355 157.1770065072924 M500.90800662077964 155.18759165368974 C500.3356228225023 170.80665077380834, 500.6172615282327 184.51306913159786, 498.9177542809397 203.71689524017273 M499.8101127322763 203.5516997102648 C466.39533040709796 202.64324297712741, 431.5685542922467 203.63009637401998, 379.37164326272904 203.7919351939112 M379.3860662583262 204.00435566268862 C379.1012724422008 187.22431352846326, 380.4424612425357 171.33391334675252, 380.04126107729974 155.71346233449876" stroke="#1d4ed8" stroke-width="1.25" fill="none" stroke-linecap="round" stroke-linejoin="round"></path></g><text x="440" y="180" text-anchor="middle" dominant-baseline="central" font-family="&quot;Courier New&quot;, ui-monospace, monospace" font-size="13" fill="#1d4ed8">Fix it</text></g></g></svg>