<svg xmlns="http://www.w3.org/2000/svg" viewBox="0 0 560 320" width="560" height="320" role="img"><g transform="translate(40, 24)"><g><g><path d="M120 132 C121.96898069592812 130.8005064804107, 121.91498257132866 133.0570339400321, 124.13371096265811 132.22854513712227" stroke="#1d4ed8" stroke-width="1.25" fill="none" stroke-linecap="round" stroke-linejoin="round"></path></g><g><path d="M116.68484143839635 135.56669580915593 C119.32049301531355 135.17354839714176, 120.48819312322102 134.32402929437126, 124.91343943252537 131.6615140995942 M125.04137750442449 131.92018274182453 C121.99699690944456 130.4521135864735, 119.98872977273318 129.09411333748787, 117.19079871920356 127.7006903492508" stroke="#1d4ed8" stroke-width="1.25" fill="none" stroke-linecap="round" stroke-linejoin="round"></path></g></g><g><g><path d="M245.33333333333331 132 C247.30231402926145 130.8005064804107, 247.24831590466198 133.0570339400321, 249.46704429599143 132.22854513712227" stroke="#1d4ed8" stroke-width="1.25" fill="none" stroke-linecap="round" stroke-linejoin="round"></path></g><g><path d="M242.01817477172966 135.56669580915593 C244.65382634864685 135.17354839714176, 245.82152645655432 134.32402929437126, 250.24677276585868 131.6615140995942 M250.3747108377578 131.92018274182453 C247.33033024277785 130.4521135864735, 245.32206310606648 129.09411333748787, 242.52413205253686 127.7006903492508" stroke="#1d4ed8" stroke-width="1.25" fill="none" stroke-linecap="round" stroke-linejoin="round"></path></g></g><g><g><path d="M370.66666666666663 132 C372.6356473625948 130.8005064804107, 372.58164923799535 79.05703394003213, 374.80037762932477 78.22854513712227" stroke="#1d4ed8" stroke-width="1.25" fill="none" stroke-linecap="round" stroke-linejoin="round"></path></g><g><path d="M378.54929061385917 86.1150073043553 C378.9429543158144 84.79642939046516, 377.87074553770873 83.03710485733819, 375.58010609919205 77.6615140995942 M375.70804417109116 77.92018274182453 C373.8719990018716 80.5106445988972, 373.0608846293669 83.20313466729122, 371.28315546451864 85.29129508139114" stroke="#1d4ed8" stroke-width="1.25" fill="none" stroke-linecap="round" stroke-linejoin="round"></path></g><text x="373.3333333333333" y="105" text-anchor="middle" dominant-baseline="central" font-family="&quot;Courier New&quot;, ui-monospace, monospace" font-size="13" fill="#1d4ed8">yes</text></g><g><g><path d="M370.66666666666663 132 C372.6356473625948 130.8005064804107, 372.58164923799535 187.0570339400321, 374.80037762932477 186.22854513712227" stroke="#1d4ed8" stroke-width="1.25" fill="none" stroke-linecap="round" stroke-linejoin="round"></path></g><g><path d="M370.77719818371145 177.9760910770156 C372.73290189417537 179.89664924563348, 373.21535618293393 181.36561583531096, 375.58010609919205 185.6615140995942 M375.70804417109116 185.92018274182453 C376.5724887363964 182.88892905965224, 378.4774349889943 179.94146112563325, 379.05524789466637 177.15237885405142" stroke="#1d4ed8" stroke-width="1.25" fill="none" stroke-linecap="round" stroke-linejoin="round"></path></g><text x="373.3333333333333" y="159" text-anchor="middle" dominant-baseline="central" font-family="&quot;Courier New&quot;, ui-monospace, monospace" font-size="13" fill="#1d4ed8">no</text></g><g><g><path d="M5.192941440068566 141.8852690467333 C5.192941440068566 141.8852690467333, 5.192941440068566 141.8852690467333, 5.192941440068566 141.8852690467333 M5.192941440068566 141.8852690467333 C5.192941440068566 141.8852690467333, 5.192941440068566 141.8852690467333, 5.192941440068566 141.8852690467333 M22.058056126200317 150.68713294686592 C16.34125308259163 143.526823108496, 9.685894288287361 136.7592200181178, 0.08490578385658978 129.32112178661293 M22.54173421248859 149.91203616810805 C15.602114366206614 143.97830054199719, 9.482309584359228 137.12363261003, 0.6257915796957206 128.81937273729957 M32.546302105062544 152.41425123705935 C26.225681269736416 145.27718811651914, 20.165864241671212 140.63106139321008, 2.8185416990857446 123.15346506566351 M32.94743451154316 153.47664446260254 C23.410305740816987 142.2934647297864, 12.559685929502033 132.8763316066085, 3.9308630239184823 123.21613606673276 M42.381493655462826 155.43970898917166 C35.617420055756746 148.68144576353293, 30.073029118272743 139.86098148944768, 9.153539080130383 120.61646897434795 M43.78626831701126 154.51739659371074 C34.072854610635915 145.3687531826143, 25.834456201331985 137.43515760829803, 8.387918683285339 119.75429286729151 M52.93530054686893 156.39062030860816 C43.537417039249576 145.18480113917812, 32.74012153007784 135.45675165986023, 13.41180725908519 116.2398309306984 M52.9747601346888 155.54438396175988 C43.28109429136264 146.403555709535, 34.1326989990651 136.62760508266942, 14.413917938719106 117.12444753942985 M61.15861389256212 154.13191439458762 C49.78921843651234 143.67090399775597, 38.26568276758847 131.17279798295348, 20.714083693044884 113.98567022774711 M61.201038626685175 154.8162552483905 C50.01330695589031 144.09714251928776, 37.599036020677744 131.75014313854527, 20.14828110864262 114.12911854610189 M67.90115293082364 154.26094232132883 C55.59337615515369 140.43694817326573, 41.904549546359455 126.44138035067299, 26.00664752647726 112.05024159589937 M69.12569339260973 154.45357319774328 C58.65523015254898 144.34723595078773, 48.39172921440267 133.4413778897433, 25.96085301135181 111.9032019751348 M75.4310718061213 153.20208381923695 C67.83492136166575 144.93425794876893, 55.65749047126399 133.45534173446123, 33.952499247663575 111.73011485937388 M76.38263175075842 153.55217139764537 C63.15292489367774 140.61535459784542, 50.34372235085133 128.35557006334648, 33.62433262145604 110.79890119566919 M84.7403527879229 153.2871404937174 C70.85923962959974 139.11563776936464, 55.727464120883226 124.17584083444726, 41.34386068869851 110.40967493620292 M84.56572195692716 153.68229749842396 C71.0998720596137 139.89302177326587, 56.926672161642244 125.80577819844122, 41.00802306987814 108.79197685815916 M91.22177236476347 152.20730191924267 C80.5639027610237 138.68756637021343, 66.64541462539583 128.81850996390227, 49.23599536904988 107.46994218179172 M91.98700929847911 151.35932930697345 C74.11457731425136 134.56742482424778, 57.81808200041221 117.81904670696856, 47.892901987414035 108.60931723793185 M98.36668261848394 150.4859270135912 C82.56550134034327 135.3200085412778, 69.01893520506707 121.24509779864836, 56.931281370812385 108.84764526417253 M97.45574746858331 149.13530616099416 C85.14145427241839 136.34342912607502, 71.47817094423961 123.534405801463, 56.236944379986554 108.50676111044136 M105.10644341236554 146.99497622598173 C94.89962149383675 138.5625515500946, 83.8802498170053 128.12761068705254, 65.22013846345381 107.25114828875061 M104.70108075434915 148.13411111712668 C93.81806237024948 137.14102992192215, 83.25319704685343 125.63640871769343, 64.6972997533916 107.70377487601486 M110.03913595350296 144.15672509944648 C98.53439858779052 133.8342182930671, 87.57065019330697 123.30900914132796, 73.47220776025544 109.02663045474476 M109.48000759919942 144.87193451332507 C99.39993616765393 133.7838771411589, 88.43181120159196 123.1751810934586, 73.2027217697386 108.66838221629298 M114.45627635517747 142.34547783320411 C104.9136437577778 131.0863454990194, 94.65979264174977 120.64225631250336, 83.15595849949847 109.85269283637366 M114.88534416524351 140.67773753123 C108.21107996767395 135.1905800894502, 101.47909911948186 127.74127301740786, 83.75442502863685 109.63052087541632 M118.94110207448378 135.06085372028693 C110.9243049691714 129.46734782133217, 104.54998803935433 120.69191101560719, 95.35829482565074 112.43496516404268 M118.02526077090427 135.68528863379552 C113.3131164827515 130.99426902488153, 107.43728565632267 125.4167762659843, 94.62694184838234 113.2953994412121 M121.36649773445767 129.75649132124332 C116.47539010271097 126.18893559198196, 113.76023874827517 123.81912429873393, 108.8651722863915 118.34503371299036 M120.515265717328 129.8557924554422 C117.1098943938724 126.2311923999691, 112.6381380450299 122.56926098513235, 108.91702546766423 118.62994692967064 M115.58039768621113 141.03624180892686 C115.58039768621113 141.03624180892686, 115.58039768621113 141.03624180892686, 115.58039768621113 141.03624180892686 M115.58039768621113 141.03624180892686 C115.58039768621113 141.03624180892686, 115.58039768621113 141.03624180892686, 115.58039768621113 141.03624180892686 M119.41464021467395 128.77934467934443 C112.34075234443425 135.30177513044018, 106.0034353757179 140.9692333573963, 98.39513824915643 149.09766885708117 M119.07551070284822 129.0586793390326 C112.59669728377186 135.1327173867232, 105.80099535390492 141.92348204928666, 98.09346852207686 149.19827299914354 M116.47349852494682 123.73626567140772 C105.7473247476005 133.19544814760218, 98.84761727047453 141.7224099200773, 86.94247502710967 153.1012004927922 M116.02277365069622 123.99586072113915 C108.31556173685202 131.9489362336816, 100.27468898470451 140.058434340596, 86.13758567765652 152.6874130397294 M111.17879200044425 119.22358865644954 C103.4975396001238 129.50440543888664, 94.765890750145 137.3703825588239, 78.22901964575148 153.1722442585178 M111.0062729798943 119.55794768966905 C102.14356677274716 127.92688136463579, 94.63170225790815 137.24001588756198, 77.92827170450336 153.36837227057146 M105.569226848261 116.68717773987518 C93.84747803869999 127.40235335629642, 83.97718127459653 138.21776330246774, 68.33661109361692 155.19478147822284 M106.23769463386529 117.49565664494948 C95.01233698504973 127.03906094989266, 84.72662112050904 137.82089850709082, 68.17054063998057 154.8079139980566 M99.49115774405136 114.19649855853032 C88.83617754968284 125.74063194257094, 78.83696136833672 135.6932071555943, 58.46723682780069 156.16389500731273 M100.22875583709164 113.59404770624798 C90.84930461599897 124.30970170126054, 81.09979150459532 133.615520221142, 57.71318780251097 155.863395247512 M93.96844714491006 112.07475896782026 C77.48105020633659 128.1116396254637, 60.11027523926089 144.73523041132603, 50.76974633633025 154.95905567025991 M93.2423144079962 111.72141539889172 C82.44165846815719 122.5952067351696, 71.40782885026918 134.51398250860572, 50.856753353950154 154.87480320083205 M86.04339241411834 110.25798191696373 C68.11901227937818 127.78555526569525, 52.37825637186964 146.06354471659978, 42.667069763927174 155.01690363484286 M86.01454588368833 111.00711152952131 C71.66348909499246 126.39559487912985, 55.01014178996355 141.93411111802718, 42.16199092534782 154.75628657071704 M78.78922582114402 109.68250544899294 C66.19747164282408 123.50603169161298, 52.447214379438535 136.95665116050392, 35.539785723872754 152.64768060028035 M79.84869351996396 109.64779518609086 C63.563182908405594 125.17318191569939, 47.72280511589642 140.67365845164727, 35.014685428813365 154.33133778880762 M71.20129419808177 107.3938030443132 C57.1529193967775 121.30349782345158, 44.85106789353497 134.04130113180886, 29.631514516821287 151.12983657841792 M71.58749794774589 109.03500308142752 C58.95684962255941 121.2501229975244, 47.413289864731404 133.40654333961143, 29.01229627632924 151.64614978687126 M63.837986064399395 107.10555649595669 C51.17288892303772 121.57814002033703, 38.30194678654891 132.68683449904998, 20.711670662494416 149.04727736203404 M63.73537429783008 107.53297242848537 C55.15865920400431 116.74795121864912, 45.80956402869279 126.14362585029, 21.707959911445194 149.7256134651083 M55.20480450219163 107.81558303432875 C44.88351931808717 117.88993302350775, 34.925360749767826 127.04760540866059, 15.46613749273302 148.29868993178783 M55.123735076139354 107.7133180650916 C41.64411061147624 121.3548038367668, 27.96174892347277 134.60154588441992, 15.282414402330238 147.80139309909967 M46.688187499739676 107.87201498364807 C33.345570872412935 121.89517671912677, 22.370048358777662 133.28568546170493, 10.931592558445256 145.2632170492711 M46.72606050728306 108.4399621103868 C35.80646737366829 118.34572199099938, 26.0532280001618 128.56834965872585, 10.659574848720652 145.0963509328591 M36.968007951511375 109.9607997619469 C24.95022570364801 122.1437911348565, 11.881986431029311 134.78994998602744, 4.657755097912391 141.6382097887026 M37.55164853455716 109.27538396482507 C25.249358913455218 121.38319923355112, 13.35443272092173 133.4428536861249, 4.150030850225827 142.08104971052722 M26.0945397522283 111.6287337870036 C17.82183116845787 119.94652931993333, 7.860807854808735 129.6896164992441, 1.8269928179752895 136.71962075574146 M26.00383091401134 111.82240421610668 C18.56415641847335 119.35263502028069, 10.298319261646968 126.97199743421766, 0.8519032875147531 136.97289589518505 M10.297015631953117 119.34455422376077 C6.596154339060037 122.71008301840752, 3.4491573980060286 125.80189832265123, 0.188499297512401 129.65215455402057 M9.927951424261417 118.96618473774548 C7.133453578654396 122.3656119030383, 4.460443017429645 124.7858554640647, 0.3829399973095246 129.3391744609773" stroke="#ffffff" stroke-width="0.5" fill="none" stroke-linecap="round" stroke-linejoin="round"></path><path d="M0 132 C0.2431877184659299 150.98956668269813, 50.57833084352315 161.83036170357943, 88.8000539470464 151.78868756755827 M90 152.78460969082653 C107.52596561943587 148.02126581802128, 120.23540130145848 139.63059685998618, 120.69790275581181 131.66392579190432 M120 132 C119.22160132415593 113.84230971666992, 70.52734305150808 102.95422534814001, 29.726057427003994 111.73344921827675 M30.000000000000014 111.21539030917347 C10.739486250677764 116.40595643610598, -0.9899723242968294 122.8715597098225, 0.10367079265415668 132.29283220879734 M0 132 C0 132, 0 132, 0 132" stroke="#1d4ed8" stroke-width="1.25" fill="none" stroke-linecap="round" stroke-linejoin="round"></path></g><text x="60" y="132" text-anchor="middle" dominant-baseline="central" font-family="&quot;Courier New&quot;, ui-monospace, monospace" font-size="13" fill="#1d4ed8">Start</text></g><g><g><path d="M125.38091612278961 156.0475827894563 C125.38091612278961 156.0475827894563, 125.38091612278961 156.0475827894563, 125.38091612278961 156.0475827894563 M125.38091612278961 156.0475827894563 C125.38091612278961 156.0475827894563, 125.38091612278961 156.0475827894563, 125.38091612278961 156.0475827894563 M134.06736253075604 156.56492586815898 C130.87449628111216 152.5147038503067, 127.8968850008556 149.13447600243848, 125.08701236322068 147.41392326341355 M133.663126475516 156.40630337642673 C130.88375254859457 153.15051585703077, 128.46890601207025 150.193793018741, 125.33824933282577 147.91368307062768 M143.32471548200718 155.1520198404247 C137.34278536912814 151.88769726842494, 134.82846932937719 147.29484476589016, 124.4658567731037 140.2471513525448 M142.42142313861422 155.5273119184578 C137.69942219546098 151.98126228343781, 133.684554903249 148.0034114068218, 125.52181901640735 139.0005978633515 M149.96730274060698 155.26436384314843 C144.3751965625777 149.97454544001343, 136.2543776492554 141.60923394818465, 124.42089443847082 130.9850149148678 M150.6979148900691 155.84343052836306 C143.2921538841021 149.23410793047353, 136.36683407622058 141.8186873812056, 125.73873015351138 131.03281563795858 M158.89737397747834 155.31582298869438 C151.71560424002672 147.66870127438014, 142.25878973350328 140.9664283080026, 125.45792291804695 121.70147115907558 M159.7741277871539 155.49896983834157 C151.63643557769188 148.3978303925897, 144.76086137390743 142.4385587982489, 125.11689808077656 121.69155128060767 M168.47291259105862 155.92302325362508 C153.91053367051381 142.0581033951307, 142.31828395206634 129.45785706985643, 125.24351936026953 112.54205231173064 M167.72829669314982 156.169015297612 C157.44912740982383 146.26383624083573, 147.79361715395862 136.39033370305677, 125.5865107864841 113.88118711551752 M175.81674572978542 156.2752468645031 C160.1442508977791 140.56774652309556, 144.07530081631077 123.19012692220278, 128.8125317883223 107.67837397414164 M175.71248459633813 156.2860742303932 C163.61035836789716 143.80908666818692, 152.6852311566572 132.2417552914883, 127.89251150866149 108.17945446665303 M184.3915442920962 154.95943229789083 C171.5711996371024 142.29394276111776, 156.93400471534852 129.08270814171678, 136.51465197538894 108.50470799761729 M184.7650826100001 156.02757583590395 C173.1528478938641 144.01574352535806, 160.89607674920254 131.57842058950538, 136.37867161033614 107.39650653297917 M192.37482292642846 155.58517428035088 C176.26288686843378 140.27599141489077, 162.33570564913646 124.86814055409866, 145.50413407041455 108.3777011092277 M193.82330997241692 156.30337118836292 C176.74214527471486 138.94589721087237, 159.92375246063818 121.59525048768465, 144.91480920529688 108.27713701422232 M202.6339400312197 155.60972378844568 C185.86281947758158 138.7314776592247, 167.0200087513361 121.73354508201182, 154.65693022183663 107.58351053553538 M201.33571404686987 156.54323323698887 C189.30750968418965 143.96551305115244, 176.5752717629413 131.96174586068565, 153.85142478182502 107.43041573460118 M211.1010977549074 156.7629880487377 C193.66129019782298 138.80354078437907, 177.5957274789169 123.36401923940795, 161.68883632809275 108.50594975310283 M210.4746703216402 156.08435680600053 C198.7139028422313 144.36779629425678, 186.721762930945 132.9280597614571, 162.3753469532018 107.86033439333455 M219.14834199592914 156.27253053778952 C204.9224400665666 142.59173717265674, 189.17887409090883 126.68442813021126, 170.7304920376203 106.85148848849254 M218.74888241000917 155.5588585946167 C206.95261223128296 144.85421515286703, 195.86975146929993 133.7866796748882, 170.1222324577085 108.35330656464117 M226.76256240272235 154.88857098216363 C210.24027489705165 138.84265694341283, 193.8429519180544 123.44429689128022, 178.30238074885688 106.87425271826703 M226.81588205025804 155.88127717705615 C217.63090631728136 146.622156891833, 207.11490897517203 135.6241772470579, 178.7890661586263 108.46566769773979 M235.32049237372453 155.3089853584225 C219.75918134563068 140.13583984702763, 206.7670516763184 126.93130683260732, 188.08982961023995 107.80102466898876 M235.29452910566803 156.03607300253756 C224.9717956054068 144.60908697750878, 214.63921228397095 134.26276552454976, 187.7466610442365 107.51117511684912 M243.16370905737318 155.8043058931286 C231.60463546898708 142.51068330219286, 219.32753137378424 130.6591748242843, 196.9180095202069 107.05624281722027 M243.97751156452037 155.66512839527974 C231.35364453348777 143.07616357081258, 217.3646056768705 129.55796376162726, 195.65215822782028 108.34850802118795 M246.10256554024033 148.77165325097897 C230.57554625276123 136.02712564989815, 218.52833467814128 120.46631138934987, 204.72693512719545 108.28700188952403 M245.1727777282309 149.38417974263587 C232.60593496560182 136.91599909647493, 220.52460287361828 124.18219748869095, 204.46152694765897 107.96876748497503 M245.59018072025594 141.35872640802856 C236.36153527574717 132.1493085274537, 228.78598404409013 124.26719654102068, 212.54646482964296 107.78805286246256 M245.11502608457323 140.76930736831721 C237.32117894201932 132.9857090996265, 229.5777292749486 124.35937686133538, 212.64206456703383 108.4829764574291 M246.5268765582305 132.1182399032129 C237.85407023786644 122.17718028643446, 228.68499751537658 114.52826647469595, 220.47130077598695 107.32680296259839 M245.00764255920168 131.5738727839155 C240.40808618411123 126.85383066665376, 234.1227275402307 120.97385315394543, 221.58489657422604 107.70957976276893 M246.06360520260148 124.26135096309451 C242.16547881739766 120.42903749929044, 238.76406515189902 116.6176176444455, 230.43598886466486 107.76831566649395 M245.46362764039748 123.54444581364959 C242.15711971725005 119.64107464551331, 237.99714969131588 116.24420746095637, 230.01747658251685 107.76194410021321 M245.29011573815458 115.46613127243621 C243.13067994096082 112.7113852517392, 240.21367354310001 109.83256957634391, 238.95395992837575 107.73231618474142 M245.7606894329723 115.12895381868734 C243.17134822849187 112.52815639151173, 240.09843519480748 109.78827526252475, 238.2670437214124 108.00008985637592 M245.2143938814191 156.11893945191417 C245.2143938814191 156.11893945191417, 245.2143938814191 156.11893945191417, 245.2143938814191 156.11893945191417 M245.2143938814191 156.11893945191417 C245.2143938814191 156.11893945191417, 245.2143938814191 156.11893945191417, 245.2143938814191 156.11893945191417 M245.11965195179857 147.78597336630872 C243.0479267916772 148.89948595925324, 241.5969472060267 152.1077445213442, 236.66834292195853 155.99029120047007 M245.55798529543856 147.93480421129217 C243.3373484319925 149.0290514184001, 241.83376484481263 150.98881790505504, 236.45737176358816 155.8815055040679 M245.72474701971692 138.4047154763598 C240.68723463214005 143.1445835364083, 235.9691469095837 146.20954816631328, 227.84869775905563 155.43584858406697 M244.74057312839608 139.3468075288344 C240.00639131805934 144.6740180481708, 234.2185737440704 150.08917536672763, 228.13581916488064 156.27322916355345 M244.84545317263286 129.52614150816524 C234.27367697998508 140.81129127687169, 226.59017816717102 150.50857373531565, 218.70480353748886 156.33509520519885 M245.31739294164757 130.93073161752844 C239.87611816261202 135.67526845145073, 234.20507509504367 141.23814711319633, 220.00486500440627 156.40216477480146 M245.43362377257031 123.02388971404294 C235.2570912962825 132.7182947822449, 225.15448979650026 141.56291479093827, 210.84475559888108 156.97826653946552 M244.93597491615395 122.61594164067068 C238.05721468873125 128.8862495510205, 230.10884363993014 136.68216298110818, 211.691271149718 155.5304209884665 M244.39411721796674 113.31771107055539 C230.08513974286643 130.40506724912834, 213.24487302584765 145.7894154633395, 203.1820060916698 155.81401981342947 M244.72611641519646 113.25096054747993 C231.3626255448453 127.92394637298185, 216.06547803521718 142.80930398850595, 203.2267880890971 156.28581762876723 M242.06820853251344 107.92843992901133 C229.93556449015435 120.70167259092304, 216.61146456816041 132.25824512339062, 194.6698509142925 156.98866850365314 M242.3130158023102 108.62016028692113 C230.2506833730619 119.83108198880119, 217.4342473172421 132.45510681262635, 194.07949443582493 156.29109639492248 M233.43701648990177 108.67456689071939 C217.81779749301586 124.78508897912688, 201.95975095533265 138.86282736556498, 184.67642971518669 156.7711823366991 M233.85819956603012 108.00283468295918 C224.06193313765345 117.66299070846188, 214.54865882811606 127.77569338561402, 185.96629692818257 155.55142086115097 M226.58178498806157 108.81195743274972 C210.6941523047236 124.33569057281521, 194.21295815746498 138.53512393210994, 178.15972589278985 156.37818728912984 M225.35730369412997 107.87541806032047 C209.34004172925478 124.92224689325029, 192.3768767683246 140.9428907589046, 177.26543042945136 156.64187647667143 M216.91674742543037 108.00098753166483 C207.30279410588707 117.48149414900519, 196.08172643767864 128.24317651753103, 169.24256659553947 155.59896558750782 M216.51043804989095 107.84112086822377 C204.07316558773917 120.83493901416738, 192.15739427731089 132.82620070392915, 169.4289579279125 156.49497056570266 M207.6209809504456 107.47468941402718 C192.23911602160246 124.25934534807025, 177.14177578330043 139.85600389997091, 160.7876227218731 156.0204557083956 M207.99154062159428 107.56057543088778 C191.51305462139518 124.17015465936991, 176.1019764674326 140.32844560477537, 160.1952705368473 156.18813232746336 M200.4134064615449 108.4637515563993 C181.8367374460686 126.1725187893306, 164.4924411491175 144.52366513816156, 152.77240892022826 157.05225237835558 M199.4608775225213 108.1393359475313 C188.6667058174715 119.50972848341888, 178.51792991758168 129.62490052436092, 152.401587494537 156.33121283617228 M191.12778860716563 108.22151868534372 C177.77543373645312 121.65179097684239, 164.1922690526476 135.51066557580907, 142.66428358904236 156.7516065739504 M191.17754299095316 107.51537849237309 C178.4766341839072 120.52177178548001, 166.76920613593387 133.055990261615, 143.59645616426283 156.05398504104826 M182.08773578574537 108.04899177742288 C166.586474456686 125.14269876270761, 150.25863161588583 140.18893950695016, 135.39544887675294 155.04842552174244 M183.21195939017116 107.84660101463184 C170.29481948525793 121.18692352036335, 156.74765973067568 133.35622892771661, 134.85225203430602 155.59364376630995 M175.28170014572157 106.9198280591993 C164.37962343517935 118.9859425822509, 154.17226354166257 127.14071649249134, 126.9379506817975 156.97027269829425 M174.65837720845653 108.49832333852633 C162.406387467457 120.60527098017572, 149.8441710523331 133.21369921017998, 126.37767871794783 156.48230571117614 M165.5379775855318 107.1053410072355 C156.49730722197083 117.16797697706455, 145.23781737558957 126.80272507845072, 126.14974646447907 149.59630001830288 M166.44737505909058 108.63078716327533 C149.33560043746007 124.58071223910149, 133.1723577826922 141.1366938083591, 125.00133576533506 148.66344163800008 M157.69970775361347 107.79950034809394 C147.36849167624405 117.01504740513991, 138.08522720160323 127.91274249806683, 125.75071537374265 139.48123770782314 M156.95835968035448 108.58665606309755 C148.18558555581123 116.37384986781, 140.15881925772052 125.95609311749982, 124.78522879025645 140.07836624549293 M150.19987404840413 108.34393205833716 C143.10097820591105 114.02987261375567, 138.0752508345372 119.93303109169686, 124.46822099565276 131.7098315557907 M149.63206593552948 107.67851548721177 C141.86783565864755 115.45423156621865, 135.63127738195715 121.71896576911755, 124.40783221862026 131.48317542024648 M140.23630361834125 109.05291836452766 C133.5723157902067 113.97089039596122, 128.68937854152605 121.43058736449052, 124.58368422864683 123.95027003876798 M140.1830568128969 107.97637275983675 C135.40797679208296 113.13557310338051, 129.4629016006526 119.18523413312879, 124.74816216370769 123.06467336147958 M131.71198812671696 107.63703803722844 C130.76364123351163 109.58653578757654, 129.13579475760937 111.17684049254375, 125.54980540043421 115.500072013206 M132.34476615865472 108.26541770571008 C130.11391085892006 109.83066198122427, 128.35801324611552 111.92578793799245, 125.24515197175302 114.97441614325267" stroke="#ffffff" stroke-width="0.5" fill="none" stroke-linecap="round" stroke-linejoin="round"></path><path d="M125.16204947059352 107.95666168704629 C150.15070768569905 108.36707540675998, 173.86334279899793 107.2950719229877, 245.58101974551874 107.27080260291696 M244.97653598164516 107.43503666147589 C245.25062246233423 120.40266030952334, 244.4032779446264 130.68522765263916, 245.14043504570918 156.6067580960691 M245.97737842624383 155.10067988410592 C217.2514654961725 156.11969719085099, 189.88075505023198 155.074438549608, 125.80199063842494 156.15677407756448 M124.84775983666378 155.28174226507545 C124.75688231021363 138.9697254113853, 124.8133578303476 122.53356533870101, 125.1098377642532 107.6453849337995" stroke="#1d4ed8" stroke-width="1.25" fill="none" stroke-linecap="round" stroke-linejoin="round"></path></g><text x="185.33333333333331" y="132" text-anchor="middle" dominant-baseline="central" font-family="&quot;Courier New&quot;, ui-monospace, monospace" font-size="13" fill="#1d4ed8">Build</text></g><g><g><path d="M250.9592710348877 132.29260436822108 C250.9592710348877 132.29260436822108, 250.9592710348877 132.29260436822108, 250.9592710348877 132.29260436822108 M250.9592710348877 132.29260436822108 C250.9592710348877 132.29260436822108, 250.9592710348877 132.29260436822108, 250.9592710348877 132.29260436822108 M265.7631542092105 137.64547323576747 C262.80962158466525 135.52517760831333, 260.168789076552 133.72042024878255, 257.25526964502666 129.60161001576859 M265.33680012635045 138.30753949816912 C262.5149778484651 135.49109683157195, 259.8697643185263 132.753068848985, 256.3721250994343 129.81124972658978 M280.10339719846024 144.06296844365843 C274.27099486723984 138.6277236095127, 271.1803919335302 134.81931598162737, 263.40749729053016 128.4980538672637 M279.6484586833708 143.72590656070807 C272.8119937906756 137.49465065453253, 267.0556127834891 131.79379427074005, 262.8914406554856 127.52822363347373 M293.8814916487331 149.8883386972364 C288.36027027040507 143.62013451614632, 282.6160627652932 138.70918814327473, 268.99690803807323 124.5043441473599 M293.4774098729263 149.25693872505835 C285.71856074368156 141.55101860044982, 276.9093138719318 132.60662061662043, 268.2736616106341 124.27604523199605 M307.4908120664132 154.4223816650477 C299.23363478438506 145.54812419416876, 291.20544023262636 139.2517419526289, 274.5164117881163 123.58563023146976 M307.9059427809265 154.39710193951845 C297.4658665234985 144.0696314443122, 287.59698429789137 134.37520313287052, 275.5048745322107 122.07075041376788 M315.7043725184778 153.42607528125723 C306.9681289136112 144.25626824140616, 297.7493917512954 134.72553616885017, 281.0516607009426 118.54599689706401 M315.4874486716146 154.6950633472376 C302.9507974940612 141.52069028278552, 290.6136060084619 129.45651037431557, 280.66614784026444 119.05469910274432 M322.0490544147025 151.125983572828 C313.5570084793843 143.66487268906226, 306.70876595712315 138.4536258876645, 287.32649968658137 117.61444042135943 M320.3926627145316 151.44222462166323 C310.9322351591465 142.11503912582276, 302.6752492975901 132.8947470160783, 286.8464692670902 116.86606116012652 M327.34729122748973 149.43094137935003 C320.8990997606119 142.11576212741514, 311.65456491287586 135.0101677332085, 293.7157189365024 115.53262111301325 M327.60759870434555 149.5331566863697 C314.103551044104 136.77448567770938, 301.6013300434958 124.0014369903145, 293.8117483889232 115.37031891605608 M333.45114136712266 147.54112722829387 C322.00592873866754 137.3803149315672, 312.5588234303993 125.71220516105681, 300.1288742671754 111.31368365568268 M333.5238719361053 145.9184225903119 C321.4979259891935 134.61481786924338, 311.1520734464696 123.47058446285287, 298.94488696949884 112.6628375131746 M338.8758559936306 145.45663114687642 C329.0756964537159 133.10486053628605, 316.2580566375953 121.85453794371435, 305.0941074636296 110.40107745158456 M339.0285170171058 144.1568953196912 C329.3659044494485 134.67217755420174, 319.6812580857702 124.8802372866957, 305.98584930361216 110.47143525018326 M345.2126315484832 141.46520719375482 C335.2556408344291 130.82523292673028, 323.69397417318896 121.40262802639256, 310.97089881114823 106.55630915318955 M345.1729903985824 141.94726032964908 C333.1350908733505 129.93135367034418, 320.0662155275441 117.09108339226766, 310.50066474881186 107.08788611353714 M350.2124300981504 140.30109380258637 C345.29232904815365 133.71840372224833, 336.9393583796213 125.11981845353446, 324.74759593781266 112.13147150576648 M351.7132407192704 139.53058588782716 C342.35621536049297 130.46314645859366, 332.8850140218783 120.41493304598526, 324.73520656794494 112.88419861998943 M358.86979967766115 136.10383412558784 C353.8123701928875 134.09871650784802, 349.04859791273464 128.4333886179921, 339.9196425670406 119.02247209992056 M357.4497791489647 136.69289341792663 C353.35660383934515 133.9668568793178, 350.4338903636271 129.72116994960115, 339.74967068169474 118.7095945691297 M362.5817135486739 134.89839740919518 C360.13509346884297 130.32763259599434, 356.0952750921242 127.7447907069121, 352.7374468871229 124.76296792539762 M363.6044521172146 134.19183943551604 C359.8656767092431 130.70642332988518, 356.58691137337445 127.41323295591727, 353.4271198928193 124.248625895651 M369.6157023556575 132.32786706654733 C369.0057843076322 131.3348691003756, 368.0525455862223 130.477389392857, 367.5478333683896 130.23696628306251 M369.7538079197656 132.34155212953135 C369.1608156760013 131.5928308102889, 368.43191262883715 130.8798665487969, 367.6680168276026 130.21272595395524 M370.83437935385984 131.83228731280684 C370.83437935385984 131.83228731280684, 370.83437935385984 131.83228731280684, 370.83437935385984 131.83228731280684 M370.83437935385984 131.83228731280684 C370.83437935385984 131.83228731280684, 370.83437935385984 131.83228731280684, 370.83437935385984 131.83228731280684 M364.80133555467734 130.09664853310517 C362.88014808528163 131.19227260092816, 360.9207004375588 132.7667151083464, 357.25679769789906 137.67371979709475 M364.2443329802391 129.44537782534331 C362.6297530768093 131.58214586347052, 360.3906496732066 134.07352959296279, 356.51066748124657 137.42203176294214 M358.4202755242802 126.45097135564986 C354.60163405460855 131.1606392759209, 349.97647943481564 135.6279415321274, 341.5359017241382 143.98971775253258 M358.24142452573705 127.13442067670377 C355.03541718719214 130.31931653759793, 350.49243550644695 134.2499600568746, 342.3062954214969 143.66388295278838 M351.36140746015786 125.27223966327045 C343.3733264846826 133.62817964221824, 334.97582950820254 143.28947342503363, 328.4128761720664 147.9088410578683 M352.5614411168519 124.49688193910305 C345.6257024271158 131.68859448062955, 339.21401379040367 138.40998169903725, 328.08510774884434 149.39928370844723 M346.9887824532865 122.13212453278072 C336.7328767108172 133.3003708382227, 325.3638470582103 141.65308865458692, 314.9737133061517 155.56368785868742 M345.7005035377396 123.22059217153408 C334.27941074521334 133.79757204841582, 322.6222519128868 146.420157611852, 314.4129646852616 154.86700887359092 M341.21796675750886 119.07072377283784 C330.0484470702182 131.68072152187293, 317.5761482129254 141.97359208784493, 305.69122425472955 154.49336108915477 M340.61295367700876 120.08431495413842 C331.1932631255596 129.51253009794692, 321.344331055328 139.35693345495224, 306.2102420563496 153.20166309136866 M333.22797190810815 118.67093991065866 C321.3886706148267 128.21179423689483, 311.0172480545942 141.77641423822843, 299.3717772721501 150.70965655741992 M334.0238052672081 117.5430170231173 C327.58692321499416 124.72488993929312, 319.99883411233986 131.6534362906351, 300.34434937622416 151.33769231641443 M327.3735021901137 114.34623272371385 C316.01094505163246 127.6317647021601, 304.0109510189618 138.35207409585368, 293.2741469248832 149.5782137595132 M327.99724135313244 114.85937080242577 C319.83136010774143 123.36869659995621, 310.04502374698137 132.59604257756806, 294.00482903362075 148.73428462874293 M320.8906003888087 111.63497348922022 C311.45313349535866 122.06080649320188, 303.99157993885694 131.34303551814847, 287.122266623212 146.40576334765137 M321.89851004233077 112.841858653265 C315.0852062257495 119.25979157063783, 307.9695050566615 126.81324613099174, 287.5723588235881 146.8063677020553 M316.1160020392225 110.58109073464843 C307.5074192440839 118.46444421212226, 300.1703462879054 127.51454493166749, 281.6961557459793 144.0492000054917 M316.26952875459796 110.26916862459005 C305.6842262804137 120.62511295213146, 293.5338184070213 132.5468343974539, 281.46592907223464 143.97743167899316 M310.5927811766382 107.82842448721533 C297.0743104896617 120.60609305187099, 285.72260555233834 132.1739202349829, 276.07309929702785 140.67440279169145 M309.59077997248284 107.42829870260215 C299.55440234055 118.22894017283625, 289.46514133953707 128.90051633269314, 275.8402722931688 142.28209951469813 M296.0044232118466 113.88665339863016 C289.1688129283885 121.88440642005848, 279.2381627080646 129.16376555609284, 270.8688275616407 140.31505548346735 M296.0716341165417 113.42423393549485 C285.33254788023686 123.60487919391842, 275.7775084472794 134.07130177888388, 269.6832928439394 140.16869732037134 M281.643421585556 119.46269809068464 C275.01672076461034 125.55311159585216, 268.1074458956248 133.39192423797002, 262.9497635748475 135.96039910829006 M281.37519619974853 118.75509977904433 C277.5740256984956 122.88917044352112, 274.8554775753751 126.50686111806375, 263.98456439434136 136.83075689496783 M268.401489329483 125.1563125575382 C265.0199058572808 127.20326638860023, 261.87999745347463 130.46732596504427, 257.3062565195555 135.3529246666295 M267.7457839708548 124.80294621648748 C264.32350192613103 127.88140936036788, 261.2439287489975 131.2313353874617, 257.4172462830501 134.5797983135482 M253.51264739561395 130.47287013049913 C253.0326359925583 130.91101095829072, 252.44672629365434 131.42801286224227, 252.03979587685998 131.9342912331459 M253.48170098928304 130.418890130983 C253.08716315999735 130.88909719229272, 252.65408310189622 131.21350080729388, 252.03775457671594 131.79869197987512" stroke="#ffffff" stroke-width="0.5" fill="none" stroke-linecap="round" stroke-linejoin="round"></path><path d="M309.8097408725569 107.33499253056944 C322.0637062037686 112.40648437106609, 333.631849668021 116.79880282768607, 371.6381962849448 132.70620390437543 M370.7314706391344 132.95255499221383 C353.96590755782523 138.7651554584205, 339.2515502484093 145.45167025995255, 310.9773192352304 156.31013714410363 M311.0327343060324 155.25101982615888 C295.0588655695359 149.85283916053177, 281.15321503617264 143.42478514444826, 250.76965262430406 132.8351611163467 M251.73830642166234 131.52261339761316 C263.79482235379015 126.34635455900431, 274.9907714958439 122.21660879471898, 309.73142331304643 106.86807740069926" stroke="#1d4ed8" stroke-width="1.25" fill="none" stroke-linecap="round" stroke-linejoin="round"></path></g><text x="310.66666666666663" y="132" text-anchor="middle" dominant-baseline="central" font-family="&quot;Courier New&quot;, ui-monospace, monospace" font-size="13" fill="#1d4ed8">Tests pass?</text></g><g><g><path d="M380.70618076941486 87.39850837607963 C380.70618076941486 87.39850837607963, 380.70618076941486 87.39850837607963, 380.70618076941486 87.39850837607963 M380.70618076941486 87.39850837607963 C380.70618076941486 87.39850837607963, 380.70618076941486 87.39850837607963, 380.70618076941486 87.39850837607963 M398.4549512685104 95.95011985389436 C392.7227053407346 91.85487337718546, 388.1953756668025 84.47856651895768, 377.03038733067103 74.55411264441794 M397.3896636136635 95.84973273886288 C389.7792081704026 87.56803869815234, 381.90137048461185 80.35074841188248, 376.19393051402756 74.34711644716447 M409.57391646819167 99.88041842161604 C399.7818003763317 88.93742773472545, 390.96162314997184 80.97201172739027, 379.7583292737894 69.53272816553778 M409.3784460941141 99.92999132378885 C403.48194187364226 93.1641778007827, 396.91764440018443 87.53382707987308, 380.00761457312035 69.18341216981477 M418.50909107877123 99.83250196175948 C412.3077622733021 93.65696208452131, 403.8696212659378 86.51452773075194, 385.4490763930504 65.19134551807365 M418.728189724965 100.34325237991587 C411.42782047637803 92.73693315986282, 403.945118799525 85.27344282296039, 385.38659480567026 65.94264108984788 M429.0542609593068 102.22193367713253 C419.17206418296115 92.85929431161978, 411.1680541452672 84.33226839334114, 389.604479579206 62.66296793652753 M428.6120993105863 101.83698828973928 C413.3995894107198 86.98579822913061, 398.24358074628964 71.71956822642825, 389.41292229774166 63.201434371453324 M436.4916702193638 100.38711002105035 C424.11913083404403 89.24811087260296, 410.8347428054043 74.46544146044887, 395.35012934775415 60.43871328014747 M437.261369155856 101.32447343626178 C424.41548491155584 88.75934790296552, 411.16815581776143 74.58110502705132, 396.0869190101451 60.41250655356661 M444.9273025932539 100.62454207157464 C433.01713223229433 87.85679572700607, 418.28823266831023 74.30093130782788, 402.2285015894469 59.06095978343534 M445.6254644403983 100.79506557723255 C429.30127897936177 84.32009058265339, 412.5031193494922 68.55250246119145, 402.6453235289451 57.87280130037713 M451.7124543152884 100.91042840676684 C439.69739943059676 86.20867181802525, 424.06778406041735 70.97311515222206, 410.3987050385957 57.223093524452736 M452.51869409383687 100.51077872040051 C443.6228190195965 91.79350474081437, 435.51952250067023 82.28788025519803, 409.6860385337656 56.498238869633965 M460.3866273385926 100.54354832350207 C446.926761484705 84.16040296671326, 431.1833652343696 69.1849210115744, 416.35094736713904 56.1839745188881 M460.28810401460964 99.12417634232831 C450.05829714571166 88.58726346444503, 438.0929912893952 76.96578290071585, 416.80759689185754 55.11318220671306 M467.9275293351046 98.49526183746868 C455.3134231403462 83.82665099602097, 441.34628151973817 71.65723629267987, 424.5849623093884 53.746363844803014 M467.9884770699672 98.10337138839179 C451.75544508314573 82.59244940757873, 437.1296802106444 67.35915332131702, 424.612588782845 55.30386406936351 M475.0152872579497 95.57372324554174 C458.02948327474536 81.52947576651037, 443.16251882364674 64.5491328859989, 432.0315825372824 54.178496517885876 M474.37154665834726 95.5712398351535 C464.33354764347786 86.22315810569938, 453.79971442076896 75.50636489725747, 432.2542345739791 54.6149599029612 M480.4824473414393 92.77388112578276 C471.09163656987766 85.48876589975194, 463.3453278252672 77.68018041029889, 439.0240600039458 54.2854018350117 M480.66099670937376 94.33042069036249 C469.71812224834537 83.13582175421807, 457.7424124560053 71.00108843854728, 439.932705163697 53.095908184068655 M484.9355479763253 89.1990512126936 C472.74423093626507 76.93925207464575, 458.0049477305542 63.95412583991264, 449.9622795060635 55.17311693661515 M485.69903455911117 90.25988886820808 C470.99240686398673 76.4955506202299, 457.44656750621476 61.98742693590462, 449.4843355439961 54.34012398280804 M490.8619739592924 88.46777064670901 C480.95754474832773 76.646939604784, 470.8317527654581 68.16019533996247, 458.29169087201416 55.92761899482502 M490.7782451995566 87.19680943881254 C483.8511606380756 80.06907207139669, 475.41919213383716 72.36779867175726, 458.8855569885677 55.638931150995624 M493.3946751187195 81.37851659995776 C489.51801333369605 77.48301392622481, 482.5552693935837 70.51579048248101, 471.46701746085546 58.47853371244907 M495.1313099044014 82.07625625399214 C486.51543844807406 75.08090065703978, 479.4128294098524 66.77164388894442, 471.5416055517819 58.92027082112669 M496.696402206504 75.87283392596322 C494.28498277288395 73.07564581490865, 491.1097669115479 71.19545518302668, 485.2362369296505 64.89967304840927 M495.75428214226775 75.79521317920911 C492.7671089294755 71.98593222135133, 488.40462433911443 67.9602911335117, 484.98068635942326 64.61809761096035 M491.5408591669215 87.07578032821641 C491.5408591669215 87.07578032821641, 491.5408591669215 87.07578032821641, 491.5408591669215 87.07578032821641 M491.5408591669215 87.07578032821641 C491.5408591669215 87.07578032821641, 491.5408591669215 87.07578032821641, 491.5408591669215 87.07578032821641 M495.0712275629747 75.3106376504006 C488.1281973014556 82.64469676322624, 479.18380675011804 91.30965234752274, 474.91150966413426 95.06564439811797 M495.5147095156717 74.6279762891533 C490.1547671257468 79.47038792959403, 484.6780560606889 84.92734992543802, 474.304830755816 96.06806096636743 M491.51326252186436 69.9875640235712 C479.2104077572041 82.1616121981616, 467.60468027161903 93.07635686514318, 462.76330261646115 98.07316922316383 M491.510363024862 70.42594422249692 C483.94419709967275 78.83640592794174, 474.9738085140014 86.88129593268042, 462.54374521864855 99.4180194109125 M487.862358485212 64.66477802509634 C479.73462538507164 73.59076865370324, 474.3609303827199 80.30177673588894, 453.08664555730365 98.63602394250654 M487.7722824030121 65.40221415797441 C479.3928992707943 73.0065071614707, 472.8983416090016 80.706144855612, 453.6836537923112 100.02053599072121 M482.39466062495603 63.004415733037476 C467.97893689158855 75.9737346589797, 453.67907735748435 89.2540469213554, 443.4941758150408 99.80485247776714 M482.06853176737326 63.23833135333467 C469.6383726769875 75.30045299849851, 457.27683674113433 87.24647570498155, 444.6298940004954 100.05738255710212 M475.05294695659467 59.12698038189667 C468.10833993090966 69.22769488540605, 459.0869152775301 78.06255566549456, 433.7151635616109 101.83866590700734 M476.2033393287558 59.71717697276729 C462.4169881781729 74.04833921902977, 449.650515786562 87.44003324455181, 433.698967460452 102.4366668678044 M469.6539876520662 57.0039830497353 C453.16813671339327 74.29480973021961, 437.8452532279458 89.02895649081354, 426.25972537488514 101.54062890235579 M469.74945670441076 58.590608774021135 C458.7571642997239 67.88952449552629, 449.12865675007544 78.65781666736713, 426.00775344536476 101.80361902464426 M461.56697216449584 56.3795155334285 C445.19384861293594 73.56541194095375, 430.0395695031809 89.26862522429276, 419.583542864429 101.49334110424726 M462.05158604277574 56.376033983658864 C453.55088591923084 65.63687532893553, 443.1462412193943 75.18219576424568, 418.1632275101116 101.05087284774393 M456.16350922819487 55.92025034866465 C445.22347609372144 63.945884468446046, 437.17017425493174 73.20063512925724, 412.0089304833673 98.93776930955669 M455.0013800234746 55.18140929705633 C445.39586659899794 64.70493992184117, 436.6916280866643 74.44957340792975, 410.50852930312976 100.27239806366583 M446.746306515102 53.686761073505316 C436.3968822605615 65.8814652393823, 427.92298989997073 73.69916482043196, 405.0677287471983 96.83035425278597 M447.6911215137585 54.851561221962605 C432.77181870215037 69.51579126274375, 417.50439059274186 84.83466170918835, 404.3908557852301 97.0956070865994 M440.6275977595286 54.65509522363898 C422.0960549053035 71.42938977942661, 407.23459688291246 86.44185717071416, 398.50866354667374 94.43565129318324 M439.61715069325135 53.36475895375368 C430.0425232652143 63.7011893855241, 419.4737036820562 74.45632679399955, 398.29382054247685 95.34899570548026 M431.5507156334132 52.69520137712714 C416.7094681990378 69.3288486373666, 400.6356217736285 84.60075033010996, 391.38998683491883 93.43368972762349 M431.8264379292041 54.08614150017855 C417.79102527117277 67.5689993862583, 402.65955826560554 82.15798783042413, 391.2550944733077 93.24450239687089 M422.66141208988074 55.59960883084482 C410.06684155107047 68.34326006222851, 395.02719733704333 80.24284919202717, 385.42236984624486 89.77707957179513 M422.2129041200543 54.871397337799735 C410.72483864795464 66.58483057778717, 399.36183782633987 77.42538457628184, 386.13429900734644 90.90961510614719 M413.7578583632429 54.633427600480445 C400.1532174592158 66.96729253655045, 389.31255469023847 80.91963361973679, 379.69758275259056 88.56233190375976 M413.09242069542603 54.89176441199315 C404.3497502984447 64.52492493132897, 394.60233984980823 73.73124842012665, 380.6666857618443 87.3336915910583 M401.8051110630649 57.6198823264687 C395.9533645681985 63.77077055721168, 390.60775612343696 70.6446344646197, 376.58113535064035 83.7372181768327 M402.04227571019703 57.794564042881 C396.0105059784333 64.30735294842819, 390.0958946926569 70.03606526264693, 376.8807772287982 82.95031873460701 M385.6440621402763 65.22996063790096 C384.4712872561815 66.78892310470609, 382.0826934158995 68.95679039774691, 376.5884816123484 75.08187714910521 M386.26780530950947 64.9764826938398 C383.0331686642186 68.90331904217817, 379.42072236860895 72.34469733699439, 376.1062444115369 75.08995677693203" stroke="#ffffff" stroke-width="0.5" fill="none" stroke-linecap="round" stroke-linejoin="round"></path><path d="M376 78 C375.7727508738637 97.33264088858841, 427.1133233740926 108.45480482073603, 464.8002157881856 98.40092119775355 M466 98.78460969082653 C484.01166866121287 93.79279543629943, 495.74160520583393 86.39926496655706, 495.1916110232472 77.85570316761732 M496 78 C496.48640529662373 59.59486470888377, 446.9093722060323 48.28354338614167, 406.1042297080159 58.087625945586566 M406 57.21539030917347 C388.2501388192416 61.516093580209635, 375.64011070281265 68.40936131267783, 375.21468317061664 77.97132883518934 M376 78 C376 78, 376 78, 376 78" stroke="#1d4ed8" stroke-width="1.25" fill="none" stroke-linecap="round" stroke-linejoin="round"></path></g><text x="436" y="78" text-anchor="middle" dominant-baseline="central" font-family="&quot;Courier New&quot;, ui-monospace, monospace" font-size="13" fill="#1d4ed8">Ship</text></g><g><g><path d="M375.7422074112307 209.74220741123065 C375.7422074112307 209.74220741123065, 375.7422074112307 209.74220741123065, 375.7422074112307 209.74220741123065 M375.7422074112307 209.74220741123065 C375.7422074112307 209.74220741123065, 375.7422074112307 209.74220741123065, 375.7422074112307 209.74220741123065 M384.37040136978896 209.23556510798738 C381.6384797205934 207.8787953370782, 380.8541484819191 206.08792267937463, 375.3674480123084 201.96598065748154 M383.89981123168883 210.09900887865678 C382.4330922518757 208.1612559176573, 380.76714473510793 205.8606176464759, 375.8155404363211 201.5953801755169 M393.3458616865589 210.5033000386517 C387.1025699042027 205.0540271084936, 382.30794862936835 199.86306467669976, 376.45455903701594 193.8969729416676 M392.5876308280765 209.94153023373443 C388.7912182448825 205.52572527146987, 385.5422751137433 202.36932317932067, 375.1944646452751 192.2805892186843 M402.0244077717006 210.7841600454609 C393.39593296276644 201.7114046737625, 386.876223328547 195.78046359327683, 376.34215320043376 183.469553908833 M401.75093814535586 210.1318267584975 C395.39500470474354 204.50589531218426, 389.60962724639757 199.2952660003723, 376.33674248803516 183.88905571655994 M410.4216638025211 209.71280790932582 C398.9273890561892 199.53661192203018, 390.26769043896695 190.56326715517258, 376.534724399374 175.3886165807103 M409.91354832671004 209.27067503344372 C398.9611896554275 198.10240476547318, 387.3604792453573 187.59245087901206, 375.38216230619804 175.66381688454052 M418.032588275114 210.0308085716526 C401.04811541047457 193.28451323266668, 386.6380538628329 177.55446016795807, 374.7987155049305 166.41799152370578 M417.671048530342 209.7457886816199 C401.70931838451105 193.51903410216323, 385.4558241190866 177.32055913195438, 375.356194070467 167.66582853317294 M426.0642490605731 210.9113675988476 C411.2131421076241 194.42654739232663, 395.0823974642958 178.6241289504373, 378.2786058879431 162.74407705397186 M426.10359622695483 209.43843601357295 C410.3309589054028 193.4440451842972, 395.6431192135085 178.35069507875625, 378.67855518879105 161.89677828525032 M435.97332340499224 210.02183118231702 C420.92886595581626 194.27991135538252, 405.9691830997056 180.48512925515408, 386.0059842942519 161.20991211266093 M434.8071691997519 209.39219002734976 C424.7213872909619 198.65361361260395, 413.91276387758205 188.59361072124636, 386.5660333816199 161.73940845106566 M444.403597929465 209.18618613846704 C431.94681419692387 198.85168521395192, 421.1788178210917 186.78201473438287, 395.75176747045805 162.092394891687 M444.1248155444361 210.0816784084971 C429.4987607325577 196.0802502238371, 416.90273536977713 182.15359008827897, 395.7784553076639 161.5409846541735 M451.32346863008524 209.247559908704 C439.27252417836667 196.92880151802825, 424.61545403516413 183.2839267474072, 403.5058357876554 162.5069184574562 M451.9779036692106 209.481333530062 C436.0208706654398 193.11971131502133, 419.21525419852446 176.9352716750599, 404.19207218762637 161.8241814551207 M459.7634408779467 210.93072055943418 C449.98697839768124 197.5705586376729, 437.4730282728272 185.4217114476562, 413.15767899193787 162.41301650137484 M460.8973722947786 210.13414245259125 C450.301857784565 199.4183457081611, 440.75481245462333 189.45230882443602, 412.77395555471054 161.69897810195417 M469.55362941914314 209.7045767820637 C452.0798789573557 193.47819790416094, 434.35426846648545 175.34322974632138, 421.8338962043989 160.6768633398491 M468.8549804543432 210.02039692413166 C450.8386571450096 190.7869409771704, 432.14815746418907 172.73475450636042, 420.6132472546193 161.13140853022065 M477.06125837476833 208.64467789299894 C460.9394702575894 191.08302378974042, 442.7877933704389 173.02875421975153, 430.4356959211325 161.93377391428524 M477.4945574936075 209.62644338023026 C467.4685969306473 199.76132091672275, 456.2035819115795 189.09135014099064, 428.95240944555604 161.41231136296713 M485.7281612409159 210.89571383364603 C473.5550137977479 195.977580355536, 459.11632018480987 183.40787837982788, 438.57639601323217 160.65070379108963 M486.5632530707746 210.01343294393376 C468.9999718042242 191.95111967222292, 450.9851657247715 175.10196826396245, 437.4184745982236 161.42607991074053 M493.8082808886797 210.93401517041133 C481.80160127933334 197.1063628813805, 471.54214548960033 185.51089613488324, 445.51892372679185 162.3887491616684 M494.94278715654764 210.28607142578915 C476.1811976552062 190.52713726755098, 456.2335788498686 172.3566160807933, 446.8542954958252 161.7194121715876 M495.434101752288 201.55898528283558 C481.9718648199707 187.85297756651408, 467.5599325378306 173.05703856955319, 454.7133156829053 160.66564684242783 M496.40963222226435 202.19030151197782 C484.65254881024856 191.37830265507358, 473.75531523469965 180.0498952900235, 454.3497952340642 161.97006083105535 M495.35313970232687 194.55459023681732 C487.80938774785193 184.5027780148912, 479.4812744425418 176.6082628226411, 462.7342178776662 160.61827427477417 M495.6652531131201 194.58104263753893 C485.3777411314312 183.48495907457905, 475.1771905441287 173.4772020592256, 463.27321722114334 161.4555832621905 M495.29487929726326 186.58129603613605 C490.47085484526536 181.1020381697918, 486.7773144312805 175.20889503268532, 471.0183856821683 160.66514952511363 M495.39679429969124 186.1203782378926 C489.33924248674026 179.58851232947893, 482.63833504514173 172.7010577158109, 472.30237517776607 161.32209152554 M496.5367009081908 177.26699574719797 C491.72058652450625 172.6900841431061, 489.4395920352013 169.38407418043536, 479.6021838425053 161.7689312848526 M496.5367570026808 177.57473287358565 C490.48138909357357 171.86454209005285, 485.3483687845693 167.43927888449176, 480.65590313713534 161.45300236915082 M495.5029772470736 168.30686858191007 C493.7555137225826 166.85415893591258, 491.90563841504985 165.0997604345437, 489.0691894404247 161.37893258047131 M496.2294114841179 168.81392494753786 C493.3732433159133 166.5121456598469, 491.13360141882157 163.90508352449876, 489.00189892301626 161.59836675955754 M495.8355697996826 210.16443020031747 C495.8355697996826 210.16443020031747, 495.8355697996826 210.16443020031747, 495.8355697996826 210.16443020031747 M495.8355697996826 210.16443020031747 C495.8355697996826 210.16443020031747, 495.8355697996826 210.16443020031747, 495.8355697996826 210.16443020031747 M495.9587149756314 201.69993704766168 C492.4866406878247 204.2572092681226, 489.11624799854616 208.42079939850223, 487.558364462389 210.20280957170723 M495.7945483347313 201.53201416012033 C493.81762890014227 203.4915007526713, 492.60425434446415 205.4853325570371, 487.5709365664631 210.11084533070175 M496.5114526454271 193.13471438414726 C493.004073399385 195.77579475957955, 489.197079192385 199.04998123495108, 478.4771736164896 209.0567030306995 M495.551017917125 192.7899445153338 C489.2834238153759 199.85865168838941, 482.8021049797943 205.40831988539068, 478.89497713105214 209.65015447941573 M495.513218027717 183.6662015250187 C488.1334154449458 190.49053207383108, 483.1437592988115 199.31464733404002, 469.54536012393055 211.3048195835292 M496.3930674502538 184.47767679842667 C491.0571807524268 190.05500071115404, 485.1163263203207 195.1254441287033, 470.695513791224 209.97249350753572 M496.9836445275606 176.5384941010708 C485.24095158741187 187.23878592339034, 472.3608980367379 198.17388574634205, 462.62316233876896 209.31274791919589 M496.0395223865197 176.4186239176402 C484.3086588655647 187.30981534710557, 472.42595634295293 198.8113738229339, 461.43945121586125 209.59313404169828 M496.78487814105165 168.6009695537098 C482.8173668877712 182.00895743619927, 468.57254421794 195.01398384901142, 452.59421063209857 210.00213110410567 M495.514876134126 167.53409324602114 C485.4165515221909 177.30615524583305, 475.62952687083634 188.46370516192758, 453.00616562566694 210.2816256424501 M494.0127471145377 161.21307307408821 C475.87921508488 178.89427613269635, 458.1939436161007 196.96072912765976, 445.2417447500132 210.53875282966493 M492.5247652890295 162.0423739688627 C481.7753384042174 173.77867386194393, 468.96755271294194 184.90543147323277, 445.26585355384424 210.29482255783824 M485.1626890693664 161.8783904783583 C467.58317239745975 176.97076505237925, 451.9796866135943 194.12348045813187, 435.3861138136065 211.1950374122798 M484.71564675968733 162.2990599589578 C474.4768592849167 171.4821715998538, 464.51865184727876 181.73894995652861, 435.91078184609626 210.2456337234094 M477.1525323761237 162.22186683343418 C456.7244550293976 180.3093956685997, 438.35477410952524 198.9746746185624, 427.0222763189723 210.21254979335666 M475.5913291412947 162.58051840236107 C463.0250311614834 174.37453407223998, 450.0670754315691 187.97618706396466, 428.08653766062605 209.97177276221066 M466.91786053090357 161.39444208072197 C451.01112988945835 178.90595665990134, 434.97511294307424 193.79351035707887, 418.65730013720423 209.46449553930162 M468.00208709205504 162.49477542211932 C450.191584186226 179.1812427107383, 433.62713424636087 195.9344185989372, 419.4232784681368 209.6045079847887 M458.8063664047996 161.27869678662785 C447.71316118837865 173.47887951604852, 436.41976726503475 183.620569223389, 411.44786251439615 209.318220841521 M458.8327655826712 162.39341182877936 C442.3358810558609 178.7334292529869, 424.8498162312971 196.28752605615787, 410.86698205183166 210.03741238919045 M451.1153522439056 161.35135214255817 C440.55886274966 172.87648787368266, 428.4564047917619 183.8960709612805, 401.73775007164187 209.49771251642107 M450.23402989634656 162.64031312038819 C432.6921531178246 180.07654249593563, 415.1368655922372 198.14782037415372, 402.9106965074138 210.39511366096286 M443.0292296693154 161.94576996491915 C422.81562091539485 181.26957209749472, 405.6826875420865 200.29178025870578, 393.995358805035 211.146098005408 M442.25361562878413 162.28041948249256 C425.814821514099 177.9137244657095, 409.7712297303712 194.82429231984133, 393.62579024308616 209.70204417315267 M433.1570196771225 161.5144526951171 C417.1877970014719 179.06478951133113, 401.6098204598141 192.63876081159486, 386.15119408566926 210.48814537488815 M433.267578688187 161.9084757881395 C420.8657332875228 174.88367751753898, 408.03113834934123 188.473636587648, 385.693201979552 210.35119098630693 M424.0698526384209 162.29154339955818 C415.0127389383054 173.52035093770573, 403.919317540719 183.08230737710124, 377.73537065963853 210.4927633162677 M424.61154529525834 162.33778159787576 C413.87257530437836 174.28334668700103, 401.1003387148428 185.9711128137375, 377.2346907500144 210.1728458484724 M416.0384682993043 162.7553257696486 C408.78931360984154 171.45782373872282, 400.64546631741626 179.13981666866027, 376.68618045990206 202.66443333408742 M416.21196198320126 162.6689411597482 C404.08870464121054 173.88443316511038, 391.78913332046466 186.56585177208058, 375.91515371204207 203.63228738333046 M409.1707157808663 160.89072412179482 C399.48903467176893 169.9490389141546, 391.34432945245743 177.32982067918132, 375.68860273306103 193.704699619246 M407.6173455977188 162.55861340930383 C395.48251616105654 174.26368581231807, 383.37367399620416 186.06122035616823, 375.9748862743455 194.89752096342045 M399.54905357920086 161.0518033974028 C393.67005335770887 169.22531566117388, 384.71822409737706 175.5707226879241, 376.08236678783635 187.0041063005227 M399.6295332970143 161.48826196958936 C393.89552310161866 167.79328675695248, 389.124942690064 172.63430698402843, 375.0313948452551 185.53746596166224 M390.96804956540154 162.82426916287906 C384.8232218877043 168.20405734882385, 378.349688277665 175.1194902584847, 376.3710248703215 177.93312456932384 M391.7349325517906 162.2329051511518 C387.74267978709855 164.89746443680835, 384.9694362387954 167.93217258090615, 375.28221970797364 177.8191328761028 M383.28518289769863 162.58456834463095 C380.71728694530884 164.0214003143808, 380.0760978802994 165.7687349520526, 375.48632779979 168.63555156677666 M382.6171279775431 161.90551751583507 C380.4429610088299 164.1817157985001, 378.8816441015647 165.9911035656744, 375.774694228087 168.97141189189333" stroke="#ffffff" stroke-width="0.5" fill="none" stroke-linecap="round" stroke-linejoin="round"></path><path d="M376.1717903431505 162.49165421761572 C399.04343588091433 163.37368851689993, 424.72502366416154 161.89367980746925, 496.01921603046355 163.1770065072924 M496.90800662077964 161.18759165368974 C496.3356228225023 176.80665077380834, 496.6172615282327 190.51306913159786, 494.9177542809397 209.71689524017273 M495.8101127322763 209.5516997102648 C462.39533040709796 208.64324297712741, 427.5685542922467 209.63009637401998, 375.37164326272904 209.7919351939112 M375.3860662583262 210.00435566268862 C375.1012724422008 193.22431352846326, 376.4424612425357 177.33391334675252, 376.04126107729974 161.71346233449876" stroke="#1d4ed8" stroke-width="1.25" fill="none" stroke-linecap="round" stroke-linejoin="round"></path></g><text x="436" y="186" text-anchor="middle" dominant-baseline="central" font-family="&quot;Courier New&quot;, ui-monospace, monospace" font-size="13" fill="#1d4ed8">Fix it</text></g></g></svg>