<svg xmlns="http://www.w3.org/2000/svg" viewBox="0 0 680 560" width="680" height="560" role="img"><g transform="translate(40, 24)"><g><g><path d="M306.8005064804107 251.248315904662 C324.0432011954229 240.21716229923737, 338.04717420206595 228.0922623260836, 382.12272475957985 191.39278813177094" stroke="#1d4ed8" stroke-width="1.25" fill="none" stroke-linecap="round" stroke-linejoin="round"></path></g></g><g><g><path d="M306.8005064804107 251.248315904662 C309.1009146063596 271.288340325281, 308.0913612096578 290.3393491666764, 307.066902442649 347.24780911020935" stroke="#1d4ed8" stroke-width="1.25" fill="none" stroke-linecap="round" stroke-linejoin="round"></path></g></g><g><g><path d="M306.8005064804107 251.248315904662 C294.01614838873337 240.00770072222633, 277.99306858868675 227.88280074907257, 232.01108012571814 191.39278813177094" stroke="#1d4ed8" stroke-width="1.25" fill="none" stroke-linecap="round" stroke-linejoin="round"></path></g></g><g><g><path d="M381.8563287973416 191.3932949262236 C399.09902351235377 180.36214132079897, 413.1029965189968 168.23724134764518, 457.1785470765107 131.5377671533325" stroke="#1d4ed8" stroke-width="1.25" fill="none" stroke-linecap="round" stroke-linejoin="round"></path></g></g><g><g><path d="M306.8005064804107 347.24831590466204 C325.7559806399217 363.6011889053033, 341.41018438090924 378.8488039211988, 390.37258035322014 424.2338317474738" stroke="#1d4ed8" stroke-width="1.25" fill="none" stroke-linecap="round" stroke-linejoin="round"></path></g></g><g><g><path d="M306.8005064804107 347.24831590466204 C292.4284663645431 363.368704094259, 274.755155830152 378.6163191101545, 223.76122453207785 424.2338317474738" stroke="#1d4ed8" stroke-width="1.25" fill="none" stroke-linecap="round" stroke-linejoin="round"></path></g></g><g><g><path d="M231.74468416347983 191.3932949262236 C218.9603260718025 180.15267974378793, 202.93724627175592 168.02777977063417, 156.95525780878725 131.53776715333254" stroke="#1d4ed8" stroke-width="1.25" fill="none" stroke-linecap="round" stroke-linejoin="round"></path></g></g><g><g><path d="M251.98806971795858 230.31335557810962 L364.18711092956363 230.63168096654118 L362.8719359088689 274.61825701110064 L252.8841828394681 272.9898439656943" stroke="none" stroke-width="0" fill="#ffffff" stroke-linecap="round" stroke-linejoin="round"></path><path d="M253.5143580686301 230.57833084352313 C274.80864222031084 230.6444014577493, 296.6649148210883 228.90839971586317, 362.5238432060927 230.23540130145847 M362.2216013241559 230.31751833073795 C363.5032361050844 240.7159225873649, 363.0795638462305 249.77179869152604, 362.30355085618794 274.90337904803454 M363.92202254645525 272.95033994205295 C339.73408914450556 274.79837411922966, 316.2237569846213 273.0757447986081, 253.83432865254582 273.4783870387822 M253.35721325166523 273.04087113253775 C253.2571965084374 261.1584457248449, 252.0854342685044 250.41394870765507, 253.48825221545994 230.42269246689975" stroke="#1d4ed8" stroke-width="1.25" fill="none" stroke-linecap="round" stroke-linejoin="round"></path></g><text x="308" y="252" text-anchor="middle" dominant-baseline="central" font-family="&quot;Courier New&quot;, ui-monospace, monospace" font-size="13" fill="#1d4ed8">Launch</text></g><g><g><path d="M330.231961752848 171.57169017778085 L436.23004417605813 172.20834095464394 L435.9996941346687 212.18149304376288 L332.0241879958671 211.32466695295022" stroke="none" stroke-width="0" fill="#ffffff" stroke-linecap="round" stroke-linejoin="round"></path><path d="M330.88453845419104 172.10164070860787 C352.6730528105062 172.4892184423034, 373.1855440650147 171.41721495853113, 435.3035087291163 171.41578162447854 M434.6990249652427 171.5800156830375 C434.96267760826765 182.6060090614979, 434.11533309055983 190.94694613502668, 434.8629240293067 212.75173711763068 M435.6998674098414 211.2456589056675 C410.7340282816452 212.28555788858577, 387.12339163757974 211.2402992473428, 331.52447962202245 212.30175309912607 M330.5702488202613 211.42672128663705 C330.4722593738001 197.80903650955602, 330.5287348939341 184.06720851348086, 330.83232674785074 171.7903639553611" stroke="#1d4ed8" stroke-width="1.25" fill="none" stroke-linecap="round" stroke-linejoin="round"></path></g><text x="383.05582231693086" y="192.1449790215616" text-anchor="middle" dominant-baseline="central" font-family="&quot;Courier New&quot;, ui-monospace, monospace" font-size="13" fill="#1d4ed8">Marketing</text></g><g><g><path d="M255.36420915387572 328.94006673432887 L361.1613327886909 327.4950428996235 L359.6158077266067 367.45477103330194 L255.65254851840436 367.36953189708294" stroke="none" stroke-width="0" fill="#ffffff" stroke-linecap="round" stroke-linejoin="round"></path><path d="M255.1430742058903 327.3349925305694 C276.225845740363 327.5419591311127, 296.59458262212576 327.1339539054543, 360.97152961827817 328.70620390437546 M360.06480397246776 328.95255499221383 C359.11628293700517 339.09154505990443, 360.2452661604434 350.0029506701976, 360.3106525685638 368.31013714410363 M360.3660676393658 367.2510198261589 C333.31730894707147 367.98526830053623, 308.3013539809734 367.6173803386718, 256.10298595763743 368.83516111634674 M257.0716397549957 367.52261339761316 C256.78065558530386 359.09608623199165, 255.66536886550486 351.68334423787894, 255.06475664637983 326.86807740069924" stroke="#1d4ed8" stroke-width="1.25" fill="none" stroke-linecap="round" stroke-linejoin="round"></path></g><text x="308" y="348" text-anchor="middle" dominant-baseline="central" font-family="&quot;Courier New&quot;, ui-monospace, monospace" font-size="13" fill="#1d4ed8">Engineering</text></g><g><g><path d="M180.49645655490343 172.1984013340001 L286.0926214013237 171.07170288772627 L285.63192131854476 211.01800706596418 L181.68090904094163 211.70435488433884" stroke="none" stroke-width="0" fill="#ffffff" stroke-linecap="round" stroke-linejoin="round"></path><path d="M181.80160995758953 173.25830239565417 C202.1786386702198 171.3838578630452, 222.4036211792368 171.63985089550064, 284.23955050744 171.8865842273955 M285.4305829796929 172.2150523445134 C285.8618882657427 183.86703910143422, 284.16719923032707 194.94891324849175, 285.7583811078209 212.15849521369978 M285.0322678688902 211.54633878977344 C255.90058961249773 211.47573675560997, 229.47931632436695 211.785219473124, 180.68149229325238 211.25852717669056 M181.17303068973007 211.9084635517125 C180.8810517968077 200.67309399755047, 180.99400283707564 189.18943800540015, 181.6971865449089 172.6357488891606" stroke="#1d4ed8" stroke-width="1.25" fill="none" stroke-linecap="round" stroke-linejoin="round"></path></g><text x="232.94417768306914" y="192.1449790215616" text-anchor="middle" dominant-baseline="central" font-family="&quot;Courier New&quot;, ui-monospace, monospace" font-size="13" fill="#1d4ed8">Ops</text></g><g><g><path d="M407.8519932236546 112.45673593367127 L509.2471992816799 114.04836287582901 L507.47132417820626 151.9812430986264 L407.5325588312023 151.03917787159472" stroke="none" stroke-width="0" fill="#ffffff" stroke-linecap="round" stroke-linejoin="round"></path><path d="M408.28343497701223 113.78161226073888 C427.15463095605605 114.61628410371628, 448.83576918058327 113.13627539428559, 508.13086066432527 114.46696455041555 M509.01965125464136 112.4775496968129 C508.4266617136636 125.02901422447202, 508.708300419394 135.66783798980202, 507.0293989148014 151.0068532832959 M507.921757366138 150.84165775338798 C480.2572056718194 149.97445625829187, 451.18066018782787 150.96130965518444, 407.48328789659075 151.08189323703436 M407.4977108921879 151.2943137058118 C407.202692326028 137.93405931098997, 408.5438811263629 125.46344686868278, 408.15290571116145 113.00342037762192" stroke="#1d4ed8" stroke-width="1.25" fill="none" stroke-linecap="round" stroke-linejoin="round"></path></g><text x="458.1116446338617" y="132.28995804312316" text-anchor="middle" dominant-baseline="central" font-family="&quot;Courier New&quot;, ui-monospace, monospace" font-size="13" fill="#1d4ed8">Campaign</text></g><g><g><path d="M341.2340962183226 406.6661561059222 L442.428343487953 406.17610843651147 L441.7372933637846 444.0955647038684 L341.81077494737985 443.9250864314303" stroke="none" stroke-width="0" fill="#ffffff" stroke-linecap="round" stroke-linejoin="round"></path><path d="M340.79182632235177 405.85600769840335 C361.3572614972044 406.52161390997617, 380.494627366637 405.70560345865937, 442.04873714712744 406.1984304460153 M440.23528585550673 406.69113262169213 C440.8360184063334 418.3128900548831, 440.69398485320994 431.4794785732791, 440.7269830476988 443.40629692547174 M440.8378131893027 443.6880622895822 C411.1603511561203 444.9034204954669, 380.74849657533053 444.1676445717379, 340.311649825846 444.4563448699579 M342.24895742056253 444.2312494324908 C341.76725514117066 435.7989441587046, 341.9366817015726 426.994209227936, 340.6351912033308 404.92217743866297" stroke="#1d4ed8" stroke-width="1.25" fill="none" stroke-linecap="round" stroke-linejoin="round"></path></g><text x="391.30567791057115" y="424.98602263726445" text-anchor="middle" dominant-baseline="central" font-family="&quot;Courier New&quot;, ui-monospace, monospace" font-size="13" fill="#1d4ed8">API</text></g><g><g><path d="M174.81081011513885 405.77951168403183 L275.80409859637433 405.60778940305266 L273.79787345151124 443.513821714969 L173.8836019657057 444.1149303971246" stroke="none" stroke-width="0" fill="#ffffff" stroke-linecap="round" stroke-linejoin="round"></path><path d="M173.49482856983954 405.2343385419265 C195.7545029405009 406.2108791220948, 214.74809645483907 406.05886692889186, 273.76122453207785 405.2338317474738 M274.04553135852035 405.80865095243007 C273.6223860011514 418.90070129115287, 275.45668018917405 432.1950545626149, 274.61917808274444 443.1096759735063 M273.9484799146157 443.8384022316352 C242.25810754256958 444.25632013850066, 210.51094386498147 444.19791489415024, 175.73462265724953 445.13473190874015 M174.7948148510855 444.4721205650285 C174.30882885846162 433.367764412278, 175.70649317893054 423.0289069930479, 175.71208759764846 406.54486990556273" stroke="#1d4ed8" stroke-width="1.25" fill="none" stroke-linecap="round" stroke-linejoin="round"></path></g><text x="224.69432208942885" y="424.98602263726445" text-anchor="middle" dominant-baseline="central" font-family="&quot;Courier New&quot;, ui-monospace, monospace" font-size="13" fill="#1d4ed8">Web app</text></g><g><g><path d="M108.19291310980681 112.19680266800017 L208.98524280264738 112.34340577545257 L208.06384263708952 150.23601413192839 L108.16181808188323 151.60870976867767" stroke="none" stroke-width="0" fill="#ffffff" stroke-linecap="round" stroke-linejoin="round"></path><path d="M108.40321991517905 114.31660479130835 C127.5571334816492 112.7240797400722, 148.80695464089277 113.23606580498308, 207.67910101488 113.97316845479102 M207.66116595938567 112.23010468902677 C208.43174269382123 126.79244793328138, 207.44236462298994 142.61456595780942, 208.31676221564177 150.11699042739957 M206.86453573778036 151.29267757954688 C173.16125302687053 151.39315518739315, 140.07878025248408 152.0121206224212, 108.56298458650474 150.71705435338112 M107.14606137946014 152.01692710342496 C109.05579167360429 138.24052007171005, 106.88169375414019 123.96754016401857, 108.1943730898178 113.07149777832122" stroke="#1d4ed8" stroke-width="1.25" fill="none" stroke-linecap="round" stroke-linejoin="round"></path></g><text x="157.88835536613826" y="132.2899580431232" text-anchor="middle" dominant-baseline="central" font-family="&quot;Courier New&quot;, ui-monospace, monospace" font-size="13" fill="#1d4ed8">Support</text></g></g></svg>