<svg xmlns="http://www.w3.org/2000/svg" viewBox="30.10526315789474 -40 515.7894736842104 324" width="640" height="300" role="img"><g><g><g><path d="M324.695243322516 23.248315904662014 C326.9686831222844 31.486483647767454, 325.9591297255826 38.73563581164926, 324.96163928475426 60.247809110209346 M325.24594611119676 60.82262831516564 C274.46343121867824 60.297082182756064, 225.97501842271737 60.31183222233355, 181.81959283542088 60.123653336241844 M181.14889466729213 60.852379594370724 C181.7783304546905 73.30018150145189, 182.2827811931205 85.17487359102816, 182.93503740992597 99.14870927147567" stroke="#1d4ed8" stroke-width="1.25" fill="none" stroke-linecap="round" stroke-linejoin="round"></path></g></g><g><g><path d="M324.695243322516 23.248315904662014 C326.9686831222844 31.486483647767454, 325.9591297255826 38.73563581164926, 324.96163928475426 60.247809110209346 M325.24594611119676 60.82262831516564 C375.1088451866452 60.973068661251666, 427.2658463586514 60.98781870082915, 469.81959283542085 60.123653336241844 M469.1488946672921 60.852379594370724 C469.7783304546905 73.30018150145189, 470.2827811931205 85.17487359102816, 470.93503740992594 99.14870927147567" stroke="#1d4ed8" stroke-width="1.25" fill="none" stroke-linecap="round" stroke-linejoin="round"></path></g></g><g><g><path d="M180.69524332251598 145.248315904662 C182.96868312228446 153.48648364776744, 181.95912972558267 160.73563581164927, 180.96163928475428 182.24780911020935 M181.2459461111968 182.82262831516564 C154.30050294793358 182.4571842434524, 129.64916188122805 182.47193428302987, 106.03011915121031 182.12365333624183 M105.35942098308159 182.85237959437072 C105.98885677047996 195.30018150145187, 106.49330750890998 207.17487359102816, 107.1455637257154 221.14870927147567" stroke="#1d4ed8" stroke-width="1.25" fill="none" stroke-linecap="round" stroke-linejoin="round"></path></g></g><g><g><path d="M180.69524332251598 145.248315904662 C182.96868312228446 153.48648364776744, 181.95912972558267 160.73563581164927, 180.96163928475428 182.24780911020935 M181.2459461111968 182.82262831516564 C207.27177345738994 182.81296660055534, 235.59170290014072 182.82771664013282, 257.6090665196314 182.12365333624183 M256.9383683515027 182.85237959437072 C257.56780413890107 195.30018150145187, 258.0722548773311 207.17487359102816, 258.7245110941365 221.14870927147567" stroke="#1d4ed8" stroke-width="1.25" fill="none" stroke-linecap="round" stroke-linejoin="round"></path></g></g><g><g><path d="M468.695243322516 145.248315904662 C470.9686831222844 153.48648364776744, 469.9591297255826 160.73563581164927, 468.96163928475426 182.24780911020935 M469.89473684210526 183 C469.89473684210526 183, 469.89473684210526 183, 469.89473684210526 183 M469.1488946672921 182.85237959437072 C469.7783304546905 195.30018150145187, 470.2827811931205 207.17487359102816, 470.93503740992594 221.14870927147567" stroke="#1d4ed8" stroke-width="1.25" fill="none" stroke-linecap="round" stroke-linejoin="round"></path></g></g><g><g><path d="M265.9042585642949 24.009521722189618 C265.9042585642949 24.009521722189618, 265.9042585642949 24.009521722189618, 265.9042585642949 24.009521722189618 M265.9042585642949 24.009521722189618 C265.9042585642949 24.009521722189618, 265.9042585642949 24.009521722189618, 265.9042585642949 24.009521722189618 M274.1301224553974 23.908193261540962 C272.39497885550253 21.024371777541862, 269.33764507795036 19.20572971618389, 266.1173066845104 15.090051272048932 M274.4680044277774 24.368882015674842 C271.01107885181983 20.673749643480054, 268.10659930871 17.49833194948744, 266.06292516931296 15.879931175656003 M283.96143961814226 24.161740247673823 C278.09378296215317 20.852887362124402, 276.33956866743 15.65940483600929, 266.0467288894519 8.2240246294953 M282.6097934464458 24.049386286690368 C276.87504510047194 18.86188424418678, 271.4734989046705 13.478846256183347, 266.27471001110376 6.700747884898641 M291.5253739345614 24.2179122490357 C283.6076050080564 15.251287209977804, 273.2560267268521 5.977462639520266, 266.0242477221355 -0.6496842764624603 M290.9906800092925 23.607445591643017 C285.3727621069847 18.326652867479417, 279.3645177907723 11.473358180573873, 265.78316557965576 -1.5257839149170764 M299.0330502401164 23.04364182180865 C293.2887821722915 16.985239064359764, 285.16626236933433 10.239990031475555, 266.54276196192353 -9.534096841477867 M300.37142714495417 23.435215246632232 C289.5550852914286 13.0556910737691, 279.3290730901455 3.287830177207855, 266.07224954328836 -10.439056780711827 M309.26346023402584 24.54724195427401 C293.5479010877603 7.87858896254282, 279.266494854298 -5.706815574332898, 265.23556018303486 -19.556446952269642 M307.9911522850714 23.77023797626747 C294.4171979574153 10.383278761886194, 281.7041614552441 -3.038753881241861, 266.3070558961421 -18.586879550376203 M317.17801749050847 24.723353759713007 C304.5911438757816 10.803577563595912, 291.748342722979 -1.4935583489190036, 269.63427995943437 -24.816713245810334 M316.2258869237848 24.428767442658078 C305.4241976108406 12.72424763614158, 295.7533078931522 2.732255835723744, 268.27426981960394 -24.266172999554637 M324.5080574587832 24.065446476406912 C308.42353299380443 6.973749397228152, 291.4882833087904 -9.248520136609397, 276.5279807400869 -23.203546234072483 M324.99482661773516 23.699518245413465 C309.5143571221853 8.134649779348294, 294.3693193257174 -7.10066391271509, 277.3599905575605 -24.057646966391538 M333.94233746306855 24.378317467636926 C315.0120172965893 5.964773724114624, 298.4317744628037 -11.355803930418467, 285.265362474719 -24.46704967826729 M334.3665809860628 23.83741592164294 C315.66704632641955 6.0843267954157945, 298.2411976952441 -12.807648790315117, 285.2707000421602 -23.617331725769986 M342.1145367025835 24.39059222168429 C325.3700241149722 5.192516846281584, 305.13196652771245 -12.923101666461898, 294.08440123754934 -24.86414496511345 M341.7654237104086 23.957346945955884 C331.60069533034476 13.517860654313978, 319.826250257652 2.107650947012053, 293.98164851754353 -24.040692365580547 M350.5907562515466 23.767224351830315 C332.19650033552256 5.228548408858787, 315.7470667519325 -12.10786458776382, 301.8429949777967 -24.402925356329728 M350.57754253491305 24.32790873046173 C335.62280665772676 8.195276337107986, 320.0100844779465 -6.541244153428893, 302.4862502903512 -23.825733036213865 M358.8570190591768 23.521995596356227 C343.38511578370327 8.207246776307962, 325.89668057173736 -9.363059969051818, 311.80646351967977 -25.230155988634873 M358.95728926621683 24.06515962476982 C344.1002018660615 8.438485766413121, 328.342119260933 -6.711934196713329, 310.60233372972385 -24.17924695056056 M368.1067699496927 22.830015818543295 C353.77960017144403 11.141032773754553, 341.97261256987684 -2.566473364380278, 319.8350485624173 -24.018773873747637 M367.23342977346056 24.22636891598956 C357.77491588155885 14.846182574654282, 348.3085910984356 4.53886664019822, 319.778391267302 -24.12306638401126 M376.628375622313 24.24022300667272 C364.0970939095424 10.587624225561946, 351.5927029628178 0.37703160628327126, 327.77141368022814 -24.755387898386765 M376.31539398828477 24.303766828730268 C361.5950749273619 8.43132150542364, 346.212131042507 -5.75849144519292, 328.4998293972264 -24.600312674456585 M383.59262465125664 23.287883274025752 C368.2541355462714 6.9667198410760145, 353.6989312745329 -7.3756866220153, 336.4281443223309 -23.927778824271012 M384.29952590483026 24.118294525101316 C373.7215663639006 12.473185914144048, 361.3187208235234 0.9057598974828721, 336.6952186761376 -23.58164622228717 M386.9691596738768 16.236023047018215 C375.15364533122585 5.811754547566432, 365.02882021303384 -4.869871913589696, 344.5752478129445 -23.312399288119128 M386.2042657678721 16.842286292846666 C375.170410423705 6.556191270854802, 365.02852504683125 -3.9119288639191696, 344.74254372317625 -23.77151649039363 M385.5129672638846 9.486918938423708 C374.3542298603925 -1.6622046831014399, 364.06107185764773 -13.308643063234184, 353.9276533512875 -24.76187380164986 M385.57538994604323 8.29220941856803 C379.06480747562966 1.1086867964430651, 371.3403914486362 -5.857170516160617, 353.07545321998293 -24.114412004166592 M385.9813151828719 0.6240349988966102 C379.26959892332803 -6.721807908854474, 372.2808995060488 -14.150427870758005, 360.93271201157876 -23.792498751581984 M385.5216981833575 0.05185143924791759 C381.44660689645036 -5.341182632089636, 375.29976451847585 -10.085334444478068, 362.3895099106983 -23.901110351496715 M385.74967950505743 -7.547050158281882 C381.8706788562114 -13.793144346428058, 377.05870218624125 -18.81012411107134, 371.3576967430371 -23.5717423996342 M385.74969072395544 -8.205502733004352 C382.55946946279465 -12.331490854706216, 379.5238495312172 -14.985559365595089, 370.8484406019631 -23.87492818277456 M386.262934772834 -17.087300690730324 C383.1774885932382 -19.887372544826164, 380.3047718319347 -22.7409939448969, 379.5593229620118 -23.889742140510457 M386.0482216202428 -17.105889417604768 C383.34782273700375 -19.828986974939905, 380.3971526577884 -22.613141101806487, 379.06586485853006 -24.205855304693213 M385.9667044048088 23.92803243729651 C385.9667044048088 23.92803243729651, 385.9667044048088 23.92803243729651, 385.9667044048088 23.92803243729651 M385.9667044048088 23.92803243729651 C385.9667044048088 23.92803243729651, 385.9667044048088 23.92803243729651, 385.9667044048088 23.92803243729651 M386.27933343999854 15.15890870737448 C383.5565969227393 17.402538941045385, 381.1340508550663 21.423724496938572, 377.8110382379592 24.22370831157446 M385.9585001118185 15.41332412986621 C384.34947120502255 17.17915820849311, 382.74915127400874 18.647569589244448, 377.525552658774 23.629315463373363 M385.62188097395773 5.985639075280721 C379.6886475551757 11.729320979702248, 375.13549114420204 16.65591584435016, 369.39857496938845 24.186487003372907 M385.4297940282973 7.35668510151803 C379.64822589813537 12.834767586179842, 373.3602045614454 18.936458795153698, 369.242135672301 24.305177293116152 M386.38223405041566 -2.6962885959358003 C377.38130855476754 6.722417713636256, 372.1939747360889 14.116643355129805, 359.38398717148584 24.636110313938854 M386.318203934923 -1.0939935412542012 C380.48252914608094 3.854406300925774, 375.70142320002526 9.181430044070137, 360.3340179049446 24.369645098740158 M386.6763193503844 -8.990055180116247 C374.7590986622533 2.686101803971936, 361.7195728129713 13.896636907709476, 351.21132251506265 23.757695981072185 M385.52749492217623 -9.49402921680237 C375.34061905967036 -0.12992081164026958, 364.578208435879 10.556261002794427, 351.9345802904811 23.333773205572662 M386.1565660730826 -19.28578518897931 C369.26588427304847 -1.1077374136997002, 352.3604695403005 15.069718067644445, 344.33730707433773 24.37557261805415 M385.4225656716975 -19.01916045051704 C370.3064505505287 -3.2482978517729415, 354.7725954214761 13.279662330227676, 343.4596980730514 23.711471525723038 M382.3793981679829 -24.808847884497556 C371.44705012139 -13.671605354818004, 361.1766740483245 -1.8849929765156788, 334.6385887985298 24.962896963165996 M382.8018018028813 -24.162987705542655 C367.0962834507753 -8.398574543810403, 351.0714131987283 7.53009009223924, 334.643410559296 23.71411090880066 M373.82116145955774 -23.23578440364352 C361.2609257623911 -11.514497334026437, 348.52357638148095 1.532697971261134, 325.39923751185756 23.65415387968895 M374.9317529976219 -23.87165050752363 C365.2829935847099 -14.77554646935893, 355.11803031787264 -4.310869018714336, 326.94417111835554 23.944273141914874 M367.3509050215184 -23.167089132628355 C349.84813636905716 -7.0462702518033895, 330.7908870712908 9.670098651981014, 317.8982449135399 23.457656355904312 M365.8386643745526 -24.53535881884298 C348.27108108132273 -5.737592264896203, 330.7728463767206 11.889381892067998, 318.3510971818706 23.889500949675114 M357.0757455530835 -24.772574083170774 C343.79441675582996 -9.157968637018731, 328.5672306975887 5.8395247713812335, 310.39702457779543 24.268045505093333 M357.77259086531376 -24.552507414891306 C346.80332843551423 -13.189572316506155, 336.03711666823153 -2.385615359556744, 309.59022024398195 23.81604799419075 M348.1852216284718 -23.835723141989593 C332.0199370265684 -6.969043037486186, 314.8546146832803 10.44593846260118, 300.72691195384294 23.278790565537214 M348.67050146404614 -24.09278013355929 C336.2806322652229 -10.921964493904884, 323.1667670761731 1.9655070908663574, 301.3307358613301 23.662628875071107 M340.3387936969022 -23.341192070803555 C326.2998329904404 -10.936182255614197, 312.8193587298963 4.247717030869826, 292.47666436590123 23.794688900517222 M340.1625292273904 -23.803399875237556 C325.20649106407325 -8.44385146981189, 311.11545088999134 6.230386774796194, 293.1912536530556 23.734169129425585 M331.4533440825932 -24.662308506331357 C321.11114062182367 -13.196546161858322, 309.5112321678523 -0.25878275030646947, 283.179961013189 23.64436599831459 M331.778221274487 -24.115378602816673 C321.2771406722403 -12.861555757539513, 310.6151005361851 -1.7861204074035044, 284.5460473007992 23.59555523186353 M322.69067698476385 -24.748571960291777 C311.2740202948208 -10.135692442236065, 297.10177276235214 2.195754041953726, 275.30290296992496 23.992775472210617 M324.15278878697677 -23.949767341687295 C307.5352665237279 -7.6052539513396775, 291.7450344222997 8.09605097647399, 275.9313045487015 23.965384594494374 M315.04501847763265 -24.113153819403532 C305.9279540969482 -13.214070532464385, 296.01594803812134 -5.5283574652756515, 266.83151318532805 24.953699060486553 M315.6333570090001 -23.623906179740015 C299.34840982770817 -8.0114800481231, 284.0506493960092 7.309386291016063, 267.4513772034032 24.409715566927492 M307.1305165104185 -24.020397345385437 C293.15852803490344 -10.835855330677534, 280.5263444499489 2.183957381779488, 266.93030429548224 17.73117881455812 M306.68521524719785 -23.55767426736552 C294.57889397353006 -11.43227776659988, 281.79605331526415 0.9469323489109016, 266.0560989459102 16.96474962440673 M298.96874090734 -24.873317674956233 C290.5894739695187 -16.973820658653636, 281.4951505387401 -7.072281918732051, 266.730788750114 7.231006972198964 M297.69806687071053 -23.57973981745443 C290.09802090930225 -16.99441942731859, 283.43194656679884 -8.950606609015562, 265.34804545837096 8.429571241033852 M289.7761833676161 -23.401101819834622 C283.7937224336629 -19.382818442763522, 280.07669569194167 -12.82707614775866, 264.8895415610691 -0.8973367909365606 M289.7922793111788 -24.033810105397315 C284.0771511600311 -17.77063896653202, 278.5547089656517 -12.234108809048314, 265.1593471725528 -0.710664858708651 M281.7517574654654 -23.046608666739377 C274.08982609515397 -17.457685194778467, 269.7370876335928 -10.61656687329301, 264.9472731775661 -9.019758236567203 M281.4251340627432 -23.88488146908483 C276.8632915147025 -20.368313997725874, 272.3351190003769 -15.78784856424134, 265.92951214509657 -8.562556575211408 M272.9469590325339 -24.05454883038898 C270.46705730493244 -22.27407167421607, 268.83892050460815 -19.464705759359372, 265.73033376345984 -17.18749793646746 M272.8133480485028 -24.190358996148156 C270.29219211763666 -22.002008577392207, 268.00002974886127 -19.540232036635015, 266.0280070491192 -17.000325871444126" stroke="#ffffff" stroke-width="0.5" fill="none" stroke-linecap="round" stroke-linejoin="round"></path><path d="M266.40909491073535 -23.421669156476856 C289.7034240182881 -23.36046229662001, 313.55974157493756 -25.09646403850615, 385.41858004819795 -23.764598698541523 M385.1163381662612 -23.682481669262053 C386.3957814066057 -12.398669845238327, 385.9721091477518 -2.4573861736804226, 385.1982876982932 24.903379048034548 M386.8167593885605 22.95033994205296 C360.45380292352485 24.80384859542549, 334.7684477005546 23.081219274803995, 266.7290654946511 23.478387038782238 M266.2519500937705 23.040871132537724 C266.1489113305454 10.084862705692647, 264.9771490906124 -1.733217330649498, 266.3829890575652 -23.577307533100246" stroke="#1d4ed8" stroke-width="1.25" fill="none" stroke-linecap="round" stroke-linejoin="round"></path></g><text x="325.89473684210526" y="0" text-anchor="middle" dominant-baseline="central" font-family="&quot;Courier New&quot;, ui-monospace, monospace" font-size="13" fill="#1d4ed8">CEO</text></g><g><g><path d="M121.59055006531014 145.69581322320482 C121.59055006531014 145.69581322320482, 121.59055006531014 145.69581322320482, 121.59055006531014 145.69581322320482 M121.59055006531014 145.69581322320482 C121.59055006531014 145.69581322320482, 121.59055006531014 145.69581322320482, 121.59055006531014 145.69581322320482 M130.27699647327657 146.2131563019075 C127.08413022363266 142.1629342840552, 124.10651894337612 138.782706436187, 121.29664630574119 137.06215369716207 M129.87276041803653 146.05453381017526 C127.0933864911151 142.7987462907793, 124.67853995459076 139.8420234524895, 121.54788327534628 137.5619135043762 M139.53434942452768 144.80025027417327 C133.55241931164866 141.5359277021735, 131.03810327189768 136.94307519963868, 120.67549071562422 129.8953817862933 M138.6310570811347 145.17554235220635 C133.9090561379815 141.62949271718634, 129.8941888457695 137.65164184057036, 121.73145295892787 128.6488282971 M146.1769366831275 144.91259427689695 C140.58483050509824 139.62277587376198, 132.46401159177591 131.25746438193318, 120.63052838099135 120.63324534861636 M146.9075488325896 145.49166096211158 C139.50178782662263 138.88233836422205, 132.5764680187411 131.46691781495414, 121.94836409603191 120.68104607170713 M155.10700791999886 144.9640534224429 C147.92523818254725 137.31693170812866, 138.4684236760238 130.61465874175113, 121.66755686056746 111.34970159282412 M155.98376172967443 145.1472002720901 C147.8460695202124 138.04606082633822, 140.97049531642796 132.08678923199741, 121.32653202329708 111.3397817143562 M164.68254653357917 145.5712536873736 C150.12016761303437 131.70633382887922, 138.52791789458684 119.10608750360495, 121.45315330279004 102.19028274547918 M163.93793063567037 145.81724573136052 C153.65876135234438 135.91206667458425, 144.00325109647918 126.03856413680529, 121.79614472900461 103.52941754926606 M172.02637967230595 145.9234772982516 C156.35388484029963 130.2159769568441, 140.2849347588313 112.8383573559513, 125.02216573084281 97.32660440789017 M171.92211853885865 145.93430466414173 C159.8199923104177 133.45731710193544, 148.89486509917774 121.88998572523681, 124.102145451182 97.82768490040156 M180.6011782346167 144.60766273163938 C167.7808335796229 131.9421731948663, 153.14363865786902 118.73093857546529, 132.72428591790944 98.15293843136581 M180.9747165525206 145.6758062696525 C169.3624818363846 133.6639739591066, 157.10571069172303 121.22665102325392, 132.58830555285664 97.0447369667277 M188.58445686894896 145.2334047140994 C172.47252081095428 129.9242218486393, 158.54533959165695 114.5163709878472, 141.71376801293508 98.02593154297624 M190.03294391493742 145.95160162211144 C172.95177921723538 128.5941276446209, 156.13338640315868 111.24348092143319, 141.1244431478174 97.92536744797086 M198.84357397374023 145.2579542221942 C182.07245342010214 128.37970809297323, 163.22964269385665 111.38177551576034, 150.8665641643572 97.2317409692839 M197.5453479893904 146.1914636707374 C185.5171436267102 133.61374348490097, 172.78490570546182 121.60997629443415, 150.06105872434557 97.0786461683497 M207.31073169742794 146.41121848248622 C189.87092414034348 128.45177121812762, 173.80536142143742 113.01224967315648, 157.89847027061327 98.15418018685136 M206.68430426416072 145.73258723974905 C194.92353678475183 134.0160267280053, 182.93139687346553 122.57629019520562, 158.58498089572234 97.50856482708309 M215.35797593844964 145.92076097153804 C201.1320740090871 132.23996760640526, 185.38850803342933 116.3326585639598, 166.9401259801408 96.49971892224107 M214.95851635252967 145.20708902836523 C203.16224617380345 134.50244558661555, 192.07938541182043 123.43491010863674, 166.331866400229 98.00153699838971 M222.97219634524285 144.53680141591215 C206.44990883957215 128.49088737716136, 190.0525858605749 113.09252732502875, 174.51201469137737 96.52248315201557 M223.02551599277854 145.52950761080467 C213.84054025980186 136.2703873255815, 203.32454291769253 125.27240768080647, 174.9987001011468 98.11389813148833 M231.53012631624503 144.957215792171 C215.96881528815118 129.78407028077615, 202.9766856188389 116.57953726635584, 184.29946355276044 97.44925510273728 M231.50416304818853 145.6843034362861 C221.1814295479273 134.2573174112573, 210.84884622649145 123.91099595829829, 183.956294986757 97.15940555059764 M239.3733429998937 145.45253632687712 C227.8142694115076 132.15891373594138, 215.53716531630477 120.30740525803282, 193.12764346272743 96.70447325096879 M240.1871455070409 145.31335882902826 C227.5632784760083 132.7243940045611, 213.57423961939102 119.20619419537577, 191.8617921703408 97.99673845493648 M242.31219948276086 138.4198836847275 C226.78518019528175 125.6753560836467, 214.7379686206618 110.11454182309839, 200.93656906971597 97.93523232327257 M241.38241167075142 139.0324101763844 C228.81556890812234 126.56422953022346, 216.7342368161388 113.83042792243948, 200.6711608901795 97.61699791872357 M241.79981466277647 131.0069568417771 C232.5711692182677 121.79753896120226, 224.99561798661065 113.91542697476923, 208.75609877216345 97.43628329621112 M241.32466002709376 130.41753780206577 C233.53081288453984 122.63393953337507, 225.7873632174691 114.00760729508393, 208.85169850955432 98.13120689117765 M242.73651050075102 121.76647033696145 C234.06370418038696 111.825410720183, 224.89463145789708 104.17649690844448, 216.68093471850744 96.97503339634693 M241.2172765017222 121.22210321766406 C236.61772012663172 116.5020611004023, 230.33236148275122 110.62208358769398, 217.79453051674653 97.35781019651746 M242.273239145122 113.90958139684304 C238.37511275991818 110.07726793303897, 234.97369909441954 106.26584807819403, 226.6456228071854 97.41654610024247 M241.673261582918 113.19267624739811 C238.36675365977058 109.28930507926184, 234.2067836338364 105.8924378947049, 226.22711052503738 97.41017453396174 M241.4997496806751 105.11436170618475 C239.34031388348134 102.35961568548774, 236.42330748562054 99.48080001009245, 235.16359387089628 97.38054661848996 M241.97032337549282 104.77718425243587 C239.3809821710124 102.17638682526027, 236.308069137328 99.43650569627329, 234.47667766393292 97.64832029012446 M242.03062954173788 145.86410730036746 C242.03062954173788 145.86410730036746, 242.03062954173788 145.86410730036746, 242.03062954173788 145.86410730036746 M242.03062954173788 145.86410730036746 C242.03062954173788 145.86410730036746, 242.03062954173788 145.86410730036746, 242.03062954173788 145.86410730036746 M241.93588761211737 137.531141214762 C239.86416245199598 138.6446538077065, 238.4131828663455 141.85291236979745, 233.4845785822773 145.73545904892333 M242.37422095575735 137.67997205974544 C240.1535840923113 138.77421926685335, 238.65000050513143 140.7339857535083, 233.27360742390692 145.62667335252115 M242.54098268003568 128.14988332481306 C237.5034702924588 132.88975138486157, 232.78538256990248 135.95471601476655, 224.66493341937436 145.18101643252024 M241.55680878871485 129.09197537728767 C236.8226269783781 134.41918589662407, 231.03480940438914 139.8343432151809, 224.95205482519938 146.01839701200672 M241.66168883295163 119.27130935661852 C231.08991264030385 130.55645912532498, 223.40641382748979 140.25374158376894, 215.52103919780762 146.08026305365215 M242.13362860196634 120.67589946598171 C236.69235382293078 125.42043629990403, 231.02131075536244 130.98331496164963, 216.82110066472504 146.14733262325475 M242.24985943288908 112.76905756249622 C232.07332695660128 122.46346263069819, 221.97072545681903 131.30808263939156, 207.66099125919985 146.72343438791881 M241.75221057647272 112.36110948912396 C234.87345034905002 118.63141739947378, 226.9250793002489 126.42733082956146, 208.50750681003677 145.27558883691978 M241.2103528782855 103.06287891900868 C226.9013754031852 120.15023509758163, 210.06110868616645 135.5345833117928, 199.9982417519886 145.55918766188276 M241.54235207551523 102.99612839593323 C228.17886120516405 117.66911422143515, 212.88171369553595 132.55447183695924, 200.0430237494159 146.03098547722053 M238.88444419283218 97.6736077774646 C226.7518001504731 110.4468404393763, 213.42770022847915 122.00341297184389, 191.48608657461125 146.7338363521064 M239.12925146262893 98.3653281353744 C227.06691903338063 109.57624983725445, 214.25048297756084 122.20027466107962, 190.89573009614367 146.03626424337574 M230.25325215022056 98.41973473917265 C214.63403315333466 114.53025682758015, 198.77598661565142 128.60799521401825, 181.49266537550545 146.51635018515236 M230.67443522634892 97.74800253141244 C220.87816879797225 107.40815855691514, 211.36489448843483 117.52086123406728, 182.78253258850134 145.29658870960424 M223.39802064838034 98.55712528120301 C207.51038796504236 114.0808584212685, 191.02919381778375 128.28029178056323, 174.97596155310862 146.12335513758313 M222.17353935444874 97.62058590877376 C206.15627738957355 114.66741474170358, 189.19311242864333 130.6880586073579, 174.08166608977012 146.38704432512472 M213.73298308574914 97.74615538011813 C204.11902976620584 107.22666199745848, 192.8979620979974 117.9883443659843, 166.05880225585824 145.3441334359611 M213.32667371020972 97.58628871667706 C200.88940124805794 110.58010686262067, 188.97362993762965 122.57136855238245, 166.24519358823127 146.24013841415595 M204.43721661076438 97.21985726248047 C189.05535168192122 114.00451319652355, 173.95801144361923 129.6011717484242, 157.60385838219187 145.76562355684888 M204.80777628191305 97.30574327934107 C188.32929028171395 113.9153225078232, 172.9182121277514 130.07361345322866, 157.01150619716606 145.93330017591666 M197.22964212186363 98.2089194048526 C178.65297310638735 115.91768663778389, 161.30867680943624 134.26883298661488, 149.588644580547 146.79742022680887 M196.27711318284003 97.88450379598459 C185.48294147779023 109.25489633187217, 175.33416557790042 119.37006837281423, 149.21782315485575 146.07638068462558 M187.94402426748442 97.96668653379699 C174.5916693967719 111.39695882529566, 161.00850471296638 125.25583342426232, 139.48051924936112 146.49677442240366 M187.99377865127195 97.26054634082635 C175.292869844226 110.26693963393328, 163.58544179625264 122.80115811006824, 140.4126918245816 145.79915288950153 M178.90397144606413 97.79415962587615 C163.40271011700477 114.88786661116087, 147.0748672762046 129.93410735540343, 132.2116845370717 144.7935933701957 M180.02819505048993 97.59176886308511 C167.1110551455767 110.93209136881661, 153.56389539099445 123.10139677616986, 131.6684876946248 145.33881161476322 M172.09793580604034 96.6649959076526 C161.19585909549812 108.73111043070419, 150.98849920198134 116.88588434094461, 123.75418634211627 146.71544054674754 M171.4746128687753 98.24349118697963 C159.22262312777576 110.35043882862901, 146.66040671265188 122.95886705863327, 123.1939143782666 146.22747355962943 M162.35421324585053 96.85050885568877 C153.31354288228957 106.91314482551783, 142.0540530359083 116.547892926904, 122.9659821247978 139.34146786675618 M163.26361071940931 98.3759550117286 C146.1518360977788 114.32588008755476, 129.98859344301093 130.8818616568124, 121.8175714256538 138.40860948645337 M154.51594341393223 97.54466819654724 C144.18472733656282 106.7602152535932, 134.901462861922 117.65791034652013, 122.5669510340614 129.22640555627643 M153.77459534067324 98.33182391155084 C145.00182121613 106.11901771626329, 136.9750549180393 115.70126096595311, 121.60146445057521 129.82353409394622 M147.0161097087229 98.08909990679045 C139.91721386622982 103.77504046220896, 134.89148649485597 109.67819894015015, 121.28445665597151 121.45499940424396 M146.44830159584825 97.42368333566506 C138.68407131896632 105.19939941467194, 132.44751304227592 111.46413361757084, 121.22406787893901 121.22834326869979 M137.05253927866005 98.79808621298095 C130.38855145052548 103.7160582444145, 125.5056142018448 111.1757552129438, 121.3999198889656 113.69543788722126 M136.9992924732157 97.72154060829004 C132.22421245240176 102.88074095183379, 126.27913726097137 108.93040198158207, 121.56439782402646 112.80984120993286 M128.52822378703573 97.38220588568171 C127.57987689383039 99.33170363602981, 125.95203041792814 100.92200834099702, 122.36604106075296 105.24523986165927 M129.1610018189735 98.01058555416336 C126.93014651923885 99.57582982967755, 125.17424890643427 101.67095578644573, 122.06138763207177 104.71958399170595" stroke="#ffffff" stroke-width="0.5" fill="none" stroke-linecap="round" stroke-linejoin="round"></path><path d="M121.72345297936549 97.95666168704629 C146.71211119447102 98.36707540675998, 170.4247463077699 97.2950719229877, 242.14242325429072 97.27080260291696 M241.53793949041713 97.43503666147589 C241.8120259711062 110.40266030952334, 240.96468145339838 120.68522765263914, 241.70183855448116 146.6067580960691 M242.5387819350158 145.10067988410592 C213.81286900494447 146.11969719085099, 186.44215855900396 145.074438549608, 122.36339414719691 146.15677407756448 M121.40916334543576 145.28174226507545 C121.3182858189856 128.9697254113853, 121.37476133911957 112.53356533870101, 121.67124127302517 97.6453849337995" stroke="#1d4ed8" stroke-width="1.25" fill="none" stroke-linecap="round" stroke-linejoin="round"></path></g><text x="181.8947368421053" y="122" text-anchor="middle" dominant-baseline="central" font-family="&quot;Courier New&quot;, ui-monospace, monospace" font-size="13" fill="#1d4ed8">CTO</text></g><g><g><path d="M409.84033342736586 145.94559658526055 C409.84033342736586 145.94559658526055, 409.84033342736586 145.94559658526055, 409.84033342736586 145.94559658526055 M409.84033342736586 145.94559658526055 C409.84033342736586 145.94559658526055, 409.84033342736586 145.94559658526055, 409.84033342736586 145.94559658526055 M418.9873623521962 145.64161120331454 C416.033829727651 143.5213155758604, 413.39299721953773 141.71655821632962, 410.47947778801245 137.59774798331563 M418.5610082693362 146.3036774657162 C415.7391859914508 143.48723479911902, 413.09397246151207 140.74920681653205, 409.5963332424201 137.80738769413682 M427.6707510919536 146.40225216171316 C421.6560062233773 140.7824599032631, 418.38158843859856 136.79023742430857, 410.26774440283697 130.13023080413183 M427.21581257686415 146.0651902787628 C420.1124464868361 139.566480501531, 414.09014554851814 133.59970418660697, 409.7516877677924 129.16040057034186 M435.7919912927341 146.5707681657987 C430.12554786318054 140.15775639858663, 424.23548831774025 135.1009579853866, 410.20030090088767 120.4796668347357 M435.38790951692727 145.93936819362065 C427.3943054073011 138.00151572200517, 418.3519101077503 128.82396931037485, 409.47705447344856 120.25136791937184 M443.7444574609218 145.44795688411762 C435.12518605384344 136.21211621293804, 426.7340768437537 129.55281931306712, 409.35584362025185 113.19699188816661 M444.15958817543515 145.42267715858836 C433.27523791303116 134.64877993817154, 422.9618766073545 124.50987254666036, 410.34430636434627 111.68211207046473 M452.66512469417296 145.15875728151372 C441.8595727523307 133.89392380327445, 430.5564795488979 122.27883568960158, 410.23423828358574 102.50050430426847 M452.44820084730975 146.4277453474941 C437.18218198705716 130.52271182706596, 422.09891660325934 115.71245802039753, 409.8487254229076 103.00920650994878 M461.8382337151438 145.68709269783068 C450.5275695433744 135.40852043526982, 440.8491227573775 127.3670693701362, 412.9735433632918 98.03341392263115 M460.1818420149729 146.0033337466659 C446.7792788710351 132.7538784287698, 434.59991416624376 119.6112074757904, 412.4935129438006 97.28503466139824 M469.2577908714907 146.11337084791236 C459.7016260264819 135.70488850692428, 447.3624858679881 125.5046888019598, 421.48408295677245 98.07291495784462 M469.51809834834654 146.21558615493203 C450.7266465341081 128.14013777576835, 432.9414898171157 110.08415337198933, 421.58011240919325 97.91061276088745 M478.19006813586986 147.0519838216024 C462.49651618635966 132.6779614875837, 448.8223965815507 116.78283742053263, 430.7256654121916 96.68240462526026 M478.2627987048525 145.42927918362042 C461.60000396909163 129.43662070148721, 446.58906697211364 113.62730284084269, 429.54167811451504 98.03155848275217 M485.73610310593745 147.08880808374454 C471.3383745862725 130.13039120070533, 453.89081072104136 114.25014455902303, 437.8122189522055 97.89111876472175 M485.88876412941266 145.7890722565593 C472.22788343749534 132.2731181765284, 458.5378526676913 118.4757935028967, 438.70396079218807 97.96147656332046 M494.19419900434974 145.21870447418263 C480.1088398062049 130.46928554181622, 464.4271479519829 116.9266554484966, 446.5174374244703 96.87477759107296 M494.1545578544489 145.7007576100769 C477.17110654868037 128.78361675580607, 459.1828966817509 111.02401195660656, 446.0472033621339 97.40635455142055 M502.022424678763 146.88301820776033 C491.44252409551143 134.60538064416374, 477.4438273561618 120.36106930463258, 454.63728030164236 96.79308569415748 M503.523235299883 146.11251029300112 C486.37113011844895 129.28244539034216, 469.14683897547445 111.48114217337393, 454.62489093177464 97.54581280838043 M512.8011146018335 144.80707887432152 C501.06956193949856 136.1900864123664, 489.69855580720827 123.91752467037307, 464.15247268137796 98.02723203881919 M511.38109407313704 145.3961381666603 C501.0388568457061 136.48888359092857, 491.87318694461055 126.00024023583448, 463.98250079603207 97.71435450802834 M518.9953688712175 146.63770043870977 C503.0348281811797 127.54400819703085, 484.7549597892798 111.34553478746892, 470.9910052863332 98.21738996490184 M520.4564239691327 145.6283319048824 C503.7146238053961 129.26095260737372, 487.61574882324226 113.14147042793518, 471.976252437328 97.48261563669237 M527.7175532095712 146.1806812407689 C510.3212429136472 126.29794726771011, 490.70558677084296 107.3206845508473, 479.99063446416443 98.30021718724907 M528.638256970292 146.2719149939956 C513.9684824491565 130.5698936093979, 498.39325027629906 115.10092000768844, 480.7918575255845 98.1386149932006 M530.2187311526855 139.16723618347729 C521.7795041100244 129.90488814253146, 513.6123447407404 120.0673247443549, 489.8613821875279 97.74635579570476 M530.3240494346712 138.58602592096264 C514.8273607256979 123.93575965063262, 500.80658191860454 108.93627656983861, 489.16326991822325 97.56900418888125 M530.6501539227088 131.09048660617094 C523.3516004371834 123.66464528926043, 516.0936559766141 117.14685969652714, 498.5480360540799 98.19793225511256 M529.6374219691847 129.90635804660388 C521.9164393317765 121.36655495406147, 512.9539560246285 113.47974779008288, 497.1914356601662 97.74031764756236 M529.6551976796706 121.47239753606675 C523.8296274105548 116.25984714901908, 517.2885074949229 110.79896559951408, 504.9926492864766 98.70605740531624 M529.4763466811273 122.15584685712066 C524.3523252178535 115.59339686724506, 517.928450308067 109.77759365421683, 505.76304298383525 98.38022260557204 M528.9602906462271 113.92970481300846 C524.2570982113514 106.92523176023236, 519.1549777131034 101.20810197796496, 514.4970407323742 96.96832646115962 M530.1603243029211 113.15434708884105 C525.537529717787 109.47359287427038, 521.4532095974962 105.33392701604538, 514.1692723091522 98.45876911173853 M530.5000564495567 104.67951596414026 C528.0666310347649 103.17009577684207, 525.1053350003468 100.26608582612225, 523.3313566408212 98.41432723853082 M529.8559169917834 105.22374978351695 C527.3776334660615 102.1113113610039, 524.782477477908 100.01570322989654, 523.0509823303762 98.06598774598257 M529.573306122607 146.3214307194983 C529.573306122607 146.3214307194983, 529.573306122607 146.3214307194983, 529.573306122607 146.3214307194983 M529.573306122607 146.3214307194983 C529.573306122607 146.3214307194983, 529.573306122607 146.3214307194983, 529.573306122607 146.3214307194983 M529.0711932281762 138.4246222782094 C525.9941525009414 140.1050735052753, 523.8176831224656 144.1974613484117, 520.6368703705353 145.76845834233217 M529.5486932436361 137.74786854568458 C528.1157190729436 139.61052888127352, 525.9888718295977 141.34165047383206, 521.2204136329798 146.14527979772888 M528.5388358300537 128.8353761304053 C523.3214732227939 135.9655428957763, 517.4443416389595 140.56298984063375, 511.4100433133004 147.09679441772755 M529.1625749930726 129.34851420911724 C525.475779502561 133.32485276312826, 520.188165691273 138.0534761912681, 512.1407254220379 146.25286528695727 M528.4198950594275 119.76015586523275 C521.3684369943234 127.82058026853048, 516.279942011917 134.7297507193817, 503.13684266806945 146.04566434942532 M529.4278047129496 120.96704102927754 C524.3809299437206 125.62990290673119, 519.0199497546397 131.42863648707802, 503.58693486844555 146.44626870382925 M529.3021509593337 113.0494188611686 C520.8663066948892 120.76207201348434, 513.7006295446067 129.64077692713354, 495.58941144727714 145.81042135082535 M529.4556776747092 112.73749675111023 C519.0968079829788 122.86514666842398, 507.17425140977724 134.5590168135555, 495.3591847735325 145.7386530243268 M530.1428911274285 103.93279158305654 C513.6156179772621 119.72580941194111, 499.24049927597247 134.31705035901925, 487.13792787357954 145.26405126177121 M529.1408899232731 103.53266579844336 C516.5336700567212 116.90412809772137, 503.8732301665176 130.14688314676894, 486.9051008697205 146.8717479847779 M526.8682416616216 98.67731199548666 C513.5353016234964 113.0865347896305, 497.1574778525739 126.81306747626336, 479.81233579463276 147.0260242971068 M526.9354525663167 98.21489253235136 C507.69965383578915 116.88897499851625, 489.67499975205936 135.825012234254, 478.62680107693143 146.8796661340108 M518.1640942848235 98.5965024380487 C499.48589198821827 116.69625954524659, 480.507148293762 136.60454101283523, 469.0648446830934 145.4997950466757 M517.895868899016 97.88890412640839 C507.9520954551747 108.11311213924911, 499.0905101029371 117.87384004290881, 470.09964550258724 146.37015283335347 M510.92388771918235 98.80258825109424 C496.65139100496754 111.09843599702096, 482.74625200821674 125.18093381182597, 461.13242963661736 147.31030247532178 M509.987165778285 98.29777919245036 C494.3202251417644 113.59367030436323, 479.09212992450614 129.20798387870764, 461.2909864416096 146.2058362566342 M501.8689720623548 98.78613339946692 C486.07494234300543 114.14919341213262, 469.2433408406928 130.2917169649214, 453.19933137786114 147.3414699228888 M501.5595079990457 98.24633340430532 C487.6542255045417 112.8710345978074, 473.38889465096787 126.04960102038153, 453.1789183764207 145.98547739018105 M492.16796303699704 99.19668622301043 C477.3387181278349 113.73011763997248, 464.30935999451896 127.5084532436864, 443.5595562544809 146.7737051042204 M492.42380254372006 98.42551524830134 C482.9041516196614 108.85720584147414, 472.41251272492315 118.66966392337673, 444.17102797694224 146.72522003282208 M483.19924199076524 98.28027943656863 C472.10151689041146 111.44535220972556, 460.5100507811904 123.34709339676648, 435.77937623913283 145.92140010916046 M483.8704485822298 98.09365602326663 C467.62149111131026 115.09154491375318, 451.79832726147555 131.4643029751663, 436.72314410059596 145.73984079588556 M475.9134558963156 99.1169301299852 C461.9509496156602 112.11171236850952, 446.3845287020204 129.29169815489098, 427.2598289294733 145.4704314025526 M475.6880874719969 98.35771984052926 C462.218150113531 111.91668358146593, 448.26533415363946 125.90968518359986, 427.758087792304 146.5239991031994 M466.59601735130445 98.85813976810397 C449.17935172974944 118.43267422061771, 428.29591358061776 136.193709224913, 418.1992175481584 146.51565982424071 M467.3823527579432 97.65455362391742 C456.96559521136555 107.99068524503281, 448.0615078036292 117.82799113192563, 418.88442228448804 146.43348719109198 M458.2296045783881 98.36439419076865 C447.9425155379881 109.428339603312, 437.4398018097814 118.0521743566041, 409.7556109428446 146.99843058906845 M458.7946201724905 98.6321371097592 C439.75893564764635 116.6194588321988, 421.51561102496055 136.13210117720516, 410.4152029970701 146.56648010839126 M451.45666142522265 98.6426636128229 C434.6028537254126 113.5279762706642, 421.57042260859157 127.72329476999256, 411.18751817924 138.76589869382752 M450.12075763556084 98.83083284688266 C438.81664118754 110.19303790386417, 426.4863516015727 122.51243586156603, 409.764902130524 138.86661112337336 M441.5418973644645 98.4839026241106 C431.90247556590873 108.77144348368586, 420.2741107140785 120.42145426294528, 410.5889715431354 129.03594591522724 M441.329875254576 98.76463619661601 C431.7539957454199 107.69479247101407, 422.58138069819034 117.40062294564235, 410.0407416679061 130.2316387217319 M433.33478749376974 98.1005501894754 C427.5857104109877 105.27208116893436, 421.432003924694 110.34193431507909, 409.86522997600053 121.62147737429781 M433.3830753244578 98.60242533278732 C426.0937835498124 106.45258792010554, 418.18189247945577 114.40674287977488, 409.4746468104518 120.98149317098154 M423.83207253579474 99.16402964876117 C418.44538939991503 103.13172801641024, 413.3121272302557 110.93012976584254, 410.0384248254917 114.22477578588311 M425.2522023276282 97.8492112417248 C421.14504070889643 101.36969801411358, 418.26445834328547 105.60715913720136, 410.58514172808293 113.1963807699505 M416.75303810020574 98.51000520191242 C413.84513304114176 100.60946391811918, 412.1875402986737 103.2963752698249, 409.9960719350635 104.32312055414266 M416.3922884433217 98.14331775436264 C415.1857892415789 99.50069506046057, 413.54811967042855 101.05632289596184, 410.2597898063439 104.82848512970565" stroke="#ffffff" stroke-width="0.5" fill="none" stroke-linecap="round" stroke-linejoin="round"></path><path d="M409.03781104799555 97.33499253056944 C433.32079837065385 97.51861311013997, 456.8897510406022 97.11060788448155, 530.8662664603834 98.70620390437543 M529.959540814573 98.95255499221385 C528.9978705356066 111.20399046428503, 530.1268537590448 124.22784147895874, 530.205389410669 146.31013714410363 M530.260804481471 145.25101982615888 C499.171935086364 146.01154578627646, 470.1158694174532 145.64365782441197, 409.9977227997427 146.8351611163467 M410.966376597101 145.52261339761316 C410.6572603074257 135.45458811707795, 409.54197358762667 126.40034800805151, 408.95949348848507 96.86807740069926" stroke="#1d4ed8" stroke-width="1.25" fill="none" stroke-linecap="round" stroke-linejoin="round"></path></g><text x="469.89473684210526" y="122" text-anchor="middle" dominant-baseline="central" font-family="&quot;Courier New&quot;, ui-monospace, monospace" font-size="13" fill="#1d4ed8">CFO</text></g><g><g><path d="M46.03033700236091 267.92507384446617 C46.03033700236091 267.92507384446617, 46.03033700236091 267.92507384446617, 46.03033700236091 267.92507384446617 M46.03033700236091 267.92507384446617 C46.03033700236091 267.92507384446617, 46.03033700236091 267.92507384446617, 46.03033700236091 267.92507384446617 M54.19794844405526 268.23976000187156 C51.22669316976102 264.9530638405642, 48.66558315894338 261.58672069452314, 46.16252948322305 259.86303616661917 M54.46947633357519 268.2825150184071 C52.32520570472591 265.90541720460874, 50.16962518137262 263.38608407772455, 46.305003422433224 259.78255578104745 M63.74737297231888 267.333947946403 C57.618354646852616 264.1586860015025, 53.58383511704607 258.36709354612833, 45.40021830298908 252.09477371912027 M62.54078828553294 267.4845321024692 C57.731628299518306 262.627274732721, 53.0960062647897 258.06568552918435, 45.71214278959639 251.40166674073365 M70.94726611527999 267.55863595185036 C62.515316609659116 259.609073944229, 53.76484760755763 250.3696197851146, 45.31029363372336 242.0557822180049 M71.8084904142042 268.11676932227965 C62.149231252707864 258.72819892514923, 52.18976046148797 248.98852665115646, 46.14596506380449 242.75138366418642 M80.32212721478408 267.6615542429423 C70.265354138079 259.23699461489736, 60.539950224422995 250.22067378153312, 44.984350592875586 234.37397608065905 M80.27563483413523 267.4278479422366 C72.06993421579475 259.93233544893104, 65.10701090761671 253.60201735964034, 46.10230091833483 233.7541363237232 M88.58792306770611 268.87595477280377 C78.93555135158452 258.01485442780125, 70.32161466316664 249.78492452572982, 46.95554347732076 224.5404197602077 M88.89869127188851 267.5679388607776 C76.92745745596602 256.34468549795446, 66.10171831847418 245.0829617966351, 45.84152632974991 225.41868936778144 M97.19030797092114 267.1804019945597 C85.19402258187226 255.1141055867085, 72.28942686720966 241.99217083319698, 48.8651412086801 220.46991733452208 M96.38178570402656 267.80205672634 C81.9095852979713 253.7801336527541, 68.47598309962845 239.0621231234939, 48.82510064935846 219.67207831954488 M105.8546237213041 266.9487728613352 C87.54598646214316 251.34984583861578, 70.2882488427724 234.54402882395087, 58.1841002085748 219.72258538147338 M106.00170035711184 268.4850599373614 C91.07848332228725 254.19344736709633, 77.38159325710116 238.93545371952806, 57.31213947846916 219.30618245219716 M113.33589961573004 268.20025682625527 C100.46073177470439 254.53059537029873, 89.4396737843838 242.94819809698868, 65.27778302438747 219.4685716046942 M114.43287370770693 267.8366506422793 C99.38844893388733 253.4396073088827, 84.98496775400805 237.9716183107814, 65.89913329415214 219.8674434146834 M122.96885245107397 268.24935584244486 C108.54451596538223 253.61076820558736, 92.49219896116537 238.8482074994357, 75.09809395299312 220.28019045730957 M122.17240048237429 268.3163747395312 C107.84804380784058 252.89298641868513, 92.00022018948091 238.50210426188855, 74.08708307296989 219.37400085544118 M131.41788652421087 268.155884363029 C118.28697568500567 253.98569410927547, 105.38915469546765 242.3399554676073, 83.07662479126672 219.72506889244445 M130.7650316576764 267.3986218775546 C116.9755487496853 253.46675325151455, 102.60792115124974 240.20393241005223, 82.64964604148489 220.2338381729079 M139.02709363201572 267.1749693411326 C129.69319439487506 258.9312872324515, 119.83936689183366 248.74997359583463, 90.27465483608329 218.81614636322388 M138.82817446017577 267.54762545478695 C126.16768615355011 254.43959096873505, 113.6186168537211 241.9211722369145, 90.85813567625962 220.01978251552111 M148.17025307136353 266.80705022988076 C134.24358268160657 253.83312677396367, 118.28224117188621 239.86971111797257, 99.33315088431783 218.8616748227728 M147.67689236643488 268.19246261966583 C137.60819329792898 258.20627410004624, 127.39285083784733 247.02696703463315, 99.70652170385667 220.24450478171832 M156.8008316391293 267.6478789823985 C145.0269138579053 256.6502922345725, 135.87595896755485 247.074530654006, 108.02276723284534 220.7152187242163 M156.1489051030163 268.50205427062866 C143.80469049994133 255.38013427139774, 132.7561760812066 244.30414358961679, 107.93643010083846 219.53551961993702 M164.0019836321881 268.6385200518107 C150.6158885062426 251.7833269207659, 133.27833253997395 237.69696218908584, 117.19384567854082 219.2256550206793 M165.02958864648247 267.76016505611295 C148.31390663524394 251.11428745800538, 131.1524811461465 233.69454006377183, 116.46214309376752 220.0101854286147 M166.06548303554933 261.644282579377 C153.91475104806017 250.25853396468446, 143.82520522234813 237.94178276711577, 124.32641551827925 219.28717316528684 M166.00590741153044 261.0693355626908 C157.17866994585899 252.43942232995562, 148.22088308541987 243.37669643791557, 125.59559915920633 219.25070435618886 M165.04071339558047 252.90371026771473 C155.56686948212214 240.91219230483827, 144.52114940572432 231.65335071888845, 133.8801935489357 220.68927511116394 M165.89040412421508 252.324872188292 C156.8861568146665 243.18499344918388, 147.90463986744126 233.63771135951782, 133.47139302371744 220.279122301097 M166.91410507152958 242.90801863232198 C159.24284456828332 235.10025153624693, 150.52135134744063 227.01907613690693, 141.2445840673851 219.76677531143554 M165.67563707347196 243.6192843937272 C160.0271505220147 237.7298263579274, 153.46475934632218 231.97819744457928, 141.67177566386331 219.9323289117766 M165.98756236027162 235.67952212632375 C161.26524418903813 231.08882979788976, 157.57368669526167 226.57725992542072, 150.28867887050242 220.64980071922668 M166.58760723586363 234.84571182743386 C161.84852598874298 230.11290409033552, 156.63985577409537 226.43043955844246, 151.2516543062064 220.03705758666524 M166.24058343137784 227.17436411924575 C164.76710952448494 224.47632863984944, 161.76152385350954 222.74712441380507, 159.43933962368564 219.97780175572166 M166.28173082101327 226.80000921174798 C163.91450497405012 224.40987091939448, 161.19710603142752 221.75853578616673, 158.96550720975893 219.61334909899062 M166.14094333351596 267.9643198243789 C166.14094333351596 267.9643198243789, 166.14094333351596 267.9643198243789, 166.14094333351596 267.9643198243789 M166.14094333351596 267.9643198243789 C166.14094333351596 267.9643198243789, 166.14094333351596 267.9643198243789, 166.14094333351596 267.9643198243789 M166.67145947427497 259.06366902740655 C164.2454301041781 261.0540026137461, 161.6005272077248 264.33346346308025, 158.25412278883337 268.4270233214907 M166.4681261615549 259.72133071737346 C164.42354403421228 260.91240418144343, 162.3934331347003 263.1348808799056, 157.47218047209262 267.8494519286863 M165.96164961011155 250.70643462174726 C161.6400080340569 256.75132884155255, 155.5979451386397 259.48714555166697, 149.5801138372661 267.7981380886845 M165.79330182746992 250.7906187266965 C161.95389265678364 254.61608531538212, 158.36648260819652 258.658174853105, 149.55435664891615 267.6728992476575 M166.60306191594347 241.4345680595967 C155.70294120562872 251.36143592202882, 148.11828122908685 260.5736631898305, 139.77760676837121 267.19663133094826 M165.7469414539729 242.44374827832308 C161.21665474633946 248.10274714751907, 154.9657374357459 252.9373356464671, 140.577729702206 267.9307704701535 M165.37940311581835 234.51534584559064 C151.8960219638263 247.03447218141102, 138.4790440636527 260.3354870994069, 132.5427922653942 268.4829739994816 M166.18410540298567 234.29944969884616 C157.93335134633838 241.33329912134758, 150.02483434812711 250.1369008821321, 132.43582336706805 267.3872828974835 M165.7003900066112 225.98826993285417 C151.5511744283969 240.69059616503208, 137.24120374283652 254.48872984497723, 123.30257462521021 268.55448054740947 M165.76438840107068 225.25476888670326 C154.90979278533635 237.52835441273908, 142.48606051455727 249.12850689531012, 123.99213862006489 267.698076178085 M163.87699976045081 220.8665818992584 C146.94376372655933 234.51179482563438, 132.31221610670846 250.40828766643253, 114.76354564469416 268.50377792785685 M163.76661430004427 220.45002261507798 C148.1740014923744 234.5706136213907, 133.35778160487186 250.202011044904, 115.38283268775899 267.7086337103955 M155.09989704946602 219.95883582267456 C142.97936367727868 233.06197537790504, 130.4965750501863 244.38414770250716, 105.6619846207211 268.06880559394875 M155.34226320172274 220.4153714071541 C145.25098274241677 230.23443106071213, 135.84108634747903 239.64318419087937, 106.44171904671286 267.42928264285246 M147.4747154200242 220.23361690673522 C134.81735467493263 231.93237891190248, 123.48827082868955 243.4979411822178, 98.713858350166 267.28281549881024 M146.82575283216102 220.16053816187673 C132.70913352399506 233.70549155277263, 118.01610805040877 247.71347483580715, 98.72526742348903 268.41019387389343 M139.02992166900037 221.0116771045654 C126.90326742736121 230.2406382884194, 116.47778431508134 242.14735080133406, 89.36482112990387 268.1243720955662 M137.6173029179215 220.09194377768327 C122.24401039106537 235.14752801874383, 106.82911999434585 250.71339917413033, 90.33760379464992 268.11638205195584 M128.92367009326946 219.95908086929012 C117.27784485716758 232.01048811579187, 103.91646882883764 246.3705007713191, 80.94021475680971 268.9673523373417 M129.06478943556678 219.53085290301132 C115.45652171013232 233.40130708501187, 102.66766985048127 246.48458452754866, 81.55551038675809 267.5027055754773 M120.59380248970658 219.53720515403438 C104.95836908033839 235.60603534493328, 89.50308093471025 253.07502359432115, 73.39506852775851 268.63094567726176 M120.48874461165934 219.4883739362984 C108.40165359900715 232.49710695724687, 96.52075402336457 244.31079881499392, 73.25342567637601 267.7888665928952 M112.90784815518666 219.05273941192314 C95.70439081120902 236.41203159747312, 78.15471366773498 254.51312857126942, 64.0640992396253 268.02965406845135 M112.40735692276168 219.44045902598188 C96.7375913594965 234.52119356136905, 81.73938748768684 249.97297828950198, 64.12844439006624 268.4344110026471 M103.31302388658466 218.70768559608152 C91.42840585005037 233.77719494506655, 78.00602461672416 244.63637198527752, 55.611711189285046 267.0232919640354 M103.76147109543624 220.10290407049942 C87.65924333643649 236.08229668451506, 71.38157605140901 252.0042552750845, 56.3253175043912 267.5137284531705 M95.78623398077565 218.84935815963436 C86.11413261051791 231.0803348082902, 75.31606504762138 240.173230404634, 47.18199617361275 268.46698631713906 M95.13958810624557 220.20634871828844 C80.13686102169389 234.68819195076054, 64.62908041558319 250.28839618663196, 47.861452245913426 268.0910523429028 M87.18407023463462 219.22038405570675 C75.00359743321782 231.04478806965977, 63.08705640221923 242.11184561066807, 47.0198013013489 260.7901087690217 M87.20286518175219 220.47127636778643 C70.68262252596023 236.064678459852, 54.761014539952384 252.7717642748393, 46.522979903060886 260.72439200841615 M77.59281194503653 220.60870273742364 C65.75769758857096 232.45634987595633, 53.6965510262056 245.346357674894, 46.22173911987612 251.44526552230087 M77.91011579851855 220.38301416743087 C66.94801452499131 230.7300839785825, 56.19986431572615 242.18918809104593, 46.09076595290372 252.03952259764043 M71.07842590885646 219.2975661579101 C64.031260422594 225.80342124333373, 56.38813179191488 232.8014120871476, 46.05675036369634 244.38773459247454 M70.5428096831072 219.76673301565933 C60.96497532806702 229.36753897494938, 52.10018488675475 238.28868126867866, 45.33597280963135 243.33442232138617 M62.03656642296933 220.71553877029106 C54.968465679188476 226.69160792066992, 49.025130856268724 232.98846218328694, 46.287676829684486 234.9538929326677 M61.33007281208061 220.36244756090926 C56.83978768294101 224.49564381160184, 51.172176974521825 230.37242619665673, 46.0166326998062 234.9826995780909 M52.87321681395925 219.68377811569263 C51.17376602717326 222.1515894912673, 49.33228663774183 223.91798533882857, 46.419919173259245 227.13877825578228 M53.23877287783481 220.0405374526559 C50.774305277990116 222.33984187856274, 48.07672361475407 224.515880229726, 46.11061231589686 226.9874665158756" stroke="#ffffff" stroke-width="0.5" fill="none" stroke-linecap="round" stroke-linejoin="round"></path><path d="M46.96269543241514 221.11332337409257 C70.5400118626262 219.24615081351996, 93.96528208922399 219.5021438459754, 165.4006359822656 219.7416052058339 M166.59166845451844 220.0700733229518 C167.02464141589655 234.0053206190467, 165.3299523804809 247.3704553052783, 166.9194665826465 268.0135161921382 M166.19335334371578 267.4013597682118 C132.7415274835731 267.32739438170194, 102.0001065916921 267.63687709921595, 45.84257776807798 267.11354815512897 M46.33411616455568 267.7634845301509 C46.03716111165536 254.3394508227706, 46.1501121519233 240.667130677402, 46.858272019734514 220.490769867599" stroke="#1d4ed8" stroke-width="1.25" fill="none" stroke-linecap="round" stroke-linejoin="round"></path></g><text x="106.10526315789474" y="244" text-anchor="middle" dominant-baseline="central" font-family="&quot;Courier New&quot;, ui-monospace, monospace" font-size="13" fill="#1d4ed8">Eng Lead</text></g><g><g><path d="M197.48023627353203 267.7960257472162 C197.48023627353203 267.7960257472162, 197.48023627353203 267.7960257472162, 197.48023627353203 267.7960257472162 M197.48023627353203 267.7960257472162 C197.48023627353203 267.7960257472162, 197.48023627353203 267.7960257472162, 197.48023627353203 267.7960257472162 M206.1084302320903 267.28938344397295 C203.3765085828948 265.9326136730637, 202.59217734422046 264.14174101536014, 197.1054768746097 260.01979899346713 M205.63784009399023 268.15282721464234 C204.17112111417703 266.21507425364285, 202.50517359740928 263.9144359824615, 197.55356929862242 259.64919851150245 M215.08389054886024 268.55711837463724 C208.84059876650403 263.10784544447915, 204.0459774916697 257.9168830126853, 198.1925878993173 251.95079127765317 M214.32565969037782 267.99534856971997 C210.52924710718386 263.57954360745543, 207.28030397604468 260.42314151530627, 196.93249350757642 250.33440755466987 M223.76243663400197 268.8379783814465 C215.13396182506781 259.765223009748, 208.61425219084833 253.83428192926235, 198.0801820627351 241.52337224481855 M223.48896700765724 268.18564509448305 C217.13303356704486 262.55971364816986, 211.3476561086989 257.3490843363578, 198.0747713503365 241.94287405254548 M232.15969266482242 267.7666262453114 C220.6654179184906 257.5904302580158, 212.0057193012683 248.6170854911581, 198.27275326167535 233.44243491669587 M231.65157718901133 267.32449336942926 C220.69921851772887 256.15622310145875, 209.09850810765863 245.64626921499763, 197.12019116849942 233.7176352205261 M239.77061713741531 268.0846269076382 C222.7861442727759 251.33833156865225, 208.37608272513427 235.60827850394364, 196.53674436723185 224.47180985969135 M239.4090773926433 267.79960701760547 C223.44734724681243 251.5728524381488, 207.19385298138798 235.37437746793995, 197.09422293276828 225.7196468691585 M247.80227792287445 268.96518593483324 C232.9511709699254 252.48036572831228, 216.8204263265972 236.67794728642292, 200.0166347502445 220.79789538995743 M247.84162508925624 267.4922543495586 C232.0689877677042 251.49786352028283, 217.3811480758099 236.40451341474184, 200.41658405109246 219.9505966212359 M257.71135226729353 268.07564951830255 C242.66689481811758 252.33372969136806, 227.70721196200694 238.53894759113967, 207.74401315655322 219.26373044864653 M256.5451980620532 267.4460083633353 C246.45941615326316 256.7074319485895, 235.65079273988337 246.6474290572319, 208.30406224392118 219.79322678705125 M266.1416267917663 267.24000447445263 C253.68484305922522 256.9055035499375, 242.916846683393 244.83583307036844, 217.48979633275943 220.14621322767255 M265.86284440673745 268.1354967444827 C251.23678959485903 254.1340685598227, 238.64076423207845 240.20740842426454, 217.51648416996525 219.59480299015905 M273.0614974923866 267.3013782446896 C261.010553040668 254.98261985401382, 246.35348289746548 241.33774508339278, 225.2438646499568 220.56073679344178 M273.71593253151195 267.53515186604756 C257.7588995277412 251.1735296510069, 240.95328306082584 234.98909001104548, 225.93010104992774 219.87799979110628 M281.501469740248 268.9845388954197 C271.72500725998253 255.62437697365846, 259.2110571351285 243.47552978364175, 234.8957078542392 220.46683483736038 M282.6354011570799 268.1879607885768 C272.0398866468663 257.47216404414667, 262.4928413169246 247.50612716042158, 234.51198441701186 219.7527964379397 M291.2916582814444 267.7583951180493 C273.817907819657 251.5320162401466, 256.0922973287868 233.397048082307, 243.57192506670026 218.73068167583466 M290.5930093166445 268.0742152601173 C272.5766860073109 248.840759313156, 253.88618632649045 230.788572842346, 242.3512761169207 219.18522686620622 M298.7992872370696 266.6984962289845 C282.6774991198907 249.136842125726, 264.5258222327402 231.0825725557371, 252.17372478343378 219.98759225027084 M299.2325863559088 267.6802617162158 C289.2066257929486 257.8151392527084, 277.94161077388077 247.14516847697624, 250.69043830785733 219.46612969895273 M307.46619010321723 268.9495321696316 C295.29304266004925 254.03139869152153, 280.8543490471112 241.46169671581342, 260.3144248755335 218.7045221270752 M308.3012819330759 268.06725127991933 C290.7380006665255 250.00493800820848, 272.72319458707284 233.15578659994802, 259.15650346052496 219.4798982467261 M315.54630975098104 268.9878335063969 C303.5396301416347 255.16018121736607, 293.2801743519017 243.5647144708688, 267.25695258909326 220.44256749765395 M316.680816018849 268.3398897617747 C297.9192265175076 248.58095560353652, 277.97160771216994 230.41043441677883, 268.59232435812663 219.77323050757317 M317.17213061458926 259.6128036188211 C303.70989368227197 245.90679590249962, 289.29796140013195 231.11085690553872, 276.45134454520667 218.71946517841337 M318.14766108456564 260.24411984796336 C306.39057767254985 249.4321209910591, 295.493344097001 238.103713626009, 276.0878240963655 220.0238791670409 M317.0911685646282 252.60840857280292 C309.5474166101533 242.5565963508768, 301.21930330484315 234.6620811586267, 284.47224673996755 218.67209261075973 M317.40328197542146 252.63486097352452 C307.11576999373256 241.53877741056465, 296.91521940643 231.53102039521116, 285.0112460834447 219.50940159817605 M317.0329081595646 244.6351143721216 C312.2088837075667 239.15585650577736, 308.51534329358185 233.2627133686709, 292.75641454446964 218.71896786109923 M317.1348231619926 244.17419657387813 C311.0772713490416 237.64233066546447, 304.3763639074431 230.75487605179646, 294.0404040400674 219.3759098615256 M318.2747297704921 235.3208140831835 C313.45861538680754 230.74390247909164, 311.1776208975026 227.4378925164209, 301.3402127048067 219.82274962083815 M318.2747858649821 235.62855120957119 C312.21941795587486 229.9183604260384, 307.08639764687064 225.4930972204773, 302.3939319994367 219.50682070513636 M317.24100610937495 226.36068691789566 C315.4935425848839 224.90797727189818, 313.64366727735126 223.1535787705293, 310.8072183027261 219.4327509164569 M317.96744034641927 226.86774328352345 C315.1112721782147 224.5659639958325, 312.871630281123 221.95890186048436, 310.73992778531766 219.65218509554313 M317.59084260468705 268.09336792162884 C317.59084260468705 268.09336792162884, 317.59084260468705 268.09336792162884, 317.59084260468705 268.09336792162884 M317.59084260468705 268.09336792162884 C317.59084260468705 268.09336792162884, 317.59084260468705 268.09336792162884, 317.59084260468705 268.09336792162884 M317.7139877806358 259.628874768973 C314.24191349282916 262.1861469894339, 310.8715208035506 266.34973711981354, 309.31363726739346 268.1317472930185 M317.54982113973574 259.46095188143164 C315.5729017051467 261.42043847398253, 314.3595271494686 263.4142702783484, 309.32620937146754 268.03978305201304 M318.26672545043147 251.06365210545857 C314.7593462043894 253.70473248089084, 310.9523519973894 256.97891895626236, 300.23244642149405 266.9856407520108 M317.3062907221294 250.7188822366451 C311.0386966203803 257.78758940970073, 304.55737778479875 263.33725760670194, 300.6502499360566 267.579092200727 M317.26849083272145 241.59513924633004 C309.88868824995023 248.41946979514245, 304.89903210381595 257.2435850553514, 291.300632928935 269.2337573048406 M318.14834025525823 242.406614519738 C312.81245355743124 247.98393843246538, 306.87159912532513 253.05438185001464, 292.45078659622845 267.9014312288471 M318.73891733256505 234.46743182238208 C306.9962243924163 245.16772364470162, 294.1161708417424 256.10282346765337, 284.37843514377346 267.24168564050717 M317.79479519152414 234.34756163895148 C306.0639316705692 245.23875306841686, 294.18122914795737 256.7403115442452, 283.19472402086575 267.52207176300954 M318.5401509460561 226.52990727502115 C304.5726396927756 239.93789515751064, 290.3278170229445 252.9429215703228, 274.34948343710306 267.93106882541707 M317.2701489391304 225.4630309673325 C307.17182432719534 235.2350929671444, 297.38479967584084 246.39264288323895, 274.76143843067143 268.2105633637615 M315.76801991954216 219.1420107953995 C297.63448788988444 236.82321385400763, 279.9492164211051 254.88966684897105, 266.99701755501764 268.4676905509762 M314.28003809403396 219.971311690174 C303.53061120922183 231.70761158325521, 290.7228255179464 242.83436919454405, 267.0211263588487 268.22376027914953 M306.9179618743708 219.80732819966966 C289.33844520246413 234.8997027736906, 273.7349594185987 252.0524181794432, 257.14138661861097 269.1239751335911 M306.4709195646917 220.22799768026914 C296.2321320899211 229.41110932116516, 286.27392465228314 239.66788767783996, 257.6660546511007 268.17457144472075 M298.9078051811282 220.15080455474546 C278.47972783440207 238.238333389911, 260.1100469145297 256.9036123398737, 248.77754912397674 268.1414875146679 M297.3466019462992 220.50945612367235 C284.7803039664879 232.30347179355127, 271.8223482365736 245.90512478527594, 249.84181046563052 267.90071048352195 M288.673133335908 219.32337980203326 C272.7664026944628 236.83489438121262, 256.7303857480787 251.72244807839016, 240.4125729422087 267.39343326061294 M289.7573598970595 220.4237131434306 C271.94685699123045 237.1101804320496, 255.38240705136528 253.8633563202485, 241.17855127314127 267.5334457061 M280.56163920980407 219.20763450793916 C269.46843399338314 231.40781723735984, 258.17504007003924 241.5495069447003, 233.20313531940067 267.2471585628323 M280.5880383876757 220.32234955009068 C264.0911538608654 236.6623669742982, 246.6050890363016 254.2164637774692, 232.62225485683615 267.96635011050176 M272.87062504891003 219.28028986386948 C262.31413555466446 230.80542559499398, 250.21167759676635 241.82500868259177, 223.4930228766463 267.42665023773236 M271.989302701351 220.5692508416995 C254.4474259228291 238.0054802172469, 236.8921383972416 256.07675809546504, 224.66596931241818 268.32405138227415 M264.7845024743198 219.8747076862305 C244.57089372039923 239.19850981880606, 227.43796034709095 258.2207179800171, 215.75063161003942 269.0750357267193 M264.00888843378857 220.2093572038039 C247.57009431910345 235.84266218702084, 231.52650253537564 252.75323004115268, 215.38106304809057 267.630981894464 M254.91229248212696 219.4433904164284 C238.9430698064763 236.99372723264244, 223.36509326481854 250.56769853290615, 207.90646689067373 268.41708309619946 M255.0228514931914 219.8374135094508 C242.62100609252727 232.8126152388503, 229.78641115434573 246.40257430895934, 207.44847478455642 268.28012870761825 M245.82512544342532 220.22048112086947 C236.7680117433098 231.44928865901701, 225.6745903457234 241.01124509841253, 199.490643464643 268.421701037579 M246.36681810026272 220.26671931918705 C235.62784810938277 232.2122844083123, 222.85561151984717 243.9000505350488, 198.98996355501885 268.1017835697837 M237.79374110430868 220.68426349095995 C230.54458641484595 229.38676146003414, 222.40073912242067 237.06875438997162, 198.4414532649065 260.59337105539873 M237.96723478820564 220.59787888105953 C225.84397744621498 231.8133708864217, 213.5444061254691 244.49478949339192, 197.6704265170465 261.5612251046418 M230.92598858587075 218.81966184310608 C221.24430747677334 227.87797663546587, 213.09960225746192 235.2587584004926, 197.44387553806553 251.6336373405573 M229.37261840272328 220.4875511306151 C217.23778896606103 232.19262353362933, 205.12894680120863 243.99015807747952, 197.73015907935005 252.82645868473173 M221.30432638420527 218.98074111871415 C215.42532616271333 227.15425338248522, 206.47349690238153 233.49966040923545, 197.8376395928408 244.93304402183404 M221.3848061020187 219.4171996909007 C215.65079590662313 225.72222447826383, 210.88021549506843 230.56324470533977, 196.78666765025955 243.46640368297358 M212.72332237040598 220.75320688419038 C206.57849469270872 226.13299507013517, 200.1049610826694 233.04842797979603, 198.12629767532596 235.86206229063518 M213.4902053567951 220.16184287246313 C209.49795259210308 222.82640215811966, 206.7247090437999 225.8611103022175, 197.0374925129781 235.74807059741414 M205.04045570270307 220.5135060659423 C202.47255975031328 221.95033803569214, 201.83137068530382 223.69767267336394, 197.24160060479443 226.564489288088 M204.37240078254752 219.83445523714641 C202.19823381383432 222.11065351981145, 200.6369169065691 223.92004128698574, 197.52996703309145 226.90034961320467" stroke="#ffffff" stroke-width="0.5" fill="none" stroke-linecap="round" stroke-linejoin="round"></path><path d="M197.85600086946633 220.49165421761572 C220.72764640723017 221.37368851689993, 246.4092341904774 219.89367980746925, 317.7034265567794 221.1770065072924 M318.5922171470955 219.18759165368974 C318.0198333488181 234.80665077380834, 318.3014720545485 248.51306913159786, 316.6019648072555 267.71689524017273 M317.49432325859215 267.5516997102648 C284.0795409334138 266.64324297712744, 249.25276481856253 267.63009637402, 197.05585378904487 267.7919351939112 M197.070276784642 268.0043556626886 C196.78548296851662 251.22431352846326, 198.12667176885157 235.33391334675252, 197.72547160361555 219.71346233449876" stroke="#1d4ed8" stroke-width="1.25" fill="none" stroke-linecap="round" stroke-linejoin="round"></path></g><text x="257.68421052631584" y="244" text-anchor="middle" dominant-baseline="central" font-family="&quot;Courier New&quot;, ui-monospace, monospace" font-size="13" fill="#1d4ed8">Data Lead</text></g><g><g><path d="M409.6515166094089 267.7567797673036 C409.6515166094089 267.7567797673036, 409.6515166094089 267.7567797673036, 409.6515166094089 267.7567797673036 M409.6515166094089 267.7567797673036 C409.6515166094089 267.7567797673036, 409.6515166094089 267.7567797673036, 409.6515166094089 267.7567797673036 M418.7402930848312 267.86880900341174 C415.99064878588655 265.3456386986494, 412.4060400445078 261.9931802544355, 410.20980533070207 258.82636393765245 M418.24758491911103 268.112941528215 C415.0006319628899 264.19747714516666, 411.40726117785994 261.13847745484037, 409.52351623951733 259.6056433592949 M427.1417891901073 267.47009092020886 C420.8656826520538 262.06534830360044, 415.3109596321917 257.47501589538683, 409.3063385603512 251.89661095352335 M426.8319121599284 267.3959671543081 C420.65413442985965 261.2275020498317, 414.1977576526145 256.0821745193745, 410.0742252902622 250.5569504859434 M434.8989882174297 267.8071229283799 C428.59617615697124 262.41117419260445, 424.30722589063373 257.3887461907475, 409.17145155645255 243.4807643889696 M434.690824665816 268.34432298402385 C428.9470481215444 261.3898616639847, 422.2445951715292 254.41710648981027, 409.52495870157423 242.4241665582419 M444.71863917956654 267.96150036501786 C431.786862763608 256.1965854208569, 421.79286944281944 247.26621672050592, 409.88253699518094 235.00069587007007 M443.74890060859326 267.31094091395937 C435.47519158137425 259.4210553731001, 428.4249191688026 252.71969078885942, 410.05946248336977 233.77093623466632 M451.6746922718303 267.38310115981 C438.4470463858933 253.4405389540608, 424.3261413532665 238.69564410095364, 409.23932632184864 224.4930020765123 M451.8408445781038 268.12107729177075 C439.3775462295848 254.37974962290076, 426.18157821046634 241.72980475804098, 409.06830060049236 224.91040648787293 M461.5356289395336 268.439771992444 C450.8155529934421 257.3838798647697, 441.07531164558526 248.51762995863953, 411.8895093565146 218.8156755627301 M460.0228455391917 267.2722540901144 C442.9497713021428 250.2745958517696, 427.00769411669705 233.60590616994781, 412.72944851753215 219.11891704026428 M467.8894618779887 266.8923282926072 C458.50918423879773 255.57661600807847, 445.8475561459471 244.7928688222866, 420.4253071692374 218.89467763315704 M469.0100768317003 267.6967589066465 C451.97587747818716 250.89456642328298, 435.63886849247655 234.01590206399908, 421.21736607407894 219.1700732392427 M477.2687350325083 268.7695542399873 C458.0136831843146 249.52276196939732, 440.28209619883376 229.74916605943218, 430.42319070583704 218.51365696798828 M478.0141961704736 267.32414496402345 C465.00651132053645 254.68753227472072, 453.01794177485453 242.30220100170578, 429.85521611048404 219.4119646829721 M486.27552359840496 268.8432027642717 C474.1979711806595 256.4442736197777, 460.9361478984713 243.9170847846872, 438.51101641162626 218.53108524691135 M485.98084564535543 268.0437311099013 C468.1603366589682 249.5438750006661, 450.3969273434972 232.76587787753974, 438.4945000915914 219.27180084410875 M494.70643402099097 267.5029955451478 C483.48441989966506 257.12206230199945, 473.75434063949507 246.87010656363424, 447.43617198191737 218.89840289961364 M494.0271517211892 267.86710181693627 C478.208953384616 251.95072472997913, 462.66583809903113 235.6648195798542, 445.8957038572446 219.36155682030883 M501.877603995579 268.4316230123033 C488.04985487990245 253.60839993593677, 472.0691136253404 237.13642948101148, 455.19057636202297 218.73501910578278 M503.07922523781906 267.49060718278486 C488.1237191499146 253.17918165243066, 472.90844131223963 238.0098796667683, 454.56579762228745 219.64047333422866 M512.5497024674814 266.67974434542555 C498.8186491936382 256.7778114723421, 488.09328915319475 244.24934021249248, 463.3356797472555 218.80331179510623 M511.5096614100885 267.25786293010316 C500.5572390060533 257.74460617608713, 490.64255142799925 246.383971690036, 463.59573597656373 219.9775567335245 M518.8529296320107 267.94098747420213 C503.6497528735196 251.50230726580796, 488.72332053799397 235.9386648949582, 470.92746358292743 219.1836276472714 M519.9750398278412 267.7222504065474 C506.80934412195245 254.10539643311438, 493.84489860591884 241.09973652251142, 472.2979578849171 219.5140789908525 M527.8120169344797 267.02694907832046 C509.9681006175955 249.01018540716663, 492.37009278026096 230.28896442171506, 480.44144056435135 219.34928209196596 M527.8534244559213 267.8094165847739 C517.8625796886139 256.7232784371629, 505.9454197911732 245.01863568201807, 480.24388668719143 219.62607770386904 M529.0001592583351 260.0711267756026 C520.2257145708357 252.247298619416, 512.0938344940317 240.7746104848269, 489.29765463683975 220.64155930887725 M529.8107958223067 260.7087062505733 C516.520724991829 247.71462176949996, 503.6840447011702 234.12053293143984, 488.5014300982304 219.68685609523024 M529.8630047983818 252.4029089952285 C524.2493448028902 246.5346733369667, 516.2388382686677 240.0044845384163, 498.1856809957051 219.14471222769288 M529.6375408913336 251.83465187609443 C519.4228934147903 241.33849266656878, 508.00330918741065 230.87026072552783, 497.2724802078777 220.02948301259246 M530.2730923123054 244.05201222925868 C523.4879777994872 235.97753765388705, 515.2140640802917 229.86410066694555, 504.98962608625993 220.1609625281003 M529.315390315219 243.61891087136652 C522.7333734140847 236.56003691702864, 515.8939497065801 229.73675660304073, 505.9304134809773 220.10929292861192 M528.8832782454185 235.0519081573806 C523.3367682881552 229.7028369643167, 519.355066966101 224.4911170742235, 513.1131276038167 219.08550063978697 M529.4833455588065 235.30119270904578 C524.5863614638058 229.8136188790786, 519.5289910604449 224.64555699984942, 514.2575907573727 220.26638594094482 M530.1628098520778 226.83681183388288 C528.1413567099888 225.42942802128422, 526.2471917658987 223.64983524459078, 522.8964780464721 220.17750219452947 M529.7745309365309 227.02527947263624 C527.6633615725818 224.24580031510482, 525.3014767210211 222.2830111776363, 522.6357294255821 219.78082320943295 M529.7621229405639 268.1326139015415 C529.7621229405639 268.1326139015415, 529.7621229405639 268.1326139015415, 529.7621229405639 268.1326139015415 M529.7621229405639 268.1326139015415 C529.7621229405639 268.1326139015415, 529.7621229405639 268.1326139015415, 529.7621229405639 268.1326139015415 M529.4778971517025 260.1042783932022 C526.6975635716301 261.5314329729368, 524.298737364374 264.8820961095142, 521.0945328106594 267.74666914720916 M530.0728971826223 259.83077092815256 C528.2043697913832 261.11867064918454, 526.367731579539 262.883857559454, 521.1816193355482 268.14031205800256 M528.8931823554574 251.3310674718326 C525.287411590925 256.36244655258736, 517.921373522647 261.1691153429113, 511.60616007042773 268.4833412979999 M529.540660681495 251.75734362925647 C524.320452899571 256.2751788369867, 518.3393378266903 262.338313143571, 512.4675242879027 268.59548303645937 M528.6553008142051 241.665908315726 C519.7046475344345 252.75668232367283, 512.2188263941647 261.4838544008322, 503.5450401542046 268.78108116139555 M530.0711201212494 242.2796786438156 C523.929633433229 247.65313954828525, 518.2988418796101 252.95943788443577, 503.8452245549568 267.78228987020333 M530.4198126140175 234.32971568183626 C520.4178078857121 243.0482555882696, 510.47467868453793 254.01744031617713, 496.93545908685843 268.3105951641955 M530.1268660447685 234.30587146171953 C521.7041181588966 242.1032623963726, 512.6354552112751 250.71455248785395, 495.8750057393692 267.56705851119835 M529.7012929502067 224.5817424998508 C515.9154860218601 239.2990387856336, 504.1358113677582 251.5109579313128, 488.5177733137017 267.2178549860873 M529.497290541896 225.58149093062443 C521.1515901807784 234.25567615719416, 511.6012731488484 243.77062350681217, 487.45211930598373 268.63324843210063 M525.9804211433394 219.72763757420336 C509.04659311791545 239.04483076504363, 488.3075978002076 256.88124391417233, 479.951870530047 268.34180105675836 M526.7148429527296 220.60279864793273 C508.7919497666381 237.4022593052988, 490.77594604745275 256.0410293285002, 479.38080109464426 268.64908473056636 M519.4574077639815 219.56601845932758 C498.81890779235556 239.0476280521389, 480.0947248517171 257.23088653904205, 469.34216968120666 267.6893425558963 M518.3209569923665 219.95082183604694 C507.93466250213123 229.69798546428098, 498.62814402179316 239.60278904746335, 470.81177132019434 267.6300581292519 M511.06227600693796 219.97819008541856 C492.24933462933507 237.46863317982456, 476.45570885997046 253.61697658529758, 461.9626209624933 268.9103574131884 M509.7888321251432 219.5685719681308 C498.7728554736865 232.01164991699278, 487.5499694874441 242.80697261740755, 461.6797345724778 268.5014249758132 M501.43772606752145 219.94528038216384 C489.19837090378644 231.32269613253155, 477.16847234743517 244.37443878983495, 454.5817058192194 268.9726923083224 M501.41879794090323 219.46568039184066 C483.340285002722 239.21383038139743, 464.4262755197112 257.15431100240863, 453.94087981633845 268.0607072429069 M492.92098939104443 220.76638602925092 C472.9945516235468 240.10119681234832, 454.1524875810519 258.0412157956391, 443.7874369466974 267.83716267098566 M492.8326684044904 219.82404407983273 C482.0946189538206 231.18617286873092, 471.92799338848107 241.19443680839908, 444.41038039162 268.34019252818905 M483.4688286728193 218.93357245636736 C470.7746308695593 235.76246560523379, 454.8083508752542 249.94929575517855, 436.71235829023993 268.53255268086576 M484.2112418557485 220.36032562976334 C470.83123153549394 234.038198789152, 457.21820828409864 247.55041046370405, 436.7998940131662 267.5694340543159 M474.98253785815876 220.60687384320056 C466.1754299184323 229.64773404528546, 454.27589253942693 242.3744011697743, 428.15854504515937 267.63061526765017 M476.3318010095213 219.68845326428865 C457.6931786900369 238.27432869533536, 440.6041989943909 255.44367967546617, 427.3550627708208 267.9377506689438 M467.23294214237507 220.08929311943803 C449.3483151742288 240.12045740288107, 429.21474332423946 258.80922296319756, 418.5226036567683 267.32107211102624 M467.00561295565245 219.48212083106492 C457.1041499133239 229.45313167584828, 447.7126273219883 239.5110912254969, 419.2930131294275 267.7567268447288 M458.9853979707808 219.1018019647673 C448.1432719408076 231.49764073902733, 436.75449670853135 241.5286580214745, 410.12067182037913 268.2866136406817 M459.51542915898574 220.23728780274843 C440.79276438426115 238.2940266260432, 422.3394195871636 256.8860068677818, 410.8398559288301 268.02271267932736 M451.52479303868853 219.65834080887586 C436.20451779941595 233.44137139483516, 423.63092558380004 245.94073837546574, 410.5844862931699 260.3068312244385 M450.6529854593649 220.63467927699537 C434.5274162415291 236.87469985741808, 417.6474429242814 252.5328899181351, 409.5392541957379 261.10825608353014 M442.58054629141077 219.34081883145126 C433.3469160427653 229.71518366455444, 422.6132697795916 238.09212178258653, 409.3873930209607 251.73220704147647 M441.5565020716338 220.5022859764621 C434.91045603603874 226.9038494071367, 429.14630430251543 233.7344319954574, 410.09093327050215 252.3235926544858 M434.6516079242599 220.9741139621809 C425.25617279422806 228.41528340429934, 419.79564290424366 234.1081066139859, 410.3399098866911 242.98855133385624 M434.14818358563605 220.17786424880472 C427.5650712645061 226.79543397630945, 420.8803747706405 233.5646582488006, 408.95874355559357 243.5085829272237 M424.1314593825485 220.7010728807524 C418.9845752470281 225.40990962616985, 411.98084284986925 232.94392118287453, 410.6862995856732 236.68042953126533 M425.1717189662154 219.87143606667968 C420.89155825265686 224.17862822452105, 416.70141202724886 228.68253196488257, 409.9797333908558 235.2236394994001 M416.72907565615265 220.0534318988547 C414.312462101283 223.07349802515282, 412.25734979832237 225.01598501530825, 409.98466310103544 227.10039820305644 M416.827409751966 220.13857090429966 C414.94354341438435 221.75772191822594, 413.31849126309 223.20045910141124, 409.67070281499184 227.32343059319646" stroke="#ffffff" stroke-width="0.5" fill="none" stroke-linecap="round" stroke-linejoin="round"></path><path d="M409.3808852538859 219.86998506113886 C433.9468598992025 220.52522622027993, 457.0847652390991 219.7092157689631, 530.6377960786615 220.21240780875087 M528.8243447870408 220.70510998442768 C529.4162042291078 235.60798092857002, 529.2741706759844 252.05568295791747, 529.3160419792329 267.4202742882073 M529.4268721208368 267.70203965231775 C493.6491333306227 268.9350915725529, 457.13700199280123 268.1993156488239, 408.90070875738013 268.47032223269343 M410.83801635209664 268.24522679522636 C410.3349837727462 257.7091762341559, 410.50441033314814 246.80069601610302, 409.2242501348649 218.93615480139852" stroke="#1d4ed8" stroke-width="1.25" fill="none" stroke-linecap="round" stroke-linejoin="round"></path></g><text x="469.89473684210526" y="244" text-anchor="middle" dominant-baseline="central" font-family="&quot;Courier New&quot;, ui-monospace, monospace" font-size="13" fill="#1d4ed8">Finance</text></g></g></svg>