<svg xmlns="http://www.w3.org/2000/svg" viewBox="0 0 640 300" width="640" height="300" role="img"><g transform="translate(40, 24)"><g><g><path d="M316.8005064804107 47.248315904662014 C319.0684611968882 53.08610601844266, 318.05890780018643 57.93488055299967, 317.066902442649 72.24780911020935 M317.3512092690915 72.82262831516564 C277.0525916649029 72.3674974409327, 239.04807615727185 72.38224748051017, 203.9248559933156 72.12365333624184 M203.25415782518684 72.85237959437072 C203.8614767228253 81.42998777152971, 204.36592746125532 89.4344861311838, 205.04030056782068 99.14870927147567" stroke="#1d4ed8" stroke-width="1.25" fill="none" stroke-linecap="round" stroke-linejoin="round"></path></g></g><g><g><path d="M316.8005064804107 47.248315904662014 C319.0684611968882 53.08610601844266, 318.05890780018643 57.93488055299967, 317.066902442649 72.24780911020935 M317.3512092690915 72.82262831516564 C356.73021105621007 72.90265340307504, 398.4033149398863 72.91740344265251, 431.92485599331553 72.12365333624184 M431.2541578251868 72.85237959437072 C431.8614767228253 81.42998777152971, 432.3659274612553 89.4344861311838, 433.0403005678206 99.14870927147567" stroke="#1d4ed8" stroke-width="1.25" fill="none" stroke-linecap="round" stroke-linejoin="round"></path></g></g><g><g><path d="M202.8005064804107 145.248315904662 C205.06846119688822 151.08610601844265, 204.05890780018643 155.9348805529997, 203.066902442649 170.24780911020935 M203.3512092690915 170.82262831516564 C181.92360678389667 170.49424490565062, 162.7901063952595 170.5089949452281, 143.9248559933156 170.12365333624183 M143.25415782518684 170.85237959437072 C143.8614767228253 179.4299877715297, 144.36592746125532 187.4344861311838, 145.04030056782068 197.14870927147567" stroke="#1d4ed8" stroke-width="1.25" fill="none" stroke-linecap="round" stroke-linejoin="round"></path></g></g><g><g><path d="M202.8005064804107 145.248315904662 C205.06846119688822 151.08610601844265, 204.05890780018643 155.9348805529997, 203.066902442649 170.24780911020935 M203.3512092690915 170.82262831516564 C223.85919593721627 170.7759059383571, 246.6612847018987 170.7906559779346, 263.9248559933156 170.12365333624183 M263.25415782518684 170.85237959437072 C263.86147672282533 179.4299877715297, 264.36592746125535 187.4344861311838, 265.0403005678207 197.14870927147567" stroke="#1d4ed8" stroke-width="1.25" fill="none" stroke-linecap="round" stroke-linejoin="round"></path></g></g><g><g><path d="M430.80050648041066 145.248315904662 C433.06846119688817 151.08610601844265, 432.0589078001864 155.9348805529997, 431.06690244264894 170.24780911020935 M431.99999999999994 171 C431.99999999999994 171, 431.99999999999994 171, 431.99999999999994 171 M431.2541578251868 170.85237959437072 C431.8614767228253 179.4299877715297, 432.3659274612553 187.4344861311838, 433.0403005678206 197.14870927147567" stroke="#1d4ed8" stroke-width="1.25" fill="none" stroke-linecap="round" stroke-linejoin="round"></path></g></g><g><g><path d="M257.73506473629425 47.73506473629426 C257.73506473629425 47.73506473629426, 257.73506473629425 47.73506473629426, 257.73506473629425 47.73506473629426 M257.73506473629425 47.73506473629426 C257.73506473629425 47.73506473629426, 257.73506473629425 47.73506473629426, 257.73506473629425 47.73506473629426 M265.9609286273968 47.6337362756456 C264.22578502750196 44.7499147916465, 261.1684512499498 42.93127273028854, 257.9481128565098 38.815594286153576 M266.2988105997768 48.09442502977949 C262.84188502381926 44.3992926575847, 259.93740548070934 41.22387496359208, 257.89373134131233 39.60547418976065 M275.79224579014164 47.88728326177848 C269.9245891341526 44.57843037622906, 268.17037483942937 39.38494785011394, 257.87753506145134 31.94956764359993 M274.44059961844516 47.77492930079502 C268.7058512724713 42.58742725829143, 263.3043050766699 37.20438927028799, 258.1055161831032 30.42629089900327 M283.3561801065608 47.9434552631403 C275.4384111800558 38.97683022408242, 265.0868328988515 29.703005653624885, 257.8550538941349 23.07585873764217 M282.8214861812919 47.332988605747616 C277.2035682789841 42.052195881584026, 271.19532396277174 35.19890119467849, 257.6139717516552 22.199759099187553 M290.8638564121158 46.76918483591329 C285.11958834429095 40.710782078464405, 276.99706854133376 33.9655330455802, 258.37356813392296 14.191446172626778 M292.2022333169536 47.16075826073688 C281.38589146342804 36.78123408787375, 271.15987926214495 27.0133731913125, 257.9030557152878 13.286486233392818 M301.0942664060252 48.27278496837866 C285.37870725975966 31.60413197664747, 271.0973010262974 18.018727439771748, 257.06636635503423 4.1690960618350035 M299.82195845707076 47.49578099037211 C286.24800412941465 34.10882177599084, 273.5349676272435 20.686789132862785, 258.1378620681415 5.13866346372844 M309.00882366250795 48.448896773817665 C296.4219500477811 34.52912057770056, 283.5791488949784 22.231984665185642, 261.46508613143374 -1.0911702317056893 M308.0566930957843 48.15431045676274 C297.2550037828401 36.449790650246236, 287.58411406515165 26.457798849828393, 260.1050759916033 -0.5406299854499934 M316.33886363078255 47.79098949051154 C300.2543391658038 30.699292411332774, 283.31908948078984 14.47702287749522, 268.3587869120863 0.5219967800321342 M316.8256327897345 47.425061259518095 C301.34516329418466 31.86019279345292, 286.20012549771684 16.624879101389528, 269.1907967295599 -0.3321039522869228 M325.773143635068 48.10386048174153 C306.8428234685888 29.69031673821924, 290.2625806348031 12.36973908368616, 277.0961686467184 -0.7415066641626595 M326.1973871580622 47.562958935747545 C307.497852498419 29.80986980952041, 290.07200386724355 10.91789422378951, 277.1015062141596 0.108211288334644 M333.94534287458293 48.11613523578892 C317.2008302869716 28.91805986038621, 296.9627726997118 10.802441347642729, 285.9152074095487 -1.1386019510088203 M333.596229882408 47.682889960060514 C323.43150150234413 37.24340366841861, 311.65705642965145 25.833193961116685, 285.8124546895429 -0.31514935147591816 M342.421562423546 47.492767365934974 C324.0273065075219 28.954091422963447, 307.57787292393186 11.61767842634084, 293.67380114979613 -0.67738234222507 M342.4083487069124 48.05345174456639 C327.4536128297261 31.92081935121265, 311.84089064994595 17.184298860675767, 294.31705646235065 -0.10019002210920577 M350.68782523117625 47.247538610460886 C335.2159219557027 31.93278979041261, 317.7274867437368 14.36248304505282, 303.63726969167914 -1.5046129745302437 M350.78809543821626 47.79070263887448 C335.9310080380609 32.16402878051777, 320.17292543293235 17.013608817391308, 302.4331399017232 -0.4537039364559291 M359.9375761216921 46.555558832647925 C345.6104063434434 34.86657578785918, 333.8034187418762 21.15906964972435, 311.6658547344167 -0.29323085964300616 M359.0642359454599 47.95191193009419 C349.6057220535582 38.571725588758916, 340.139397270435 28.26440965430285, 311.60919743930145 -0.39752336990662795 M368.4591817943124 47.96576602077732 C355.92790008154185 34.313167239666555, 343.4235091348172 24.102574620387887, 319.60221985222756 -1.0298448842821357 M368.1462001602842 48.02930984283487 C353.42588109936133 32.15686451952825, 338.0429372145064 17.967051568911696, 320.3306355692258 -0.8747696603519557 M375.42343082325607 47.01342628813041 C360.0849417182708 30.69226285518067, 345.5297374465323 16.349856392089354, 328.2589504943303 -0.20223581016635422 M376.1303320768297 47.84383753920598 C365.55237253589996 36.198728928248705, 353.1495269955228 24.631302911587532, 328.52602484813696 0.143896791817491 M378.7999658458762 39.96156606112287 C366.9844515032253 29.537297561671096, 356.85962638503327 18.855671100514964, 336.4060539849439 0.41314372598553173 M378.0350719398715 40.567829306951324 C367.0012165957044 30.281734284959455, 356.8593312188307 19.813614150185487, 336.5733498951757 -0.045973476288969584 M377.34377343588403 33.212461952528365 C366.1850360323919 22.06333833100321, 355.8918780296471 10.416899950870455, 345.7584595232869 -1.0363307875452277 M377.40619611804266 32.01775243267269 C370.8956136476291 24.834229810547722, 363.17119762063555 17.86837249794403, 344.9062593919823 -0.38886899006196246 M377.8121213548713 24.349578013001242 C371.1004050953274 17.00373510525016, 364.11170567804817 9.575115143346641, 352.7635181835782 -0.06695573747732625 M377.35250435535687 23.77739445335255 C373.27741306844973 18.384360382015004, 367.1305706904753 13.640208569626575, 354.2203160826977 -0.17556733739205585 M377.5804856770568 16.178492855822775 C373.70148502821075 9.932398667676601, 368.8895083582406 4.91541890303332, 363.18850291503645 0.15380061447045812 M377.5804968959548 15.520040281100307 C374.390275634794 11.394052159398443, 371.35465570321657 8.73998364850957, 362.67924677396246 -0.14938516866990312 M378.09374094483337 6.6382423233743335 C375.00829476523757 3.8381704692784924, 372.13557800393414 0.9845490692077602, 371.3901291340112 -0.16419912640579923 M377.8790277922422 6.619653596499893 C375.1786289090032 3.8965560391647527, 372.22795882978784 1.1124019122981719, 370.8966710305295 -0.4803122905885516 M377.75588001646554 48.24411998353446 C377.75588001646554 48.24411998353446, 377.75588001646554 48.24411998353446, 377.75588001646554 48.24411998353446 M377.75588001646554 48.24411998353446 C377.75588001646554 48.24411998353446, 377.75588001646554 48.24411998353446, 377.75588001646554 48.24411998353446 M378.06850905165527 39.47499625361249 C375.345772534396 41.71862648728339, 372.923226466723 45.739812043176556, 369.600213849616 48.539795857812436 M377.74767572347525 39.72941167610422 C376.1386468166793 41.495245754731116, 374.5383268856655 42.96365713548245, 369.3147282704308 47.94540300961134 M377.41105658561446 30.301726621518732 C371.4778231668324 36.045408525940246, 366.9246667558588 40.972003390588156, 361.18775058104524 48.502574549610884 M377.218969639954 31.67277264775604 C371.4374015097921 37.15085513241784, 365.1493801731022 43.252546341391685, 361.0313112839578 48.62126483935413 M378.17140966207245 21.61979895030215 C369.1704841664243 31.038505259874217, 363.98315034774566 38.432730901367776, 351.1731627831426 48.95219786017684 M378.1073795465798 23.222094004983752 C372.2717047577377 28.170493847163733, 367.490598811682 33.4975175903081, 352.1231935166013 48.68573264497814 M378.4654949620412 15.326032366121705 C366.54827427391007 27.002189350209886, 353.5087484246281 38.21272445394742, 343.00049812671944 48.07378352731014 M377.316670533833 14.822058329435583 C367.12979467132715 24.186166734597684, 356.3673840475358 34.87234854903238, 343.7237559021379 47.649860751810614 M377.9457416847394 5.030302357258643 C361.0550598847052 23.208350132538254, 344.14964515195726 39.3858056138824, 336.12648268599446 48.6916601642921 M377.2117412833543 5.296927095720912 C362.0956261621855 21.06778969446501, 346.56177103313286 37.59574987646563, 335.24887368470814 48.027559071960994 M374.16857377963964 -0.49276033825957477 C363.2362257330468 10.644482191419973, 352.96584965998125 22.43109456972229, 326.42776441018657 49.27898450940395 M374.59097741453803 0.15309984069532448 C358.885459062432 15.917513002427569, 342.860588810385 31.846177638477197, 326.4325861709528 48.030198455038615 M365.61033707121453 1.080303142594488 C353.0501013740479 12.801590212211574, 340.31275199313774 25.84878551749914, 317.1884131235144 47.97024142592696 M366.7209286092787 0.4444370387143806 C357.0721691963667 9.54054107687908, 346.9072059295294 20.005218527523674, 318.7333467300124 48.260360688152886 M359.14008063317516 1.1489984136096267 C341.63731198071395 17.269817294434603, 322.5800626829476 33.986186198219016, 309.68742052519667 47.77374390214232 M357.6278399862094 -0.219271272604999 C340.0602566929795 18.578495281341787, 322.5620219883774 36.205469438306004, 310.1402727935274 48.20558849591312 M348.8649211647403 -0.45648653693282315 C335.58359236748674 15.158118909219224, 320.3564063092455 30.155612317619195, 302.1862001894522 48.5841330513313 M349.56176647697055 -0.23641986865335413 C338.592504047171 11.126515229731801, 327.8262922798883 21.930472186681214, 301.37939585563873 48.13213554042872 M339.9743972401286 0.48036440424835974 C323.80911263822514 17.347044508751765, 306.64379029493705 34.76202600883913, 292.5160875654997 47.59487811177517 M340.4596770757029 0.2233074126786619 C328.0698078768797 13.39412305233307, 314.9559426878298 26.281594637104313, 293.1199114729868 47.97871642130906 M332.12796930855893 0.9748954754344253 C318.0890086020971 13.379905290623773, 304.608534341553 28.56380457710779, 284.265839977558 48.110776446755175 M331.9517048390471 0.512687671000424 C316.99566667573004 15.872236076426082, 302.90462650164807 30.546474321034157, 284.98042926471237 48.05025667566353 M323.24251969425 -0.3462209600933761 C312.90031623348045 11.119541384379655, 301.3004077795091 24.057304795931504, 274.96913662484576 47.96045354455256 M323.5673968861438 0.20070894342130713 C313.0663162838971 11.454531788698466, 302.40427614784187 22.52996713883447, 276.335222912456 47.911642778101495 M314.47985259642064 -0.4324844140537948 C303.0631959064776 14.18039510400192, 288.89094837400893 26.511841588191714, 267.09207858158175 48.30886301844861 M315.94196439863356 0.36632020455068637 C299.3244421353847 16.71083359489831, 283.53421003395647 32.412138522711984, 267.7204801603583 48.28147214073237 M306.83419408928944 0.2029337268344193 C297.717129708605 11.102017013773569, 287.8051236497781 18.78773008096231, 258.62068879698484 49.26978660672452 M307.4225326206569 0.6921813664979367 C291.13758543936495 16.304607498114855, 275.839825007666 31.62547383725402, 259.24055281505997 48.725803113165455 M298.9196921220753 0.2956902008525162 C284.9477036465602 13.480232215560417, 272.3155200616057 26.50004492801744, 258.71947990713903 42.04726636079607 M298.47439085885463 0.7584132788724333 C286.36806958518684 12.883809779638073, 273.58522892692093 25.263019895148854, 257.845274557567 41.28083717064468 M290.75791651899686 -0.5572301287182541 C282.3786495811755 7.342266887584339, 273.28432615039696 17.243805627505925, 258.5199643617708 31.54709451843693 M289.4872424823674 0.7363477287835508 C281.8871965209591 7.321668118919387, 275.22112217845563 15.365480937222411, 257.13722107002775 32.74565878727182 M281.56535897927284 0.9149857264033301 C275.5828980453196 4.933269103474433, 271.86587130359845 11.489011398479297, 256.6787171727259 23.418750755301406 M281.5814549228355 0.282277440840636 C275.8663267716879 6.545448579705932, 270.3438845773084 12.081978737189644, 256.9485227842096 23.605422687529316 M273.5409330771222 1.2694788794985754 C265.87900170681075 6.85840235145949, 261.5262632452496 13.699520672944955, 256.7364487892229 15.296329309670764 M273.2143096744 0.43120607715312076 C268.6524671263593 3.9477735485120844, 264.1242946120337 8.528238981996621, 257.71868775675335 15.753530971026558 M264.73613464419066 0.2615387158489849 C262.25623291658917 2.042015872021898, 260.62809611626494 4.851381786878592, 257.5195093751166 7.128589609770507 M264.60252366015953 0.12572855008980938 C262.0813677292934 2.3140789688457617, 259.78920536051805 4.77585550960295, 257.817182660776 7.315761674793839" stroke="#ffffff" stroke-width="0.5" fill="none" stroke-linecap="round" stroke-linejoin="round"></path><path d="M258.5143580686301 0.5783308435231447 C281.80868717618284 0.6395377033799887, 305.6650047328323 -1.0964640385061502, 377.5238432060927 0.23540130145847796 M377.2216013241559 0.3175183307379484 C378.50104456450043 11.601330154761673, 378.0773723056465 21.542613826319577, 377.30355085618794 48.90337904803455 M378.92202254645525 46.95033994205296 C352.5590660814196 48.803848595425485, 326.87371085844933 47.08121927480399, 258.8343286525458 47.47838703878224 M258.35721325166526 47.040871132537724 C258.2541744884401 34.08486270569265, 257.0824122485071 22.2667826693505, 258.48825221545997 0.4226924668997526" stroke="#1d4ed8" stroke-width="1.25" fill="none" stroke-linecap="round" stroke-linejoin="round"></path></g><text x="318" y="24" text-anchor="middle" dominant-baseline="central" font-family="&quot;Courier New&quot;, ui-monospace, monospace" font-size="13" fill="#1d4ed8">CEO</text></g><g><g><path d="M143.95689014324222 145.95689014324225 C143.95689014324222 145.95689014324225, 143.95689014324222 145.95689014324225, 143.95689014324222 145.95689014324225 M143.95689014324222 145.95689014324225 C143.95689014324222 145.95689014324225, 143.95689014324222 145.95689014324225, 143.95689014324222 145.95689014324225 M152.64333655120868 146.47423322194493 C149.4504703015648 142.4240112040926, 146.47285902130827 139.0437833562244, 143.6629863836733 137.32323061719947 M152.23910049596864 146.31561073021268 C149.4597265690472 143.05982321081672, 147.04488003252288 140.1031003725269, 143.9142233532784 137.8229904244136 M161.9006895024598 145.06132719421066 C155.91875938958077 141.7970046222109, 153.40444334982982 137.2041521196761, 143.04183079355633 130.15645870633074 M160.99739715906685 145.43661927224375 C156.27539621591364 141.89056963722376, 152.26052892370163 137.91271876060776, 144.09779303686 128.90990521713744 M168.54327676105964 145.17367119693435 C162.95117058303038 139.88385279379938, 154.83035166970805 131.51854130197057, 142.99686845892347 120.89432226865375 M169.27388891052175 145.75273788214898 C161.86812790455474 139.14341528425945, 154.94280809667325 131.72799473499154, 144.31470417396403 120.94212299174453 M177.47334799793097 145.22513034248027 C170.29157826047935 137.57800862816606, 160.8347637539559 130.8757356617885, 144.03389693849957 111.61077851286153 M178.35010180760653 145.40827719212746 C170.21240959814452 138.3071377463756, 163.33683539436007 132.3478661520348, 143.6928721012292 111.60085863439362 M187.04888661151125 145.83233060741102 C172.48650769096645 131.96741074891665, 160.89425797251897 119.36716442364235, 143.81949338072218 102.45135966551656 M186.30427071360245 146.07832265139794 C176.02510143027646 136.17314359462168, 166.36959117441125 126.2996410568427, 144.16248480693676 103.79049446930344 M194.39271975023806 146.18455421828904 C178.72022491823174 130.4770538768815, 162.6512748367634 113.09943427598873, 147.38850580877494 97.58768132792758 M194.28845861679076 146.19538158417916 C182.1863323883498 133.71839402197287, 171.26120517710984 122.15106264527424, 146.4684855291141 98.08876182043898 M202.96751831254883 144.86873965167678 C190.14717365755504 132.2032501149037, 175.50997873580116 118.9920154955027, 155.09062599584158 98.41401535140322 M203.34105663045273 145.9368831896899 C191.72882191431674 133.925050879144, 179.47205076965517 121.48772794329133, 154.95464563078878 97.30581388676511 M210.9507969468811 145.4944816341368 C194.83886088888642 130.1852987686767, 180.9116796695891 114.77744790788458, 164.08010809086718 98.28700846301362 M212.39928399286956 146.21267854214884 C195.3181192951675 128.8552045646583, 178.49972648109082 111.50455784147057, 163.4907832257495 98.18644436800824 M221.20991405167234 145.51903114223157 C204.43879349803422 128.64078501301063, 185.59598277178875 111.64285243579774, 173.2329042422893 97.49281788932132 M219.9116880673225 146.45254059077476 C207.88348370464232 133.87482040493836, 195.15124578339393 121.87105321447154, 172.42739880227768 97.33972308838712 M229.67707177536005 146.67229540252364 C212.2372642182756 128.71284813816501, 196.17170149936953 113.2733265931939, 180.26481034854538 98.41525710688877 M229.05064434209282 145.99366415978648 C217.28987686268394 134.27710364804273, 205.29773695139764 122.83736711524304, 180.95132097365445 97.7696417471205 M237.72431601638178 146.18183789157547 C223.49841408701923 132.50104452644268, 207.75484811136147 116.59373548399721, 189.30646605807294 96.76079584227848 M237.3248564304618 145.46816594840266 C225.5285862517356 134.76352250665298, 214.44572548975256 123.69598702867417, 188.69820647816113 98.26261391842712 M245.338536423175 144.79787833594955 C228.81624891750428 128.75196429719875, 212.41892593850704 113.35360424506612, 196.8783547693095 96.78356007205294 M245.39185607071067 145.79058453084207 C236.206880337734 136.5314642456189, 225.69088299562466 125.53348460084385, 197.36504017907893 98.3749750515257 M253.89646639417717 145.21829271220844 C238.3351553660833 130.04514720081355, 225.343025696771 116.84061418639327, 206.66580363069255 97.7103320227747 M253.87050312612067 145.9453803563235 C243.54776962585944 134.51839433129473, 233.21518630442355 124.17207287833571, 206.3226350646891 97.42048247063505 M261.7396830778258 145.71361324691452 C250.18060948943972 132.41999065597878, 237.90350539423687 120.56848217807023, 215.49398354065957 96.96555017100621 M262.553485584973 145.57443574906566 C249.9296185539404 132.9854709245985, 235.94057969732313 119.46727111541318, 214.22813224827294 98.2578153749739 M264.67853956069297 138.68096060476492 C249.15152027321386 125.93643300368413, 237.1043086985939 110.37561874313582, 223.30290914764808 98.19630924330998 M263.7487517486835 139.2934870964218 C251.18190898605445 126.82530645026087, 239.1005768940709 114.0915048424769, 223.0375009681116 97.87807483876098 M264.1661547407085 131.26803376181448 C254.93750929619978 122.05861588123965, 247.36195806454276 114.17650389480663, 231.1224388500956 97.69736021624851 M263.69100010502586 130.67861472210313 C255.89715296247192 122.89501645341244, 248.15370329540121 114.26868421512131, 231.21803858748646 98.39228381121505 M265.1028505786831 122.02754725699886 C256.430044258319 112.0864876402204, 247.26097153582916 104.43757382848187, 239.04727479643955 97.23611031638431 M263.5836165796543 121.48318013770147 C258.98406020456383 116.76313802043971, 252.6987015606833 110.88316050773138, 240.16087059467864 97.61888711655484 M264.6395792230541 114.17065831688045 C260.7414528378503 110.33834485307638, 257.3400391723517 106.52692499823144, 249.01196288511753 97.67762302027988 M264.0396016608501 113.45375316743552 C260.7330937377027 109.55038199929925, 256.5731237117686 106.15351481474231, 248.5934506029695 97.67125145399915 M263.86608975860725 105.37543862622215 C261.7066539614134 102.62069260552514, 258.78964756355265 99.74187693012985, 257.5299339488284 97.64162353852736 M264.33666345342493 105.03826117247327 C261.7473222489445 102.43746374529766, 258.6744092152601 99.69758261631068, 256.843017741865 97.90939721016186 M263.6898628384834 146.31013716151656 C263.6898628384834 146.31013716151656, 263.6898628384834 146.31013716151656, 263.6898628384834 146.31013716151656 M263.6898628384834 146.31013716151656 C263.6898628384834 146.31013716151656, 263.6898628384834 146.31013716151656, 263.6898628384834 146.31013716151656 M263.5951209088629 137.97717107591112 C261.52339574874156 139.09068366885566, 260.072416163091 142.29894223094658, 255.14381187902282 146.1814889100725 M264.03345425250285 138.12600192089457 C261.81281738905676 139.22024912800248, 260.3092338018769 141.18001561465744, 254.93284072065245 146.0727032136703 M264.2002159767812 128.5959131859622 C259.16270358920434 133.33578124601073, 254.444615866648 136.40074587591567, 246.32416671611992 145.6270462936694 M263.2160420854604 129.5380052384368 C258.48186027512367 134.8652157577732, 252.69404270113472 140.28037307633005, 246.61128812194494 146.46442687315587 M263.3209221296972 119.71733921776762 C252.74914593704938 131.00248898647408, 245.0656471242353 140.69977144491804, 237.18027249455315 146.52629291480125 M263.79286189871186 121.12192932713081 C258.3515871196763 125.86646616105313, 252.680544052108 131.42934482279873, 238.48033396147056 146.59336248440385 M263.9090927296346 113.21508742364531 C253.7325602533468 122.90949249184729, 243.62995875356458 131.75411250054066, 229.3202245559454 147.16946424906791 M263.4114438732183 112.80713935027306 C256.53268364579554 119.07744726062288, 248.5843125969945 126.87336069071056, 230.16674010678233 145.72161869806888 M262.86958617503103 103.50890878015778 C248.56060869993073 120.59626495873073, 231.72034198291198 135.9806131729419, 221.6574750487341 146.00521752303186 M263.20158537226075 103.44215825708233 C249.83809450190958 118.11514408258425, 234.54094699228148 133.00050169810834, 221.70225704616144 146.47701533836963 M260.54367748957776 98.11963763861372 C248.41103344721867 110.89287030052544, 235.0869335252247 122.44944283299303, 213.1453198713568 147.17986621325556 M260.7884847593745 98.81135799652353 C248.7261523301262 110.02227969840358, 235.90971627430642 122.64630452222876, 212.55496339288922 146.4822941045249 M251.9124854469661 98.86576460032178 C236.29326645008018 114.97628668872927, 220.43521991239695 129.05402507516735, 203.15189867225098 146.9623800463015 M252.33366852309445 98.19403239256157 C242.53740209471778 107.85418841806427, 233.02412778518035 117.96689109521641, 204.44176588524687 145.74261857075336 M245.05725394512586 99.00315514235211 C229.16962126178788 114.5268882824176, 212.68842711452928 128.72632164171233, 196.63519484985414 146.56938499873223 M243.83277265119426 98.06661576992286 C227.81551068631907 115.11344460285268, 210.85234572538886 131.134088468507, 195.74089938651565 146.83307418627382 M235.39221638249467 98.19218524126721 C225.77826306295137 107.67269185860756, 214.55719539474293 118.4343742271334, 187.71803555260377 145.7901632971102 M234.98590700695524 98.03231857782615 C222.54863454480346 111.02613672376975, 210.63286323437518 123.01739841353154, 187.9044268849768 146.68616827530505 M226.0964499075099 97.66588712362957 C210.71458497866678 114.45054305767265, 195.61724474036475 130.0472016095733, 179.26309167893743 146.21165341799798 M226.46700957865858 97.75177314049017 C209.9885235784595 114.3613523689723, 194.57744542449691 130.51964331437776, 178.6707394939116 146.37933003706576 M218.88887541860922 98.6549492660017 C200.3122064031329 116.36371649893299, 182.9679101061818 134.71486284776398, 171.24787787729255 147.24345008795797 M217.9363464795856 98.33053365713369 C207.14217477453582 109.70092619302127, 196.993398874646 119.81609823396333, 170.8770564516013 146.52241054577468 M209.60325756422995 98.41271639494612 C196.25090269351742 111.84298868644478, 182.6677380097119 125.70186328541145, 161.13975254610665 146.9428042835528 M209.65301194801748 97.70657620197548 C196.95210314097153 110.7129694950824, 185.24467509299816 123.24718797121737, 162.07192512132713 146.24518275065066 M200.56320474280966 98.24018948702528 C185.0619434137503 115.33389647231, 168.73410057295013 130.38013721655255, 153.87091783381723 145.23962323134484 M201.68742834723545 98.03779872423424 C188.77028844232223 111.37812122996574, 175.22312868773997 123.54742663731899, 153.3277209913703 145.78484147591234 M193.75716910278587 97.1110257688017 C182.85509239224365 109.17714029185329, 172.64773249872687 117.33191420209371, 145.4134196388618 147.16147040789664 M193.13384616552082 98.68952104812873 C180.8818564245213 110.79646868977811, 168.3196400093974 123.40489691978237, 144.85314767501214 146.67350342077853 M184.01344654259606 97.29653871683789 C175.14533067350058 107.18783641950996, 164.05704326228656 116.65138208572888, 145.33232220272987 139.08039094671872 M184.92284401615484 98.82198487287772 C168.0935050093922 114.49004961894748, 152.21229464655406 130.76399889627535, 144.18391150358585 138.14753256641592 M176.17517671067776 97.99069805769633 C166.05303101220366 106.99583481842886, 156.97946743409054 117.6838290148281, 144.9332911119935 128.96532863623898 M175.43382863741877 98.77785377269994 C166.85222108872026 106.37624410015681, 159.01582404700756 115.76811809346864, 143.96780452850732 129.56245717390877 M168.67534300546845 98.53512976793955 C161.74299288873996 104.05311772049927, 156.8848869792671 109.7886547365395, 143.6507967339036 121.19392248420651 M168.1075348925938 97.86971319681416 C160.54837498128978 105.44012222128005, 154.51814601577496 111.49852711300336, 143.5904079568711 120.96726634866233 M158.71177257540558 99.24411607413008 C152.32887210357282 103.8810267004757, 147.7267983364776 111.05986018741957, 143.76625996689768 113.43436096718385 M158.65852576996122 98.16757046943917 C154.1386901492326 103.07253073809125, 148.44845342450844 108.86735330113326, 143.93073790195854 112.54876428989544 M150.2239891602667 97.86809977623086 C149.37047695638194 99.62264775154415, 147.9054151280699 101.05392198601463, 144.67802470661223 104.94483035461066 M150.79348938901072 98.43364147786434 C148.7857196192495 99.84236132582711, 147.2054117677254 101.72797468691847, 144.40383662079915 104.47174007165266" stroke="#ffffff" stroke-width="0.5" fill="none" stroke-linecap="round" stroke-linejoin="round"></path><path d="M143.8287161372602 97.95666168704629 C168.81737435236573 98.36707540675998, 192.53000946566462 97.2950719229877, 264.24768641218543 97.27080260291696 M263.64320264831184 97.43503666147589 C263.9172891290009 110.40266030952334, 263.06994461129307 120.68522765263914, 263.80710171237587 146.6067580960691 M264.6440450929105 145.10067988410592 C235.91813216283919 146.11969719085099, 208.54742171689867 145.074438549608, 144.46865730509163 146.15677407756448 M143.51442650333047 145.28174226507545 C143.4235489768803 128.9697254113853, 143.48002449701428 112.53356533870101, 143.77650443091989 97.6453849337995" stroke="#1d4ed8" stroke-width="1.25" fill="none" stroke-linecap="round" stroke-linejoin="round"></path></g><text x="204" y="122" text-anchor="middle" dominant-baseline="central" font-family="&quot;Courier New&quot;, ui-monospace, monospace" font-size="13" fill="#1d4ed8">CTO</text></g><g><g><path d="M371.8010819142764 145.80108191427647 C371.8010819142764 145.80108191427647, 371.8010819142764 145.80108191427647, 371.8010819142764 145.80108191427647 M371.8010819142764 145.80108191427647 C371.8010819142764 145.80108191427647, 371.8010819142764 145.80108191427647, 371.8010819142764 145.80108191427647 M380.94811083910673 145.49709653233046 C377.9945782145615 143.37680090487632, 375.35374570644825 141.57204354534554, 372.44022627492296 137.45323331233155 M380.5217567562467 146.1591627947321 C377.69993447836134 143.34272012813494, 375.0547209484226 140.60469214554797, 371.5570817293306 137.66287302315274 M389.6314995788642 146.25773749072903 C383.61675471028786 140.63794523227895, 380.34233692550913 136.64572275332443, 372.22849288974754 129.98571613314772 M389.1765610637747 145.92067560777866 C382.0731949737467 139.42196583054687, 376.0508940354287 133.45518951562286, 371.712436254703 129.01588589935776 M397.7527397796446 146.4262534948146 C392.08629635009106 140.01324172760252, 386.19623680465077 134.9564433144025, 372.1610493877982 120.33515216375157 M397.3486580038378 145.79485352263654 C389.3550538942116 137.85700105102106, 380.31265859466083 128.67945463939074, 371.4378029603591 120.10685324838772 M405.7052059478323 145.30344221313354 C397.08593454075395 136.06760154195396, 388.69482533066423 129.40830464208304, 371.31659210716236 113.05247721718253 M406.12033666234566 145.27816248760428 C395.2359863999417 134.50426526718746, 384.922625094265 124.36535787567628, 372.3050548512568 111.53759739948065 M414.6258731810835 145.01424261052964 C403.8203212392412 133.74940913229037, 392.51722803580844 122.13432101861748, 372.19498677049626 102.35598963328437 M414.40894933422027 146.28323067651002 C399.1429304739677 130.37819715608188, 384.0596650901698 115.56794334941344, 371.8094739098181 102.86469183896467 M423.7989822020544 145.5425780268466 C412.488318030285 135.2640057642857, 402.809871244288 127.22255469915213, 374.93429185020227 97.88889925164705 M422.1425905018835 145.85881907568182 C408.7400273579457 132.60936375778573, 396.5606626531543 119.4666928048063, 374.4542614307111 97.14051999041413 M431.21853935840124 145.9688561769282 C421.6623745133924 135.5603738359401, 409.3232343548986 125.36017413097566, 383.444831443683 97.92840028686051 M431.47884683525706 146.07107148394786 C412.68739502101863 127.9956231047842, 394.90223830402624 109.93963870100521, 383.54086089610377 97.76609808990334 M440.1508166227804 146.9074691506183 C424.45726467327023 132.53344681659962, 410.78314506846124 116.63832274954854, 392.68641389910215 96.53788995427615 M440.22354719176303 145.28476451263634 C423.5607524560022 129.29210603050313, 408.5498154590242 113.4827881698586, 391.5024266014256 97.88704381176807 M447.69685159284796 146.94429341276046 C433.299123073183 129.98587652972122, 415.8515592079518 114.10562988803895, 399.772967439116 97.74660409373767 M447.8495126163232 145.64455758557523 C434.18863192440585 132.12860350554433, 420.49860115460183 118.33127883191263, 400.66470927909853 97.81696189233638 M456.15494749126026 145.07418980319855 C442.0695882931155 130.32477087083214, 426.3878964388934 116.7821407775125, 408.4781859113809 96.73026292008885 M456.1153063413594 145.5562429390928 C439.1318550355909 128.63910208482196, 421.14364516866146 110.87949728562245, 408.0079518490445 97.26183988043644 M463.9831731656736 146.73850353677625 C453.403272582422 134.46086597317966, 439.40457584307234 120.2165546336485, 416.5980287885529 96.6485710231734 M465.4839837867936 145.96799562201704 C448.3318786053595 129.13793071935808, 431.10758746238497 111.33662750238985, 416.58563941868516 97.40129813739635 M474.76186308874406 144.66256420333735 C463.03031042640913 136.04557174138225, 451.65930429411884 123.77300999938893, 426.1132211682885 97.88271736783508 M473.3418425600476 145.25162349567614 C462.9996053326166 136.3443689199444, 453.8339354315211 125.85572556485035, 425.9432492829426 97.56983983704423 M480.95611735812804 146.4931857677257 C464.9955766680902 127.39949352604677, 446.71570827619036 111.20102011648484, 432.95175377324375 98.07287529391776 M482.41717245604326 145.48381723389832 C465.67537229230663 129.11643793638964, 449.57649731015283 112.9969557569511, 433.9370009242386 97.33810096570829 M489.67830169648175 146.03616656978483 C472.2819914005578 126.15343259672603, 452.6663352577535 107.17616987986322, 441.95138295107495 98.155702516265 M490.59900545720257 146.12740032301153 C475.9292309360669 130.42537893841381, 460.3539987632096 114.95640533670436, 442.752606012495 97.99410032221653 M492.17947963959597 139.0227215124932 C483.74025259693497 129.76037347154735, 475.573093227651 119.92281007337081, 451.8221306744385 97.60184112472062 M492.2847979215818 138.44151124997856 C476.7881092126084 123.79124497964852, 462.7673304055151 108.7917618988545, 451.1240184051338 97.42448951789711 M492.6109024096193 130.94597193518683 C485.3123489240939 123.52013061827633, 478.05440446352463 117.00234502554304, 460.5087845409904 98.05341758412845 M491.59817045609526 129.76184337561978 C483.877187818687 121.22204028307736, 474.914704511539 113.33523311909877, 459.1521841470767 97.59580297657826 M491.6159461665811 121.32788286508264 C485.7903758974654 116.11533247803497, 479.2492559818334 110.65445092852997, 466.9533977733871 98.56154273433214 M491.43709516803796 122.01133218613656 C486.313073704764 115.44888219626095, 479.8891987949775 109.63307898323272, 467.72379147074577 98.23570793458794 M490.9210391331377 113.78519014202432 C486.21784669826195 106.78071708924824, 481.11572620001397 101.06358730698086, 476.4577892192848 96.82381179017554 M492.1210727898317 113.00983241785691 C487.4982782046976 109.32907820328626, 483.4139580844068 105.18941234506129, 476.13002079606275 98.31425444075445 M492.46080493646735 104.53500129315618 C490.02737952167547 103.025581105858, 487.0660834872574 100.12157115513817, 485.29210512773176 98.26981256754674 M491.81666547869395 105.07923511253287 C489.33838195297204 101.96679669001982, 486.7432259648186 99.87118855891246, 485.0117308172867 97.92147307499849 M492.24116139070406 145.75883860929588 C492.24116139070406 145.75883860929588, 492.24116139070406 145.75883860929588, 492.24116139070406 145.75883860929588 M492.24116139070406 145.75883860929588 C492.24116139070406 145.75883860929588, 492.24116139070406 145.75883860929588, 492.24116139070406 145.75883860929588 M491.7390484962733 137.86203016800698 C488.66200776903855 139.54248139507288, 486.48553839056285 143.6348692382093, 483.30472563863253 145.20586623212975 M492.21654851173327 137.18527643548217 C490.7835743410407 139.0479367710711, 488.65672709769484 140.77905836362964, 483.88826890107697 145.58268768752646 M491.20669109815077 128.27278402020283 C485.98932849089095 135.40295078557384, 480.11219690705644 140.00039773043125, 474.0778985813974 146.53420230752505 M491.8304302611695 128.78592209891477 C488.143634770658 132.7622606529258, 482.85602095936997 137.49088408106562, 474.80858069013493 145.69027317675477 M491.0877503275247 119.1975637550303 C484.0362922624205 127.25798815832803, 478.94779728001413 134.16715860917927, 465.8046979361666 145.4830722392229 M492.09565998104677 120.4044489190751 C487.04878521181774 125.06731079652876, 481.6878050227368 130.86604437687558, 466.2547901365427 145.88367659362683 M491.9700062274309 112.48682675096613 C483.5341619629864 120.19947990328187, 476.3684848127039 129.07818481693107, 458.25726671537427 145.24782924062288 M492.1235329428063 112.17490464090776 C481.7646632510759 122.3025545582215, 469.84210667787437 133.99642470335303, 458.0270400416296 145.17606091412432 M492.8107463955255 103.37019947285413 C476.2834732453591 119.1632173017387, 461.9083545440695 133.75445824881683, 449.80578314167656 144.7014591515688 M491.8087451913701 102.97007368824094 C479.2015253248182 116.34153598751895, 466.5410854346146 129.58429103656653, 449.5729561378175 146.30915587457548 M489.53609692971867 98.11471988528416 C476.2031568915934 112.523942679428, 459.82533312067096 126.25047536606085, 442.4801910627299 146.4634321869043 M489.6033078344138 97.65230042214885 C470.36750910388616 116.32638288831374, 452.34285502015643 135.2624201240515, 441.29465634502856 146.3170740238083 M480.83194955292043 98.03391032784629 C462.1537472563152 116.13366743504417, 443.17500356185894 136.04194890263278, 431.7326999511904 144.93720293647326 M480.563724167113 97.32631201620597 C470.61995072327164 107.5505200290467, 461.7583653710341 117.3112479327064, 432.76750077068425 145.80756072315103 M473.5917429872794 98.23999614089182 C459.31924627306466 110.53584388681854, 445.4141072763138 124.61834170162355, 423.8002849047145 146.74771036511936 M472.65502104638205 97.73518708224795 C456.9880804098615 113.03107819416081, 441.75998519260327 128.64539176850522, 423.95884170970675 145.64324414643178 M464.5368273304519 98.22354128926445 C448.74279761110256 113.58660130193014, 431.91119610878985 129.72912485471892, 415.86718664595827 146.77887781268632 M464.2273632671428 97.68374129410284 C450.32208077263886 112.30844248760492, 436.056749919065 125.48700891017906, 415.84677364451784 145.42288527997857 M454.8358183050941 98.63409411280799 C440.006573395932 113.16752552977005, 426.97721526261597 126.94586113348397, 406.22741152257794 146.21111299401798 M455.09165781181713 97.86292313809889 C445.57200688775845 108.29461373127171, 435.08036799302016 118.10707181317429, 406.83888324503926 146.16262792261966 M445.8670972588623 97.71768732636616 C434.76937215850853 110.88276009952308, 423.17790604928746 122.784501286564, 398.44723150722996 145.35880799895796 M446.5383038503269 97.53106391306416 C430.2893463794074 114.52895280355071, 414.4661825295726 130.9017108649638, 399.3909993686931 145.17724868568305 M438.5813111644127 98.55433801978279 C424.61880488375726 111.5491202583071, 409.05238397011743 128.72910604468856, 389.92768419757033 144.9078392923502 M438.35594274009395 97.79512773032684 C424.886005381628 111.35409147126353, 410.93318942173653 125.34709307339747, 390.42594306040104 145.96140699299698 M429.2638726194015 98.29554765790155 C411.84720699784657 117.8700821104153, 390.9637688487149 135.6311171147106, 380.86707281625553 145.9530677140383 M430.05020802604025 97.091961513715 C419.6334504794626 107.42809313483039, 410.72936307172625 117.26539902172321, 381.55227755258517 145.87089508088957 M420.89745984648516 97.80180208056618 C410.61037080608514 108.86574749310952, 400.10765707787846 117.48958224640161, 372.4234662109417 146.43583847886595 M421.4624754405876 98.06954499955673 C402.4267909157434 116.05686672199631, 384.18346629305756 135.56950906700268, 373.08305826516715 146.00388799818876 M414.1245166933198 98.08007150262043 C397.0127257799489 113.22324008933462, 383.72349101037696 127.67536224141384, 373.14826666615056 138.9104133648116 M412.78861290365796 98.26824073668018 C401.2738235958287 109.84025572580292, 388.7326176063228 122.37057008704342, 371.72565061743455 139.01112579435744 M404.20975263256156 97.92131051390815 C394.32658741564404 108.45290761169747, 382.454381897141 120.34675905762975, 372.54972003004593 129.18046058621135 M403.99773052267307 98.20204408641357 C394.2083574122808 107.34724048298861, 384.8208991586029 117.26791416406522, 372.0014901548166 130.37615339271602 M396.0026427618668 97.53795807927298 C390.07191218414425 104.89155581303889, 383.7374841831177 110.14213047391642, 371.82597846291105 121.76599204528195 M396.0509305925549 98.0398332225849 C388.52219836324895 106.12809424173338, 380.37152400424765 114.32103249004746, 371.43539529736233 121.12600784196567 M386.4999278038918 98.60143753855873 C380.8338835179341 102.84845812946492, 375.42074748213395 110.92673374503808, 371.9991733124022 114.36929045686719 M387.92005759572527 97.28661913152236 C383.64300993935893 100.97718251003012, 380.59230190804453 105.38476929882131, 372.54589021499345 113.34089544093457 M379.45609525357463 97.97761704760984 C376.2250896323924 100.31034895450624, 374.38331991853903 103.29580601195705, 371.94835507008327 104.43663410564345 M379.0552623014813 97.57018655033231 C377.7147076328781 99.07838355710778, 375.89507477604434 100.80685892988697, 372.2413749270615 104.99815030071345" stroke="#ffffff" stroke-width="0.5" fill="none" stroke-linecap="round" stroke-linejoin="round"></path><path d="M371.14307420589023 97.33499253056944 C395.42606152854853 97.51861311013997, 418.9950141984969 97.11060788448155, 492.9715296182781 98.70620390437543 M492.0648039724677 98.95255499221385 C491.1031336935013 111.20399046428503, 492.23211691693956 124.22784147895874, 492.31065256856374 146.31013714410363 M492.3660676393657 145.25101982615888 C461.2771982442587 146.01154578627646, 432.22113257534795 145.64365782441197, 372.1029859576374 146.8351611163467 M373.07163975499566 145.52261339761316 C372.7625234653204 135.45458811707795, 371.64723674552135 126.40034800805151, 371.06475664637975 96.86807740069926" stroke="#1d4ed8" stroke-width="1.25" fill="none" stroke-linecap="round" stroke-linejoin="round"></path></g><text x="431.99999999999994" y="122" text-anchor="middle" dominant-baseline="central" font-family="&quot;Courier New&quot;, ui-monospace, monospace" font-size="13" fill="#1d4ed8">CFO</text></g><g><g><path d="M84.04877323527903 244.04877323527901 C84.04877323527903 244.04877323527901, 84.04877323527903 244.04877323527901, 84.04877323527903 244.04877323527901 M84.04877323527903 244.04877323527901 C84.04877323527903 244.04877323527901, 84.04877323527903 244.04877323527901, 84.04877323527903 244.04877323527901 M92.21638467697336 244.36345939268443 C89.24512940267914 241.07676323137707, 86.68401939186148 237.71042008533607, 84.18096571614116 235.98673555743204 M92.48791256649329 244.40621440921993 C90.34364193764402 242.0291165954216, 88.18806141429073 239.50978346853745, 84.32343965535134 235.90625517186032 M101.76580920523699 243.4576473372158 C95.63679087977073 240.28238539231538, 91.60227134996418 234.49079293694123, 83.4186545359072 228.21847310993314 M100.55922451845106 243.60823149328198 C95.75006453243643 238.75097412353384, 91.11444249770783 234.18938491999722, 83.73057902251452 227.52536613154652 M108.9657023481981 243.6823353426632 C100.53375284257724 235.73277333504188, 91.78328384047575 226.49331917592747, 83.32872986664148 218.17948160881775 M109.82692664712232 244.2404687130925 C100.16766748562598 234.85189831596205, 90.2081966944061 225.11222604196934, 84.16440129672262 218.87508305499927 M118.3405634477022 243.78525363375513 C108.28379037099711 235.36069400571023, 98.55838645734111 226.344373172346, 83.0027868257937 210.4976754714719 M118.29407106705335 243.55154733304946 C110.08837044871287 236.0560348397439, 103.12544714053483 229.72571675045316, 84.12073715125294 209.87783571453605 M126.60635930062423 244.99965416361658 C116.95398758450264 234.1385538186141, 108.34005089608476 225.90862391654267, 84.97397971023888 200.66411915102054 M126.91712750480663 243.69163825159043 C114.94589368888414 232.4683848887673, 104.12015455139229 221.20666118744793, 83.85996256266803 201.54238875859429 M135.20874420383925 243.3041013853726 C123.21245881479037 231.23780497752134, 110.30786310012776 218.11587022400983, 86.8835774415982 196.5936167253349 M134.40022193694466 243.9257561171529 C119.92802153088941 229.90383304356695, 106.49441933254656 215.18582251430675, 86.84353688227657 195.7957777103577 M143.8730599542222 243.0724722521481 C125.5644226950613 227.47354522942862, 108.30668507569054 210.6677282147637, 96.20253644149292 195.84628477228623 M144.02013659002995 244.60875932817427 C129.09691955520537 230.3171467579092, 115.40002949001929 215.05915311034093, 95.33057571138728 195.42988184301 M151.35433584864816 244.32395621706812 C138.4791680076225 230.65429476111157, 127.45811001730193 219.07189748780152, 103.2962192573056 195.59227099550705 M152.45130994062504 243.9603500330922 C137.40688516680547 229.56330669969557, 123.00340398692616 214.09531770159427, 103.91756952707026 195.99114280549625 M160.9872886839921 244.3730552332577 C146.56295219830034 229.7344675964002, 130.5106351940835 214.97190689024853, 113.11653018591124 196.40388984812242 M160.1908367152924 244.44007413034407 C145.86648004075872 229.01668580949794, 130.01865642239903 214.62580365270136, 112.10551930588801 195.49770024625403 M169.436322757129 244.27958375384182 C156.3054119179238 230.10939350008832, 143.40759092838576 218.46365485842014, 121.09506102418482 195.84876828325727 M168.78346789059452 243.52232126836745 C154.99398498260342 229.59045264232734, 140.62635738416785 216.32763180086502, 120.66808227440298 196.3575375637207 M177.0455298649338 243.29866873194547 C167.71163062779314 235.0549866232643, 157.85780312475174 224.87367298664748, 128.29309106900138 194.9398457540367 M176.84661069309385 243.67132484559986 C164.18612238646818 230.56329035954786, 151.63705308663918 218.0448716277273, 128.87657190917773 196.14348190633393 M186.18868930428164 242.9307496206936 C172.26201891452467 229.9568261647765, 156.30067740480433 215.9934105087854, 137.35158711723594 194.98537421358566 M185.695328599353 244.31616201047868 C175.62662953084708 234.32997349085906, 165.41128707076544 223.150666425446, 137.72495793677479 196.36820417253116 M194.81926787204745 243.77157837321133 C183.04535009082343 232.77399162538535, 173.89439520047299 223.19823004481887, 146.04120346576346 196.83891811502914 M194.16734133593442 244.6257536614415 C181.82312673285944 231.50383366221058, 170.77461231412474 220.42784298042963, 145.95486633375657 195.65921901074987 M202.02041986510622 244.76221944262355 C188.63432473916075 227.90702631157876, 171.29676877289208 213.8206615798987, 155.21228191145894 195.34935441149216 M203.0480248794006 243.8838644469258 C186.33234286816207 227.23798684881822, 169.17091737906463 209.81823945458467, 154.48057932668564 196.13388481942755 M204.08391926846747 237.76798197018982 C191.93318728097827 226.38223335549733, 181.84364145526627 214.0654821579286, 162.34485175119735 195.41087255609966 M204.02434364444858 237.19303495350363 C195.19710617877712 228.56312172076846, 186.23931931833798 219.50039582872841, 163.61403539212444 195.37440374700168 M203.05914962849857 229.02740965852757 C193.58530571504025 217.03589169565112, 182.53958563864245 207.77705010970132, 171.8986297818538 196.81297450197678 M203.9088403571332 228.44857157910485 C194.9045930475846 219.30869283999672, 185.92307610035937 209.76141075033067, 171.48982925663555 196.40282169190985 M204.93254130444768 219.03171802313483 C197.26128080120142 211.22395092705978, 188.53978758035873 203.14277552771978, 179.2630203003032 195.89047470224838 M203.69407330639007 219.74298378454006 C198.0455867549328 213.85352574874025, 191.4831955792403 208.10189683539213, 179.69021189678142 196.05602830258945 M204.00599859318973 211.8032215171366 C199.28368042195623 207.2125291887026, 195.5921229281798 202.70095931623356, 188.30711510342056 196.77350011003952 M204.60604346878173 210.9694112182467 C199.86696222166108 206.23660348114836, 194.6582920070135 202.5541389492553, 189.27009053912454 196.1607569774781 M204.25901966429598 203.2980635100586 C202.78554575740307 200.6000280306623, 199.77996008642768 198.8708238046179, 197.45777585660377 196.1015011465345 M204.3001670539314 202.92370860256082 C201.93294120696825 200.53357031020732, 199.21554226434566 197.88223517697958, 196.98394344267706 195.73704848980347 M204.20101012677668 243.7989898732234 C204.20101012677668 243.7989898732234, 204.20101012677668 243.7989898732234, 204.20101012677668 243.7989898732234 M204.20101012677668 243.7989898732234 C204.20101012677668 243.7989898732234, 204.20101012677668 243.7989898732234, 204.20101012677668 243.7989898732234 M204.73152626753566 234.89833907625106 C202.30549689743881 236.8886726625906, 199.66059400098553 240.16813351192476, 196.31418958209412 244.2616933703352 M204.5281929548156 235.55600076621798 C202.483610827473 236.74707423028792, 200.45349992796102 238.9695509287501, 195.53224726535336 243.68412197753082 M204.02171640337227 226.5411046705918 C199.70007482731765 232.58599889039706, 193.65801193190043 235.32181560051157, 187.64018063052686 243.63280813752903 M203.85336862073063 226.62528877554104 C200.01395945004435 230.45075536422667, 196.42654940145727 234.49284490194947, 187.6144234421769 243.507569296502 M204.6631287092042 217.26923810844124 C193.76300799888944 227.19610597087336, 186.17834802234754 236.40833323867506, 177.8376735616319 243.0313013797928 M203.80700824723363 218.27841832716763 C199.27672153960015 223.9374171963636, 193.0258042290066 228.77200569531163, 178.6377964954667 243.76544051899805 M203.4394699090791 210.3500158944352 C189.95608875708706 222.86914223025556, 176.53911085691345 236.17015714825146, 170.60285905865493 244.31764404832614 M204.2441721962464 210.1341197476907 C195.99341813959913 217.16796917019212, 188.08490114138783 225.97157093097664, 170.49589016032877 243.22195294632806 M203.76045679987195 201.82293998169868 C189.61124122165765 216.5252662138766, 175.30127053609723 230.32339989382174, 161.36264141847093 244.38915059625398 M203.82445519433142 201.08943893554778 C192.96985957859707 213.3630244615836, 180.546127307818 224.96317694415464, 162.05220541332562 243.53274622692953 M201.93706655371153 196.70125194810294 C185.00383051982004 210.34646487447893, 170.37228289996918 226.24295771527707, 152.82361243795486 244.33844797670136 M201.82668109330498 196.28469266392253 C186.23406828563512 210.4052836702352, 171.41784839813258 226.03668109374854, 153.4428994810197 243.54330375924002 M193.15996384272674 195.79350587151907 C181.0394304705394 208.89664542674956, 168.55664184344704 220.21881775135168, 143.72205141398183 243.90347564279327 M193.40232999498346 196.25004145599863 C183.31104953567748 206.06910110955664, 173.90115314073975 215.47785423972388, 144.5017858399736 243.26395269169697 M185.53478221328493 196.06828695557974 C172.87742146819335 207.767048960747, 161.54833762195028 219.33261123106234, 136.7739251434267 243.11748554765475 M184.88581962542173 195.99520821072124 C170.76920031725578 209.54016160161714, 156.07617484366946 223.5481448846517, 136.78533421674973 244.24486392273798 M177.08998846226112 196.84634715340994 C164.96333422062196 206.07530833726395, 154.53785110834207 217.98202085017857, 127.4248879231646 243.95904214441072 M175.67736971118225 195.9266138265278 C160.3040771843261 210.98219806758834, 144.88918678760658 226.54806922297485, 128.39767058791065 243.95105210080038 M166.9837368865302 195.79375091813466 C155.3379116504283 207.84515816463642, 141.97653562209837 222.2051708201636, 119.00028155007043 244.80202238618622 M167.12485622882753 195.36552295185587 C153.51658850339305 209.2359771338564, 140.727736643742 222.31925457639318, 119.6155771800188 243.3373756243218 M158.6538692829673 195.37187520287893 C143.01843587359912 211.44070539377782, 127.56314772797099 228.90969364316567, 111.45513532101924 244.46561572610628 M158.54881140492006 195.32304398514293 C146.46172039226786 208.3317770060914, 134.58082081662528 220.14546886383846, 111.31349246963674 243.62353664173972 M150.96791494844734 194.88740946076769 C133.76445760446973 212.24670164631763, 116.2147804609957 230.34779862011393, 102.12416603288601 243.8643241172958 M150.46742371602235 195.27512907482642 C134.79765815275718 210.3558636102136, 119.79945428094754 225.80764833834647, 102.18851118332694 244.26908105149158 M141.37309067984538 194.54235564492603 C129.48847264331113 209.61186499391104, 116.06609140998488 220.471042034122, 93.67177798254576 242.8579620128799 M141.82153788869695 195.93757411934394 C125.7193101296972 211.91696673335954, 109.44164284466973 227.838925323929, 94.38538429765192 243.34839850201496 M133.8463007740364 194.6840282084789 C124.17419940377867 206.91500485713473, 113.37613184088212 216.00790045347853, 85.24206296687348 244.30165636598358 M133.19965489950633 196.04101876713298 C118.19692781495463 210.52286199960506, 102.68914720884392 226.1230662354765, 85.92151903917416 243.92572239174734 M125.24413702789535 195.0550541045513 C113.06366422647854 206.87945811850432, 101.14712319547996 217.94651565951264, 85.07986809460962 236.6247788178663 M125.26293197501292 196.30594641663097 C108.74268931922097 211.89934850869653, 92.82108133321312 228.60643432368389, 84.58304669632162 236.55906205726072 M115.65287873829726 196.44337278626818 C103.8177643818317 208.29101992480088, 91.75661781946633 221.18102772373854, 84.28180591313685 227.27993557114542 M115.97018259177928 196.21768421627542 C105.00808131825204 206.56475402742706, 94.25993110898688 218.02385813989048, 84.15083274616445 227.87419264648497 M109.13849270211716 195.13223620675464 C102.09132721585469 201.63809129217827, 94.44819858517559 208.63608213599215, 84.11681715695704 220.2224046413191 M108.6028764763679 195.60140306450387 C99.02504212132771 205.20220902379393, 90.16025168001545 214.1233513175232, 83.39603960289205 219.16909237023071 M100.09663321623005 196.5502088191356 C93.0285324724492 202.52627796951447, 87.08519764952948 208.82313223213148, 84.34774362294522 210.78856298151226 M99.39013960534132 196.1971176097538 C94.89985447620171 200.33031386044638, 89.23224376778255 206.20709624550128, 84.07669949306693 210.81736962693543 M90.93328360721999 195.51844816453715 C89.23383282043399 197.9862595401118, 87.39235343100256 199.7526553876731, 84.47998596651998 202.9734483046268 M91.29883967109554 195.87520750150043 C88.83437207125084 198.17451192740725, 86.1367904080148 200.35055027857052, 84.17067910915759 202.82213656472013" stroke="#ffffff" stroke-width="0.5" fill="none" stroke-linecap="round" stroke-linejoin="round"></path><path d="M84.85743227452039 197.11332337409257 C108.43474870473146 195.24615081351996, 131.86001893132925 195.5021438459754, 203.29537282437087 195.7416052058339 M204.4864052966237 196.0700733229518 C204.9193782580018 210.0053206190467, 203.22468922258616 223.3704553052783, 204.81420342475175 244.01351619213818 M204.08809018582104 243.40135976821185 C170.63626432567835 243.32739438170196, 139.89484343379735 243.63687709921598, 83.73731461018323 243.11354815512897 M84.22885300666094 243.7634845301509 C83.93189795376063 230.3394508227706, 84.04484899402857 216.667130677402, 84.75300886183977 196.490769867599" stroke="#1d4ed8" stroke-width="1.25" fill="none" stroke-linecap="round" stroke-linejoin="round"></path></g><text x="144" y="220" text-anchor="middle" dominant-baseline="central" font-family="&quot;Courier New&quot;, ui-monospace, monospace" font-size="13" fill="#1d4ed8">Eng Lead</text></g><g><g><path d="M204.15284963613558 244.15284963613556 C204.15284963613558 244.15284963613556, 204.15284963613558 244.15284963613556, 204.15284963613558 244.15284963613556 M204.15284963613558 244.15284963613556 C204.15284963613558 244.15284963613556, 204.15284963613558 244.15284963613556, 204.15284963613558 244.15284963613556 M212.7810435946938 243.6462073328923 C210.04912194549829 242.2894375619831, 209.26479070682396 240.49856490427953, 203.77809023721323 236.37662288238644 M212.31045345659373 244.50965110356168 C210.84373447678053 242.5718981425622, 209.1777869600128 240.2712598713808, 204.22618266122595 236.0060224004218 M221.75650391146374 244.91394226355658 C215.51321212910753 239.4646693333985, 210.7185908542732 234.27370690160467, 204.8652012619208 228.3076151665725 M220.99827305298132 244.3521724586393 C217.20186046978736 239.93636749637474, 213.95291733864818 236.77996540422558, 203.60510687017992 226.6912314435892 M230.4350499966055 245.1948022703658 C221.80657518767134 236.1220468986674, 215.28686555345183 230.1911058181817, 204.7527954253386 217.88019613373788 M230.16158037026076 244.54246898340242 C223.8056469296484 238.91653753708917, 218.0202694713024 233.70590822527717, 204.74738471294 218.2996979414648 M238.83230602742597 244.12345013423072 C227.33803128109415 233.94725414693508, 218.67833266387186 224.9739093800775, 204.94536662427888 209.7992588056152 M238.3241905516149 243.68131725834863 C227.37183188033242 232.5130469903781, 215.77112147026216 222.00309310391697, 203.79280453110295 210.07445910944543 M246.44323050001887 244.44145079655752 C229.45875763537947 227.6951554575716, 215.04869608773782 211.96510239286297, 203.2093577298354 200.82863374861068 M246.08169075524685 244.1564309065248 C230.11996060941598 227.92967632706814, 213.86646634399153 211.7312013568593, 203.76683629537183 202.07647075807785 M254.47489128547795 245.32200982375252 C239.6237843325289 228.83718961723156, 223.49303968920069 213.0347711753422, 206.689248112848 197.15471927887677 M254.51423845185974 243.8490782384779 C238.74160113030769 227.85468740920214, 224.0537614384134 212.76133730366115, 207.08919741369596 196.30742051015523 M264.3839656298971 244.4324734072219 C249.33950818072114 228.6905535802874, 234.37982532461047 214.895771480059, 214.41662651915675 195.62055433756586 M263.21781142465676 243.80283225225463 C253.13202951586672 233.06425583750882, 242.3234061024869 223.00425294615127, 214.9766756065247 196.1500506759706 M272.8142401543699 243.59682836337197 C260.3574564218288 233.26232743885686, 249.58946004599653 221.19265695928777, 224.16240969536295 196.5030371165919 M272.535457769341 244.49232063340204 C257.9094029574626 230.49089244874204, 245.31337759468198 216.56423231318388, 224.18909753256878 195.95162687907842 M279.7341108549901 243.6582021336089 C267.6831664032715 231.33944374293316, 253.026096260069 217.6945689723121, 231.91647801256033 196.9175606823611 M280.38854589411545 243.8919757549669 C264.4315128903447 227.53035353992624, 247.62589642342937 211.3459138999648, 232.60271441253127 196.2348236800256 M288.17408310285157 245.34136278433905 C278.3976206225861 231.98120086257777, 265.88367049773206 219.83235367256108, 241.56832121684272 196.82365872627972 M289.30801451968347 244.54478467749612 C278.71250000946986 233.82898793306597, 269.1654546795282 223.8629510493409, 241.1845977796154 196.10962032685904 M297.964271644048 244.11521900696863 C280.4905211822606 227.88884012906587, 262.76491069139036 209.7538719712263, 250.2445384293038 195.087505564754 M297.26562267924805 244.4310391490366 C279.24929936991447 225.19758320207532, 260.5587996890939 207.14539673126532, 249.02388947952423 195.54205075512556 M305.4719005996731 243.05532011790382 C289.3501124824942 225.49366601464533, 271.19843559534377 207.43939644465644, 258.84633814603734 196.34441613919017 M305.9051997185123 244.03708560513513 C295.8792391555521 234.17196314162763, 284.6142241364843 223.50199236589555, 257.3630516704609 195.82295358787206 M314.13880346582073 245.30635605855096 C301.96565602265275 230.38822258044092, 287.52696240971477 217.81852060473278, 266.9870382381371 195.06134601599453 M314.9738952956794 244.4240751688387 C297.4106140291291 226.36176189712785, 279.3958079496764 209.51261048886735, 265.8291168231285 195.83672213564543 M322.21892311358454 245.34465739531623 C310.2122435042382 231.5170051062854, 299.9527877145052 219.92153835978814, 273.92956595169676 196.7993913865733 M323.3534293814525 244.69671365069405 C304.5918398801111 224.9377794924559, 284.64422107477344 206.7672583056982, 275.26493772073013 196.1300543964925 M323.8447439771928 235.96962750774046 C310.3825070448755 222.26361979141896, 295.97057476273545 207.46768079445806, 283.12395790781017 195.0762890673327 M324.8202744471692 236.6009437368827 C313.0631910351534 225.78894487997846, 302.1659574596045 214.46053751492838, 282.760437458969 196.38070305596023 M323.7637819272317 228.96523246172225 C316.2200299727568 218.91342023979612, 307.89191666744665 211.01890504754604, 291.1448601025711 195.02891649967907 M324.07589533802496 228.99168486244386 C313.78838335633606 217.89560129948399, 303.5878327690336 207.8878442841305, 291.68385944604825 195.8662254870954 M323.7055215221681 220.99193826104099 C318.8814970701702 215.51268039469673, 315.1879566561854 209.61953725759025, 299.4290279070732 195.07579175001857 M323.8074365245961 220.53102046279753 C317.7498847116451 213.99915455438386, 311.0489772700466 207.11169994071582, 300.71301740267097 195.73273375044494 M324.9473431330957 211.67763797210281 C320.13122874941115 207.10072636801095, 317.85023426010616 203.79471640534024, 308.0128260674102 196.1795735097575 M324.9473992275857 211.9853750984905 C318.8920313184784 206.27518431495773, 313.7590110094742 201.8499211093966, 309.0665453620402 195.8636445940557 M323.91361947197845 202.71751080681497 C322.1661559474874 201.26480116081748, 320.31628063995475 199.5104026594486, 317.4798316653296 195.78957480537622 M324.64005370902277 203.22456717244276 C321.7838855408182 200.9227878847518, 319.5442436437265 198.31572574940367, 317.41254114792116 196.00900898446244 M324.30508652763314 243.6949134723668 C324.30508652763314 243.6949134723668, 324.30508652763314 243.6949134723668, 324.30508652763314 243.6949134723668 M324.30508652763314 243.6949134723668 C324.30508652763314 243.6949134723668, 324.30508652763314 243.6949134723668, 324.30508652763314 243.6949134723668 M324.42823170358196 235.23042031971102 C320.9561574157753 237.78769254017192, 317.58576472649673 241.95128267055154, 316.0278811903396 243.73329284375654 M324.2640650626819 235.06249743216966 C322.28714562809284 237.0219840247206, 321.07377107241473 239.01581582908645, 316.0404532944137 243.64132860275106 M324.9809693733776 226.6651976561966 C321.4735901273355 229.30627803162886, 317.66659592033557 232.5804645070004, 306.9466903444402 242.58718630274882 M324.02053464507554 226.32042778738312 C317.7529405433264 233.38913496043875, 311.2716217077449 238.93880315744, 307.3644938590027 243.18063775146504 M323.9827347556676 217.196684797068 C316.6029321728964 224.02101534588041, 311.6132760267621 232.84513060608933, 298.0148768518811 244.83530285557853 M324.8625841782044 218.00816007047598 C319.5266974803774 223.58548398320335, 313.5858430482713 228.6559274007526, 299.1650305191746 243.50297677958505 M325.45316125551113 210.0689773731201 C313.7104683153624 220.76926919543968, 300.8304147646885 231.7043690183914, 291.09267906671954 242.84323119124522 M324.5090391144702 209.9491071896895 C312.7781755935153 220.84029861915488, 300.89547307090345 232.34185709498323, 289.90896794381183 243.12361731374762 M325.2543948690022 202.13145282575914 C311.28688361572176 215.5394407082486, 297.04206094589057 228.5444671210608, 281.06372736004914 243.532614376155 M323.98439286207656 201.06457651807048 C313.8860682501415 210.8366385178824, 304.0990435987869 221.99418843397692, 281.4756823536175 243.81210891449945 M322.4822638424883 194.74355634613752 C304.3487318128306 212.42475940474566, 286.66346034405126 230.49121239970907, 273.7112614779638 244.06923610171424 M320.9942820169801 195.57285724091201 C310.24485513216797 207.30915713399324, 297.4370694408925 218.43591474528208, 273.7353702817948 243.82530582988755 M313.63220579731694 195.40887375040768 C296.05268912541027 210.50124832442862, 280.44920334154483 227.65396373018123, 263.8556305415571 244.72552068432915 M313.18516348763785 195.82954323100716 C302.94637601286723 205.01265487190318, 292.9881685752293 215.26943322857798, 264.38029857404683 243.77611699545878 M305.6220491040743 195.75235010548352 C285.19397175734815 213.83987894064902, 266.8242908374758 232.50515789061174, 255.49179304692285 243.74303306540597 M304.06084586924527 196.1110016744104 C291.494547889434 207.90501734428932, 278.53659215951967 221.50667033601397, 256.5560543885766 243.50225603425997 M295.38737725885414 194.92492535277128 C279.4806466174089 212.43643993195064, 263.4446296710248 227.32399362912818, 247.1268168651548 242.99497881135093 M296.4716038200056 196.02525869416863 C278.6611009141766 212.7117259827876, 262.09665097431144 229.46490187098652, 247.89279519608738 243.13499125683802 M287.2758831327502 194.80918005867719 C276.1826779163293 207.00936278809786, 264.8892839929854 217.15105249543834, 239.91737924234678 242.84870411357034 M287.3022823106218 195.9238951008287 C270.80539778381154 212.26391252503623, 253.31933295924773 229.8180093282072, 239.33649877978226 243.5678956612398 M279.58486897185617 194.8818354146075 C269.0283794776106 206.406971145732, 256.92592151971246 217.4265542333298, 230.20726679959242 243.02819578847038 M278.70354662429713 196.17079639243752 C261.1616698457752 213.60702576798494, 243.60638232018772 231.67830364620306, 231.3802132353643 243.92559693301217 M271.4987463972659 195.47625323696852 C251.28513764334534 214.80005536954408, 234.15220427003706 233.82226353075515, 222.46487553298553 244.67658127745736 M270.72313235673465 195.81090275454193 C254.28433824204953 211.44420773775886, 238.24074645832172 228.3547755918907, 222.09530697103668 243.23252744520204 M261.62653640507307 195.04493596716642 C245.65731372942244 212.59527278338047, 230.07933718776468 226.16924408364417, 214.62071081361987 244.0186286469375 M261.73709541613755 195.43895906018884 C249.33525001547335 208.41416078958832, 236.5006550772918 222.00411985969737, 214.16271870750256 243.88167425835627 M252.53936936637146 195.82202667160746 C243.48225566625595 207.050834209755, 232.38883426866954 216.61279064915053, 206.20488738758914 244.02324658831702 M253.08106202320886 195.86826486992504 C242.3420920323289 207.8138299590503, 229.5698554427933 219.50159608578682, 205.70420747796499 243.70332912052172 M244.5079850272548 196.28580904169797 C237.25883033779203 204.98830701077216, 229.11498304536678 212.67029994070964, 205.15569718785258 236.19491660613676 M244.68147871115175 196.19942443179755 C232.55822136916106 207.41491643715972, 220.2586500484152 220.09633504412994, 204.3846704399926 237.1627706553798 M237.64023250881684 194.42120739384413 C227.95855139971943 203.47952218620392, 219.813846180408 210.86030395123066, 204.1581194610116 227.23518289129535 M236.08686232566936 196.08909668135314 C223.9520328890071 207.79416908436738, 211.8431907241547 219.59170362821757, 204.44440300229613 228.42800423546979 M228.01857030715138 194.58228666945217 C222.13957008565944 202.75579893322325, 213.18774082532764 209.10120595997347, 204.5518835157869 220.53458957257206 M228.0990500249648 195.01874524163873 C222.36503982956924 201.32377002900185, 217.59445941801454 206.1647902560778, 203.50091157320566 219.0679492337116 M219.43756629335212 196.35475243492837 C213.29273861565486 201.73454062087316, 206.81920500561554 208.64997353053403, 204.8405415982721 211.46360784137318 M220.20444927974123 195.76338842320112 C216.21219651504921 198.42794770885766, 213.43895296674603 201.4626558529555, 203.75173643592424 211.34961614815214 M211.75469962564918 196.1150516166803 C209.1868036732594 197.55188358643014, 208.54561460824993 199.29921822410193, 203.95584452774054 202.166034838826 M211.08664470549363 195.4360007878844 C208.91247773678043 197.71219907054945, 207.3511608295152 199.52158683772373, 204.24421095603756 202.50189516394266" stroke="#ffffff" stroke-width="0.5" fill="none" stroke-linecap="round" stroke-linejoin="round"></path><path d="M204.1717903431505 196.49165421761572 C227.04343588091433 197.37368851689993, 252.72502366416157 195.89367980746925, 324.01921603046355 197.1770065072924 M324.90800662077964 195.18759165368974 C324.3356228225023 210.80665077380834, 324.6172615282327 224.51306913159786, 322.9177542809397 243.71689524017273 M323.8101127322763 243.5516997102648 C290.39533040709796 242.64324297712741, 255.5685542922467 243.63009637401998, 203.37164326272904 243.7919351939112 M203.38606625832617 244.00435566268862 C203.10127244220078 227.22431352846326, 204.44246124253573 211.33391334675252, 204.0412610772997 195.71346233449876" stroke="#1d4ed8" stroke-width="1.25" fill="none" stroke-linecap="round" stroke-linejoin="round"></path></g><text x="264" y="220" text-anchor="middle" dominant-baseline="central" font-family="&quot;Courier New&quot;, ui-monospace, monospace" font-size="13" fill="#1d4ed8">Data Lead</text></g><g><g><path d="M372.2985565973347 244.29855659733477 C372.2985565973347 244.29855659733477, 372.2985565973347 244.29855659733477, 372.2985565973347 244.29855659733477 M372.2985565973347 244.29855659733477 C372.2985565973347 244.29855659733477, 372.2985565973347 244.29855659733477, 372.2985565973347 244.29855659733477 M381.38733307275686 244.41058583344284 C378.63768877381233 241.8874155286804, 375.0530800324336 238.53495708446658, 372.8568453186279 235.36814076768357 M380.89462490703676 244.6547183582461 C377.64767195081566 240.73925397519773, 374.0543011657857 237.68025428487147, 372.17055622744317 236.14742018932597 M389.7888291780331 244.01186775023996 C383.5127226399796 238.60712513363157, 377.9579996201175 234.01679272541801, 371.953378548277 228.43838778355453 M389.47895214785416 243.93774398433922 C383.30117441778543 237.76927887986287, 376.84479764054026 232.62395134940567, 372.72126527818796 227.09872731597457 M397.54602820535547 244.34889975841108 C391.2432161448971 238.95295102263557, 386.9542658785595 233.9305230207786, 371.8184915443784 220.0225412190007 M397.3378646537418 244.886099814055 C391.5940881094702 237.9316384940158, 384.89163515945506 230.9588833198414, 372.17199868950007 218.965943388273 M407.36567916749226 244.50327719504895 C394.43390275153376 232.738362250888, 384.43990943074516 223.80799355053705, 372.5295769831067 211.5424727001012 M406.395940596519 243.85271774399044 C398.12223156929997 235.96283220313117, 391.0719591567284 229.26146761889052, 372.70650247129555 210.31271306469745 M414.3217322597561 243.92487798984112 C401.09408637381915 229.98231578409198, 386.97318134119234 215.23742093098483, 371.8863663097745 201.03477890654347 M414.48788456602966 244.66285412180187 C402.02458621751066 230.92152645293194, 388.8286181983922 218.2715815880722, 371.7153405884182 201.4521833179041 M424.1826689274593 244.9815488224751 C413.4625929813679 233.92565669480078, 403.722351633511 225.05940678867063, 374.53654934444046 195.35745239276125 M422.6698855271174 243.81403092014554 C405.59681129006856 226.81637268180071, 389.6547341046229 210.14768299997894, 375.376488505458 195.66069387029543 M430.5365018659145 243.43410512263833 C421.1562242267235 232.11839283810954, 408.4945961338729 221.3346456523177, 383.07234715716316 195.43645446318817 M431.6571168196261 244.23853573667765 C414.62291746611294 227.43634325331408, 398.2859084804023 210.55767889403018, 383.8644060620047 195.71185006927382 M439.9157750204341 245.31133107001844 C420.6607231722404 226.06453879942845, 402.9291361867596 206.29094288946334, 393.0702306937629 195.05543379801944 M440.66123615839945 243.86592179405454 C427.6535513084623 231.2293091047518, 415.66498176278037 218.84397783173688, 392.5022560984099 195.95374151300325 M448.9225635863307 245.3849795943028 C436.84501116858524 232.98605044980877, 423.58318788639707 220.4588616147183, 401.15805639955204 195.07286207694247 M448.62788563328115 244.58550793993237 C430.80737664689394 226.08565183069723, 413.043967331423 209.3076547075709, 401.1415400795172 195.81357767413988 M457.3534740089168 244.04477237517895 C446.1314598875909 233.66383913203057, 436.4013806274209 223.41188339366536, 410.0832119698432 195.44017972964474 M456.67419170911506 244.40887864696742 C440.85599337254183 228.49250156001023, 425.31287808695697 212.2065964098853, 408.54274384517043 195.90333365033993 M464.52464398350475 244.9733998423344 C450.69689486782823 230.15017676596787, 434.71615361326616 213.6782063110426, 417.8376163499488 195.27679593581394 M465.7262652257448 244.03238401281598 C450.7707591378404 229.72095848246178, 435.5554813001654 214.55165649679947, 417.2128376102133 196.1822501642598 M475.1967424554072 243.22152117545664 C461.46568918156396 233.31958830237318, 450.7403291411205 220.79111704252355, 425.98271973518126 195.34508862513732 M474.15670139801426 243.79963976013423 C463.2042789939791 234.28638300611814, 453.28959141592503 222.92574852006706, 426.2427759644895 196.5193335635556 M481.4999696199366 244.48276430423323 C466.29679286144545 228.04408409583908, 451.3703605259198 212.48044172498936, 433.57450357085327 195.72540447730256 M482.62207981576705 244.2640272365785 C469.45638410987834 230.64717326314548, 456.49193859384474 217.64151335254255, 434.9449978728429 196.05585582088366 M490.4590569224054 243.56872590835155 C472.6151406055213 225.55196223719773, 455.0171327681868 206.8307412517462, 443.0884805522772 195.8910589219971 M490.500464443847 244.35119341480495 C480.5096196765396 233.26505526719396, 468.592459779099 221.56041251204917, 442.89092667511727 196.16785453390017 M490.94009246507426 235.90579682444718 C482.3275915534038 228.24590821428174, 474.3581400966819 216.9356486997748, 451.94469462476553 197.18333613890834 M491.7507290290459 236.54337629941787 C478.6899093173208 223.77806282772931, 466.08249708071924 210.41324204372629, 451.1484700861562 196.22863292526134 M491.8029380051209 228.23757904407304 C486.33375297042153 222.5133625976757, 478.46607987794647 216.12600724087267, 460.83272098363096 195.68648905772403 M491.5774740980728 227.66932192493897 C481.5961505750931 217.406938636422, 470.41140546914437 207.1735458168121, 459.91952019580356 196.57125984262362 M492.2130255190446 219.88668227810322 C485.6363416221114 212.01975609321389, 477.56936387319473 206.1132550765513, 467.6366660741857 196.7027393581314 M491.2553235219582 219.45358092021107 C484.873471282978 212.59373261654397, 478.2346068063347 205.97101153341714, 468.57745346890306 196.65106975864302 M490.8232114521577 210.88657820622515 C485.54176570838484 205.80519841301026, 481.8264510868946 200.85986522348114, 475.76016759174246 195.62727746981813 M491.4232787655457 211.13586275789032 C486.77158616833475 205.89455710078687, 481.9606891614734 200.97296861805728, 476.90463074529845 196.80816277097597 M492.07242901472137 202.66225934518755 C490.2531211868412 201.39561391384876, 488.5483727371603 199.79398041482466, 485.53273038967643 196.6688806697695 M491.7229779907292 202.83188022006559 C489.82292556317515 200.3303489782873, 487.6972291967704 198.5638387545656, 485.29805663087535 196.3118695831826 M491.74368670764574 244.2563132923542 C491.74368670764574 244.2563132923542, 491.74368670764574 244.2563132923542, 491.74368670764574 244.2563132923542 M491.74368670764574 244.2563132923542 C491.74368670764574 244.2563132923542, 491.74368670764574 244.2563132923542, 491.74368670764574 244.2563132923542 M491.4594609187842 236.22797778401497 C488.6791273387119 237.6551323637495, 486.2803011314558 241.00579550032688, 483.0760965777411 243.8703685380219 M492.05446094970415 235.95447031896535 C490.185933558465 237.24237003999733, 488.34929534662086 239.00755695026675, 483.16318310263 244.26401144881532 M490.8747461225391 227.4547668626453 C487.2689753580067 232.48614594340003, 479.9029372897286 237.29281473372401, 473.58772383750954 244.60704068881256 M491.5222244485766 227.88104302006917 C486.3020166666527 232.39887822779937, 480.32090159377213 238.46201253438363, 474.4490880549846 244.71918242727205 M490.636864581287 217.78960770653876 C481.68621130151627 228.8803817144856, 474.20039016124656 237.60755379164493, 465.52660392128644 244.90478055220828 M492.05268388833116 218.40337803462836 C485.9111972003107 223.776838939098, 480.280405646692 229.08313727524853, 465.8267883220386 243.90598926101612 M492.4013763810992 210.45341507264897 C482.39937165279383 219.1719549790823, 472.4562424516197 230.14113970698983, 458.9170228539402 244.43429455500822 M492.1084298118502 210.42957085253224 C483.6856819259784 218.2269617871853, 474.6170189783569 226.83825187866665, 457.85656950645097 243.6907579020111 M491.6828567172886 200.70544189066356 C477.897049788942 215.42273817644636, 466.11737513484 227.63465732212555, 450.4993370807835 243.34155437690006 M491.4788543089778 201.7051903214372 C483.1331539478603 210.37937554800692, 473.5828369159303 219.89432289762493, 449.43368307306554 244.7569478229134 M487.96198491042117 195.85133696501612 C471.02815688499726 215.1685301558564, 450.2891615672894 233.0049433049851, 441.93343429712877 244.46550044757115 M488.6964067198113 196.7264980387455 C470.77351353371984 213.52595869611156, 452.7575098145345 232.164728719313, 441.362364861726 244.77278412137912 M481.4389715310632 195.68971785014028 C460.80047155943726 215.17132744295156, 442.0762886187988 233.35458592985475, 431.3237334482884 243.81304194670898 M480.30252075944827 196.07452122685964 C469.91622626921304 205.82168485509368, 460.60970778887497 215.72648843827602, 432.7933350872761 243.75375752006454 M473.0438397740198 196.10188947623132 C454.2308983964169 213.59233257063732, 438.4372726270522 229.74067597611034, 423.94418472957506 245.03405680400118 M471.770395892225 195.69227135894357 C460.7544192407683 208.13534930780554, 449.53153325452587 218.9306720082203, 423.66129833955955 244.625124366626 M463.4192898346032 196.06897977297655 C451.1799346708682 207.44639552334425, 439.1500361145169 220.49813818064766, 416.56326958630115 245.0963916991351 M463.400361707985 195.58937978265337 C445.32184876980375 215.33752977221013, 426.407839286793 233.27801039322136, 415.9224435834202 244.18440663371962 M454.90255315812624 196.89008542006368 C434.9761153906286 216.22489620316108, 416.1340513481337 234.1649151864519, 405.76900071377923 243.96086206179842 M454.8142321715722 195.9477434706455 C444.0761827209024 207.30987225954368, 433.9095571555629 217.31813619921184, 406.3919441587018 244.4638919190018 M445.4503924399012 195.05727184718006 C432.75619463664117 211.8861649960465, 416.78991464233593 226.07299514599126, 398.6939220573217 244.65625207167844 M446.19280562283035 196.48402502057604 C432.81279530257575 210.1618981799647, 419.19977205118045 223.67410985451676, 398.78145778024793 243.6931334451286 M436.9641016252405 196.73057323401324 C428.15699368551407 205.77143343609814, 416.2574563065087 218.49810056058698, 390.1401088122411 243.75431465846285 M438.31336477660307 195.81215265510133 C419.67474245711867 214.39802808614803, 402.58576276147267 231.56737906627885, 389.33662653790253 244.06145005975648 M429.2145059094569 196.21299251025079 C411.3298789413106 216.24415679369383, 391.1963070913212 234.93292235401032, 380.50416742385005 243.44477150183903 M428.98717672273426 195.60582022187768 C419.0857136804057 205.57683106666104, 409.69419108907005 215.63479061630966, 381.27457689650925 243.88042623554156 M420.96696173786256 195.22550135558 C410.12483570788936 207.62134012984004, 398.7360604756131 217.65235741228722, 372.1022355874609 244.4103130314944 M421.4969929260675 196.36098719356113 C402.7743281513429 214.4177260168559, 384.32098335424536 233.0097062585945, 372.82141969591186 244.14641207014006 M413.50635680577034 195.78204019968862 C398.4175082248699 209.3338986966516, 386.0746806022811 221.60250108425507, 373.27315684143827 235.7234238340647 M412.6345492264467 196.75837866780813 C396.7906014282654 212.71850368391088, 380.1910395618576 228.09628229378797, 372.22792474400626 236.52484869315634 M404.5621100584926 195.46451822226396 C395.5348209903708 205.63531034768846, 385.00601334806817 213.80740984484942, 372.07606356922906 227.14879965110262 M403.5380658387156 196.6259853672748 C397.03786134939315 202.8820083223449, 391.42055331629183 209.56574721024361, 372.7796038187705 227.74018526411194 M396.63317169134166 197.09781335299365 C387.4579251386787 204.31796769901035, 382.2174169219227 209.7907692354686, 373.0285804349594 218.40514394348244 M396.1297473527178 196.30156363961748 C389.7409761721594 202.7240821596615, 383.25100354310865 209.29858256733777, 371.6474141038619 218.9251755368499 M386.1130231496303 196.82477227156517 C381.24371565806615 201.25611022666806, 374.5168882807144 208.51321676356565, 373.3749701339416 212.09702214089154 M387.1532827332972 195.99513545749244 C383.0731697950454 200.1018987030583, 379.0818535448069 204.40697246825033, 372.6684039391242 210.6402321090263 M378.7002356526909 196.17672337786757 C376.52528345330813 198.8947828915359, 374.6756823806436 200.64302118267577, 372.6302643530853 202.51899305164912 M378.7887363389229 196.25334848276802 C377.0932566350994 197.7105843953017, 375.6307096989344 199.00904786016847, 372.3477000956461 202.71972220277513" stroke="#ffffff" stroke-width="0.5" fill="none" stroke-linecap="round" stroke-linejoin="round"></path><path d="M371.48614841178056 195.86998506113886 C396.05212305709716 196.52522622027993, 419.1900283969938 195.7092157689631, 492.74305923655623 196.21240780875087 M490.9296079449355 196.70510998442768 C491.52146738700264 211.60798092857002, 491.3794338338792 228.05568295791747, 491.4213051371276 243.42027428820728 M491.5321352787315 243.70203965231775 C455.75439648851744 244.93509157255292, 419.24226515069597 244.19931564882398, 371.0059719152748 244.47032223269343 M372.9432795099913 244.24522679522633 C372.4402469306409 233.70917623415588, 372.6096734910428 222.80069601610302, 371.3295132927596 194.93615480139852" stroke="#1d4ed8" stroke-width="1.25" fill="none" stroke-linecap="round" stroke-linejoin="round"></path></g><text x="431.99999999999994" y="220" text-anchor="middle" dominant-baseline="central" font-family="&quot;Courier New&quot;, ui-monospace, monospace" font-size="13" fill="#1d4ed8">Finance</text></g></g></svg>