<svg xmlns="http://www.w3.org/2000/svg" viewBox="0 0 540 320" width="540" height="320" role="img"><g transform="translate(72, 36)"><g><g><path d="M222.85313805935806 23.248315904662014 C225.12566367857804 31.086420709546655, 224.11611028187625 37.93550993520766, 223.11953402159637 58.247809110209346 M223.40384084803887 58.82262831516564 C188.34717188801517 58.40270507002101, 155.58460502454915 58.41745510959849, 124.97748757226294 58.123653336241844 M124.30678940413422 58.852379594370724 C124.93253904323927 70.65514921313152, 125.4369897816693 81.88480901438743, 126.09293214676804 95.14870927147567" stroke="#1d4ed8" stroke-width="1.25" fill="none" stroke-linecap="round" stroke-linejoin="round"></path></g></g><g><g><path d="M222.85313805935806 23.248315904662014 C225.12566367857804 31.086420709546655, 224.11611028187625 37.93550993520766, 223.11953402159637 58.247809110209346 M223.40384084803887 58.82262831516564 C257.5408939909925 58.867445773986724, 293.9720492305038 58.88219581356421, 322.97748757226293 58.123653336241844 M322.3067894041342 58.852379594370724 C322.9325390432392 70.65514921313152, 323.43698978166924 81.88480901438743, 324.092932146768 95.14870927147567" stroke="#1d4ed8" stroke-width="1.25" fill="none" stroke-linecap="round" stroke-linejoin="round"></path></g></g><g><g><path d="M123.85313805935806 141.248315904662 C126.12566367857805 149.08642070954664, 125.11611028187623 155.93550993520768, 124.11953402159638 176.24780911020935 M124.40384084803885 176.82262831516564 C105.73515870187823 176.51277523674972, 89.36057865227524 176.5275252763272, 72.8722244143682 176.12365333624183 M72.20152624623948 176.85237959437072 C72.82727588534453 188.65514921313152, 73.33172662377456 199.88480901438743, 73.9876689888733 213.14870927147567" stroke="#1d4ed8" stroke-width="1.25" fill="none" stroke-linecap="round" stroke-linejoin="round"></path></g></g><g><g><path d="M123.85313805935806 141.248315904662 C126.12566367857805 149.08642070954664, 125.11611028187623 155.93550993520768, 124.11953402159638 176.24780911020935 M124.40384084803885 176.82262831516564 C142.15290717712946 176.757375607258, 162.19607560277768 176.7721256468355, 177.0827507301577 176.12365333624183 M176.41205256202895 176.85237959437072 C177.03780220113399 188.65514921313152, 177.542252939564 199.88480901438743, 178.1981953046628 213.14870927147567" stroke="#1d4ed8" stroke-width="1.25" fill="none" stroke-linecap="round" stroke-linejoin="round"></path></g></g><g><g><path d="M321.85313805935806 141.248315904662 C324.125663678578 149.08642070954664, 323.1161102818762 155.93550993520768, 322.11953402159634 176.24780911020935 M323.05263157894734 177 C323.05263157894734 177, 323.05263157894734 177, 323.05263157894734 177 M322.3067894041342 176.85237959437072 C322.9325390432392 188.65514921313152, 323.43698978166924 199.88480901438743, 324.092932146768 213.14870927147567" stroke="#1d4ed8" stroke-width="1.25" fill="none" stroke-linecap="round" stroke-linejoin="round"></path></g></g><g><g><path d="M164.0715176872845 24.018886108337128 C164.0715176872845 24.018886108337128, 164.0715176872845 24.018886108337128, 164.0715176872845 24.018886108337128 M164.0715176872845 24.018886108337128 C164.0715176872845 24.018886108337128, 164.0715176872845 24.018886108337128, 164.0715176872845 24.018886108337128 M172.29738157838705 23.917557647688486 C170.5622379784921 21.033736163689387, 167.50490420094 19.215094102331413, 164.28456580750006 15.099415658196456 M172.635263550767 24.378246401822366 C169.1783379748095 20.68311402962758, 166.2738584316996 17.507696335634964, 164.2301842923026 15.889295561803527 M182.12869874113187 24.171104633821333 C176.2610420851428 20.862251748271913, 174.50682779041963 15.6687692221568, 164.21398801244158 8.23338901564281 M180.77705256943537 24.058750672837878 C175.0423042234615 18.87124863033429, 169.6407580276601 13.488210642330857, 164.44196913409343 6.710112271046151 M189.69263305755106 24.227276635183195 C181.774864131046 15.2606515961253, 171.42328584984173 5.986827025667762, 164.19150684512513 -0.6403198903149644 M189.15793913228214 23.616809977790513 C183.54002122997431 18.336017253626913, 177.53177691376197 11.48272256672137, 163.9504247026454 -1.5164195287695805 M197.20030936310604 23.05300620795616 C191.45604129528115 16.994603450507274, 183.333521492324 10.249354417623065, 164.7100210849132 -9.524732455330357 M198.53868626794383 23.444579632779742 C187.7223444144183 13.06505545991661, 177.49633221313522 3.297194563355365, 164.23950866627803 -10.429692394564317 M207.43071935701545 24.556606340421535 C191.7151602107499 7.887953348690345, 177.43375397728758 -5.697451188185374, 163.40281930602447 -19.547082566122118 M206.15841140806106 23.779602362414995 C192.58445708040495 10.392643148033718, 179.87142057823377 -3.0293894950943367, 164.47431501913175 -18.57751516422868 M215.34527661349813 24.73271814586053 C202.75840299877126 10.812941949743436, 189.9156018459686 -1.4841939627714793, 167.80153908242394 -24.80734885966281 M214.39314604677446 24.438131828805602 C203.59145673383028 12.733612022289105, 193.92056701614177 2.741620221871268, 166.44152894259355 -24.256808613407113 M222.6753165817728 24.074810862554408 C206.59079211679403 6.983113783375648, 189.65554243178002 -9.2391557504619, 174.69523986307655 -23.194181847924987 M223.16208574072473 23.70888263156096 C207.68161624517487 8.14401416549579, 192.53657844870702 -7.091299526567594, 175.52724968055014 -24.04828258024404 M232.10959658605822 24.38768185378442 C213.17927641957903 5.974138110262124, 196.5990335857933 -11.346439544270964, 183.43262159770867 -24.45768529211978 M232.53384010905245 23.846780307790436 C213.83430544940921 6.0936911815632975, 196.40845681823382 -12.798284404167607, 183.43795916514983 -23.607967339622476 M240.28179582557314 24.399956607831815 C223.53728323796187 5.201881232429101, 203.2992256507021 -12.913737280314388, 192.251660360539 -24.85478057896594 M239.93268283339822 23.966711332103408 C229.76795445333443 13.527225040461499, 217.99350938064174 2.11701533315957, 192.1489076405332 -24.031327979433037 M248.75801537453628 23.776588737977853 C230.36375945851216 5.237912795006315, 213.91432587492207 -12.098500201616302, 200.0102541007863 -24.393560970182218 M248.74480165790266 24.337273116609268 C233.79006578071633 8.204640723255515, 218.17734360093613 -6.531879767281373, 200.65350941334083 -23.816368650066355 M257.0242781821664 23.531359982503737 C241.55237490669288 8.216611162455472, 224.06393969472697 -9.353695582904308, 209.97372264266937 -25.220791602487363 M257.12454838920644 24.07452401091733 C242.26746098905113 8.447850152560632, 226.50937838392258 -6.7025698105658185, 208.76959285271346 -24.16988256441305 M266.2740290726823 22.83938020469079 C251.9468592944336 11.150397159902052, 240.13987169286648 -2.557108978232775, 218.00230768540695 -24.009409487600127 M265.40068889645016 24.235733302137056 C255.94217500454846 14.85554696080178, 246.47585022142525 4.54823102634572, 217.94565039029166 -24.11370199786375 M274.79563474530266 24.249587392820217 C262.2643530325321 10.596988611709447, 249.75996208580742 0.3863959924307778, 225.93867280321777 -24.746023512239255 M274.48265311127443 24.313131214877764 C259.76233405035157 8.440685891571139, 244.37939016549663 -5.749127059045417, 226.66708852021605 -24.590948288309075 M281.75988377424625 23.297247660173277 C266.421394669261 6.9760842272235335, 251.86619039752253 -7.366322235867786, 234.59540344532053 -23.918414438123502 M282.46678502781987 24.12765891124884 C271.8888254868902 12.48255030029157, 259.485979946513 0.9151242836303893, 234.8624777991272 -23.57228183613966 M285.1364187968664 16.245387433165767 C273.32090445421545 5.8211189337139775, 263.19607933602344 -4.860507527442158, 242.74250693593407 -23.303034901971603 M284.3715248908617 16.85165067899422 C273.3376695466946 6.5655556570023474, 263.19578416982085 -3.902564477771631, 242.90980284616586 -23.762152104246105 M283.6802263868742 9.49628332457126 C272.5214889833821 -1.6528402969538978, 262.22833098063734 -13.299278677086653, 252.09491247427712 -24.752509415502335 M283.74264906903284 8.301573804715582 C277.23206659861927 1.1180511825906116, 269.5076505716258 -5.847806130013077, 251.24271234297257 -24.105047618019068 M284.1485743058615 0.6333993850441345 C277.4368580463176 -6.7124435227069466, 270.4481586290384 -14.141063484610473, 259.0999711345684 -23.783134365434446 M283.68895730634705 0.06121582539544192 C279.61386601943997 -5.331818245942109, 273.46702364146546 -10.075970058330538, 260.55676903368794 -23.891745965349177 M283.916938628047 -7.537685772134358 C280.03793797920093 -13.78377996028053, 275.22596130923085 -18.800759724923807, 269.5249558660267 -23.56237801348666 M283.916949846945 -8.196138346856827 C280.72672858578426 -12.322126468558688, 277.69110865420674 -14.976194979447557, 269.0156997249527 -23.865563796627022 M284.43019389582355 -17.0779363045828 C281.34474771622774 -19.878008158678636, 278.4720309549243 -22.73162955874936, 277.7265820850014 -23.880377754362918 M284.2154807432324 -17.09652503145724 C281.51508185999336 -19.819622588792374, 278.564411780778 -22.60377671565895, 277.23312398151967 -24.19649091854567 M284.1339635277984 23.918668051148956 C284.1339635277984 23.918668051148956, 284.1339635277984 23.918668051148956, 284.1339635277984 23.918668051148956 M284.1339635277984 23.918668051148956 C284.1339635277984 23.918668051148956, 284.1339635277984 23.918668051148956, 284.1339635277984 23.918668051148956 M284.44659256298814 15.149544321226957 C281.7238560457289 17.393174554897854, 279.3013099780559 21.414360110791026, 275.9782973609489 24.214343925426903 M284.12575923480813 15.403959743718685 C282.51673032801216 17.169793822345582, 280.9164103969984 18.638205203096913, 275.6928117817637 23.61995107722581 M283.78914009694734 5.976274689133225 C277.8559066781653 11.719956593554743, 273.3027502671917 16.646551458202648, 267.5658340923781 24.177122617225383 M283.5970531512869 7.347320715370534 C277.81548502112497 12.825403200032335, 271.5274636844351 18.927094409006184, 267.40939479529067 24.295812906968628 M284.54949317340527 -2.705652982083353 C275.54856767775715 6.713053327488708, 270.3612338590785 14.107278968982259, 257.55124629447545 24.626745927791315 M284.4854630579126 -1.103357927401754 C278.64978826907054 3.845041914778225, 273.8686823230148 9.172065657922591, 258.5012770279342 24.36028071259262 M284.843578473374 -8.9994195662638 C272.9263577852429 2.6767374178243886, 259.8868319359609 13.887272521561934, 249.37858163805228 23.748331594924647 M283.69475404516584 -9.503393602949922 C273.50787818265997 -0.13928519778781878, 262.7454675588686 10.546896616646881, 250.10183941347074 23.324408819425123 M284.3238251960722 -19.295149575126864 C267.4331433960381 -1.117101799847246, 250.52772866329013 15.060353681496906, 242.50456619732736 24.36620823190661 M283.5898247946871 -19.028524836664594 C268.47370967351833 -3.257662237920489, 252.93985454446576 13.270297944080134, 241.62695719604105 23.7021071395755 M280.5466572909725 -24.81821227064508 C269.6143092443797 -13.680969740965534, 259.3439331713141 -1.8943573626632138, 232.80584792151942 24.953532577018443 M280.9690609258709 -24.17235209169018 C265.2635425737649 -8.407938929957938, 249.23867232171793 7.520725706091694, 232.81066968228563 23.704746522653107 M271.9884205825474 -23.24514878979103 C259.42818488538074 -11.523861720173947, 246.69083550447064 1.5233335851136238, 223.56649663484723 23.644789493541438 M273.0990121206116 -23.88101489367114 C263.4502527076996 -14.78491085550644, 253.2852894408623 -4.320233404861846, 225.11143024134518 23.934908755767363 M265.518164144508 -23.176453518775894 C248.0153954920468 -7.0556346379509245, 228.95814619428046 9.660734265833483, 216.06550403652952 23.448291969756788 M264.0059234975422 -24.544723204990518 C246.43834020431237 -5.746956651043734, 228.94010549971026 11.880017505920474, 216.51835630486028 23.88013656352759 M255.2430046760731 -24.781938469318327 C241.9616758788196 -9.16733302316628, 226.73448982057832 5.830160385233688, 208.56428370078504 24.258681118945795 M255.93984998830337 -24.56187180103886 C244.97058755850378 -13.198936702653704, 234.20437579122114 -2.3949797457042896, 207.75747936697155 23.806683608043212 M246.35248075146146 -23.845087528137146 C230.18719614955802 -6.978407423633739, 213.02187380626998 10.436574076453628, 198.8941710768326 23.26942617938966 M246.83776058703577 -24.102144519706844 C234.44789138821255 -10.931328880052437, 221.33402619916274 1.9561427047188047, 199.4979949843197 23.653264488923554 M238.5060528198918 -23.35055645695108 C224.46709211342994 -10.94554664176173, 210.98661785288587 4.238352644722284, 190.64392348889086 23.78532451436967 M238.32978835038 -23.81276426138508 C223.37375018706285 -8.453215855959423, 209.2827100129809 6.2210223886486515, 191.35851277604525 23.724804743278032 M229.62060320558288 -24.67167289247888 C219.27839974481327 -13.205910548005843, 207.67849129084198 -0.2681471364539867, 181.3472201361786 23.63500161216708 M229.94548039747664 -24.124742988964197 C219.44439979522997 -12.870920143687034, 208.78235965917477 -1.7954847935510216, 182.71330642378885 23.58619084571602 M220.85793610775346 -24.7579363464393 C209.44127941781045 -10.14505682838359, 195.26903188534186 2.1863896558062015, 173.47016209291465 23.983411086063093 M222.32004790996635 -23.95913172783482 C205.7025256467175 -7.614618337487202, 189.91229354528937 8.086686590326465, 174.09856367169118 23.95602020834685 M213.21227760062226 -24.1225182055511 C204.09521321993785 -13.223434918611948, 194.18320716111094 -5.537721851423211, 164.99877230831763 24.944334674339 M213.80061613198976 -23.63327056588758 C197.51566895069774 -8.020844434270664, 182.21790851899877 7.300021904868503, 165.6186363263928 24.40035118077994 M205.29777563340812 -24.02976173153299 C191.3257871578931 -10.845219716825087, 178.6936035729385 2.174592995631935, 165.09756341847185 17.721814428410568 M204.8524743701875 -23.567038653513073 C192.7461530965197 -11.441642152747432, 179.96331243825375 0.9375679627633489, 164.22335806889984 16.955385238259176 M197.13600003032968 -24.882682061103772 C188.75673309250834 -16.983185044801175, 179.6624096617298 -7.081646304879589, 164.89804787310365 7.221642586051425 M195.86532599370017 -23.58910420360197 C188.2652800322919 -17.00378381346613, 181.59920568978842 -8.9599709951631, 163.51530458136054 8.420206854886313 M187.94344249060572 -23.41046620598216 C181.9609815566525 -19.39218282891106, 178.2439548149313 -12.836440533906199, 163.05680068405871 -0.9067011770840991 M187.9595384341684 -24.043174491544853 C182.24441028302076 -17.780003352679557, 176.7219680886413 -12.243473195195852, 163.32660629554246 -0.7200292448561896 M179.91901658845498 -23.055973052886916 C172.25708521814357 -17.467049580925995, 167.9043467565824 -10.625931259440526, 163.11453230055574 -9.029122622714713 M179.59239318573282 -23.89424585523237 C175.03055063769213 -20.377678383873402, 170.5023781233665 -15.797212950388863, 164.09677126808617 -8.571920961358918 M171.11421815552356 -24.063913216536534 C168.63431642792204 -22.283436060363623, 167.00617962759785 -19.474070145506925, 163.89759288644944 -17.19686232261501 M170.98060717149244 -24.19972338229571 C168.45945124062624 -22.01137296353976, 166.1672888718509 -19.549596422782567, 164.19526617210886 -17.00969025759168" stroke="#ffffff" stroke-width="0.5" fill="none" stroke-linecap="round" stroke-linejoin="round"></path><path d="M164.56698964757746 -23.421669156476856 C187.86131875513024 -23.36046229662001, 211.7176363117797 -25.09646403850615, 283.5764747850401 -23.764598698541523 M283.2742329031033 -23.682481669262053 C284.55367614344783 -12.398669845238327, 284.1300038845939 -2.4573861736804226, 283.35618243513534 24.903379048034548 M284.97465412540265 22.95033994205296 C258.611697660367 24.80384859542549, 232.92634243739673 23.081219274803995, 164.8869602314932 23.478387038782238 M164.4098448306126 23.040871132537724 C164.30680606738753 10.084862705692647, 163.13504382745452 -1.733217330649498, 164.5408837944073 -23.577307533100246" stroke="#1d4ed8" stroke-width="1.25" fill="none" stroke-linecap="round" stroke-linejoin="round"></path></g><text x="224.05263157894737" y="0" text-anchor="middle" dominant-baseline="central" font-family="&quot;Courier New&quot;, ui-monospace, monospace" font-size="13" fill="#1d4ed8">CEO</text></g><g><g><path d="M64.76390584270962 141.71127426376225 C64.76390584270962 141.71127426376225, 64.76390584270962 141.71127426376225, 64.76390584270962 141.71127426376225 M64.76390584270962 141.71127426376225 C64.76390584270962 141.71127426376225, 64.76390584270962 141.71127426376225, 64.76390584270962 141.71127426376225 M73.45035225067608 142.22861734246493 C70.25748600103215 138.1783953246126, 67.27987472077562 134.7981674767444, 64.47000208314068 133.07761473771947 M73.04611619543604 142.06999485073268 C70.26674226851459 138.81420733133672, 67.85189573199025 135.8574844930469, 64.72123905274577 133.5773745449336 M82.7077052019272 140.81571131473066 C76.72577508904818 137.5513887427309, 74.2114590492972 132.9585362401961, 63.84884649302373 125.91084282685075 M81.80441285853422 141.19100339276375 C77.08241191538102 137.64495375774376, 73.067544623169 133.66710288112776, 64.90480873632738 124.66428933765744 M89.35029246052703 140.92805531745435 C83.75818628249775 135.63823691431938, 75.63736736917542 127.27292542249057, 63.80388415839084 116.64870638917375 M90.08090460998913 141.50712200266898 C82.67514360402213 134.89779940477945, 75.7498237961406 127.48237885551153, 65.1217198734314 116.69650711226453 M98.28036369739834 140.9795144630003 C91.09859395994673 133.3323927486861, 81.64177945342328 126.63011978230851, 64.84091263796695 107.36516263338153 M99.15711750707392 141.1626613126475 C91.0194252976119 134.06152186689562, 84.14385109382745 128.1022502725548, 64.49988780069657 107.35524275491362 M107.85590231097865 141.58671472793102 C93.29352339043386 127.72179486943665, 81.70127367198634 115.12154854416235, 64.62650908018956 98.20574378603658 M107.11128641306985 141.83270677191794 C96.83211712974389 131.92752771514168, 87.1766068738787 122.0540251773627, 64.96950050640413 99.54487858982345 M115.19973544970544 141.93893833880904 C99.52724061769914 126.23143799740151, 83.4582905362308 108.85381839650873, 68.19552150824232 93.3420654484476 M115.09547431625815 141.94976570469916 C102.99334808781718 129.47277814249287, 92.06822087657723 117.90544676579424, 67.2755012285815 93.84314594095899 M123.77453401201622 140.6231237721968 C110.95418935702241 127.95763423542371, 96.3169944352685 114.74639961602271, 75.89764169530895 94.16839947192322 M124.1480723299201 141.69126731020992 C112.5358376137841 129.679434999664, 100.27906646912254 117.24211206381135, 75.76166133025613 93.06019800728511 M131.75781264634847 141.2488657546568 C115.64587658835379 125.93968288919667, 101.71869536905646 110.5318320284046, 84.88712379033458 94.04139258353364 M133.20629969233693 141.96706266266884 C116.12513499463489 124.60958868517831, 99.3067421805582 107.25894196199059, 84.29779892521691 93.94082848852825 M142.0169297511397 141.2734152627516 C125.24580919750161 124.39516913353063, 106.40299847125614 107.39723655631775, 94.03991994175666 93.24720200984132 M140.71870376678987 142.2069247112948 C128.6904994041097 129.62920452545836, 115.9582614828613 117.62543733499156, 93.23441450174505 93.09410720890712 M150.48408747482745 142.42667952304365 C133.044279917743 124.46723225868502, 116.97871719883693 109.02771071371389, 101.07182604801277 94.16964122740876 M149.85766004156022 141.74804828030648 C138.09689256215134 130.03148776856273, 126.10475265086504 118.59175123576303, 101.75833667312185 93.52402586764049 M158.53133171584918 141.93622201209547 C144.30542978648663 128.25542864696268, 128.56186381082887 112.34811960451721, 110.11348175754034 92.51517996279848 M158.1318721299292 141.22255006892266 C146.335601951203 130.51790662717298, 135.25274118921996 119.45037114919417, 109.50522217762851 94.01699803894712 M166.14555212264239 140.55226245646958 C149.62326461697168 124.50634841771877, 133.22594163797442 109.10798836558615, 117.6853704687769 92.53794419257295 M166.19887177017807 141.5449686513621 C157.0138960372014 132.28584836613894, 146.49789869509203 121.28786872136386, 118.1720558785463 94.12935917204571 M174.7034820936445 140.9726768327284 C159.14217106555066 125.79953132133356, 146.15004139623838 112.59499830691327, 127.47281933015995 93.46471614329471 M174.677518825588 141.69976447684348 C164.35478532532682 130.2727784518147, 154.02220200389092 119.92645699885571, 127.12965076415651 93.17486659115507 M182.5466987772932 141.46799736743452 C170.9876251889071 128.17437477649878, 158.71052109370424 116.32286629859021, 136.30099924012694 92.7199342915262 M183.36050128444037 141.32881986958566 C170.73663425340777 128.7398550451185, 156.74759539679053 115.22165523593318, 135.0351479477403 94.01219949549389 M185.48555526016037 134.43534472528492 C169.95853597268126 121.69081712420413, 157.9113243980613 106.13000286365582, 144.10992484711548 93.95069336382998 M184.55576744815093 135.04787121694181 C171.98892468552185 122.57969057078087, 159.9075925935383 109.8458889629969, 143.844516667579 93.63245895928098 M184.97317044017595 127.0224178823345 C175.74452499566718 117.81300000175966, 168.16897376401013 109.93088801532663, 151.92945454956296 93.45174433676851 M184.49801580449324 126.43299884262315 C176.70416866193932 118.64940057393244, 168.9607189948686 110.0230683356413, 152.02505428695383 94.14666793173505 M185.9098662781505 117.78193137751884 C177.23705995778644 107.8408717607404, 168.06798723529656 100.19195794900187, 159.85429049590695 92.99049443690433 M184.3906322791217 117.23756425822145 C179.79107590403123 112.5175221409597, 173.5057172601507 106.63754462825138, 160.96788629414604 93.37327123707486 M185.4465949225215 109.92504243740046 C181.5484685373177 106.0927289735964, 178.14705487181905 102.28130911875145, 169.8189785845849 93.4320071407999 M184.8466173603175 109.20813728795554 C181.5401094371701 105.30476611981926, 177.38013941123592 101.90789893526232, 169.40046630243688 93.42563557451916 M184.67310545807462 101.12982274674216 C182.51366966088085 98.37507672604515, 179.59666326302005 95.49626105064986, 178.33694964829579 93.39600765904737 M185.14367915289233 100.79264529299329 C182.5543379484119 98.19184786581768, 179.4814249147275 95.4519667368307, 177.65003344133243 93.66378133068187 M184.73951922507007 142.31311235387727 C184.73951922507007 142.31311235387727, 184.73951922507007 142.31311235387727, 184.73951922507007 142.31311235387727 M184.73951922507007 142.31311235387727 C184.73951922507007 142.31311235387727, 184.73951922507007 142.31311235387727, 184.73951922507007 142.31311235387727 M184.6447772954496 133.9801462682718 C182.5730521353282 135.09365886121634, 181.1220725496777 138.30191742330726, 176.1934682656095 142.18446410243317 M185.08311063908957 134.12897711325525 C182.8624737756435 135.22322432036316, 181.35889018846365 137.18299080701811, 175.98249710723914 142.075678406031 M185.2498723633679 124.59888837832291 C180.21235997579103 129.3387564383714, 175.4942722532347 132.40372106827638, 167.3738231027066 141.6300214860301 M184.26569847204706 125.54098043079752 C179.53151666171033 130.86819095013394, 173.74369908772138 136.28334826869076, 167.66094450853163 142.46740206551658 M184.3705785162838 115.72031441012834 C173.79880232363607 127.0054641788348, 166.115303510822 136.70274663727875, 158.22992888113984 142.52926810716195 M184.84251828529852 117.12490451949154 C179.40124350626297 121.86944135341385, 173.73020043869462 127.43232001515943, 159.52999034805725 142.59633767676456 M184.95874911622127 109.21806261600604 C174.78221663993347 118.912467684208, 164.67961514015124 127.75708769290137, 150.36988094253206 143.17243944142862 M184.4611002598049 108.81011454263378 C177.5823400323822 115.08042245298358, 169.63396898358113 122.87633588307128, 151.216396493369 141.7245938904296 M183.91924256161772 99.51188397251849 C169.61026508651742 116.59924015109144, 152.76999836949867 131.9835883653026, 142.7071314353208 142.00819271539257 M184.25124175884744 99.44513344944303 C170.88775088849627 114.11811927494496, 155.59060337886817 129.00347689046905, 142.75191343274813 142.47999053073033 M181.59333387616442 94.1226128309744 C169.46068983380533 106.89584549288612, 156.13658991181137 118.45241802535371, 134.19497625794347 143.18284140561624 M181.83814114596117 94.8143331888842 C169.77580871671287 106.02525489076426, 156.95937266089308 118.64927971458944, 133.60461977947588 142.48526929688558 M172.96214183355275 94.86873979268248 C157.34292283666684 110.97926188108997, 141.4848762989836 125.05700026752807, 124.20155505883766 142.9653552386622 M173.3833249096811 94.19700758492226 C163.58705848130444 103.85716361042496, 154.07378417176704 113.96986628757712, 125.49142227183354 141.74559376311407 M166.10691033171253 95.00613033471282 C150.21927764837454 110.52986347477831, 133.73808350111597 124.72929683407303, 117.68485123644082 142.57236019109294 M164.88242903778092 94.06959096228357 C148.86516707290573 111.11641979521339, 131.90200211197555 127.13706366086771, 116.79055577310233 142.83604937863453 M156.44187276908136 94.19516043362793 C146.82791944953806 103.67566705096829, 135.60685178132962 114.43734941949411, 108.76769193919047 141.79313848947092 M156.03556339354193 94.03529377018687 C143.59829093139015 107.02911191613047, 131.68251962096187 119.02037360589226, 108.95408327156349 142.68914346766576 M147.1461062940966 93.6688623159903 C131.76424136525347 110.45351825003337, 116.66690112695143 126.050176801934, 100.3127480655241 142.2146286103587 M147.51666596524527 93.7547483328509 C131.0381799650462 110.36432756133303, 115.6271018110836 126.52261850673845, 99.72039588049829 142.38230522942646 M139.93853180519588 94.65792445836242 C121.36186278971957 112.36669169129372, 104.01756649276844 130.71783804012472, 92.29753426387923 143.2464252803187 M138.98600286617227 94.33350884949441 C128.19183116112248 105.703901385382, 118.04305526123265 115.81907342632405, 91.92671283818798 142.5253857381354 M130.6529139508166 94.41569158730682 C117.3005590801041 107.84596387880549, 103.71739439629854 121.70483847777216, 82.18940893269331 142.9457794759135 M130.70266833460414 93.70955139433619 C118.00175952755818 106.71594468744311, 106.29433147958483 119.25016316357808, 83.12158150791379 142.24815794301136 M121.61286112939635 94.24316467938597 C106.11159980033698 111.33687166467071, 89.78375695953682 126.38311240891326, 74.92057422040392 141.24259842370554 M122.73708473382213 94.04077391659493 C109.81994482890892 107.38109642232644, 96.27278507432666 119.55040182967969, 74.377377377957 141.78781666827305 M114.80682548937256 93.1140009611624 C103.90474877883034 105.180115484214, 93.69738888531356 113.33488939445442, 66.46307602544849 143.16444560025735 M114.18350255210753 94.69249624048943 C101.93151281110796 106.79944388213882, 89.3692963959841 119.40787211214308, 65.90280406159881 142.67647861313924 M105.06310292918275 93.2995139091986 C96.19498706008727 103.19081161187067, 85.10669964887323 112.65435727808959, 66.38197858931656 135.08336613907943 M105.97250040274153 94.82496006523843 C89.14316139597891 110.49302481130819, 73.26195103314075 126.76697408863606, 65.23356789017255 134.15050775877663 M97.22483309726444 93.99367325005706 C87.10268739879032 102.99881001078958, 78.0291238206772 113.68680420718883, 65.98294749858017 124.96830382859969 M96.48348502400543 94.78082896506066 C87.90187747530695 102.37921929251752, 80.06548043359423 111.77109328582937, 65.01746091509398 125.56543236626946 M89.7249993920551 94.53810496030026 C82.79264927532662 100.05609291285998, 77.9345433658538 105.7916299289002, 64.70045312049027 117.19689767656723 M89.15719127918047 93.87268838917487 C81.59803136787644 101.44309741364077, 75.56780240236164 107.50150230536407, 64.64006434345777 116.97024154102306 M79.76142896199225 95.24709126649077 C73.37852849015952 99.8840018928364, 68.77645472306428 107.06283537978027, 64.81591635348435 109.43733615954454 M79.70818215654789 94.17054566179986 C75.18834653581926 99.07550593045194, 69.49810981109512 104.87032849349396, 64.98039428854521 108.55173948225614 M71.27364554685337 93.87107496859157 C70.42013334296861 95.62562294390486, 68.95507151465658 97.05689717837535, 65.72768109319891 100.94780554697138 M71.84314577559738 94.43661667022505 C69.8353760058362 95.84533651818782, 68.25506815431208 97.7309498792792, 65.45349300738584 100.47471526401338" stroke="#ffffff" stroke-width="0.5" fill="none" stroke-linecap="round" stroke-linejoin="round"></path><path d="M64.88134771620757 93.95666168704629 C89.8700059313131 94.36707540675998, 113.58264104461199 93.2950719229877, 185.3003179911328 93.27080260291696 M184.6958342272592 93.43503666147589 C184.9699207079483 106.40266030952334, 184.12257619024047 116.68522765263914, 184.85973329132324 142.6067580960691 M185.6966766718579 141.10067988410592 C156.97076374178656 142.11969719085099, 129.60005329584604 141.074438549608, 65.521288884039 142.15677407756448 M64.56705808227784 141.28174226507545 C64.47618055582768 124.9697254113853, 64.53265607596165 108.53356533870101, 64.82913600986726 93.6453849337995" stroke="#1d4ed8" stroke-width="1.25" fill="none" stroke-linecap="round" stroke-linejoin="round"></path></g><text x="125.05263157894737" y="118" text-anchor="middle" dominant-baseline="central" font-family="&quot;Courier New&quot;, ui-monospace, monospace" font-size="13" fill="#1d4ed8">CTO</text></g><g><g><path d="M262.7588552088263 141.70622362987893 C262.7588552088263 141.70622362987893, 262.7588552088263 141.70622362987893, 262.7588552088263 141.70622362987893 M262.7588552088263 141.70622362987893 C262.7588552088263 141.70622362987893, 262.7588552088263 141.70622362987893, 262.7588552088263 141.70622362987893 M271.9058841336567 141.40223824793296 C268.95235150911145 139.28194262047882, 266.3115190009982 137.47718526094803, 263.39799956947286 133.35837502793404 M271.47953005079665 142.0643045103346 C268.6577077729113 139.24786184373744, 266.0124942429725 136.50983386115047, 262.5148550238805 133.56801473875524 M280.589272873414 142.16287920633155 C274.5745280048377 136.54308694788148, 271.30011022005897 132.55086446892696, 263.18626618429744 125.89085784875023 M280.13433435832457 141.8258173233812 C273.0309682682966 135.3271075461494, 267.00866732997855 129.36033123122536, 262.6702095492529 124.92102761496025 M288.7105130741945 142.3313952104171 C283.04406964464096 135.91838344320502, 277.15401009920066 130.861585030005, 263.1188226823481 116.24029387935407 M288.3064312983877 141.69999523823904 C280.3128271887615 133.76214276662355, 271.2704318892107 124.58459635499322, 262.395576254909 116.01199496399022 M296.6629792423822 141.20858392873603 C288.04370783530385 131.97274325755646, 279.6525986252141 125.31344635768554, 262.27436540171226 108.95761893278501 M297.07810995689556 141.18330420320677 C286.1937596944916 130.40940698278996, 275.8803983888149 120.27049959127876, 263.2628281458067 107.44273911508313 M305.5836464756334 140.9193843261321 C294.7780945337911 129.65455084789284, 283.47500133035834 118.03946273421997, 263.15276006504615 98.26113134888686 M305.36672262877016 142.18837239211248 C290.1007037685176 126.28333887168438, 275.01743838471975 111.47308506501592, 262.767247204368 98.76983355456717 M314.7567554966043 141.4477197424491 C303.44609132483487 131.1691474798882, 293.7676445388379 123.12769641475462, 265.89206514475217 93.79404096724954 M313.1003637964334 141.76396079128432 C299.6978006524956 128.51450547338823, 287.5184359477042 115.3718345204088, 265.412034725261 93.04566170601663 M322.17631265295114 141.87399789253072 C312.6201478079423 131.46551555154264, 300.2810076494485 121.26531584657818, 274.40260473823287 93.83354200246302 M322.43662012980695 141.9762131995504 C303.6451683155685 123.90076482038673, 285.86001159857614 105.84478041660772, 274.49863419065366 93.67123980550585 M331.1085899173303 142.81261086622078 C315.4150379678201 128.4385885322021, 301.74091836301113 112.543464465151, 283.64418719365204 92.44303166987864 M331.1813204863129 141.1899062282388 C314.5185257505521 125.19724774610559, 299.5075887535741 109.38792988546108, 282.4601998959755 93.79218552737055 M338.65462488739786 142.84943512836296 C324.2568963677329 125.89101824532372, 306.8093325025018 110.01077160364144, 290.7307407336659 93.65174580934017 M338.8072859108731 141.54969930117772 C325.14640521895575 128.03374522114683, 311.4563744491517 114.23642054751512, 291.6224825736485 93.72210360793888 M347.11272078581015 140.97933151880102 C333.0273615876654 126.22991258643464, 317.3456697334433 112.68728249311499, 299.43595920593077 92.63540463569134 M347.0730796359093 141.46138465469528 C330.0896283301408 124.54424380042445, 312.10141846321136 106.78463900122495, 298.9657251435944 93.16698159603894 M354.9409464602234 142.64364525237875 C344.36104587697184 130.36600768878213, 330.36234913762223 116.12169634925098, 307.5558020831028 92.55371273877587 M356.44175708134344 141.87313733761954 C339.28965189990936 125.04307243496056, 322.06536075693487 107.24176921799233, 307.54341271323506 93.30643985299882 M365.7196363832939 140.56770591893988 C353.98808372095897 131.95071345698477, 342.6170775886687 119.67815171499144, 317.07099446283837 93.7878590834376 M364.29961585459745 141.15676521127867 C353.9573786271665 132.24951063554693, 344.79170872607096 121.76086728045286, 316.9010225774925 93.47498155264674 M371.91389065267794 142.39832748332816 C355.9533499626401 123.30463524164924, 337.67348157074025 107.10616183208731, 323.90952706779365 93.97801700952022 M373.37494575059316 141.3889589495008 C356.63314558685653 125.02157965199208, 340.5342706047027 108.90209747255356, 324.8947742187885 93.24324268131075 M380.6360749910316 141.94130828538732 C363.2397646951076 122.05857431232853, 343.6241085523034 103.08131159546572, 332.9091562456249 94.06084423186749 M381.5567787517524 142.03254203861403 C366.8870042306168 126.33052065401631, 351.31177205775947 110.86154705230686, 333.71037930704495 93.89924203781902 M383.13725293414586 134.9278632280957 C374.69802589148486 125.66551518714986, 366.5308665222008 115.82795178897332, 342.7799039689883 93.50698284032315 M383.2425712161317 134.34665296558106 C367.7458825071583 119.69638669525102, 353.72510370006495 104.69690361445701, 342.08179169968366 93.32963123349964 M383.56867570416915 126.85111365078932 C376.27012221864373 119.4252723338788, 369.0121777580745 112.9074867411455, 351.4665578355403 93.95855929973092 M382.5559437506451 125.66698509122229 C374.8349611132369 117.12718199867986, 365.87247780608885 109.24037483470126, 350.1099574416266 93.50094469218072 M382.57371946113096 117.23302458068514 C376.74814919201526 112.02047419363747, 370.2070292763833 106.55959264413248, 357.911171067937 94.46668444993466 M382.3948684625878 117.91647390173905 C377.27084699931385 111.35402391186346, 370.8469720895274 105.53822069883523, 358.68156476529566 94.14084965019046 M381.87881242768754 109.69033185762684 C377.1756199928118 102.68585880485075, 372.07349949456386 96.96872902258335, 367.4155625138347 92.72895350577801 M383.07884608438155 108.91497413345944 C378.45605149924745 105.23421991888877, 374.37173137895667 101.09455406066377, 367.08779409061265 94.21939615635692 M383.41857823101725 100.44014300875868 C380.98515281622537 98.93072282146049, 378.02385678180735 96.02671287074067, 376.2498784222817 94.17495428314923 M382.77443877324384 100.98437682813537 C380.296155247522 97.87193840562232, 377.70099925936853 95.77633027451496, 375.96950411183667 93.82661479060098 M382.7344685911868 142.31816298776062 C382.7344685911868 142.31816298776062, 382.7344685911868 142.31816298776062, 382.7344685911868 142.31816298776062 M382.7344685911868 142.31816298776062 C382.7344685911868 142.31816298776062, 382.7344685911868 142.31816298776062, 382.7344685911868 142.31816298776062 M382.23235569675603 134.42135454647175 C379.15531496952127 136.10180577353765, 376.9788455910455 140.19419361667406, 373.7980328391152 141.76519061059452 M382.709855712216 133.74460081394693 C381.27688154152344 135.60726114953587, 379.1500342981775 137.3383827420944, 374.38157610155963 142.14201206599122 M381.69999829863343 124.83210839866764 C376.4826356913736 131.9622751640386, 370.60550410753916 136.55972210889604, 364.5712057818801 143.09352668598984 M382.3237374616522 125.34524647737956 C378.6369419711407 129.32158503139058, 373.34932815985263 134.0502084595304, 365.30188789061765 142.24959755521957 M381.5810575280074 115.75688813349507 C374.52959946290315 123.8173125367928, 369.4411044804968 130.72648298764403, 356.29800513664924 142.04239661768767 M382.5889671815295 116.96377329753986 C377.54209241230046 121.62663517499352, 372.1811122232195 127.42536875534033, 356.74809733702534 142.4430009720916 M382.4633134279136 109.04615112943092 C374.0274691634691 116.75880428174668, 366.8617920131866 125.63750919539588, 348.7505739158569 141.8071536190877 M382.61684014328904 108.73422901937255 C372.2579704515586 118.8618789366863, 360.33541387835703 130.55574908181785, 348.5203472421122 141.73538529258914 M383.3040535960082 99.92952385131892 C366.7767804458418 115.72254168020349, 352.40166174455214 130.31378262728163, 340.2990903421592 141.2607835300336 M382.30205239185284 99.52939806670574 C369.6948325253009 112.90086036598375, 357.0343926350973 126.1436154150313, 340.0662633383002 142.86848025304027 M380.0294041302013 94.67404426374898 C366.696464092076 109.08326705789283, 350.3186403211536 122.80979974452568, 332.9734982632125 143.02275656536912 M380.09661503489644 94.21162480061368 C360.8608163043688 112.88570726677857, 342.83616222063904 131.8217445025163, 331.78796354551116 142.8763984022731 M371.32525675340315 94.59323470631108 C352.64705445679795 112.69299181350897, 333.66831076234166 132.60127328109758, 322.2260071516731 141.49652731493805 M371.0570313675957 93.88563639467077 C361.11325792375436 104.10984440751149, 352.2516725715168 113.87057231117119, 323.26080797116697 142.36688510161582 M364.0850501877621 94.79932051935658 C349.8125534735473 107.0951682652833, 335.9074144767965 121.17766608008831, 314.29359210519715 143.30703474358413 M363.1483282468647 94.29451146071271 C347.48138761034414 109.59040257262558, 332.2532923930859 125.20471614696999, 314.4521489101894 142.20256852489655 M355.0301345309346 94.78286566772921 C339.2361048115852 110.14592568039491, 322.4045033092725 126.28844923318367, 306.3604938464409 143.33820219115108 M354.7206704676255 94.24306567256761 C340.8153879731215 108.86776686606969, 326.5500571195476 122.04633328864382, 306.34008084500044 141.98220965844334 M345.3291255055767 95.19341849127278 C330.4998805964146 109.72684990823484, 317.47052246309863 123.50518551194877, 296.7207187230606 142.77043737248277 M345.58496501229973 94.42224751656369 C336.06531408824105 104.8539381097365, 325.5736751935028 114.66639619163908, 297.3321904455219 142.72195230108446 M336.360404459345 94.27701170483098 C325.2626793589912 107.4420844779879, 313.6712132497701 119.34382566502882, 288.94053870771256 141.91813237742278 M337.03161105080954 94.09038829152898 C320.78265357989 111.08827718201553, 304.9594897300553 127.46103524342863, 289.8843065691757 141.73657306414788 M329.07461836489534 95.11366239824757 C315.1121120842399 108.10844463677188, 299.54569117060015 125.28843042315334, 280.42099139805305 141.46716367081498 M328.8492499405766 94.35445210879162 C315.37931258211074 107.91341584972831, 301.4264966222192 121.90641745186224, 280.91925026088376 142.52073137146178 M319.7571798198842 94.8548720363663 C302.34051419832923 114.42940648888005, 281.45707604919755 132.19044149317534, 271.3603800167382 142.51239209250303 M320.5435152265229 93.65128589217976 C310.1267576799453 103.98741751329514, 301.2226702722089 113.82472340018796, 272.0455847530678 142.4302194593543 M311.3907670469679 94.36112645903096 C301.10367800656786 105.4250718715743, 290.6009642783612 114.0489066248664, 262.91677341142434 142.99516285733074 M311.9557826410703 94.6288693780215 C292.92009811622614 112.6161911004611, 274.6767734935403 132.12883344546745, 263.5763654656498 142.56321237665355 M304.6178238938024 94.63939588108522 C287.76401619399235 109.52470853892652, 274.7315850771713 123.72002703825488, 264.3486806478197 134.76263096208984 M303.28192010414057 94.82756511514498 C291.9778036561197 106.18977017212649, 279.64751407015245 118.50916812982835, 262.9260645991037 134.86334339163568 M294.7030598330442 94.48063489237295 C285.06363803448846 104.7681757519482, 273.43527318265825 116.41818653120761, 263.75013401171515 125.03267818348958 M294.4910377231557 94.76136846487836 C284.91515821399963 103.69152473927642, 275.7425431667701 113.39735521390469, 263.20190413648584 126.22837098999425 M286.49594996234947 94.09728245773776 C280.74687287956743 101.26881343719673, 274.59316639327375 106.33866658334145, 263.02639244458027 117.61820964256019 M286.54423779303755 94.59915760104968 C279.2549460183921 102.4493201883679, 271.3430549480355 110.40347514803726, 262.63580927903155 116.97822543924391 M276.99323500437447 95.1607619170235 C271.60655186849476 99.12846028467256, 266.47328969883546 106.92686203410487, 263.1995872940714 110.22150805414543 M278.41336479620793 93.84594350998714 C274.30620317747616 97.36643028237592, 271.4256208118652 101.6038914054637, 263.74630419666266 109.19311303821281 M269.91420056878553 94.50673747017471 C267.00629550972155 96.60619618638148, 265.3487027672535 99.2931075380872, 263.15723440364326 100.31985282240497 M269.5534509119015 94.14005002262493 C268.34695171015863 95.49742732872286, 266.70928213900834 97.05305516422413, 263.42095227492365 100.82521739796798" stroke="#ffffff" stroke-width="0.5" fill="none" stroke-linecap="round" stroke-linejoin="round"></path><path d="M262.1957057848376 93.33499253056944 C286.4786931074959 93.51861311013997, 310.0476457774443 93.11060788448155, 384.0241611972255 94.70620390437543 M383.1174355514151 94.95255499221385 C382.1557652724487 107.20399046428503, 383.28474849588696 120.22784147895874, 383.36328414751114 142.31013714410363 M383.4186992183131 141.25101982615888 C352.3298298232061 142.01154578627646, 323.27376415429535 141.64365782441197, 263.15561753658477 142.8351611163467 M264.12427133394306 141.52261339761316 C263.8151550442678 131.45458811707795, 262.69986832446875 122.40034800805151, 262.11738822532715 92.86807740069926" stroke="#1d4ed8" stroke-width="1.25" fill="none" stroke-linecap="round" stroke-linejoin="round"></path></g><text x="323.05263157894734" y="118" text-anchor="middle" dominant-baseline="central" font-family="&quot;Courier New&quot;, ui-monospace, monospace" font-size="13" fill="#1d4ed8">CFO</text></g><g><g><path d="M12.945292979529995 259.99792455847734 C12.945292979529995 259.99792455847734, 12.945292979529995 259.99792455847734, 12.945292979529995 259.99792455847734 M12.945292979529995 259.99792455847734 C12.945292979529995 259.99792455847734, 12.945292979529995 259.99792455847734, 12.945292979529995 259.99792455847734 M21.112904421224332 260.3126107158827 C18.141649146930092 257.02591455457537, 15.58053913611245 253.65957140853433, 13.077485460392122 251.93588688063036 M21.384432310744263 260.35536573241825 C19.240161681894982 257.9782679186199, 17.084581158541695 255.45893479173574, 13.219959399602297 251.85540649505865 M30.662328949487964 259.40679866041415 C24.53331062402171 256.2315367155137, 20.498791094215164 250.43994426013953, 12.315174280158166 244.16762443313146 M29.455744262702027 259.55738281648036 C24.646584276687392 254.70012544673213, 20.010962241958783 250.13853624319555, 12.62709876676548 243.47451745474484 M37.862222092449066 259.63148666586153 C29.430272586828178 251.68192465824018, 20.679803584726685 242.44247049912576, 12.22524961089242 234.12863293201607 M38.72344639137327 260.1896200362908 C29.06418722987694 250.80104963916037, 19.104716438657032 241.06137736516763, 13.060921040973549 234.8242343781976 M47.23708319195315 259.7344049569535 C37.18031011524807 251.30984532890852, 27.45490620159206 242.2935244955443, 11.89930657004464 226.44682679467022 M47.1905908113043 259.5006986562478 C38.98489019296381 252.00518616294224, 32.02196688478576 245.6748680736515, 13.017256895503882 225.82698703773437 M55.5028790448752 260.94880548681493 C45.85050732875362 250.08770514181242, 37.23657064033573 241.857775239741, 13.870499454489845 216.61327047421887 M55.81364724905759 259.64078957478876 C43.84241343313511 248.41753621196563, 33.01667429564326 237.15581251064626, 12.756482306918997 217.4915400817926 M64.10526394809018 259.25325270857087 C52.10897855904132 247.18695630071966, 39.20438284437873 234.06502154720815, 15.78009718584919 212.54276804853325 M63.296741681195606 259.8749074403512 C48.82454127514035 245.85298436676527, 35.390939076797515 231.13497383750507, 15.740056626527547 211.74492903355605 M72.76957969847318 259.0216235753464 C54.46094243931225 243.42269655262695, 37.20320481994148 226.61687953796203, 25.099056185743883 211.79543609548455 M72.91665633428093 260.5579106513726 C57.993439299456334 246.2662980811075, 44.29654923427024 231.00830443353922, 24.227095455638246 211.37903316620833 M80.25085559289911 260.27310754026644 C67.37568775187346 246.6034460843099, 56.35462976155288 235.02104881099984, 32.192739001556546 211.54142231870537 M81.347829684876 259.9095013562905 C66.3034049110564 245.51245802289387, 51.899923731177125 230.04446902479256, 32.81408927132121 211.94029412869457 M89.88380842824304 260.322206556456 C75.45947194255129 245.68361891959853, 59.407154938334436 230.92105821344686, 42.01304993016218 212.35304117132074 M89.08735645954336 260.3892254535424 C74.76299978500965 244.9658371326963, 58.915176166649964 230.57495497589971, 41.00203905013894 211.44685156945235 M98.33284250137994 260.22873507704014 C85.20193166217477 246.05854482328664, 72.30411067263674 234.41280618161846, 49.99158076843578 211.79791960645562 M97.67998763484547 259.47147259156577 C83.89050472685437 245.5396039655257, 69.52287712841881 232.2767831240634, 49.564602018653936 212.30668888691906 M105.94204960918476 259.2478200551438 C96.60815037204414 251.0041379464626, 86.75432286900273 240.8228243098458, 57.18961081325236 210.88899707723505 M105.74313043734482 259.6204761687981 C93.08264213071915 246.5124416827462, 80.53357283089015 233.99402295092565, 57.7730916534287 212.09263322953228 M115.0852090485326 258.8799009438919 C101.15853865877565 245.90597748797484, 85.19719714905528 231.94256183198374, 66.2481068614869 210.93452553678398 M114.59184834360397 260.265313333677 C104.52314927509805 250.27912481405738, 94.30780681501639 239.0998177486443, 66.62147768102574 212.3173554957295 M123.7157876162984 259.72072969640965 C111.94186983507439 248.72314294858364, 102.79091494472397 239.14738136801716, 74.93772321001441 212.78806943822747 M123.06386108018538 260.57490498463983 C110.71964647711039 247.4529849854089, 99.67113205837568 236.37699430362795, 74.85138607800754 211.6083703339482 M130.91693960935717 260.71137076582187 C117.5308444834117 243.85617763477705, 100.19328851714303 229.769812903097, 84.10880165570991 211.29850573469048 M131.94454462365155 259.8330157701241 C115.22886261241304 243.18713817201655, 98.06743712331559 225.767390777783, 83.37709907093661 212.08303614262587 M132.98043901271842 253.71713329338817 C120.82970702522925 242.33138467869568, 110.74016119951722 230.01463348112696, 91.24137149544833 211.360023879298 M132.92086338869953 253.14218627670198 C124.09362592302809 244.51227304396681, 115.13583906258896 235.44954715192677, 92.51055513637542 211.32355507020003 M131.95566937274955 244.9765609817259 C122.48182545929123 232.98504301884944, 111.43610538289342 223.72620143289961, 100.79514952610477 212.7621258251751 M132.80536010138417 244.39772290230317 C123.80111279183558 235.25784416319505, 114.81959584461033 225.710562073529, 100.38634900088653 212.35197301510817 M133.82906104869866 234.98086934633315 C126.1578005454524 227.1731022502581, 117.43630732460971 219.0919268509181, 108.15954004455415 211.8396260254467 M132.59059305064105 235.69213510773838 C126.94210649918378 229.80267707193858, 120.37971532349128 224.05104815859045, 108.58673164103237 212.00517962578778 M132.90251833744068 227.75237284033494 C128.1802001662072 223.16168051190095, 124.48864267243074 218.6501106394319, 117.20363484767151 212.72265143323784 M133.5025632130327 226.91856254144506 C128.76348196591204 222.18575480434671, 123.55481175126445 218.50329027245365, 118.16661028337549 212.1099083006764 M133.1555394085469 219.24721483325692 C131.682065501654 216.5491793538606, 128.6764798306786 214.81997512781624, 126.3542956008547 212.05065246973282 M133.19668679818233 218.87285992575914 C130.82946095121918 216.48272163340565, 128.11206200859658 213.8313865001779, 125.88046318692797 211.6861998130018 M132.83407390373696 260.11329451731564 C132.83407390373696 260.11329451731564, 132.83407390373696 260.11329451731564, 132.83407390373696 260.11329451731564 M132.83407390373696 260.11329451731564 C132.83407390373696 260.11329451731564, 132.83407390373696 260.11329451731564, 132.83407390373696 260.11329451731564 M133.36459004449603 251.21264372034327 C130.93856067439916 253.2029773066828, 128.29365777794587 256.482438156017, 124.94725335905443 260.57599801442746 M133.16125673177595 251.87030541031018 C131.11667460443334 253.06137887438013, 129.08656370492136 255.2838555728423, 124.16531104231368 259.998426621623 M132.65478018033258 242.85540931468398 C128.33313860427796 248.90030353448927, 122.29107570886075 251.63612024460375, 116.27324440748717 259.94711278162123 M132.48643239769095 242.9395934196332 C128.64702322700467 246.76506000831884, 125.05961317841759 250.80714954604167, 116.2474872191372 259.82187394059423 M133.2961924861645 233.58354275253342 C122.39607177584973 243.51041061496554, 114.81141179930786 252.7226378827672, 106.47073733859222 259.34560602388495 M132.44007202419394 234.5927229712598 C127.90978531656047 240.25172184045576, 121.65886800596691 245.0863103394038, 107.270860272427 260.0797451630902 M132.07253368603938 226.66432053852736 C118.58915253404734 239.18344687434774, 105.17217463387372 252.48446179234364, 99.23592283561524 260.6319486924183 M132.8772359732067 226.44842439178288 C124.62648191655941 233.4822738142843, 116.71796491834814 242.28587557506881, 99.12895393728908 259.5362575904202 M132.39352057683226 218.13724462579088 C118.24430499861796 232.8395708579688, 103.93433431305758 246.63770453791392, 89.99570519543126 260.70345524034616 M132.45751897129173 217.40374357963998 C121.6029233555574 229.6773291056758, 109.17919108477832 241.27748158824681, 90.68526919028594 259.8470508710217 M130.57013033067184 213.01555659219514 C113.63689429678035 226.66076951857113, 99.00534667692948 242.55726235936928, 81.4566762149152 260.6527526207936 M130.4597448702653 212.59899730801473 C114.86713206259545 226.71958831432744, 100.05091217509289 242.35098573784074, 82.07596325798004 259.8576084033322 M121.79302761968707 212.10781051561128 C109.67249424749969 225.21095007084176, 97.18970562040735 236.53312239544388, 72.35511519094214 260.21778028688544 M122.03539377194379 212.56434610009083 C111.94411331263784 222.38340575364882, 102.53421691770008 231.7921588838161, 73.1348496169339 259.57825733578915 M114.16784599024525 212.38259159967194 C101.51048524515366 224.08135360483917, 90.18140139891058 235.64691587515452, 65.40698892038702 259.4317901917469 M113.51888340238204 212.30951285481345 C99.40226409421611 225.85446624570932, 84.7092386206298 239.86244952874387, 65.41839799371004 260.5591685668301 M105.72305223922139 213.1606517975021 C93.59639799758223 222.38961298135612, 83.17091488530237 234.29632549427075, 56.05795170012489 260.27334678850286 M104.31043348814255 212.24091847062 C88.9371409612864 227.29650271168052, 73.52225056456687 242.86237386706702, 57.03073436487093 260.26535674489253 M95.61680066349052 212.10805556222684 C83.97097542738862 224.1594628087286, 70.6095993990587 238.51947546425578, 47.63334532703075 261.1163270302784 M95.75792000578784 211.67982759594804 C82.1496522803534 225.55028177794858, 69.36080042070233 238.63355922048535, 48.24864095697913 259.651680268414 M87.2869330599276 211.68617984697113 C71.65149965055942 227.75501003787002, 56.19621150493129 245.2239982872579, 40.088199097979555 260.7799203701985 M87.18187518188037 211.63734862923513 C75.09478416922818 224.64608165018362, 63.2138845935856 236.45977350793066, 39.946556246597055 259.93784128583195 M79.60097872540767 211.20171410485992 C62.39752138143004 228.56100629040986, 44.847844237956004 246.66210326420614, 30.757229809846315 260.17862876138804 M79.1004874929827 211.58943371891866 C63.43072192971752 226.6701682543058, 48.432518057907856 242.1219529824387, 30.821574960287247 260.5833856955838 M70.00615445680567 210.85666028901824 C58.12153642027138 225.92616963800324, 44.69915518694517 236.7853466782142, 22.304841759506065 259.1722666569721 M70.45460166565725 212.25187876343614 C54.3523739066575 228.23127137745175, 38.074706621630035 244.1532299680212, 23.018448074612216 259.66270314610716 M62.47936455099669 210.99833285257108 C52.807263180738964 223.2293095012269, 42.00919561784242 232.3222050975707, 13.875126743833794 260.61596101007575 M61.83271867646661 212.35532341122516 C46.82999159191492 226.83716664369723, 31.322210985804226 242.43737087956868, 14.554582816134467 260.2400270358395 M53.87720080485566 211.36935874864346 C41.69672800343886 223.1937627625965, 29.780186972440276 234.26082030360482, 13.71293187156994 252.93908346195846 M53.895995751973224 212.62025106072315 C37.37575309618127 228.2136531527887, 21.45414511017343 244.92073896777606, 13.21611047328193 252.8733667013529 M44.28594251525758 212.7576774303604 C32.45082815879201 224.60532456889305, 20.389681596426637 237.49533236783068, 12.914869690097163 243.59424021523756 M44.60324636873959 212.53198886036762 C33.64114509521234 222.87905867151926, 22.892994885947193 234.33816278398263, 12.783896523124763 244.18849729057712 M37.77155647907747 211.44654085084684 C30.724390992815017 217.95239593627048, 23.0812623621359 224.95038678008436, 12.749880933917353 236.5367092854113 M37.235940253328216 211.91570770859607 C27.65810589828804 221.51651366788613, 18.793315456975762 230.4376559616154, 12.029103379852364 235.48339701432292 M28.729696993190355 212.8645134632278 C21.661596249409506 218.84058261360667, 15.718261426489763 225.1374368762237, 12.980807399905512 227.10286762560446 M28.023203382301638 212.511422253846 C23.532918253162038 216.64461850453858, 17.86530754474286 222.52140088959348, 12.70976327002723 227.13167427102763 M19.566347384180283 211.83275280862935 C17.866896597394287 214.300564184204, 16.025417207962864 216.0669600317653, 13.113049743480275 219.287752948719 M19.93190344805584 212.18951214559263 C17.467435848211135 214.48881657149946, 14.769854184975102 216.66485492266273, 12.803742886117885 219.13644120881233" stroke="#ffffff" stroke-width="0.5" fill="none" stroke-linecap="round" stroke-linejoin="round"></path><path d="M13.804800695573027 213.11332337409257 C37.38211712578409 211.24615081351996, 60.80738735238189 211.5021438459754, 132.2427412454235 211.7416052058339 M133.43377371767633 212.0700733229518 C133.86674667905444 226.0053206190467, 132.1720576436388 239.3704553052783, 133.76157184580438 260.0135161921382 M133.03545860687368 259.4013597682118 C99.58363274673098 259.32739438170194, 68.84221185484999 259.63687709921595, 12.684683031235869 259.11354815512897 M13.176221427713568 259.7634845301509 C12.879266374813255 246.3394508227706, 12.9922174150812 232.667130677402, 13.7003772828924 212.490769867599" stroke="#1d4ed8" stroke-width="1.25" fill="none" stroke-linecap="round" stroke-linejoin="round"></path></g><text x="72.94736842105263" y="236" text-anchor="middle" dominant-baseline="central" font-family="&quot;Courier New&quot;, ui-monospace, monospace" font-size="13" fill="#1d4ed8">Eng Lead</text></g><g><g><path d="M117.37645794522925 260.21856320838714 C117.37645794522925 260.21856320838714, 117.37645794522925 260.21856320838714, 117.37645794522925 260.21856320838714 M117.37645794522925 260.21856320838714 C117.37645794522925 260.21856320838714, 117.37645794522925 260.21856320838714, 117.37645794522925 260.21856320838714 M126.00465190378755 259.71192090514387 C123.272730254592 258.35515113423463, 122.48839901591766 256.56427847653106, 117.00169854630693 252.44233645463802 M125.53406176568745 260.57536467581326 C124.06734278587426 258.6376117148138, 122.4013952691065 256.3369734436324, 117.44979097031964 252.0717359726734 M134.98011222055743 260.9796558358081 C128.73682043820122 255.53038290565001, 123.9421991633669 250.33942047385617, 118.08880957101447 244.37332873882406 M134.221881362075 260.4178860308908 C130.42546877888105 256.0020810686263, 127.17652564774185 252.8456789764771, 116.8287151792736 242.75694501584076 M143.6586583056992 261.2605158426174 C135.03018349676503 252.18776047091893, 128.51047386254552 246.25681939043326, 117.97640373443228 233.94590970598944 M143.38518867935446 260.60818255565397 C137.02925523874208 254.98225110934072, 131.2438777803961 249.77162179752872, 117.9709930220337 234.36541151371637 M152.05591433651963 260.1891637064823 C140.5616395901878 250.01296771918663, 131.90194097296552 241.039622952329, 118.16897493337257 225.8649723778668 M151.54779886070855 259.7470308306002 C140.59544018942609 248.57876056262967, 128.99472977935585 238.06880667616855, 117.01641284019662 226.140172681697 M159.66683880911253 260.50716436880913 C142.68236594447313 243.76086902982317, 128.2723043968315 228.03081596511456, 116.43296603892907 216.89434732086227 M159.30529906434052 260.2221444787764 C143.34356891850965 243.99538989931972, 127.09007465308518 227.79691492911087, 116.9904446044655 218.14218433032943 M167.69849959457164 261.3877233960041 C152.84739264162263 244.90290318948314, 136.71664799829438 229.10048474759378, 119.9128564219417 213.22043285112832 M167.73784676095343 259.91479181072947 C151.96520943940138 243.9204009814537, 137.2773697475071 228.8270508759127, 120.31280572278965 212.37313408240678 M177.60757393899075 260.4981869794735 C162.56311648981477 244.75626715253898, 147.60343363370413 230.96148505231056, 127.64023482825044 211.68626790981742 M176.44141973375042 259.8685458245062 C166.3556378249604 249.12996940976038, 155.54701441158062 239.0699665184028, 128.2002839156184 212.21576424822214 M186.03784846346355 259.66254193562355 C173.58106473092244 249.32804101110844, 162.81306835509022 237.25837053153936, 137.38601800445664 212.56875068884347 M185.75906607843464 260.5580342056536 C171.13301126655628 246.55660602099363, 158.5369859037757 232.62994588543546, 137.41270584166247 212.01734045132997 M192.95771916408378 259.7239157058605 C180.90677471236518 247.40515731518474, 166.24970456916267 233.7602825445637, 145.14008632165402 212.9832742546127 M193.61215420320917 259.9576893272185 C177.65512119943838 243.59606711217782, 160.84950473252306 227.4116274722164, 145.82632272162496 212.3005372522772 M201.39769141194526 261.4070763565906 C191.62122893167975 248.04691443482935, 179.10727880682572 235.89806724481267, 154.79192952593638 212.88937229853127 M202.53162282877716 260.6104982497477 C191.93610831856353 249.89470150531758, 182.38906298862187 239.9286646215925, 154.40820608870905 212.1753338991106 M211.18787995314167 260.18093257922015 C193.71412949135419 243.95455370131745, 175.98851900048393 225.81958554347787, 163.46814673839745 211.15321913700555 M210.48923098834172 260.49675272128815 C192.47290767900813 241.26329677432688, 173.78240799818764 223.21111030351688, 162.2474977886179 211.6077643273771 M218.6955089087668 259.1210336901554 C202.57372079158787 241.5593795868969, 184.4220439044374 223.50511001690802, 172.069946455131 212.41012971144173 M219.12880802760603 260.1027991773867 C209.1028474646458 250.23767671387924, 197.83783244557802 239.56770593814713, 170.58665997955455 211.88866716012362 M227.36241177491442 261.3720696308025 C215.18926433174647 246.45393615269245, 200.75057071880846 233.88423417698434, 180.21064654723077 211.1270595882461 M228.19750360477315 260.48978874109025 C210.63422233822274 242.4274754693794, 192.6194162587701 225.57832406111893, 179.05272513222215 211.902435707897 M235.44253142267823 261.4103709675678 C223.4358518133319 247.582718678537, 213.17639602359887 235.98725193203973, 187.15317426079045 212.86510495882487 M236.5770376905462 260.76242722294563 C217.81544818920472 241.00349306470744, 197.86782938386716 222.83297187794975, 188.48854602982382 212.1957679687441 M237.0683522862865 252.03534107999204 C223.6061153539692 238.32933336367054, 209.19418307182912 223.53339436670962, 196.34756621690386 211.14200263958426 M238.0438827562629 252.66665730913428 C226.28679934424713 241.85465845223004, 215.3895657686982 230.52625108717993, 195.98404576806269 212.44641662821178 M236.98739023632544 245.0309460339738 C229.4436382818505 234.97913381204768, 221.1155249765404 227.0846186197976, 204.36846841166474 211.09463007193062 M237.29950364711868 245.05739843469541 C227.0119916654298 233.96131487173554, 216.81144107812727 223.95355785638205, 204.90746775514194 211.93193905934694 M236.9291298312618 237.0576518332925 C232.10510537926388 231.57839396694825, 228.41156496527907 225.6852508298418, 212.65263621616685 211.14150532227012 M237.0310448336898 236.59673403504905 C230.97349302073877 230.0648681266354, 224.2725855791403 223.17741351296738, 213.93662571176463 211.7984473226965 M238.17095144218936 227.7433515443544 C233.35483705850473 223.16643994026253, 231.0738425691998 219.86042997759182, 221.23643437650387 212.24528708200907 M238.17100753667935 228.05108867074208 C232.11563962757208 222.3408978872093, 226.9826193185678 217.91563468164819, 222.29015367113388 211.92935816630728 M237.1372277810721 218.78322437906655 C235.38976425658115 217.33051473306907, 233.53988894904847 215.57611623170018, 230.70343997442322 211.8552883776278 M237.8636620181164 219.29028074469434 C235.00749384991184 216.9885014570034, 232.76785195282014 214.38143932165525, 230.63614945701482 212.07472255671402 M237.26523886943625 259.89265586740584 C237.26523886943625 259.89265586740584, 237.26523886943625 259.89265586740584, 237.26523886943625 259.89265586740584 M237.26523886943625 259.89265586740584 C237.26523886943625 259.89265586740584, 237.26523886943625 259.89265586740584, 237.26523886943625 259.89265586740584 M237.38838404538498 251.42816271475004 C233.91630975757832 253.98543493521095, 230.5459170682998 258.1490250655906, 228.98803353214265 259.9310352387956 M237.2242174044849 251.2602398272087 C235.24729796989587 253.21972641975964, 234.0339234142178 255.21355822412548, 229.0006056362167 259.8390709977901 M237.94112171518074 242.8629400512356 C234.4337424691386 245.50402042666786, 230.62674826213865 248.77820690203941, 219.9068426862432 258.78492869778785 M236.98068698687868 242.51817018242212 C230.71309288512953 249.58687735547775, 224.23177404954797 255.136545552479, 220.32464620080577 259.37838014650407 M236.94288709747062 233.39442719210703 C229.56308451469943 240.21875774091944, 224.5734283685652 249.04287300112836, 210.9750291936842 261.0330452506176 M237.82273652000742 234.205902465515 C232.4868498221805 239.78322637824238, 226.54599539007432 244.85366979579163, 212.12518286097767 259.7007191746241 M238.41331359731421 226.26671976815913 C226.6706206571655 236.96701159047868, 213.79056710649164 247.9021114134304, 204.05283140852265 259.0409735862842 M237.46919145627336 226.14684958472853 C225.73832793531835 237.0380410141939, 213.8556254127066 248.53959949002223, 202.86912028561494 259.3213597087866 M238.21454721080528 218.32919522079817 C224.24703595752487 231.73718310328763, 210.00221328769368 244.74220951609982, 194.02387970185225 259.73035677119407 M236.94454520387964 217.2623189131095 C226.84622059194456 227.03438091292142, 217.05919594059003 238.19193082901594, 194.43583469542062 260.0098513095385 M235.44241618429137 210.94129874117652 C217.30888415463366 228.62250179978466, 199.62361268585428 246.6889547947481, 186.67141381976685 260.26697849675327 M233.95443435878317 211.77059963595102 C223.20500747397102 223.50689952903224, 210.3972217826956 234.6336571403211, 186.6955226235979 260.0230482249266 M226.59235813912002 211.6066161454467 C209.0128414672134 226.69899071946764, 193.40935568334797 243.85170612522026, 176.81578288336016 260.92326307936816 M226.14531582944093 212.0272856260462 C215.90652835467034 221.2103972669422, 205.9483209170324 231.467175623617, 177.34045091584986 259.9738593904978 M218.58220144587736 211.95009250052254 C198.1541240991512 230.03762133568804, 179.78444317927887 248.70290028565077, 168.4519453887259 259.94077546044497 M217.02099821104835 212.30874406944943 C204.45470023123704 224.10275973932835, 191.49674450132267 237.704412731053, 169.51620673037968 259.699998429299 M208.34752960065723 211.1226677478103 C192.44079895921197 228.63418232698967, 176.4047820128279 243.5217360241672, 160.08696920695792 259.19272120639 M209.43175616180866 212.22300108920766 C191.62125325597967 228.90946837782664, 175.0568033161145 245.66264426602555, 160.8529475378905 259.33273365187705 M200.2360354745533 211.0069224537162 C189.1428302581324 223.20710518313686, 177.84943633478846 233.34879489047736, 152.87753158414986 259.04644650860934 M200.26243465242493 212.1216374958677 C183.76555012561462 228.46165492007523, 166.27948530105078 246.01575172324624, 152.29665112158534 259.7656380562788 M192.54502131365928 211.0795778096465 C181.9885318194137 222.604713540771, 169.8860738615156 233.62429662836882, 143.1674191413955 259.2259381835094 M191.66369896610024 212.36853878747652 C174.12182218757832 229.80476816302397, 156.56653466199083 247.87604604124206, 144.34036557716738 260.1233393280512 M184.45889873906899 211.67399563200752 C164.24528998514845 230.99779776458308, 147.11235661184017 250.02000592579412, 135.4250278747886 260.8743236724963 M183.68328469853776 212.00864514958093 C167.2444905838526 227.64195013279783, 151.2008988001248 244.5525179869297, 135.05545931283976 259.430269840241 M174.58668874687618 211.24267836220545 C158.61746607122552 228.7930151784195, 143.03948952956776 242.3669864786832, 127.58086315542296 260.2163710419765 M174.69724775794063 211.63670145522786 C162.2954023572765 224.61190318462735, 149.46080741909495 238.2018622547364, 127.12287104930564 260.0794166533953 M165.49952170817454 212.01976906664652 C156.44240800805903 223.24857660479407, 145.34898661047262 232.81053304418958, 119.16503972939223 260.22098898335605 M166.04121436501194 212.0660072649641 C155.302244374132 224.01157235408937, 142.5300077845964 235.69933848082584, 118.66435981976807 259.9010715155608 M157.46813736905787 212.48355143673697 C150.21898267959514 221.1860494058112, 142.07513538716987 228.86804233574864, 118.1158495296557 252.3926590011758 M157.64163105295484 212.39716682683655 C145.51837371096417 223.61265883219875, 133.2188023902183 236.29407743916894, 117.34482278179568 253.36051305041883 M150.60038485061995 210.61894978888313 C140.91870374152253 219.67726458124292, 132.77399852221112 227.05804634626966, 117.11827180281472 243.43292528633435 M149.04701466747247 212.28683907639214 C136.9121852308102 223.99191147940638, 124.80334306595782 235.78944602325657, 117.40455534409922 244.6257466305088 M140.97872264895446 210.78002906449117 C135.09972242746252 218.95354132826225, 126.14789316713073 225.29894835501247, 117.51203585758995 236.73233196761106 M141.0592023667679 211.21648763667773 C135.32519217137232 217.52151242404085, 130.55461175981762 222.3625326511168, 116.46106391500872 235.2656916287506 M132.3977186351552 212.55249482996743 C126.25289095745791 217.93228301591222, 119.77935734741864 224.84771592557306, 117.80069394007516 227.6613502364122 M133.1646016215443 211.96113081824018 C129.1723488568523 214.62569010389672, 126.39910530854912 217.66039824799452, 116.71188877772731 227.54735854319117 M124.71485196745226 212.31279401171935 C122.14695601506247 213.7496259814692, 121.505766950053 215.496960619141, 116.91599686954362 218.36377723386505 M124.0467970472967 211.63374318292347 C121.87263007858353 213.9099414655885, 120.3113131713183 215.7193292327628, 117.20436329784063 218.69963755898172" stroke="#ffffff" stroke-width="0.5" fill="none" stroke-linecap="round" stroke-linejoin="round"></path><path d="M117.3296850799926 212.49165421761572 C140.20133061775644 213.37368851689993, 165.88291840100368 211.89367980746925, 237.1771107673057 213.1770065072924 M238.06590135762175 211.18759165368974 C237.49351755934435 226.80665077380834, 237.7751562650748 240.51306913159786, 236.0756490177818 259.71689524017273 M236.96800746911842 259.5516997102648 C203.55322514394004 258.64324297712744, 168.7264490290888 259.63009637402, 116.52953799957116 259.7919351939112 M116.54396099516828 260.0043556626886 C116.25916717904289 243.22431352846326, 117.60035597937782 227.33391334675252, 117.19915581414182 211.71346233449876" stroke="#1d4ed8" stroke-width="1.25" fill="none" stroke-linecap="round" stroke-linejoin="round"></path></g><text x="177.1578947368421" y="236" text-anchor="middle" dominant-baseline="central" font-family="&quot;Courier New&quot;, ui-monospace, monospace" font-size="13" fill="#1d4ed8">Data Lead</text></g><g><g><path d="M263.15582482849624 260.1031932495489 C263.15582482849624 260.1031932495489, 263.15582482849624 260.1031932495489, 263.15582482849624 260.1031932495489 M263.15582482849624 260.1031932495489 C263.15582482849624 260.1031932495489, 263.15582482849624 260.1031932495489, 263.15582482849624 260.1031932495489 M272.24460130391844 260.215222485657 C269.4949570049739 257.6920521808947, 265.91034826359515 254.3395937366808, 263.71411354978943 251.17277741989776 M271.75189313819834 260.4593550104603 C268.50494018197725 256.54389062741194, 264.9115693969473 253.48489093708565, 263.0278244586047 251.95205684154016 M280.6460974091947 259.81650440245414 C274.36999087114117 254.41176178584573, 268.81526785127903 249.82142937763217, 262.8106467794385 244.2430244357687 M280.33622037901574 259.7423806365534 C274.158442648947 253.57391553207702, 267.7020658717018 248.42858800161983, 263.5785335093495 242.90336396818873 M288.40329643651705 260.1535364106252 C282.1004843760586 254.75758767484973, 277.8115341097211 249.73515967299278, 262.6757597755399 235.82717787121487 M288.1951328849034 260.69073646626913 C282.4513563406318 253.73627514622996, 275.7489033906166 246.76351997205555, 263.0292669206616 234.77058004048718 M298.22294739865384 260.30791384726314 C285.2911709826953 248.54299890310216, 275.29717766190674 239.61263020275118, 263.38684521426825 227.34710935231533 M297.25320882768057 259.65735439620465 C288.97949980046155 251.76746885534536, 281.9292273878899 245.0661042711047, 263.5637707024571 226.11734971691158 M305.17900049091764 259.7295146420553 C291.9513546049807 245.78695243630608, 277.83044957235387 231.04205758319893, 262.743634540936 216.8394155587576 M305.3451527971912 260.467490774016 C292.8818544486722 246.72616310514604, 279.6858864295537 234.07621824028627, 262.5726088195797 217.25681997011822 M315.0399371586209 260.78618547468926 C304.3198612125294 249.730293347015, 294.57961986467257 240.86404344088484, 265.393817575602 211.1620890449754 M313.527153758279 259.6186675723597 C296.45407952123014 242.6210093340149, 280.5120023357844 225.95231965219313, 266.2337567366195 211.4653305225096 M321.3937700970761 259.2387417748525 C312.0134924578851 247.92302949032373, 299.3518643650345 237.1392823045319, 273.92961538832475 211.24109111540233 M322.51438505078767 260.0431723888918 C305.4801856972745 243.24097990552826, 289.1431767115639 226.36231554624436, 274.7216742931663 211.51648672148798 M330.7730432515957 261.11596772223254 C311.517991403402 241.86917545164258, 293.7864044179211 222.09557954167747, 283.9274989249244 210.86007045023356 M331.51850438956103 259.67055844626867 C318.5108195396238 247.03394575696595, 306.52224999394195 234.64861448395104, 283.3595243295714 211.75837816521738 M339.77983181749227 261.189616246517 C327.7022793997468 248.79068710202296, 314.4404561175586 236.2634982669325, 292.01532463071356 210.8774987291566 M339.48515386444274 260.39014459214656 C321.6646448780555 241.89028848291136, 303.90123556258453 225.112291359785, 291.9988083106787 211.618214326354 M348.21074224007833 259.8494090273931 C336.9887281187524 249.4684757842447, 327.25864885858243 239.21652004587952, 300.94048020100473 211.24481638185893 M347.5314599402766 260.21351529918155 C331.71326160370336 244.2971382122244, 316.1701463181185 228.01123306209948, 299.40001207633196 211.70797030255412 M355.38191221466633 260.7780364945486 C341.5541630989898 245.95481341818206, 325.5734218444277 229.48284296325676, 308.69488458111033 211.08143258802806 M356.58353345690637 259.83702066503014 C341.6280273690019 245.52559513467594, 326.412749531327 230.3562931490136, 308.0701058413748 211.98688681647394 M366.0540106865688 259.0261578276708 C352.32295741272554 249.12422495458733, 341.5975973722821 236.59575369473774, 316.83998796634285 211.1497252773515 M365.01396962917585 259.6042764123484 C354.06154722514066 250.09101965833236, 344.1468596470866 238.73038517228125, 317.1000441956511 212.32397021576978 M372.35723785109815 260.28740095644736 C357.154061092607 243.8487207480532, 342.2276287570813 228.28507837720346, 324.4317718020148 211.5300411295167 M373.4793480469286 260.0686638887926 C360.31365234103987 246.4518099153596, 347.34920682500626 233.44615000475667, 325.80226610400445 211.8604924730978 M381.316325153567 259.37336256056574 C363.47240883668286 241.3565988894119, 345.8744009993484 222.63537790396038, 333.9457487834388 211.69569557421127 M381.3577326750086 260.15583006701917 C371.3668879077012 249.06969191940817, 359.44972801026057 237.36504916426338, 333.74819490627885 211.97249118611435 M382.50446747742234 252.41754025784786 C373.73002278992317 244.59371210166128, 365.59814271311905 233.12102396707218, 342.8019628559271 212.98797279112253 M383.31510404139397 253.05511973281855 C370.02503321091626 240.0610352517452, 357.1883529202575 226.4669464136851, 342.00573831731776 212.03326957747552 M383.36731301746903 244.74932247747378 C377.7536530219774 238.881086819212, 369.74314648775504 232.3508980206616, 351.6899892147925 211.49112570993816 M383.14184911042094 244.1810653583397 C372.9272016338777 233.68490614881406, 361.50761740649796 223.2166742077731, 350.7767884269651 212.37589649483775 M383.77740053139274 236.3984257115039 C376.99228601857465 228.32395113613228, 368.71837229937915 222.2105141491908, 358.4939343053473 212.50737601034558 M382.8196985343063 235.96532435361175 C376.23768163317186 228.9064503992739, 369.3982579256674 222.08317008528599, 359.43472170006464 212.4557064108572 M382.3875864645058 227.3983216396259 C376.8410765072426 222.04925044656198, 372.85937518518836 216.83753055646878, 366.617435822904 211.43191412203225 M382.9876537778938 227.64760619129106 C378.0906696828932 222.16003236132389, 373.03329927953223 216.9919704820947, 367.76189897646 212.6127994231901 M383.6671180711651 219.1832253161282 C381.64566492907613 217.77584150352953, 379.75149998498614 215.9962487268361, 376.4007862655596 212.52391567677478 M383.27883915561824 219.37169295488155 C381.16766979166925 216.59221379735013, 378.8057849401085 214.62942465988158, 376.1400376446695 212.12723669167826 M383.0446057527033 260.00802582624414 C383.0446057527033 260.00802582624414, 383.0446057527033 260.00802582624414, 383.0446057527033 260.00802582624414 M383.0446057527033 260.00802582624414 C383.0446057527033 260.00802582624414, 383.0446057527033 260.00802582624414, 383.0446057527033 260.00802582624414 M382.7603799638418 251.9796903179049 C379.9800463837695 253.40684489763942, 377.5812201765134 256.7575080342168, 374.3770156227987 259.62208107191185 M383.35537999476173 251.70618285285528 C381.4868526035226 252.99408257388725, 379.65021439167845 254.75926948415668, 374.4641021476876 260.01572398270525 M382.1756651675967 243.20647939653523 C378.5698944030643 248.23785847728996, 371.2038563347862 253.04452726761397, 364.8886428825672 260.35875322270255 M382.82314349363423 243.6327555539591 C377.60293571171036 248.15059076168933, 371.6218206388298 254.2137250682736, 365.75000710004224 260.470894961162 M381.9377836263446 233.54132024042872 C372.98713034657385 244.63209424837555, 365.50130920630414 253.35926632553486, 356.82752296634396 260.65649308609824 M383.35360293338874 234.15509056851832 C377.2121162453683 239.52855147298797, 371.5813246917495 244.83484980913846, 357.12770736709615 259.657701794906 M383.70229542615687 226.20512760653895 C373.70029069785147 234.9236675129723, 363.7571614966773 245.89285224087982, 350.2179418989978 260.1860070888982 M383.40934885690785 226.18128338642222 C374.986600971036 233.9786743210753, 365.91793802341454 242.58996441255664, 349.1574885515086 259.44247043590104 M382.98377576234617 216.4571544245535 C369.1979688339996 231.1744507103363, 357.4182941798976 243.38636985601548, 341.8002561258411 259.09326691078996 M382.7797733540354 217.45690285532712 C374.4340729929179 226.13108808189685, 364.88375596098786 235.64603543151486, 340.7346021181231 260.5086603568033 M379.2629039554787 211.60304949890605 C362.3290759300548 230.92024268974632, 341.590080612347 248.75665583887502, 333.23435334218635 260.21721298146105 M379.99732576486883 212.47821057263542 C362.0744325787774 229.2776712300015, 344.058428859592 247.91644125320292, 332.6632839067836 260.52449665526905 M372.73989057612084 211.4414303840302 C352.1013906044949 230.92303997684152, 333.37720766385644 249.10629846374468, 322.62465249334605 259.56475448059894 M371.6034398045059 211.82623376074957 C361.2171453142707 221.5733973889836, 351.9106268339326 231.47820097216598, 324.09425413233373 259.5054700539545 M364.3447588190773 211.85360201012125 C345.5318174414744 229.34404510452725, 329.7381916721098 245.49238851000027, 315.24510377463264 260.7857693378911 M363.0713149372825 211.4439838928335 C352.0553382858258 223.88706184169547, 340.83245229958345 234.68238454211024, 314.96221738461713 260.3768369005159 M354.72020887966085 211.82069230686653 C342.48085371592583 223.19810805723424, 330.45095515957456 236.24985071453764, 307.8641886313588 260.8481042330251 M354.7012807530426 211.34109231654335 C336.6227678148614 231.08924230610012, 317.7087583318506 249.02972292711135, 307.22336262847784 259.9361191676096 M346.2034722031839 212.64179795395364 C326.2770344356862 231.976608737051, 307.4349703931913 249.91662772034184, 297.0699197588368 259.71257459568835 M346.11515121662984 211.69945600453545 C335.37710176596 223.06158479343364, 325.2104762006205 233.0698487331018, 297.6928632037594 260.21560445289174 M336.7513114849587 210.80898438107005 C324.0571136816987 227.63787752993647, 308.0908336873935 241.82470767988124, 289.99484110237927 260.40796460556845 M337.4937246678879 212.23573755446603 C324.11371434763333 225.9136107138547, 310.500691096238 239.42582238840674, 290.0823768253055 259.44484597901857 M328.26502067029816 212.4822857679032 C319.4579127305717 221.5231459699881, 307.5583753515663 234.24981309447693, 281.44102785729876 259.5060271923528 M329.6142838216607 211.5638651889913 C310.9756615021763 230.149740620038, 293.8866818065303 247.3190916001688, 280.6375455829602 259.81316259364644 M320.5154249545144 211.96470504414071 C302.6307979863681 231.99586932758376, 282.4972261363788 250.68463488790024, 271.80508646890763 259.19648403572893 M320.2880957677918 211.3575327557676 C310.38663272546324 221.32854360055097, 300.99511013412763 231.3865031501996, 272.5754959415668 259.6321387694315 M312.2678807829202 210.97721388946994 C301.425754752947 223.37305266372996, 290.03697952067074 233.40406994617715, 263.4031546325185 260.16202556538434 M312.79791197112513 212.11269972745106 C294.07524719640054 230.16943855074584, 275.621902399303 248.76141879248442, 264.1223387409695 259.89812460403 M304.807275850828 211.53375273357855 C289.48700061155535 225.31678331953785, 276.9134083959394 237.8161503001684, 263.8669691053093 252.18224314914116 M303.93546827150436 212.51009120169806 C287.8098990536686 228.75011178212074, 270.9299257364208 244.40830184283777, 262.8217370078773 252.9836680082328 M295.86302910355016 211.21623075615392 C286.6293988549047 221.5905955892571, 275.89575259173097 229.96753370728922, 262.6698758331001 243.60761896617916 M294.8389848837732 212.37769790116477 C288.19293884817813 218.77926133183936, 282.4287871146548 225.6098439201601, 263.37341608264154 244.19900457918848 M287.9340907363993 212.8495258868836 C278.5386556063674 220.29069532900206, 273.07812571638306 225.98351853868863, 263.6223926988304 234.86396325855893 M287.43066639777544 212.05327617350744 C280.8475540766455 218.67084590101217, 274.1628575827799 225.4400701735033, 262.2412263677329 235.3839948519264 M277.4139421946879 212.5764848054551 C272.2670580591675 217.28532155087254, 265.26332566200864 224.81933310757722, 263.9687823978126 228.55584145596802 M278.4542017783548 211.74684799138237 C274.17404106479626 216.05404014922374, 269.98389483938826 220.55794388958526, 263.2622162029952 227.09905142410278 M270.01155846829204 211.92884382355737 C267.59494491342235 214.94890994985548, 265.53983261046176 216.8913969400109, 263.2671459131748 218.9758101277591 M270.1098925641054 212.01398282900232 C268.22602622652374 213.6331338429286, 266.6009740752294 215.0758710261139, 262.9531856271312 219.19884251789912" stroke="#ffffff" stroke-width="0.5" fill="none" stroke-linecap="round" stroke-linejoin="round"></path><path d="M262.53877999072796 211.86998506113886 C287.10475463604456 212.52522622027993, 310.2426599759412 211.7092157689631, 383.79569081550363 212.21240780875087 M381.9822395238829 212.70510998442768 C382.57409896595004 227.60798092857002, 382.4320654128266 244.05568295791747, 382.473936716075 259.4202742882073 M382.5847668576789 259.70203965231775 C346.80702806746484 260.9350915725529, 310.29489672964337 260.1993156488239, 262.0586034942222 260.47032223269343 M263.9959110889387 260.24522679522636 C263.4928785095883 249.70917623415588, 263.6623050699902 238.80069601610302, 262.382144871707 210.93615480139852" stroke="#1d4ed8" stroke-width="1.25" fill="none" stroke-linecap="round" stroke-linejoin="round"></path></g><text x="323.05263157894734" y="236" text-anchor="middle" dominant-baseline="central" font-family="&quot;Courier New&quot;, ui-monospace, monospace" font-size="13" fill="#1d4ed8">Finance</text></g></g></svg>