<svg xmlns="http://www.w3.org/2000/svg" viewBox="0 0 320 320" width="320" height="320" role="img"><g transform="translate(168, 156)"><g><g><path d="M1.3154283101808346 -126.05776297689768 C1.3154283101808346 -126.05776297689768, 1.3154283101808346 -126.05776297689768, 1.3154283101808346 -126.05776297689768 M1.3154283101808346 -126.05776297689768 C1.3154283101808346 -126.05776297689768, 1.3154283101808346 -126.05776297689768, 1.3154283101808346 -126.05776297689768 M0.7087498700896402 -120.8126063313714 C3.82898641557388 -120.72692596069227, 4.339096155017905 -124.77576509162313, 6.971596606103059 -124.53859607587574 M1.5443660790005833 -120.14258599128637 C2.899018727202093 -120.97412720637216, 4.626429938015786 -123.79736618206483, 5.682948727336997 -125.980351992352 M-0.062151034525809834 -111.81013271783128 C6.1733581323950935 -119.00383076662831, 8.559329212568748 -119.8193746554305, 10.181819560587234 -125.00700573120855 M0.4545663789145369 -114.94386853885486 C4.506264460558535 -116.77534430505331, 6.828323216110068 -121.58610037423502, 10.77609211786074 -126.07639358174646 M3.1431262042930204 -108.29239940687373 C3.9297824985092915 -112.41019319607028, 5.495181062347431 -118.42186890867798, 14.561578090282449 -127.14366437403729 M1.3439296316912248 -106.11015546812966 C5.069053684040808 -111.03468890040321, 7.606216429171217 -115.40724762991006, 15.970431625636587 -123.57465929446985 M1.8332008858162894 -101.31730930993334 C5.795047369109284 -108.08517591414758, 10.711464926729802 -110.86379804956087, 19.997725032356456 -121.3751710993985 M2.412811333401872 -100.54139390626922 C6.6877098131267045 -110.15087690443434, 14.648705485463397 -116.91570000695116, 21.04779250928469 -124.76799229661023 M2.261041070269239 -95.46362729404764 C9.64681361250005 -102.82281787987748, 12.747420517590873 -109.54393442048425, 23.205524196110158 -121.78228512456438 M1.4211354789601685 -94.54642537419396 C10.265127847717512 -105.69757911576596, 16.601786593802373 -115.50154531313741, 23.873433727405455 -124.32129996916076 M4.236123755392396 -86.4472934081894 C9.813928556521413 -101.81293561935163, 23.960596733184644 -110.23652163119962, 29.31026855029354 -123.74811191828495 M-0.3572166370183596 -89.98137546775159 C9.0295471135314 -97.50785266100034, 18.93648246038221 -108.48489063826375, 29.80424004562387 -122.45006082774646 M2.2966238519547275 -82.46699396066306 C9.96927068451763 -91.66175944452023, 19.47940648837188 -98.31502697307005, 34.0341260636566 -120.10263194931021 M0.7600216931102566 -82.98980354212162 C11.862941977709788 -95.49384036470497, 24.52178796197705 -108.96014138164247, 33.22365872956494 -118.97131588799229 M3.54576835769674 -79.43241900044143 C8.761447793499304 -86.14864350979872, 23.817761955009075 -103.60931719199161, 41.45219873393986 -120.57741026661294 M-0.9501432360384783 -77.58096019315182 C12.098027905943644 -91.3132498380868, 23.704507748295658 -104.89319888398892, 39.24775857384417 -121.50837824574607 M-2.0163407296410414 -71.00013357649723 C11.351108358632127 -85.09603238235988, 26.698983206335832 -96.71349994930402, 42.61222744292181 -118.73204859827479 M1.6658573701509625 -71.61565851668993 C12.087941652293706 -83.61157127950261, 25.113504197771068 -94.97631747013497, 41.494934757115054 -118.76728517596445 M2.43909650071035 -61.80944899713498 C14.694590178494353 -80.91180522988442, 33.35807098741111 -102.46831334373061, 44.93912321733342 -117.44657157349137 M1.3199777193225437 -63.59214536791545 C12.204532452577142 -80.46469589273698, 23.369048902010874 -93.07061987932552, 45.84044010298358 -117.179184354718 M-1.5940679535085684 -58.7106803113274 C12.635704060266187 -75.69281507004548, 30.198675283211426 -91.86835202731031, 50.198613054915256 -114.29316924123538 M1.2689116060917849 -58.224358842676104 C11.5558876032167 -69.75811765129225, 19.81336595285321 -81.35526385155796, 50.73003090606529 -116.62207637785447 M1.5748929054427059 -52.00101756804729 C19.79326067435901 -74.35571921245071, 35.53907911628227 -95.20883907819102, 51.08512186643624 -112.32677790981128 M0.795915325074187 -50.8277995368197 C17.066242849770532 -71.66304127290132, 34.70145230680374 -91.4287266231773, 54.117848874004125 -113.1613956005533 M0.16540398833316272 -44.66039707559908 C21.634778200043016 -70.29890830052562, 40.55021415478106 -91.63224902883874, 55.45812664963693 -114.5133376281919 M1.4926305839137406 -45.30540180552566 C14.782821874958527 -60.2201625806098, 27.739768914106648 -75.09345858047483, 57.65277530141563 -112.62826761866232 M-1.638057707096693 -40.37975888295556 C18.511772625638184 -59.047270353127544, 36.5855303254174 -84.68629384766722, 62.417920373267314 -107.41095386512721 M1.8454386772259506 -38.925791244641786 C14.08755850641439 -55.413961768581096, 28.784709864772527 -73.11295607329996, 62.7041949539248 -109.45067094780649 M-1.2101992120968612 -33.642208458866726 C18.069591387694388 -52.58438619170818, 39.49844632258083 -72.23102263513526, 64.06167100607738 -109.42460708936721 M-0.3387756293641836 -33.15444636979307 C26.79053291537174 -63.865747711931355, 50.16672025734326 -92.3043331197752, 64.8680550971566 -109.25814660361081 M-1.4727935289268368 -26.732435852305365 C15.68716656148385 -48.59973927077588, 36.29429008579607 -70.7482092879957, 68.32736248782662 -105.55144318943911 M0.029493958758843752 -28.213117776827286 C22.9877577378925 -54.77966570074927, 47.09528936132279 -83.5876295914114, 67.96080646774557 -106.77708852147751 M-2.818915746817632 -19.817877371575907 C22.835259667607165 -45.50730992142126, 44.531721655734586 -72.1404279026288, 70.71803084524605 -104.29961179453848 M1.7481391492390206 -21.11098982092388 C26.999733940864797 -51.53089843103714, 51.96264737094287 -84.5168999932239, 70.89363938929769 -104.29958187747715 M1.923411131971263 -11.776973065651141 C28.047323427429134 -42.99757900453196, 55.03260769163351 -75.91973033429798, 73.20935098910466 -99.90529921296977 M-1.6902087633081448 -16.022938097930634 C23.793879957446627 -37.98501632014692, 45.21261546490051 -64.12865006732363, 74.53007056945698 -101.05043602678917 M-2.176960894819649 -10.235037983503835 C21.481456710327397 -33.8104465608582, 42.30807685500568 -54.32496709720746, 77.7981089461335 -100.2704050739285 M0.18364401573285322 -10.275400703695315 C15.606724464084909 -30.438046792217577, 31.414312747675492 -47.91069192820127, 77.58441533182942 -98.67486114548412 M-1.8224819164213808 -0.00013343343844418598 C31.588790974020323 -37.25843756617817, 63.577220517736855 -73.40257251186036, 79.15372962710147 -94.82486568571915 M1.097276694005999 -1.1322494933973792 C21.187150546176785 -24.497397512280905, 40.07549681688766 -49.59923591722414, 82.823315384059 -96.25079158874144 M6.141863267840127 -3.5742915259871455 C27.535532233731132 -31.088380364273107, 51.14923709651636 -55.88771588073839, 83.11069002974915 -94.50962109731451 M4.415421269060353 -3.056014624444005 C23.958546044794293 -20.301005312223, 41.832161992117314 -41.62077293170141, 85.90815202076125 -95.02185295240893 M9.107374568733857 -4.759323569454393 C41.87789586259257 -33.4127203819925, 68.00300584099512 -65.78137635867074, 89.14428312282652 -89.85777677746452 M13.468781948539899 -3.2636929520146465 C27.74428703924386 -21.952577444434187, 42.97057971209512 -39.72295412605921, 87.42081000756116 -90.02852375211157 M20.250108839047783 -5.3944967116991 C46.34574792521401 -35.664606473711835, 74.698529457121 -70.78111257324584, 91.47061784609308 -85.69460361469649 M19.45250738210761 -7.214424670843215 C44.87950034542864 -39.834666041060494, 72.87511171990626 -68.91503728393467, 89.91367758109321 -88.75813542325162 M24.655115989550886 -11.875372261025724 C53.266564449665125 -40.845367317834196, 81.58969860616465 -67.92262831675428, 92.3708552262798 -84.45637623820589 M26.70042677740747 -9.078331636109171 C44.58430759895565 -28.52757744532632, 59.82748470816021 -46.62765739166926, 92.7838825649634 -86.41371064189957 M35.47249801798368 -9.808515266407035 C47.92307151162423 -27.870740591226312, 58.88533986995759 -44.50845423658692, 92.29879517415573 -83.6074059562972 M35.99110892905498 -12.741226943660282 C50.17949391156265 -27.74512056679889, 65.85401597598513 -47.329086036574004, 94.33087916681578 -82.4809962632349 M41.84923192208667 -15.6473657768158 C58.132362225118825 -36.18532481759636, 75.49383424881054 -51.35970761846747, 99.42934871645186 -81.177717398166 M42.82968513166567 -16.190486189344316 C63.55283805320642 -40.08195927295297, 84.03243244811986 -62.23878344600575, 98.85492021025631 -78.21613996332817 M49.66099261262884 -16.328110100556486 C69.95945982728618 -37.91974175225946, 86.94295853692476 -55.81872041598301, 99.91006576393714 -72.42537187211668 M50.12967209288349 -19.90091872834074 C68.8969831500178 -41.10992352489112, 89.12655950388364 -60.7258436331062, 102.05858490292898 -76.45801359735883 M61.6045661163412 -22.052647866824636 C71.39241277693749 -35.02836997281941, 80.46534104396117 -46.89072212646617, 105.15354831435214 -73.81943442712206 M60.25538513631448 -21.967734736720093 C70.51000401755167 -34.4202232652977, 79.10298093476224 -46.35374670829657, 103.88919203944931 -71.96118026117462 M69.84937734399274 -27.750915383924696 C75.7827102775964 -35.56365246019815, 86.85409321161043 -45.39727247707695, 105.51321433644681 -71.52113553193215 M68.42346596960262 -25.91886856966183 C78.72868429004758 -39.873986349373965, 91.20069747568324 -52.82763830353406, 106.16456388544229 -70.2270559704006 M74.52990329332397 -27.463852700829445 C86.08042109351089 -41.05138544964036, 94.59766995301709 -48.92366723890227, 107.23935679897117 -66.4385806552969 M73.94529588736341 -26.24794582301372 C87.31952423904929 -41.48581031159807, 99.82041802989396 -53.95517563552667, 108.67908520653296 -66.90861924066172 M86.07749596207539 -30.77927486651165 C96.32163557329666 -43.8046059548459, 100.96374893714436 -55.29403235236175, 107.97914367067521 -64.12675026596635 M83.30881868421237 -29.60015459262354 C88.52223423449053 -39.2693694656715, 95.58937752006673 -46.6502228959943, 109.45370326834625 -63.260411087582995 M92.35220526101601 -31.267743189275784 C99.28391411233625 -43.264878169231906, 102.46870033364547 -49.71065568640367, 113.22055889131845 -60.73279025246771 M89.26036356779349 -32.758116733670754 C95.33040725461373 -40.248964143989525, 101.6121012420318 -45.810731907586884, 112.3298688075167 -56.83382544656666 M99.53519221687681 -36.86553229831736 C105.36713591449245 -42.793824980475485, 105.6725574722873 -51.28731654885511, 113.76057945864136 -54.360140663773755 M99.64705836171277 -38.57485492222588 C102.6966742002569 -41.18409493914978, 108.00369703044142 -46.68261599215595, 113.1877131186598 -52.79123791346048 M108.01022544903138 -40.557420450539475 C110.91148510015098 -42.103247387599495, 113.69752936719934 -49.45384725643547, 114.15217607156683 -49.04019379390397 M106.73499079560318 -39.809376083032376 C110.32009605232618 -42.182188065070044, 111.95307626489195 -46.637029469543805, 115.57624327847111 -49.81204931681968 M113.72012685254998 -41.84780868778763 C115.87640674197002 -43.927768788213434, 116.37670537763573 -45.03074876140684, 118.03892113824197 -45.82933395534893 M113.96067766972668 -42.21931275131938 C115.27866586197572 -43.735472807685355, 115.48082560552241 -44.15546481806317, 117.4871851660014 -46.6764499797686" stroke="#ef4444" stroke-width="1" fill="none" stroke-linecap="round" stroke-linejoin="round"></path><path d="M1.26 -125.994 C53.902765175964866 -124.1023955393058, 101.13133354583816 -93.58002104068458, 114.7151438587904 -47.06379232871532 M3.121074015498161 -126.89019788825512 C53.97616191786173 -128.36826743560255, 98.74902740592198 -91.47970093468489, 114.7314964427054 -45.868214167982345 M120.51883825600147 -44.13154455292225 C91.25213295926727 -34.57975863153432, 65.15449785241266 -24.920681145900677, -1.4775096863508226 0.7299301594495774 M118.89920650810004 -42.9756475033164 C71.23557728976577 -25.00613547710385, 27.418201880431322 -9.889743500307011, 0.5036699995398521 -0.9454522117972375 M-2.752376171946526 -2.3501960307359697 C2.9197973859798614 -40.2540736839218, 4.375084345123216 -85.80332087978461, 2.095614874958992 -122.82837085449695 M-0.15442288070917132 -1.346874712407589 C0.17779001671960948 -42.97694910590757, 0.8885403634975702 -87.66204736559891, 0.8806787332892418 -125.81086539500951" stroke="#1f2937" stroke-width="1.5" fill="none" stroke-linecap="round" stroke-linejoin="round"></path></g><text x="36.10656591671776" y="-51.62669752852409" text-anchor="middle" dominant-baseline="central" font-family="&quot;Comic Sans MS&quot;, &quot;Segoe Print&quot;, cursive" font-size="14" fill="#1f2937">Mon</text></g><g><g><path d="M0 0 C0 0, 0 0, 0 0 M0 0 C0 0, 0 0, 0 0 M0.6228783278493337 4.85990190242707 C2.7771482660434517 4.710603999184503, 4.998394145221091 0.026692591461243698, 7.6987101880034885 -1.1015523684126975 M0.24972695458215977 5.909962922682158 C0.9472452009280938 5.306890262843326, 2.980395494214733 2.3797793208345994, 6.712766551705308 -2.5468201178414467 M-0.6954538873304023 14.725583267628728 C4.377419264440831 7.794228437527184, 5.911325504518313 4.774209458963076, 15.46879754013242 -7.636015237590243 M-0.917540784822811 11.16895441156584 C2.2429246991326117 8.244171426624096, 6.848602809420329 4.121702305602183, 15.453524359528437 -5.687716172357965 M0.5837072314182064 20.292084669043 C8.134383411710454 13.333394139943419, 10.341249642038107 2.3729036294932513, 22.603961684501492 -9.108639882833613 M-1.4146859137853842 19.856572546531133 C5.239469160809716 11.724437835137739, 9.177657997737864 7.486296088403757, 23.821668755209764 -6.7706297236987485 M-1.1186275524832991 27.089771265625117 C5.840852858055735 15.338492074053981, 13.926623858508227 11.791015166269723, 32.425594334729944 -8.86001819018636 M1.6405933426878665 23.841602072953343 C9.249327664618095 13.080870194925826, 17.13873612305459 5.11047466749603, 29.725729288586408 -10.845660584609844 M-0.001490359515939588 32.39935128032064 C13.867134096199905 17.47127514564202, 26.02551710135178 4.5384606322789764, 37.790531428317756 -14.56261109714848 M-0.08130154213408076 29.43375512002801 C12.970441222520146 15.70848698376715, 23.528638844290164 2.214900568524682, 37.52635049090836 -14.840640786341252 M3.554072805801302 38.388944615184 C15.296849585532287 19.765872660463028, 31.701243740057027 2.8330063313307776, 42.54935890276496 -16.982629541219975 M-0.8326079790202088 36.12078049605959 C9.335463806109843 26.137961113767812, 18.235615891701386 13.057503348203646, 45.13730189342563 -15.986527360142972 M-0.06347017701258723 39.95175949316077 C13.620446470804287 21.396679225931475, 32.11366042186288 8.69645464582582, 50.946412695571524 -20.980034459900846 M1.663325505298471 43.706140330243635 C15.591005358439517 26.76372985767914, 29.905166916617233 8.808062672666994, 54.1254780273882 -17.117402337265005 M3.352334687523408 45.2684158163054 C19.008098587107007 26.2162759243042, 42.97796699515021 -2.6009923069636516, 64.07583777322799 -19.663246370913868 M-0.8394884999470287 47.3713334308846 C16.657835137682113 29.772581903683168, 30.700999547013097 13.161326597352595, 61.266957453036596 -23.125182329180124 M-2.422544721071735 57.24462180756341 C27.80229036283985 20.781063919318363, 54.3742717175356 -5.072376202931461, 66.65735201525331 -22.37030705131349 M0.14185147851227242 54.41357192717801 C24.860515779781416 28.042950692942597, 49.354359149822145 0.223727101452883, 69.22276664363982 -24.040780206692784 M1.0058455926830099 62.073497368989294 C24.046841895883347 32.688338154337096, 46.305993039436004 5.946497256036773, 77.972600388138 -26.197137018822485 M0.36760802990739805 60.108104627428354 C23.55638119919365 29.03782080532567, 46.66024956202653 2.934626593608371, 78.17523415943832 -27.262362581275752 M-0.39902649169338256 68.27325072352855 C17.585347718123256 47.41996913985194, 40.222806555462064 23.035252222697526, 87.44091882938207 -31.178697210940854 M0.5269326275073241 67.64589366083113 C16.894986452865982 46.45048228250892, 33.57738606658429 26.744747746293864, 83.70375453168215 -31.036511484179034 M-0.8557069787198914 69.64950177323567 C22.7599293050174 44.285921248678655, 49.75598653433265 15.113612130130821, 89.47539327648553 -33.643698565168606 M2.386337860543071 73.59593783569085 C24.943612610440297 48.47506339250764, 44.831089108124175 22.958564754754924, 90.7408472916213 -33.71293394665264 M2.9867720111224774 77.9329587410562 C30.764889351717926 44.50543612239504, 58.28069534622414 13.704880612752428, 98.48285966694836 -38.01460201900573 M0.8412252022836327 78.24294928120302 C29.39387412153772 47.48098357772345, 55.63745309532035 17.35513248988786, 98.07215697050574 -35.844461999946546 M0.29736447331471105 85.74174152904456 C21.038043904135098 55.47241469621924, 49.875089752868625 26.36645872657449, 106.26390393827054 -36.60761850995222 M2.4643572419599975 83.8496768056721 C33.35496609180044 47.66591009026144, 63.354184803126614 11.572045231601853, 108.4364530995855 -39.087052675310765 M1.4145382873758294 92.81905836014633 C44.23307651128609 40.1098018721592, 85.80529763319704 -5.067043177530959, 116.21286202795213 -40.632708975508095 M1.5573854528411843 92.19458253829364 C43.67613543827501 40.82978106267436, 85.9669412708065 -7.233762996600933, 116.2256302101106 -41.8997880039953 M0.49474744878682053 94.59552913641595 C41.598350413817464 50.05280782748416, 87.02118919861354 0.9144368208612463, 117.29358375753104 -37.77474603228225 M1.8993224241581814 96.43416528737211 C33.52873621787754 55.65691188195526, 70.54478647454842 14.123974836602898, 121.36047171736895 -41.826036696359054 M-1.9360401629333257 102.02686208079898 C26.756072586009132 68.5789021679477, 52.613208012950956 35.48528334837027, 122.17578700652629 -34.12177145732915 M2.398069629179979 104.24063718210303 C43.196364975550935 50.2942024016151, 85.2790961629547 0.22582765709495045, 120.92700409462958 -35.721711623206495 M2.066129447696423 110.95617709534984 C35.36000121752525 65.07549532994025, 73.37349169039247 23.987711137062867, 122.17141188638092 -32.09325366948542 M-0.3611103428623921 107.26424703079086 C47.591245816943605 55.78267809304306, 92.54471773252853 4.261230012899446, 123.21285104708554 -29.583527297124242 M-0.7852758398049731 115.55168240301411 C35.93189877158921 67.22814071007737, 76.52862392953833 21.0144812663009, 125.0497943345949 -25.274153606251073 M2.3359339813000304 113.87095696263115 C25.39723747543443 81.27124911040634, 54.51089174108848 49.68480996718178, 123.02240710598677 -26.883065749362302 M0.8411979700435253 122.46899790584624 C47.7798143129901 70.9899384819248, 87.84639260633148 18.844942417652298, 122.77402028866828 -21.143182205126106 M1.8807151908982846 121.80476578592837 C41.672566923039504 77.46880805671474, 79.65287962157642 33.91207195411682, 125.31319180258335 -19.195034011170684 M2.1025777857513916 125.13412224656896 C48.28501779362047 72.31920764920177, 96.11666605258797 22.025439697025682, 125.70092568610104 -14.472800403610497 M0.24969378819184396 124.57067604965525 C31.894220948418717 91.5995082929431, 61.94021016577041 58.718502511845834, 126.49584966812523 -17.097264113799362 M4.854171776742694 127.68691784590018 C46.04714095411797 79.90172065203721, 88.94062003232361 33.29046560618936, 126.38109646439315 -11.929219139204273 M8.776986536354778 125.87817908077967 C33.33685224407051 97.18072700144312, 57.58755018791579 68.77442897043164, 124.53415023386242 -10.670713088498363 M10.504152677583878 125.69414082789923 C54.30646293754218 82.14603871454894, 91.49044727478761 33.407676135388655, 126.04675050306365 -3.9629801889618834 M13.70894976370353 123.65428490961101 C54.345179432774685 76.65876883071154, 95.11931013969459 29.12210937678768, 124.53286997306391 -5.290043806072136 M16.134738367793922 124.05524941551167 C60.88512135922407 77.55933456052838, 100.56906282476302 35.555379674748565, 127.9480917975935 -0.3372136508288692 M18.625359943507082 124.84933066534478 C46.95658649098053 88.92780426777956, 75.5614861442761 54.892010266422076, 127.17414647496071 0.5481175417837789 M22.446132842853856 125.95711351079196 C48.34208799819266 98.26723087468805, 67.38697453762171 68.30446217170943, 122.81695628548275 7.4006195376947845 M25.083354664996456 121.69169015628546 C54.448108634879326 90.48856667784587, 82.30512216297394 54.85657851534062, 125.28112427080283 8.053438923819396 M30.708053982282667 120.71169133668566 C66.17979019680291 82.51406025627415, 105.91649034732797 39.99762803196628, 125.03498893322185 12.654598858886269 M31.06896040144065 121.22545051162862 C63.56095142079219 83.4539147248155, 96.87553276918712 44.73438126493995, 125.48613192083077 13.777753728561905 M38.72032383954235 122.00893363480166 C65.74556519467697 87.89311668108675, 90.85147462601729 62.28867502856779, 126.75334859133935 24.153892115913937 M38.05768280005165 119.66331637923317 C70.1869191840497 82.61466758709284, 101.16275563909696 47.41095588032913, 126.25038686932301 20.88860866542966 M47.94016029415193 113.97329862808552 C65.74103853592473 95.13111255886022, 84.01233866542779 71.26210190246628, 123.88512119733517 29.66978837127778 M46.84179833409849 115.7431248882946 C68.96399093785011 91.4721162609982, 90.24109986562615 66.57991270967091, 122.95640864752953 28.586296703172653 M56.81853122563038 111.63549453948278 C76.07342248883691 95.37402527615073, 91.40321494536776 76.18185680800181, 116.99320171769988 36.925117107255005 M55.56670847685013 113.69958816800852 C72.20237801260933 94.3821566565838, 88.73788466654689 74.94774818257929, 119.89590081569087 37.91327623031809 M66.93650868743974 106.20422211060233 C75.7345692966322 97.0047258474474, 89.95933460704978 85.4547474707305, 117.26605803195244 52.01308654679118 M64.16729387551862 110.23603586623378 C83.02942941017912 90.30519327601257, 97.65600748187616 70.42059696364223, 115.345514847076 49.47300937606154 M80.61285570405148 96.94914166327588 C90.03615806217397 89.82004963559604, 95.37732063685228 78.7395310760553, 105.22984899062132 66.0878644930546 M76.67550114832544 100.90738221105211 C86.0943404667947 89.82440421900611, 95.26289879133054 77.5751142521132, 106.57896818596339 66.2205428498213" stroke="#f59e0b" stroke-width="1" fill="none" stroke-linecap="round" stroke-linejoin="round"></path><path d="M118.78 -42.041 C145.7220288587973 38.99814464152682, 87.59020049990734 127.30674733727011, -1.9397122824192048 123.88241534256935 M119.30214803099632 -40.633395776510234 C145.38882234259103 37.34640084893334, 89.70558822007497 124.62738754926953, -1.427007114589214 126.75357166403532 M3.2676765120029447 123.3469108941555 C0.7048753196598287 91.42393645018139, 3.6205888508522213 55.80647328164563, 0.24498062729835512 -1.7401396811008454 M1.6284130162000656 127.25870499336719 C2.055288866759658 82.06151583283268, 2.843961407547265 37.46495212624803, -0.5926600009202957 -0.2909044235944748 M-2.304752343893051 -1.5003920614719393 C28.406357828840367 -10.036334389497451, 61.31354863641015 -22.548441428381132, 117.25122974991798 -38.909741708993906 M1.2911542385816575 -1.093749424815178 C35.88906597904982 -11.582695405591913, 72.68309120392547 -24.926106560969426, 119.62135746657849 -43.274730790019035" stroke="#1f2937" stroke-width="1.5" fill="none" stroke-linecap="round" stroke-linejoin="round"></path></g><text x="51.626697528524105" y="36.10656591671774" text-anchor="middle" dominant-baseline="central" font-family="&quot;Comic Sans MS&quot;, &quot;Segoe Print&quot;, cursive" font-size="14" fill="#1f2937">Tue</text></g><g><g><path d="M0 0 C0 0, 0 0, 0 0 M0 0 C0 0, 0 0, 0 0 M-82.23376145213588 95.47293793740926 C-49.38526696523131 64.25072145378553, -16.786927119305407 21.91014926116718, -1.6428101636143277 8.690730460037582 M-79.16663988530381 97.29809048804698 C-50.81672008260182 69.55214665454507, -23.33368123587862 38.06592933714786, -1.707669254359777 7.477561086465709 M-75.61260088432826 102.01425698032014 C-51.06930541813026 72.445815984694, -29.24826105147556 42.26038338221674, 2.10258711959232 13.363028434335767 M-76.74573123056688 99.07931369622581 C-48.79455343499577 69.62370161689066, -22.003331045106545 40.326972543499984, 1.2796773486863482 12.285477032184183 M-73.48283564922208 100.19156917278974 C-54.95785943228439 74.71402011075574, -32.63737926651433 50.16693072008769, 1.12699922634752 18.339971901942665 M-72.48042536702746 103.53830098902195 C-54.826976073864394 83.68091914021886, -35.12546668004202 60.3364434715128, -1.0464401675900679 19.44698714064496 M-67.20940281157684 104.54772352834527 C-52.94265686043452 87.70936378618973, -41.853469484311084 69.82156305946899, -2.2188859081082146 25.89878487638549 M-68.67057146882009 103.67546973933761 C-54.51195983774345 85.59141725597014, -37.88559284291078 66.76355546203277, 0.9313165226764877 25.320321284750264 M-67.86661443615202 104.78494406051396 C-40.408137199473984 76.3926476857465, -18.44559756965747 49.02716481814371, 1.2062446514656202 33.37606637119149 M-67.18633121007923 107.53654982007504 C-46.422134965666636 86.97681698167729, -28.739672945593284 66.45440661250976, 0.009973245351518757 28.959021837402336 M-60.10633467467866 111.12895852349139 C-43.02197322513837 83.4548620122303, -25.18446302137987 65.3613205759879, -0.1338482466619929 36.931919140556204 M-64.28635585191093 110.12671234480477 C-44.51776573705499 86.51325778007913, -24.005802379193454 63.694526634417635, -1.8519337606709918 37.62607241217171 M-61.46556656292574 112.14603135058198 C-35.471038832204286 87.38136462675966, -17.408243019790806 65.70081391761725, 0.78339833274946 44.52169219800685 M-59.67537303945915 110.57760260620627 C-33.895485949605515 81.73747612797324, -11.708492732093138 55.340008698826, -1.64800366952553 44.71564038196061 M-52.60280619464322 109.57122113553571 C-43.2079202985423 101.047667283195, -30.160783860332646 83.69284148275433, 1.4151132959499755 48.41481913729342 M-56.49054097584887 111.9255975574045 C-35.08043410203524 87.75840704378996, -13.408876429698795 62.624646716734674, -1.9982071843370997 48.821915199894036 M-53.99804272156218 113.40838063254816 C-33.54221014478479 98.51848638771887, -22.40207426481032 82.69323873432661, 0.665109578180062 53.98539897194318 M-52.55144842218616 114.76180581197006 C-39.65353178946825 99.55903294115005, -26.219714984138342 88.08236394069483, 0.5132315207598084 53.87968923887423 M-48.97246320844205 117.25660885514654 C-39.02680883151182 98.81993445850654, -25.140686089105106 88.023531483156, -3.6403519722912976 58.631034456151625 M-49.12981955260547 115.10851974280513 C-31.370335511112533 92.99226727089396, -12.039811257004894 75.14837083327426, -0.9364013153408237 62.63319611247172 M-43.81268874903286 115.62908939708088 C-33.102325054618284 99.27388446599907, -18.880388936430407 87.63611148353516, -1.1162084202235945 71.14457460344605 M-44.8237500702318 117.08805380303475 C-34.773992933883974 107.10261193502474, -28.091483766651407 96.80243146058568, 0.4780451332265132 67.35785319358877 M-37.558656408094116 119.94367127187837 C-28.609301292856813 107.94242530890091, -20.355972880290704 97.59153150193823, -2.686771830376331 70.67824342735359 M-39.89558914919967 120.26332536556113 C-27.724066143109216 103.78845999678913, -11.630685182183795 86.83905036542902, 0.01140919232731652 74.57439035512755 M-36.671796308366304 117.48699765351178 C-26.976901646335456 109.00881484719612, -15.004619599426565 103.87777523279703, -0.8539063544804961 77.70776868206985 M-35.89011652162457 118.75198346373203 C-25.637602471139168 108.54951277732316, -13.526400988933954 95.19424770583353, -0.6699603991444022 80.16297871065862 M-30.56685454359943 118.65037713573115 C-19.95186031443092 110.68152665570047, -13.266105758812115 94.84781492564409, -4.060674057295612 87.00412438112208 M-29.716365390631502 119.81228005067247 C-20.65787098201202 109.88953676398903, -10.974375672828362 99.57438257107644, -0.0018503153231661518 87.28497313308426 M-24.824011236533988 121.53920289250924 C-19.6890749948461 113.93947198189623, -16.75818623812222 110.85647836841781, -3.359512003581148 93.79765953803745 M-28.609740488335955 123.00248915973022 C-16.47908934292066 112.55742170637352, -8.74942536483496 99.50456534557625, -0.9403597303434423 91.09704099530664 M-22.464644422938992 126.45411435715047 C-20.53307457359937 118.28345221009697, -15.59332881530621 116.31050849038755, 0.11959065493186793 97.54222690701152 M-24.35778195988195 125.2120685835847 C-18.547243638115514 118.48511307747253, -12.236311835248927 111.19895310636893, -0.9800774053112619 97.06529091089631 M-20.731625196564423 121.96454512340487 C-13.79861382441739 120.99994518686538, -3.8372984475926444 111.88053980443314, -3.9945531465160613 102.08692550157154 M-16.630460508394467 124.48520777536095 C-12.47159401562222 116.83977193482558, -7.045948333044806 111.5522745589322, -0.26772751436111974 105.28701525275552 M-13.503431833133972 127.02574571374689 C-11.632715108227359 124.2151822445114, -6.827314127745717 119.37354207119944, 0.36269917967721743 113.55410146454597 M-14.620205550388372 124.20164012659227 C-9.454207788475326 122.60434062905256, -6.3128265022941585 117.80926268109143, -1.8313579533715552 110.46223206723357 M-8.788729943050477 126.86003637353191 C-4.8973353791220156 123.36531431927688, -1.883054480116992 118.53999355958585, -1.9504057288683327 118.18710136862201 M-8.41373184063885 125.03343788521597 C-7.268709935056611 123.80908644245122, -5.113429209539953 121.00901126652968, -0.5430001924700404 117.29974885055525 M-3.1312669579497716 125.91514460832461 C-2.8392280876862452 124.46502699414899, -1.7423521616532356 124.45767029131035, -1.3318884940632718 123.09268093056063 M-3.257375583257451 125.88569238134308 C-2.606967190961772 124.68359168052946, -1.9351382592928206 123.97711785770264, -1.1205749034323822 123.41101427420061" stroke="#10b981" stroke-width="1" fill="none" stroke-linecap="round" stroke-linejoin="round"></path><path d="M-1.26 125.994 C-29.032329352029063 123.41147305798846, -61.40740825903171 113.36944079532853, -85.36456842362881 93.95662301385403 M-2.076777953505516 123.30540633523464 C-28.81213912633846 124.37385736909823, -62.15432667878026 112.31040111332766, -84.35551067188382 98.50335749605298 M-80.75348523199558 96.35336634123325 C-56.548961391328106 68.5235171177062, -32.971368477612465 37.002270451660344, 1.9674709409475328 2.189790478348732 M-82.4123804756999 96.62105749005079 C-54.315990483291685 64.78351991900418, -25.30854893760267 31.55798110675018, 1.5110099986195564 0.36364336460828783 M-1.8571285158395767 -0.6505880922079087 C-1.4312780938545764 46.5778564991245, -5.202461564973608 96.4262781266909, 1.246844624876976 129.09088743650912 M-0.4632686421275139 -0.840624137222767 C0.13917418948140758 33.69015899154988, -2.5865337791056486 65.42287006167004, -2.397963800132275 126.54340381497144" stroke="#1f2937" stroke-width="1.5" fill="none" stroke-linecap="round" stroke-linejoin="round"></path></g><text x="-22.203878542498092" y="58.957508238306616" text-anchor="middle" dominant-baseline="central" font-family="&quot;Comic Sans MS&quot;, &quot;Segoe Print&quot;, cursive" font-size="14" fill="#1f2937">Wed</text></g><g><g><path d="M-100.2648916194107 -76.55883660654456 C-100.2648916194107 -76.55883660654456, -100.2648916194107 -76.55883660654456, -100.2648916194107 -76.55883660654456 M-100.2648916194107 -76.55883660654456 C-100.2648916194107 -76.55883660654456, -100.2648916194107 -76.55883660654456, -100.2648916194107 -76.55883660654456 M-106.67047452098919 -59.549568680259014 C-101.50182501728831 -74.65266018316983, -90.03008408400231 -86.93469279731389, -74.643543920774 -101.88795464707691 M-108.5187597966869 -58.92811188432815 C-99.14720299634078 -74.94352869630903, -85.97583795771529 -88.53237097782021, -74.05928086425735 -100.52595353199321 M-116.97968961097008 -44.07015703187641 C-102.58458747230473 -64.53274616840943, -85.11811073545607 -77.86105988625664, -61.374138372542426 -106.4743613326779 M-115.12475242115265 -46.797067354781 C-102.94144536660387 -60.41480269399376, -89.33809802002222 -77.26761388088786, -62.55323610246377 -107.50088236572654 M-119.6909590062512 -37.31431249315812 C-102.63711632272818 -51.65380293807012, -87.32233852039074 -74.1933987916166, -53.27691734158263 -117.79950326227488 M-121.34386502474678 -35.94073129232003 C-100.74282526288455 -59.61895276930403, -78.65076354988949 -83.80686230526821, -51.224386844270086 -115.29986748837771 M-125.51599277385156 -26.998876099549655 C-95.36797069611497 -61.45265081596392, -62.6349487085149 -97.91246695009688, -43.25638603986613 -118.69417357019951 M-123.17394048698824 -26.592936919890768 C-90.54660191058161 -60.91695369393046, -59.1032872274295 -100.03755663433252, -41.394621114147824 -118.23944422177841 M-122.20323709675216 -18.809350565605477 C-91.76413931915546 -57.204193432017064, -57.684106498403395 -98.30421791298592, -38.94925453441188 -117.95021329189736 M-124.33080780335807 -17.974929139547662 C-89.66662472247577 -60.47526999549654, -54.4882555539736 -100.4245601861008, -36.79928179161593 -119.01594578887422 M-125.11363815793399 -11.818738605880068 C-106.51006219118675 -39.39295415922945, -77.24585890820566 -64.59107424201851, -29.60473289223887 -118.94696346281397 M-126.22404596933727 -12.3142028533452 C-85.2798926467322 -55.05511314262234, -49.74797677839267 -96.64356675298697, -29.867461756193414 -122.73195541261065 M-126.70852408239709 -4.396962095373394 C-89.0804276172293 -49.85939493039231, -43.32716294298766 -97.10274678051938, -21.39664923834713 -122.5418459579493 M-125.64486592242585 -4.553922123783352 C-85.89770547866429 -48.828233076364754, -44.63661459688434 -94.18938179463547, -21.234121945380288 -123.58688715548767 M-124.14960493716042 1.3891379304689764 C-98.15885343177833 -27.210499460623836, -76.78275973299347 -55.832898792447885, -13.823449755717645 -125.07036349185785 M-126.5661105421428 0.6470798261923192 C-102.10834248381866 -27.891530601691635, -76.18648147804029 -55.70479567224552, -15.540091354657541 -125.0769859195598 M-125.23532690520497 6.304058757092596 C-81.03738157144502 -47.58778408295648, -40.00096361237992 -98.15276734817941, -9.915785482378897 -128.02906668020793 M-123.87860882396909 5.242558094527365 C-98.95067318013568 -22.247039280445303, -75.10717924304683 -52.07359602746401, -9.439653834553656 -123.87829450799534 M-126.60845908254029 10.660668929274715 C-85.38985259907305 -33.41474507154492, -43.03179085726063 -87.67870552820692, -5.59710260131191 -128.528458237554 M-123.39876267641426 11.515889038499035 C-81.85160730780191 -32.97632905158585, -40.065222950614825 -83.9748200210356, -3.5611383805496573 -125.6995578228487 M-126.09244765214737 14.448465732460829 C-100.92788536713438 -11.608580528035617, -72.61872716340383 -41.06829158712157, -1.203347295497703 -121.06654087845045 M-122.40490109495933 16.00832775605282 C-84.51936152491633 -25.246952994697814, -47.98238553667004 -66.55864397750173, -1.4266239881265634 -124.45577076617438 M-120.75506171003569 21.205317711428204 C-76.21392253462263 -34.60459289055681, -28.667955023643383 -85.95759645610154, -3.4829657479172784 -121.12881731745183 M-123.90092598811377 23.190750604466 C-82.49838030494972 -24.927784285570027, -39.429651728813894 -74.28815328138074, 1.1480603472346234 -119.26817824002683 M-123.67657035221475 29.48159341095405 C-95.86009373061474 -9.502215136034225, -64.84721470533569 -40.687583495282674, 1.9394500323913846 -110.1165477504492 M-121.58448926438707 27.527783941015773 C-77.76866050531315 -20.5618904228709, -34.49383531975534 -70.46882798095004, -1.4103101960040774 -110.39253262779715 M-123.11791976166559 30.704290116483936 C-76.72824157320414 -17.404477729165478, -29.35885817064567 -72.61519914064017, -1.4853100215906836 -104.10907321288806 M-123.21516991926028 33.94193286364771 C-91.27704354867289 -3.034022541456841, -64.52141064772316 -36.52518535016839, 0.11917150263836618 -106.98141715243084 M-117.67226097641664 37.139357212349516 C-86.58242904225291 -3.17640727113713, -50.48415730898966 -48.511371053895076, -0.5431920928445209 -99.15439641932292 M-118.76600180326182 37.97590456919347 C-76.8178397652735 -12.296102146083054, -31.75218989407266 -62.724346175283884, 0.6394264476809155 -100.97482671598239 M-118.42554017944896 40.23879198399635 C-76.76695788227927 5.56382542308752, -46.54140984428683 -40.17389622488192, -0.20840624838908894 -94.5068584051993 M-117.98406391187274 41.9397041555986 C-94.41335507991407 12.77086498670956, -66.36825413154696 -17.6445868089843, -0.2161382403953908 -93.33784454139735 M-114.36408549576251 45.75767255642443 C-71.30661516145425 -9.579277502094698, -24.791753435285017 -62.922978930821685, 1.108101328794581 -90.98946188507166 M-115.99806718259303 45.427667560363105 C-90.53340388584107 7.83903839703473, -59.44808282176794 -24.084049077166604, 0.8678984429284158 -89.02296553073015 M-114.74278407934784 52.418286634856535 C-89.42329067774756 24.17988808290044, -66.43950021405061 -6.262370005427575, 2.007120571687506 -82.23154789438551 M-116.68653158191321 49.78259030120976 C-81.02927130654302 14.19295442232904, -47.593111704766585 -25.911348945684345, 1.1374436181333523 -81.60777290692633 M-116.46084599722388 57.29129318384712 C-73.26044375117834 0.7683667538576913, -30.18373325740774 -44.33919589507569, -2.747294702691325 -78.63111914769537 M-113.05354998935226 54.076889155193015 C-72.85660024430129 5.899876240957363, -29.64094581576104 -43.607964516826684, 0.3204182897384087 -77.05726157204039 M-109.34209937439068 55.169270328396166 C-81.00110387640181 23.49020136781036, -50.8581811611701 -10.819836186622513, 0.2206454386391073 -72.99251668044676 M-111.90908334241017 57.88615005981287 C-87.35108254134445 29.90987414275847, -63.08982488749479 1.8116308334765208, 0.4752295782246023 -68.76151474901785 M-110.13499039382924 59.76671535394925 C-80.38760863759538 36.79268829899735, -61.75982678722153 6.031339927745262, -2.7500051873022304 -64.4887432071941 M-110.46896063656797 63.489128113014885 C-82.59119770644482 28.701838592982764, -56.681810580873815 -1.998883199813558, -1.4577015118890984 -64.49802733991315 M-109.37622912255856 62.791787225060816 C-61.8459598328692 17.991797135687737, -26.37435436835181 -25.762942914409752, 2.091543352465698 -56.29913976338298 M-107.41852475134465 67.13949009185349 C-85.9556718399849 39.724213235258034, -64.05640746075024 16.75592108117879, -1.0074678601216585 -58.26938256767185 M-103.5832027145691 66.82927364695362 C-80.74517018161103 41.509961773502994, -61.48694746109895 20.30444881347864, -2.5406551250381355 -53.971709063567836 M-106.50504565323067 69.74878151405147 C-87.7481330976185 44.51772387559507, -66.05209363933353 20.035700381127597, -0.021148461954105358 -50.8655753343484 M-101.0297392948609 71.52175274462768 C-73.13770957867686 39.197740836084094, -39.64810979423849 -2.672957568537794, 2.2791893131672927 -43.86079214319421 M-103.31348427972608 72.86758831710884 C-85.75056248253611 46.43952775634829, -62.667546358092714 24.706074963219645, -0.41533619690541534 -47.30168886288835 M-98.14610795944346 75.5695930628602 C-65.77301076602545 40.68374306690111, -28.90232606223291 2.3917415568971734, 0.44013048410095906 -42.689391716816566 M-100.26649253934038 74.4855368583028 C-62.6610020849653 33.4050004855196, -25.800808408269504 -9.375543343853128, 1.1753899395433878 -38.98021805534615 M-96.94325489129776 75.34979188709679 C-59.84264669576282 40.70280232407872, -19.456195260630825 -0.7894678497969974, 0.9868992917533788 -30.432139239657666 M-98.64864942755455 77.4501322355789 C-61.207355600247844 36.31141443417749, -20.622745675357727 -7.233551357778481, -0.2091219611171809 -32.37403655444457 M-96.6764491864333 81.58771776211458 C-66.62909917274847 50.810749119540446, -37.18581079907798 17.001340919655597, 2.1517266401150534 -29.251166166940287 M-93.67010685287808 80.73850080621438 C-68.47348783490574 52.359395619302944, -44.118401763077514 26.747368167224607, 0.37722619260338064 -28.562268002906396 M-91.41345994085958 85.22123923269086 C-60.97575254767328 45.09720811814637, -26.450431730316772 9.482389493643637, 0.18616634620497338 -22.43197521321889 M-91.43476672382047 83.92151892748647 C-59.39719742680861 46.45758292379441, -30.91738799396465 12.825918751389455, 0.8186054052240621 -21.966157302786076 M-86.80273333755765 87.2648535842712 C-63.677322554014964 54.760901616186594, -38.7111364290185 23.962018293783736, -1.6464916569958503 -15.266407413939016 M-90.70845803586279 88.42794169734073 C-55.04416008329193 50.14104026204218, -22.826558752485994 11.286417183601689, 0.7296727972258754 -16.232037677029147 M-84.68097944354645 89.12671978140996 C-54.79115195575125 50.35593215681616, -24.220342319717506 11.524551726986378, -0.31969355246843123 -7.814965483655119 M-86.92652366852394 91.26143589283156 C-54.0072754851929 52.49120056665909, -19.743529775581795 13.408025235947724, 0.40709937312780603 -9.593654027690077 M-83.921644441807 94.24633510955277 C-65.89500026535622 68.40786622804966, -42.84200376080105 42.34975710300848, -2.595149407231755 -5.344490457812744 M-82.84229261728498 93.23825661190453 C-66.9900484394351 75.85127880526038, -50.305042034247485 52.7493583220116, 0.6780422534108689 -1.9098395777144006" stroke="#3b82f6" stroke-width="1" fill="none" stroke-linecap="round" stroke-linejoin="round"></path><path d="M-84.059 93.862 C-156.92022787259216 31.440049920425885, -128.4559498591175 -88.35421438031521, -42.45747211272166 -120.75160606236358 M-86.21470393800735 93.47720844697952 C-157.1066409050047 28.616562335238925, -131.10517441878224 -86.83293395631638, -40.95206177706168 -121.88929341943165 M-39.25804754788325 -119.72843674750229 C-24.562924059201993 -122.93634845704567, -16.266424550932882 -125.9413562553937, 0.037080790996551594 -125.80713780546188 M-37.08683841521189 -119.6923935684671 C-27.31023787515334 -123.48155824453364, -16.00807638339424 -128.8169609975631, -2.3636605113744737 -129.11054455721379 M-1.9604943728446962 -128.35787158632277 C-0.03881710904622093 -94.15509628478603, 3.152933633754313 -63.37315290128678, -0.6307079195976257 -0.10198689699172975 M-0.2559881842136382 -125.33964017653466 C-1.3462107121989728 -93.64729440911458, 1.1045098359465002 -62.90101943017514, 0.9169915139675141 -1.5026292741298677 M2.153322231769562 0.6174497485160828 C-31.088788403145927 33.132167001432066, -63.3189639506701 64.4120669924176, -82.69876973295212 95.93722066831589 M1.2092781960964203 -1.332196229696274 C-24.51274101814233 30.477843316076637, -49.751593178379686 58.60463137487242, -83.35969742798805 93.09645358872413" stroke="#1f2937" stroke-width="1.5" fill="none" stroke-linecap="round" stroke-linejoin="round"></path></g><text x="-58.957508238306616" y="-22.20387854249809" text-anchor="middle" dominant-baseline="central" font-family="&quot;Comic Sans MS&quot;, &quot;Segoe Print&quot;, cursive" font-size="14" fill="#1f2937">Thu</text></g></g></svg>