<svg xmlns="http://www.w3.org/2000/svg" viewBox="0 0 360 320" width="360" height="320" role="img"><g><path d="M188.42863172385842 127.48194236960262 C193.23164492002206 131.54745669316497, 198.62771177752268 134.10858009240815, 215.18384164430339 147.23467491434192 M214.93197340935606 147.30310577207482 C213.6326661250331 155.06320634595627, 210.94769324461973 161.67042294990335, 204.46539802997168 180.2143087102356 M205.81412443852778 178.5867761219176 C198.18023509856576 180.13494482617776, 191.11101346032493 178.69942039232652, 171.6495015606398 179.026815369192 M171.25190539323933 178.6622187806549 C168.29219732016284 169.8524950724037, 164.48821529913565 162.0377335212533, 160.82623787365716 147.39075088554299 M160.94576183289152 146.93178708718395 C166.84371505144836 142.41560541021377, 171.4350888908455 137.82208860378756, 188.918228299357 126.79823826160282" stroke="#1f2937" stroke-width="1.5" fill="none" stroke-linecap="round" stroke-linejoin="round"></path></g><g><path d="M187.85726344771683 97.96388473920524 C199.51465552231326 106.42496223231134, 210.3070372196496 113.5473892005103, 243.36768328860677 137.46934982868385 M242.86394681871212 137.60621154414963 C238.190772916704 154.4211948782312, 232.37094848890487 169.02021225319268, 221.93079605994333 203.4286174204712 M222.62824887705554 202.17355224383522 C206.1671088837328 202.87516232634462, 190.83530429385243 202.00411345864214, 154.29900312127958 203.05363073838402 M153.50381078647862 202.32443756130982 C146.47656081380694 180.3344469926745, 139.42751645868435 158.26973473509622, 132.65247574731433 137.78150177108597 M132.89152366578304 138.8635741743679 C145.77403181750108 129.2075483653275, 157.82129332840975 119.39240868739509, 188.836456598714 98.59647652320564" stroke="#1f2937" stroke-width="1.5" fill="none" stroke-linecap="round" stroke-linejoin="round"></path></g><g><path d="M187.28589517157525 68.44582710880786 C203.84903180687357 80.39138786367396, 220.03797632638066 92.0752985705413, 271.5515249329101 129.70402474302577 M270.79592022806816 129.90931731622445 C261.2152860196941 155.0739655968248, 253.81073137753674 181.04936790986807, 239.396194089915 226.6429261307068 M239.44237331558332 225.76032836575283 C212.96062135550116 226.7547720089839, 188.17287250058257 226.44819870743018, 136.94850468191936 227.08044610757602 M137.75571617971792 225.98665634196473 C130.4149761192604 205.89964716506046, 123.0007091106208 186.60358645002503, 104.47871362097149 128.17225265662896 M104.83728549867456 128.79536126155185 C124.88921747581749 113.37582886534122, 145.2568804903521 99.7109602508226, 188.754684898071 68.39471478480846" stroke="#1f2937" stroke-width="1.5" fill="none" stroke-linecap="round" stroke-linejoin="round"></path></g><g><path d="M188.71452689543366 40.92776947841048 C210.234773773703 55.515281510194725, 231.8205290977159 71.76085612544308, 297.73536657721354 119.93869965736769 M298.72789363742424 120.21242308829926 C287.1379293595343 157.6536105011017, 273.6987658360464 194.3899819192941, 256.86159211988667 249.8572348409424 M256.2564977541111 249.34710448767044 C218.56077251387086 249.21690802662337, 183.1237180805154 249.4748102912184, 119.59800624255917 249.10726147676803 M120.00762157295725 249.64887512261964 C108.00430050597649 214.12510991581468, 96.56978386832057 178.19331731854584, 78.30495149462865 120.56300354217196 M76.78304733156608 120.72714834873581 C105.69216006363202 98.92044691025492, 135.24473841390696 76.77774329407008, 188.672913197428 40.192953046411276" stroke="#1f2937" stroke-width="1.5" fill="none" stroke-linecap="round" stroke-linejoin="round"></path></g><g><path d="M188.42863172385842 156.48194236960262 C188.56216662746854 133.381064141728, 188.44198169928976 108.73387453537434, 187.60320267174393 40.1961677512154" stroke="#1f2937" stroke-width="1.5" fill="none" stroke-linecap="round" stroke-linejoin="round"></path></g><g><path d="M187.85726344771683 155.96388473920524 C210.92315194716736 149.48571022870598, 232.74828519819758 141.42285742535037, 298.5289612337257 119.5463641549369" stroke="#1f2937" stroke-width="1.5" fill="none" stroke-linecap="round" stroke-linejoin="round"></path></g><g><path d="M187.28589517157525 155.44582710880786 C200.8131597746794 174.20431765133586, 214.0901424123985 192.63477324436195, 256.99269728115866 250.4344746011401" stroke="#1f2937" stroke-width="1.5" fill="none" stroke-linecap="round" stroke-linejoin="round"></path></g><g><path d="M188.71452689543366 156.92776947841048 C174.49760078632187 174.00038343828075, 160.37901712832792 192.98459280581594, 119.22972142104885 249.6306423523555" stroke="#1f2937" stroke-width="1.5" fill="none" stroke-linecap="round" stroke-linejoin="round"></path></g><g><path d="M188.14315861929208 156.4097118480131 C165.17386392039134 148.92149888110987, 144.50594827809923 140.51815827696905, 77.69345746848182 121.1348674085831" stroke="#1f2937" stroke-width="1.5" fill="none" stroke-linecap="round" stroke-linejoin="round"></path></g><g><g style="opacity:0.85"><path d="M93.59882907350013 125.0896495692323 C93.59882907350013 125.0896495692323, 93.59882907350013 125.0896495692323, 93.59882907350013 125.0896495692323 M93.59882907350013 125.0896495692323 C93.59882907350013 125.0896495692323, 93.59882907350013 125.0896495692323, 93.59882907350013 125.0896495692323 M94.93133647166103 129.33401255634308 C97.69966282316106 127.31917849145296, 99.61113380870863 126.51466135470059, 101.63408799283069 122.49190708918249 M95.34901479147284 128.5241881927538 C96.91949175815837 126.74052358832753, 99.09807282592828 124.93906285237959, 100.66879739098113 122.78926520926629 M100.12758318140519 131.7185869989977 C99.75211823746689 129.9782966171219, 105.8576436853461 122.87415108058083, 107.04632596983825 119.47015975608277 M98.46997469499124 130.09933931094267 C101.36090074804656 128.6117344972041, 104.31655178708486 125.56991427912583, 109.11473642721093 118.59134759201454 M103.24677807825476 136.03519918824068 C105.27180090840623 130.64381362384904, 111.22181556914818 126.30639159230994, 115.10737908112533 113.98385720921375 M102.4612145661083 132.89890436584585 C104.67333986683789 131.85424581588057, 110.95803771930966 124.46532435291456, 116.57548640447385 116.9924625657282 M104.51119697699619 135.8795087180516 C110.19156078755543 125.70090566298965, 118.20151474348458 117.80729542139795, 127.02040930291749 114.48465585422306 M103.53538836101364 136.62180662522522 C109.53968925805636 130.9734419753948, 116.7133976438539 123.48106310573584, 124.74280735006666 114.76078979235679 M108.3643579411673 136.89205860430783 C116.00910659749391 128.15707340112561, 126.70591923008374 115.65525041553649, 131.91837733787983 112.7385360567049 M106.92195381851668 139.4026541360695 C113.37120352229604 134.57985212376636, 116.54469303052086 125.86979128081907, 134.18429187787265 111.49929604960242 M110.7598699105276 145.9100779584821 C112.92752217415396 133.07458080307802, 119.01939151936828 128.61945247552683, 138.4707080967814 105.31556150835485 M109.60454917525186 143.8228654629763 C119.52385700514013 131.85682523600525, 127.33299623218812 122.38505796390298, 140.6665816955358 108.73004698228569 M112.1163939118081 143.75979215137897 C123.37856816874037 131.7361845434939, 137.98940239160564 112.47195005401629, 147.96793760635316 104.92008257997735 M113.6115522548252 146.94816792987524 C126.71921062574002 130.52258882326848, 142.92452666920514 112.79240411131578, 149.5071171266621 105.05470741433604 M113.82522985577778 151.8393898746939 C128.6510755297297 139.2045810753496, 137.0102447175571 128.11081479546448, 153.37324077736406 102.1284129632679 M115.2736672648807 149.36156468158677 C125.19532380602358 136.21361937724262, 136.29945275274082 123.3705319185214, 156.17566487889556 101.14221799057398 M114.99878876916763 149.78134649923138 C134.2294181752059 135.59954478602194, 148.0431211987423 116.88384603739128, 164.21484460755462 95.80586260925378 M118.72239702902432 151.2756580420404 C133.24284465572165 137.0210595675606, 145.7458790973424 120.99233744326409, 163.93673124685165 98.19582811515178 M121.12212056274667 155.59010071668692 C133.7455423971606 137.8329072659273, 153.99489045692943 120.06066763433594, 170.51785109466545 95.87086646896219 M121.29157075490012 155.9203261560566 C130.58527711012368 141.14086260968423, 144.5560443288486 128.751070212898, 170.93138502514594 95.96722469222165 M121.60138626324591 156.104377897865 C136.44898016180483 143.89186599234893, 155.31423296238745 124.50065224685784, 180.33606014946545 90.85911323408871 M123.8158162661141 159.25504634756487 C144.01373909887099 133.8560452194524, 164.45952211922915 111.213967696598, 181.25908042142237 92.37066086660414 M124.01538578143436 161.53486673446116 C142.5879100997434 143.20026247870055, 161.17147112185012 118.69513189180216, 190.2443827986856 87.94057827543773 M125.63208777031022 159.75657176138577 C143.96227880698973 137.57348441663987, 163.5565589302841 114.54143670129537, 189.02007025928694 89.94998896222867 M131.66403014404298 161.5265425972799 C156.5842702850395 134.8335504125161, 179.62709598836568 107.5178057243597, 190.0540147791519 88.78545776604152 M128.4781380910945 164.13125472144878 C145.60845775337654 144.69328541645694, 163.19801503259487 124.8257786782947, 191.78057957244064 90.9945946052525 M133.67592829083128 166.14163459779394 C148.98501171984577 146.18389363941554, 164.27882993619434 124.33883233695424, 196.96997129153846 89.64171959536779 M132.15010546510143 167.54801379235158 C147.33979798750408 148.18766204436412, 164.2288742697305 132.31876143696064, 196.6803403584325 92.86694763826836 M136.87656416155878 172.09549684747606 C154.57827944230394 150.2631229562452, 174.9889704085469 126.05834640281431, 201.88961127560464 91.1028428748894 M135.12069062896552 169.52420503869206 C150.16392603127028 153.5428573391503, 168.20667033032066 135.133938335324, 201.081115853897 94.62034162587408 M136.8564737829564 170.59247971713074 C153.6905758524148 149.30800065544057, 169.33993584060926 135.74386043731326, 205.86322770010048 97.46072213585634 M136.75733390629273 172.21149328439958 C152.88768921312106 153.28415736154133, 168.50882542621412 136.45275920757217, 204.17729082445913 94.80179805244465 M136.8788320657933 178.70889689845345 C167.73261657939946 147.4621005528043, 187.6213797732984 120.26528374632161, 207.73798853377608 95.56037690951857 M140.97980200472713 175.02881917429468 C165.40037295458984 146.15771345510606, 191.43955719689566 118.34538308331531, 209.78981253574398 95.95677590235505 M141.42792503680033 179.45534876224872 C163.8955131826482 153.43080247918445, 192.843286429136 126.40283353741698, 214.85793674538135 93.6999517271261 M142.55866024787468 178.7747225323069 C161.95275158897252 155.14394392684622, 181.87896971135402 130.2934283466464, 212.21619075337648 97.17917165998028 M142.46067760674657 179.5143990002121 C164.64851600896196 158.76764836957219, 183.8083925740243 136.11643625095758, 218.5639903036663 99.73071611992899 M146.1168003433794 181.01501900325673 C160.81341864489102 160.9844627116153, 179.1800322553427 142.17589945096282, 218.8804977429816 97.8613193096954 M144.955125802363 181.302897983148 C174.36505258956112 157.56230670326318, 199.56299410031147 122.34779898845866, 223.4378831483904 96.71177419939994 M149.22791261484727 183.3951234110736 C174.2148777266707 153.96910127652197, 200.2240639915048 124.11502828259874, 222.7273092411939 100.5986999160981 M153.1619445344186 189.509659402752 C167.24475214381283 167.153260039725, 181.3051599920237 148.57885756915425, 225.42640130628473 101.1912263363434 M151.8180137699223 187.02772640057808 C178.5311255116134 153.2352289465208, 208.9699662069755 120.3449133045801, 224.29594057161935 102.32110330311788 M151.35291982964443 189.55778362982852 C176.28219720268967 165.07710353813923, 195.5609788730733 146.77305422865646, 231.40502871710873 104.23442664223222 M152.0639191322105 190.20511779569966 C175.60618281067087 165.51059098489552, 201.15336163872178 138.74777987723618, 229.63409247089243 100.97088553535252 M154.72853562779989 191.78762477585036 C172.6956174995202 177.15033935359358, 190.1950035480886 156.8653346200711, 237.30218334961242 104.10514464831634 M156.4508294383463 192.63215366103609 C174.47709156224136 173.69478588909539, 191.6710323768611 154.11976753460596, 233.97208720463817 102.63413059717699 M161.2861508686446 194.4926619522903 C187.49846214169133 161.40376824421455, 218.2334535937978 125.55067310259672, 238.14315817254578 101.12027488584575 M159.5905079249643 196.91212756118512 C186.40891176404153 160.86560278748914, 217.94685903240244 128.92127750086115, 238.91680953848157 105.24535997296627 M165.80029463689047 199.84595136950722 C191.85231135656966 160.259073740608, 218.99871945216984 129.2419151988208, 241.95012115465886 107.74983688607048 M162.15157547365146 197.32322265963066 C193.06668198900496 163.8710513523048, 223.25278223440003 127.90771161603304, 243.10170673804768 105.53753264709543 M165.19389878532556 201.81135087964225 C189.0874391968066 174.61083792552398, 213.12068237103563 148.39330111200155, 248.44211526470167 104.31697518024055 M165.78074323407083 199.77973626163887 C193.65892210470543 167.31170401669942, 221.61344562437762 132.89549766502472, 247.23678856896143 107.59204510393945 M172.02312434068082 201.6775858534998 C193.52169378371315 177.25230197485303, 216.68049601331154 146.52052195415777, 250.13505847142412 106.69795929960593 M171.3376390298283 200.61614569113914 C196.97145946423052 171.40288871074432, 223.27812788638218 141.50496160458107, 251.15862729684784 107.38873132787332 M177.67283024271578 199.35063540255265 C204.9556783772035 165.54838349661946, 239.342531986109 132.01336013027867, 255.84174374357625 109.2221837754166 M176.44027609755844 200.3294945127292 C205.83167840034056 169.8495114260312, 235.06449562751297 134.85199727073086, 255.68035768733188 107.755862803272 M177.82475043118987 204.3896036382736 C200.3470544757421 181.24675915479773, 225.1909164457026 154.33596449746324, 259.77183904990807 107.57216813892256 M179.2832301738957 203.46526379100692 C206.40384701917569 176.40059733886378, 232.19474142141422 147.30887501059408, 259.64167700603855 109.3201485145105 M181.9256709328342 205.4425909314671 C207.97485673259197 177.7018846266032, 229.1572935539307 153.9408400361131, 265.03188735916956 112.08355692137388 M184.05581658244614 204.1032433499017 C211.10220372692518 172.07354386855863, 237.4458891085721 141.07703803396345, 264.9588450185929 109.4567349459639 M187.29501665841772 208.02966097382867 C207.44007491751645 187.93312997664944, 219.3041663013557 165.45663136755812, 271.92530664011076 113.04511965402048 M188.59967703085377 206.0904988342341 C217.59090656569995 172.64595867709392, 245.4598509826007 138.63158035883077, 270.47468399061995 112.4392060820071 M191.87332363467138 206.60516413616278 C210.1703000102292 187.77876943783372, 226.8741410007317 170.75902473958158, 275.1963308324911 113.95346044833518 M193.1072518427245 207.95369506793358 C210.93853681434246 184.6075831891593, 230.57381252852412 164.05968982687236, 273.1525196587541 113.14429298723795 M193.92982580135478 209.54070452994222 C221.70382124086333 171.22007606372736, 256.5566357467634 141.16575080644782, 274.15424596304166 112.99417967512244 M197.37936675469294 207.1320631155979 C221.05739171309673 181.06111795057305, 248.71965265409224 148.3753579456492, 277.3504173466014 113.78303548558587 M201.53063209822736 208.56101126663972 C222.3102045144147 186.12358058125233, 248.8832441432587 155.11280700591257, 279.437035971522 114.47013144585497 M199.8434100033935 211.06327154182483 C226.2614305083548 185.04349047346443, 248.80447966141497 154.8003964960142, 279.9348277907964 117.77903964164861 M206.80690355202012 208.97980971705977 C223.81656373138193 190.22896046190618, 245.48509050518481 162.85019008185745, 284.7356188266819 116.68258529178283 M204.57150941243225 211.46929767054382 C223.44501353056506 188.19980430882876, 243.5570089510703 166.83646275731402, 285.954823256964 117.69963943980119 M208.06244007350202 213.0827885728979 C236.3058752035703 181.53120135065032, 269.23393043632683 143.5908472141176, 289.6377874972715 119.58593574415603 M207.33811918945307 212.58939464657544 C238.6461336961315 176.54271403109382, 270.92037862122635 141.86086464623014, 290.6360385107293 117.36060636441866 M212.92215268940416 214.58992320495858 C244.11646577627602 179.9623280044045, 279.9094529612424 142.10073246677052, 294.3282099520408 122.0877023342245 M212.31849215806213 214.49241479384912 C242.3064596329067 180.36308788576616, 270.38149922585336 146.8683470524445, 295.63067081771726 119.57614939987593 M215.639650339486 214.03844272471454 C232.35729790602997 199.19252047608936, 247.6943509743491 174.1370410060687, 297.48842915973984 122.5485295932383 M214.94626655489384 215.70977667696263 C238.25645041919321 195.30108639489956, 256.90951662881827 171.97393323330184, 298.0674799435528 121.90891503054804 M222.56541696350698 217.01870124363862 C240.80611870948928 192.77337444966577, 258.8848821930587 173.9563600006668, 288.0514463933464 140.5952169777939 M218.53164311658267 216.32133636051378 C241.90950905431603 195.87636394718837, 261.02557739515015 173.31609183409628, 287.856371458089 138.53301716615653 M223.2149885881982 216.41004913253525 C244.33879800027927 195.86015667993453, 259.2834979903397 178.62429921916282, 276.8819122883921 157.63633867401768 M223.67956216673468 219.44125866843203 C233.36975078611366 205.55136331221402, 244.68619786617182 190.8259304408885, 276.9185877937322 158.39965694595264 M229.03259915331907 223.00909050287714 C239.55412449424284 208.04944164229866, 244.27330858829416 199.54086467239728, 266.064112871608 178.28249505271393 M229.40334944198437 218.69627466531506 C239.43007476781895 207.43851299965138, 250.01168000084476 194.24814483225984, 264.4246942740886 177.90737419386585 M231.65935759862916 222.16555446613717 C242.60929109770908 215.55932184768326, 247.551477318794 201.48553237067497, 251.55497305376304 198.81624980557828 M232.1428931789662 222.11155291576074 C240.1054733746953 211.90753046954754, 244.87336901103063 204.6181451371494, 252.99758260680213 199.82198455471664 M236.01146770139675 222.95177758373683 C238.06206098945552 221.40051845626354, 239.33460401218215 221.01178548453547, 241.02624679637557 218.11288341988978 M236.3658865765248 222.94529888891046 C237.17044170532895 221.9944763159199, 238.60686333280296 221.30950297026627, 240.74977107254273 218.2732182845956" stroke="#ef4444" stroke-width="1" fill="none" stroke-linecap="round" stroke-linejoin="round"></path><path d="M189.37162151634692 91.25650129701411 C208.94708875625926 97.12686334870115, 230.62750412880482 98.58561080250091, 297.0528044398184 120.78176545639538 M186.96213509887457 90.13764348860299 C212.9564556985829 96.61102786998492, 236.8116658133865 102.43744637382541, 297.39395703182174 121.35853404988549 M300.7812826807852 117.35493516464733 C285.5382021119804 144.8361588195348, 273.2420914540041 162.61885864677012, 238.92708302530804 221.64186878020067 M298.7988402257915 118.8751901625564 C282.94842191288006 145.51618946524528, 264.8474321065486 174.54831305459803, 237.3532095724658 223.5964266326477 M238.38668919596233 222.69133243376513 C221.37689025552066 218.79121325495774, 200.22849464815033 212.13871860585482, 161.71700658683088 195.57406444319784 M235.19272411409176 222.80286546016234 C207.42173542728574 213.58960942469557, 179.5433737611716 203.07587170894774, 160.2809955779126 196.28665294864476 M157.62570943717267 195.76935329207478 C140.81984265497059 173.32846968270388, 119.30757982819763 155.71423728930137, 94.38468977123028 123.34515247591654 M159.12740709219483 197.81685886600314 C132.72113700967378 168.31148127737976, 109.762020839531 142.10966629272556, 94.14299414813048 126.85572982528129 M96.33545805125958 125.68079777010598 C111.66135069365845 117.74655696953513, 137.7410221097694 106.02985219002547, 188.37992086708545 92.87446079637324 M92.73106826006895 125.38118720748344 C123.28169566589361 117.00383746629615, 154.36786048915252 105.80314662018989, 188.98787052482368 88.81238947744882" stroke="#ef4444" stroke-width="1.5" fill="none" stroke-linecap="round" stroke-linejoin="round"></path></g><g><path d="M186.51736830805206 86.61133402169199 C186.51736830805206 86.61133402169199, 186.51736830805206 86.61133402169199, 186.51736830805206 86.61133402169199 M186.51736830805206 86.61133402169199 C186.51736830805206 86.61133402169199, 186.51736830805206 86.61133402169199, 186.51736830805206 86.61133402169199 M186.69620700296255 91.53401635132661 C188.6463548438902 91.58756658300108, 188.9651734310427 89.05704212616929, 190.61048621297093 89.2052727610114 M187.21846713353187 91.95277906387976 C188.0651250386578 91.43306580445113, 189.14475704541638 89.66854144464321, 189.80508128874214 88.30417531321375" stroke="#ef4444" stroke-width="1" fill="none" stroke-linecap="round" stroke-linejoin="round"></path><path d="M188.76285901034694 85.30241052954304 C189.32245762638 85.41110994958161, 190.02272108957277 87.71015690521678, 190.2106137820235 88.49866495048255 C190.39850647447423 89.28717299574832, 189.81378952361817 89.57415006841816, 189.89021516505125 90.0334588011377 C189.96664080648432 90.49276753385723, 190.93322151171432 90.64628498383038, 190.6691676306219 91.25451734679979 C190.40511374952948 91.86274970976919, 188.89349839759737 93.51237818118673, 188.3058918784967 93.68285297895414 C187.71828535939605 93.85332777672156, 187.6610000670833 93.01861937563989, 187.1435285160179 92.27736613340426 C186.6260569649525 91.53611289116863, 185.31223702711293 90.17183311694443, 185.2010625721044 89.2353335255404 C185.08988811709588 88.29883393413637, 186.2981504024269 87.03592946463945, 186.4764817859667 86.65836858498008 C186.65481316950653 86.28080770532071, 185.39617474705318 87.0378949472847, 186.27105087334323 86.96996824758418 C187.14592699963328 86.90204154788366, 190.77381745547194 85.72602411473382, 191.72573854370702 86.25080838677698 C192.6776596319421 86.77559265882014, 191.99035213832593 90.0697893438056, 191.9825774027537 90.11867387984316 M190.45560410080498 85.52105844706534 C191.32688222582394 85.6435059570035, 191.58896303884035 86.22149499253378, 191.77455753983642 86.77917609544939 C191.9601520408325 87.336857198365, 192.23900512502544 87.88676494888045, 191.56917110678148 88.86714506455897 C190.89933708853752 89.84752518023748, 188.29804381104856 91.84640956740144, 187.7555534303726 92.66145678952046 C187.21306304969664 93.47650401163948, 189.03294208052915 93.80790033524434, 188.31422882272568 93.75742839727307 C187.5955155649222 93.70695645930181, 183.63632496997144 92.83968393129364, 183.44327388355174 92.35862516169287 C183.25022279713204 91.8775663920921, 186.83879855322846 91.46919766141545, 187.1559223042075 90.87107577966847 C187.47304605518656 90.2729538979215, 185.31984717657159 89.8385391886135, 185.34601638942604 88.76989387121097 C185.3721856022805 87.70124855380844, 186.73456778600436 84.39702207325212, 187.31293758133424 84.4592038752533 C187.89130737666412 84.52138567725447, 188.50474660040894 88.41674537326521, 188.81623516140525 89.142984683218 C189.12772372240156 89.86922399317079, 189.157723592333 89.0918965876398, 189.18186894731207 88.81663973497002" stroke="#1f2937" stroke-width="1.5" fill="none" stroke-linecap="round" stroke-linejoin="round"></path></g><g><path d="M296.1486218126936 116.98669206935384 C296.1486218126936 116.98669206935384, 296.1486218126936 116.98669206935384, 296.1486218126936 116.98669206935384 M296.1486218126936 116.98669206935384 C296.1486218126936 116.98669206935384, 296.1486218126936 116.98669206935384, 296.1486218126936 116.98669206935384 M297.0590861895706 121.73266860599513 C298.3157436535172 121.64557816243698, 299.6114704163709 118.91329650793175, 301.18665477466055 118.25515361467194 M296.84141455516476 122.34520420114394 C297.24830019886656 121.99341181623795, 298.4343045366171 120.28593043339953, 300.61152098682 117.4120807608385" stroke="#ef4444" stroke-width="1" fill="none" stroke-linecap="round" stroke-linejoin="round"></path><path d="M298.9333373057213 115.67191196379369 C299.4609527949513 115.4045522880609, 300.37945681785055 115.80133938635089, 300.65047490838543 116.58164646613315 C300.9214929989203 117.36195354591541, 300.5115222618443 119.57531469631928, 300.5594458489307 120.35375444248724 C300.6073694360171 121.1321941886552, 301.238334715958 120.80432333823988, 300.93801643090393 121.25228494314096 C300.63769814584987 121.70024654804205, 299.195047015387 122.92069777520867, 298.7575361386063 123.04152407189375 C298.32002526182566 123.16235036857883, 298.97879179994845 122.21138047379446, 298.31295117021983 121.97724272325146 C297.6471105404912 121.74310497270847, 295.1570456358221 122.19407566207587, 294.7624923602347 121.63669756863574 C294.36793908464733 121.0793194751956, 295.68857028333684 119.43793027899702, 295.94563151669564 118.63297416261064 C296.20269275005444 117.82801804622426, 295.657489811464 117.29451609709297, 296.30485976038767 116.80696087031751 C296.9522297093113 116.31940564354205, 299.24579626820037 115.57956951424609, 299.82985121023745 115.70764280195792 C300.41390615227454 115.83571608966975, 299.7523358542977 117.49230767125454, 299.8091894126101 117.57540059658851 M298.4233362944742 116.56293639439758 C298.8455598889442 116.3434975712212, 299.7707994709231 116.56949131209312, 300.07920433364797 116.95586945249552 C300.3876091963728 117.34224759289792, 300.39430045046623 118.31634874921663, 300.2737654708232 118.88120523681195 C300.1532304911802 119.44606172440727, 299.7360419796273 119.69890737148549, 299.3559944557897 120.34500837806745 C298.9759469319521 120.9911093846494, 298.77001952151403 122.54474570945808, 297.9934803277976 122.75781127630366 C297.2169411340812 122.97087684314923, 294.775256582921 121.9204355032169, 294.6967592934913 121.62340177914086 C294.61826200406165 121.32636805506483, 297.07785838792756 121.46689461655903, 297.52249659121975 120.97560893184749 C297.96713479451194 120.48432324713595, 297.11035327015856 119.59800368303597, 297.36458851324426 118.67568767087162 C297.61882375632996 117.75337165870728, 298.6179063993288 115.38652932622287, 299.04790804973385 115.44171285886141 C299.4779097001389 115.49689639149994, 299.6652373333911 118.52937572239975, 299.94459841567476 119.00678886670289 C300.22395949795845 119.48420201100603, 300.63561003685487 118.89662813462539, 300.72407454343585 118.3061917246803" stroke="#1f2937" stroke-width="1.5" fill="none" stroke-linecap="round" stroke-linejoin="round"></path></g><g><path d="M233.85273637413187 219.18523825225287 C233.85273637413187 219.18523825225287, 233.85273637413187 219.18523825225287, 233.85273637413187 219.18523825225287 M233.85273637413187 219.18523825225287 C233.85273637413187 219.18523825225287, 233.85273637413187 219.18523825225287, 233.85273637413187 219.18523825225287 M234.25610707799567 223.51242678722767 C235.70118418556308 223.33446163618441, 237.2334038310586 220.36172658658015, 237.83835441811573 220.87329181850976 M235.02288746970368 223.9687149248871 C236.2135537988565 223.23115805422728, 237.48427273216066 221.8017137154718, 237.82213964542936 220.5699994751168 M237.97580109359797 227.06190230792768 C238.5075221620155 226.1186332232251, 238.7581985579368 225.06778413434478, 240.18582927672273 224.63203598123795 M237.80583154166217 226.62166081531353 C238.68462231801774 225.92125259999546, 239.37695131916573 225.3532762028874, 240.06239281108682 224.47040327091523" stroke="#ef4444" stroke-width="1" fill="none" stroke-linecap="round" stroke-linejoin="round"></path><path d="M233.97665066204178 219.042691170238 C234.89488480581247 218.93528162876513, 238.01331821368095 220.56244426693007, 238.80917538151772 220.72015580863314 C239.6050325493545 220.8778673503362, 238.75597052296706 219.54417696352743, 238.75179366906235 219.98896042045632 C238.74761681515764 220.4337438773852, 238.5318987855673 222.66978522964263, 238.78411425808943 223.38885655020655 C239.03632973061156 224.10792787077048, 240.4439263051421 223.7356240886663, 240.2650865041951 224.3033883438399 C240.0862467032481 224.87115259901353, 238.41440277399886 226.47681095739188, 237.71107545240736 226.79544208124818 C237.00774813081586 227.1140732051045, 236.66174843182978 226.82007310176073, 236.04512257464617 226.21517508697767 C235.42849671746256 225.6102770721946, 234.22581833885917 223.7472638993051, 234.01132030930563 223.1660539925499 C233.7968222797521 222.5848440857947, 234.37803827949512 223.45477798078554, 234.758134397325 222.7279156464465 C235.13823051515487 222.00105331210744, 236.12575223066796 219.34046199580507, 236.29189701628488 218.80487998651557 C236.4580418019018 218.26929797722607, 235.6385352305207 219.41714457080118, 235.75500311102658 219.51442359070953 M239.18962708441362 220.22337005175785 C239.92516627276854 220.4476178434462, 240.67009702565693 219.47945639515802, 241.07963348849594 219.65632985298151 C241.48916995133496 219.833203310805, 242.0124718874684 220.37620775736724, 241.6468458614477 221.28461079869874 C241.281219835427 222.19301384003023, 239.87320834929938 224.65409970941016, 238.8858773323718 225.1067481009705 C237.8985463154442 225.55939649253082, 236.51645288171238 223.5205142405096, 235.72285975988225 224.00050114806064 C234.92926663805213 224.48048805561166, 234.05606940388358 228.06998748798551, 234.1243186013911 227.98666954627657 C234.19256779889864 227.90335160456763, 236.3516522346353 224.64293797343132, 236.13235494492744 223.50059349780702 C235.91305765521957 222.35824902218272, 233.14532683601166 221.87377151527977, 232.80853486314393 221.13260269253072 C232.4717428902762 220.39143386978168, 233.06777220720932 218.99415621669849, 234.11160310772107 219.05358056131266 C235.15543400823282 219.11300490592683, 238.8457858740571 221.2629605851114, 239.07152026621446 221.4891487602158 C239.29725465837183 221.71533693532024, 236.11225019845278 220.51931708955905, 235.46600946066528 220.41070961193913" stroke="#1f2937" stroke-width="1.5" fill="none" stroke-linecap="round" stroke-linejoin="round"></path></g><g><path d="M156.699362333921 193.19223621513598 C156.699362333921 193.19223621513598, 156.699362333921 193.19223621513598, 156.699362333921 193.19223621513598 M156.699362333921 193.19223621513598 C156.699362333921 193.19223621513598, 156.699362333921 193.19223621513598, 156.699362333921 193.19223621513598 M157.01829969076084 198.25742853734027 C159.40934977982565 197.90496112645775, 160.05605398942606 195.0323527112691, 160.15777737697195 194.90423174783714 M157.12514831749365 198.82748955759536 C157.8867175494989 198.07559589384923, 159.13259700799694 196.05413644810784, 160.61183374067377 193.93896399840838" stroke="#ef4444" stroke-width="1" fill="none" stroke-linecap="round" stroke-linejoin="round"></path><path d="M160.7627843925301 192.96974845319068 C161.02089857289653 193.52910457783915, 160.9489653070575 194.56109873148046, 161.03186458618183 195.43154342876463 C161.11476386530614 196.3019881260488, 161.2807307251881 197.4107855674838, 161.26018006727594 198.1924166368957 C161.23962940936377 198.9740477063076, 161.51217287111794 199.72298666598894, 160.90856063870876 200.12132984523603 C160.3049484062996 200.51967302448313, 158.40168957343786 201.1450256035717, 157.63850667282088 200.5824757123783 C156.8753237722039 200.01992582118493, 156.669707695857 197.41550232415804, 156.32946323500678 196.74603049807564 C155.98921877415657 196.07655867199324, 155.512349344619 197.18444911167956, 155.59703990771965 196.56564475588397 C155.6817304708203 195.94684040008838, 156.50951943122516 193.68207798256418, 156.8376066136106 193.03320436330202 C157.16569379599605 192.38433074403986, 156.71439265257314 192.4574060679695, 157.56556300203223 192.672403040311 C158.41673335149133 192.8874000126525, 161.43825198331186 193.7800524936266, 161.94462871036518 194.32318619735108 C162.4510054374185 194.86631990107554, 160.51930561508527 195.85495701019613, 160.60382336435217 195.93120526265776 M158.83966716302757 194.38867918639738 C159.84968697455474 194.2516814094709, 160.36347223933407 192.85784983895147, 160.84475977309782 192.79210836902104 C161.32604730686157 192.7263668990906, 161.54241974820638 193.58517172485745, 161.72739236561003 193.99423036681478 C161.91236498301367 194.4032890087721, 161.9264332366984 194.21986695163184, 161.95459547751966 195.246460220765 C161.98275771834093 196.27305348989813, 162.6678065434587 199.41394071950631, 161.89636581053767 200.1537899816136 C161.12492507761664 200.8936392437209, 157.87366458380663 200.33337043957235, 157.32595107999344 199.68555579340884 C156.77823757618026 199.03774114724533, 158.6753910491604 197.21986597822115, 158.6100847876586 196.2669021046325 C158.5447785261568 195.31393823104384, 157.0717584876372 194.48762495388644, 156.9341135109827 193.9677725518768 C156.79646853432823 193.44792014986717, 157.7595352786574 193.06301909605287, 157.78421492773174 193.14778769257472 C157.80889457680607 193.23255628909658, 156.93090138431106 194.49832097759847, 157.0821914054287 194.476384131008 C157.23348142654632 194.4544472844175, 158.47268321336998 193.4462254611978, 158.69195505443753 193.01616661303188" stroke="#1f2937" stroke-width="1.5" fill="none" stroke-linecap="round" stroke-linejoin="round"></path></g><g><path d="M91.68882064559766 120.77927858704182 C91.68882064559766 120.77927858704182, 91.68882064559766 120.77927858704182, 91.68882064559766 120.77927858704182 M91.68882064559766 120.77927858704182 C91.68882064559766 120.77927858704182, 91.68882064559766 120.77927858704182, 91.68882064559766 120.77927858704182 M91.605196712397 127.28863532659246 C93.10920691112861 126.63346647257488, 94.94220003727024 123.7295534447721, 96.80554146476784 122.56939317119945 M90.66327775695171 128.0787370270176 C93.11875736203932 126.29816958885957, 94.1776467377989 123.2671866805348, 95.48230207093754 121.7606135888182 M95.51153644584353 129.33336094499435 C95.32787674929446 127.9255623853486, 96.31203532510229 127.90697298534839, 96.92279869307049 127.11300289429035 M95.06825385928389 129.07962512397077 C96.01549579566621 128.0451038465743, 96.45574204685192 127.39130226619459, 97.037071250344 127.00361504375246" stroke="#ef4444" stroke-width="1" fill="none" stroke-linecap="round" stroke-linejoin="round"></path><path d="M95.43395599902968 121.48023010146322 C96.28517866961701 121.68447805662838, 96.00144672899168 124.10242987118868, 96.21716932646748 125.05179692316591 C96.43289192394329 126.00116397514314, 96.79558471530166 126.5039529998248, 96.72829158388453 127.17643241332664 C96.6609984524674 127.84891182682847, 96.5309310380756 128.77477734840699, 95.8134105379647 129.08667340417693 C95.0958900378538 129.39856945994688, 93.1369727230786 129.1186201007648, 92.42316858321914 129.0478087479464 C91.70936444335968 128.976997395128, 92.09586258947962 129.41897959593527, 91.53058569880793 128.66180528726662 C90.96530880813623 127.90463097859796, 89.24693368339607 125.38003272829052, 89.03150723918894 124.50476289593443 C88.81608079498181 123.62949306357835, 89.78019104006559 124.04829884208655, 90.23802703356517 123.41018629313014 C90.69586302706476 122.77207374417372, 91.00323982811913 120.9538407763467, 91.77852320018643 120.6760876021959 C92.55380657225372 120.39833442804512, 94.04093032240031 121.62192079956878, 94.88972726596893 121.74366724822544 C95.73852420953754 121.86541369688209, 96.73056562796758 121.28524648367501, 96.87130486159815 121.4065662941358 M91.10554171644897 119.82490274674156 C91.55229860600154 119.33179099184493, 92.57973886250679 121.49364589863482, 93.09743254607336 121.95943846902 C93.61512622963994 122.42523103940518, 93.49010827712473 121.95222886114188, 94.21170381784842 122.61965816905264 C94.9332993585721 123.2870874769634, 97.16941741617244 125.20240941631499, 97.42700579041549 125.96401431648457 C97.68459416465855 126.72561921665414, 96.47120028324258 127.00694021305766, 95.75723406330677 127.18928757007006 C95.04326784337096 127.37163492708247, 93.46670091787203 126.65808015187004, 93.14320847080057 127.05809845855899 C92.81971602372911 127.45811676524794, 94.50135164911515 129.51672629117434, 93.81627938087802 129.58939741020376 C93.13120711264088 129.66206852923318, 89.77125004477324 128.54944586242405, 89.03277486137777 127.49412517273552 C88.29429967798231 126.43880448304698, 88.80610792082646 123.91740514627763, 89.38542828050522 123.25747327207252 C89.96474864018398 122.5975413978674, 91.65075644795546 123.79603179974173, 92.50869701945037 123.53453392750481 C93.36663759094527 123.2730360552679, 94.24884013417086 121.64337292501148, 94.53307170947468 121.68848603865104" stroke="#1f2937" stroke-width="1.5" fill="none" stroke-linecap="round" stroke-linejoin="round"></path></g></g><g><g style="opacity:0.85"><path d="M188.23349249716736 56.30282617936406 C188.23349249716736 56.30282617936406, 188.23349249716736 56.30282617936406, 188.23349249716736 56.30282617936406 M188.23349249716736 56.30282617936406 C188.23349249716736 56.30282617936406, 188.23349249716736 56.30282617936406, 188.23349249716736 56.30282617936406 M126.31930456627127 132.50626845134212 C143.03447890703737 111.55552982971797, 162.13138509078593 96.55894576197602, 188.86024973760695 57.54142378350945 M126.80769616533037 130.0571466333957 C150.06977302104568 101.48020574400257, 177.56223399247258 73.37729769063822, 188.83379672835918 60.628214383928494 M125.70887136172023 138.40548379850281 C145.67621713578103 115.51366305676581, 170.31637160604856 86.00469511936765, 189.42532910122387 61.74713129762639 M126.36485014568534 139.15736457836522 C150.07557318747573 114.30489972778317, 172.92629130303447 88.91382392533485, 192.99635524465555 64.35010088745582 M127.6987955579811 144.8563038324403 C153.98686591294202 116.3537588127745, 175.64231317767084 89.09423234233594, 193.2471851292096 66.39930254235671 M127.72766853368816 143.3837141876506 C147.8678639006711 124.54420224265644, 169.72000368538497 98.60660489193155, 194.58339977590666 67.61651325538563 M125.24061794760132 150.5848155167684 C153.93777695344866 119.65673823008902, 179.04418174463518 93.41669880461413, 197.81352181704523 69.69730741975489 M128.08900071563627 150.46941133111568 C142.96094643112957 133.36519041754147, 155.97203621911063 116.23652211878282, 194.8583179113436 71.84957529602232 M127.30386543909046 153.0045174942099 C157.10227890272114 129.45833811971883, 185.0006870190677 96.97179546072513, 199.83761607324024 76.4108945725437 M129.2190571937892 156.42570855773317 C141.8644327773904 138.24217157644594, 155.71650235484455 119.06960971894635, 199.56944515322587 75.53241455833871 M128.41999202792945 162.77102966681923 C141.09477077703275 139.79465324611292, 155.24014814991565 128.6277894243325, 199.42649480630416 77.4160626434459 M130.90935055737796 160.19660467580763 C157.87352677550487 128.7080398839855, 185.97330878372685 99.08735687960495, 199.01824200381296 79.44503359130756 M132.54602462262784 164.5103506773192 C155.06177146508566 134.62241444032773, 182.50033645175293 104.54517134748532, 204.24911201171793 80.43093153451595 M130.73634130866205 166.08710223431171 C158.66506712305272 132.53942577346007, 187.42607261767486 100.7962925763923, 202.52747105233587 82.30018120323334 M131.63274013169507 173.1547291684326 C154.28883952045499 145.60539992430205, 171.8866504150066 122.40614996377387, 201.54393556900055 84.2987094686994 M129.7296149499009 169.79907878221832 C152.86822790711736 143.35285541546207, 177.09319703789762 115.34671960408954, 205.54878377206356 87.12631952331157 M128.9928425506122 175.07853504221382 C148.2334690945107 154.0850045321404, 171.4705329280311 129.0664758204531, 203.96741947363304 86.7500163480507 M131.6400590703256 176.46715812783182 C149.85413619451808 158.40505549912564, 162.42871813258097 140.6484010870465, 208.21119275222708 89.92994735984671 M131.1646087878887 178.42651694138567 C160.13712314188956 152.75043381595194, 192.4797943826621 119.22603009559472, 208.14553160513447 91.4405603955154 M133.1035091721956 180.686967820125 C152.48871178916812 160.9407987854301, 172.8875840579792 137.95687535389348, 207.3725994660954 93.2332768420343 M132.88006575203406 186.2496735086709 C156.72786996646528 159.66305448519023, 183.56594277243738 132.44857975336183, 208.5222259589857 96.51346151314797 M132.5089257577704 187.75101040807067 C162.65690124148009 156.86425374255785, 187.9885555500181 126.27972957269456, 211.96826650289952 97.93655677817884 M134.0331674385293 188.841124646124 C166.42589845653526 161.1002815690738, 190.58557818382167 126.0910132892051, 214.16702944369632 100.88221834367114 M135.66657141628102 190.08453469997323 C152.59291076967176 171.77005387160696, 170.67278311715117 149.98872611794172, 213.31840436489898 100.10103971725303 M137.94344075588393 194.86436899646773 C167.19868468917247 161.42079395391485, 201.03436805348431 121.84363860919196, 214.54321896777583 102.96657952980772 M136.371656649987 195.27379324480546 C161.42641818610244 166.53106478410785, 186.3349542970093 134.92982137459953, 216.39634855435324 105.78485320822969 M136.32416261260744 204.48915520242485 C161.84728708890594 171.0401935170025, 191.59419547193863 135.6795757056929, 215.67599852670523 105.82841497361217 M134.87251696114774 202.5019135915402 C158.34731453207658 174.89251550739138, 181.05177361377994 149.01236252328138, 216.69673666049334 107.4788710594133 M139.0505370041808 208.12735316604983 C155.60628693255987 189.4572821258412, 173.18781014723908 167.78212827622397, 218.5600860000035 110.65468289802998 M137.1387899389943 207.7847695484818 C159.68402933314883 181.342504867698, 183.67522569514213 154.75637965305458, 218.54309515658824 112.8896803999993 M140.42334083911356 211.16121153006543 C163.42083514893574 180.49103201535232, 185.94956898348403 157.05146656843718, 220.20818538315163 118.11975320511566 M138.6250610857862 212.7992386646031 C159.37306158737698 183.79807706472334, 181.32138347394365 157.62674783583788, 221.63631163186895 114.40190503829227 M136.13710102591517 219.87922893719443 C166.2736437096914 188.5134275643968, 189.4716910750887 154.15466063319897, 223.40251455566863 122.62308411781476 M139.53904090378288 217.3190734888769 C163.33916254660582 188.1140833766755, 192.3117436896325 159.0695904148206, 222.70616255960445 118.6158821034877 M140.24827156006666 221.01202528949125 C158.76502926096038 199.03742339508065, 185.63687057505842 173.30781801805074, 224.9432775130355 120.05154553818167 M140.90974198221537 221.25077282960757 C169.86974851748616 181.42928027904364, 204.67595003160727 141.21445703130303, 224.45978552902577 122.20998540389002 M141.26311546603958 222.64176090878763 C173.29092028922926 184.69719896095035, 201.33812391707065 151.21199113276177, 226.0562511637618 126.86238610893922 M143.77536093930522 224.04300091487684 C167.05174749905555 195.15326822397452, 192.74911359055238 167.03144769241715, 228.28926604239243 127.92359248847204 M144.54529159436234 222.0851035982519 C172.06418908603766 200.98686289712012, 195.5499772155269 167.9143704666005, 230.1609624163569 127.61910447281016 M148.29086521933087 224.66955445410306 C173.65081290730106 195.26248454533152, 198.79377257155457 169.67096444887932, 230.33981460196387 130.5929559062065 M154.1643268535445 226.45555200060676 C170.2983663470397 206.1615312201705, 184.3122309061827 185.24091718956487, 234.23886526630193 131.32732053184898 M153.07646532455186 226.29168599625896 C183.49840754273498 189.6083730001034, 215.98408857107722 156.4890019509136, 230.37794379697115 135.1870744653979 M155.23955718108607 228.81814517835224 C181.42010481474514 199.13261063483066, 204.83221668200213 173.54736090409025, 232.84092759311585 139.31774250900116 M155.06155578621818 228.51281351009453 C169.4373302087883 209.26299437167435, 186.76006014787288 194.10600683933455, 234.09905510068324 137.59066029524175 M160.28406851448696 229.14417219398834 C177.71115889466827 210.3035753450671, 190.02947224482674 194.862091275611, 237.68004436328908 140.963199886544 M162.12865613557977 229.23322996435977 C176.44657279633725 208.31400602532352, 194.45814567105498 188.00275753444322, 235.81985207334063 142.8211717842653 M166.60469679124728 228.91117211001512 C192.58965942931374 200.99463556632577, 212.6610436766901 169.54972747492255, 238.1507424853312 144.05219130720022 M164.8134109038867 228.95010332780475 C188.96271351691095 202.06762888172275, 213.97662116448993 175.0831066386897, 234.89804521720282 147.50236148144128 M171.3020279488669 232.10293398893245 C192.05604895308622 202.63789108772875, 210.61049303381023 181.71586820555484, 238.1534169257327 153.57004625324709 M168.8045896223889 231.85747656917937 C193.4959946803005 201.72694236709313, 217.42578820306852 171.72245655365302, 238.8565880925103 150.74543777529698 M174.12645695383645 232.65478731301766 C195.51404458578062 202.09501724425863, 221.16829378101204 175.44227317343058, 237.12615362199355 155.76305378718456 M173.70014585132694 230.19155807701094 C194.3865832917002 209.94598681831718, 212.89096538352814 187.34271895327777, 239.5155002305131 157.51319363458236 M177.05395168567486 231.2724403052163 C204.45142381605496 207.5040878786886, 226.99994524982762 179.7837300183592, 239.30078851161383 163.18375297151266 M177.28298106396983 230.74955998049495 C193.45662650989985 216.24261305415456, 208.67922540467617 196.25988250164363, 239.74792616246125 162.96529702804742 M184.02240711087265 231.90372244780554 C202.88935161341092 208.99017539721368, 224.91144831873527 188.33934657858399, 243.10290753209347 164.49093286873136 M183.15729882055797 232.26144066815866 C203.95808648493934 212.1936966565756, 222.01324094249966 188.6856078549124, 241.1801354196047 166.35829092444217 M187.7074091669298 232.9574228032854 C205.68354764824815 212.8691505886294, 224.33894609546604 193.78381031715074, 243.35184662093246 170.24963254134073 M185.82436865234146 232.70874310875206 C199.41803740104538 220.76655129043996, 212.35234497641346 207.04194805853462, 241.49152253319346 172.1455932925166 M191.57829379134637 233.9485804341559 C212.44615326645533 213.46104838770177, 227.7743699160584 197.04107524842533, 239.20463268664034 176.2858506320635 M191.03858509057028 236.06988527102513 C206.27496616625814 218.11807938749644, 218.03617668154698 203.20522949647543, 240.65854800548703 175.83220668124352 M192.89814692162227 236.498484402917 C210.3621093195669 222.8843477558604, 216.14498291594708 212.3374250723673, 245.38021972469807 180.86770704295407 M197.10746766649436 237.4201601237279 C209.82323801885298 219.7913925221926, 225.05597536390866 202.03966139112777, 244.0789744257164 181.2558798989273 M197.72380449525753 238.93467377206872 C207.64482548955075 224.66999379315664, 216.54295495030146 218.825519291077, 245.6231346436152 190.2337004167353 M201.79166091136375 236.83173563561033 C212.9954955939373 222.62864956272134, 225.6659131423592 208.9328164814812, 243.1355122961411 187.01536549454082 M204.56191147874273 236.53622802388836 C216.35726099112344 221.84922045579893, 233.18722404638083 208.8047077622036, 242.32771338089168 190.97386981590716 M206.660993385419 236.51894519519973 C215.41203445096343 227.738078575135, 227.73838033279097 215.03030180400398, 243.9200561480111 190.95158143683403 M210.34468575159676 238.35260538132133 C223.43220446568725 223.94371968530413, 237.32691720274687 206.11334671399348, 245.28204187402758 196.5845043029696 M208.57024156192904 238.55712593169153 C225.0492437364919 223.96056164040039, 236.79527403389105 205.02773461733273, 244.6776255125764 198.40232069455686 M216.56627228031016 238.07538532664492 C222.68050595780832 230.71059199206246, 235.69202069939644 217.2385930063624, 248.2679560605228 203.6681429404227 M213.69548400113442 241.45436123361304 C222.10102705427116 230.4329264256912, 232.52030159297712 218.79264734301776, 245.90636492108703 200.90225123645945 M216.05850700238298 243.65710692235913 C226.7590375945004 233.3179690900306, 235.84253342561286 221.78432528149827, 250.46104187787745 205.73357479076645 M219.4098652342851 241.07031906971423 C228.11450568560846 228.48415059829702, 240.18578801456871 216.28857346017278, 247.65754390479302 206.0829160312917 M221.44697585531512 245.55655923096404 C231.99073915281298 231.31224858474417, 242.64862127734625 218.31645213461675, 251.57457623460093 214.15054849672356 M221.83965479263105 243.76154240874516 C232.36593496190812 233.4232577603239, 237.94769778357085 224.60596964544868, 249.37949796595373 210.72744262802638 M228.95101477660666 243.33878131495953 C233.87118537417834 238.92670350435307, 234.64080547385169 229.61692053541802, 250.28376312617434 217.73093396034852 M225.96424720742237 245.08144921945572 C233.62454874029905 238.26870026402995, 238.6260901661106 228.77657482788265, 249.84186469380032 218.051704834968 M233.3837097037576 246.67506223684563 C240.34646644242216 234.85828175988613, 245.07551975400435 226.97857604241824, 248.8893794611071 220.25697982436412 M230.11616200990898 243.68033247059597 C239.09234014375232 235.0412128428382, 245.6200647405441 226.39242264861198, 250.09922959059222 220.93258020108934 M236.75189657426785 244.34294105912238 C242.56269852482308 240.47219323822057, 247.82252226258296 235.2959225153447, 251.74201117689918 225.66247515127037 M236.08104373134086 245.60536013091595 C238.60442200656504 240.62722487094754, 242.13768360331417 236.34797301872374, 253.41536218757938 225.58911169514033 M238.42138081158345 249.11591495976808 C244.693820083502 241.8265971994699, 247.14033179246817 240.1548716450174, 253.934722052726 233.3091045110817 M240.64580636004752 245.48156486840014 C242.48752157755362 242.47881162000257, 244.7635406133076 240.96706598873257, 252.3398267174391 231.0763748792703 M246.31074500883258 245.65453279231923 C250.23119533639786 245.04791159485515, 249.89533949160102 238.17043312815315, 255.79495383428588 238.5773745137744 M245.86769482130447 246.69893062179227 C248.12350762561272 243.165706089262, 249.9806509728171 241.07976393432898, 254.45460720854058 236.6254031625681 M249.04157300078995 247.29198498690042 C251.29546388211145 247.01839359914354, 253.93218669810852 244.33067192836023, 255.30137902481184 242.44768871736434 M249.38482962617405 247.99254890242133 C250.4545714910755 247.7968496775888, 252.1429301213146 245.66040688502886, 255.1919518533133 242.20869331148174 M253.28809252613402 249.67544529122998 C254.40328994606014 249.45265997495466, 254.08645304936888 248.30590070330882, 255.65194459517645 246.8783760960786 M253.27983850487686 249.64558518675852 C254.13514269396887 248.86920764266492, 254.67665735933392 248.0864537065276, 255.45494578574943 247.30884624425457" stroke="#f59e0b" stroke-width="1" fill="none" stroke-linecap="round" stroke-linejoin="round"></path><path d="M187.54324303269385 56.45585973688536 C198.30208818965642 74.58235393119206, 206.98954883819266 88.53763628257259, 235.94159248069164 138.69291445885258 M187.52427019774913 55.81814412006311 C200.37796279035177 78.13337666950866, 210.7234708465761 96.71356356433786, 235.02389766469832 141.44645164583284 M236.99854896262522 138.2392538753565 C240.7103103029719 167.31156820457116, 247.83529012702905 190.18872023172744, 257.4328420795045 250.2640355543325 M234.63366405263778 139.67976387117463 C240.52435981399202 176.35677776085265, 247.63927458098112 212.77706012129468, 255.88509517382005 249.37315125922657 M256.3520544208131 252.36296286146143 C229.54707012929603 248.97018183342522, 200.2213772718244 241.0278194693619, 141.97445449736557 224.9415615510394 M254.764124257072 250.98602891425588 C216.04031434725164 237.4935810352906, 174.5452737109121 230.39135947208, 140.70243247952902 221.56673856193322 M140.19186019804917 225.3321392487933 C133.8265729005035 188.94536351320562, 129.32537361830032 155.31446825854462, 123.65230055987521 134.85712934896893 M138.39525550809347 224.62715039665002 C133.23477537303773 193.7570918682531, 130.15757736219695 164.30370799574035, 124.76890931367561 137.07828404769845 M127.55383711993382 133.12841993734784 C136.83672900672693 116.26506065894775, 156.11963650624784 95.93282133233171, 185.5598417341709 59.69177873560362 M125.14505753755256 134.12919881210274 C139.61107106117197 117.74420431281584, 156.055908049494 98.69004274309854, 188.37574104964733 56.36763609775476" stroke="#f59e0b" stroke-width="1.5" fill="none" stroke-linecap="round" stroke-linejoin="round"></path></g><g><path d="M187.75701624534793 53.238605706075425 C187.75701624534793 53.238605706075425, 187.75701624534793 53.238605706075425, 187.75701624534793 53.238605706075425 M187.75701624534793 53.238605706075425 C187.75701624534793 53.238605706075425, 187.75701624534793 53.238605706075425, 187.75701624534793 53.238605706075425 M186.72216081108203 59.71207654374776 C189.52808528446215 58.76550402879134, 189.51390916332966 57.22392660809715, 190.57628067164887 55.831376061419 M187.66702224734476 59.51846638183234 C187.9776632436147 59.14933631255497, 189.3566708541107 58.21492163823216, 190.51682650513223 55.51930413564478" stroke="#f59e0b" stroke-width="1" fill="none" stroke-linecap="round" stroke-linejoin="round"></path><path d="M187.76340113421531 54.1718517778729 C188.13568713119435 53.663350311988744, 187.59879323279986 53.27048252271386, 187.86324242406675 53.116406466057484 C188.12769161533365 52.962330409401105, 188.59124855862754 52.46300407483234, 189.3500962818166 53.24739543793464 C190.10894400500567 54.031786801036944, 191.97547221033614 56.66240035646045, 192.41632876320108 57.8227546446713 C192.85718531606602 58.983108932882146, 192.36597700568151 59.554378713677565, 191.99523559900632 60.2095211671997 C191.62449419233113 60.86466362072184, 190.92704434858607 61.91134187016607, 190.19188032314992 61.75360936580414 C189.45671629771377 61.59587686144221, 188.37216751886717 59.646114173964726, 187.5842514463894 59.2631261410281 C186.79633537391163 58.88013810809148, 185.65996521375334 59.961105967938124, 185.46438388828335 59.455681168184384 C185.26880256281336 58.950256368430644, 185.8472089602854 57.23396854831402, 186.4107634935695 56.23057734250565 C186.9743180268536 55.22718613669728, 188.2570660131293 53.66638639933942, 188.8457110879879 53.43533393333417 C189.43435616284648 53.20428146732892, 190.10586581913591 54.62256858280267, 189.94263394272113 54.84426254647415 M185.8157324095186 51.775117308772046 C186.45631262659492 50.99122173227004, 186.4507518697814 50.506883498563916, 187.56156083035776 51.24691250288287 C188.6723697909341 51.98694150720183, 191.91798272274693 55.058160750491105, 192.48058617297664 56.21529133468577 C193.04318962320636 57.37242191888044, 191.17721552454452 57.67652636777388, 190.9371815317361 58.189696008050866 C190.69714753892765 58.70286564832785, 191.27650969221733 58.59250323865131, 191.04038221612598 59.29430917634769 C190.80425474003462 59.996115114044066, 190.04631966987876 62.48832566281524, 189.520416675188 62.40053163422914 C188.99451368049722 62.312737605643036, 188.3415524896149 59.805447366053606, 187.8849642479813 58.76754500483107 C187.42837600634766 57.729642643608535, 186.83201369335353 56.590750085949374, 186.78088722538615 56.17311746689394 C186.72976075741877 55.75548484783851, 187.54457429838783 56.754551217238934, 187.5782054401771 56.26174929049847 C187.61183658196637 55.76894736375801, 187.14628098697068 53.61194283783624, 186.9826740761217 53.21630590645118 C186.8190671652727 52.82066897506613, 186.80436652532478 54.16457289283504, 186.59656397508323 53.887927702188115" stroke="#1f2937" stroke-width="1.5" fill="none" stroke-linecap="round" stroke-linejoin="round"></path></g><g><path d="M233.3429151344571 136.59125182232023 C233.3429151344571 136.59125182232023, 233.3429151344571 136.59125182232023, 233.3429151344571 136.59125182232023 M233.3429151344571 136.59125182232023 C233.3429151344571 136.59125182232023, 233.3429151344571 136.59125182232023, 233.3429151344571 136.59125182232023 M233.5861876432077 142.35856202987574 C234.98889892856772 141.6346611983897, 235.46291845499894 139.58451502472533, 235.89667078370584 139.12984509265164 M233.79988489667335 142.2186840703859 C234.76842467489624 141.40839540481622, 235.5704891455075 139.85301184168986, 236.16478351110948 139.11930959379413" stroke="#f59e0b" stroke-width="1" fill="none" stroke-linecap="round" stroke-linejoin="round"></path><path d="M236.5923074515543 139.0104132562175 C237.45586025044872 139.1960522410705, 238.6382854835597 138.24092866274407, 238.78577875634943 138.8168702289945 C238.93327202913915 139.39281179524494, 237.7941122981594 141.88005637273878, 237.47726708829262 142.4660626537201 C237.16042187842584 143.0520689347014, 237.35109020539082 142.0468095589411, 236.8847074971487 142.33290791488236 C236.41832478890657 142.6190062708236, 235.18683662331108 144.15353149169084, 234.67897083883986 144.18265278936767 C234.17110505436864 144.2117740870445, 234.290117638 143.1444357507655, 233.83751279032128 142.50763570094335 C233.38490794264257 141.8708356511212, 232.08719623328014 141.30026644166287, 231.96334175276752 140.36185249043487 C231.8394872722549 139.42343853920687, 232.72393604621917 137.43848463035013, 233.09438590724557 136.87715199357538 C233.46483576827197 136.31581935680063, 233.33549720551534 136.55868696622014, 234.18604091892595 136.9938566697864 C235.03658463233657 137.42902637335266, 237.63042302503186 138.96269184129113, 238.1976481877092 139.48817021497285 C238.76487335038655 140.01364858865458, 237.75948355988518 140.4736534343261, 237.5893918949901 140.14672691187678 M235.53214073233895 137.62367834802092 C236.39388928202652 137.33858830413237, 236.8773346006901 135.60822010152276, 237.2077664766173 136.035033150738 C237.53819835254453 136.46184619995324, 237.22444688383786 139.68734252437446, 237.51473198790225 140.18455664331236 C237.80501709196665 140.68177076225027, 238.9570005455457 138.90661299674485, 238.9494771010036 139.0183178643655 C238.9419536564615 139.13002273198617, 237.63457741656646 140.00128866655604, 237.46959132064958 140.8547858490363 C237.3046052247327 141.70828303151654, 238.2433880229656 143.98190979715292, 237.95956052550233 144.13930095924707 C237.67573302803905 144.2966921213412, 236.82929286158992 142.52464994708177, 235.76662633586997 141.79913282160106 C234.70395981015002 141.07361569612036, 232.23240167862832 139.80374226755663, 231.58356137118267 139.78619820636283 C230.93472106373702 139.76865414516902, 231.2942258098028 142.01043595852332, 231.87358449119608 141.6938684544383 C232.45294317258936 141.3773009503533, 234.52403704680816 138.47567883945823, 235.0597134595423 137.8867931818527 C235.59538987227646 137.2979075242472, 235.23096197687155 137.9720528192356, 235.08764296760097 138.16055450880518" stroke="#1f2937" stroke-width="1.5" fill="none" stroke-linecap="round" stroke-linejoin="round"></path></g><g><path d="M252.76880147121312 247.55383971295328 C252.76880147121312 247.55383971295328, 252.76880147121312 247.55383971295328, 252.76880147121312 247.55383971295328 M252.76880147121312 247.55383971295328 C252.76880147121312 247.55383971295328, 252.76880147121312 247.55383971295328, 252.76880147121312 247.55383971295328 M254.87059610388152 251.9223975955203 C255.57144984390146 250.90176386480388, 256.770674781112 248.91797585133725, 258.3926840945601 247.73130573478883 M254.45997780128295 251.76631285871116 C255.11462722157975 251.02188501124485, 255.88472175862134 249.62255035797452, 257.52242007958586 248.0170389134193" stroke="#f59e0b" stroke-width="1" fill="none" stroke-linecap="round" stroke-linejoin="round"></path><path d="M257.4360071018963 247.84676879827575 C258.3307688224001 248.21029963721526, 259.80500024972844 248.61890164447436, 260.07269276676635 248.7146265153662 C260.34038528380427 248.81035138625805, 259.39596659648964 247.98113059520327, 259.0421622041236 248.42111802362683 C258.68835781175756 248.8611054520504, 258.5025444429899 250.65224462564245, 257.9498664125701 251.35455108590753 C257.39718838215026 252.0568575461726, 256.15205884937035 252.65756467038815, 255.72609402160455 252.63495678521735 C255.30012919383879 252.61234890004656, 256.0495007740318 251.39492165147948, 255.39407744597546 251.2189037748828 C254.7386541179191 251.0428858982861, 252.21601399197237 252.20704805942208, 251.79355405326646 251.57884952563714 C251.37109411456055 250.9506509918522, 252.37901726344404 247.9643440340346, 252.85931781374 247.4497125721732 C253.33961836403597 246.9350811103118, 253.8767465203703 248.40885740929835, 254.67535735504228 248.4910607544687 C255.47396818971427 248.57326409963903, 257.2708178379217 248.11089036898733, 257.650982821772 247.94293264319526 C258.0311478056223 247.7749749174032, 257.0746403620442 247.77985154044984, 256.9563472581442 247.48331439971622 M254.16494682213622 248.25366254736002 C254.4155488555615 247.64655236530146, 255.33226860221754 245.4875970443236, 255.64213006354709 245.63785055452544 C255.95199152487663 245.7881040647273, 255.23242950539958 248.4446562007781, 256.0241155901135 249.15518360857104 C256.81580167482747 249.86571101636397, 260.16733046546767 249.31523682999244, 260.3922465718307 249.901015001283 C260.6171626781937 250.48679317257358, 258.2412850451169 252.42216291593488, 257.37361222829156 252.66985263631452 C256.5059394114662 252.91754235669416, 255.18779299829058 250.99499928827976, 255.1862096708786 251.38715332356085 C255.18462634346665 251.77930735884195, 257.3974869953348 254.6943779476558, 257.3641122638197 255.02277684800114 C257.3307375323046 255.3511757483465, 255.4184939976806 254.65415993817095, 254.98596128178818 253.357546725633 C254.55342856589576 252.06093351309505, 255.2577177471065 248.2462380908215, 254.76891596846514 247.2430975727734 C254.28011418982376 246.2399570547253, 252.4324349810485 247.342248816699, 252.05315060993988 247.33870361734446 C251.67386623883127 247.33515841798993, 251.77363686451488 247.36215955591535, 252.49320974181342 247.22182637664616" stroke="#1f2937" stroke-width="1.5" fill="none" stroke-linecap="round" stroke-linejoin="round"></path></g><g><path d="M135.301605917333 222.2919181037312 C135.301605917333 222.2919181037312, 135.301605917333 222.2919181037312, 135.301605917333 222.2919181037312 M135.301605917333 222.2919181037312 C135.301605917333 222.2919181037312, 135.301605917333 222.2919181037312, 135.301605917333 222.2919181037312 M136.1393613838788 226.86588807865607 C137.88700710655453 225.27494008775068, 140.41530275948938 223.3080894539566, 141.95786226190697 220.78108550875012 M136.85565994303784 226.6736372446977 C139.0322163485656 224.95065102422708, 140.7033508692991 222.69784181822942, 141.29192574702273 221.5995755319161" stroke="#f59e0b" stroke-width="1" fill="none" stroke-linecap="round" stroke-linejoin="round"></path><path d="M137.1775728822214 221.19613839835557 C137.46025020366704 221.1796214131056, 139.09217280328693 219.6511877642262, 139.94172955678374 219.70104417094709 C140.79128631028055 219.75090057766798, 142.12794199165413 220.78654173340274, 142.27491340320233 221.49527683868087 C142.42188481475054 222.204011943959, 140.85078598044947 223.45094335177868, 140.82355802607302 223.95345480261585 C140.79633007169656 224.45596625345303, 142.33987694792265 224.05943992627482, 142.11154567694368 224.510345543704 C141.8832144059647 224.9612511611332, 140.21291164316096 226.30385002185216, 139.45357040019925 226.65888850719105 C138.69422915723754 227.01392699252995, 138.24077175895133 227.37613595401461, 137.5554982191735 226.64057645573737 C136.87022467939568 225.90501695746013, 135.3291755142589 223.13971938777763, 135.3419291615323 222.2455315175277 C135.3546828088057 221.35134364727776, 137.11569949234794 221.49170379705663, 137.63202010281393 221.27544923423778 C138.1483407132799 221.05919467141894, 138.0249270586187 221.2997739325912, 138.4398528243282 220.94800414061453 C138.8547785900377 220.59623434863786, 140.17344965893142 219.44051114533454, 140.12157469707094 219.1648304823778 M139.65858930347386 222.00867198582895 C139.52827145424155 222.04229534360636, 139.8025834241156 220.86367855301123, 140.38950282403823 221.6400083372113 C140.97642222396087 222.41633812141137, 142.83657256325927 226.18478456980384, 143.18010570300973 226.66665069102936 C143.5236388427602 227.14851681225488, 142.94577537477898 224.62546262862958, 142.450701662541 224.53120506456438 C141.95562795030304 224.43694750049917, 141.4896754936496 225.7597749961444, 140.20966342958187 226.10110530663815 C138.92965136551413 226.4424356171319, 135.11837203742843 226.97788661071485, 134.77062927813458 226.57918692752688 C134.42288651884073 226.1804872443389, 137.95473635039838 224.59737611517107, 138.12320687381873 223.7089072075103 C138.29167739723908 222.8204382998495, 135.78565336985284 222.22613971067062, 135.78145241865676 221.24837348156214 C135.77725146746067 220.27060725245366, 137.27700587777204 218.06443219779212, 138.0980011666422 217.84230983285943 C138.91899645551237 217.62018746792674, 140.14598261559175 219.65182598486066, 140.7074241518778 219.91563929196604 C141.26886568816386 220.17945259907142, 141.5616543898306 219.08013589703742, 141.46665038435856 219.42518967549177" stroke="#1f2937" stroke-width="1.5" fill="none" stroke-linecap="round" stroke-linejoin="round"></path></g><g><path d="M120.34086220878757 133.76100138914282 C120.34086220878757 133.76100138914282, 120.34086220878757 133.76100138914282, 120.34086220878757 133.76100138914282 M120.34086220878757 133.76100138914282 C120.34086220878757 133.76100138914282, 120.34086220878757 133.76100138914282, 120.34086220878757 133.76100138914282 M122.6744793804651 137.4552417987056 C124.11110578579287 136.45352250795827, 124.76120658223569 134.51272362296697, 125.2265242770973 133.85405520739823 M122.54160094729717 137.3603943493433 C123.34052722275615 136.4646138488191, 124.10947239362591 135.61321014304482, 125.16166518635184 133.92088583382636 M127.30242370283749 138.15507945625632 C127.49053836100732 137.11568852154528, 128.3021078362479 136.49839756594565, 128.5598562705753 136.02226278548088 M126.93257594315853 138.35387199318555 C127.61108190317623 137.4471386533562, 128.31727898715613 136.81703690475163, 128.90267394239584 136.17409923386717" stroke="#f59e0b" stroke-width="1" fill="none" stroke-linecap="round" stroke-linejoin="round"></path><path d="M122.7746935156522 131.20188894898567 C123.40462898322704 130.827850863822, 124.5020310682187 133.18885575170617, 125.29736642614886 133.6615250028933 C126.09270178407901 134.13419425408046, 126.94193955867235 133.7090007312919, 127.54670566323317 134.03790445610855 C128.151471767794 134.3668081809252, 128.92417284881853 134.91081224525496, 128.92596305351384 135.63494735179333 C128.92775325820915 136.3590824583317, 128.0219605781347 138.047846804023, 127.55744689140505 138.38271509533882 C127.0929332046754 138.71758338665464, 126.88657206490166 137.79894445076002, 126.13888093313595 137.64415709968821 C125.39118980137025 137.4893697486164, 123.94184411406208 137.66785652561296, 123.07130010081082 137.453990988908 C122.20075608755955 137.24012545220305, 121.36717517148114 136.9805053046874, 120.91561685362839 136.3609638794584 C120.46405853577565 135.74142245422942, 119.99251171475471 134.17363048604136, 120.3619501936944 133.73674243753405 C120.73138867263408 133.29985438902673, 122.33247769761482 134.1993302388459, 123.13224772726652 133.73963558841444 C123.93201775691821 133.27994093798299, 125.16865190652757 131.24155995604204, 125.16057037160454 130.97857453494524 M127.77497745907871 130.2665172518956 C128.80016998054523 130.75773668524874, 128.94248899655207 133.2299653085942, 128.85435057968138 133.8387253862456 C128.7662121628107 134.44748546389704, 127.15471314566885 133.04684756350122, 127.24614695785453 133.91907771780416 C127.33758077004022 134.7913078721071, 129.73985855093437 138.53002292739998, 129.4029534527955 139.07210631206328 C129.0660483546566 139.61418969672658, 126.56770452263417 137.36449746602295, 125.2247163690213 137.1715780257839 C123.88172821540842 136.97865858554485, 121.58182974382511 138.13116135137724, 121.34502453111824 137.91458967062894 C121.10821931841137 137.69801798988064, 123.50829038046682 136.6588998349971, 123.8038850927801 135.87214794129403 C124.0994798050934 135.08539604759096, 122.89170939380853 134.03146123269573, 123.11859280499796 133.1940783084105 C123.3454762161874 132.35669538412526, 124.48754379940259 131.08096164795356, 125.16518555991675 130.8478503955827 C125.84282732043091 130.61473914321184, 126.65242385680726 131.78150755990075, 127.18444336808292 131.79541079418536 C127.71646287935859 131.80931402846997, 128.38816191048022 130.9009282323164, 128.35730262757073 130.93126980129037" stroke="#1f2937" stroke-width="1.5" fill="none" stroke-linecap="round" stroke-linejoin="round"></path></g></g><text x="188" y="28" text-anchor="middle" dominant-baseline="central" font-family="&quot;Comic Sans MS&quot;, &quot;Segoe Print&quot;, cursive" font-size="14" fill="#1f2937">Speed</text><text x="309.73523408577967" y="116.44582472000673" text-anchor="middle" dominant-baseline="central" font-family="&quot;Comic Sans MS&quot;, &quot;Segoe Print&quot;, cursive" font-size="14" fill="#1f2937">Power</text><text x="263.2365122934366" y="259.5541752799933" text-anchor="middle" dominant-baseline="central" font-family="&quot;Comic Sans MS&quot;, &quot;Segoe Print&quot;, cursive" font-size="14" fill="#1f2937">Range</text><text x="112.76348770656345" y="259.5541752799933" text-anchor="middle" dominant-baseline="central" font-family="&quot;Comic Sans MS&quot;, &quot;Segoe Print&quot;, cursive" font-size="14" fill="#1f2937">Cost</text><text x="66.26476591422033" y="116.44582472000675" text-anchor="middle" dominant-baseline="central" font-family="&quot;Comic Sans MS&quot;, &quot;Segoe Print&quot;, cursive" font-size="14" fill="#1f2937">Style</text></svg>