<svg xmlns="http://www.w3.org/2000/svg" viewBox="0 0 500 300" width="500" height="300" role="img"><g transform="translate(20, 20)"><g style="opacity:0.4"><path d="M16 6 C107.33349758721889 3.7620326425880197, 107.17769036628306 -2.4083291504532096, 197.88142249919474 -1.6545413706451653 C197.81650945151895 36.481513959392906, 198.55926869119256 67.12436070151628, 198.4425996925682 148.52975995875897 C109.07103923819959 148.2350671324879, 108.62555232308804 154.1361877832562, 13.642969253286719 153.76882540322842 C21.176603337948023 108.43544047661126, 21.57707854193896 62.23086049668492, 15.63066089488566 8.032057025656105" stroke="none" stroke-width="0" fill="#ef4444" stroke-linecap="round" stroke-linejoin="round"></path><path d="M16 6 C106.74318771846592 6.5143580686300995, 107.07833084352315 -0.19185229428112507, 195.8000539470464 -0.9959221232682466 M196.52384320609272 0.23540130145847796 C195.6811638859555 53.02005159907044, 197.1430000928685 105.80958966828885, 197.31751833073795 149.32734305150808 M197 148.8 C106.79283220879734 148.10355085618795, 107.40337904803455 153.81002767570317, 16.976439346000554 154.90367079265417 M14.95033994205296 155.45934283845128 C16.432679109345376 118.10468441404403, 14.710049788723886 80.09516873560845, 15.47838703878224 5.620749057456851" stroke="#ef4444" stroke-width="1.5" fill="none" stroke-linecap="round" stroke-linejoin="round"></path></g><g style="opacity:0.4"><path d="M16 154.8 C105.36699517443776 153.12406528517604, 105.05538073256612 158.7833416990936, 195.96284499838947 160.29091725870967 C193.69292127908466 188.64863561406733, 195.1784397584319 213.21993679359554, 197.08519938513638 262.2595199175179 C108.84207847639918 261.6701342649758, 107.9511046461761 255.47237556651234, 14.085938506573438 254.7376508064568 C19.50466045513153 234.6463155041635, 20.3056108631134 207.2125900952518, 18.06132178977132 156.06411405131223" stroke="none" stroke-width="0" fill="#ef4444" stroke-linecap="round" stroke-linejoin="round"></path><path d="M16 154.8 C105.78637543693185 154.6287161372602, 106.45666168704629 161.61629541143776, 195.8001078940928 160.0081557534635 M197.24768641218543 160.07080260291696 C196.7051669827342 192.83077375009657, 197.2288393965602 223.20052044048904, 196.4350366614759 259.85468610301615 M197 260 C105.88566441759467 259.80710171237587, 107.1067580960691 253.22005535140633, 16.752878692001104 253.00734158530832 M15.10067988410592 254.11868567690254 C16.761808733177183 224.42908880040048, 15.716550091934202 193.42977741584184, 16.156774077564478 155.24149811491372" stroke="#ef4444" stroke-width="1.5" fill="none" stroke-linecap="round" stroke-linejoin="round"></path></g><g style="opacity:0.4"><path d="M213 0 C306.00049276165663 -1.1139020722359418, 305.5330710988492 47.975012548640365, 396.6442674975842 50.2363758880645 C396.364181918627 80.05295342110097, 392.99245963764787 104.18990519039332, 392.72779907770456 147.98927987627687 C305.6131177145988 147.1052013974637, 304.27665696926414 97.20856334976853, 211.52890775986015 101.7064762096852 C215.81539068269728 65.96947325624525, 217.0168162946701 33.218885142877696, 211.89198268465697 0.49617107696831225" stroke="none" stroke-width="0" fill="#f59e0b" stroke-linecap="round" stroke-linejoin="round"></path><path d="M213 0 C304.2295631553978 -0.856925794109702, 302.8349925305694 49.02444311715662, 392.8001618411392 49.012233630195254 M394.97152961827817 50.30620390437543 C392.8185504741013 76.00616062514484, 392.4040590948403 104.1207806607336, 394.95255499221383 147.9820291545242 M394 148.8 C304.378496626392 149.11065256856384, 303.81013714410363 98.6300830271095, 213.52931803800166 99.51101237796247 M212.25101982615888 98.7780285153538 C212.2035130997658 64.16363320060074, 211.8356251379013 27.58466612376273, 213.8351611163467 -1.1377528276294469" stroke="#f59e0b" stroke-width="1.5" fill="none" stroke-linecap="round" stroke-linejoin="round"></path></g><g style="opacity:0.4"><path d="M213 99.2 C304.03399034887553 98.64813057035208, 303.4107614651322 159.56668339818717, 394.72568999677895 162.58183451741934 C393.1968473102629 178.66848661869767, 390.56788426895736 192.78230436831714, 391.37039877027274 212.1190398350358 C305.3841569527984 210.94026852995157, 303.6022092923522 148.9447511330247, 211.97187701314687 147.47530161291363 C214.32022846873403 139.32350011020898, 215.92212928469777 122.08691839426756, 214.32264357954264 98.92822810262442" stroke="none" stroke-width="0" fill="#f59e0b" stroke-linecap="round" stroke-linejoin="round"></path><path d="M213 99.2 C303.2727508738637 100.0574322745204, 304.6133233740926 161.23259082287552, 392.8002157881856 160.41631150692703 M393.2953728243709 160.54160520583392 C393.77121238711476 172.44288860410452, 394.81855721476677 184.36372308880092, 394.07007332295177 211.3093722060323 M394 210.4 C303.47132883518935 211.21420342475176, 303.5135161921382 148.4401107028127, 213.30575738400222 148.01468317061665 M212.40135976821185 147.83737135380508 C212.39171849532724 138.8176175454259, 212.70120121284126 127.17843472093344, 212.11354815512897 98.88299622982741" stroke="#f59e0b" stroke-width="1.5" fill="none" stroke-linecap="round" stroke-linejoin="round"></path></g><g><g><path d="M-0.3094909387278255 6.356028598233664 C-0.3094909387278255 6.356028598233664, -0.3094909387278255 6.356028598233664, -0.3094909387278255 6.356028598233664 M-0.3094909387278255 6.356028598233664 C-0.3094909387278255 6.356028598233664, -0.3094909387278255 6.356028598233664, -0.3094909387278255 6.356028598233664 M0.30739449483702186 12.872832513207586 C1.807119742217977 8.782376513479702, 2.8822141673354147 7.831535790525067, 6.18333083045981 5.234905512843866 M-0.34376993971517084 12.194412244314343 C2.1082033634130455 10.868546923641146, 2.7929715532800885 8.74886504035753, 5.248824549441553 5.442214480553408 M-2.2368893453396153 20.127721634014627 C3.299763357660464 16.098053504234397, 7.122705328755613 14.489019230729689, 11.168613696999714 6.443510699693441 M-1.4015327057159732 18.508072906836055 C1.7394212276550847 14.940743697983553, 6.096583363194903 11.337822226087642, 9.238032493300603 7.038226939861059 M1.6521772659605611 24.822156011038988 C1.9134094574444807 21.773298826439454, 10.262075112631218 12.068580174490354, 12.924841867463936 6.492783636504228 M-0.4198333420568837 22.79809640097019 C3.882870749504264 20.158632377612765, 8.28642178048909 15.540760591983965, 15.510354939179768 5.394268431418951 M1.860351923069766 32.00116761676845 C4.283697290893658 26.16462972121786, 10.612417363618325 21.391556948090237, 15.033070983921345 8.44040647729595 M1.0747884109232932 28.864872794373596 C3.6426454810030884 27.4696983754514, 10.258963183105331 19.699291914263117, 16.501178307269868 11.449011833810404 M-0.15552432314134138 35.619025047693206 C4.28015688883921 26.8215612521334, 11.04427000622956 20.36112695162247, 19.073392857827425 17.99772008497853 M-1.1313329391238738 36.36132295486684 C3.904760957399067 31.82137908636586, 10.079985486265413 25.477624500840733, 16.79579090497661 18.273854023112243 M1.0734005250677492 39.650413254840515 C5.1923986118603365 35.03951290631658, 12.329082346748335 26.633149730278177, 15.442593515913192 26.062824830356423 M-0.36900359758287427 42.16100878660216 C4.132122059297082 39.723711817229514, 5.417181031201169 33.18604180249702, 17.708508055906 24.82358482325393 M0.8446763784660185 51.68727092990591 C0.5759599344016371 42.00291053541081, 3.8909211822255023 40.7422495528538, 14.778274955919159 26.941655664456853 M-0.3106443568097269 49.6000584344001 C5.72878810090833 41.99886928626933, 9.501042490360117 37.1710067949273, 16.974148554673565 30.356141138387688 M-0.4230357362155197 52.55582344369384 C3.5121669809747056 48.963837667032884, 10.736593799334758 38.19669289856139, 15.746737088614303 36.357401278975374 M1.0721226068015817 55.744199222190105 C6.169115621371465 48.09273209946657, 14.624348751216338 39.27799792468593, 17.285916608923273 36.49202611333406 M-1.338435908207879 63.65425948789986 C7.3979687785027615 57.59703869041996, 9.87670728850863 53.26793408315398, 13.935390940729636 41.86753704471642 M0.11000150089503791 61.17643429479273 C3.68137013785014 55.01029108585534, 8.475702768147753 49.4257939655428, 16.73781504226114 40.881342072022505 M-3.445172139770547 65.36976401355118 C6.205184833628417 62.40779302290716, 10.455913102957501 54.69303831056876, 16.904286423034154 44.601501653375564 M0.2784361200861539 66.86407555636019 C6.286589656145756 62.09581959917392, 10.047221709372222 56.1240809856997, 16.626173062331162 46.99146715927357 M0.7099825668369846 73.44264697167505 C2.4598843062237794 67.48350813770448, 12.709232774980197 61.214952107836794, 14.678525533268365 54.477730055980025 M0.8794327589904385 73.77287241104473 C2.22002726529489 68.41062276998814, 8.130772860412552 65.29282461051784, 15.092059463748846 54.574088279239476 M-2.091046877616316 77.730472053967 C1.719409177804823 76.50056840058043, 10.281011707466059 68.96234840581151, 17.280085269172766 57.76778220355701 M0.12338312525185985 80.88114050366688 C5.901826156111596 71.46940883714959, 11.904414392557005 65.44232629304771, 18.203105541129684 59.27932983607244 M-1.6452244463994163 85.42508963123149 C4.579950191343682 82.59424566758625, 10.37034708306726 72.80596692467365, 18.659640541516342 64.6604717878021 M-0.028522457523550315 83.6467946581561 C4.885150666407645 78.3530497036945, 9.944427100293 72.04161103148694, 17.43532800211767 66.66988247459304 M2.723124771256666 89.19031339516407 C8.939788726689093 83.04979572026694, 13.638009884895208 76.83710454377956, 15.18897737703012 69.27889917951971 M-0.4627672816918093 91.79502551933295 C4.260154112866178 85.55284899502433, 9.521241316427993 79.86762474126698, 16.91554217031883 71.4880360187307 M1.454727773092435 97.57895329679197 C4.400295442349968 91.87976790629536, 7.191679378129173 84.417112013558, 17.512520686483075 75.41812807040542 M-0.07109505263741198 98.98533249134964 C3.4716391001530003 91.88306452287074, 8.734694778389324 89.38837071999801, 17.222889753377128 78.64335611330598 M2.6871865568484044 105.7969442871424 C4.841519205546496 101.02122693394213, 10.11064667990152 94.2348266575101, 17.83974746761572 82.16221841148644 M0.9313130242551537 103.22565247835838 C3.4276244228479795 100.19459663762188, 9.583994864860982 95.45938659534916, 17.03125204590809 85.6797171624711 M-0.6131989667064588 108.06747505791091 C2.916675775682909 101.65444337122656, 5.902883347670926 102.65759362852754, 17.877009718168555 93.04835515378998 M-0.7123388433701436 109.68648862517976 C3.464497923655526 104.1001168315363, 7.2630079419791045 100.8690943424135, 16.19107284252721 90.3894310703783 M-2.559017770841115 118.44802097990197 C8.89315297232271 108.65577258308801, 9.635687541128618 103.48417230434286, 15.159357348910582 96.43097698901161 M1.5419521680927346 114.7679432557432 C6.331985586442959 107.79668738727142, 13.447353678741493 101.75371725850783, 17.21118135087849 96.82737598184809 M-1.2902199447866025 122.96802074481113 C2.535060370034308 117.75652003316911, 13.883607550463775 110.97414474933558, 17.68689235758228 99.85351886817858 M-0.15948473371225022 122.28739451486928 C4.461033349348643 117.1884891835315, 8.251849693480514 110.89963004684773, 15.045146365577411 103.33273880103276 M-2.881703490802389 126.04590930366558 C2.9789764307986797 122.98720794293627, 6.428554582469404 118.40862678710172, 17.45659174192419 110.41254074231807 M0.7744192458304355 127.54652930671018 C3.0211535538264083 122.31770425137586, 7.479732314927329 119.50850488794529, 17.77309918123951 108.54314393208449 M-3.0114914111479893 130.85324660749254 C7.5332662809023185 130.27042989814942, 13.012803156894595 117.7393519159709, 18.394130412705263 111.92185630312565 M1.2612954013362754 132.94547203541813 C6.422833779825149 127.13888494650976, 12.597564013212311 120.10174354557734, 17.68355650550874 115.80878201982381 M2.571091204945586 142.07884634798765 C5.424165323249072 134.45243425171017, 7.400349161603959 129.77934130785926, 16.446294396656544 120.92956592140577 M1.2271604404492593 139.59691334581373 C5.044324812180586 131.27878904722027, 12.446912474715553 124.88865111499305, 15.315833661991151 122.05944288818024 M-1.86216961579064 145.14580889595524 C7.320226622226301 138.75599148533473, 11.072094201988886 138.31361360733717, 17.832508604546987 129.25573328885397 M-1.1511703132245885 145.79314306182638 C4.240838166396125 140.6531487793962, 11.647528233052071 134.75858283439345, 16.06157235833069 125.99219218197427 M-1.766848962587676 151.14919794309097 C2.250237255741564 149.87469937724717, 7.3198821759591866 143.8884761477151, 19.137250034117137 134.4094183564975 M-0.04455515204127778 151.9937268282767 C3.772889614994152 147.56159943972514, 7.6360992303550805 143.32183310201847, 15.807153889142906 132.93840430535812 M2.1665301622949613 156.873073440422 C5.450325105851227 149.89678377390362, 12.575131968971444 141.2040990721119, 16.041870683107483 135.95280607536353 M0.470887218614675 159.29253904931682 C4.922577225051121 150.52842775411168, 13.354752585141261 145.1642524952131, 16.815522049043285 140.07789116248406 M2.744319756597813 166.75462033897554 C5.69362629463527 154.85388817807106, 10.081903808743558 150.01696406464245, 15.256420462287002 147.8653351371477 M-0.9043994066411898 164.23189162909898 C7.025728623557977 158.30458369763076, 12.55671547685175 150.70370748408394, 16.40800604567581 145.65303089817266 M-1.7984302689101896 173.24827733044717 C4.798432620924255 166.59624224872476, 10.29792423622873 161.69934769587226, 17.8120603983867 148.96073091265438 M-1.2115858201649388 171.2166627124438 C5.079275453994646 165.06051455702197, 10.360726012155089 156.72669503488726, 16.606733702646476 152.23580083635326 M1.0944411125020368 177.64276978564135 C3.839925576321104 173.64875602949877, 8.106965498458358 164.6494625240355, 14.912590402175601 156.62468209357914 M0.408955801649509 176.58132962328068 C5.8333610678266234 170.4122735009051, 10.930637440547393 164.9129609447716, 15.936159227599319 157.3154541218465 M2.151733811603424 180.59878639625362 C5.058443708533988 174.1116211796457, 15.283631548610323 168.37141477959935, 16.02686247139419 164.4318736309492 M0.9191796664460867 181.57764550643017 C7.234821913421658 177.57452066981136, 12.223556093747952 170.46663371364528, 15.865476415149818 162.96555265880463 M-1.6327001738655014 190.1660121133112 C3.351776946436533 184.92144221546928, 11.772577088065983 176.90321903528417, 16.020603603782952 167.31011547579183 M-0.1742204311596794 189.24167226604453 C6.195465656003079 184.212249175073, 11.829049037154185 178.30886061999016, 15.890441559913455 169.0580958513798 M-1.4681338461642128 195.74725688784133 C7.601597359569686 187.15752144710856, 10.94997623712718 183.91221368769325, 16.688238710110916 177.10447131980254 M0.6620118034477372 194.40790930627594 C6.597724862428791 188.55016675418227, 11.11976478285609 182.65659245175186, 16.615196369534267 174.47764934439255 M-0.03514229452376298 202.86258441153953 C6.396508573216186 198.4984398485562, 4.346374898284974 192.0284261580373, 19.645303817109063 182.59429153378576 M1.2695180779122837 200.92342227194496 C6.848134383980732 195.11576582445696, 11.54486659401261 187.75796835439678, 18.19468116761823 181.9883779617724 M0.6068105077869006 205.96634505521027 C4.428799088855357 203.31000083311167, 7.482484012284452 201.99296442805698, 18.979973835546403 188.03088980943713 M1.8407387158400128 207.31487598698106 C5.012106052005393 201.53776630645964, 9.18172083412221 198.7810806772123, 16.936162661809355 187.22172234833988 M-1.929100528463289 214.1848525105491 C3.1772767159127184 204.2904752638405, 14.09108535460437 201.77482605647594, 13.345475763163416 192.35457609778373 M1.5204404248748575 211.77621109620478 C4.0611298787964945 208.57472193695892, 10.516698489738728 200.28447081018444, 16.54164714672312 193.14343190824718 M1.7353515944662377 217.73341672858325 C3.497285630513426 216.3119440099448, 11.77433225792602 206.34830276218844, 14.691911597700628 198.35878534985295 M0.04812949963238683 220.23567700376836 C6.382889457855864 215.64580458981297, 10.279355411505003 206.85315082758325, 15.189703416975053 201.66769354564659 M3.0752688743159498 222.68047266033994 C5.127463437654131 222.87276611192152, 10.827249190974282 213.86393090493033, 15.398081249927028 205.8542062573402 M0.8398747347280704 225.169960613824 C2.871555500676412 220.15485775599515, 7.36671699780236 216.75662857075324, 16.617285680209143 206.87126040535856 M0.39445122185483683 231.3117089975147 C4.086852503155699 227.60580375530594, 13.076702422802699 217.2032047365445, 16.3638957465736 213.28581419105 M-0.32986966219410196 230.81831507119225 C5.348955436957944 223.73715048786843, 12.369624494675218 218.10621695019486, 17.362146760031376 211.06048481131262 M1.317809663813938 237.347101110912 C4.899546478861533 232.05962019555932, 14.83703409442856 223.94137451547877, 16.461904998409377 221.07054784267788 M0.7141491324719085 237.24959269980255 C7.403277172017884 231.55012114550618, 11.948034428112045 225.12387372549017, 17.764365864085782 218.5589949083293 M-0.5571058890377998 242.0785876922274 C2.532940549061369 242.1872633015862, 3.823183967725739 233.2907898747756, 15.029711003174842 226.81434216325107 M-1.2504896736299516 243.74992164447548 C5.115170061628008 239.58600151230686, 8.389500244654126 233.95006041870016, 15.608761786987841 226.17472760056083 M2.432306561040164 249.5871036924881 C6.894394418405756 242.04616382259593, 10.473889408247445 239.90864977659626, 17.401790758610492 231.27625710379684 M-1.6014672858841408 248.88973880936328 C5.90184202456268 245.0023665797302, 10.373112700041496 239.28900703100683, 17.206715823353058 229.21405729215945 M0.45764206976932365 251.99728990227578 C9.16543376250179 246.6441599266304, 11.413961796099242 244.01357757721902, 18.041319175485317 234.7326063560107 M0.9222156483058341 255.02849943817256 C3.3329313792949975 250.80743396278257, 6.441231685647454 245.52439382176115, 18.077994680825416 235.49592462794567 M7.460271835259811 256.29795635142494 C11.056170973679826 249.77043908207057, 10.60598782333646 247.97848304550521, 18.504401884718554 241.99810405948324 M7.738334551758782 253.06334447325338 C10.297656763305774 250.69582777247302, 13.164262417022295 246.6349573352508, 17.274837936579008 241.71676341534717 M11.877080454344092 254.44616260915546 C14.832280072083416 253.18280493904234, 15.666798751470914 249.28684191005496, 16.544339262174194 248.91538950873954 M12.04631790746206 254.42726206652372 C14.02535814438712 251.87225356264406, 14.84812662177492 250.29417461159892, 17.04925260573787 249.26739667093796" stroke="#ef4444" stroke-width="1" fill="none" stroke-linecap="round" stroke-linejoin="round"></path><path d="M1.0972972130775454 7.2337724661827085 C2.7907870349287984 7.411039142489434, 5.683185548186302 3.707568759799004, 14.98419883966446 6.50218944311142 M-0.8302919209003449 6.338686219453812 C4.104129524528981 6.8757564514875416, 7.193842718005181 6.146575505137443, 15.257120913267135 6.963604317903519 M18.01607630550083 3.7048340305848133 C15.188297306546989 61.55460686123447, 16.095556545140777 111.72851154651426, 17.82432656757126 252.8594513921637 M16.390537723541517 4.9513938726083175 C17.85386805636394 71.4337175454375, 16.57279196083261 139.16012710004344, 16.533801329740495 254.46212550349583 M17.347586061954498 253.726796605587 C13.868188666403295 254.1327988883257, 6.943481212258338 253.43708729469776, 2.3506644463539126 253.48348994970323 M14.792413996458054 253.81602302670478 C9.872920739352702 254.38164033281802, 4.989578605294228 254.03416592943668, 1.2018556392192843 254.05356075406075 M-0.9453952490893949 253.63072864582324 C-1.8878490046524943 180.8661327821321, -4.160711788155874 111.97872398721174, 0.7764113591895282 4.417684557717038 M0.28594817302474085 255.3096168772639 C-4.020308390014055 162.92803200814632, -3.3563912101413327 72.39053470311012, 0.5782287791858775 7.296244241490021" stroke="#1f2937" stroke-width="1.5" fill="none" stroke-linecap="round" stroke-linejoin="round"></path></g><text x="20" y="130" text-anchor="start" dominant-baseline="central" font-family="&quot;Comic Sans MS&quot;, &quot;Segoe Print&quot;, cursive" font-size="14" fill="#1f2937">Visits (10)</text></g><g><g><path d="M196.84016518434188 0.1838689223070844 C196.84016518434188 0.1838689223070844, 196.84016518434188 0.1838689223070844, 196.84016518434188 0.1838689223070844 M196.84016518434188 0.1838689223070844 C196.84016518434188 0.1838689223070844, 196.84016518434188 0.1838689223070844, 196.84016518434188 0.1838689223070844 M196.3993338465425 6.294402315401805 C199.714491209132 3.2145243062250906, 199.76529116659728 1.1679135170286916, 202.90273428586403 -0.3837750435434515 M197.01700497743812 5.577561777615321 C199.44635289790696 4.007403131059188, 201.04619483125626 2.25557469284839, 202.95372172382753 -0.609157108124369 M195.41222299025068 13.126396539939993 C198.9763310246757 7.2302042699600495, 204.52282607409634 6.427206379663508, 206.60628461108124 -2.166672045138019 M195.80293626949796 11.167099085582846 C199.69564676466493 6.699437991723073, 206.31058214297494 1.9086657046441258, 206.58512220368303 0.3027604351972173 M196.37969497893147 16.986900437358383 C199.9343201545165 14.619622283040062, 207.3097357426063 4.97146451461936, 210.23566651515657 -2.3135239665873857 M197.03567376289658 17.738781217220787 C203.158135811821 12.24978665113336, 209.0394363449316 6.379792724474156, 213.80669265858825 0.28944562324205947 M197.71356014620187 24.192430051518624 C204.828807451091 17.131689910084543, 207.42724703960508 11.794743006531686, 212.7454044851613 3.8480664385884946 M197.7424331219089 22.719840406728927 C201.9892945996321 20.459919921561006, 208.41001500925358 12.274139898520586, 214.08161913185833 5.065277151617403 M193.9432644778411 31.430360896292257 C202.86255177835994 21.275032105399386, 209.56776411163935 16.203143138694365, 215.34356408602542 9.410200056654972 M196.79164724587605 31.314956710639525 C200.51175991547964 26.47466777386432, 202.83919507171106 21.636138237130897, 212.3883601803238 11.562467932922406 M196.00651196933018 33.85006287373376 C204.53674360114397 32.56899339630791, 212.2495207810149 23.303362846458832, 214.7434222262584 19.14262553033487 M197.92170372402893 37.27125393725706 C199.99083414470266 33.363843317019935, 202.48065694355827 27.2620511886688, 214.47525130624402 18.26414551612989 M195.81052050018818 45.12599420678866 C198.61358310022237 35.83729416446174, 201.69874301307087 37.39375508569912, 212.36412387235077 22.411922341905402 M198.29987902963668 42.551569215777036 C203.98176260804726 34.34480350598177, 211.06151101937007 28.904903070198248, 211.95587106985957 24.440893289767075 M198.62443503690554 48.374734377734164 C200.63123011715987 41.6682535025574, 208.74949701267903 33.81647095186416, 215.21856399079303 27.690919973643755 M196.81475172293975 49.9514859347267 C203.4488294296089 41.50320969058084, 210.8529539820387 34.32835760619156, 213.49692303141097 29.56016964236114 M197.7111505459728 57.01911286884754 C204.72168005402457 48.64012905500538, 206.0810008113637 44.12112512929643, 210.54521046110415 33.82282664849553 M195.80802536417863 53.66346248263329 C202.07438293937088 48.2884832563379, 208.04168298385574 41.28539315133525, 214.55005866416715 36.65043670310769 M193.7591349069089 60.45233790307431 C199.36589617414657 56.38675639019316, 207.44433881130345 48.806226599833174, 211.00051727876513 38.53826226851514 M196.4063514266223 61.84096098869233 C202.07058337529924 56.54404787454653, 202.76883358025088 52.44955028191491, 215.24429055735916 41.71819328031114 M195.27484211519493 64.55502938246893 C201.44152470088227 63.20393503303595, 212.2599264934426 54.44037087441443, 213.210452323295 45.492935056648165 M197.21374249950182 66.8154802612083 C200.26746211529186 63.458164297603275, 205.60865816057463 57.79611587977654, 212.43752018425593 47.28565150316706 M196.33424005034973 73.13289552997693 C199.85412667333455 68.01908764866099, 206.95358157867375 63.511295351927764, 210.9629105611842 53.5846744951718 M195.9631000560861 74.6342324293767 C204.13157224930427 66.6971384632287, 209.09471860615957 59.54390234321106, 214.40895110509803 55.007769760202656 M196.17522367886397 77.2337658278756 C206.03778620110327 75.46298397205888, 208.1725920089536 65.7904348221354, 214.63953695892332 60.21756006636332 M197.8086276566157 78.47717588172482 C201.6672278642572 75.66549380148608, 205.37805265022405 70.41386440444104, 213.79091188012598 59.4363814399452 M199.4294379672281 84.0117197584421 C204.3149619490381 79.47135835090597, 213.02668241711328 68.79601618620664, 213.04754939603131 64.56604999316819 M197.85765386133116 84.42114400677984 C203.2158786639974 78.89372609275884, 206.9055159240069 71.70203355734098, 214.90067898260872 67.38432367159017 M197.1541007949611 94.39121554462197 C200.10466796078452 86.5079537466971, 208.6759288815923 75.50713177838078, 212.21215186798918 69.69201417764094 M195.7024551435014 92.4039739337373 C202.10547772027257 84.91454697984787, 206.02008212599458 80.6496491912608, 213.2328900017773 71.34247026344207 M199.22441615754397 98.78412308846974 C202.91966541690144 96.38614876690264, 206.8973300757064 90.3604440162663, 213.12806225431592 76.7824108427271 M197.31266909235748 98.44153947090173 C201.7721709964569 92.5593402731483, 207.60461673553039 86.86246808971667, 213.11107141090065 79.01740834469643 M199.28510193449569 103.32740061293087 C202.26616618003058 95.05479191846014, 204.6293731292825 94.81301151535588, 212.15192552150202 87.26631947070388 M197.48682218116832 104.96542774746857 C201.79689382109964 97.51911519271198, 205.8065375129301 91.98387462635549, 213.58005177021934 83.54847130388049 M194.3428030923068 112.80012760028264 C204.03224409093693 106.52548768221887, 205.56704571285223 97.08743425218769, 214.034136636038 93.27906954384848 M197.7447429701745 110.2399721519651 C200.51556175772237 104.01508385007742, 208.39053876057145 99.240608159138, 213.33778463997382 89.27186752952143 M197.79791459746778 114.68763353280228 C198.43505918907087 112.20536332914027, 208.17156326002473 106.18770856370095, 212.95066347744287 93.72636928510651 M198.4593850196165 114.92638107291859 C201.6729517889194 108.10848289396257, 209.17428933223061 99.3043125217089, 212.46717149343314 95.88480915081486 M194.87640432949766 120.84562663343529 C202.7153184438901 111.84333289504495, 206.20296779648092 106.6106604005343, 212.0954600411976 102.80133859653237 M197.3886498027633 122.2468666395245 C202.14155024606362 115.30432551192419, 207.6472008175148 110.41041660222149, 214.32847491982824 103.8625449760652 M194.22222628387738 124.81722680423616 C202.80397712620658 125.1923246051719, 207.20246058828607 114.0772644430426, 214.2319942068212 105.82218570107163 M197.9677999088459 127.40167766008733 C202.18311212405226 120.52923470189259, 207.97198230092152 117.20204770225546, 214.41084639242817 108.79603713446797 M199.248848340126 134.4706422681504 C201.87517361831655 130.11601234391821, 202.2756905543467 124.85576333545879, 215.6856609408042 112.54924008100151 M198.16098681113334 134.30677626380262 C202.37303534158954 125.39644587516734, 210.09995176927512 120.75877542439487, 211.82473947147344 116.40899401455044 M195.731665464734 142.1162025074553 C204.15633571489363 133.2771587139613, 208.58610553433385 129.5285955700923, 212.97560520963708 122.04908121859928 M195.5536640698661 141.8108708391976 C199.43829911473944 135.3453825413384, 204.6230237978847 134.15157278211367, 214.23373271720448 120.32199900483987 M196.83982262419187 146.97048700442807 C201.14087416776417 141.40140235646004, 201.59986886324685 139.6025037985097, 215.8465448928388 125.95866733681042 M198.68441024528468 147.0595447747995 C199.38617888626933 141.57520248141594, 203.83230297203863 136.8692177071164, 213.98635260289035 127.8166392345317 M201.84833284297116 148.24690608090035 C207.29701339734044 143.0232963921192, 207.1763370520412 134.80669688322232, 215.66118398589043 129.8023683376894 M200.0570469556106 148.28583729868998 C204.7000387291621 143.46974700343844, 210.44664236537722 138.64972258740102, 212.40848671776206 133.25253851193045 M206.47719586816189 150.15334950414146 C209.27619827339055 144.82683509970482, 210.04442272211782 144.2176691754301, 214.10977572024296 140.31411555610933 M204.85386095595118 149.99380218130196 C208.36675931644254 145.7725508781672, 210.49338850127629 141.71647907026846, 214.5668369786484 138.47812004544178 M210.75621810261148 149.11488507767336 C211.23460912359081 147.50327298973778, 212.4509914976396 146.67580387839985, 213.12163658399098 145.51000782398202 M210.67095588210958 148.62223923047202 C211.67593886682667 148.08131265225563, 212.1778413951738 147.24065757784993, 213.59950590569488 145.86003579346158" stroke="#f59e0b" stroke-width="1" fill="none" stroke-linecap="round" stroke-linejoin="round"></path><path d="M196.6345944261551 -0.09245506763458239 C201.9415740698576 0.6460782849788664, 204.5263710963726 -1.6408624804019931, 213.52839767932892 -1.5556211137771607 M196.6194161581993 -0.6026275610923768 C200.72825904905795 0.8555129029750824, 203.70768543601034 -0.602848989725113, 212.79424182653426 0.6472086358070375 M214.71745358109473 -2.3981869757175445 C213.58989351847174 35.7055123898387, 215.80280836679935 67.88684237062932, 214.24975281357766 149.21806420683862 M212.3525686711073 -0.9576769798994065 C210.85168615369798 48.96220045298338, 210.92698684720995 98.71655359387398, 212.70200590789318 148.32717991173269 M213.135172123909 150.813593211174 C209.3763773328066 151.2415977766514, 203.84696242451668 149.85017458939555, 199.14132889270783 150.32697989940644 M211.8648279929161 149.71204605340958 C208.42584147870542 147.89928066563607, 202.49915721058846 149.76433185887336, 198.12371127843858 147.6271215081215 M197.89406681656837 151.09930257201196 C196.22216641013623 91.5147283628583, 197.0783795983076 34.987081643939014, 195.69376106858255 -0.65945845246315 M196.09746212661267 150.39431371986868 C195.29461810593605 99.57055515676737, 196.91399228577615 50.04474886417389, 196.81036982238294 1.561696246266365" stroke="#1f2937" stroke-width="1.5" fill="none" stroke-linecap="round" stroke-linejoin="round"></path></g><text x="217" y="74.4" text-anchor="start" dominant-baseline="central" font-family="&quot;Comic Sans MS&quot;, &quot;Segoe Print&quot;, cursive" font-size="14" fill="#1f2937">Sign-up (6)</text></g><g><g><path d="M197.07457540331276 160.71421081207322 C197.07457540331276 160.71421081207322, 197.07457540331276 160.71421081207322, 197.07457540331276 160.71421081207322 M197.07457540331276 160.71421081207322 C197.07457540331276 160.71421081207322, 197.07457540331276 160.71421081207322, 197.07457540331276 160.71421081207322 M197.47996826515865 167.1731832635115 C197.49055774295675 164.85195657775358, 199.07706323276983 164.26957572231544, 202.0508328081789 161.4547555459847 M196.8064749615021 167.69792245683178 C199.21319749931158 164.60347048439272, 200.44811317614307 161.93949549125475, 201.80731396512414 160.79668244911335 M196.14608942174218 172.82757301155812 C197.73765278759208 170.18485660137847, 205.00770091533826 165.0678950942901, 210.2487096210639 161.04564677572327 M196.09215934061308 173.0886268300224 C199.2168544624174 170.13570450786824, 203.43017419072797 166.5721520623191, 207.01696600996658 160.26979549622612 M194.84802581679403 181.4994368491477 C198.9844723737825 177.5764632519541, 201.78321932187941 172.1301252513147, 209.97518622975983 162.7373795762365 M198.2319939927417 178.62725801894132 C198.49285624996185 174.42090390267992, 202.25625932545304 171.43510650100143, 211.33172544490733 159.44183396098066 M195.99546343624456 183.84090363218428 C198.48910113134627 178.1047593970078, 207.2407404972684 175.55901052910016, 214.19855111129291 165.20351838535097 M196.83877289980515 184.03201916499975 C203.17745265242525 180.47671387436984, 209.80339185723068 171.4144741251218, 212.20287308133848 164.62933445489435 M197.52680737472465 193.94419831058403 C203.36586087170895 182.6874112492727, 209.78951514094655 179.26020551684385, 214.04243038113407 174.67989117424693 M197.79938152677707 189.77109203210495 C203.39150507744375 184.14968576395265, 208.27720291502644 180.32824028119913, 213.6096245225816 172.30829298864808 M199.7683184805033 195.5069236385425 C205.63480291706438 190.08844939274903, 207.76171108251907 186.08972060264946, 210.72900503250477 178.92492779600607 M195.4411061125514 196.63871023382745 C199.33892433459704 194.28338097614997, 203.17575103516245 188.45383824593756, 214.32674865248322 178.4072077746986 M200.2611187178115 205.26721904936412 C199.85197791945336 197.01139606252215, 202.83957021624983 194.83286139493512, 213.69078591367406 183.82998100482388 M196.79515651198426 202.2055815628467 C202.22395203623813 196.95893714112745, 206.32313193579358 194.45940833912294, 213.87840670993728 184.47343742661639 M195.01271893491827 210.14143729724444 C200.3049964374606 201.42027705277283, 209.07088982998872 196.7670930438914, 211.3751449888729 192.12694023400488 M196.2981939639696 210.10656463273324 C204.20233418419318 201.972711334808, 210.29701406208727 193.5349230253825, 212.79268354979982 189.33081473708097 M199.1894320670641 217.84117739571073 C205.77563222569475 207.51849463758788, 206.38883385421107 202.38016045010676, 210.89584310637028 198.1259082377446 M197.13474429437287 216.80770181638934 C204.2258363037369 208.53949015571388, 208.58582029312845 199.6349784290931, 212.90311541096477 195.16732331966284 M194.04819604948946 222.23741335829015 C206.10518114169426 212.6371325480564, 208.36445950885522 207.9635764804936, 213.9254432014067 199.93223402957025 M195.61902082905956 220.3203479867172 C203.22221231438274 217.19574906443592, 207.26715014908675 211.28688034854724, 213.0911031192977 203.90213054726425 M198.66839673046343 229.5246229391783 C199.7457879899776 223.58399007821149, 208.01486807682898 215.91269790665459, 214.82713320922272 209.61064162300906 M195.97674730692378 227.31529925728734 C200.01735647149806 221.75435141813907, 204.97435833443905 216.53482578308302, 212.86773500066417 209.8997162927874 M197.84428107421695 235.23782057167963 C201.2575505621511 226.0570649915655, 207.06658534768366 217.9821504970226, 214.78654897808732 215.34935877225658 M198.08757108282148 235.08982592077928 C201.5807456054957 228.36091516397397, 205.74516999582613 223.00460888506137, 214.35560979395808 213.48400166980286 M197.73648492901904 241.39023400998965 C201.24853767528157 238.42548636904723, 202.5334859609311 233.00339736989957, 213.70418747223147 222.47714991061727 M196.18659089564665 239.25534909076347 C202.2099605961384 234.42375471927028, 207.77619777508866 226.5463106237027, 213.23124985403547 218.9053819709901 M198.5644462301102 246.29033726763558 C203.56841029340492 236.34798184339766, 210.41704596502072 233.40786758256922, 214.64693453992416 225.80099279228665 M195.40677007126476 247.7044736401422 C199.34101340268683 243.13265185051145, 204.88975416112032 237.85044854071464, 213.4266289197903 226.0284033099196 M195.93822791273092 251.50597935814474 C204.09919414060855 242.5496254708777, 211.79182089635069 234.70802048696518, 215.74047811640594 231.423111430792 M197.7607594355414 252.52511694181774 C201.34308167194035 244.88889149463304, 206.887240891578 239.109164505098, 214.8715853170881 234.69879555949368 M198.19034082515017 259.2285130357126 C201.4325303913102 256.00154135371736, 207.60308525785575 246.72824249127814, 211.50113113691728 238.1051048396605 M196.12272022737042 257.9146376093605 C202.7420362814656 252.1404923220191, 208.45733267404427 245.2440901599827, 215.4756448717944 239.0576010926145 M199.1484520765515 261.51627983252973 C207.05500375936296 251.79130365776675, 207.8049367954586 251.44377170207144, 216.56765444972714 247.4320757730877 M202.05103244656047 259.97332053433627 C203.3387415064089 255.57054873448502, 209.9220685306783 251.89446650587587, 214.70984382280312 245.8553035228526 M204.20556949970083 262.41076711134855 C209.05890911203798 257.4979734205182, 209.69919898890998 253.75351598221337, 215.302290696806 250.61839882207647 M205.96246088062182 261.47461554923893 C207.72613829360688 258.36573927762214, 210.42022541329055 254.97131311602917, 213.06334750064343 251.3913768581076 M211.65569463838074 259.76059278840535 C211.55759856295498 259.3232374431145, 213.59606859683814 257.79688371081664, 213.2653127009065 256.7536970448764 M211.05413576502536 260.63221705044026 C211.86282460909572 259.41400358902007, 212.6195654528079 258.76289434449086, 213.60026510570356 257.5612290045889" stroke="#10b981" stroke-width="1" fill="none" stroke-linecap="round" stroke-linejoin="round"></path><path d="M195.17189163923263 159.38131739854813 C198.97236110478642 159.9131174274683, 201.2495566445589 159.042706279397, 215.07259651899338 162.30656832933428 M197.06912423729898 161.81605865836144 C200.35238857358695 161.63526935446265, 205.78152815401555 162.00772651541234, 213.33136273980142 161.13081295371057 M213.9761803716421 158.8027195364237 C213.33854108767508 185.35392540603877, 216.65791336016653 209.42157719850542, 213.27462922036648 262.22709631025793 M214.42885300666094 160.1634845301509 C216.410137791574 180.22601236701013, 214.92308883184194 201.64025376588108, 211.75300886183976 258.490769867599 M211.9227581858635 259.180389816761 C207.88456599920988 259.63039666497707, 203.750443636775 262.6632618840933, 198.93199333906173 258.45046984910965 M211.93724198937417 259.44806908011435 C207.41876221805813 261.1449209984541, 203.0087358158827 260.1024977883101, 198.04556691765785 260.16068226218226 M199.94110022485256 258.64895385801793 C196.2297932044983 233.22931901425122, 194.31411298675536 209.19507540583612, 199.8406416028738 161.4108123213053 M198.046193189919 261.591470579803 C196.84380399597885 231.16425341188906, 196.07286526573898 201.08396464973688, 195.9155547335744 162.34254436939955" stroke="#1f2937" stroke-width="1.5" fill="none" stroke-linecap="round" stroke-linejoin="round"></path></g><text x="217" y="210.4" text-anchor="start" dominant-baseline="central" font-family="&quot;Comic Sans MS&quot;, &quot;Segoe Print&quot;, cursive" font-size="14" fill="#1f2937">Bounce (4)</text></g><g><g><path d="M393.96479440082595 49.64049940904712 C393.96479440082595 49.64049940904712, 393.96479440082595 49.64049940904712, 393.96479440082595 49.64049940904712 M393.96479440082595 49.64049940904712 C393.96479440082595 49.64049940904712, 393.96479440082595 49.64049940904712, 393.96479440082595 49.64049940904712 M393.26361210562555 55.65006607766662 C395.6439209364143 54.17558629555903, 396.2764083363453 52.28766650866911, 399.1117318331844 50.29655324204472 M393.9333721501407 56.19717486764703 C395.76060973615785 53.79956365143576, 396.9984415818279 52.57490415426344, 399.94645356860224 49.06944359673766 M393.535764631776 60.92469619038395 C398.2747833290508 56.415455640004566, 402.14838453512255 52.104530516124356, 405.42694340958894 47.53391230379226 M393.03719119027056 60.846101281669654 C396.91364287387074 56.992847074508205, 403.38473584495154 52.24144381377605, 404.1046185947925 48.63277726446274 M396.372165433199 68.00791996814482 C397.18604812430857 65.0365851721195, 405.1843773884378 59.90813450460032, 407.0265737518959 49.029520246045344 M392.8841230011292 67.91168152786963 C397.93331872896437 64.31057937262156, 402.9511894962859 57.12951617038357, 409.36862603875926 49.43545942570423 M392.2452935628106 76.77590475961216 C399.4623721345502 69.80788486157742, 404.49866102167334 60.281086856699424, 412.3075065159669 54.954917039321195 M393.90303951422476 72.23072547003278 C398.5833464316324 71.66434488453034, 401.6641969609703 66.03988064067721, 410.179935809361 55.78933846537901 M391.36615905015054 78.45398243208358 C401.68419269762825 72.2294198119463, 408.0622016266434 70.17551076945038, 410.05316448377556 61.190819418823864 M395.4629245862204 79.82317406077811 C398.8840845952674 77.03696846522418, 399.9847199004251 71.44858905600003, 408.9427566723723 60.69535517135873 M394.44199279920923 84.80502153033625 C398.3272395255159 82.73942991480726, 407.42211244562174 71.4907847394468, 409.7703966172935 67.10317676888498 M393.4723763086067 86.84740365738283 C398.12802617635833 83.01825486422902, 399.97329279352874 77.62036116299862, 410.8340547772647 66.94621674047502 M394.9675257139772 93.80439059914734 C397.74618151722666 85.79417383300165, 400.6362061979711 86.28064357659028, 411.67325673353963 73.64398637495012 M395.1462427728742 93.4555406171241 C399.4965938916565 84.195469582367, 407.0955004243971 77.66276451302765, 409.25675112855726 72.90192827067347 M394.4568116114733 100.3040869239625 C397.5764490924216 95.14948564201589, 406.9899689819587 87.29490017494625, 410.58753476549504 78.55890720157376 M392.4374449835417 98.65759003794756 C399.35352527343775 90.01939801806276, 407.33876047679615 83.51867348360106, 411.94425284673093 77.49740653900854 M392.23564042467876 105.54976946933613 C403.4292300439634 99.35898516015996, 409.2675764136891 87.69452520985591, 407.90228453017875 84.42493653420141 M393.2293900610904 103.63846869690761 C396.4543406697034 100.82924146393886, 401.8283504687681 94.37015705616128, 411.11198093630475 85.28015664342573 M390.9930659706124 112.41843552071376 C399.0692585337992 101.65191109224358, 405.20133454506134 97.06071756994037, 407.7622369315812 88.96744291761028 M394.68749901003923 110.39568169194979 C398.79761826031796 106.67188589089051, 399.8439068949707 102.56694217081947, 411.4497834887692 90.52730494120229 M392.97381915326486 115.73545362287267 C398.5200279065974 113.53230841810011, 407.41213468906585 103.30391885602423, 413.09962287369285 95.72429489657769 M395.25161992187867 115.45635538035138 C397.83953526911984 111.89263570129658, 405.4450354361242 104.10809812694134, 409.9537585956148 97.70972778961548 M396.01013087662653 125.73869232059006 C396.03648808455745 116.2645369427916, 403.6748076053307 114.79604815155285, 408.8659961735327 105.50998975654907 M393.6678508880992 123.94136611938957 C399.7913792364968 118.42063857192696, 403.15708166030237 111.66126213411944, 410.9580772613604 103.5561802866108 M395.95355495771645 127.54264889931143 C401.98472732263474 125.85944565608489, 405.83132503683413 114.36332699055471, 409.42464676408196 106.73268646207895 M394.42036291321995 128.42946900700986 C399.19699515581135 123.12121382960075, 403.20713777699433 119.74244485266908, 409.3273966064873 109.97032920924272 M395.6673813295156 135.4554823235913 C399.33066475136417 127.91549072814111, 410.1935153976094 120.51190220097017, 412.9021284623593 115.43188229861283 M394.1238131177217 134.6743308202668 C398.7324981812828 130.7729553770582, 402.75118241139666 123.93666610845023, 411.8083876355142 116.26842965545677 M391.37816380904303 143.41668987887525 C396.20521766774357 136.11264647994338, 399.95499314879635 128.5552370362118, 410.1806721723555 120.79544581092799 M393.27487250612364 141.0422066571059 C399.70504469153775 133.05387688876615, 407.0704919360705 125.53875686975738, 410.6221484399317 122.49635798253024 M394.4681333002892 147.31414010994038 C399.1752736596929 146.52662018368184, 403.99117319766975 138.08671151758796, 412.93000879806095 127.82374554380164 M392.2446391699162 148.22897287480436 C398.5847895552246 139.56848215270517, 407.2013490950793 134.88144254237613, 411.29602711123044 127.49374054774032 M398.78731585219714 151.87465366045012 C397.90083760550795 143.24804485586972, 401.8017668323527 144.67645334279743, 411.2391921564946 135.99377878267924 M396.7907563455424 150.3507079295255 C401.53736245484606 144.1050499694388, 405.17371978188453 138.07655310492362, 409.29544465392917 133.35808244903248 M401.3611339471087 151.18726757377735 C405.07294839094527 149.05952328679817, 406.1761659098577 146.76174330811116, 409.15383975095676 141.5078513690466 M402.6636557883367 148.89906549096457 C403.57717233711577 148.3467508182399, 406.7254528464438 145.82234587516876, 411.36858215607333 139.41848875042143 M407.6536093197309 149.5452358781628 C408.253816622737 148.18089363731482, 410.02026277805544 148.0295229917624, 411.0583546977779 145.68898766042116 M408.2381974885904 149.32073489420932 C408.7005999872514 147.84680194553266, 410.13625444553423 146.76532295282703, 410.54495790417394 146.2323636067045" stroke="#3b82f6" stroke-width="1" fill="none" stroke-linecap="round" stroke-linejoin="round"></path><path d="M395.82918885231015 51.97508986473083 C398.1231481397152 47.948156569957725, 400.0927421927452 48.494275039196005, 408.49679535865783 49.048757772445676 M394.51883231639863 49.67474487781524 C399.53651809811595 49.64702580595016, 402.2953708720207 49.29030202054977, 410.86848365306855 49.614417271614066 M410.2349071621895 48.003626048564904 C405.4167214502334 74.65856720805168, 409.8425511468887 102.26876959800721, 409.2995056271553 146.43612841367724 M410.3051373422146 49.28464604020118 C410.5660503887653 76.03468315601349, 410.7166517757892 102.4536716878414, 411.0040118157864 149.45435982346535 M407.710344247818 150.26718642234803 C403.3927546656132 150.73919555330278, 400.6539248490334 147.95634917879104, 395.72265778541566 149.29395979881286 M409.00965598583224 149.34409210681918 C405.9716829574108 148.66256133127214, 400.5183144211769 149.83266371774675, 394.9674225568771 147.734243016243 M392.58813363313675 150.1986051440239 C392.69999093933103 114.172425352335, 394.4124173156738 77.86010054111482, 394.5875221371651 51.48108309507369 M393.7949242532253 150.38862743973732 C395.1186719946384 124.11233788251877, 395.1574203543186 97.23195286631585, 395.22073964476584 51.12339249253272" stroke="#1f2937" stroke-width="1.5" fill="none" stroke-linecap="round" stroke-linejoin="round"></path></g><text x="414" y="99.19999999999999" text-anchor="start" dominant-baseline="central" font-family="&quot;Comic Sans MS&quot;, &quot;Segoe Print&quot;, cursive" font-size="14" fill="#1f2937">Paid (4)</text></g><g><g><path d="M393.9147405876546 160.8980797343803 C393.9147405876546 160.8980797343803, 393.9147405876546 160.8980797343803, 393.9147405876546 160.8980797343803 M393.9147405876546 160.8980797343803 C393.9147405876546 160.8980797343803, 393.9147405876546 160.8980797343803, 393.9147405876546 160.8980797343803 M395.42075893576265 165.78980156183744 C395.28171556916817 164.03026886169306, 398.4293265700617 162.60881254541493, 398.68655168618034 159.43087312714755 M394.7249367630017 166.2377002173712 C396.3265225679132 163.86219692152272, 398.3418912853243 163.1414641468868, 399.1340202810891 160.46741796569523 M393.98516703112523 171.3531110975691 C397.331258017436 170.09734640699, 402.92841230183325 166.59245766631796, 403.6649043874294 161.47346956022056 M393.0419502292434 173.49486746167622 C396.15038653948096 168.59635202622036, 400.2198638605623 165.07216860701803, 404.2519983689338 161.88705076105865 M394.55603223891944 176.84769481550123 C399.5739216858348 174.55382230858152, 406.6117227936779 163.06729764031442, 407.79374749233807 163.29824306399075 M393.7959791988322 179.52739676515725 C400.67498358469504 173.83559781142048, 407.17749705509016 165.3944827475571, 411.1213128509172 161.00566703856435 M397.29879184970173 186.3969071956221 C400.6322899786575 181.75565678723828, 405.2473559426089 175.2207071822546, 413.47618910995635 167.03760742165073 M393.37097428896936 183.51543308364788 C396.7081514986955 181.90904849742125, 402.9592146603679 175.67846819260487, 411.21672572669894 166.080634204223 M394.665237914892 191.69505828194244 C395.9515883687896 183.8661345050504, 402.48009834973624 176.55988153976307, 409.77968480472305 169.2783298115373 M392.9861948349793 192.2065478178106 C398.6395001692082 185.83500571007605, 405.8465811090361 177.6631716854009, 411.19167504046897 170.6589995022059 M392.8314533362212 195.6797015702665 C399.9840826105638 190.0135830365577, 403.02514012538353 184.5701503652766, 411.8715153913977 177.61271747012321 M395.21943272296807 195.43267922907472 C397.2982289312904 193.51492765624417, 400.20234321100065 188.72076918703712, 410.40108809136177 177.81651743461077 M392.7336598994583 204.67285387728987 C398.7001123043155 197.69551416662912, 401.49256936900787 194.44698832139332, 412.71545474272074 185.78928347343566 M393.35705622307955 203.83679139976084 C397.4543192877053 197.53684165307973, 402.07265730867846 193.9445082175194, 410.89482273649276 183.66171084308982 M396.9606314773439 212.79802827903984 C396.9657513805803 205.62874762779836, 400.62689776712625 200.97276070254054, 412.85965173143273 187.32216589750192 M394.83642319242944 209.53990717152115 C399.8225659958798 203.5973764296768, 406.4983565247025 195.83371567017886, 410.9555493329776 191.1952900692954 M398.0268885337837 211.77185210598842 C403.4408787526392 207.8877299956748, 404.3002441968363 206.87458291024936, 408.0993975367289 199.3120716341468 M398.8269662270225 212.16218243872956 C401.4744077214869 208.07203297307282, 406.92211765058204 201.47623001756813, 409.2509120190035 197.6676455138507 M402.15558393778656 212.22695518589322 C404.4381544059401 209.69789818532186, 405.9582325673136 207.7502042754315, 411.3850237315738 200.774163298888 M403.5955066523925 211.056311928618 C406.9043260682502 207.25035461466743, 408.82768413630043 204.56160870311226, 410.6202119896406 202.0665684401075 M409.21371187468856 211.25995182124058 C409.111863753604 210.42133403312738, 409.90261818476296 210.19573841631495, 410.31718939291164 208.92294002297797 M408.8607995188037 211.02762090076783 C409.1794042950021 209.9512098503792, 410.03819809790144 209.10805271201363, 410.627339840772 208.51520869042255" stroke="#8b5cf6" stroke-width="1" fill="none" stroke-linecap="round" stroke-linejoin="round"></path><path d="M394.36648606538773 161.84886233091356 C395.153935174644 163.50319571244717, 401.9359277409315 160.34584379899502, 410.0409941983223 163.31094721555712 M394.9685403954983 159.93343109726908 C399.1606476226449 160.82678225743774, 404.3692135900259 159.74087752568724, 408.8456045663357 160.4980215895176 M409.49363395273684 159.60453256070616 C412.02386982940436 172.10263704553248, 411.1561569502234 188.99481806844474, 408.3243820339441 209.84516051709653 M409.18142167776824 160.8058075502515 C408.22911058766846 177.2812067575753, 410.01736232144833 194.9427952349186, 410.05501476973296 210.0179497793317 M411.6179303097725 209.03398302793502 C407.0209433320165 209.52799444162846, 400.5574060612917 211.16943647348882, 395.51332223176956 212.9374497485161 M409.08206998229025 209.48011513352395 C404.96460369676356 209.74820166409017, 401.02789302647113 210.57082964718344, 394.8892781960964 210.66780377030372 M394.6351670414209 208.14825643002987 C391.7281613229871 199.36424247369172, 397.06869429341555 188.62254724293948, 392.33440267145636 163.95135386884215 M392.54365531653167 211.98578429967165 C395.293734721756 200.7144568143785, 396.1421701713562 187.8880100053549, 394.32592455595733 162.30424061566592" stroke="#1f2937" stroke-width="1.5" fill="none" stroke-linecap="round" stroke-linejoin="round"></path></g><text x="414" y="185.60000000000002" text-anchor="start" dominant-baseline="central" font-family="&quot;Comic Sans MS&quot;, &quot;Segoe Print&quot;, cursive" font-size="14" fill="#1f2937">Churn (2)</text></g></g></svg>