<svg xmlns="http://www.w3.org/2000/svg" viewBox="0 0 480 300" width="480" height="300" role="img"><g transform="translate(40, 24)"><g style="opacity:0.4"><path d="M16 6 C108.83349758721889 3.7620326425880197, 108.67769036628306 -2.4083291504532096, 200.88142249919474 -1.6545413706451653 C200.81100322984605 34.30657276861369, 201.55376246951965 62.77447831995785, 201.4425996925682 138.92975995875895 C110.57103923819959 138.63506713248788, 110.12555232308804 144.53618778325617, 13.642969253286719 144.1688254032284 C20.986408542390166 101.82532123960553, 21.386883746381102 58.610622022673475, 15.63066089488566 8.032057025656105" stroke="none" stroke-width="0" fill="#ef4444" stroke-linecap="round" stroke-linejoin="round"></path><path d="M16 6 C108.24318771846592 6.5143580686300995, 108.57833084352315 -0.19185229428112507, 198.8000539470464 -0.9959221232682466 M199.52384320609272 0.23540130145847796 C198.7053612289384 49.58172939442098, 200.1671974358514 98.93294525898993, 200.31751833073795 139.72734305150806 M200 139.2 C108.29283220879734 138.50355085618793, 108.90337904803455 144.21002767570315, 16.976439346000554 145.30367079265415 M14.95033994205296 145.85934283845125 C16.452387223650515 110.94143150813876, 14.729757903029025 75.36866292379794, 15.47838703878224 5.620749057456851" stroke="#ef4444" stroke-width="1.5" fill="none" stroke-linecap="round" stroke-linejoin="round"></path></g><g style="opacity:0.4"><path d="M16 145.2 C106.86699517443776 143.52406528517602, 106.55538073256612 149.18334169909357, 198.96284499838947 150.69091725870965 C196.8199796501875 177.42871402636172, 198.30549812953473 200.3800936181843, 200.08519938513638 246.2595199175179 C110.34207847639918 245.6701342649758, 109.4511046461761 239.47237556651234, 14.085938506573438 238.7376508064568 C19.38546739438772 220.0728231881559, 20.186417802369593 194.06560546323658, 18.06132178977132 146.4641140513122" stroke="none" stroke-width="0" fill="#ef4444" stroke-linecap="round" stroke-linejoin="round"></path><path d="M16 145.2 C107.28637543693185 145.02871613726018, 107.95666168704629 152.01629541143774, 198.8001078940928 150.4081557534635 M200.24768641218543 150.47080260291693 C199.6798301067114 181.20634414389727, 200.2035025205374 209.5516612280905, 199.4350366614759 243.85468610301615 M200 244 C107.38566441759467 243.80710171237587, 108.6067580960691 237.22005535140633, 16.752878692001104 237.00734158530832 M15.10067988410592 238.11868567690254 C16.73048621891737 210.39808492586016, 15.68522757767439 181.36776966676115, 16.156774077564478 145.6414981149137" stroke="#ef4444" stroke-width="1.5" fill="none" stroke-linecap="round" stroke-linejoin="round"></path></g><g style="opacity:0.4"><path d="M216 0 C310.50049276165663 -1.1139020722359418, 310.0330710988492 44.775012548640376, 402.6442674975842 47.03637588806451 C402.3531694752812 75.06307103954255, 398.98144719430206 97.41014042727649, 398.72779907770456 138.38927987627685 C310.1131177145988 137.50520139746368, 308.77665696926414 90.80856334976852, 214.52890775986015 95.3064762096852 C218.70380109158157 61.70923478223383, 219.90522670355438 31.09840819485485, 214.89198268465697 0.49617107696831225" stroke="none" stroke-width="0" fill="#f59e0b" stroke-linecap="round" stroke-linejoin="round"></path><path d="M216 0 C308.7295631553978 -0.856925794109702, 307.3349925305694 45.82444311715663, 398.8001618411392 45.812233630195266 M400.97152961827817 47.10620390437544 C398.8669451600671 71.04951621584596, 398.4524537808061 97.4074918421358, 400.95255499221383 138.3820291545242 M400 139.2 C308.878496626392 139.5106525685638, 308.31013714410363 92.2300830271095, 216.52931803800166 93.11101237796247 M215.25101982615888 92.37802851535379 C215.24292932837605 60.077127388790245, 214.87504136651157 25.811654500141728, 216.8351611163467 -1.1377528276294469" stroke="#f59e0b" stroke-width="1.5" fill="none" stroke-linecap="round" stroke-linejoin="round"></path></g><g style="opacity:0.4"><path d="M216 92.8 C308.53399034887553 92.24813057035207, 307.9107614651322 149.96668339818714, 400.72568999677895 152.98183451741932 C399.2567056813657 168.08856503099204, 396.62774264006015 181.22246119290588, 397.37039877027274 199.3190398350358 C309.8841569527984 198.14026852995156, 308.1022092923522 139.3447511330247, 214.97187701314687 137.8753016129136 C217.2682354079902 130.51000779420136, 218.87013622395395 114.05993376225233, 217.32264357954264 92.52822810262441" stroke="none" stroke-width="0" fill="#f59e0b" stroke-linecap="round" stroke-linejoin="round"></path><path d="M216 92.8 C307.7727508738637 93.65743227452039, 309.1133233740926 151.6325908228755, 398.8002157881856 150.816311506927 M399.2953728243709 150.9416052058339 C399.7746755110919 162.09845899790523, 400.8220203387439 173.27486387640235, 400.07007332295177 198.50937220603228 M400 197.6 C307.97132883518935 198.41420342475175, 308.0135161921382 138.84011070281267, 216.30575738400222 138.41468317061663 M215.40135976821185 138.23737135380506 C215.38919598106742 129.90661367088555, 215.69867869858143 118.95642697185276, 215.11354815512897 92.4829962298274" stroke="#f59e0b" stroke-width="1.5" fill="none" stroke-linecap="round" stroke-linejoin="round"></path></g><g><g><path d="M-0.3094909387278255 6.356028598233664 C-0.3094909387278255 6.356028598233664, -0.3094909387278255 6.356028598233664, -0.3094909387278255 6.356028598233664 M-0.3094909387278255 6.356028598233664 C-0.3094909387278255 6.356028598233664, -0.3094909387278255 6.356028598233664, -0.3094909387278255 6.356028598233664 M0.30739449483702186 12.872832513207586 C1.807119742217977 8.782376513479702, 2.8822141673354147 7.831535790525067, 6.18333083045981 5.234905512843866 M-0.34376993971517084 12.194412244314343 C2.1082033634130455 10.868546923641146, 2.7929715532800885 8.74886504035753, 5.248824549441553 5.442214480553408 M-2.2368893453396153 20.127721634014627 C3.299763357660464 16.098053504234397, 7.122705328755613 14.489019230729689, 11.168613696999714 6.443510699693441 M-1.4015327057159732 18.508072906836055 C1.7394212276550847 14.940743697983553, 6.096583363194903 11.337822226087642, 9.238032493300603 7.038226939861059 M1.6521772659605611 24.822156011038988 C1.9134094574444807 21.773298826439454, 10.262075112631218 12.068580174490354, 12.924841867463936 6.492783636504228 M-0.4198333420568837 22.79809640097019 C3.882870749504264 20.158632377612765, 8.28642178048909 15.540760591983965, 15.510354939179768 5.394268431418951 M1.860351923069766 32.00116761676845 C4.283697290893658 26.16462972121786, 10.612417363618325 21.391556948090237, 15.033070983921345 8.44040647729595 M1.0747884109232932 28.864872794373596 C3.6426454810030884 27.4696983754514, 10.258963183105331 19.699291914263117, 16.501178307269868 11.449011833810404 M-0.15552432314134138 35.619025047693206 C4.28015688883921 26.8215612521334, 11.04427000622956 20.36112695162247, 19.073392857827425 17.99772008497853 M-1.1313329391238738 36.36132295486684 C3.904760957399067 31.82137908636586, 10.079985486265413 25.477624500840733, 16.79579090497661 18.273854023112243 M1.0734005250677492 39.650413254840515 C5.1923986118603365 35.03951290631658, 12.329082346748335 26.633149730278177, 15.442593515913192 26.062824830356423 M-0.36900359758287427 42.16100878660216 C4.132122059297082 39.723711817229514, 5.417181031201169 33.18604180249702, 17.708508055906 24.82358482325393 M0.8446763784660185 51.68727092990591 C0.5759599344016371 42.00291053541081, 3.8909211822255023 40.7422495528538, 14.778274955919159 26.941655664456853 M-0.3106443568097269 49.6000584344001 C5.72878810090833 41.99886928626933, 9.501042490360117 37.1710067949273, 16.974148554673565 30.356141138387688 M-0.4230357362155197 52.55582344369384 C3.5121669809747056 48.963837667032884, 10.736593799334758 38.19669289856139, 15.746737088614303 36.357401278975374 M1.0721226068015817 55.744199222190105 C6.169115621371465 48.09273209946657, 14.624348751216338 39.27799792468593, 17.285916608923273 36.49202611333406 M-1.338435908207879 63.65425948789986 C7.3979687785027615 57.59703869041996, 9.87670728850863 53.26793408315398, 13.935390940729636 41.86753704471642 M0.11000150089503791 61.17643429479273 C3.68137013785014 55.01029108585534, 8.475702768147753 49.4257939655428, 16.73781504226114 40.881342072022505 M-3.445172139770547 65.36976401355118 C6.205184833628417 62.40779302290716, 10.455913102957501 54.69303831056876, 16.904286423034154 44.601501653375564 M0.2784361200861539 66.86407555636019 C6.286589656145756 62.09581959917392, 10.047221709372222 56.1240809856997, 16.626173062331162 46.99146715927357 M0.7099825668369846 73.44264697167505 C2.4598843062237794 67.48350813770448, 12.709232774980197 61.214952107836794, 14.678525533268365 54.477730055980025 M0.8794327589904385 73.77287241104473 C2.22002726529489 68.41062276998814, 8.130772860412552 65.29282461051784, 15.092059463748846 54.574088279239476 M-2.091046877616316 77.730472053967 C1.719409177804823 76.50056840058043, 10.281011707466059 68.96234840581151, 17.280085269172766 57.76778220355701 M0.12338312525185985 80.88114050366688 C5.901826156111596 71.46940883714959, 11.904414392557005 65.44232629304771, 18.203105541129684 59.27932983607244 M-1.6452244463994163 85.42508963123149 C4.579950191343682 82.59424566758625, 10.37034708306726 72.80596692467365, 18.659640541516342 64.6604717878021 M-0.028522457523550315 83.6467946581561 C4.885150666407645 78.3530497036945, 9.944427100293 72.04161103148694, 17.43532800211767 66.66988247459304 M2.723124771256666 89.19031339516407 C8.939788726689093 83.04979572026694, 13.638009884895208 76.83710454377956, 15.18897737703012 69.27889917951971 M-0.4627672816918093 91.79502551933295 C4.260154112866178 85.55284899502433, 9.521241316427993 79.86762474126698, 16.91554217031883 71.4880360187307 M1.454727773092435 97.57895329679197 C4.400295442349968 91.87976790629536, 7.191679378129173 84.417112013558, 17.512520686483075 75.41812807040542 M-0.07109505263741198 98.98533249134964 C3.4716391001530003 91.88306452287074, 8.734694778389324 89.38837071999801, 17.222889753377128 78.64335611330598 M2.6871865568484044 105.7969442871424 C4.841519205546496 101.02122693394213, 10.11064667990152 94.2348266575101, 17.83974746761572 82.16221841148644 M0.9313130242551537 103.22565247835838 C3.4276244228479795 100.19459663762188, 9.583994864860982 95.45938659534916, 17.03125204590809 85.6797171624711 M-0.6131989667064588 108.06747505791091 C2.916675775682909 101.65444337122656, 5.902883347670926 102.65759362852754, 17.877009718168555 93.04835515378998 M-0.7123388433701436 109.68648862517976 C3.464497923655526 104.1001168315363, 7.2630079419791045 100.8690943424135, 16.19107284252721 90.3894310703783 M-2.559017770841115 118.44802097990197 C8.89315297232271 108.65577258308801, 9.635687541128618 103.48417230434286, 15.159357348910582 96.43097698901161 M1.5419521680927346 114.7679432557432 C6.331985586442959 107.79668738727142, 13.447353678741493 101.75371725850783, 17.21118135087849 96.82737598184809 M-1.2902199447866025 122.96802074481113 C2.535060370034308 117.75652003316911, 13.883607550463775 110.97414474933558, 17.68689235758228 99.85351886817858 M-0.15948473371225022 122.28739451486928 C4.461033349348643 117.1884891835315, 8.251849693480514 110.89963004684773, 15.045146365577411 103.33273880103276 M-2.881703490802389 126.04590930366558 C2.9789764307986797 122.98720794293627, 6.428554582469404 118.40862678710172, 17.45659174192419 110.41254074231807 M0.7744192458304355 127.54652930671018 C3.0211535538264083 122.31770425137586, 7.479732314927329 119.50850488794529, 17.77309918123951 108.54314393208449 M-3.0114914111479893 130.85324660749254 C7.5332662809023185 130.27042989814942, 13.012803156894595 117.7393519159709, 18.394130412705263 111.92185630312565 M1.2612954013362754 132.94547203541813 C6.422833779825149 127.13888494650976, 12.597564013212311 120.10174354557734, 17.68355650550874 115.80878201982381 M2.571091204945586 142.07884634798765 C5.424165323249072 134.45243425171017, 7.400349161603959 129.77934130785926, 16.446294396656544 120.92956592140577 M1.2271604404492593 139.59691334581373 C5.044324812180586 131.27878904722027, 12.446912474715553 124.88865111499305, 15.315833661991151 122.05944288818024 M-1.86216961579064 145.14580889595524 C7.320226622226301 138.75599148533473, 11.072094201988886 138.31361360733717, 17.832508604546987 129.25573328885397 M-1.1511703132245885 145.79314306182638 C4.240838166396125 140.6531487793962, 11.647528233052071 134.75858283439345, 16.06157235833069 125.99219218197427 M-1.766848962587676 151.14919794309097 C2.250237255741564 149.87469937724717, 7.3198821759591866 143.8884761477151, 19.137250034117137 134.4094183564975 M-0.04455515204127778 151.9937268282767 C3.772889614994152 147.56159943972514, 7.6360992303550805 143.32183310201847, 15.807153889142906 132.93840430535812 M2.1665301622949613 156.873073440422 C5.450325105851227 149.89678377390362, 12.575131968971444 141.2040990721119, 16.041870683107483 135.95280607536353 M0.470887218614675 159.29253904931682 C4.922577225051121 150.52842775411168, 13.354752585141261 145.1642524952131, 16.815522049043285 140.07789116248406 M2.744319756597813 166.75462033897554 C5.69362629463527 154.85388817807106, 10.081903808743558 150.01696406464245, 15.256420462287002 147.8653351371477 M-0.9043994066411898 164.23189162909898 C7.025728623557977 158.30458369763076, 12.55671547685175 150.70370748408394, 16.40800604567581 145.65303089817266 M-1.7984302689101896 173.24827733044717 C4.798432620924255 166.59624224872476, 10.29792423622873 161.69934769587226, 17.8120603983867 148.96073091265438 M-1.2115858201649388 171.2166627124438 C5.079275453994646 165.06051455702197, 10.360726012155089 156.72669503488726, 16.606733702646476 152.23580083635326 M1.0944411125020368 177.64276978564135 C3.839925576321104 173.64875602949877, 8.106965498458358 164.6494625240355, 14.912590402175601 156.62468209357914 M0.408955801649509 176.58132962328068 C5.8333610678266234 170.4122735009051, 10.930637440547393 164.9129609447716, 15.936159227599319 157.3154541218465 M2.151733811603424 180.59878639625362 C5.058443708533988 174.1116211796457, 15.283631548610323 168.37141477959935, 16.02686247139419 164.4318736309492 M0.9191796664460867 181.57764550643017 C7.234821913421658 177.57452066981136, 12.223556093747952 170.46663371364528, 15.865476415149818 162.96555265880463 M-1.6327001738655014 190.1660121133112 C3.351776946436533 184.92144221546928, 11.772577088065983 176.90321903528417, 16.020603603782952 167.31011547579183 M-0.1742204311596794 189.24167226604453 C6.195465656003079 184.212249175073, 11.829049037154185 178.30886061999016, 15.890441559913455 169.0580958513798 M-1.4681338461642128 195.74725688784133 C7.601597359569686 187.15752144710856, 10.94997623712718 183.91221368769325, 16.688238710110916 177.10447131980254 M0.6620118034477372 194.40790930627594 C6.597724862428791 188.55016675418227, 11.11976478285609 182.65659245175186, 16.615196369534267 174.47764934439255 M-0.03514229452376298 202.86258441153953 C6.396508573216186 198.4984398485562, 4.346374898284974 192.0284261580373, 19.645303817109063 182.59429153378576 M1.2695180779122837 200.92342227194496 C6.848134383980732 195.11576582445696, 11.54486659401261 187.75796835439678, 18.19468116761823 181.9883779617724 M0.6068105077869006 205.96634505521027 C4.428799088855357 203.31000083311167, 7.482484012284452 201.99296442805698, 18.979973835546403 188.03088980943713 M1.8407387158400128 207.31487598698106 C5.012106052005393 201.53776630645964, 9.18172083412221 198.7810806772123, 16.936162661809355 187.22172234833988 M-1.929100528463289 214.1848525105491 C3.1772767159127184 204.2904752638405, 14.09108535460437 201.77482605647594, 13.345475763163416 192.35457609778373 M1.5204404248748575 211.77621109620478 C4.0611298787964945 208.57472193695892, 10.516698489738728 200.28447081018444, 16.54164714672312 193.14343190824718 M1.7353515944662377 217.73341672858325 C3.497285630513426 216.3119440099448, 11.77433225792602 206.34830276218844, 14.691911597700628 198.35878534985295 M0.04812949963238683 220.23567700376836 C6.382889457855864 215.64580458981297, 10.279355411505003 206.85315082758325, 15.189703416975053 201.66769354564659 M3.0752688743159498 222.68047266033994 C5.127463437654131 222.87276611192152, 10.827249190974282 213.86393090493033, 15.398081249927028 205.8542062573402 M0.8398747347280704 225.169960613824 C2.871555500676412 220.15485775599515, 7.36671699780236 216.75662857075324, 16.617285680209143 206.87126040535856 M0.39445122185483683 231.3117089975147 C4.086852503155699 227.60580375530594, 13.076702422802699 217.2032047365445, 16.3638957465736 213.28581419105 M-0.32986966219410196 230.81831507119225 C5.348955436957944 223.73715048786843, 12.369624494675218 218.10621695019486, 17.362146760031376 211.06048481131262 M1.317809663813938 237.347101110912 C4.899546478861533 232.05962019555932, 14.83703409442856 223.94137451547877, 16.461904998409377 221.07054784267788 M0.7141491324719085 237.24959269980255 C7.403277172017884 231.55012114550618, 11.948034428112045 225.12387372549017, 17.764365864085782 218.5589949083293 M4.090081641471917 236.96718705950812 C6.263953088454222 237.73128907190065, 6.799324210564564 230.44441870256762, 15.165951214006007 226.62555919443193 M3.4660362353389806 238.47138761653142 C8.440175951717814 235.44763638544623, 10.701881907335425 231.16351172106118, 15.687096919437707 226.04990608801072 M11.056785296627764 238.53867952649406 C12.920421594380981 235.1070648947997, 14.26774661763415 234.64626790105697, 17.125006809622768 230.95825551744903 M8.838209680819398 238.1551288407754 C12.284691660395726 236.72668555092116, 14.116256346250989 234.3063483375963, 17.01771559523118 229.82404562104847 M15.115314558792763 238.24394995225057 C15.918369995051384 237.79152838637853, 16.07397095137588 237.60813528840845, 16.67686456066722 236.7438944716909 M15.161771916646414 238.54707090584026 C15.363137273990478 238.1777034303785, 15.62919559495097 237.70090337662347, 16.68053211120123 236.82022629888442" stroke="#ef4444" stroke-width="1" fill="none" stroke-linecap="round" stroke-linejoin="round"></path><path d="M1.0972972130775454 7.2337724661827085 C2.7907870349287984 7.411039142489434, 5.683185548186302 3.707568759799004, 14.98419883966446 6.50218944311142 M-0.8302919209003449 6.338686219453812 C4.104129524528981 6.8757564514875416, 7.193842718005181 6.146575505137443, 15.257120913267135 6.963604317903519 M18.08164759853258 3.6301855661758053 C15.312006933937187 58.12706517334335, 16.248774064284515 104.6984250728168, 17.883661351488627 236.82235594752333 M16.40323965522953 4.917288784687547 C17.81182156867598 67.10268418400116, 16.489079482712214 130.57262837797236, 16.551162797318707 238.47715577131083 M17.347586061954498 237.726796605587 C13.868188666403295 238.1327988883257, 6.943481212258338 237.43708729469776, 2.3506644463539126 237.48348994970323 M14.792413996458054 237.81602302670478 C9.872920739352702 238.38164033281802, 4.989578605294228 238.03416592943668, 1.2018556392192843 238.05356075406075 M-0.9761434845305454 237.61871838603946 C-1.7133073904896134 169.3898657320878, -4.060093244856641 105.16430260083264, 0.8016635267824351 4.366220994928514 M0.29524841200584473 239.3522111341301 C-3.9510522871923293 152.72038868399378, -3.265541724255947 67.99263129269471, 0.5970352145454604 7.338403563916234" stroke="#1f2937" stroke-width="1.5" fill="none" stroke-linecap="round" stroke-linejoin="round"></path></g><text x="20" y="122" text-anchor="start" dominant-baseline="central" font-family="&quot;Comic Sans MS&quot;, &quot;Segoe Print&quot;, cursive" font-size="14" fill="#1f2937">Visits (10)</text></g><g><g><path d="M199.861042893763 0.15985186497390202 C199.861042893763 0.15985186497390202, 199.861042893763 0.15985186497390202, 199.861042893763 0.15985186497390202 M199.861042893763 0.15985186497390202 C199.861042893763 0.15985186497390202, 199.861042893763 0.15985186497390202, 199.861042893763 0.15985186497390202 M199.42021155596365 6.270385258068621 C202.73536891855315 3.19050724889191, 202.7861688760184 1.1438964596955108, 205.92361199528514 -0.40779210087663353 M200.03788268685926 5.553544720282138 C202.4672306073281 3.983386073726006, 204.06707254067737 2.2315576355152067, 205.97459943324864 -0.6331741654575505 M198.43310069967183 13.102379482606825 C201.99720873409683 7.206187212626876, 207.5437037835175 6.403189322330331, 209.62716232050235 -2.1906891024712003 M198.8238139789191 11.143082028249678 C202.71652447408607 6.6754209343899, 209.33145985239608 1.8846486473109474, 209.60599991310414 0.2787433778640349 M199.40057268835258 16.9628833800252 C202.95519786393763 14.595605225706883, 210.33061345202742 4.947447457286181, 213.25654422457765 -2.337541023920568 M200.0565514723177 17.714764159887604 C206.17901352124213 12.225769593800178, 212.06031405435272 6.355775667140974, 216.82757036800933 0.2654285659088771 M200.73443785562296 24.16841299418544 C207.8496851605121 17.10767285275136, 210.4481247490262 11.770725949198503, 215.7662821945824 3.8240493812553122 M200.76331083133 22.695823349395745 C205.01017230905322 20.435902864227824, 211.43089271867467 12.250122841187403, 217.10249684127945 5.041260094284221 M196.96414218726218 31.40634383895909 C205.88342948778103 21.25101504806622, 212.58864182106046 16.17912608136119, 218.36444179544654 9.38618299932179 M199.81252495529714 31.290939653306356 C203.53263762490076 26.450650716531147, 205.86007278113215 21.61212117979772, 215.4092378897449 11.538450875589223 M199.02738967875132 33.82604581640058 C207.5576213105651 32.544976338974735, 215.27039849043604 23.279345789125657, 217.76429993567953 19.1186084730017 M200.94258143345007 37.247236879923875 C203.0117118541238 33.33982625968675, 205.50153465297942 27.238034131335624, 217.49612901566516 18.240128458796722 M198.83139820960932 45.101977149455465 C201.6344608096435 35.81327710712854, 204.719620722492 37.36973802836592, 215.38500158177192 22.387905284572206 M201.32075673905783 42.52755215844384 C207.0026403174684 34.320786448648576, 214.08238872879122 28.88088601286505, 214.9767487792807 24.41687623243388 M201.64531274632668 48.350717320400996 C203.65210782658102 41.64423644522422, 211.77037472210017 33.792453894530986, 218.23944170021417 27.666902916310573 M199.8356294323609 49.92746887739353 C206.46970713903005 41.47919263324766, 213.87383169145986 34.304340548858384, 216.51780074083212 29.536152585027956 M200.73202825539389 56.99509581151436 C207.74255776344566 48.6161119976722, 209.1018785207848 44.09710807196325, 213.56608817052523 33.79880959116236 M198.82890307359972 53.63944542530011 C205.09526064879196 48.26446619900472, 211.06256069327682 41.261376094002074, 217.57093637358824 36.62641964577452 M196.78001261633 60.42832084574112 C202.38677388356766 56.362739332859974, 210.46521652072454 48.78220954249999, 214.02139498818622 38.51424521118196 M199.4272291360434 61.81694393135914 C205.09146108472032 56.52003081721334, 205.78971128967197 52.42553322458172, 218.26516826678025 41.69417622297796 M198.29571982461601 64.53101232513575 C204.46240241030338 63.179917975702764, 215.2808042028637 54.416353817081244, 216.2313300327161 45.46891799931498 M200.2346202089229 66.79146320387511 C203.28833982471295 63.43414724027009, 208.62953586999575 57.77209882244336, 215.45839789367704 47.26163444583388 M199.35511775977088 73.10887847264377 C202.8750043827557 67.99507059132782, 209.9744592880949 63.487278294594596, 213.98378827060534 53.56065743783863 M198.98397776550723 74.61021537204353 C207.1524499587254 66.67312140589553, 212.11559631558072 59.51988528587789, 217.42982881451917 54.98375270286949 M199.19610138828511 77.20974877054243 C209.0586639105244 75.43896691472571, 211.19346971837473 65.76641776480221, 217.66041466834443 60.19354300903014 M200.82950536603684 78.45315882439165 C204.68810557367834 75.64147674415291, 208.39893035964516 70.38984734710786, 216.8117895895471 59.41236438261202 M202.45031567664924 83.98770270110892 C207.33583965845924 79.44734129357279, 216.0475601265344 68.77199912887346, 216.06842710545243 64.54203293583501 M200.8785315707523 84.39712694944666 C206.23675637341853 78.86970903542566, 209.926393633428 71.6780165000078, 217.92155669202984 67.36030661425698 M200.1749785043822 94.3671984872888 C203.12554567020564 86.48393668936392, 211.69680659101343 75.4831147210476, 215.23302957741032 69.66799712030776 M198.7233328529225 92.37995687640414 C205.12635542969372 84.8905299225147, 209.04095983541572 80.62563213392764, 216.25376771119844 71.31845320610888 M202.24529386696506 98.76010603113656 C205.94054312632252 96.36213170956945, 209.91820778512752 90.33642695893312, 216.14893996373704 76.75839378539392 M200.33354680177857 98.41752241356855 C204.79304870587802 92.53532321581511, 210.62549444495147 86.83845103238349, 216.13194912032176 78.99339128736325 M202.3059796439168 103.30338355559769 C205.2870438894517 95.03077486112696, 207.6502508387036 94.7889944580227, 215.17280323092314 87.24230241337068 M200.50769989058944 104.94141069013538 C204.81777153052076 97.4950981353788, 208.82741522235122 91.95985756902229, 216.60092947964046 83.5244542465473 M197.36368080172792 112.77611054294947 C207.05312180035804 106.5014706248857, 208.58792342227335 97.06341719485451, 217.0550143454591 93.2550524865153 M200.76562067959563 110.21595509463194 C203.53643946714348 103.99106679274425, 211.41141646999256 99.21659110180484, 216.35866234939493 89.24785047218825 M200.81879230688892 114.66361647546907 C201.455936898492 112.18134627180706, 211.19244096944587 106.16369150636773, 215.971541186864 93.7023522277733 M201.48026272903763 114.90236401558538 C204.69382949834053 108.08446583662936, 212.19516704165176 99.2802954643757, 215.48804920285426 95.86079209348165 M197.89728203891877 120.8216095761021 C205.73619615331125 111.81931583771177, 209.22384550590206 106.58664334320112, 215.11633775061875 102.77732153919919 M200.4095275121844 122.22284958219132 C205.16242795548473 115.28030845459101, 210.66807852693594 110.38639954488829, 217.34935262924938 103.83852791873201 M197.24310399329852 124.79320974690297 C205.82485483562772 125.16830754783872, 210.22333829770722 114.05324738570941, 217.25287191624236 105.79816864373845 M200.98867761826705 127.37766060275415 C205.2039898334734 120.50521764455941, 210.99286001034267 117.17803064492227, 217.4317241018493 108.77202007713478 M202.26972604954713 134.44662521081725 C204.8960513277377 130.09199528658502, 205.29656826376782 124.83174627812562, 218.70653865022533 112.52522302366833 M201.18186452055448 134.28275920646945 C205.39391305101068 125.37242881783416, 213.12082947869627 120.7347583670617, 214.84561718089455 116.38497695721726 M199.40860220314562 141.33747586989935 C207.6402737860933 132.72502436716653, 211.86371380066595 129.21381651228523, 215.9964829190582 122.0250641612661 M199.23060080827773 141.03214420164164 C203.0012017294804 134.70561602161465, 208.05399157288724 133.66357993383681, 217.2546104266256 120.29798194750668 M205.8224254090436 139.99670423018443 C208.6733323141662 136.1379089702798, 208.50752498494896 135.31194003454905, 218.40356710799915 126.20608681698143 M207.29809550591784 140.0679504464816 C207.24754870995176 136.3741791576468, 210.19476488692905 133.31075150524453, 216.91541327604037 127.69246433515846 M211.80488234635902 139.4748798216232 C214.15177351698807 137.2402988376343, 213.9942143063 133.66161018206395, 217.725438797627 131.51445714827852 M210.99880369704675 139.49239886962854 C212.9884018147158 137.437997701173, 215.47584746459088 135.38232789602603, 216.2617250269692 133.06703372668701" stroke="#f59e0b" stroke-width="1" fill="none" stroke-linecap="round" stroke-linejoin="round"></path><path d="M199.6345944261551 -0.09245506763458239 C204.9415740698576 0.6460782849788664, 207.5263710963726 -1.6408624804019931, 216.52839767932892 -1.5556211137771607 M199.6194161581993 -0.6026275610923768 C203.72825904905795 0.8555129029750824, 206.70768543601034 -0.602848989725113, 215.79424182653426 0.6472086358070375 M217.71745358109473 -2.3981869757175445 C216.57225491330624 33.449468108713624, 218.78516976163385 63.37475380837917, 217.24975281357766 139.6180642068386 M215.3525686711073 -0.9576769798994065 C213.93702919383048 45.72900196105241, 214.01232988734245 92.25015661001204, 215.70200590789318 138.72717991173266 M216.135172123909 141.213593211174 C212.3763773328066 141.64159777665137, 206.84696242451668 140.25017458939553, 202.14132889270783 140.72697989940642 M214.8648279929161 140.11204605340956 C211.42584147870542 138.29928066563605, 205.49915721058846 140.16433185887334, 201.12371127843858 138.02712150812147 M200.89406681656837 141.49930257201194 C199.32618493778705 85.50146726220845, 200.18239812595843 32.56055944263935, 198.69376106858255 -0.65945845246315 M199.09746212661267 140.79431371986865 C198.34771189136507 93.1148675021529, 199.96708607120516 46.73337355494498, 199.81036982238294 1.561696246266365" stroke="#1f2937" stroke-width="1.5" fill="none" stroke-linecap="round" stroke-linejoin="round"></path></g><text x="220" y="69.6" text-anchor="start" dominant-baseline="central" font-family="&quot;Comic Sans MS&quot;, &quot;Segoe Print&quot;, cursive" font-size="14" fill="#1f2937">Sign-up (6)</text></g><g><g><path d="M199.9345795857079 151.27525757778895 C199.9345795857079 151.27525757778895, 199.9345795857079 151.27525757778895, 199.9345795857079 151.27525757778895 M199.9345795857079 151.27525757778895 C199.9345795857079 151.27525757778895, 199.9345795857079 151.27525757778895, 199.9345795857079 151.27525757778895 M200.42332865829223 157.74187858352255 C200.43524182081507 155.1304985620449, 202.22006049685476 154.475320099677, 205.56555126919 151.3086474013049 M199.6656486916786 158.33221017600783 C202.37321154671426 154.8509517070139, 203.76249168314968 151.85397983973368, 205.29159257075338 150.5683151673246 M199.0060936041373 163.38861977727382 C200.5976569699872 160.74590336709417, 207.8677050977334 155.6289418600058, 213.10871380345904 151.60669354143897 M198.9521635230082 163.6496735957381 C202.07685864481252 160.69675127358394, 206.2901783731231 157.1331988280348, 209.8769701923617 150.83084226194183 M197.70802999918916 172.06048361486341 C201.9987636673384 167.9667059437539, 204.9414443320443 162.35479114279363, 213.49124944114547 152.54371676172943 M201.09199817513684 169.18830478465702 C201.47600990889413 164.81831707849955, 205.37751799113124 161.67364804018152, 214.84778865629298 149.2481711464736 M199.51152664763018 173.64724081767724 C201.83754201346827 168.12599933110545, 210.4147586788106 165.78090082744697, 217.05855529368804 155.7645651510667 M200.35483611119076 173.83835635049272 C206.45856788123245 170.5384318646006, 212.84950092318837 161.7465357805969, 215.0628772637336 155.19038122061008 M200.38681155711976 184.50524507629976 C206.44782739005885 172.99205129007385, 213.09413893922738 169.30870765717472, 217.5584935925197 164.4862283597399 M200.65938570917217 180.33213879782068 C206.4750241026071 174.46701497561284, 211.5661768369542 170.4092206705127, 217.12568773396725 162.11463017414104 M202.62832266289843 186.0679704042582 C208.49480709945948 180.64949615846473, 210.62171526491417 176.65076736836517, 213.58900921489987 169.48597456172178 M198.30111029494654 187.19975699954315 C202.19892851699217 184.84442774186567, 206.03575521755755 179.01488501165326, 217.18675283487832 168.9682545404143 M203.12112290020664 195.82826581507985 C202.7119821018485 187.57244282823788, 205.69957439864493 185.39390816065085, 216.55079009606916 174.3910277705396 M199.6551606943794 192.76662832856243 C205.08395621863326 187.51998390684318, 209.18313611818868 185.02045510483867, 216.73841089233238 175.03448419233212 M197.87272311731337 200.70248406296017 C203.1650006198557 191.98132381848856, 211.93089401238382 187.32813980960714, 214.235149171268 182.6879869997206 M199.1581981463647 200.66761139844897 C207.06233836658828 192.53375810052373, 213.15701824448237 184.09596979109824, 215.65268773219492 179.8918615027967 M202.70549527844972 207.64751458120367 C209.0603805902516 197.55626593708882, 209.45921415378402 192.66453399908232, 213.7558472887654 188.6869550034603 M200.65080750575848 206.61403900188228 C207.48943491827106 198.641526404299, 211.6002374125221 190.02366519735196, 215.7631195933599 185.72837008537854 M196.90820023188462 212.79846012400586 C209.2247502998296 202.88601660354902, 211.74241425556497 197.91522191800905, 217.44150641279236 189.7385712150632 M198.47902501145472 210.8813947524329 C206.26896476738162 207.53133466416918, 210.5163400748091 201.38958827522177, 216.60716633068338 193.70846773275719 M201.52840091285856 220.08566970489403 C202.60579217237273 214.14503684392722, 210.87487225922408 206.47374467237032, 217.68713739161782 200.1716883887248 M198.8367514893189 217.87634602300307 C202.87736065389316 212.3153981838548, 207.83436251683418 207.09587254879875, 215.72773918305927 200.46076305850312 M200.70428525661208 225.79886733739534 C204.11755474454623 216.6181117572812, 209.9265895300788 208.5431972627383, 217.64655316048243 205.91040553797228 M200.9475752652166 225.65087268649498 C204.4407497878908 218.92196192968967, 208.60517417822126 213.56565565077707, 217.21561397635318 204.04504843551857 M200.59648911141414 231.95128077570536 C204.10854185767667 228.98653313476294, 205.3934901433262 223.56444413561528, 216.56419165462657 213.03819667633297 M199.04659507804175 229.81639585647918 C205.0699647785335 224.98480148498598, 210.63620195748376 217.1073573894184, 216.09125403643057 209.4664287367058 M202.08050944149582 236.09667445312854 C206.80773889145877 226.4628625342411, 213.39502444861895 223.823397188306, 217.5069387223193 216.36203955800238 M198.92283328265037 237.51081082563516 C202.71896639142145 233.0831880975773, 208.13297956400683 227.95597114612133, 216.28663310218542 216.58945007563534 M198.79823209512602 242.06702612386044 C207.21192120139733 232.81844958668745, 215.16305910723366 224.6794615427922, 219.25654132779155 221.22944861628494 M200.6207636179365 243.08616370753344 C204.42595217480644 235.20957776823346, 210.1921053080141 229.17447599393205, 218.3876485284737 224.5051327449866 M205.57462218883498 244.47269196828077 C207.40026306362392 242.66370982708037, 212.09916028031498 235.192103805726, 214.4803365197678 228.70729878930112 M203.61038262094422 243.22451031324636 C208.77797809874676 239.11164786592704, 213.02889013996145 233.9159124854341, 218.25612456790105 229.61217022960741 M208.52231706938244 244.79162531446264 C212.87092049492873 239.44288841834302, 213.28338366478135 239.2517458427106, 218.10287837462903 237.04531308176954 M210.11873627288736 243.94299770045623 C210.826976255804 241.52147321053806, 214.44780611915215 239.49962798480306, 217.0810825298208 236.17808834414026 M214.6138283183979 244.1703830007098 C215.7338297673988 243.03666137974895, 215.8815889697539 242.17255581706326, 217.1746101331145 241.44906724164701 M215.01926479091816 243.95434802483834 C215.42626727083777 243.23691503908063, 216.04797968307247 242.45358592486687, 216.65793093400006 241.62744678842344" stroke="#10b981" stroke-width="1" fill="none" stroke-linecap="round" stroke-linejoin="round"></path><path d="M198.17189163923263 149.7813173985481 C201.97236110478642 150.31311742746828, 204.2495566445589 149.442706279397, 218.07259651899338 152.70656832933426 M200.06912423729898 152.21605865836142 C203.35238857358695 152.03526935446263, 208.78152815401555 152.40772651541232, 216.33136273980142 151.53081295371055 M216.9761803716421 149.20271953642367 C216.24410248250962 174.1378811249137, 219.56347475500107 196.58948863625525, 216.27462922036648 246.2270963102579 M217.42885300666094 150.56348453015087 C219.2650808317065 169.31281387507914, 217.77803187197446 189.41385678201914, 214.75300886183976 242.490769867599 M214.9227581858635 243.18038981676102 C210.88456599920988 243.63039666497707, 206.750443636775 246.6632618840933, 201.93199333906173 242.45046984910965 M214.93724198937417 243.44806908011435 C210.41876221805813 245.1449209984541, 206.0087358158827 244.10249778831005, 201.04556691765785 244.16068226218223 M202.94110022485256 242.64895385801793 C199.25701173214912 218.8960579136014, 197.3413315144062 196.52855320453645, 202.8406416028738 151.81081232130526 M201.046193189919 245.591470579803 C199.82009778140784 217.0285657572746, 199.04915905116798 188.81258934050797, 198.9155547335744 152.74254436939952" stroke="#1f2937" stroke-width="1.5" fill="none" stroke-linecap="round" stroke-linejoin="round"></path></g><text x="220" y="197.6" text-anchor="start" dominant-baseline="central" font-family="&quot;Comic Sans MS&quot;, &quot;Segoe Print&quot;, cursive" font-size="14" fill="#1f2937">Bounce (4)</text></g><g><g><path d="M399.7342389676627 46.705723095471285 C399.7342389676627 46.705723095471285, 399.7342389676627 46.705723095471285, 399.7342389676627 46.705723095471285 M399.7342389676627 46.705723095471285 C399.7342389676627 46.705723095471285, 399.7342389676627 46.705723095471285, 399.7342389676627 46.705723095471285 M399.7379740871349 52.00371544480764 C401.85380415894707 50.6930667496009, 402.416015181108 49.01491582792097, 404.9363027338539 47.245037368699286 M400.33331634892613 52.49003436923467 C401.95752753649697 50.358824399269096, 403.0578225104259 49.27023817956036, 405.6782776097808 46.15427323953745 M399.3052091986127 57.989919876808145 C404.04422789588756 53.48067932642876, 407.9178291019592 49.16975420254855, 411.1963879764256 44.59913599021646 M398.8066357571073 57.91132496809385 C402.6830874407074 54.058070760932395, 409.1541804117882 49.30666750020024, 409.8740631616292 45.69800095088693 M402.7976690290262 64.31843407434621 C403.6115517201358 61.3470992783209, 411.60988098426503 56.21864861080173, 413.45207734772316 45.34003435224677 M399.30962659695643 64.22219563407103 C404.3588223247916 60.62109347882296, 409.37669309211316 53.44003027658498, 415.7941296345865 45.745973531905655 M398.01473812964736 73.84112844603638 C405.23181670138695 66.87310854800164, 410.2681055885101 57.34631054312364, 418.07695108280365 52.020140725745414 M399.6724840810615 69.295949156457 C404.3527909984691 68.72956857095456, 407.433641527807 63.10510432710144, 415.9493803761977 52.85456215180323 M397.1356036169873 75.51920611850777 C407.6802255384647 69.04814733694879, 414.2676363035223 66.75334903785557, 416.4786680796028 57.50133352502529 M401.23236915305716 76.8883977472023 C404.7901487634548 73.92292885672025, 406.03351212516696 68.17035960041181, 415.36826026819955 57.00586927756015 M400.8674963950365 81.11553563653764 C404.5145436206252 79.30685706651936, 413.379507690462 68.32269176904892, 415.5398411841302 64.16840045530917 M399.897879904434 83.15791776358422 C404.4086713489625 79.51027984161816, 406.10802180172124 74.28024348602975, 416.6034993441014 64.01144042689921 M400.73697028081386 90.86961428557153 C403.64039998648144 82.6962613249763, 406.665724125525 83.02708684622351, 418.0987603293669 69.95450048115154 M400.91568733971087 90.52076430354829 C405.49832814563956 80.9858244773887, 413.3413179004442 74.17233378065421, 415.6822547243845 69.21244237687489 M400.88231520730056 96.61460103016393 C403.7941809544799 91.69430991280898, 413.01011735820487 84.06701824560615, 416.3569793323318 75.62413088799795 M398.86294857936895 94.96810414414898 C405.51632401979964 86.60988764254371, 413.25548566946395 80.3922383501043, 417.7136974135677 74.56263022543273 M398.0050849915155 102.61499315576032 C409.19867461080014 96.42420884658415, 415.0370209805258 84.7597488962801, 413.6717290970155 81.4901602206256 M398.9988346279271 100.7036923833318 C402.22378523654015 97.89446515036305, 407.59779503560486 91.43538074258547, 416.8814255031415 82.34538032984992 M396.76251053744915 109.48365920713795 C405.0354648992328 98.467605164444, 411.380843222796 93.63103540088244, 414.18774052740844 85.27795702381171 M400.456943576876 107.46090537837398 C404.7029617454202 103.58218813315074, 405.88795520457285 99.3176827650459, 417.87528708459644 86.83781904740371 M399.3993227490921 112.04596772907409 C404.71927188242813 110.09723941504156, 413.3954851776436 100.11720690002625, 418.86906744052953 92.78951858300188 M401.6771235177059 111.7668694865528 C404.0514418561998 108.43215004306234, 411.4535388018128 100.88160110852274, 415.72320316245145 94.77495147603967 M401.7795754434633 122.80391600701424 C401.9625555279683 113.15411815983137, 409.76293784361064 111.49919744938936, 415.29149976936003 101.82050386275047 M399.43729545493596 121.00658980581375 C405.7529646519301 115.2784595404248, 409.2942758932079 108.31706826696777, 417.3835808571877 99.86669439281219 M402.37905855354364 123.85316300551285 C408.21140227283956 122.40488500757023, 411.85180925992375 111.14596164037532, 415.19409133091864 103.79791014850314 M400.84586650904714 124.7399831132113 C405.45756052441027 119.62637821832844, 409.29319053518896 116.44836303506753, 415.096841173324 107.03555289566691 M401.43682589635233 132.52070601001552 C405.1001093182009 124.98071441456533, 415.96295996444616 117.57712588739439, 418.67157302919605 112.49710598503705 M399.8932576845584 131.739554506691 C404.5019427481195 127.83817906348241, 408.52062697823334 121.00188979487444, 417.5778322023509 113.33365334188099 M397.14760837587977 140.48191356529938 C402.1547900279664 132.97375043785652, 406.07429796808066 125.22108613554073, 416.60617576818277 117.10595991712935 M399.0443170729604 138.10743034353004 C405.7097940538111 129.8436854188195, 413.3274959145045 122.03837965880376, 417.047652035759 118.80687208873161 M404.7924763745343 139.10452903935436 C408.4428256621741 139.26128633871397, 412.2149976409316 132.16704138175464, 418.5917216321715 124.89049880879236 M402.68015695067993 139.97362016597515 C407.2861887653313 133.31938139875834, 414.1497300502296 130.38769969304994, 417.03943902968257 124.5769940625341 M409.9034600349366 141.1361547553549 C409.3715730869231 135.9601894726067, 411.71213062302996 136.81723456476325, 417.3745858175151 131.60762982869238 M408.7055243309437 140.22178731680015 C411.5534879965259 136.4743925407481, 413.7353023927491 132.85729442203902, 416.2083373159758 130.02621202850432 M414.4747212657131 139.5662820258048 C415.33129382967536 139.075264113425, 415.58588248788595 138.54500719526646, 416.27303798967796 137.33257059394384 M414.77530322907336 139.03823539130954 C414.9861147403301 138.91077815914232, 415.7126410117135 138.32822317227973, 416.7841323908587 136.85040998964573" stroke="#3b82f6" stroke-width="1" fill="none" stroke-linecap="round" stroke-linejoin="round"></path><path d="M401.82918885231015 48.775089864730845 C404.1231481397152 44.748156569957736, 406.0927421927452 45.294275039196016, 414.49679535865783 45.84875777244569 M400.51883231639863 46.474744877815255 C405.53651809811595 46.44702580595017, 408.2953708720207 46.09030202054978, 416.86848365306855 46.41441727161408 M416.2349071621895 44.803626048564915 C411.5468033100128 69.73050816655159, 415.9726330066681 95.61265151500702, 415.2995056271553 136.83612841367722 M416.3051373422146 46.08464604020119 C416.52624110894203 71.08375183343888, 416.67684249596596 95.75180904269219, 417.0040118157864 139.85435982346533 M413.710344247818 140.667186422348 C409.3927546656132 141.13919555330276, 406.6539248490334 138.35634917879102, 401.72265778541566 139.69395979881284 M415.00965598583224 139.74409210681915 C411.9716829574108 139.06256133127212, 406.5183144211769 140.23266371774673, 400.9674225568771 138.13424301624298 M398.58813363313675 140.59860514402388 C398.68508230953216 106.79474388480186, 400.3975086858749 72.70473760604858, 400.5875221371651 48.281083095073704 M399.7949242532253 140.7886274397373 C401.03586370854373 116.14475434303283, 401.0746120682239 90.89678578734399, 401.22073964476584 47.923392492532734" stroke="#1f2937" stroke-width="1.5" fill="none" stroke-linecap="round" stroke-linejoin="round"></path></g><text x="396" y="92.80000000000001" text-anchor="end" dominant-baseline="central" font-family="&quot;Comic Sans MS&quot;, &quot;Segoe Print&quot;, cursive" font-size="14" fill="#1f2937">Paid (4)</text></g><g><g><path d="M399.79562247947086 151.43510944276284 C399.79562247947086 151.43510944276284, 399.79562247947086 151.43510944276284, 399.79562247947086 151.43510944276284 M399.79562247947086 151.43510944276284 C399.79562247947086 151.43510944276284, 399.79562247947086 151.43510944276284, 399.79562247947086 151.43510944276284 M401.30164082757886 156.32683127022 C401.1625974609844 154.56729857007562, 404.31020846187795 153.14584225379753, 404.5674335779966 149.9679028355301 M400.60581865481794 156.77472992575377 C402.2074044597294 154.3992266299053, 404.2227731771406 153.67849385526938, 405.01490217290535 151.00444767407782 M399.8660489229415 161.8901408059517 C403.2121399092523 160.6343761153726, 408.8092941936496 157.12948737470052, 409.5457862792457 152.01049926860313 M398.9228321210597 164.0318971700588 C402.03126843129724 159.13338173460292, 406.1007457523786 155.6091983154006, 410.13288026075014 152.42408046944124 M401.09297315972617 166.63001494366097 C405.8537174213736 164.61031894880395, 412.6516290015351 153.399755614405, 413.67462938415434 153.8352727723733 M400.3329201196389 169.309716893317 C406.97044931808915 163.86964670047934, 413.24278777724106 155.69331769768186, 417.0021947427335 151.5426967469469 M403.179673741518 176.9339369040047 C406.5131718704738 172.29268649562084, 411.1282378344252 165.7577368906372, 419.3570710017726 157.5746371300333 M399.25185618078564 174.05246279203047 C402.58903339051176 172.44607820580384, 408.84009655218415 166.21549790098743, 417.0976076185152 156.61766391260556 M400.5461198067082 182.232087990325 C401.8324702606058 174.40316421343297, 408.36098024155245 167.09691124814566, 415.66056669653926 159.8153595199199 M398.8670767267955 182.74357752619315 C404.5203820610244 176.3720354184586, 411.7274630008523 168.2002013937835, 417.0725569322852 161.19602921058848 M398.71233522803743 186.21673127864904 C405.86496450238 180.5506127449402, 408.90602201719975 175.1071800736591, 417.7523972832139 168.14974717850572 M401.1003146147843 185.96970893745726 C403.1791108231066 184.0519573646267, 406.08322510281687 179.25779889541965, 416.281969983178 168.35354714299328 M398.6145417912746 195.20988358567243 C404.7086868801861 188.08604088183063, 407.6374653163029 184.6806952376792, 419.2523956635275 175.57160360159548 M399.2379381148958 194.3738211081434 C403.50793625510033 187.8772909340798, 408.30016649785546 184.0849173803201, 417.43176365729954 173.44403097124965 M404.80969045613165 201.07092924675413 C404.30040792865145 194.49485352605538, 407.41743395209926 190.4648054762313, 418.740533623249 177.85919560588448 M402.6854821712172 197.81280813923544 C406.92405381520166 192.72919990443802, 412.8738862263686 185.80065842845679, 416.8364312247939 181.73231977767796 M407.2131526566638 198.3140675921642 C411.20240860739943 195.45208287930154, 411.835625250492 194.70555344793544, 414.63500139567606 189.1331767181757 M407.802683588524 198.60167941628927 C409.75342995286616 195.5878850731738, 413.7675320058836 190.72781973753877, 415.4834857510363 187.92149431374696 M411.2460510219551 199.130413007935 C412.69859586532556 197.52101309848052, 413.66591833165415 196.28157151945936, 417.11933089072886 191.84227271620438 M412.16236547670434 198.38545820785077 C414.26797783225015 195.9634853717004, 415.49193296646393 194.2524652461653, 416.6326325094986 192.66471235152588" stroke="#8b5cf6" stroke-width="1" fill="none" stroke-linecap="round" stroke-linejoin="round"></path><path d="M400.36648606538773 152.24886233091354 C401.153935174644 153.90319571244714, 407.9359277409315 150.745843798995, 416.0409941983223 153.7109472155571 M400.9685403954983 150.33343109726906 C405.1606476226449 151.22678225743772, 410.3692135900259 150.14087752568722, 414.8456045663357 150.89802158951758 M415.49363395273684 150.00453256070614 C418.04757099176646 161.5826001445949, 417.1798581125855 177.55474426656963, 414.3243820339441 197.04516051709652 M415.18142167776824 151.20580755025148 C414.2618297877789 166.58687468096613, 416.05008152155875 183.1541310817003, 416.05501476973296 197.2179497793317 M417.6179303097725 196.233983027935 C413.0209433320165 196.72799444162845, 406.5574060612917 198.3694364734888, 401.51332223176956 200.13744974851608 M415.08206998229025 196.68011513352394 C410.96460369676356 196.94820166409016, 407.02789302647113 197.77082964718343, 400.8892781960964 197.8678037703037 M400.6351670414209 195.34825643002986 C397.69964342936277 187.3131915564835, 403.0401763997912 177.32044540852309, 398.33440267145636 154.35135386884212 M398.54365531653167 199.18578429967164 C401.2227795429468 188.6147171021998, 402.071214992547 176.48853058099746, 400.32592455595733 152.7042406156659" stroke="#1f2937" stroke-width="1.5" fill="none" stroke-linecap="round" stroke-linejoin="round"></path></g><text x="396" y="174.39999999999998" text-anchor="end" dominant-baseline="central" font-family="&quot;Comic Sans MS&quot;, &quot;Segoe Print&quot;, cursive" font-size="14" fill="#1f2937">Churn (2)</text></g></g></svg>