<svg xmlns="http://www.w3.org/2000/svg" viewBox="0 0 440 300" width="440" height="300" role="img"><g><g><path d="M40.42518627919043 24.478068401169587 C38.33483530720172 73.37800762824673, 38.21561645432001 120.7440650988198, 39.60639222389981 268.19459090775086 M39.67827428313669 24.131235850912947 C39.80355570976409 78.41344098294901, 39.62844459328247 132.1407558695811, 39.71214545064737 268.3733822793481" stroke="#d1d5db" stroke-width="0.75" fill="none" stroke-linecap="round" stroke-linejoin="round"></path></g><g><path d="M118.75851961252377 24.478068401169587 C116.66816864053506 73.37800762824673, 116.54894978765336 120.7440650988198, 117.93972555723316 268.19459090775086 M118.01160761647003 24.131235850912947 C118.13688904309744 78.41344098294901, 117.96177792661581 132.1407558695811, 118.04547878398071 268.3733822793481" stroke="#d1d5db" stroke-width="0.75" fill="none" stroke-linecap="round" stroke-linejoin="round"></path></g><g><path d="M197.0918529458571 24.478068401169587 C195.0015019738684 73.37800762824673, 194.8822831209867 120.7440650988198, 196.2730588905665 268.19459090775086 M196.34494094980337 24.131235850912947 C196.47022237643077 78.41344098294901, 196.29511125994915 132.1407558695811, 196.37881211731406 268.3733822793481" stroke="#d1d5db" stroke-width="0.75" fill="none" stroke-linecap="round" stroke-linejoin="round"></path></g><g><path d="M275.4251862791904 24.478068401169587 C273.33483530720173 73.37800762824673, 273.21561645432 120.7440650988198, 274.60639222389983 268.19459090775086 M274.67827428313666 24.131235850912947 C274.80355570976405 78.41344098294901, 274.62844459328244 132.1407558695811, 274.71214545064737 268.3733822793481" stroke="#d1d5db" stroke-width="0.75" fill="none" stroke-linecap="round" stroke-linejoin="round"></path></g><g><path d="M353.7585196125238 24.478068401169587 C351.6681686405351 73.37800762824673, 351.5489497876534 120.7440650988198, 352.9397255572332 268.19459090775086 M353.01160761647003 24.131235850912947 C353.1368890430974 78.41344098294901, 352.9617779266158 132.1407558695811, 353.04547878398074 268.3733822793481" stroke="#d1d5db" stroke-width="0.75" fill="none" stroke-linecap="round" stroke-linejoin="round"></path></g><g><path d="M40.3120184513898 268.35082543697166 C115.08530943921679 268.0073481905653, 190.19951228646715 266.9542596747072, 415.711155098919 268.14279847836707 M39.76390498738788 268.09630604037045 C123.38825901796808 267.40993953647205, 206.4880669135717 267.20259561273696, 415.78876098521914 268.27400263432867" stroke="#d1d5db" stroke-width="0.75" fill="none" stroke-linecap="round" stroke-linejoin="round"></path></g><g><path d="M40.3120184513898 216.9824043843401 C115.08530943921679 216.63892713793376, 190.19951228646715 215.58583862207567, 415.711155098919 216.77437742573554 M39.76390498738788 216.7278849877389 C123.38825901796808 216.0415184838405, 206.4880669135717 215.8341745601054, 415.78876098521914 216.90558158169713" stroke="#d1d5db" stroke-width="0.75" fill="none" stroke-linecap="round" stroke-linejoin="round"></path></g><g><path d="M40.3120184513898 165.6139833317085 C115.08530943921679 165.27050608530217, 190.19951228646715 164.21741756944408, 415.711155098919 165.40595637310395 M39.76390498738788 165.3594639351073 C123.38825901796808 164.6730974312089, 206.4880669135717 164.4657535074738, 415.78876098521914 165.53716052906555" stroke="#d1d5db" stroke-width="0.75" fill="none" stroke-linecap="round" stroke-linejoin="round"></path></g><g><path d="M40.3120184513898 114.24556227907692 C115.08530943921679 113.9020850326706, 190.19951228646715 112.8489965168125, 415.711155098919 114.03753532047237 M39.76390498738788 113.99104288247574 C123.38825901796808 113.30467637857731, 206.4880669135717 113.0973324548422, 415.78876098521914 114.16873947643397" stroke="#d1d5db" stroke-width="0.75" fill="none" stroke-linecap="round" stroke-linejoin="round"></path></g><g><path d="M40.3120184513898 62.87714122644534 C115.08530943921679 62.53366398003901, 190.19951228646715 61.480575464180916, 415.711155098919 62.66911426784079 M39.76390498738788 62.62262182984416 C123.38825901796808 61.93625532594574, 206.4880669135717 61.72891140221062, 415.78876098521914 62.80031842380238" stroke="#d1d5db" stroke-width="0.75" fill="none" stroke-linecap="round" stroke-linejoin="round"></path></g></g><g><path d="M35.8402433787648 261.70770909195926 C35.8402433787648 261.70770909195926, 35.8402433787648 261.70770909195926, 35.8402433787648 261.70770909195926 M35.8402433787648 261.70770909195926 C35.8402433787648 261.70770909195926, 35.8402433787648 261.70770909195926, 35.8402433787648 261.70770909195926 M35.151003648633115 268.07703015483185 C37.30527358682723 267.9277322515893, 39.52651946600487 263.24382084386605, 42.22683550878727 262.1155758839921 M34.77785227536594 269.12709117508695 C35.47537052171188 268.5240185152481, 37.50852081499851 265.59690757323943, 41.240891872489094 260.67030813456336 M36.09085826429419 274.7389290945703 C39.092097813843615 270.5590327108589, 39.81627406872731 268.90991312076017, 45.31830658561353 261.67557374761236 M35.94650178092412 272.42712033812944 C37.71340756071925 270.89236174349884, 40.4068024529246 268.55820770740894, 45.30837901822094 262.94196814001333 M41.24521163733982 274.8500518003972 C43.17616439099019 273.34503139062434, 43.01194056511739 270.16523676357406, 46.11695924463008 267.6180194609832 M40.44585437925838 274.67584695139243 C42.20492700161177 272.481431316772, 42.8393350963712 271.8685187964509, 46.604042072913394 268.55322352463713" stroke="#1f2937" stroke-width="1" fill="none" stroke-linecap="round" stroke-linejoin="round"></path><path d="M40.50890160529234 259.88842556393075 C41.752773286248356 259.55337636927635, 43.65218324506754 260.31690964127336, 44.51584381705439 261.5798684433399 C45.37950438904124 262.8428272454064, 45.49028357790524 265.9257988133968, 45.69086503721344 267.4661783763299 C45.891446496521645 269.00655793926296, 46.378407909981895 269.6894764130735, 45.71933257290362 270.8221458209383 C45.06025723582534 271.9548152288031, 42.876229456012034 273.85427512835764, 41.73641301474377 274.26219482351877 C40.5965965734755 274.6701145186799, 40.26351205309289 273.7486569402944, 38.88043392529402 273.26966399190513 C37.49735579749515 272.7906710435159, 34.22906355863694 272.6078485524572, 33.437944247950554 271.3882371331831 C32.64682493726417 270.168625713909, 33.76699374478129 267.5266967134073, 34.13371806117574 265.9519954762606 C34.500442377570195 264.3772942391139, 34.29097110970852 262.93251964843665, 35.638290146317274 261.940029710303 C36.98560918292603 260.94753977216936, 41.00042523463744 259.95478408356456, 42.21763228082825 259.9970558474587 C43.434839327019056 260.0393276113528, 42.89651781449684 262.051291396634, 42.94153242346213 262.19366029366785 M41.18481465800716 260.9537211074874 C42.30398146241069 260.9173474549001, 44.03429939227706 261.82698810834927, 44.74423392175452 262.87242147647925 C45.45416845123198 263.9178548446092, 45.668833361952636 265.89086937142486, 45.4444218348719 267.2263213162673 C45.22001030779117 268.5617732611097, 44.33849005373037 269.7174666308457, 43.3977647592701 270.8851331455338 C42.45703946480984 272.0527996602219, 41.331740895520674 273.990765576383, 39.800070068110294 274.232320404396 C38.268399240699914 274.47387523240894, 34.882488097244064 273.10941326538216, 34.20773979480783 272.33446211361166 C33.53299149237159 271.55951096184117, 35.46531996694229 270.8346004191621, 35.751580253492904 269.582613493773 C36.03784054004352 268.33062656838393, 35.31746430408449 266.43240106233657, 35.92530151411153 264.82254056127726 C36.533138724138574 263.21268006021796, 38.268474302805785 260.16094498433114, 39.39860351365515 259.923450487417 C40.52873272450451 259.6859559905029, 42.02853199450134 262.92380196595246, 42.70607677920771 263.39757357979266 C43.38362156391408 263.87134519363286, 43.39347495287524 263.2989301364965, 43.46387222189338 262.76608017045817" stroke="#1f2937" stroke-width="1.5" fill="none" stroke-linecap="round" stroke-linejoin="round"></path></g><g><path d="M176.62818847162842 115.11516495577601 C176.62818847162842 115.11516495577601, 176.62818847162842 115.11516495577601, 176.62818847162842 115.11516495577601 M176.62818847162842 115.11516495577601 C176.62818847162842 115.11516495577601, 176.62818847162842 115.11516495577601, 176.62818847162842 115.11516495577601 M169.04692971946446 125.75486138533641 C173.6711764636803 125.185372901998, 178.57427932926598 115.67262074326433, 180.51012120784875 117.30962948543906 M171.50062697293012 127.2149834258466 C175.31075922621923 124.85480143973511, 179.3770598127925 120.28057955571765, 180.4582339352524 116.33909398658156 M169.90178563130343 137.88491601270508 C174.7589982755505 130.14145667108718, 177.68954102297442 121.68706032793034, 188.57166102607835 117.15754968677017 M168.76865528506482 134.94997272861073 C176.00804624951027 128.73144562791427, 182.0095539060534 123.35054757890214, 187.74875125517238 116.07999828461858 M171.37549183741913 136.81693778539744 C175.1770415443326 130.7135520192833, 181.41431422874587 124.66807640194874, 192.18848633576712 116.85152609281768 M172.37790211961374 140.16366960162966 C176.16531837012445 135.17009123417964, 181.95872928142646 127.82505266428349, 190.01504694182952 117.95854133151998 M176.99286564607385 141.92780172117574 C181.1406166802924 135.99064252879623, 181.75680104541456 130.1506535946619, 192.77895537525444 119.88208158592388 M175.5316969888306 141.05554793216808 C179.15149327022863 135.62666822426678, 184.24286354769808 130.06830223138215, 195.92915780603914 119.30361799428866 M175.02353596351765 143.67444141379 C185.10886590582987 133.85934809388343, 190.1028634580676 126.01393994892761, 199.4843810797808 123.585815179616 M175.70381918959043 146.42604717335107 C183.38736311585757 139.30234422249632, 188.64725253099704 133.07046891445398, 198.2881096736667 119.16877064582684 M183.4398747539815 149.26374629654467 C185.76262147636265 137.49908245145886, 189.99036318653944 135.06178871982473, 199.45640623963422 125.63224878853518 M179.25985357674926 148.26150011785805 C186.27019954485647 140.7677706355034, 192.98081992587456 133.82566842762415, 197.73832072562521 126.32640206015068 M182.73670189472492 149.52610954341245 C192.48746853893454 142.68397666653124, 195.38553630874105 138.44845000170238, 201.02971184803613 132.46731226576304 M184.52689541819151 147.95768079903672 C192.27674734338444 139.87878024801523, 197.22426178573357 133.31306455877288, 198.59830984576115 132.66126044971682 M192.12269139716463 146.2646382676554 C192.03348155353436 146.7636375520342, 194.97651610154293 141.7359950205896, 201.00303186209848 136.73784935671006 M189.4012770503207 147.91270176296356 C193.4597788309504 144.06293346554918, 197.19390596886518 139.62487204567344, 198.61370752589752 137.0228166005305" stroke="#1f2937" stroke-width="1" fill="none" stroke-linecap="round" stroke-linejoin="round"></path><path d="M176.46875148179677 115.29857623182077 C179.76679664872785 113.81404546388859, 186.8240874930376 115.16887653371928, 190.3859614611226 116.07896103588061 C193.9478354292076 116.98904553804194, 196.18835771870303 117.88113029089018, 197.83999529030677 120.75908324478874 C199.49163286191052 123.6370361986873, 200.27273333947716 129.6521484545259, 200.295786890745 133.34667875927198 C200.31884044201286 137.04120906401806, 200.16406725707202 140.23300267393893, 197.97831659791396 142.9262650732652 C195.7925659387559 145.61952747259147, 190.73021415766928 148.9066289311798, 187.18128293579665 149.50625315522967 C183.632351713924 150.10587737927955, 179.65416237590682 148.82390017058395, 176.6847292666781 146.52401041756437 C173.71529615744936 144.22412066454478, 170.33828825201508 139.16599564847823, 169.36468428042434 135.70691463711208 C168.3910803088336 132.24783362574593, 168.93981696964678 129.34282166160114, 170.84310543713372 125.76952434936752 C172.74639390462065 122.1962270371339, 178.86222858352087 116.09474310359556, 180.78441508534587 114.2671307637104 C182.70660158717087 112.43951842382523, 182.19772420125963 114.48359467753897, 182.37622444808363 114.80385031005649 M188.31926692841645 115.16521494462543 C191.77547415801217 115.4065549908305, 196.08193088109812 116.21628814433598, 198.54984688515418 118.46428096504651 C201.01776288921025 120.71227378575705, 203.19033021049566 124.7764156416924, 203.12676295275287 128.65317186888868 C203.06319569501008 132.52992809608494, 200.75137301497276 138.79550837305848, 198.16844333869744 141.7248183282242 C195.58551366242213 144.6541282833899, 191.16943575809185 144.9229322216242, 187.62918489510096 146.22903159988297 C184.08893403211007 147.53513097814175, 179.47121410342874 150.85571636793728, 176.92693816075214 149.5614145977769 C174.38266221807555 148.2671128276165, 173.83878951988183 142.2870127902371, 172.36352923904138 138.46322097892067 C170.88826895820094 134.63942916760425, 167.7238902486335 130.2570643862222, 168.07537647570948 126.61866372987829 C168.42686270278546 122.9802630735344, 171.11814932907936 118.33076205365647, 174.47244660149732 116.63281704085732 C177.8267438739153 114.93487202805817, 186.51701025900834 116.59804073362224, 188.2011601102173 116.43099365308339 C189.88530996142626 116.26394657254454, 185.23883944313613 115.50749199122957, 184.577345708751 115.63053455762426" stroke="#1f2937" stroke-width="1.5" fill="none" stroke-linecap="round" stroke-linejoin="round"></path></g><g><path d="M320.399852955175 238.76895317173847 C320.399852955175 238.76895317173847, 320.399852955175 238.76895317173847, 320.399852955175 238.76895317173847 M320.399852955175 238.76895317173847 C320.399852955175 238.76895317173847, 320.399852955175 238.76895317173847, 320.399852955175 238.76895317173847 M314.6377077388922 249.27814011510048 C322.60787470244156 248.10324874549195, 324.76355540110967 238.52788736152996, 325.10263335959587 238.10081748342336 M314.9938698280016 251.17834351595076 C317.53243393468574 248.67203130346365, 321.68536546301254 241.9338331509923, 326.6161545719353 234.88325831866086 M317.48338659671305 258.2622283146263 C318.1034540566091 254.29904196092195, 324.8506899583072 244.98866934907588, 329.6346498428381 235.78793248886657 M315.4392128017283 255.94897060250054 C319.5222062390272 250.31510006275283, 326.06925886230476 245.13509250628573, 331.2041034816301 238.08453061933113 M315.8713427452433 260.73331835971067 C324.4636394329147 254.20678155471495, 329.3782888894174 245.47191925336622, 339.41343146279905 239.2749620450911 M316.6745564548361 261.4622941146869 C321.69782328874714 254.4355996728886, 327.0873237144348 249.30132010145775, 337.0488456042156 239.1509823633608 M320.4402480594827 266.4214883753535 C325.17623137287944 257.76897327878487, 326.7752885331286 253.67538783239945, 341.1090910654882 240.55919385731963 M321.158689849825 264.7251499900099 C328.9691108126219 253.63087460782484, 334.9801265091615 245.7266534848516, 340.5093609732011 241.38790906847265 M325.5602153854409 267.6240260667775 C326.155769603168 261.1953257647637, 330.83447790691906 257.9206979028389, 344.72318246792474 245.00512521099765 M323.80059302020464 266.4928337461923 C326.5459805066366 262.4647269976711, 331.27085737919776 254.81501795065034, 342.5948205931059 242.8490658326121 M328.50097562710835 270.94129997876007 C330.81919912559135 262.5089790208477, 338.0027265335445 258.12173693000017, 340.7250546320799 249.61620549045702 M324.5276140574653 271.2049717405112 C330.7921907765388 264.54687273969495, 333.6577671306371 258.7663962597857, 344.3009406134012 250.008409852611 M333.8318777464566 267.27675949563275 C336.09278385362416 260.12522767616264, 340.3101052766461 258.6589655361493, 342.6912613749728 252.58193198114316 M332.4854691110787 269.98552116979846 C334.73052868604105 263.99681548727887, 339.807089213102 258.37868473434867, 344.2493920386061 255.50719622641483" stroke="#1f2937" stroke-width="1" fill="none" stroke-linecap="round" stroke-linejoin="round"></path><path d="M340.2653526420571 239.58387782699216 C342.5062061520318 241.8399360767394, 344.0474328867997 246.3967590035493, 344.47867525981036 250.079395482306 C344.909917632821 253.76203196106272, 344.31322433320554 258.5066498396554, 342.85280688012125 261.6796966995324 C341.39238942703696 264.8527435594095, 338.8741297821465 267.8676636888482, 335.7161705413047 269.1176766415684 C332.55821130046286 270.36768959428855, 327.14185420373013 270.8289063028292, 323.90505143507045 269.17977441585356 C320.66824866641076 267.53064252887793, 317.87105689036974 262.4087671189942, 316.29535392934656 259.2228853197145 C314.7196509683234 256.03700352043484, 313.7853554753112 253.45206973334263, 314.4508336689313 250.06448362017528 C315.1163118625514 246.67689750700794, 317.8348591345254 241.27185204566297, 320.28822309106715 238.8973686407105 C322.7415870476089 236.52288523575805, 325.0804263689415 234.56216290945517, 329.1710174081818 235.81758319046054 C333.2616084474221 237.0730034714659, 342.4061983982766 243.31089811639956, 344.8317693265088 246.42989032674274 C347.25734025474094 249.54888253708592, 343.8371332835029 254.38423707424545, 343.7244429775748 254.5315364525196 M327.716739878656 237.7234653243574 C331.204077314791 236.95058652242605, 335.34096410363975 236.34305022037407, 338.1421949275506 237.69400268896513 C340.9434257514614 239.0449551575562, 343.4217610144114 242.7554540825352, 344.52412482212094 245.8291801359037 C345.6264886298305 248.9029061892722, 345.6426339761334 252.44395235202094, 344.7563777738079 256.13635900917615 C343.8701215714824 259.8287656663313, 342.29638986551095 265.82417516356577, 339.20658760816775 267.98362007883486 C336.11678535082456 270.14306499410395, 329.4027952162641 270.2317098118153, 326.2175642297489 269.0930285007905 C323.0323332432337 267.95434718976577, 321.88305764866226 264.2761431012954, 320.09520168907653 261.15153221268645 C318.3073457294908 258.0269213240775, 315.6296552146139 253.7015051628295, 315.49042847223444 250.34536316913665 C315.351201729855 246.9892211754438, 317.51503529332956 243.10371240055736, 319.2598412348 241.01468025052924 C321.0046471762704 238.92564810050112, 324.5671410832167 238.54500823375696, 325.9592641210571 237.811170268968 C327.3513871588975 237.07733230417904, 327.35701454429454 236.8244615509584, 327.61257946184236 236.61165246179553" stroke="#1f2937" stroke-width="1.5" fill="none" stroke-linecap="round" stroke-linejoin="round"></path></g><g><path d="M69.86185698878413 108.43045352012112 C69.86185698878413 108.43045352012112, 69.86185698878413 108.43045352012112, 69.86185698878413 108.43045352012112 M69.86185698878413 108.43045352012112 C69.86185698878413 108.43045352012112, 69.86185698878413 108.43045352012112, 69.86185698878413 108.43045352012112 M69.71695287737943 115.48452413349524 C73.73662368343557 113.53388972291403, 78.58094721422623 105.97289386664464, 83.37387378729701 102.93170916478994 M67.36215548876619 117.45977838455812 C73.74679596428618 112.72913757946695, 76.63244725322544 104.87740044314224, 80.06577530272128 100.90976020883681 M72.06744517016621 123.13783358852221 C72.17066677445467 112.29614505904422, 80.04339773607721 110.66330763760789, 85.41221432562229 103.8071891024921 M69.1122279264352 121.446261448365 C77.01366510179967 112.873206097696, 81.47133757862089 106.76286583316751, 86.17403137411233 103.0779367655728 M68.68176931909194 127.63857274555296 C82.0648129875213 114.28888490167569, 85.65683921611337 109.2646359163128, 88.55295225585547 104.6872718088936 M72.48578645608296 125.74979243927329 C78.74490387339425 117.60321609148149, 83.73049381346763 111.47969551851595, 89.19721993262615 103.33229720673076 M71.5461471099256 128.25875842128306 C75.6099628306184 123.44300532206566, 84.44663392294882 121.26292457034586, 90.04168436376557 105.73459910068998 M74.44419934785351 128.93833543960363 C78.95099432439717 120.29927281464191, 88.00149346847932 114.97295967141423, 92.09202174840674 104.77049311463126 M78.66752950237921 133.80777495107137 C80.48602307528787 125.88811685310542, 89.13998986265764 115.84855871352384, 93.18867758007411 107.9038898934629 M77.66800154583386 131.9937845503398 C83.77002366753077 123.36123313717462, 91.92282174490566 112.93485656826562, 96.52822523655061 108.00881567048098 M83.84482925323127 133.34359873183627 C85.83831237938702 129.40843154069174, 89.28994921615471 123.4021747819517, 97.36433771954057 115.83432642368517 M80.0781272911775 131.67318843402523 C84.61603272772123 126.15265383225497, 90.08017025990398 121.00246212698127, 96.63419519619224 112.72458187637768 M87.38805066709178 133.50372365058493 C86.73477850320586 129.35042409060034, 89.96699947364824 126.77707229408787, 100.16259161871523 120.36823580778659 M86.23334095229166 131.1510805340214 C89.78616496118593 129.1189393823954, 92.28593617585511 124.11625815195038, 99.39548861530274 119.69915808371722" stroke="#1f2937" stroke-width="1" fill="none" stroke-linecap="round" stroke-linejoin="round"></path><path d="M88.81455079259025 100.87215177710105 C91.94932587180756 101.74226177310425, 94.28032375122251 106.54947532245163, 95.78455064695508 109.78187046145948 C97.28877754268765 113.01426560046733, 98.28664454046462 116.95568429602982, 97.83991216698567 120.26652261114819 C97.39317979350672 123.57736092626656, 95.69151585021449 127.57583203235671, 93.10415640608134 129.64690035216972 C90.5167969619482 131.71796867198273, 85.51487986517587 132.70689450974274, 82.31575550218685 132.69293253002624 C79.11663113919782 132.67897055030974, 76.41257966739589 131.99237675386345, 73.9094102281472 129.56312847387073 C71.4062407888985 127.13388019387803, 67.9958687241704 121.61132800396129, 67.29673886669467 118.11744285006998 C66.59760900921893 114.62355769617866, 68.05997916492042 111.57780755961177, 69.7146310832928 108.59981755052284 C71.36928300166518 105.62182754143392, 73.73061971466718 101.2890612531044, 77.22465037692895 100.2495027955364 C80.71868103919071 99.2099443379684, 87.78625516127558 101.73973339165573, 90.67881505686336 102.36246680511478 C93.57137495245114 102.98520021857382, 94.54166324506673 103.68842552190154, 94.58000975045563 103.98590327629064 M76.03181838615959 99.63083041229467 C78.57571781972933 97.9607877363695, 83.03333387375949 99.96904082601951, 85.94063000228704 101.17062085320156 C88.84792613081459 102.3722008803836, 91.36385847706072 103.95968649240838, 93.47559515732483 106.84031057538692 C95.58733183758895 109.72093465836546, 98.6132443643976 115.03773678973882, 98.61105008387176 118.45436535107278 C98.60885580334592 121.87099391240675, 95.96454695185486 125.3031971174773, 93.46242947416978 127.3400819433907 C90.9603119964847 129.3769667693041, 86.40166167897391 130.08936341581355, 83.59834521776129 130.6756743065532 C80.79502875654867 131.26198519729283, 79.33876252927361 132.35439684008753, 76.64253070689406 130.85794728782858 C73.94629888451452 129.36149773556963, 68.76088065409121 125.34262260838587, 67.42095428348404 121.69697699299947 C66.08102791287686 118.05133137761307, 66.93396924897154 112.04349282883378, 68.60297248325102 108.98407359551018 C70.27197571753051 105.92465436218659, 75.60984688174966 104.55079707985215, 77.43497368916098 103.34046159305792 C79.2601004965723 102.1301261062637, 79.19084762863709 101.48724175232137, 79.55373332771897 101.72206067474485" stroke="#1f2937" stroke-width="1.5" fill="none" stroke-linecap="round" stroke-linejoin="round"></path></g><g><path d="M218.5683870842143 227.09896401195763 C218.5683870842143 227.09896401195763, 218.5683870842143 227.09896401195763, 218.5683870842143 227.09896401195763 M218.5683870842143 227.09896401195763 C218.5683870842143 227.09896401195763, 218.5683870842143 227.09896401195763, 218.5683870842143 227.09896401195763 M212.39225184576372 236.73559493712605 C218.5976029186406 234.977922490303, 225.86861198688533 223.33263955755405, 228.5851090159047 223.56199721161533 M213.72649497942786 238.78590003840148 C217.82763048695728 235.20334751220736, 222.92605369627626 229.5970871381662, 226.85539083441378 222.73565846447158 M213.59149854452582 243.81283522787692 C222.0981074221938 236.91901770010088, 220.82144838898918 234.62126081767337, 232.56159652234143 223.48997082224474 M216.12523785204857 242.74294865968824 C220.62004196167786 238.2059757601194, 225.40090327497313 232.55231745553945, 232.5157769805295 222.93486801794157 M220.57613166485658 244.69793307707684 C224.407348202801 237.93680066522367, 232.55462810867104 230.82379890879815, 235.46429076284687 228.16310667882323 M217.7809522292458 246.59139670954124 C224.82572592596375 240.97960904151458, 228.99138516360335 234.34542398120868, 235.91741197497169 225.57713715622782 M223.70415901925597 250.78600567222585 C227.8666346813235 243.7247874951934, 230.83916433384556 237.4053412846702, 238.71427246294937 226.70940070951912 M222.38182170476946 247.44149809421054 C225.44360701503544 241.5839292568748, 230.85322916357345 235.9580418897541, 240.2146773245188 227.15247352624866 M224.45877939123346 250.14562978104678 C227.35866215333996 241.77976021746116, 233.43011998740087 237.95676247535252, 240.73810846413951 233.75676052160966 M224.21934584337905 250.84884130016889 C229.81091248983847 242.8827858289631, 237.5615958918803 237.28569401320968, 239.9455656519113 229.72267145403134 M232.72515021081182 250.73071810611984 C233.9737608326123 245.20353634795848, 233.5918179852878 244.327394834479, 238.76254710002803 234.9342917836993 M229.69911420951698 250.3868996023526 C231.82997268412964 246.72832826035355, 235.6251759713562 243.6843382009523, 239.92180172621275 237.47435234544568" stroke="#1f2937" stroke-width="1" fill="none" stroke-linecap="round" stroke-linejoin="round"></path><path d="M225.71164515125827 221.8422819316695 C228.66102043400332 221.30115546669975, 234.25886422362393 223.29938743960662, 236.94672511978425 225.10747519208314 C239.63458601594456 226.91556294455967, 241.34631901595375 229.8526367215413, 241.83881052822016 232.69080844652865 C242.33130204048658 235.528980171516, 241.07649781941518 239.2055917951484, 239.90167419338266 242.1365055420072 C238.72685056735014 245.067419288866, 237.40404678684564 248.80230920767627, 234.78986877202502 250.27629092768146 C232.1756907572044 251.75027264768664, 227.11738157749664 251.8506976523615, 224.2166061044589 250.9803958620384 C221.31583063142114 250.11009407171528, 219.18442848668965 247.56200412693983, 217.38521593379858 245.05448018574282 C215.5860033809075 242.5469562445458, 213.223308327113 238.9287899070951, 213.42133078711242 235.9352522148563 C213.61935324711186 232.94171452261747, 215.90557825742746 229.43922654895243, 218.57335069379513 227.09325403231 C221.2411231301628 224.74728151566757, 226.92998678279852 222.2793709781748, 229.42796540531842 221.85941711500163 C231.9259440278383 221.43946325182847, 233.39242974473257 224.23791253223956, 233.56122242891453 224.57353085327105 M221.60637802338428 223.9749519127329 C223.87910055459335 222.37377955180983, 227.58470726135258 222.32189531190073, 230.37771206271765 222.59036202211473 C233.17071686408272 222.85882873232873, 236.23578629370712 223.8374128523545, 238.36440683157466 225.58575217401687 C240.4930273694422 227.33409149567925, 243.14212129739937 230.16904701815076, 243.14943528992285 233.0803979520889 C243.15674928244633 235.99174888602704, 240.24445728647024 239.75196393188403, 238.40829078671547 243.05385777764576 C236.5721242869607 246.35575162340749, 234.3593738060129 251.4764214094628, 232.13243629139424 252.8917610266592 C229.90549877677557 254.3071006438556, 227.6316028038198 252.94877737994057, 225.0466656990034 251.54589548082407 C222.461728594187 250.14301358170758, 218.22134922782388 247.41344710268504, 216.62281366249593 244.47446963196018 C215.02427809716798 241.5354921612353, 214.66422718628735 236.90669070686013, 215.4554523070357 233.9120306564749 C216.24667742778405 230.9173706060897, 220.75632109914932 228.08295905952656, 221.37016438698598 226.5065093296488 C221.98400767482264 224.93005959977103, 219.48151912782396 224.58412952902077, 219.13851203405568 224.45333227720826" stroke="#1f2937" stroke-width="1.5" fill="none" stroke-linecap="round" stroke-linejoin="round"></path></g><g><path d="M366.9439712689645 88.42726690303618 C366.9439712689645 88.42726690303618, 366.9439712689645 88.42726690303618, 366.9439712689645 88.42726690303618 M366.9439712689645 88.42726690303618 C366.9439712689645 88.42726690303618, 366.9439712689645 88.42726690303618, 366.9439712689645 88.42726690303618 M361.136604903468 100.64645813999888 C362.87634746685626 98.71229114191496, 372.3124345155823 89.68366620131805, 372.80933930484184 87.60678723790551 M359.7598885594095 102.7718140914869 C367.27462126823605 97.44902105116692, 370.6861924138174 91.21188386456487, 372.6580014264358 87.97605869957113 M359.8724879502245 108.65704842691913 C367.79791290770413 100.57281501147212, 373.9855019494378 93.22304991601995, 380.03609183737126 91.47783536101659 M361.4951838090011 108.20884743069902 C365.57402120791653 103.76810000818429, 368.13099436746165 97.82002166075918, 375.98263570525734 87.89688208932955 M364.4274300419603 112.32650496828828 C369.2891961563181 103.04214752152107, 372.3763594653174 103.93925337493121, 381.38862433016783 88.65344352821765 M364.6330540337477 111.60221253949676 C368.49070441768913 104.29369515354952, 375.20604390999887 96.95373051933235, 381.6505990776468 91.23647908518967 M366.5069889019444 112.59188364330181 C370.20219693894995 109.22884668383347, 374.1463617408009 104.66873139375691, 386.39985562246267 91.0987042978131 M367.36426203504345 114.8232914689506 C370.63919535873305 107.82298931686273, 373.0457284870863 104.36383658849009, 384.15032796096034 92.9489559173309 M368.6069653114268 117.05269617070977 C375.4283757283953 111.53907077224919, 375.32071141541485 105.27006361867758, 385.33235732156294 98.8882618698896 M369.12762617226326 113.87310960968559 C373.8418329737315 109.29765063167568, 380.8815631877348 105.6851216370274, 383.60772404063005 97.1151579577149 M376.5368551392394 116.20402693385083 C379.4420690931204 111.94240531575896, 383.0118184776203 107.77258637938625, 383.2750323109234 105.13300754060535 M374.35715635377045 116.76395356284279 C377.5266716074374 112.05017385418685, 380.0945060907744 110.06704226303779, 383.44260261467645 106.87914000255553" stroke="#1f2937" stroke-width="1" fill="none" stroke-linecap="round" stroke-linejoin="round"></path><path d="M366.82495883843796 88.56417504318043 C368.5913426492584 86.83724770091385, 371.366937968665 85.47036398556637, 374.1803177255394 86.1853149264964 C376.9936974824138 86.90026586742644, 382.04185067603765 90.46721417943354, 383.7052373796844 92.8538806887607 C385.3686240833311 95.24054719808785, 384.3936503223414 97.83041834955553, 384.16063794741984 100.50531398245934 C383.9276255724983 103.18020961536315, 383.9388105740126 106.32164516465936, 382.30716313015495 108.90325448618354 C380.6755156862973 111.48486380770773, 377.12260918835716 115.30647307190422, 374.3707532842738 115.99496991160441 C371.61889738019045 116.6834667513046, 368.25558137474815 114.70864202213883, 365.79602770565486 113.03423552438467 C363.3364740365616 111.3598290266305, 360.2115073511687 108.90847077725027, 359.6134312697142 105.94853092507945 C359.0153551882598 102.98859107290863, 361.07563471326074 98.25002905063845, 362.2075712169283 95.27459641135975 C363.3395077205958 92.29916377208106, 365.455357501827 89.18780235294346, 366.40505029171936 88.0959350894073 C367.35474308161173 87.00406782587115, 367.57695466893995 88.40932849126352, 367.9057279562826 88.72339283014277 M381.59537649177514 89.85347436938451 C383.35597153568415 91.80124970596539, 385.4392573445836 96.47886170940131, 385.72463720737966 99.50581960926543 C386.0100170701757 102.53277750912955, 384.35919409683186 105.47046432807547, 383.30765566855143 108.01522176856919 C382.256117240271 110.55997920906292, 381.52907564880434 113.53062231376481, 379.415406637697 114.77436425222781 C377.30173762658967 116.01810619069082, 373.51425852518963 116.64593949403522, 370.62564160190726 115.47767339934725 C367.7370246786249 114.30940730465929, 363.4365160786168 110.69351437915627, 362.08370509800284 107.76476768409998 C360.73089411738886 104.83602098904369, 362.3821698254521 100.97933946373232, 362.5087757182233 97.90519322900951 C362.63538161099456 94.83104699428671, 361.3887502018145 91.10863514814662, 362.8433404546302 89.31989027576314 C364.2979307074459 87.53114540337967, 368.42357499155986 86.85821270359368, 371.23631723511767 87.17272399470866 C374.0490594786755 87.48723528582364, 377.86693998934084 90.94383290298823, 379.7197939159771 91.20695802245307 C381.5726478426134 91.4700831419179, 382.1225813287398 88.42082990786903, 382.35344079493524 88.75147471149765" stroke="#1f2937" stroke-width="1.5" fill="none" stroke-linecap="round" stroke-linejoin="round"></path></g><g><path d="M116.76356445770419 212.8021094845325 C116.76356445770419 212.8021094845325, 116.76356445770419 212.8021094845325, 116.76356445770419 212.8021094845325 M116.76356445770419 212.8021094845325 C116.76356445770419 212.8021094845325, 116.76356445770419 212.8021094845325, 116.76356445770419 212.8021094845325 M118.11944824128584 218.80836504301314 C120.47720889928652 217.37004638490154, 123.75494239853379 213.34221870921644, 122.8046506382442 210.61209284767386 M115.66684274821714 220.1286091240335 C118.84122164755675 217.2012824619329, 120.33019781197164 212.84674767150193, 123.66087609305147 209.63102184995887 M116.13197359042881 226.67963181074325 C119.08616609001967 223.30616662234348, 121.92073895730951 216.18884900245988, 126.60169143183684 211.56769277814877 M116.80804337995767 226.84444215770426 C120.00272103838823 221.29318526298556, 125.22964901617387 216.25105088192274, 128.06365334554172 211.3712292260314 M116.93938674194904 228.29981116746706 C119.905967012064 225.2631855868203, 127.83244923353877 217.34475899700683, 135.97361622037383 210.28851468557937 M116.94581416113468 231.3577626774196 C121.7571120562268 223.2124871173726, 127.7965323690029 218.39619168959504, 132.84444450320694 211.64055532211881 M117.31441807852735 236.29720550256786 C121.2020357607125 230.55689124637397, 125.81046151710373 228.10970043962388, 134.3779200178896 212.49687093474273 M120.35130165921201 234.50452873188078 C125.96824335653896 226.03595787540473, 131.64403793681652 221.20920486675544, 134.77845983331548 215.75430135704877 M127.15975052551468 233.05920644856286 C128.57109832831787 232.88070407281108, 132.1489300813058 226.5801001724477, 139.24332353086194 218.00978794591407 M125.24050579504213 235.59682180739236 C125.69289608286061 230.61591907909533, 129.39630735602142 225.12691182187055, 136.58659978122432 218.49766918914298 M132.0953091717935 233.50977945001685 C135.00286721344966 231.35501336604338, 136.4482388156308 226.08664192447273, 136.43332895156436 224.2213929968651 M130.20727528822187 234.78618556411826 C132.54529828259257 232.39764696488925, 134.95240709443698 228.8564828084546, 137.84439212914995 225.6520382314499" stroke="#1f2937" stroke-width="1" fill="none" stroke-linecap="round" stroke-linejoin="round"></path><path d="M134.74972034418477 211.79845337849966 C136.70954710757343 213.59107791204414, 136.8819668829043 217.73932516526935, 137.33551156161224 220.24077158279155 C137.78905624032018 222.74221800031376, 138.52222666161683 224.572367846414, 137.47098841643236 226.80713188363282 C136.4197501712479 229.04189592085163, 133.7868914995074 232.30064513561848, 131.02808209050548 233.6493558061044 C128.26927268150357 234.99806647659034, 123.5277461440056 235.85024727399448, 120.91813196242084 234.89939590654836 C118.30851778083608 233.94854453910224, 116.15893378308446 230.38536557826927, 115.37039700099695 227.94424760142772 C114.58186021890943 225.50312962458617, 115.91693476208482 222.8198408722317, 116.18691126989575 220.25268804549904 C116.45688777770667 217.68553521876638, 115.53857942320018 214.24054998411725, 116.99025604786249 212.54133064103172 C118.4419326725248 210.8421112979462, 121.74213173223123 209.1700452972914, 124.8969710178696 210.0573719869859 C128.05181030350798 210.94469867668042, 134.0381931285607 215.35151301658513, 135.91929176169276 217.86529077919874 C137.80039039482483 220.37906854181236, 136.09820598032945 224.95904041347774, 136.18356281666206 225.14003856266763 M130.0770695234342 210.68697357617327 C132.22149893334924 211.74401667746565, 133.71710395278745 215.389010747806, 135.30905946427268 217.87380174573906 C136.9010149757579 220.35859274367212, 140.41013505168942 223.46346011616808, 139.6288025923455 225.59571956377164 C138.84747013300156 227.7279790113752, 132.957980430707 229.2170632269636, 130.6210647082091 230.66735843136044 C128.2841489857112 232.11765363575728, 127.63989763891993 234.62994643286711, 125.60730825735799 234.2974907901526 C123.57471887579604 233.9650351474381, 119.90366238649085 230.91607268384251, 118.4255284188374 228.6726245750734 C116.94739445118395 226.42917646630428, 116.96575013886444 223.60838950161465, 116.73850445143732 220.83680213753792 C116.51125876401021 218.06521477346118, 115.87701677582149 213.88692496549712, 117.06205429427469 212.04310039061303 C118.24709181272789 210.19927581572895, 121.46538560982958 209.9706408424365, 123.84872956215654 209.7738546882334 C126.23207351448349 209.5770685340303, 130.39392678618182 211.15096983573594, 131.36211800823645 210.86238346539446 C132.33030923029108 210.57379709505298, 130.12247355549076 208.01879746523113, 129.65787689448433 208.04233646618457" stroke="#1f2937" stroke-width="1.5" fill="none" stroke-linecap="round" stroke-linejoin="round"></path></g><g><path d="M266.4031840165826 75.2292215624713 C266.4031840165826 75.2292215624713, 266.4031840165826 75.2292215624713, 266.4031840165826 75.2292215624713 M266.4031840165826 75.2292215624713 C266.4031840165826 75.2292215624713, 266.4031840165826 75.2292215624713, 266.4031840165826 75.2292215624713 M261.90419159510026 85.16667237875474 C266.69497817397314 83.16451240848639, 272.2177620714418 75.6062852903056, 273.62541644037464 75.1698068877618 M263.8651468854476 84.51949273509396 C263.77171808772806 84.09589065256473, 267.09789600278924 80.54130550551395, 271.2492123498092 74.86215120326086 M263.6712785166161 92.67959915938567 C265.70847034006715 89.27073242800697, 269.2492899106066 83.71026561307379, 275.2294810194914 74.27065583450177 M263.4718874779003 90.27476930710267 C267.3507585411635 87.71214161647458, 270.7003941002754 85.22796695787818, 275.9607517067735 77.438001628047 M262.71077952217144 96.27248266531598 C269.06304174647687 93.35447185579177, 275.1907850208131 83.29436706354531, 276.761985161823 78.27766072183407 M265.7180103687553 96.71267811401259 C271.20075270274873 91.21376811175966, 276.29224514207175 82.83405209839604, 279.84166698001025 78.39870643794096 M270.405519451306 96.18305433961297 C273.1479425585911 94.97596497832718, 271.5399020971929 88.7947120064443, 282.6714795225407 85.13969329011968 M269.2220134795762 96.76629297258998 C274.1203725350016 91.45578984404249, 275.8706125798459 86.65694665963395, 282.52208681489486 83.404302515214 M274.1472637411462 98.6411216346077 C276.6935395522832 93.13224338183392, 277.5583572297382 92.93309274831874, 280.7126677850507 88.55825523591545 M273.27790099980996 97.63223459362008 C276.09134855309264 96.10339541372039, 276.67803540720774 92.62109381818759, 282.82105712129396 85.81990503488986" stroke="#1f2937" stroke-width="1" fill="none" stroke-linecap="round" stroke-linejoin="round"></path><path d="M273.00801955492676 74.69467653014595 C275.0362047694721 75.32818014729975, 278.6465763900758 76.63037369745405, 280.2868900496801 78.62647446473436 C281.9272037092844 80.62257523201467, 283.205933004044 84.06697279376922, 282.84990151255255 86.67128113382786 C282.49387002106107 89.2755894738865, 279.8739656081702 92.48950226751494, 278.1507011007311 94.25232450508615 C276.42743659329204 96.01514674265736, 274.8685487627222 96.88578960702229, 272.510314467918 97.24821455925516 C270.15208017311386 97.61063951148803, 265.85483403289214 97.66425113077987, 264.0012953319061 96.42687421848335 C262.14775663092 95.18949730618682, 261.55768440052185 92.30761693696978, 261.3890822620016 89.823953085476 C261.2204801234813 87.34028923398223, 262.1308705202427 83.98395249200286, 262.98968250078457 81.52489110952072 C263.84849448132644 79.06582972703859, 264.0484517405205 76.01397693172736, 266.54195414525276 75.06958479058319 C269.03545654998504 74.12519264943903, 275.69586751873925 75.51172206947615, 277.95069692917826 75.85853826265571 C280.2055263396173 76.20535445583528, 280.389831839745 76.85364994110712, 280.07093060788685 77.15048194966056 M275.19738818001025 75.81151200764991 C277.52086949522345 76.81314933049337, 279.73031327011677 78.53020716752556, 280.83826207398744 80.33358862417836 C281.9462108778581 82.13697008083116, 282.430325097562 84.34732838207682, 281.8450810032344 86.6318007475667 C281.2598369089068 88.91627311305658, 279.0099323428472 92.60481550609019, 277.3267975080217 94.04042281711766 C275.64366267319616 95.47603012814513, 273.5307031017446 94.84576183659583, 271.7462719942812 95.2454446137315 C269.96184088681775 95.64512739086716, 268.0063340572158 97.13426261134023, 266.62021086324125 96.43851947993167 C265.2340876692667 95.74277634852311, 264.6697861910366 93.34073014839369, 263.4295328304339 91.07098582528009 C262.1892794698312 88.80124150216649, 259.0647542916088 85.27604314716224, 259.178690699625 82.82005354125006 C259.29262710764124 80.36406393533788, 261.5024217742334 77.67024909117804, 264.1131512785314 76.33504818980698 C266.7238807828294 74.99984728843593, 273.26234303187044 74.79776040535785, 274.84306772541277 74.80884813302376 C276.4237924189551 74.81993586068967, 273.96041821063113 76.70402709898832, 273.59749943978534 76.40157455580247" stroke="#1f2937" stroke-width="1.5" fill="none" stroke-linecap="round" stroke-linejoin="round"></path></g><g><path d="M409.9200285229 198.66149815169774 C409.9200285229 198.66149815169774, 409.9200285229 198.66149815169774, 409.9200285229 198.66149815169774 M409.9200285229 198.66149815169774 C409.9200285229 198.66149815169774, 409.9200285229 198.66149815169774, 409.9200285229 198.66149815169774 M408.9281294004115 206.55929075597513 C410.508433016556 204.565335179341, 416.6983290558264 199.4762020810019, 416.65645530963786 197.61807925246936 M408.98237253407564 206.04959585725055 C411.0623716510798 204.51944452819504, 413.00995643920413 200.96910178829, 415.56673712814694 198.0717405053256 M410.65950895594506 212.74185622429616 C409.24890948918915 207.09115894333058, 415.94150528454236 206.5725042221764, 420.9408109316785 200.40786118010436 M409.7156396416023 211.2261835860289 C412.96192534806903 207.08596217055566, 416.21018146437154 202.08823607176686, 420.87589991411164 200.52813220734154 M409.48796886512594 217.12978067418675 C417.72093498017034 210.0426365285521, 420.9417522575943 205.68004354161343, 421.3376670826361 203.35087041430404 M411.7343962843116 215.38773218413928 C416.387183894378 210.2800051305215, 419.4537092708938 206.13116255416224, 421.0884953654692 202.4629110508435 M416.48461378899395 216.31625515174582 C418.0435215858524 214.37364606141904, 420.9154859897444 212.1739965393114, 421.85897046302387 208.8862874356082 M416.9826660269219 214.5958321700664 C418.01724770914154 212.83224404029826, 420.7175508193969 211.37040634249158, 423.10930784766504 207.1221814495495" stroke="#1f2937" stroke-width="1" fill="none" stroke-linecap="round" stroke-linejoin="round"></path><path d="M415.05513341419186 196.94419800764896 C416.70897332267833 196.5604678920079, 417.7512953410094 198.09132661558172, 419.0675749576731 199.32478628661283 C420.38385457433685 200.55824595764395, 422.2868416388999 202.41424227941081, 422.9528111141742 204.34495603383567 C423.61878058944853 206.27566978826053, 423.6234113487496 209.25590698767087, 423.0633918093192 210.90906881316192 C422.50337226988887 212.56223063865298, 421.2973613127816 213.4142187212654, 419.5926938775921 214.26392698678194 C417.88802644240263 215.11363525229848, 414.73210835991074 216.49889624072875, 412.8353871981823 216.00731840626108 C410.9386660364538 215.5157405717934, 409.0066638353178 212.7731356055648, 408.21236690722145 211.3144599799759 C407.4180699791251 209.85578435438703, 407.76170890884663 209.39087962220384, 408.06960562960427 207.25526465272773 C408.3775023503619 205.11964968325162, 408.620711356458 200.26081104158354, 410.0597472317672 198.50077016311923 C411.49878310707635 196.74072928465492, 415.50217470397945 197.25524140236405, 416.7038208814593 196.69501938194185 C417.90546705893917 196.13479736151965, 417.4581455764418 194.8267909788801, 417.26962429664627 195.13943804058593 M416.02318821715846 194.10596737414485 C417.5341400550675 193.56693458305938, 420.13467553148206 194.16873527016105, 421.3293119832935 196.0162865249987 C422.52394843510496 197.86383777983633, 422.92302131904523 202.97422598507643, 423.19100692802726 205.19127490317075 C423.4589925370093 207.40832382126507, 423.95614610779774 207.35974238963362, 422.9372256371857 209.31858003356453 C421.91830516657365 211.27741767749544, 418.4549132625599 215.99437577730137, 417.07748410435516 216.94430076675613 C415.70005494615043 217.8942257562109, 415.73383395543203 215.78276750862108, 414.6726506879573 215.01812997029307 C413.61146742048254 214.25349243196507, 411.9656210421274 213.9679123435812, 410.7103844995067 212.35647553678803 C409.455147956886 210.74503872999486, 407.2279341653692 207.36134689840833, 407.14123143223304 205.349509129534 C407.05452869909686 203.33767136065967, 409.0421235355351 201.72282882251923, 410.1901681006898 200.28544892354213 C411.3382126658445 198.84806902456504, 412.7224445502684 197.12144233176144, 414.02949882316125 196.72522973567135 C415.3365530960541 196.32901713958125, 417.5021593084084 197.75541429552428, 418.0324937380471 197.90817334700148" stroke="#1f2937" stroke-width="1.5" fill="none" stroke-linecap="round" stroke-linejoin="round"></path></g><g><path d="M167.08679744054155 64.42054448497151 C167.08679744054155 64.42054448497151, 167.08679744054155 64.42054448497151, 167.08679744054155 64.42054448497151 M167.08679744054155 64.42054448497151 C167.08679744054155 64.42054448497151, 167.08679744054155 64.42054448497151, 167.08679744054155 64.42054448497151 M161.37952936295505 74.80379950083133 C169.23611788841941 72.15339645895335, 169.1964247492485 67.83697968100962, 172.17106497254227 63.93783815031079 M164.0251413844907 74.26169104746815 C164.8949361740465 73.22812685349152, 168.75615748343535 70.61176576538766, 172.00459330629562 63.06403675814298 M165.44556523635572 76.68099482410959 C171.48635727055978 72.7775568855096, 172.7047777324297 69.73031555207017, 176.8654229944896 66.47366193312213 M168.07267847463075 75.98411959910206 C168.7538057526957 73.11009073641166, 171.67525608831372 71.27628520816704, 174.41502149849646 66.66304884838864 M171.51263763300167 78.53230170392779 C172.5982885879292 77.0619689021569, 173.97803165398108 72.70675795578455, 177.64030697810423 71.75818135813654 M169.4274983687608 79.41487753332939 C171.77027914747023 76.97179584172748, 173.90967611330325 75.30863082749491, 177.36387086699676 70.47066208951951" stroke="#1f2937" stroke-width="1" fill="none" stroke-linecap="round" stroke-linejoin="round"></path><path d="M167.14327060808318 64.3555795371759 C168.10032527271034 63.36012533301008, 168.58987504283579 62.74803481244068, 169.60267738747598 62.71587997935312 C170.61547973211617 62.68372514626556, 171.9553727570908 62.72560414550977, 173.22008467592426 64.16265053865052 C174.4847965947577 65.59969693179129, 176.72341658889252 69.29979975548642, 177.19094890047666 71.33815833819766 C177.6584812120608 73.3765169209089, 176.86101451428306 75.04513398976103, 176.02527854542907 76.39280203491798 C175.1895425765751 77.74047008007493, 173.65078587238338 79.39889264562261, 172.17653308735285 79.42416660913933 C170.70228030232232 79.44944057265606, 168.63503302006285 77.33957726504319, 167.17976183524596 76.5444458160183 C165.72449065042906 75.7493143669934, 163.9238458951159 75.97324952994737, 163.4449059784514 74.65337791499 C162.9659660617869 73.33350630003264, 163.1752546898641 70.56776069914771, 164.3061223352589 68.62521612627413 C165.4369899806537 66.68267155340054, 168.74059592276416 63.557363909528796, 170.23011185082024 62.998110477748455 C171.71962777887632 62.43885704596811, 173.40868979272406 64.97971200806184, 173.2432179035954 65.26969553559208 M166.08568862825925 61.49640841499528 C167.40336413293664 60.430295699221865, 168.4366531215494 60.06182559918907, 170.23851291395871 61.15731703879229 C172.04037270636803 62.252808478395515, 176.00139569195795 66.12349156043372, 176.89684738271512 68.0693570526146 C177.7922990734723 70.01522254479549, 176.03235479302722 71.46639080017127, 175.6112230585018 72.83250999187759 C175.19009132397636 74.1986291835839, 175.21649052958867 75.04620664487582, 174.37005697556248 76.26607220285251 C173.52362342153629 77.4859377608292, 171.8124701465258 80.29873353311305, 170.53262173434456 80.15170333973775 C169.2527733221633 80.00467314636245, 167.6923600611409 77.03060809384041, 166.6909665024749 75.38389104260067 C165.6895729438089 73.73717399136092, 164.65613160421415 71.56255570691926, 164.52426038234867 70.27140103229924 C164.3923891604832 68.98024635767922, 165.4450108525298 68.85926366481804, 165.89973917128208 67.63696299488058 C166.35446749003435 66.41466232494311, 167.08823331183453 63.595758179520246, 167.25263029486234 62.93759701267443 C167.41702727789016 62.279435845828615, 167.0775895566696 63.89899352995733, 166.88612106944905 63.68799599380568" stroke="#1f2937" stroke-width="1.5" fill="none" stroke-linecap="round" stroke-linejoin="round"></path></g><g><path d="M302.9780819709664 177.24898393868597 C302.9780819709664 177.24898393868597, 302.9780819709664 177.24898393868597, 302.9780819709664 177.24898393868597 M302.9780819709664 177.24898393868597 C302.9780819709664 177.24898393868597, 302.9780819709664 177.24898393868597, 302.9780819709664 177.24898393868597 M296.71150443408874 190.30562345105585 C303.72506086088885 186.6861192936256, 306.0951584930449 176.43538842530393, 308.26392013657954 174.16203876493537 M297.779990701417 189.60623365360672 C302.6226895925316 185.55479032575838, 306.6330119455877 177.77787251012654, 309.60448377359774 174.10936127064787 M297.40327756870295 193.92644875614994 C305.5028896584859 189.58398549726465, 306.38400707367526 181.99996346395415, 313.8541158575525 177.03904029000935 M297.6707561837485 193.3866756197726 C303.27885106078764 191.7929785386597, 306.67912349576284 187.57359957259996, 315.3624767739286 174.32883468140304 M301.9537054884733 199.4724083385878 C309.66746065315084 187.83205600995248, 312.7362824350088 181.45816588264495, 321.0724889307007 179.62520462787265 M301.16334661725176 198.45933560351662 C304.6480623520779 194.79296531271805, 309.2475399194829 189.49876597640693, 320.37873135495033 176.05326558268183 M304.5348628473905 203.3790269931466 C309.3205156312934 198.77947252767368, 312.2176304093661 189.64683919741742, 325.20967303900517 179.73884699307965 M303.49018821841753 201.49001183711596 C310.4284133634789 192.61712049492604, 315.16963212660136 184.6761354101202, 323.41048276214394 179.02499262653873 M309.4252652704545 205.87403909482643 C309.73921957574953 195.64445315145824, 315.9026361391165 188.47708452835724, 327.5506247784753 183.2999113408532 M307.3463981747456 202.4804621330707 C311.9966340816763 196.2526568501805, 318.29855635147356 188.7600446717915, 324.3655391540189 180.03173320569658 M312.2098693536746 204.17738859884997 C313.8702031116749 198.4825662504705, 318.3119225748209 197.63997737511818, 326.2549188031017 180.95642246597055 M309.88978464474553 208.1684038841035 C314.2412565584566 200.3447642155326, 319.0259279875507 194.2697843466521, 327.38257674706574 185.33303555243256 M316.91642683801314 206.77297155932618 C320.6397153457387 196.82535795713363, 330.1919266272586 190.55478725036988, 332.67645267990343 189.8580339038771 M316.0772009318795 205.29925658182336 C321.55439045293 197.8134841154899, 326.67917080084266 192.10227209043464, 330.95084467080346 189.03382663969217 M321.7753686677712 204.2131942905089 C323.77381226070895 203.11112295636374, 325.30059141657813 198.98740039758624, 328.60412521817193 194.87946291243034 M321.08480519287764 205.06369770299403 C324.2844875006001 200.6233650667177, 327.6399590988447 198.19497243949448, 329.05215606548296 196.81649346267181" stroke="#1f2937" stroke-width="1" fill="none" stroke-linecap="round" stroke-linejoin="round"></path><path d="M323.30124767770195 178.47664501014586 C326.4642165440766 180.1218520470077, 329.76665101544927 182.5084331764969, 330.61028864758975 185.86640466796732 C331.45392627973024 189.22437615943772, 329.9286604116906 195.45827047896012, 328.36307347054475 198.62447395896837 C326.7974865293989 201.79067743897662, 324.2924773965817 203.40646566436413, 321.21676700071464 204.8636255480169 C318.14105660484756 206.32078543166966, 313.1656570992977 208.12433881052752, 309.90881109534234 207.36743326088504 C306.651965091387 206.61052771124255, 303.730650179796 203.33431682475822, 301.67569097698265 200.322192250162 C299.6207317741693 197.3100676755658, 297.40887943880756 193.08628122283122, 297.5790558784623 189.29468581330772 C297.7492323181171 185.50309040378423, 300.27346389375145 180.1299555076964, 302.6967496149112 177.57261979302098 C305.12003533607094 175.01528407834556, 307.95051166186187 173.26277237325505, 312.1187702054209 173.95067152525516 C316.28702874897994 174.63857067725527, 324.93728009836343 179.7093644278628, 327.7063008762653 181.7000147050216 C330.47532165416715 183.6906649821804, 329.0800378944508 186.08653165932515, 328.73289487283205 185.89457318820797 M307.72693707656674 176.35174048508762 C310.8525238043275 174.5521115866064, 315.2403511332367 172.2370432377076, 318.3866289901127 173.15694192700232 C321.5329068469887 174.07684061629703, 324.47310017832297 179.17986909349523, 326.6046042178229 181.8711326208559 C328.7361082573228 184.56239614821655, 331.17811158449155 186.32442514912364, 331.1756532271123 189.30452309116626 C331.1731948697331 192.28462103320888, 328.5882989411499 196.69763934837027, 326.58985407354754 199.7517202731116 C324.5914092059452 202.80580119785293, 322.28289841359924 206.96852065718795, 319.1849840214983 207.62900863961426 C316.0870696293973 208.28949662204056, 311.5430067311586 205.8699599882786, 308.00236772094183 203.71464816766937 C304.4617287107251 201.55933634706014, 299.57237747690675 197.4083511594933, 297.9411499601978 194.69713771595895 C296.3099224434888 191.9859242724246, 296.66277598009253 190.46108123930327, 298.2150026206879 187.44736750646334 C299.7672292612833 184.4336537736234, 305.72096777211027 178.33604091090828, 307.2545098037701 176.6148553189194 C308.7880518354299 174.89366972693054, 307.4480609042357 176.73872117441203, 307.41625481064693 177.12025395453014" stroke="#1f2937" stroke-width="1.5" fill="none" stroke-linecap="round" stroke-linejoin="round"></path></g><g><path d="M52.83754117624715 47.255986796679245 C52.83754117624715 47.255986796679245, 52.83754117624715 47.255986796679245, 52.83754117624715 47.255986796679245 M52.83754117624715 47.255986796679245 C52.83754117624715 47.255986796679245, 52.83754117624715 47.255986796679245, 52.83754117624715 47.255986796679245 M53.18426330642197 55.16016873368814 C55.426995274485726 51.89414079539561, 59.26451507355941 45.546019152302264, 64.45494487659333 41.74867477934742 M51.87028473810646 54.66069757589891 C53.96516288305632 52.27852846400673, 56.429465401589454 47.80065757354166, 61.67010002867577 42.66302095096493 M51.07267325584666 60.65697570010198 C58.70180825641873 54.9848470828232, 67.14329207483583 42.23824534826897, 68.71701745402734 40.51321857369102 M50.429108422146 60.7388881356932 C55.68346837819988 55.453447934112326, 63.354293185382865 47.14982862467682, 69.41774178010147 41.17716249770082 M54.505528205003124 61.07787481426348 C57.052595776195574 59.497609789917874, 61.653351445213204 54.512898463025856, 70.60946489542876 38.983016901285765 M53.51597276117978 63.847046017936364 C60.55564100620818 57.97902748242417, 64.90480469322209 51.51889446247318, 72.92456085503255 40.58008293566239 M57.35033512748605 64.05238038824126 C62.52136470499775 56.920046444064226, 66.230808712106 56.13000453204337, 75.85183956693513 43.750335585615105 M58.48527094609862 64.53928063587472 C65.36882562433601 58.984511716190724, 70.01297518949893 53.54844677899435, 76.70271676700216 44.443660021862456 M62.930034559064396 66.00329048873088 C71.00507617672412 60.50311516384836, 74.88784925761034 52.80505043734876, 83.4696340912869 45.78946895270628 M61.61126187204648 68.32691544682882 C66.01426292940108 61.61674399126982, 72.14991456201243 55.48210903552048, 79.3524579981258 44.78227597295326 M68.60723718045968 66.17048028131401 C69.68912279255518 64.41867179808463, 70.16672924925564 62.22420960781101, 82.63559803324361 48.27475548903207 M66.49381207911986 68.22741350700532 C72.88304876400792 61.18835933637187, 76.657097999797 56.214375865333515, 82.65722747253794 49.149419666032585 M69.65304558450545 68.72750237576217 C69.36710488558857 68.90546494816626, 76.89970715080814 62.714836716319525, 81.11986904820503 55.62105697929897 M68.91600892277623 71.39080404474885 C71.80445716804934 66.47091458022932, 76.60949663223525 62.159547398731746, 83.27059747217298 57.432810336575294" stroke="#1f2937" stroke-width="1" fill="none" stroke-linecap="round" stroke-linejoin="round"></path><path d="M71.30197458865914 40.380032746462206 C74.7174001393756 41.13033142953125, 79.26604208004927 43.63248214838368, 81.1766559658277 45.881725697523706 C83.08726985160614 48.13096924666373, 83.22031339261954 50.710458889808585, 82.76565790332971 53.875494041302375 C82.31100241403988 57.040529192796164, 80.79883527401095 62.14813349348558, 78.44872303008874 64.87193660648646 C76.09861078616653 67.59573971948734, 71.74392715288927 69.86885577232492, 68.66498443979641 70.21831271930763 C65.58604172670356 70.56776966629035, 62.8976537996303 68.59615642341285, 59.975066751531635 66.9686782883827 C57.05247970343297 65.34120015335256, 52.372440543341995 63.67747340582716, 51.129462151204436 60.45344390912679 C49.88648375906688 57.22941441242642, 51.026839331823766 50.66471628044359, 52.51719639870626 47.62450130818052 C54.00755346558876 44.58428633591745, 56.382304424859086 43.21169564481551, 60.071604552499416 42.21215407554835 C63.760904680139745 41.21261250628119, 71.91256594818783 41.4445142224311, 74.65299716454824 41.62725189257759 C77.39342838090865 41.80998956272408, 76.72862557026241 43.416937869915856, 76.51419185066183 43.308580096427285 M56.70529520330772 44.08417157854905 C58.67286000942829 41.558456398140336, 63.007658345559086 37.96097642309732, 65.98879010976587 37.91772249315955 C68.96992187397265 37.87446856322178, 71.63193697021876 41.51390432743178, 74.59208578854843 43.82464799892246 C77.5522346068781 46.135391670413135, 82.87375956186429 48.55122535748488, 83.74968301974391 51.782184522103606 C84.62560647762353 55.01314368672233, 81.88636095814945 60.510277127986996, 79.84762653582617 63.21040298663481 C77.80889211350288 65.91052884528263, 73.96403763561614 66.47861648038854, 71.51727648580419 67.9829396739905 C69.07051533599224 69.48726286759246, 67.77560252954615 72.65643737908941, 65.16705963695449 72.2363421482466 C62.55851674436283 71.8162469174038, 57.79876054352596 69.01791019960022, 55.866019130254216 65.46236828893369 C53.933277716982474 61.906826378267155, 53.78269784718117 54.61861662431411, 53.570611157324024 50.90309068424741 C53.35852446746688 47.18756474418071, 54.32069706676933 44.4471899537592, 54.59349899111137 43.16921264853349 C54.86630091545341 41.89123534330778, 54.3429626757516 43.223150494614046, 55.207422703376274 43.23522685289313" stroke="#1f2937" stroke-width="1.5" fill="none" stroke-linecap="round" stroke-linejoin="round"></path></g><g><path d="M201.76436809006037 166.11599839111926 C201.76436809006037 166.11599839111926, 201.76436809006037 166.11599839111926, 201.76436809006037 166.11599839111926 M201.76436809006037 166.11599839111926 C201.76436809006037 166.11599839111926, 201.76436809006037 166.11599839111926, 201.76436809006037 166.11599839111926 M195.083800531015 178.30008188529558 C200.07707402437427 173.75451619699447, 207.30077588990238 168.13494295758284, 211.70808875395255 160.91493168556426 M197.13036784289795 177.7507937882716 C203.3491004301201 172.8279760154984, 208.1237704893587 166.39137828407647, 209.80541299714045 163.25347460889552 M200.52914150657034 180.01405928161464 C203.87222687975822 171.7863236703426, 209.6868146733204 171.03388928166603, 218.05487355610111 164.52337265537884 M198.9745332241235 180.7176572891744 C204.3047386251354 176.0033457626531, 206.1383897992731 171.08073696891674, 214.74796129187322 162.16146611200477 M200.22018736915084 184.72873624839085 C207.3730517557924 176.51484412547742, 210.47941327227977 175.43834595953285, 218.3971592497937 161.8956432935961 M202.2314353527257 184.88015139080778 C207.1361897864916 178.10199299530814, 210.90224694846412 174.0587604362785, 220.52110874475164 162.26171440754015 M207.10440773923744 189.7899670626787 C211.77441571612152 179.9490457751892, 216.4611136954577 174.5118710672661, 224.08866545551146 165.67134787727053 M204.0189540054356 189.4527827139763 C206.82005630554355 182.8335489984649, 211.5887010802786 179.64752351428882, 224.38961013250673 164.57185111630616 M207.62946320832071 190.44206558175537 C213.1647572396815 181.4070786748198, 217.255521945424 177.67782844655443, 223.52724373575435 166.94325984390213 M207.07078492999372 188.882892459707 C211.1055513778198 185.89835207531388, 216.9753583252378 181.23624118121108, 224.87797717388855 168.19705201955273 M214.23108728091958 194.73722440356636 C218.0833971673868 186.7516154821685, 224.3150647486425 179.38815728701218, 223.1548775950413 174.2573217914364 M212.32432178716903 191.6600755696955 C216.82564934785273 185.65517240714524, 219.82623976690294 181.99053898130472, 225.27047852966598 174.83003705897542 M218.5368382216916 189.37984892421562 C220.2577827735521 187.18247749385353, 221.31598067638777 185.82398547630987, 223.758305596776 185.2709237373431 M219.28310915454483 188.62404868208964 C219.74600750282642 188.18963069838506, 220.57367729969164 186.8460251410113, 222.75434279359104 184.74245119487838" stroke="#1f2937" stroke-width="1" fill="none" stroke-linecap="round" stroke-linejoin="round"></path><path d="M207.88253322098893 161.9583436431522 C210.44899228557136 161.30184011592058, 215.4617625551526 160.39088417898296, 218.49784890205225 161.66270609355746 C221.5339352489519 162.93452800813196, 225.03742451977774 166.49251267705716, 226.09905130238678 169.5892751305993 C227.16067808499582 172.68603758414145, 225.68003381674555 177.30406471151915, 224.8676095977064 180.24328081481028 C224.05518537866726 183.1824969181014, 223.570483100797 185.42844536411195, 221.22450598815195 187.22457175034614 C218.8785288755069 189.02069813658034, 214.01031355913975 191.04070750990795, 210.7917469218361 191.02003913221552 C207.57318028453247 190.99937075452308, 204.24848575786731 189.75695806060745, 201.91310616433015 187.10056148419162 C199.57772657079298 184.4441649077758, 196.8355994650764 178.54303382062906, 196.77946936061306 175.08165967372048 C196.72333925614973 171.6202855268119, 199.40866021554177 168.58030463158556, 201.57632553755016 166.33231660274018 C203.74399085955855 164.0843285738948, 208.02584509936742 162.65410029943968, 209.78546129266337 161.5937315006482 C211.54507748595933 160.53336270185673, 212.15773213446116 160.0481465051406, 212.13402269732597 159.97010380999134 M219.120982289964 164.53342531178126 C221.03897349337856 165.79107791307757, 223.27023012723544 167.52668875016462, 224.5575235195481 170.7671634213702 C225.8448169118608 174.0076380925758, 227.4979161907157 181.1416849807624, 226.8447426438401 183.97627333901474 C226.1915690969645 186.8108616972671, 223.36097318034138 186.72851643020124, 220.6384822382945 187.77469357088424 C217.91599129624763 188.82087071156724, 214.20570355180573 190.51748077302096, 210.50979699155891 190.25333618311265 C206.8138904313121 189.98919159320434, 200.28473351421798 188.65660178517254, 198.4630428768136 186.18982603143434 C196.64135223940923 183.72305027769613, 199.25350731048036 178.90415203152685, 199.57965316713265 175.45268166068345 C199.90579902378494 172.00121128984006, 198.70859846413444 168.31744002208598, 200.4199180167274 165.48100380637405 C202.13123756932035 162.64456759066212, 206.55592062908357 158.94083289782114, 209.84757048269032 158.43406436641186 C213.13922033629706 157.92729583500258, 218.34432783379032 161.8211486717379, 220.1698171383679 162.44039261791835 C221.9953064429455 163.0596365640988, 221.00262453287195 161.63815339666482, 220.80050631015592 162.14952804349466" stroke="#1f2937" stroke-width="1.5" fill="none" stroke-linecap="round" stroke-linejoin="round"></path></g><g><path d="M348.72637862087817 26.21550045190793 C348.72637862087817 26.21550045190793, 348.72637862087817 26.21550045190793, 348.72637862087817 26.21550045190793 M348.72637862087817 26.21550045190793 C348.72637862087817 26.21550045190793, 348.72637862087817 26.21550045190793, 348.72637862087817 26.21550045190793 M343.09980108400043 39.912139964277806 C348.8463067053116 35.905262801288565, 351.4467098910829 28.14206726132327, 353.3079806705293 25.507393599048388 M342.5682873513287 39.53275016682869 C345.76399245316463 35.94962816473191, 348.8397731366437 32.54401334163474, 353.0485443075475 25.7747161047609 M345.39655725833666 43.62947165036702 C347.4611780992095 35.77965629876085, 353.65824569965264 30.759498373678547, 355.74761813022695 27.146565104529152 M342.9309055271436 44.954755229895355 C348.1507951440223 38.11232653802071, 353.5682802376859 33.09545661352963, 358.03306927569713 28.158808093771228 M343.31397112131265 50.373797729089674 C353.84312333616907 42.185385399278445, 355.2183949047027 38.88938775945858, 362.9079191631823 27.55717931270067 M345.12602253228573 47.9074568102507 C350.86909957206444 43.64347916414336, 357.03445501826263 35.86746169901745, 361.64072219349435 26.692255506212156 M349.80578202597445 48.857625043019226 C354.6533671423279 43.08003782406375, 359.97061313881005 39.79456989756022, 363.9606749610924 28.83185063527464 M348.8999387397582 50.896356097980906 C355.1739015925766 42.578144729838904, 363.38387882909853 34.62657391184165, 366.911687115016 29.139532677098504 M351.0201345035721 55.365621560905694 C357.6792731507951 45.83176300356584, 359.2254044126112 41.87550238337243, 368.6760960262169 34.98183162122383 M351.22155063393603 53.123650358711004 C358.2376416806268 45.901880433101816, 367.22821738160013 38.8164404932389, 369.09473899564637 32.09660895227804 M360.5143571143461 55.124620671276325 C364.46100436724004 44.679459124609096, 367.34179046602185 41.658685443042394, 372.04569494778667 36.951121078852765 M358.8142512281848 53.31338977784323 C361.6379258747256 48.34844775599353, 367.2187325018861 42.135202578678225, 369.85526737774165 37.22188743693029 M362.39827999787383 50.545289914264075 C365.4475175406089 49.52705396793208, 368.21031637538414 45.05697262796905, 370.56800100410277 43.74700178072227 M363.6737638065403 51.424218053324815 C366.60864044022844 47.85615445483924, 368.1506896820484 45.737190724988636, 370.88949599841527 44.23187224060668" stroke="#1f2937" stroke-width="1" fill="none" stroke-linecap="round" stroke-linejoin="round"></path><path d="M348.91293970060354 26.00088647977474 C351.23104752274986 24.198316003083757, 355.38693198106176 25.776879020597875, 358.4543479745239 26.44387059573102 C361.52176396798603 27.110862170864166, 365.0913589597143 27.994725159370645, 367.31743566137646 30.00283593057362 C369.54351236303864 32.0109467017766, 371.5971066683748 35.39002798689557, 371.8108081844969 38.49253522294887 C372.02450970061903 41.595042459002165, 370.36080207683506 46.31834059499598, 368.5996447581092 48.617879346893396 C366.83848743938336 50.91741809879081, 364.19004001332684 51.81287743714299, 361.2438642721417 52.289767734333346 C358.2976885309566 52.766658031523704, 353.8647645289101 52.68997082273473, 350.9225903109983 51.479221130035555 C347.98041609308655 50.26847143733638, 345.0178142860597 47.80380378789488, 343.5908189646712 45.025269578138285 C342.1638236432827 42.24673536838169, 340.97588703492863 37.79314240414019, 342.3606183826673 34.808015871495996 C343.745349730406 31.822889338851805, 349.4857486094082 28.921563982205274, 351.89920705110353 27.11451038227313 C354.3126654927989 25.30745678234099, 356.79070888134794 24.053361964324964, 356.8413690328394 23.965694271903136 M363.64750430673166 23.662389758429292 C366.75771401877773 24.783378540017072, 369.2658796681892 29.43217535542918, 370.3289499770091 32.10268645722752 C371.39202028582895 34.77319755902586, 370.31736589283815 36.458442946435866, 370.025926159651 39.685456369219324 C369.7344864264639 42.91246979200278, 370.6550217054159 49.3766973582738, 368.5803115778862 51.46476699392826 C366.50560145035655 53.552836629582714, 361.200251774691 52.39298853844537, 357.5776653944729 52.21387418314604 C353.95507901425475 52.034759827846706, 348.83634058796304 52.131488176662, 346.8447932965773 50.39008086213225 C344.8532460051915 48.6486735476025, 345.7416095441978 44.902171002466474, 345.62838164615835 41.76543029596753 C345.5151537481189 38.62868958946859, 344.8101529962365 34.48257565651046, 346.1654259083407 31.569636623138592 C347.52069882044486 28.656697589766722, 350.9447617342173 25.350854982806247, 353.7600191187832 24.28779609573632 C356.5752765033491 23.22473720866639, 361.3239387107923 25.14973204534499, 363.0569702157359 25.19128330071902 C364.79000172067947 25.232834556093053, 364.2487518703367 24.331794292209473, 364.1582081484448 24.537103627980507" stroke="#1f2937" stroke-width="1.5" fill="none" stroke-linecap="round" stroke-linejoin="round"></path></g><g><path d="M99.76919477202676 150.32866153866985 C99.76919477202676 150.32866153866985, 99.76919477202676 150.32866153866985, 99.76919477202676 150.32866153866985 M99.76919477202676 150.32866153866985 C99.76919477202676 150.32866153866985, 99.76919477202676 150.32866153866985, 99.76919477202676 150.32866153866985 M100.71286239531106 157.76864338165439 C102.34800720326623 154.75924841110978, 105.47052555766129 150.69561982533395, 105.60575080417246 147.5239497393162 M98.85641899135179 157.54909086352504 C101.59021058340402 155.67624705297422, 101.43334049060645 152.77365542349767, 106.29549747131914 148.36531957683871 M102.7249857145895 161.49342857671672 C106.48449397218887 157.91355752198348, 109.6606153966046 152.62681868706275, 111.19929984658589 145.60903253576043 M99.51712529364718 163.34304927063877 C104.30457955876204 157.6771653736747, 106.73238689400546 153.32868942124216, 112.60322367399563 146.73610543152574 M103.44915078371031 166.085422433534 C105.86636871351713 163.94344201619748, 112.25409218333637 151.63274521257907, 119.37219304478774 148.1758593951052 M101.8620056220816 167.40132545343909 C105.58493405719854 161.2132827965318, 111.30797986647663 155.6921975003975, 117.91384961045394 146.07994066818412 M101.83643416496638 172.30126540755083 C106.0476501462542 164.01120439252105, 112.16036890307467 162.68771903329943, 120.21802134791878 149.21362619724704 M103.1102013263357 170.31591186617663 C108.42776437791358 164.28723427806455, 113.42670792140721 158.7416110809045, 119.41910097877053 150.92848704185917 M109.48402462208794 172.6198695044699 C111.17926639182294 167.80704482366212, 116.8978654334173 156.85899058189972, 123.81028519792483 153.8416762025139 M107.24553516114281 172.8951002221289 C110.1682677488238 164.88106229576124, 116.10478344821124 158.79444232694541, 123.29683769864963 153.2174386889717 M114.158727713056 175.75212806384565 C118.23985502147887 168.5221594262983, 117.80928813015859 163.3985979295116, 121.89761306581535 159.88503149112847 M112.66528143448392 175.20681511085036 C114.27219470125065 170.5787664348936, 119.6716546247699 164.9937242343357, 125.0011569911007 159.8538489397445" stroke="#1f2937" stroke-width="1" fill="none" stroke-linecap="round" stroke-linejoin="round"></path><path d="M118.23214468453132 147.3094410338644 C120.57331594979881 148.61137096857223, 122.97384898238774 153.4413888710142, 123.76769610701 156.27530052079413 C124.56154323163226 159.10921217057407, 124.24825771843652 161.49091275817202, 122.99522743226487 164.31291093254407 C121.74219714609322 167.13490910691613, 119.00201648028911 171.68216336308558, 116.24951438998012 173.20728956702646 C113.49701229967113 174.73241577096735, 109.12959892278599 174.16345393585843, 106.48021489041089 173.46366815618939 C103.8308308580358 172.76388237652034, 101.5752846216879 171.41040542971928, 100.35321019572952 169.0085748890122 C99.13113576977113 166.60674434830514, 99.28332200955381 162.1220392873838, 99.14776833466061 159.052684911947 C99.01221465976741 155.9833305365102, 98.02647032837984 152.49048975918794, 99.53988814637032 150.59244863639148 C101.05330596436079 148.69440751359502, 104.92118566685573 147.75672381915007, 108.22827524260346 147.66443817516836 C111.53536481835118 147.57215253118665, 117.09051496869584 148.49053953614072, 119.38242560085662 150.0387347725012 C121.6743362330174 151.58693000886166, 122.138644953083 156.58025795378293, 121.97973903556814 156.95360959333112 M111.86088716879831 145.4878931948796 C114.35927510245972 145.69754952053137, 116.8491994134435 149.16064281151296, 119.10079097476971 151.1255388389348 C121.35238253609592 153.09043486635665, 125.37019221447484 154.67815469718053, 125.37043653675552 157.2772693594106 C125.3706808590362 159.8763840216407, 121.24925301351892 163.79216886050546, 119.10225690845381 166.72022681231525 C116.9552608033887 169.64828476412504, 115.04521156879612 174.2287125143244, 112.48845990636484 174.84561707026936 C109.93170824393356 175.4625216262143, 105.70813470344207 172.17216210376654, 103.76174693386614 170.42165414798498 C101.8153591642902 168.67114619220342, 102.02582558610754 166.975169860838, 100.81013328890923 164.34256933558 C99.59444099171091 161.709968810322, 96.27362575281822 157.39083001913477, 96.46759315067622 154.62605099643693 C96.66156054853423 151.8612719737391, 99.78003917810284 149.21845153657878, 101.97393767605728 147.75389519939296 C104.16783617401171 146.28933886220713, 108.09335703744681 146.33100725193154, 109.63098413840281 145.838712973322 C111.16861123935881 145.34641869471247, 111.18122829472716 144.11845939846762, 111.19970028179327 144.80012952773578" stroke="#1f2937" stroke-width="1.5" fill="none" stroke-linecap="round" stroke-linejoin="round"></path></g><g><path d="M249.68423553145198 12.99519361355729 C249.68423553145198 12.99519361355729, 249.68423553145198 12.99519361355729, 249.68423553145198 12.99519361355729 M249.68423553145198 12.99519361355729 C249.68423553145198 12.99519361355729, 249.68423553145198 12.99519361355729, 249.68423553145198 12.99519361355729 M243.89529365437312 25.802571314740305 C248.2837153835915 20.758112027823987, 255.1722073668397 11.006200751184446, 259.0525761074397 9.442197615114857 M244.1619292012809 22.807056100312003 C248.72699451367305 20.979320694898053, 252.64470704012453 15.780127016935701, 256.0201714870158 11.758765132410334 M243.6379329586934 28.384470465270574 C250.5815859522566 27.464906244343506, 252.13710921864592 20.12877258153257, 260.8078285622744 14.052995339560269 M245.75019433000793 30.953125188736017 C251.26282121172503 22.106753390859502, 258.0088252899385 16.737354669031255, 261.4780065271405 12.213537394034622 M249.49596476447948 34.2975139283316 C255.8470322954399 26.179286098479782, 260.13712028027425 18.470752226594524, 266.1799241577931 17.159135008531322 M247.70962303024896 32.99566088698075 C251.93211211252984 26.46974921576769, 259.7600627126891 20.75453998757206, 264.53043425881344 17.032221361177672 M254.54689770930125 33.181243821767396 C258.30734769907014 29.556394638739373, 258.0940331915696 24.624889583187407, 268.1309430241261 16.45057812979548 M251.60027531825617 33.5718056840573 C256.30889935742965 30.526924698329015, 257.4822778272501 28.094186607546014, 266.7820901319061 19.572617777195862 M258.22002574082563 36.80380797370986 C257.53632771996394 30.368382830520222, 262.53641001398387 29.919190609409, 270.21885055229063 19.97461652506099 M256.96338994640956 36.457375715595646 C261.3338163949388 30.604608649242437, 262.91602704655486 27.278356578421604, 268.9901432795077 21.365852020643214" stroke="#1f2937" stroke-width="1" fill="none" stroke-linecap="round" stroke-linejoin="round"></path><path d="M255.9914248291603 10.462839884358301 C258.35089834888174 10.550303265697968, 260.98473343191665 12.426996795819477, 262.9988511272317 14.672866879130913 C265.0129688225468 16.91873696244235, 268.00330955838433 20.81150055499864, 268.0761310010507 23.938060384226915 C268.1489524437171 27.06462021345519, 265.0371484768512 31.509851360021752, 263.4357797832299 33.43222585450056 C261.83441108960864 35.35460034897937, 260.78614277797135 35.353003535023326, 258.4679188393229 35.47230735109976 C256.1496949006745 35.59161116717619, 251.8068706229172 35.269298865378424, 249.52643615133923 34.148048750959134 C247.24600167976126 33.026798636539844, 245.42904859779102 31.11876060869671, 244.78531200985506 28.744806664584 C244.1415754219191 26.37085272047129, 244.8567452465959 22.51865894164913, 245.66401662372343 19.90432508628287 C246.47128800085096 17.289991230916613, 247.73439703444257 14.624798401725224, 249.6289402726202 13.058803532386449 C251.52348351079786 11.492808663047674, 255.52439146517946 10.462242203573384, 257.0312760527892 10.508355870250218 C258.538160640399 10.554469536927053, 258.6803692053918 12.88757292710723, 258.67024779827875 13.335485532447457 M252.184679182496 11.46510621062436 C253.89084227334587 10.853019951836078, 256.86268078304556 13.126020985164416, 259.29164034974843 14.310438924097495 C261.7205999164513 15.494856863030574, 265.79415216344137 15.996043610812318, 266.75843658271333 18.571613844222835 C267.7227210019853 21.14718407763335, 265.6810375910285 27.020697596474424, 265.0773468653802 29.763860324560593 C264.47365613973193 32.507023052646765, 265.2756778702837 33.76656264943083, 263.1362922288238 35.03059021273985 C260.99690658736387 36.294617776048874, 254.72569319581305 37.510872521110365, 252.24103301662078 37.34802570441472 C249.7563728374285 37.18517888771907, 249.5662176222359 36.03803499305859, 248.2283311536702 34.05350931256595 C246.8904446851045 32.06898363207331, 244.32143037766966 28.633731715490246, 244.21371420522667 25.4408716214589 C244.10599803278367 22.248011527427554, 246.09841861776653 17.36351864775112, 247.5820341190122 14.896348748377871 C249.0656496202579 12.42917884900462, 251.8552917796906 10.788078898292966, 253.1154072127008 10.63785222521939 C254.37552264571102 10.487625552145815, 255.02263472913216 13.653521367878682, 255.14272671707354 13.99498870993642" stroke="#1f2937" stroke-width="1.5" fill="none" stroke-linecap="round" stroke-linejoin="round"></path></g><g><path d="M393.25363003033476 136.47315121439323 C393.25363003033476 136.47315121439323, 393.25363003033476 136.47315121439323, 393.25363003033476 136.47315121439323 M393.25363003033476 136.47315121439323 C393.25363003033476 136.47315121439323, 393.25363003033476 136.47315121439323, 393.25363003033476 136.47315121439323 M391.372766578298 147.03389018233818 C397.4306881959168 142.70798612067924, 400.52887094512084 135.8400426344856, 401.8487915261714 132.13267926212345 M391.97481362904233 144.44707666020793 C392.4781274244092 143.6396679030359, 395.23747444114025 140.68682847145257, 400.3569256178169 132.67341708105002 M391.0701336101284 148.65782598590042 C396.3788970229391 148.21593492319357, 398.12040558663625 143.38684078451362, 406.6455968147718 134.10031569285366 M392.21129063656826 148.6486492665627 C397.43226891518594 146.94671597643554, 401.30355216733483 142.05468052994888, 403.4750111206078 135.5582727005896 M393.7895456876398 151.63806388751829 C396.9939854911424 150.20045333907495, 405.7149256684091 140.54627423410494, 405.4904812421802 140.91615950612376 M395.0040073808075 154.11845478491153 C399.8594887128737 150.22316026224422, 403.5459407091374 144.13713441988205, 406.8498448785547 139.55825093833755 M397.79201013804635 157.49909986081855 C401.0148808351615 151.3888511252226, 401.57456379640314 148.44518350234796, 409.2027497007056 144.1065693662874 M397.02499819458683 157.06557712677258 C401.9355046720204 152.7971558453752, 403.387512529785 149.23714611834032, 410.5039642854138 142.23578781647606 M402.4034473015804 155.04177525514473 C403.22898250106783 153.24447366547372, 405.6493782699702 152.61909946549295, 409.95404177766846 146.7863587673714 M401.9006368510861 156.5185194453012 C405.5690227549952 153.31743730037144, 407.0672062681699 151.17032781333396, 410.52970187198923 145.03477172545695" stroke="#1f2937" stroke-width="1" fill="none" stroke-linecap="round" stroke-linejoin="round"></path><path d="M397.60921482997475 132.8884499301694 C399.53853602383947 132.44145519714704, 402.24976670950673 133.92291844031337, 404.49173171959137 135.3393148669281 C406.733696729676 136.75571129354284, 409.88479087251795 139.51400483492023, 411.0610048904825 141.38682848985778 C412.237218908447 143.25965214479533, 412.41432173183574 144.23509122813934, 411.5490158273784 146.5762567965533 C410.6837099229211 148.91742236496728, 407.98591848058464 153.7212392730114, 405.86916946373844 155.43382190034154 C403.75242044689224 157.14640452767168, 401.15382077393014 157.162066484458, 398.8485217263013 156.8517525605342 C396.5432226786725 156.54143863661042, 393.35998332344326 155.39377039324518, 392.0373751779656 153.57193835679885 C390.71476703248794 151.75010632035253, 390.7563061559899 148.71747738840565, 390.91287285343543 145.9207603418562 C391.069439550881 143.12404329530676, 390.4616313549652 138.89921018559224, 392.9767753626389 136.79163607750218 C395.49191937031253 134.6840619694121, 403.0152679873569 132.72765828573122, 406.0037368994773 133.27531569331583 C408.9922058115977 133.82297310090044, 411.43765257198515 139.64602750958022, 410.90758883536125 140.07758052300983 M398.0201284646493 135.13563060719406 C400.3912170756687 134.6531387359495, 402.76205488156563 135.03311678184616, 404.34785401447266 135.43309317841846 C405.9336531473797 135.83306957499076, 406.5845356478639 135.93739794220284, 407.5349232620915 137.5354889866278 C408.48531087631915 139.13358003105276, 409.96265175695765 142.69525022198965, 410.05017969983845 145.0216394449682 C410.13770764271925 147.34802866794675, 409.68397510870113 149.78399713152845, 408.0600909193763 151.49382432449914 C406.4362067300515 153.20365151746984, 402.3273682383782 154.7323553085359, 400.30687456388944 155.28060260279244 C398.2863808894007 155.828849897049, 397.985190532769 156.0357430409192, 395.93712887244385 154.7833080900384 C393.8890672121187 153.5308731391576, 389.10551133667343 150.38164723129802, 388.0185046019383 147.7659928975076 C386.9314978672031 145.15033856371718, 387.8662579717802 141.5286637605568, 389.4150884640329 139.08938208729583 C390.9639189562856 136.65010041403485, 396.3834727535531 133.63417734738962, 397.31148755545433 133.13030285794176 C398.23950235735555 132.6264283684939, 394.7733262410979 136.07905736438914, 394.9831772754403 136.0661351506087" stroke="#1f2937" stroke-width="1.5" fill="none" stroke-linecap="round" stroke-linejoin="round"></path></g><g><path d="M149.31288079772963 256.9969544240874 C149.31288079772963 256.9969544240874, 149.31288079772963 256.9969544240874, 149.31288079772963 256.9969544240874 M149.31288079772963 256.9969544240874 C149.31288079772963 256.9969544240874, 149.31288079772963 256.9969544240874, 149.31288079772963 256.9969544240874 M147.35664839059507 270.2031558036149 C150.450318276012 265.218433525497, 155.6964882351785 259.74509019178777, 155.4398240098387 253.81190461660813 M145.83006432921087 267.503928726846 C149.24704030243007 264.58275427860474, 153.54577731580088 260.7616515902434, 155.11120461672843 255.34517979051066 M147.58691000092676 269.86109448931 C149.19464369569968 266.7125577160155, 154.4357347288761 266.599531347683, 156.53968061126574 260.149560482754 M147.83355830367557 270.38131647660214 C149.60776150804966 268.92721458578177, 151.24200645246196 264.2299651727009, 158.45634967788857 258.88207543450466 M148.7901791810186 274.68743306402723 C152.88165458124837 270.1138466733312, 156.55447806291255 268.0708872264636, 160.4980543140626 259.5063145542974 M149.65315453349962 274.57067267474395 C153.86353023269257 270.5665183662968, 159.0799370092551 264.89046630351066, 161.49103891003193 262.7457465893114 M154.50534082784148 273.37454330933423 C156.3044724196149 272.18035453185234, 160.2602985348268 271.5994976842489, 162.65208724758358 267.9699908706777 M155.2116400799045 274.3457396441433 C157.20215293260233 271.59377327750474, 159.4654580072988 269.2419331479393, 161.4277282784018 266.13818949716614" stroke="#1f2937" stroke-width="1" fill="none" stroke-linecap="round" stroke-linejoin="round"></path><path d="M149.1866183724891 257.1422027291032 C150.3786794550482 255.99041424359876, 153.0802499098286 255.20310801403895, 154.52836592798903 255.27880266859057 C155.97648194614945 255.3544973231422, 156.53212916083498 256.2342830891936, 157.87531448145165 257.5963706564129 C159.21849980206832 258.9584582236322, 162.31259121228615 261.2093626177332, 162.58747785168907 263.4513280719065 C162.862364491092 265.69329352607986, 160.70143850715903 269.27891057201475, 159.52463431786916 271.04816338145275 C158.3478301285793 272.81741619089075, 156.87999196489238 273.2348909983449, 155.52665271594978 274.0668449285345 C154.17331346700718 274.89879885872415, 152.9317474039729 276.6158063087305, 151.40459882421356 276.0398869625906 C149.87745024445422 275.46396761645065, 147.64133948535715 272.6092590115818, 146.3637612373938 270.6113288516948 C145.08618298943043 268.6133986918078, 142.83054021134478 266.6206085226141, 143.73912933643345 264.05230600326837 C144.64771846152212 261.48400348392266, 149.9956155485732 256.64094421391167, 151.81529598792588 255.2015137356205 C153.63497642727856 253.76208325732932, 155.03564745382465 254.98651701565632, 154.6572119725495 255.41572313352134 M148.3523745092161 259.4435075958377 C149.69416371990962 258.5023795012184, 151.21501244871607 257.9950798821339, 153.33905939559298 257.68703641964856 C155.4631063424699 257.37899295716323, 159.5829349012049 256.27189967897783, 161.0966561904776 257.5952468209258 C162.6103774797503 258.9185939628738, 162.5653514732327 263.14294342333204, 162.4213871312292 265.6271192713365 C162.2774227892257 268.1112951193409, 161.30648744368006 270.592804291966, 160.23287013845666 272.5003019089524 C159.15925283323327 274.4077995259388, 157.36003578431985 276.7674796965009, 155.97968329988893 277.0721049732549 C154.59933081545802 277.3767302500089, 153.67414865623178 275.63730744602657, 151.95075523187123 274.32805356947625 C150.22736180751068 273.01879969292594, 146.721793730485 271.08332276515983, 145.63932275372557 269.21658171395313 C144.55685177696614 267.34984066274643, 145.39508905349868 265.2870198674385, 145.45592937131465 263.127607262236 C145.51676968913063 260.96819465703345, 145.43016033456738 256.9877261045251, 146.00436466062143 256.260106082738 C146.5785689866755 255.5324860609509, 148.6176029707135 258.3398214443333, 148.90115532763895 258.76188713151345" stroke="#1f2937" stroke-width="1.5" fill="none" stroke-linecap="round" stroke-linejoin="round"></path></g><g><g><path d="M40.83204920370613 268.93553449859104 C114.8913412699328 268.01959517484084, 189.85973162795514 265.2113591325526, 415.22974693045063 268.38079594231226 M39.37041329970101 268.2568161076546 C123.65483848908916 266.4265054305921, 206.5404739852064 265.8735883006318, 415.4366959605844 268.7306736915432" stroke="#1f2937" stroke-width="1.5" fill="none" stroke-linecap="round" stroke-linejoin="round"></path></g><g><g><path d="M40.41148645490408 268.46266467481854 C39.727007509782915 269.7583491781727, 39.61162997873128 269.56957475818695, 39.619074564874175 274.1883210411668 M39.68864052966237 268.1270073322952 C40.1780641118437 269.71868708949535, 40.00859520830214 270.7733555857092, 39.72142034247518 274.3613516192138" stroke="#1f2937" stroke-width="1.5" fill="none" stroke-linecap="round" stroke-linejoin="round"></path></g><text x="40" y="280" text-anchor="middle" dominant-baseline="hanging" font-family="&quot;Comic Sans MS&quot;, &quot;Segoe Print&quot;, cursive" font-size="14" fill="#1f2937">0</text></g><g><g><path d="M118.74481978823742 268.46266467481854 C118.06034084311625 269.7583491781727, 117.94496331206462 269.56957475818695, 117.95240789820751 274.1883210411668 M118.02197386299571 268.1270073322952 C118.51139744517705 269.71868708949535, 118.34192854163548 270.7733555857092, 118.05475367580851 274.3613516192138" stroke="#1f2937" stroke-width="1.5" fill="none" stroke-linecap="round" stroke-linejoin="round"></path></g><text x="118.33333333333334" y="280" text-anchor="middle" dominant-baseline="hanging" font-family="&quot;Comic Sans MS&quot;, &quot;Segoe Print&quot;, cursive" font-size="14" fill="#1f2937">20</text></g><g><g><path d="M197.07815312157078 268.46266467481854 C196.3936741764496 269.7583491781727, 196.27829664539797 269.56957475818695, 196.28574123154087 274.1883210411668 M196.35530719632905 268.1270073322952 C196.84473077851038 269.71868708949535, 196.6752618749688 270.7733555857092, 196.38808700914186 274.3613516192138" stroke="#1f2937" stroke-width="1.5" fill="none" stroke-linecap="round" stroke-linejoin="round"></path></g><text x="196.66666666666669" y="280" text-anchor="middle" dominant-baseline="hanging" font-family="&quot;Comic Sans MS&quot;, &quot;Segoe Print&quot;, cursive" font-size="14" fill="#1f2937">40</text></g><g><g><path d="M275.4114864549041 268.46266467481854 C274.72700750978294 269.7583491781727, 274.6116299787313 269.56957475818695, 274.61907456487415 274.1883210411668 M274.6886405296624 268.1270073322952 C275.1780641118437 269.71868708949535, 275.00859520830215 270.7733555857092, 274.7214203424752 274.3613516192138" stroke="#1f2937" stroke-width="1.5" fill="none" stroke-linecap="round" stroke-linejoin="round"></path></g><text x="275" y="280" text-anchor="middle" dominant-baseline="hanging" font-family="&quot;Comic Sans MS&quot;, &quot;Segoe Print&quot;, cursive" font-size="14" fill="#1f2937">60</text></g><g><g><path d="M353.74481978823746 268.46266467481854 C353.0603408431163 269.7583491781727, 352.94496331206466 269.56957475818695, 352.9524078982075 274.1883210411668 M353.02197386299576 268.1270073322952 C353.51139744517707 269.71868708949535, 353.3419285416355 270.7733555857092, 353.05475367580857 274.3613516192138" stroke="#1f2937" stroke-width="1.5" fill="none" stroke-linecap="round" stroke-linejoin="round"></path></g><text x="353.33333333333337" y="280" text-anchor="middle" dominant-baseline="hanging" font-family="&quot;Comic Sans MS&quot;, &quot;Segoe Print&quot;, cursive" font-size="14" fill="#1f2937">80</text></g></g><g><g><path d="M41.13383007784114 25.274849069785564 C35.559560819204584 74.3395254698633, 35.24164387818671 119.31385051926355, 38.95037926373283 268.51890908733566 M39.14206475503116 24.349962269101198 C39.4761485593709 79.08607326919343, 39.009185582086566 132.3424769482084, 39.232387868393 268.99568607826166" stroke="#1f2937" stroke-width="1.5" fill="none" stroke-linecap="round" stroke-linejoin="round"></path></g><g><g><path d="M40.41148645490408 268.46266467481854 C38.6464911910519 268.58750473086536, 37.331086686477065 267.19870333735645, 33.619074564874175 268.1883210411668 M39.68864052966237 268.1270073322952 C38.88282586950809 268.4527428074926, 37.38524561487139 268.1792999526113, 33.72142034247518 268.3613516192138" stroke="#1f2937" stroke-width="1.5" fill="none" stroke-linecap="round" stroke-linejoin="round"></path></g><text x="30" y="268" text-anchor="end" dominant-baseline="central" font-family="&quot;Comic Sans MS&quot;, &quot;Segoe Print&quot;, cursive" font-size="14" fill="#1f2937">0</text></g><g><g><path d="M40.41148645490408 217.09424362218695 C38.6464911910519 217.2190836782338, 37.331086686477065 215.8302822847249, 33.619074564874175 216.8198999885352 M39.68864052966237 216.75858627966363 C38.88282586950809 217.08432175486107, 37.38524561487139 216.81087889997977, 33.72142034247518 216.99293056658226" stroke="#1f2937" stroke-width="1.5" fill="none" stroke-linecap="round" stroke-linejoin="round"></path></g><text x="30" y="216.63157894736844" text-anchor="end" dominant-baseline="central" font-family="&quot;Comic Sans MS&quot;, &quot;Segoe Print&quot;, cursive" font-size="14" fill="#1f2937">20</text></g><g><g><path d="M40.41148645490408 165.72582256955536 C38.6464911910519 165.8506626256022, 37.331086686477065 164.4618612320933, 33.619074564874175 165.45147893590362 M39.68864052966237 165.39016522703204 C38.88282586950809 165.71590070222948, 37.38524561487139 165.44245784734818, 33.72142034247518 165.62450951395067" stroke="#1f2937" stroke-width="1.5" fill="none" stroke-linecap="round" stroke-linejoin="round"></path></g><text x="30" y="165.26315789473685" text-anchor="end" dominant-baseline="central" font-family="&quot;Comic Sans MS&quot;, &quot;Segoe Print&quot;, cursive" font-size="14" fill="#1f2937">40</text></g><g><g><path d="M40.41148645490408 114.35740151692379 C38.6464911910519 114.48224157297062, 37.331086686477065 113.09344017946172, 33.619074564874175 114.08305788327206 M39.68864052966237 114.02174417440045 C38.88282586950809 114.34747964959789, 37.38524561487139 114.0740367947166, 33.72142034247518 114.2560884613191" stroke="#1f2937" stroke-width="1.5" fill="none" stroke-linecap="round" stroke-linejoin="round"></path></g><text x="30" y="113.89473684210527" text-anchor="end" dominant-baseline="central" font-family="&quot;Comic Sans MS&quot;, &quot;Segoe Print&quot;, cursive" font-size="14" fill="#1f2937">60</text></g><g><g><path d="M40.41148645490408 62.988980464292204 C38.6464911910519 63.113820520339054, 37.331086686477065 61.72501912683014, 33.619074564874175 62.71463683064047 M39.68864052966237 62.65332312176887 C38.88282586950809 62.97905859696631, 37.38524561487139 62.70561574208502, 33.72142034247518 62.88766740868751" stroke="#1f2937" stroke-width="1.5" fill="none" stroke-linecap="round" stroke-linejoin="round"></path></g><text x="30" y="62.52631578947369" text-anchor="end" dominant-baseline="central" font-family="&quot;Comic Sans MS&quot;, &quot;Segoe Print&quot;, cursive" font-size="14" fill="#1f2937">80</text></g></g></svg>