<svg xmlns="http://www.w3.org/2000/svg" viewBox="0 0 460 340" width="460" height="340" role="img"><g transform="translate(40, 24)"><g><g style="stroke-dasharray:6 4"><path d="M49.92175695107526 36.47421255376965 C48.93764189359504 86.17337255334199, 48.81938459705712 134.3510222770774, 49.10956685647615 284.1930214401938" stroke="#1d4ed8" stroke-width="1.25" fill="none" stroke-linecap="round" stroke-linejoin="round"></path></g><g><path d="M7.920310216782971 35.92031021678297 C7.920310216782971 35.92031021678297, 7.920310216782971 35.92031021678297, 7.920310216782971 35.92031021678297 M7.920310216782971 35.92031021678297 C7.920310216782971 35.92031021678297, 7.920310216782971 35.92031021678297, 7.920310216782971 35.92031021678297 M16.146174107885482 35.81898175613431 C14.411030507990581 32.93516027213523, 11.353696730438458 31.116518210777254, 8.133358336998505 27.0008397666423 M16.484056080265464 36.2796705102682 C13.027130504307948 32.58453813807342, 10.122650961198055 29.40912044408081, 8.078976821801048 27.79071967024937 M25.97749127063032 36.072528742267174 C20.109834614641272 32.763675856717754, 18.355620319918067 27.570193330602642, 8.062780541940016 20.13481312408865 M24.625845098933837 35.96017478128372 C18.89109675295998 30.77267273878013, 13.489550557158545 25.3896347507767, 8.290761663591846 18.61153637949199 M33.54142558704953 36.128700743629025 C25.623656660544487 27.162075704571134, 15.272078379340185 17.888251134113595, 8.040299374623583 11.261104218130875 M33.00673166178058 35.51823408623634 C27.388813759472768 30.237441362072744, 21.380569443260434 23.384146675167205, 7.799217232143865 10.38500457967626 M41.04910189260447 34.954430316402004 C35.30483382477957 28.896027558953115, 27.18231402182243 22.15077852606891, 8.558813614411637 2.3766916531154783 M42.387478797442256 35.34600374122559 C31.571136943916738 24.966479568362455, 21.345124742633658 15.198618671801206, 8.088301195776449 1.4717317138815198 M51.27951188651391 36.45803044886737 C37.8253658342713 22.057804578817034, 25.809476614143104 10.737917055275448, 13.615572866201864 -1.2816974269973553 M50.0072039375595 35.68102647086082 C38.45041482041169 24.311585041517883, 27.759099769339524 12.911273849488841, 14.687068579309152 -0.3121300251039184 M59.19406914299659 36.63414225430637 C49.80996708463185 25.936043142663756, 40.17322019592189 16.844961494241584, 23.671146892093724 -0.8851094710456646 M58.24193857627295 36.33955593725144 C50.14072974632659 27.368354588788492, 43.183956071577505 20.09047883131006, 22.311136752263312 -0.33456922478996876 M66.52410911127127 35.976234971000245 C54.544961149256885 22.966524508432233, 41.692067043669944 10.826610554021745, 30.564847672746325 0.7280575406921607 M67.0108782702232 35.6103067400068 C55.432669674340055 23.93678828050356, 44.188626720215325 12.602469430783279, 31.396857490219915 -0.12604319162689634 M75.95838911555668 36.28910596223026 C61.45654913587034 22.274855803986387, 49.27951109415017 9.357482941518843, 39.30222940737841 -0.5354459035026331 M76.3826326385509 35.74820441623628 C62.18318923934564 22.52923126368981, 49.28466527825457 8.164580348043227, 39.30756697481958 0.3142720489946704 M84.13058835507158 36.30138071627765 C71.87503774865364 21.594839221666195, 56.15434271668754 7.9965832642163885, 48.12126817020876 -0.9325411903487903 M83.78147536289666 35.868135440549246 C76.35236498872938 28.154374837601985, 67.31555420179514 19.48179941605851, 48.01851545020295 -0.10908859081588815 M91.19259434166165 34.263799284050585 C77.77863165782769 20.677612587538185, 66.28521416324342 8.297215679921385, 55.87986191045608 -0.4713215815650685 M91.17938062502802 34.824483662682 C80.58166382267753 23.03409781564051, 69.29572558511387 12.624361267320173, 56.52311722301062 0.10587073855079579 M90.9735757750532 25.53328915433793 C83.19861590545995 17.962272219851304, 73.43750544157524 8.11929022257275, 65.84333045233916 -1.2985522138702137 M91.07384598209322 26.07645318275152 C83.16410806983322 17.42138319222657, 74.37445077618118 9.239388540576652, 64.63920066238325 -0.24764317579589912 M91.73804529133052 16.3560280022864 C85.76967078870781 13.004596754283371, 82.29865115329666 7.63305858230451, 73.87191549507672 -0.08717009898296908 M90.86470511509836 17.752381099732666 C87.59288647077646 14.535736935583472, 84.31117331479922 10.413032628273383, 73.81525819996142 -0.1914626092465909 M91.62895887219146 9.200208366608177 C89.12601995056806 6.025088254083498, 86.64994822276509 5.039985439120414, 81.93366518285654 -0.585207148660192 M91.4255208100731 9.24151185094558 C88.70451099280746 5.804214949070053, 85.59117742442977 3.4664164879473427, 82.40713539890542 -0.484408253105575 M91.30363173917667 0.5288892350474088 C91.09557308178645 0.276003400607785, 90.92823631205916 0.11930652131285112, 90.64246399757809 -0.13483759501971432 M91.33897680185535 0.5704097976011872 C91.21767649976232 0.3929376357493728, 91.00240636814142 0.21943848031428065, 90.65581771526843 -0.11753096492052201 M91.07716446627535 35.922835533724665 C91.07716446627535 35.922835533724665, 91.07716446627535 35.922835533724665, 91.07716446627535 35.922835533724665 M91.07716446627535 35.922835533724665 C91.07716446627535 35.922835533724665, 91.07716446627535 35.922835533724665, 91.07716446627535 35.922835533724665 M90.71749800500132 28.057802000888984 C87.76971913016834 30.718952452621572, 85.27445101301763 33.07421870057061, 82.79717544395321 35.509954891832116 M90.75495161429652 27.340976288975575 C89.27646079951448 29.24935369819303, 87.0908705301241 31.286682267906887, 82.28585536517048 35.89843197032207 M90.94606828313924 19.60841662229712 C86.19439473904983 23.830658805847495, 81.20050442833738 27.971931662031132, 72.96853292371163 36.2040761806383 M90.48645128362485 19.036233062648428 C87.87110788732697 22.417576234579084, 83.23704219609854 26.447529205318006, 74.4253308228312 36.09546458072358 M90.71443260532476 11.43733146511864 C83.57761850767736 18.69588950180399, 75.50420755329466 27.190566058298494, 66.42295490669277 36.42483253258609 M90.71444382422276 10.778878890396172 C85.23856249562836 15.859431947553286, 79.97792214944991 22.423305154296923, 65.91369876561876 36.12164674944573 M91.37821127992729 1.8124518285700446 C77.83732873942506 13.95077305728359, 64.77882788601745 26.003836631943628, 58.17199778505963 36.29083004969501 M90.94878497474501 1.7752743748211628 C77.77784327913976 15.010097203060608, 64.18248299493564 28.12726639763459, 57.185081578096266 35.658603721329506 M84.1762631004866 -1.186526393388496 C74.66244453333559 12.063940714206105, 62.256990845584255 21.3429183048505, 49.18527825803099 35.3697567202463 M84.77459207365324 0.3513373337116974 C73.87915204126232 10.450023020015676, 63.1834691882969 21.544196301905647, 48.55828419190435 36.13919072098427 M76.74897045334079 -0.6126808995950086 C65.35037251791002 9.963111069186667, 54.43988629653545 23.53799643759492, 40.7148348998256 36.41562865752123 M76.21424823970743 -0.18865519544212644 C69.11570221376785 7.2169512909653335, 62.03360793544275 14.079197985519672, 40.23902560118362 35.424973910519405 M67.39781725626818 -1.111440920327888 C55.34175926987076 10.728332544456958, 44.67415282217625 21.769377445825782, 32.082628159662185 36.18129009980105 M67.20573031060778 0.25960510590942076 C54.62278918487557 12.559273644381417, 41.556578067590515 25.43915463395041, 31.926188862574694 36.2999803895443 M59.6728889584876 -1.3080872173058886 C47.57344333688413 11.234496915525938, 39.27601476877281 21.738817306452194, 22.06804036175952 36.630913410367 M59.608858842994955 0.29420783737571055 C51.63992895146484 7.388100841895105, 44.71347570136638 14.860471889082188, 23.01807109521822 36.3644481951683 M51.48169288421774 0.8834275727522438 C38.82265412789358 13.299364419497453, 25.046047047766347 25.24698075408025, 13.895375705336349 35.75249907750033 M50.33286845600957 0.3794535360661214 C39.49868985488765 10.39612042016783, 28.084163862193414 21.73441760350537, 14.61863348075481 35.328576302000805 M42.47665823267738 -0.9270210618722338 C28.59195771166957 14.255490102301337, 14.684543742725175 27.434944819841917, 8.435573826984514 34.9561621521092 M41.74265783129225 -0.6603963234099645 C29.48625772884877 12.250757797201286, 16.812220485196068 25.918900093801984, 7.557964825698186 34.29206105977809 M33.042636078085266 -0.7932295078980857 C27.233845141632692 5.319220898318742, 22.035234947671082 12.034067397517166, 7.2221369254151515 27.05820512298247 M33.46503971298363 -0.1473693289431864 C25.01089339865532 8.436908549865542, 16.193290073555733 17.15830625896781, 7.2269586861813595 25.809419068617135 M24.484399369660146 0.7798339729559469 C19.946760763303896 4.395278683214405, 15.286646536353548 9.365238834542193, 6.468067012981527 17.26418066526688 M25.594990907724327 0.14396786907583953 C21.999195741265645 3.1072982991040647, 17.935990429603645 7.4702177945734345, 8.01300061947947 17.554299927492806 M17.600026260144244 0.5026804012049781 C14.116749974540758 3.067564857028021, 9.653570055725504 6.009172519755015, 7.517528762978519 8.747033395730934 M16.617069839616473 -0.38669489483452857 C13.381196376803956 3.55217407410002, 10.236691647196883 6.780359447742432, 7.811882737393509 9.027732381681954 M8.315336687236123 -0.17047757677837905 C8.173913430489536 0.08509862160742514, 7.934840457768235 0.31268696183666156, 7.678456913319435 0.5844971277871128 M8.350178952847637 -0.1594742433644056 C8.191273114658378 0.014305875195323885, 8.04481220081665 0.1626540485203883, 7.63811669662876 0.5618972522419836" stroke="#ffffff" stroke-width="0.5" fill="none" stroke-linecap="round" stroke-linejoin="round"></path><path d="M8.514358068630099 0.5783308435231447 C24.408520839456468 0.6575335945464671, 40.86467205937952 -1.0784681473396718, 90.52384320609272 0.23540130145847796 M90.22160132415593 0.3175183307379484 C91.50761918625236 8.945107452571392, 91.08394692739844 16.230168421939016, 90.30355085618794 36.90337904803455 M91.92202254645527 34.95033994205296 C73.60665141483769 36.783593033500765, 55.96888152528554 35.06096371287927, 8.83432865254581 35.47838703878224 M8.357213251665234 35.040871132537724 C8.263240548431874 25.305611763149496, 7.091478308498859 16.708280784264204, 8.488252215459942 0.4226924668997526" stroke="#1d4ed8" stroke-width="1.25" fill="none" stroke-linecap="round" stroke-linejoin="round"></path></g><text x="49.5" y="18" text-anchor="middle" dominant-baseline="central" font-family="&quot;Courier New&quot;, ui-monospace, monospace" font-size="13" fill="#1d4ed8">User</text></g><g><g style="stroke-dasharray:6 4"><path d="M148.3595527821505 35.9644639875393 C148.8472896227101 85.76278398668396, 148.61077502963425 134.48600567415474, 148.7030948329523 283.40208176038755" stroke="#1d4ed8" stroke-width="1.25" fill="none" stroke-linecap="round" stroke-linejoin="round"></path></g><g><path d="M106.9177848998413 35.91778489984131 C106.9177848998413 35.91778489984131, 106.9177848998413 35.91778489984131, 106.9177848998413 35.91778489984131 M106.9177848998413 35.91778489984131 C106.9177848998413 35.91778489984131, 106.9177848998413 35.91778489984131, 106.9177848998413 35.91778489984131 M115.60423130780777 36.43512797854399 C112.41136505816384 32.3849059606917, 109.4337537779073 29.004678112823463, 106.62388114027236 27.284125373798524 M115.19999525256773 36.27650548681175 C112.42062132564628 33.02071796741579, 110.00577478912193 30.063995129125992, 106.87511810987745 27.783885181012664 M124.86158425905887 35.022221950809715 C118.87965414617986 31.757899378809956, 116.36533810642888 27.165046876275156, 106.0027255501554 20.117353462929803 M123.9582919156659 35.39751402884281 C119.23629097251269 31.851464393822827, 115.22142368030067 27.873613517206817, 107.05868779345906 18.87079997373648 M131.5041715176587 35.13456595353341 C125.91206533962944 29.84474755039843, 117.79124642630711 21.479436058569643, 105.95776321552253 10.855217025252813 M132.2347836671208 35.71363263874805 C124.82902266115381 29.10431004085851, 117.90370285327229 21.68888949159057, 107.27559893056309 10.903017748343581 M140.43424275453003 35.186025099079366 C133.25247301707842 27.53890338476514, 123.79565851055496 20.836630418387582, 106.99479169509864 1.5716732694605953 M141.3109965642056 35.369171948726525 C133.17330435474358 28.268032502974663, 126.29773015095914 22.30876090863388, 106.65376685782826 1.5617533909926777 M150.00978136811034 35.7932253640101 C137.43991772981343 23.904301830132237, 127.83311762576261 13.289505119254626, 113.14434916800016 -1.2237845472054345 M149.26516547020154 36.039217407997015 C140.4900157020942 27.63876301549947, 132.33236393615545 19.263118967646953, 113.48734059421473 0.11535025658143921 M157.35361450683712 36.145448974888076 C145.71134968819317 24.448289789722878, 133.65034507887606 11.078615660981313, 122.3702158455453 -0.43060863530205323 M157.24935337338982 36.15627634077823 C148.17287501158268 26.71291268197235, 140.27181683018728 18.16965033511828, 121.45019556588448 0.07047185720933838 M165.9284130691479 34.829634408275844 C156.48164535134194 25.548641949328164, 145.20083547637367 15.69379237671276, 130.07233603261196 0.3957253881735937 M166.3019513870518 35.89777794628894 C157.65706240150828 26.88916949347081, 148.39395482946438 17.44551013023582, 129.93635566755916 -0.7124760764645203 M173.91169170348013 35.455376390735864 C161.81953995033027 24.165304540436463, 151.8904422030955 12.755537151706946, 139.06181812763754 0.2687184997840063 M175.3601787494686 36.1735732987479 C162.4997204172464 23.04715519987777, 149.92765083126983 9.942831704790185, 138.47249326251986 0.16815440477861326 M184.1708088082714 35.47992589883065 C171.59813606162382 22.805271375796078, 156.9817243338972 10.033737797102038, 148.21461427905965 -0.5254720739083012 M182.87258282392156 36.41343534737384 C173.94030137367255 26.911853439564872, 164.27916896790683 17.979191764580712, 147.40910883904803 -0.6785668748424968 M191.22375296958603 35.21897659674961 C178.33827627064198 21.822740357513602, 166.8107341927298 10.92123945353634, 155.24652038531576 0.39696714365912833 M190.5973255363188 34.54034535401244 C182.1443406003417 26.10202232865333, 173.43175703647074 17.941842143268993, 155.93303101042483 -0.24864821610914306 M190.78571583636918 26.243237711562863 C183.23818537657417 19.229175286319894, 174.18114481036568 10.0083916533237, 164.28817609484332 -1.2574941209511479 M190.3862562504492 25.52956576839005 C183.7691697053207 19.947397231070422, 177.85503547957757 14.048588289331493, 163.6799165149315 0.24432395519748124 M189.9146548689238 16.373996781698366 C183.95586617648232 10.849094598496228, 178.14936081159271 6.0415521604712445, 171.86006480607986 -1.234729891176687 M189.9679745164595 17.366702976590894 C187.0022975406196 14.426522147354053, 182.77440513459786 9.716647438666612, 172.34675021584928 0.3566850882960694 M190.11648203064567 8.56763888458051 C186.9270200869109 5.637938022189195, 185.37335426238994 3.9462100233480486, 181.47828280740094 -0.25080399053111885 M190.09960590640895 9.04024585325532 C188.3124798024747 6.600545580101287, 186.54276792788937 4.821903920025912, 181.25522323949872 -0.43920619942188505 M190.30582776461608 0.5502819956975441 C190.17085610603542 0.32905009556776477, 189.99902527905545 0.17849904945251674, 189.6905990626055 -0.19006488325014903 M190.34651788997346 0.5433231208051007 C190.18703569829955 0.3881030970639355, 189.95791679129508 0.18252614243106235, 189.62730649798615 -0.12545162305176466 M190.07463914933368 35.92536085066634 C190.07463914933368 35.92536085066634, 190.07463914933368 35.92536085066634, 190.07463914933368 35.92536085066634 M190.07463914933368 35.92536085066634 C190.07463914933368 35.92536085066634, 190.07463914933368 35.92536085066634, 190.07463914933368 35.92536085066634 M190.0753062267856 27.960575159233546 C187.5534963515169 29.909128188301462, 185.95707266691093 32.66554813450411, 181.27994247892795 35.81959956688123 M189.790213445376 27.60692373540673 C187.8306527659578 29.746986954292094, 185.87652850202477 31.404587818872095, 181.33730232136247 36.23655372386115 M191.01244678306148 19.06708577628841 C184.94394159517438 24.07672824309738, 178.3502735234449 31.36516140576922, 172.02793881268337 35.28784214449363 M189.49321278403266 18.522718656991024 C186.49736789172871 23.132021801753247, 181.8233490589673 26.59781519353566, 173.14153461092246 35.67061894466417 M190.5491754274325 11.210196836170018 C183.99679085532946 18.00606928634895, 178.03230659565034 24.813084750251676, 165.0220641528842 35.7293548483892 M189.94919786522848 10.493291686725081 C184.14969805847733 16.824323002390685, 177.51958619066357 23.660900591334812, 164.6035518707362 35.72298328210848 M189.4767327766375 2.8457189373113807 C178.4528765956075 13.627369897149446, 165.91232508757403 24.157046847687816, 157.00543128385652 35.46134988260703 M190.41788016627297 2.171364029813617 C177.73390567503688 15.146018188703486, 164.11963530541036 27.80390637906974, 155.6315988699298 35.99689722587602 M183.8367974484351 -1.0309171630460412 C176.74758878032142 8.731588585954826, 168.76165974102435 15.264565431038049, 147.5172736040378 36.01920322370964 M183.23345539476838 0.24481029115434577 C169.7685146280721 13.31624236567675, 155.58963809024402 28.29209976135391, 148.06328547178452 35.75807122518557 M175.067493528382 0.11677382454091967 C166.6087261237088 6.929929295915935, 159.21273201716525 17.25472169652688, 139.06166826186558 35.710947098259496 M175.79804910111528 0.3648252328466839 C167.69999608735614 6.676999167541587, 160.74829669880873 14.389003388547486, 138.71004966458162 35.52963760425584 M167.25046850847542 -0.8807462169248396 C157.64988074190336 8.460372246456513, 148.33964618271992 16.117483712988587, 130.28253615577734 35.24226998281912 M166.26629461715459 0.06134583554977838 C155.61194057191298 11.349154706270964, 143.90449667354846 22.683938349203377, 130.56965756160236 36.07965056230561 M157.88589328715278 -1.274038810880819 C143.2129413420314 14.112090416662815, 131.43057337391156 27.90824203041254, 121.13864193421057 36.14151660395103 M158.3578330561675 0.13055129848237923 C150.7459125711928 7.019298269401152, 142.90549523909868 14.751551195672535, 122.43870340112797 36.20858617355364 M149.98878251285169 0.7089907692354387 C139.18223320642616 11.029336256503056, 128.45399738237725 20.49959058946308, 113.27859399560279 36.78468793821769 M149.49113365643532 0.3010426958631939 C142.16120492037984 7.022848257843808, 133.75713127119693 15.274464288313322, 114.12510954643972 35.33684238721864 M140.46399458400953 -0.5119065000135237 C129.03704221071774 13.676978674544822, 115.08150718408528 26.17659519836965, 107.03005805076461 34.206227649808504 M140.79599378123925 -0.578657023088985 C130.05933073014108 11.467514064344723, 117.37054915409202 23.744505746289786, 107.07484004819196 34.678025465146284 M132.48123164906383 -0.24432339206522044 C126.15903103910851 6.810778321757349, 118.59440083196574 12.607881139373745, 107.00318424762587 26.89559496579364 M132.72603891886058 0.4473969658445781 C126.3457177339342 6.013563444070498, 119.17569144529594 12.99117850071413, 106.41282776915828 26.198022857062966 M123.85003960645217 0.5018035696428483 C118.26786989280122 6.554732677355834, 112.48317534483326 10.559119074078668, 105.49504442275862 18.192827424601024 M124.27122268258053 -0.16992863811736642 C120.57273984872471 3.3787719091351507, 117.18186313133344 7.3690769941411505, 106.78491163575451 16.973065949052877 M116.58657476165895 0.36749642614091105 C113.274915721049 3.402371807189968, 109.58551114558854 5.608631870473909, 107.17396792275261 9.2238142597677 M115.79066192060341 -0.2412541659381026 C112.9738085255754 3.157466778187925, 109.5817543285313 5.9368822633027, 106.59267587158259 9.395212231669744 M107.34247699008128 -0.13881952982580004 C107.22417024533758 -0.03220690180365874, 107.02886701236957 0.14012706618019485, 106.65582422343444 0.5440230981186348 M107.32216152130431 -0.14681286299785315 C107.14407414488825 0.05762896160944831, 106.9925736734421 0.2129039520222672, 106.6651437900531 0.5888233470283766" stroke="#ffffff" stroke-width="0.5" fill="none" stroke-linecap="round" stroke-linejoin="round"></path><path d="M106.8287161372602 -0.04333831295371055 C124.41704167891294 0.3142671890929341, 140.72934411875903 -0.7577362946793437, 190.24768641218543 -0.729197397083044 M189.64320264831184 -0.5649633385241032 C189.90163837250472 9.490214905142784, 189.0542938547969 16.86033684387803, 189.80710171237587 36.6067580960691 M190.64404509291052 35.10067988410592 C170.61330282967538 36.16798606700152, 151.93776305057108 35.12272742575854, 107.46865730509163 36.15677407756448 M106.51442650333047 35.281742265075444 C106.41288109686374 23.011223526299, 106.46935661699771 10.616561568528411, 106.77650443091989 -0.35461506620049477" stroke="#1d4ed8" stroke-width="1.25" fill="none" stroke-linecap="round" stroke-linejoin="round"></path></g><text x="148.5" y="18" text-anchor="middle" dominant-baseline="central" font-family="&quot;Courier New&quot;, ui-monospace, monospace" font-size="13" fill="#1d4ed8">Web App</text></g><g><g style="stroke-dasharray:6 4"><path d="M246.79734861322578 35.45471542130895 C246.7890151118251 85.35219542002594, 246.43424322221136 134.6209890712321, 248.29662280942844 284.5790643205814" stroke="#1d4ed8" stroke-width="1.25" fill="none" stroke-linecap="round" stroke-linejoin="round"></path></g><g><path d="M205.91525958289964 35.91525958289964 C205.91525958289964 35.91525958289964, 205.91525958289964 35.91525958289964, 205.91525958289964 35.91525958289964 M205.91525958289964 35.91525958289964 C205.91525958289964 35.91525958289964, 205.91525958289964 35.91525958289964, 205.91525958289964 35.91525958289964 M215.06228850773002 35.611274200953666 C212.1087558831848 33.49097857349953, 209.46792337507156 31.68622121396876, 206.55440394354625 27.567410980954755 M214.63593442486996 36.27334046335531 C211.8141121469846 33.45689779675817, 209.16889861704578 30.71886981417119, 205.67125939795386 27.777050691775965 M223.7456772474874 36.37191515935226 C217.73093237891112 30.752122900902165, 214.45651459413233 26.759900421947677, 206.34267055837077 20.099893801770957 M223.29073873239795 36.0348532764019 C216.18737264236998 29.5361434991701, 210.16507170405197 23.569367184246083, 205.82661392332625 19.130063567980976 M231.86691744826786 36.54043116343779 C226.20047401871435 30.12741939622573, 220.31041447327402 25.07062098302569, 206.27522705642147 10.449329832374767 M231.462835672461 35.90903119125975 C223.46923156283484 27.97117871964428, 214.42683626328412 18.793632308013944, 205.5519806289823 10.221030917010918 M239.81938361645558 35.41761988175673 C231.2001122093772 26.181779210577155, 222.8090029992875 19.522482310706245, 205.43076977578562 3.16665488580571 M240.23451433096892 35.392340156227476 C229.35016406856496 24.61844293581064, 219.03680276288827 14.479535544299463, 206.41923251988007 1.6517750681038337 M248.74005084970676 35.12842027915282 C239.62756936539003 25.57769934141297, 230.0298583774166 15.667993443199347, 212.67312546979844 -1.1658716674135121 M248.52312700284355 36.397408345133194 C235.49022715570845 22.72655156141273, 222.65374950680032 10.163085489633957, 212.28761260912032 -0.6571694617332013 M257.91315987067765 35.65675569546982 C248.99832119989176 27.773025604884808, 241.72554803807026 22.13724816392664, 221.0692847989969 0.023892200441574113 M256.25676817050675 35.972996744305036 C246.2050202768388 26.057470775156233, 237.3596775887971 16.248821838926517, 220.58925437950566 -0.7244870607913384 M265.3327170270245 36.083033845551455 C258.41832955342704 28.303859130258566, 248.70960390907734 20.734073939438243, 229.57982439247755 0.06339323565503036 M265.5930245038803 36.1852491525711 C251.29586622053927 22.629061538335282, 238.00120486247343 9.063572493482795, 229.6758538448983 -0.09890896130214061 M274.2649942914037 37.02164681924147 C262.1825307647903 26.228853016921004, 252.1013733120409 13.926691101929519, 238.8214068478967 -1.3271170969293364 M274.33772486038634 35.39894218125952 C261.6162515951472 23.39197939603127, 250.57063638428517 11.547983321502684, 237.6374195502202 0.02203676056257392 M281.8110292614712 37.05847108138365 C271.321234374594 24.01570352992595, 257.8091059511068 12.070892329987677, 245.90796038791055 -0.11840295746781919 M281.96369028494644 35.75873525419844 C271.70133749865016 25.669332041527753, 261.415883474053 15.276584113102903, 246.79970222789314 -0.04804515886911247 M288.8549115975104 33.77415390944864 C278.89792088345627 23.134179642424105, 267.33625422221616 13.711574742086379, 254.61317886017542 -1.1347441311166535 M288.8152704476096 34.256207045342876 C276.7773709223777 22.240300386037987, 263.7084955765713 9.400030107961486, 254.14294479783902 -0.6031671707690606 M288.19785589768514 26.953186268787828 C283.2777548476884 20.37049618844977, 274.92478417915606 11.771910919735927, 262.7330217373474 -1.216436028032075 M289.69866651880517 26.18267835402861 C280.34164116002773 17.11523892479511, 270.8704398214131 7.067025512186712, 262.7206323674797 -0.4637089138091312 M290.49126444651705 16.391965561110375 C285.5927426564472 14.544273534899485, 280.9862854680119 9.036260736761117, 272.2482141170831 0.01771031662963765 M289.0712439178206 16.981024853449163 C285.12685579672035 14.402160172867061, 282.35278414065414 10.305115062802269, 272.0782422317372 -0.29516721416122776 M288.6040051890999 9.495069402552838 C286.3321436863997 5.250787790294892, 282.5808837651609 2.852434607575688, 279.4629004319454 0.08359916759796876 M289.5536910027448 8.83897985556505 C286.08197098105694 5.60252204319354, 283.03740316917896 2.5445595530804805, 280.103311080092 -0.39400414573818016 M289.30802379005553 0.5716747563476788 C289.1047177740471 0.2406754342904299, 288.7869715335772 -0.04515113488244728, 288.61873412763293 -0.12529217148060595 M289.35405897809153 0.5762364440090136 C289.1563948968368 0.3266626709281877, 288.9134272144488 0.08900791709752791, 288.65879528070394 -0.1333722811830289 M289.072113832392 35.92788616760804 C289.072113832392 35.92788616760804, 289.072113832392 35.92788616760804, 289.072113832392 35.92788616760804 M289.072113832392 35.92788616760804 C289.072113832392 35.92788616760804, 289.072113832392 35.92788616760804, 289.072113832392 35.92788616760804 M289.43311444856994 27.863348317578133 C287.3372735728655 29.058574573385034, 285.19969432080427 30.776148217841293, 281.20270951390273 36.129244241930365 M288.8254752764555 27.152871181837913 C287.0641153818048 29.48389085979484, 284.62145712332915 32.201764019240976, 280.3887492775545 35.85467547740024 M288.67882528298367 18.525754930279696 C284.6876010009944 23.410143831844543, 279.8882677179434 28.051624751309156, 271.0873447016551 36.771608108348964 M288.4999742844405 19.20920425133362 C285.1236278961304 22.565008667734727, 280.409655921836 26.66664248056063, 271.8577383990138 36.44577330860478 M287.98391824954024 10.983062207221383 C279.4469824302275 19.885229843648002, 270.5002560407088 30.09575303950209, 263.6211733990757 35.033877164192305 M289.18395190623426 10.207704483053977 C281.8608336213263 17.789214057228072, 275.06125023187735 24.89849602837269, 263.29340497585366 36.52431981477122 M289.9752542733478 1.4789860460527167 C279.06842445178995 13.303966737015307, 267.0458222891305 22.31025706343201, 255.83886478265342 37.03186971551906 M288.6869753578009 2.567453684806071 C276.48996807093397 13.91902177196099, 264.0567876158851 27.317628958119517, 255.27811616176334 36.33519073042254 M283.4973317963836 -0.8753079327035721 C271.6202438592045 12.43862588577188, 258.4413503002588 23.438091153396716, 245.84926895004463 36.66864972717298 M282.8923187158835 0.1382832485970084 C272.8703663829846 10.169972543235058, 262.4207853283968 20.615024884596618, 246.3682867516647 35.37695172938688 M273.38601660342323 0.8462285486768621 C260.8276903014393 11.109236690748006, 249.73369914162396 25.39642529166442, 237.40850162390555 35.006265538997766 M274.1818499625232 -0.2816943388644916 C267.31119022090996 7.337047044117857, 259.28988572214024 14.698808791575313, 238.3810737279796 35.63430129799229 M264.7031197606827 -0.6500515135217767 C252.57241330579876 13.404901116558875, 239.80706146702357 24.89056831635699, 228.4824441518925 36.703249865837215 M265.3268589237014 -0.13691343480984983 C256.60109195895046 8.939035768160528, 246.2524152795064 18.728722064456367, 229.21312626063002 35.85932073506695 M256.098897615818 -1.2399904044557672 C246.06492851528142 9.777194749696893, 238.01011031525587 19.6526884181673, 220.20924350666166 35.65211979753505 M257.10680726934004 -0.033105240410969836 C249.85189619092077 6.8235954369416465, 242.29751477683095 14.815730242297331, 220.65933570703777 36.05272415193896 M248.4958721414856 0.5345539657186549 C239.54181228495872 8.759308093508677, 231.86194771698817 18.15220042484593, 212.66181228586927 35.41687679893506 M248.64939885686107 0.22263185566028765 C237.6112308177692 11.035165003657056, 225.00512034399486 23.412589049361323, 212.43158561212465 35.345108472436486 M240.85133093534165 -0.09679193815480289 C227.08212670976593 12.932155731853248, 215.47847062544542 24.75193406196233, 205.62454227454472 33.45629314750784 M239.84932973118626 -0.49691772276799495 C229.59871524636847 10.517958816553097, 219.29518933792306 21.403799883842527, 205.39171527068575 35.063989870514504 M231.91982722004244 0.30458272376765194 C225.08421693658434 8.302335745195963, 215.15356671626043 15.581694881230334, 206.78423156983663 26.732984808604815 M231.98703812473752 -0.15783673936765014 C221.24795188843265 10.022808519055912, 211.6929124554753 20.48923110402136, 205.59869685213525 26.586626645508805 M223.21567984324417 0.2237731663297552 C216.58897902229856 6.3141866714972705, 209.679704153313 14.152999313615155, 204.52202183253576 16.721474183935186 M222.94745445743672 -0.483825145310567 C219.14628395618377 3.6502455191662455, 216.42773583306328 7.267936193708879, 205.55682265202958 17.591831970612965 M215.5731232631737 0.23231245107684922 C212.43308146755726 2.133055294205879, 209.51745223545163 5.163967758046766, 205.27040708252673 9.700595123804469 M214.96425400159038 -0.09581343704167122 C211.78642067434686 2.762759482275835, 208.92681700986574 5.873405078862972, 205.37346900577168 8.982692081657532 M206.36961729292645 -0.10716148287323143 C206.1296115913986 0.11190893102255903, 205.83665674194665 0.3704098829983419, 205.63319153354948 0.6235490684501552 M206.35414408976098 -0.1341514826313113 C206.1568751751181 0.10095204802356467, 205.94033514606755 0.2631538555241403, 205.63217088347744 0.5557494418147672" stroke="#ffffff" stroke-width="0.5" fill="none" stroke-linecap="round" stroke-linejoin="round"></path><path d="M205.1430742058903 -0.6650074694305658 C222.02556251836938 -0.4273992163605988, 238.19401617813855 -0.8354044420190155, 289.97152961827817 0.7062039043754339 M289.06480397246776 0.9525549922138452 C288.12285755875706 10.035322357714177, 289.2518407821953 19.890505265817048, 289.3106525685638 36.31013714410365 M289.3660676393658 35.25101982615888 C267.6199542445131 35.95077910050228, 247.9066445758566 35.58289113863781, 206.10298595763743 36.83516111634672 M207.07163975499572 35.52261339761317 C206.78972164529563 27.9168352894485, 205.6744349254966 21.324842352792622, 205.06475664637983 -1.131922599300742" stroke="#1d4ed8" stroke-width="1.25" fill="none" stroke-linecap="round" stroke-linejoin="round"></path></g><text x="247.5" y="18" text-anchor="middle" dominant-baseline="central" font-family="&quot;Courier New&quot;, ui-monospace, monospace" font-size="13" fill="#1d4ed8">API</text></g><g><g style="stroke-dasharray:6 4"><path d="M347.203066684301 36.9128890950786 C346.6986628409402 84.94160685336792, 346.2256336547885 134.75597246830947, 345.9222285459046 283.78812464077515" stroke="#1d4ed8" stroke-width="1.25" fill="none" stroke-linecap="round" stroke-linejoin="round"></path></g><g><path d="M304.91273426595797 35.912734265957965 C304.91273426595797 35.912734265957965, 304.91273426595797 35.912734265957965, 304.91273426595797 35.912734265957965 M304.91273426595797 35.912734265957965 C304.91273426595797 35.912734265957965, 304.91273426595797 35.912734265957965, 304.91273426595797 35.912734265957965 M313.08034570765227 36.22742042336337 C310.10909043335806 32.940724262056015, 307.54798042254043 29.574381116014987, 305.0449267468201 27.850696588110992 M313.3518735971722 36.27017543989889 C311.20760296832293 33.89307762610056, 309.0520224449697 31.373744499216397, 305.1874006860303 27.770216202539274 M322.629770235916 35.32160836789481 C316.5007519104497 32.14634642299437, 312.4662323806432 26.35475396762019, 304.2826155665862 20.082434140612104 M321.42318554913004 35.47219252396099 C316.61402556311543 30.6149351542128, 311.97840352838676 26.053345950676203, 304.59454005319344 19.389327162225463 M329.82966337887706 35.54629637334217 C321.3977138732561 27.59673436572084, 312.64724487115467 18.357280206606415, 304.1926908973204 10.043442639496721 M330.69088767780124 36.10442974377145 C321.0316285163049 26.715859346641007, 311.07215772508505 16.97618707264828, 305.0283623274015 10.739044085678255 M339.20452447838113 35.64921466443409 C329.1477514016761 27.224655036389183, 319.4223474880201 18.208334203024926, 303.8667478564726 2.3616365021508385 M339.15803209773225 35.41550836372842 C330.9523314793917 27.919995870422856, 323.9894081712137 21.589677781132146, 304.9846981819319 1.7417967452150038 M347.4703203313032 36.86361519429554 C339.2421212609322 27.42419659272816, 332.0534993890361 20.619581507178516, 312.2019017715967 -1.1079587876215897 M347.78108853548554 35.55559928226937 C337.5298280373909 26.053729535394314, 328.4270136736162 16.514930607792067, 311.08788462402583 -0.229689180047842 M356.07270523451814 35.16806241605155 C347.2997038034531 26.285272251943955, 337.6026729210244 16.370902330666397, 319.7683537524485 0.47839303618520146 M355.2641829676236 35.78971714783184 C344.4102652821293 25.40202886834011, 334.6206380874413 14.327993342734759, 319.72831319312684 -0.3194459787920152 M364.73702098490116 34.93643328282706 C350.74252458740926 23.67348740305172, 337.7933940055754 11.1762774259237, 329.0873127523431 -0.2689389168635046 M364.8840976207089 36.472720358853266 C353.5202589477075 25.75454249133702, 343.4065329717224 14.07971293296983, 328.2153520222375 -0.6853418461397325 M372.2182968793271 36.18791724774708 C362.54552157925013 25.719301753371074, 354.7123044209862 17.32474531211762, 336.1809955681559 -0.5229526936426794 M373.31527097130396 35.82431106377114 C361.932782773048 25.10990333221924, 351.21362193730045 13.326234678249651, 336.80234583792054 -0.12408088365346544 M381.85124971467104 36.23701626393665 C371.0443326875642 25.226135684055826, 358.6364875683165 14.108046862873312, 346.00130649676146 0.28866615897264863 M381.0547977459713 36.30403516102304 C370.4892738835933 24.5999103835251, 358.37949824016465 13.947076201659556, 344.9902956167382 -0.6175234428957423 M388.8860702254348 34.72933122214768 C379.45756549627055 24.279307412399543, 370.2617742517025 16.335598515701353, 353.97983733503503 -0.2664554058924352 M388.23321535890034 33.972068736673336 C378.34004770004185 23.941913384115743, 367.84452702792805 14.551199468975236, 353.55285858525315 0.24231387457102188 M388.0099959590011 25.263134826012767 C383.3173243188026 21.637399254918357, 378.06842354794657 16.061012350486866, 361.17786737985165 -1.1753779351130162 M387.81107678716114 25.63579093966714 C381.072284959854 18.441252963638963, 374.4766066891482 11.876225260941554, 361.761348220028 0.028258217184242068 M388.66787402411035 16.40993434052235 C383.77893804422166 12.388771379112365, 376.83699512630795 7.444754314927874, 370.2363634280862 -1.129849475564066 M388.1745133191817 17.795346730307404 C384.5362668665635 14.292945384637656, 380.8160159604527 9.608729873195513, 370.609734247625 0.2529804833814467 M388.6515283475541 8.862499920525165 C385.9716214538276 6.702115189485608, 384.9812450669558 5.435614453973363, 379.00751805648986 0.41800232572704055 M388.22777609908064 9.417713857874782 C385.6899397907242 6.39885267422477, 383.98899367263857 4.680046985159044, 378.9513989206854 -0.3488020920544892 M388.3102198154949 0.5930675169978147 C388.1833949108458 0.2937221292504064, 387.8611546131231 0.13404139325721426, 387.6668691926603 -0.18051945971104738 M388.36160006620963 0.5491497672129275 C388.12575409537396 0.321828132242748, 387.8689376376024 0.05209557921430437, 387.6302840634216 -0.14129293931427803 M388.0695885154504 35.93041148454978 C388.0695885154504 35.93041148454978, 388.0695885154504 35.93041148454978, 388.0695885154504 35.93041148454978 M388.0695885154504 35.93041148454978 C388.0695885154504 35.93041148454978, 388.0695885154504 35.93041148454978, 388.0695885154504 35.93041148454978 M387.3509226703543 27.766121475922752 C385.4239945193664 29.94580658391269, 382.4882034250022 33.76159020147028, 379.68547654887755 36.43888891697954 M387.86073710753504 27.418818628269122 C385.6183073482482 29.981524115893965, 383.40711509522987 32.319669570206244, 379.4401962337466 36.19279723093938 M388.74520378290595 17.98442408427103 C383.3556891559263 23.656213269094472, 376.9565781118583 29.044854495047296, 370.14675059062694 35.85537407220434 M387.5067357848484 18.69568984567626 C383.7498879005322 23.279454234908933, 378.9959627847048 28.016928468778328, 370.57394218710516 36.020927672545426 M387.818661071648 10.755927578272804 C379.86615477787956 19.19540962819301, 373.0283550830646 27.718271731455328, 362.22028264526716 36.73839947999548 M388.41870594724 9.922117279382928 C380.7719691841754 17.431917060276483, 372.6029142730911 26.0139034136216, 363.1832580809712 36.12565634743403 M388.0737757700581 2.5122531547941094 C379.52105490558705 10.417646174495847, 368.0164020883018 20.300549876790882, 354.6722982814503 36.20238954843115 M388.15607054932894 1.763543339798582 C376.44603046683125 14.054942757603932, 363.9939399263599 25.794268939554733, 353.7246334535969 35.47348423496913 M380.75786614433207 -0.7196987023611029 C373.7053881061903 9.10627375752061, 364.94601919569897 17.359738279584263, 346.5812642960515 34.91809623063632 M381.3511820369987 0.031756206039671026 C367.55972896979443 12.863092148861677, 354.826954230344 27.189828604010422, 345.8732880315449 36.19583223358818 M374.10453967846456 -0.8243167271871243 C364.4860439072382 8.07605491747735, 354.5065448622538 19.113150550596444, 338.15533498594556 36.70158397973608 M373.7656508239311 0.271786089424404 C365.8954840944984 6.79709492069419, 358.00457448550634 15.008614194603195, 336.8520977913776 35.73896499172877 M364.55577101289 -0.4193568101186713 C354.88053477783143 10.963841078524021, 343.47255482756725 19.06557484348539, 329.08235214800766 35.76422974885534 M364.3874232302483 -0.3351727051694354 C356.39024334598787 7.7289168300501325, 348.60033388546435 15.973505779709393, 329.05659495965773 35.63899090782832 M356.7119019444832 -1.2059419980306585 C341.87752626046324 12.654788250833814, 330.3377686604291 25.8221131421277, 319.27984507911276 35.16272299111914 M355.85578148251267 -0.19676177930426206 C349.1309795506833 7.654792864447735, 340.66263405459785 14.70680954888772, 320.0799680129476 35.89686213032435 M347.00296177011955 0.3601171622018853 C332.68890219538855 13.701769098617103, 318.44491971539355 27.829788596434373, 312.04503057613573 36.44906565965246 M347.8076640572869 0.14422101545739563 C339.07374588326144 7.661892841333075, 330.6780877529984 16.95263573416932, 311.93806167780957 35.35337455765437 M338.8386672866738 0.31832262370396047 C327.3608996938791 12.35364430409679, 315.7091225518705 23.493584440490118, 304.21902649832487 35.10635864520721 M338.90266568113327 -0.41517842244696224 C330.1717882476608 9.734715083696589, 319.85351800681906 19.229405536330386, 304.9085904931796 34.249954275882764 M331.3584227910211 0.8534888396005669 C321.6094028340603 7.393893168634614, 314.1127326005552 16.155508623086956, 304.1652788920474 26.570374651416017 M331.2480373306145 0.4369295554201642 C322.5827762237117 7.599463413260916, 314.6753138272156 16.322103345767726, 304.78456593511225 25.77523043395467 M322.5813200800363 -0.05425723698329535 C318.44562205772866 5.022959573448396, 313.94730077365824 8.360664555028592, 303.5489992423129 17.650120943269382 M322.823686232293 0.402278347496275 C318.9198280636429 4.006571942939766, 315.6736085347932 7.251648207019032, 304.3287336683047 17.010597992173086 M314.5596717646884 0.0971284760128292 C311.5912472140655 2.4678622443678746, 309.4493933253147 4.763427108765711, 304.9268462423009 8.617375987841289 M314.1378460825773 0.04962729185480222 C311.37903282311834 2.36805218636379, 308.2718796912002 5.029927894423292, 304.9342621399608 9.350171931645372 M305.39675759577165 -0.07550343592059175 C305.1798684062467 -0.005396592388464974, 305.05068329654813 0.19784998734193482, 304.61055884366453 0.5830750387817387 M305.32612665821773 -0.12149010226469832 C305.1096762053481 0.08427513443774967, 304.88809661869306 0.3134037590260807, 304.65919797690185 0.582675536601222" stroke="#ffffff" stroke-width="0.5" fill="none" stroke-linecap="round" stroke-linejoin="round"></path><path d="M305.8574322745204 1.1133233740925788 C322.03408335782586 -0.7706656218141317, 338.0586882375181 -0.5146725893586873, 387.2953728243709 -0.25839479416608807 M388.48640529662373 0.07007332295179367 C388.91687674500946 10.580429810285569, 387.2221877095938 20.520673687756062, 388.8142034247518 36.0135161921382 M388.08809018582104 35.40135976821184 C364.62660565935073 35.33517213400304, 343.87552610114216 35.64465485151708, 304.73731461018326 35.11354815512895 M305.2288530066609 35.76348453015089 C304.9393621937275 25.622447052597998, 305.05231323399545 15.233123137056827, 305.75300886183976 0.4907698675990104" stroke="#1d4ed8" stroke-width="1.25" fill="none" stroke-linecap="round" stroke-linejoin="round"></path></g><text x="346.5" y="18" text-anchor="middle" dominant-baseline="central" font-family="&quot;Courier New&quot;, ui-monospace, monospace" font-size="13" fill="#1d4ed8">Database</text></g><g><g><path d="M50.0143580686301 82.24499751018982 C69.10859276885168 82.31641825422223, 88.76481591816993 80.58041651233609, 148.02384320609272 81.90206796812515" stroke="#1d4ed8" stroke-width="1.25" fill="none" stroke-linecap="round" stroke-linejoin="round"></path></g><g><path d="M139.85150810506303 85.2333624758226 C142.48715968198022 84.84021506380846, 143.6548597898877 83.99069596103793, 148.08010609919205 81.32818076626087 M148.20804417109116 81.5868494084912 C145.16366357611122 80.11878025314019, 143.15539643939985 78.76078000415454, 140.35746538587023 77.36735701591748" stroke="#1d4ed8" stroke-width="1.25" fill="none" stroke-linecap="round" stroke-linejoin="round"></path></g><text x="99" y="74.66666666666667" text-anchor="middle" dominant-baseline="auto" font-family="&quot;Courier New&quot;, ui-monospace, monospace" font-size="13" fill="#1d4ed8">submit form</text></g><g><g><path d="M148.3287161372602 116.95666168704629 C169.11718553770334 117.33710317511111, 188.62963183633983 116.26509969133883, 247.74768641218543 116.27080260291696" stroke="#1d4ed8" stroke-width="1.25" fill="none" stroke-linecap="round" stroke-linejoin="round"></path></g><g><path d="M238.85150810506303 120.56669580915593 C241.48715968198022 120.17354839714179, 242.6548597898877 119.32402929437126, 247.08010609919205 116.6615140995942 M247.20804417109116 116.92018274182453 C244.16366357611122 115.45211358647352, 242.15539643939985 114.09411333748787, 239.35746538587023 112.7006903492508" stroke="#1d4ed8" stroke-width="1.25" fill="none" stroke-linecap="round" stroke-linejoin="round"></path></g><text x="198" y="110" text-anchor="middle" dominant-baseline="auto" font-family="&quot;Courier New&quot;, ui-monospace, monospace" font-size="13" fill="#1d4ed8">POST /order</text></g><g><g><path d="M246.6430742058903 151.66832586390277 C255.72503653466703 151.96284004309376, 264.0929642107338 151.55483481743536, 292.47152961827817 153.03953723770877 M291.558323575221 153.1906328263258 C290.7342404411882 157.5627217273911, 291.7503253422827 162.62998461679868, 291.7795873117074 170.61245676302661 M291.8660676393658 169.58435315949222 C279.967724082619 170.22006106234394, 270.1021842520684 169.85217310047946, 247.60298595763743 171.16849444968005" stroke="#1d4ed8" stroke-width="1.25" fill="none" stroke-linecap="round" stroke-linejoin="round"></path></g><g><path d="M255.06894772730658 166.09012183837322 C254.46417086404867 167.23657229780596, 252.38787269910958 167.94928042669383, 247.08010609919205 169.99484743292754 M247.20804417109116 170.25351607515788 C249.83859764838962 171.55278762666333, 253.49772955432132 172.92406291126866, 255.57490500811377 173.8439309867002" stroke="#1d4ed8" stroke-width="1.25" fill="none" stroke-linecap="round" stroke-linejoin="round"></path></g><text x="297.5" y="161.33333333333334" text-anchor="start" dominant-baseline="central" font-family="&quot;Courier New&quot;, ui-monospace, monospace" font-size="13" fill="#1d4ed8">validate</text></g><g><g><path d="M248.3574322745204 188.77999004075926 C267.73437107540667 186.90327301688893, 286.95926367267964 187.15926604934438, 345.7953728243709 187.4082718725006" stroke="#1d4ed8" stroke-width="1.25" fill="none" stroke-linecap="round" stroke-linejoin="round"></path></g><g><path d="M337.85150810506303 191.23336247582262 C340.48715968198024 190.84021506380844, 341.6548597898877 189.99069596103794, 346.08010609919205 187.32818076626089 M346.20804417109116 187.58684940849122 C343.1636635761112 186.1187802531402, 341.15539643939985 184.76078000415455, 338.3574653858702 183.3673570159175" stroke="#1d4ed8" stroke-width="1.25" fill="none" stroke-linecap="round" stroke-linejoin="round"></path></g><text x="297" y="180.66666666666669" text-anchor="middle" dominant-baseline="auto" font-family="&quot;Courier New&quot;, ui-monospace, monospace" font-size="13" fill="#1d4ed8">INSERT</text></g><g><g style="stroke-dasharray:6 4"><path d="M346.6717903431505 223.49165421761572 C325.7385132129304 223.85506962034032, 307.6151783281937 222.37506091090964, 247.51921603046358 224.1770065072924" stroke="#1d4ed8" stroke-width="1.25" fill="none" stroke-linecap="round" stroke-linejoin="round"></path></g><g><path d="M255.06894772730658 218.75678850503988 C254.46417086404867 219.90323896447262, 252.38787269910958 220.6159470933605, 247.08010609919205 222.6615140995942 M247.20804417109116 222.92018274182453 C249.83859764838962 224.21945429333, 253.49772955432132 225.59072957793532, 255.57490500811377 226.51059765336686" stroke="#1d4ed8" stroke-width="1.25" fill="none" stroke-linecap="round" stroke-linejoin="round"></path></g><text x="297" y="216" text-anchor="middle" dominant-baseline="auto" font-family="&quot;Courier New&quot;, ui-monospace, monospace" font-size="13" fill="#1d4ed8">ok</text></g><g><g style="stroke-dasharray:6 4"><path d="M246.9861484117806 258.20331839447226 C207.94354547671972 259.02336388727923, 167.47287323623894 258.20735343596243, 50.24305923655629 258.54574114208424" stroke="#1d4ed8" stroke-width="1.25" fill="none" stroke-linecap="round" stroke-linejoin="round"></path></g><g><path d="M57.068947727306586 254.09012183837325 C56.46417086404867 255.236572297806, 54.387872699109565 255.94928042669386, 49.08010609919205 257.9948474329276 M49.20804417109117 258.2535160751579 C51.8385976483896 259.55278762666336, 55.497729554321324 260.9240629112687, 57.57490500811378 261.8439309867002" stroke="#1d4ed8" stroke-width="1.25" fill="none" stroke-linecap="round" stroke-linejoin="round"></path></g><text x="148.5" y="251.33333333333337" text-anchor="middle" dominant-baseline="auto" font-family="&quot;Courier New&quot;, ui-monospace, monospace" font-size="13" fill="#1d4ed8">201</text></g></g></svg>