<svg xmlns="http://www.w3.org/2000/svg" viewBox="0 0 560 240" width="560" height="240" role="img"><g transform="translate(56, 24)"><g><path d="M-0.5836826627829045 95.6342248064094 C90.12845891013654 96.34570838428698, 179.2513007161546 96.27173809578174, 447.5459476370516 95.6339781963771" stroke="#1d4ed8" stroke-width="1.25" fill="none" stroke-linecap="round" stroke-linejoin="round"></path></g><g><g><path d="M45.3143580686301 96.57833084352315 C44.67587041010111 89.89774990584701, 44.53164849628657 81.36159531399608, 44.32384320609271 62.23540130145848" stroke="#1d4ed8" stroke-width="1.25" fill="none" stroke-linecap="round" stroke-linejoin="round"></path></g><g><path d="M41.18901363684762 100.23234260046186 C41.18901363684762 100.23234260046186, 41.18901363684762 100.23234260046186, 41.18901363684762 100.23234260046186 M41.18901363684762 100.23234260046186 C41.18901363684762 100.23234260046186, 41.18901363684762 100.23234260046186, 41.18901363684762 100.23234260046186 M48.88804413594657 99.96067661048734 C46.797772236652946 97.19385062164514, 44.634985173584404 95.67234779786875, 41.43760616517035 92.3126680177438 M49.15848703386614 99.70980208583066 C46.57546095489506 97.39543038355492, 44.89171639793174 94.91235708814061, 41.69993884086949 92.37325669115287 M48.9948597853228 99.90654803075427 C48.9948597853228 99.90654803075427, 48.9948597853228 99.90654803075427, 48.9948597853228 99.90654803075427 M48.9948597853228 99.90654803075427 C48.9948597853228 99.90654803075427, 48.9948597853228 99.90654803075427, 48.9948597853228 99.90654803075427 M48.5002848712008 92.45412850990104 C45.249824340142496 94.97293972917235, 42.85943277302562 98.07136152013567, 41.120890677890394 98.70243759350075 M48.11747467277828 92.02304045637283 C46.586006596133046 93.53002982217218, 44.93820872393562 95.38139391179209, 41.484265797103404 99.38281712494013" stroke="#ffffff" stroke-width="0.5" fill="none" stroke-linecap="round" stroke-linejoin="round"></path><path d="M45.400628135041764 90.1738473584572 C46.113841766492 90.16178059578942, 46.956036881924156 91.17403376045009, 47.54508594461468 91.67143099977089 C48.1341350073052 92.1688282390917, 48.46292817127468 92.57293714853587, 48.93492251118489 93.15823079438199 C49.40691685109509 93.74352444022811, 50.21042348909183 94.343240201088, 50.3770519840759 95.18319287484759 C50.543680479059965 96.02314554860719, 50.17478198545883 97.40099783971114, 49.93469348108929 98.19794683693961 C49.69460497671975 98.99489583416808, 49.50155428046523 99.53644879633555, 48.936520957858676 99.96488685821838 C48.37148763525212 100.39332492010121, 47.28674299093849 100.62737018688016, 46.54449354544999 100.76857520823663 C45.802244099961484 100.9097802295931, 45.31713944379585 100.84302426175414, 44.48302428492767 100.81211698635722 C43.64890912605949 100.78120971096031, 42.17793995420586 101.02182307189025, 41.539802592240896 100.58313155585513 C40.90166523027593 100.14444003982001, 40.942225730227804 98.81104227816101, 40.65420011313788 98.17996789014647 C40.36617449604796 97.54889350213193, 39.860482596801674 97.56443196461878, 39.81164888970137 96.7966852277679 C39.76281518260106 96.02893849091701, 40.06832884525051 94.40191133075254, 40.36119787053603 93.5734874690412 C40.65406689582155 92.74506360732985, 41.12701317189099 92.24304389072589, 41.568863041414495 91.82614205749982 C42.010712910938004 91.40924022427376, 42.36290281122931 91.22402787171744, 43.0122970876771 91.07207646968479 C43.661691364124884 90.92012506765214, 45.04000801365001 90.91975289848841, 45.46522870010121 90.91443364530389 C45.890449386552405 90.90911439211936, 45.60753841984568 91.05563613116813, 45.56362120638426 91.04016095057767" stroke="#1d4ed8" stroke-width="1.25" fill="none" stroke-linecap="round" stroke-linejoin="round"></path></g><text x="44.8" y="48" text-anchor="middle" dominant-baseline="central" font-family="&quot;Courier New&quot;, ui-monospace, monospace" font-size="13" fill="#1d4ed8">2021</text><text x="44.8" y="62" text-anchor="middle" dominant-baseline="central" font-family="&quot;Courier New&quot;, ui-monospace, monospace" font-size="13" fill="#1d4ed8">Founded</text></g><g><g><path d="M134.22871613726016 95.95666168704629 C135.16245000267324 102.99611121155321, 134.87400617504414 108.72441342771053, 134.6476864121854 129.27080260291694" stroke="#1d4ed8" stroke-width="1.25" fill="none" stroke-linecap="round" stroke-linejoin="round"></path></g><g><path d="M132.48629726489582 100.85894052666487 C132.48629726489582 100.85894052666487, 132.48629726489582 100.85894052666487, 132.48629726489582 100.85894052666487 M132.48629726489582 100.85894052666487 C132.48629726489582 100.85894052666487, 132.48629726489582 100.85894052666487, 132.48629726489582 100.85894052666487 M139.2919701076686 99.00850176552926 C136.54261043420294 96.07209278746947, 133.63124987043892 93.24330070228979, 131.46216197798162 91.98355239190765 M138.93285590350774 98.8067527162159 C137.21220143306024 97.0234069991591, 136.07313944387977 95.48568753307666, 131.68682732937992 91.80472973872581 M138.70020595883273 99.10222621238611 C138.70020595883273 99.10222621238611, 138.70020595883273 99.10222621238611, 138.70020595883273 99.10222621238611 M138.70020595883273 99.10222621238611 C138.70020595883273 99.10222621238611, 138.70020595883273 99.10222621238611, 138.70020595883273 99.10222621238611 M137.1110561305887 92.08266854491825 C134.62159163046982 94.30883442146317, 131.46923562098226 97.67725087864362, 130.6233355558334 98.7082189002522 M137.24543573374368 92.12049243786181 C135.57974258007783 93.70328704433894, 133.69836039805605 95.39180166120568, 130.45008579425942 99.168977963131" stroke="#ffffff" stroke-width="0.5" fill="none" stroke-linecap="round" stroke-linejoin="round"></path><path d="M134.6061242871501 90.1710960214402 C135.2908416834953 90.00503807525108, 136.18892325446689 90.2950804194241, 136.78640617259518 90.7531109483671 C137.38388909072347 91.2111414773101, 137.73773174809176 92.28394944921638, 138.19102179591985 92.91927919509816 C138.64431184374794 93.55460894097993, 139.31609509707664 93.87330844377102, 139.50614645956375 94.56508942365772 C139.69619782205086 95.25687040354443, 139.41846842456593 96.36096057269529, 139.33132997084243 97.06996507441833 C139.24419151711894 97.77896957614138, 139.4619457510461 98.2082513721622, 138.98331573722282 98.81911643399602 C138.50468572339955 99.42998149582984, 137.16323908530845 100.3715360730558, 136.45954988790277 100.73515544542123 C135.7558606904971 101.09877481778666, 135.47387705058657 101.03068954861135, 134.76118055278874 101.00083266818864 C134.04848405499092 100.97097578776592, 132.8790304177931 100.89663324525661, 132.18337090111592 100.55601416288496 C131.48771138443874 100.21539508051332, 131.07257605491318 99.4840094041774, 130.58722345272565 98.95711817395878 C130.10187085053812 98.43022694374015, 129.42571707471035 98.14203588764246, 129.27125528799075 97.39466678157322 C129.11679350127116 96.64729767550398, 129.46775323685273 95.24485776823208, 129.66045273240817 94.47290353754327 C129.85315222796362 93.70094930685447, 129.99518915366627 93.35073400196066, 130.42745226132348 92.76294139744039 C130.8597153689807 92.17514879292011, 131.5968563454087 91.3455228407544, 132.25403137835139 90.9461479104216 C132.91120641129407 90.5467729800888, 134.03726361424265 90.45579826231072, 134.3705024589796 90.36669181544357 C134.70374130371653 90.27758536857642, 134.3086329580088 90.32808999914688, 134.253464446773 90.41150922921871" stroke="#1d4ed8" stroke-width="1.25" fill="none" stroke-linecap="round" stroke-linejoin="round"></path></g><text x="134.39999999999998" y="116" text-anchor="middle" dominant-baseline="central" font-family="&quot;Courier New&quot;, ui-monospace, monospace" font-size="13" fill="#1d4ed8">2022</text><text x="134.39999999999998" y="130" text-anchor="middle" dominant-baseline="central" font-family="&quot;Courier New&quot;, ui-monospace, monospace" font-size="13" fill="#1d4ed8">Seed round</text></g><g><g><path d="M223.1430742058903 95.33499253056944 C223.46441123030334 88.89324971754104, 223.0317454888597 81.68478594198822, 224.97152961827814 62.706203904375435" stroke="#1d4ed8" stroke-width="1.25" fill="none" stroke-linecap="round" stroke-linejoin="round"></path></g><g><path d="M218.834478573336 97.94935939823725 C218.834478573336 97.94935939823725, 218.834478573336 97.94935939823725, 218.834478573336 97.94935939823725 M218.834478573336 97.94935939823725 C218.834478573336 97.94935939823725, 218.834478573336 97.94935939823725, 218.834478573336 97.94935939823725 M228.47279799990255 99.48052757161003 C226.27914072611145 97.65690656426199, 223.8088481738165 94.6628520016311, 220.76270188244504 91.11844840166037 M228.70525956303712 99.31264164024297 C226.16817825826377 97.03945501661093, 223.958725976116 94.17221789757487, 220.96839971225222 91.31839102391032 M227.68909418478984 100.4098735712113 C227.68909418478984 100.4098735712113, 227.68909418478984 100.4098735712113, 227.68909418478984 100.4098735712113 M227.68909418478984 100.4098735712113 C227.68909418478984 100.4098735712113, 227.68909418478984 100.4098735712113, 227.68909418478984 100.4098735712113 M227.12668978598342 91.70185741356916 C225.39822131680396 94.83537794738768, 222.68390086494568 97.27378907078526, 220.33064282978316 98.70464904063735 M227.77825919071586 92.2085932529845 C226.01228208552635 93.8671931001394, 223.89731559368025 95.99285824425297, 220.8207681874222 98.94578763495554" stroke="#ffffff" stroke-width="0.5" fill="none" stroke-linecap="round" stroke-linejoin="round"></path><path d="M222.61301150332378 90.29838929487042 C223.4515846229798 90.17929287399583, 225.18411060915804 90.93924410460208, 225.97318308491478 91.14879895739905 C226.76225556067152 91.35835381019602, 226.9246141042816 91.08571365988149, 227.34744635786416 91.55571841165224 C227.7702786114467 92.02572316342298, 228.10103715768687 93.24378895144771, 228.5101766064102 93.96882746802356 C228.91931605513352 94.69386598459941, 229.73252895705923 95.10299178097618, 229.8022830502041 95.90594951110734 C229.87203714334896 96.70890724123849, 229.30948895633634 98.00733019197193, 228.9287011652794 98.7865738488105 C228.54791337422245 99.56581750564908, 228.16601553864484 100.20258980367838, 227.51755630386236 100.58141145213877 C226.86909706907988 100.96023310059915, 225.81062471961963 100.88725753001613, 225.03794575658455 101.05950373957285 C224.26526679354947 101.23174994912956, 223.61781989923202 101.848326392419, 222.88148252565196 101.61488870947905 C222.1451451520719 101.3814510265391, 221.29084760022587 100.2662246202092, 220.61992151510415 99.65887764193317 C219.94899542998243 99.05153066365715, 219.1116810999937 98.67922754567256, 218.85592601492164 97.97080683982287 C218.60017092984958 97.26238613397318, 218.99680353506878 96.10573573041486, 219.08539100467186 95.40835340683506 C219.17397847427495 94.71097108325526, 219.1762134007323 94.33114786921234, 219.38745083254014 93.78651289834409 C219.59868826434797 93.24187792747583, 219.68938822536433 92.57610671014, 220.3528155955189 92.14054358162548 C221.01624296567348 91.70498045311096, 222.90666540605966 91.33575001330738, 223.3680150534677 91.17313412725696 C223.82936470087574 91.01051824120654, 223.18887060290422 91.18510436028342, 223.12091347996721 91.16484826532296" stroke="#1d4ed8" stroke-width="1.25" fill="none" stroke-linecap="round" stroke-linejoin="round"></path></g><text x="224" y="48" text-anchor="middle" dominant-baseline="central" font-family="&quot;Courier New&quot;, ui-monospace, monospace" font-size="13" fill="#1d4ed8">2023</text><text x="224" y="62" text-anchor="middle" dominant-baseline="central" font-family="&quot;Courier New&quot;, ui-monospace, monospace" font-size="13" fill="#1d4ed8">Public launch</text></g><g><g><path d="M314.4574322745204 97.11332337409257 C314.00650000534654 101.99222242310644, 313.42961235008835 109.04882685542107, 312.89537282437084 129.7416052058339" stroke="#1d4ed8" stroke-width="1.25" fill="none" stroke-linecap="round" stroke-linejoin="round"></path></g><g><path d="M309.8252268179386 100.29670627025901 C309.8252268179386 100.29670627025901, 309.8252268179386 100.29670627025901, 309.8252268179386 100.29670627025901 M309.8252268179386 100.29670627025901 C309.8252268179386 100.29670627025901, 309.8252268179386 100.29670627025901, 309.8252268179386 100.29670627025901 M317.9151673975971 99.52553897040535 C314.9965135722167 96.19537667491797, 311.70279016915674 93.08330392474345, 309.7877641053377 91.84882494148982 M317.45511614844315 99.41169106191595 C315.86664361304577 97.72263302202472, 314.2563421554591 95.89528511525373, 309.95202787841396 91.78541510448976 M318.29617131686956 99.09306914903986 C318.29617131686956 99.09306914903986, 318.29617131686956 99.09306914903986, 318.29617131686956 99.09306914903986 M318.29617131686956 99.09306914903986 C318.29617131686956 99.09306914903986, 318.29617131686956 99.09306914903986, 318.29617131686956 99.09306914903986 M317.15709796958043 91.47532365484915 C313.45287828751634 94.60028636505048, 310.9489649038645 97.57953273362666, 309.3422872981707 99.5933598435318 M317.1227330965213 91.88853621932498 C314.3725106960902 94.4563818159409, 312.4491048142527 96.61547905443732, 309.2911378227079 99.61702978186514" stroke="#ffffff" stroke-width="0.5" fill="none" stroke-linecap="round" stroke-linejoin="round"></path><path d="M314.99365692070035 90.48619426540033 C315.6257042164008 90.65901099969363, 316.2201514220301 91.22283998135073, 316.7940304797408 91.80124710250227 C317.3679095374515 92.37965422365382, 318.0087045709416 93.16737192352855, 318.43693126696456 93.95663699230961 C318.86515796298755 94.74590206109067, 319.38455174136925 95.68306439525895, 319.36339065587873 96.53683751518867 C319.3422295703882 97.39061063511838, 318.7289406639245 98.49490633514284, 318.3099647540215 99.07927571188785 C317.8909888441185 99.66364508863285, 317.48607623292105 99.59370151356231, 316.8495351964609 100.04305377565868 C316.2129941600008 100.49240603775505, 315.27548227480804 101.60628772809959, 314.4907185352608 101.77538928446603 C313.7059547957135 101.94449084083247, 312.9651519037739 101.35072747460138, 312.14095275917737 101.05766311385736 C311.3167536145808 100.76459875311333, 310.11575592248994 100.56058734801071, 309.54552366768144 100.01700312000186 C308.97529141287293 99.473418891993, 309.01191103506835 98.56854578325904, 308.71955923032647 97.79615774580427 C308.4272074255846 97.02376970834949, 307.6990726022047 96.14762426756806, 307.79141283923025 95.38267489527324 C307.8837530762558 94.61772552297842, 308.8435026589128 93.91673034671189, 309.27360065247973 93.20646151203536 C309.70369864604663 92.49619267735883, 309.82819357650374 91.5242692346834, 310.3720008006317 91.12106188721411 C310.9158080247597 90.71785453974482, 311.6510593429805 90.81539657699075, 312.5364439972475 90.78721742721963 C313.4218286515145 90.75903827744851, 315.2106283559323 90.91547786284443, 315.6843087262336 90.95198698858738 C316.15798909653495 90.98849611433033, 315.5145849716648 90.93307711082873, 315.37852621905535 91.00627218167737" stroke="#1d4ed8" stroke-width="1.25" fill="none" stroke-linecap="round" stroke-linejoin="round"></path></g><text x="313.59999999999997" y="116" text-anchor="middle" dominant-baseline="central" font-family="&quot;Courier New&quot;, ui-monospace, monospace" font-size="13" fill="#1d4ed8">2024</text><text x="313.59999999999997" y="130" text-anchor="middle" dominant-baseline="central" font-family="&quot;Courier New&quot;, ui-monospace, monospace" font-size="13" fill="#1d4ed8">Series A</text></g><g><g><path d="M403.3717903431505 96.49165421761572 C402.25295205050554 90.28874952923506, 403.9318424814328 82.00797656998039, 403.21921603046354 63.17700650729239" stroke="#1d4ed8" stroke-width="1.25" fill="none" stroke-linecap="round" stroke-linejoin="round"></path></g><g><path d="M398.8608621181544 98.94231183717508 C398.8608621181544 98.94231183717508, 398.8608621181544 98.94231183717508, 398.8608621181544 98.94231183717508 M398.8608621181544 98.94231183717508 C398.8608621181544 98.94231183717508, 398.8608621181544 98.94231183717508, 398.8608621181544 98.94231183717508 M406.910850975651 98.6972361888412 C404.8228355172918 96.77350276187153, 402.2613161820773 93.77904674276378, 399.6861405085899 91.7058873009598 M407.0782869142086 98.63742630322945 C404.8827882295767 95.97686192846867, 402.3160026779409 93.6337683153523, 399.8089702249352 91.37912500470972 M407.0146537240313 100.13031068906969 C407.0146537240313 100.13031068906969, 407.0146537240313 100.13031068906969, 407.0146537240313 100.13031068906969 M407.0146537240313 100.13031068906969 C407.0146537240313 100.13031068906969, 407.0146537240313 100.13031068906969, 407.0146537240313 100.13031068906969 M406.1702062781674 92.78091145701173 C403.5637298708668 95.29520017988052, 401.72548053426715 97.07360063571234, 398.7575065590773 99.3381856275484 M406.05615528605483 92.42547118937063 C404.05566915232106 94.83568151788107, 402.07353404082625 96.63564771648828, 399.37438215514237 99.14008328474536" stroke="#ffffff" stroke-width="0.5" fill="none" stroke-linecap="round" stroke-linejoin="round"></path><path d="M404.2139129518163 90.37075668599363 C405.03276016206337 90.38868375893318, 405.50056942760534 91.43704213347246, 406.09625262486543 91.9839064720376 C406.6919358221255 92.53077081060275, 407.37026522051144 92.9993787235626, 407.7880121353767 93.65194271738447 C408.2057590502419 94.30450671120634, 408.59902255956274 95.17761415184329, 408.60273411405683 95.89929043496883 C408.6064456685509 96.62096671809438, 408.08191943277956 97.26987246835347, 407.81028146234115 97.98200041613775 C407.53864349190275 98.69412836392203, 407.5346064665003 99.7280577685212, 406.9729062914264 100.17205812167455 C406.4112061163525 100.61605847482791, 405.2015066024638 100.44816804899055, 404.44008041189784 100.64600253505787 C403.6786542213319 100.8438370211252, 403.1229975401118 101.45191440957271, 402.40434914803086 101.35906503807848 C401.68570075594994 101.26621566658426, 400.7693147530447 100.54224202822934, 400.1281900594124 100.08890630609257 C399.48706536578015 99.6355705839558, 398.855504287001 99.32051840992189, 398.55760098623716 98.63905070525789 C398.2596976854733 97.95758300059389, 398.3555078699048 96.76074667669049, 398.3407702548295 96.00010007810855 C398.32603263975426 95.2394534795266, 398.3336347207671 94.74467338396494, 398.4691752957855 94.07517111376626 C398.60471587080383 93.40566884356758, 398.60823079528086 92.56940566678595, 399.15401370493953 91.98308645691644 C399.6997966145982 91.39676724704692, 401.03446223296453 90.84159519013346, 401.7438727537376 90.5572558545492 C402.4532832745107 90.27291651896493, 403.0184931164771 90.33005105322783, 403.4104768295779 90.27705044341084 C403.80246054267866 90.22404983359385, 404.04343332180053 90.06504280221438, 404.09577503234226 90.23925219564724" stroke="#1d4ed8" stroke-width="1.25" fill="none" stroke-linecap="round" stroke-linejoin="round"></path></g><text x="403.2" y="48" text-anchor="middle" dominant-baseline="central" font-family="&quot;Courier New&quot;, ui-monospace, monospace" font-size="13" fill="#1d4ed8">2025</text><text x="403.2" y="62" text-anchor="middle" dominant-baseline="central" font-family="&quot;Courier New&quot;, ui-monospace, monospace" font-size="13" fill="#1d4ed8">Profitable</text></g></g></svg>