<svg xmlns="http://www.w3.org/2000/svg" viewBox="0 0 580 300" width="580" height="300" role="img"><g transform="translate(60, 24)"><g><path d="M-0.5596908732014871 125.64925969101073 C92.50769416940639 126.3393113962057, 184.0511062879687 126.26838159478403, 459.5646110811547 125.64902321767835" stroke="#1d4ed8" stroke-width="1.25" fill="none" stroke-linecap="round" stroke-linejoin="round"></path></g><g><g><path d="M46.5143580686301 126.57833084352315 C45.875870410101115 119.89774990584701, 45.731648496286574 111.36159531399608, 45.523843206092714 92.23540130145848" stroke="#1d4ed8" stroke-width="1.25" fill="none" stroke-linecap="round" stroke-linejoin="round"></path></g><g><path d="M43.052469604138224 130.89579856775245 C43.052469604138224 130.89579856775245, 43.052469604138224 130.89579856775245, 43.052469604138224 130.89579856775245 M43.052469604138224 130.89579856775245 C43.052469604138224 130.89579856775245, 43.052469604138224 130.89579856775245, 43.052469604138224 130.89579856775245 M50.04439332205062 129.9170257965914 C47.95412142275699 127.15019980774919, 45.79133435968845 125.6286969839728, 42.593955351274396 122.26901720384784 M50.31483621997018 129.66615127193472 C47.7318101409991 127.35177956965897, 46.04806558403578 124.86870627424464, 42.85628802697354 122.32960587725691 M50.45272416159186 129.6486836544852 C50.45272416159186 129.6486836544852, 50.45272416159186 129.6486836544852, 50.45272416159186 129.6486836544852 M50.45272416159186 129.6486836544852 C50.45272416159186 129.6486836544852, 50.45272416159186 129.6486836544852, 50.45272416159186 129.6486836544852 M49.25104246628331 122.90337091481855 C46.00058193522501 125.42218213408988, 43.61019036810812 128.5206039250532, 41.8716482729729 129.15167999841827 M48.86823226786079 122.47228286129034 C47.33676419121556 123.9792722270897, 45.68896631901812 125.83063631670962, 42.23502339218591 129.83205952985767" stroke="#ffffff" stroke-width="0.5" fill="none" stroke-linecap="round" stroke-linejoin="round"></path><path d="M46.60062813504177 120.1738473584572 C47.313841766492004 120.16178059578942, 48.15603688192416 121.17403376045009, 48.74508594461468 121.67143099977089 C49.3341350073052 122.1688282390917, 49.662928171274686 122.57293714853587, 50.13492251118489 123.15823079438199 C50.60691685109509 123.74352444022811, 51.41042348909183 124.343240201088, 51.5770519840759 125.18319287484759 C51.74368047905997 126.02314554860719, 51.37478198545883 127.40099783971112, 51.13469348108929 128.1979468369396 C50.894604976719755 128.99489583416806, 50.70155428046523 129.53644879633555, 50.13652095785868 129.9648868582184 C49.571487635252126 130.39332492010124, 48.486742990938495 130.62737018688014, 47.74449354544999 130.76857520823663 C47.00224409996149 130.9097802295931, 46.517139443795855 130.84302426175415, 45.683024284927676 130.81211698635724 C44.848909126059496 130.78120971096033, 43.377939954205864 131.02182307189028, 42.7398025922409 130.58313155585515 C42.101665230275934 130.14444003982, 42.14222573022781 128.811042278161, 41.854200113137885 128.17996789014646 C41.566174496047964 127.54889350213192, 41.06048259680168 127.56443196461878, 41.01164888970137 126.7966852277679 C40.96281518260106 126.02893849091701, 41.268328845250515 124.40191133075254, 41.561197870536034 123.5734874690412 C41.85406689582155 122.74506360732985, 42.32701317189099 122.24304389072589, 42.7688630414145 121.82614205749982 C43.21071291093801 121.40924022427376, 43.562902811229314 121.22402787171744, 44.2122970876771 121.07207646968479 C44.86169136412489 120.92012506765214, 46.24000801365001 120.91975289848841, 46.66522870010121 120.91443364530389 C47.09044938655241 120.90911439211936, 46.807538419845685 121.05563613116813, 46.763621206384265 121.04016095057767" stroke="#1d4ed8" stroke-width="1.25" fill="none" stroke-linecap="round" stroke-linejoin="round"></path></g><text x="46" y="47" text-anchor="middle" dominant-baseline="central" font-family="&quot;Courier New&quot;, ui-monospace, monospace" font-size="13" fill="#6b7280">2021</text><text x="46" y="62" text-anchor="middle" dominant-baseline="central" font-family="&quot;Courier New&quot;, ui-monospace, monospace" font-size="13" fill="#1d4ed8">Founded</text><text x="46" y="77" text-anchor="middle" dominant-baseline="central" font-family="&quot;Courier New&quot;, ui-monospace, monospace" font-size="13" fill="#6b7280">Two people, one</text><text x="46" y="92" text-anchor="middle" dominant-baseline="central" font-family="&quot;Courier New&quot;, ui-monospace, monospace" font-size="13" fill="#6b7280">idea</text></g><g><g><path d="M137.8287161372602 125.95666168704629 C138.76245000267326 132.99611121155323, 138.47400617504417 138.72441342771054, 138.24768641218543 159.27080260291694" stroke="#1d4ed8" stroke-width="1.25" fill="none" stroke-linecap="round" stroke-linejoin="round"></path></g><g><path d="M135.54975323218642 130.32239649395547 C135.54975323218642 130.32239649395547, 135.54975323218642 130.32239649395547, 135.54975323218642 130.32239649395547 M135.54975323218642 130.32239649395547 C135.54975323218642 130.32239649395547, 135.54975323218642 130.32239649395547, 135.54975323218642 130.32239649395547 M143.06253285614574 129.1790645140064 C140.3131731826801 126.24265553594662, 137.40181261891607 123.41386345076694, 135.23272472645877 122.15411514038479 M142.7034186519849 128.97731546469305 C140.9827641815374 127.19396974763626, 139.84370219235691 125.65625028155381, 135.45739007785707 121.97529248720295 M142.7722838974749 128.63014827374397 C142.7722838974749 128.63014827374397, 142.7722838974749 128.63014827374397, 142.7722838974749 128.63014827374397 M142.7722838974749 128.63014827374397 C142.7722838974749 128.63014827374397, 142.7722838974749 128.63014827374397, 142.7722838974749 128.63014827374397 M141.18313406923085 121.6105906062761 C138.69366956911196 123.83675648282103, 135.5413135596244 127.20517294000148, 134.69541349447553 128.23614096161006 M141.31751367238581 121.64841449921967 C139.65182051871997 123.23120910569679, 137.7704383366982 124.91972372256353, 134.52216373290156 128.69690002448885" stroke="#ffffff" stroke-width="0.5" fill="none" stroke-linecap="round" stroke-linejoin="round"></path><path d="M138.20612428715012 120.1710960214402 C138.89084168349532 120.00503807525108, 139.7889232544669 120.2950804194241, 140.3864061725952 120.7531109483671 C140.9838890907235 121.2111414773101, 141.33773174809178 122.28394944921638, 141.79102179591987 122.91927919509816 C142.24431184374797 123.55460894097993, 142.91609509707666 123.87330844377102, 143.10614645956377 124.56508942365772 C143.29619782205089 125.25687040354443, 143.01846842456595 126.36096057269529, 142.93132997084246 127.06996507441833 C142.84419151711896 127.77896957614138, 143.06194575104612 128.2082513721622, 142.58331573722285 128.81911643399602 C142.10468572339957 129.42998149582982, 140.76323908530847 130.3715360730558, 140.0595498879028 130.73515544542124 C139.3558606904971 131.09877481778668, 139.0738770505866 131.03068954861135, 138.36118055278877 131.00083266818862 C137.64848405499094 130.9709757877659, 136.47903041779313 130.8966332452566, 135.78337090111594 130.55601416288496 C135.08771138443876 130.21539508051333, 134.6725760549132 129.4840094041774, 134.18722345272568 128.95711817395878 C133.70187085053814 128.43022694374014, 133.02571707471037 128.14203588764246, 132.87125528799078 127.39466678157322 C132.71679350127118 126.64729767550398, 133.06775323685275 125.24485776823208, 133.2604527324082 124.47290353754327 C133.45315222796364 123.70094930685447, 133.5951891536663 123.35073400196066, 134.0274522613235 122.76294139744039 C134.4597153689807 122.17514879292011, 135.19685634540872 121.3455228407544, 135.8540313783514 120.9461479104216 C136.5112064112941 120.5467729800888, 137.63726361424267 120.45579826231072, 137.9705024589796 120.36669181544357 C138.30374130371655 120.27758536857642, 137.9086329580088 120.32808999914688, 137.85346444677302 120.41150922921871" stroke="#1d4ed8" stroke-width="1.25" fill="none" stroke-linecap="round" stroke-linejoin="round"></path></g><text x="138" y="160" text-anchor="middle" dominant-baseline="central" font-family="&quot;Courier New&quot;, ui-monospace, monospace" font-size="13" fill="#6b7280">2022</text><text x="138" y="175" text-anchor="middle" dominant-baseline="central" font-family="&quot;Courier New&quot;, ui-monospace, monospace" font-size="13" fill="#1d4ed8">Seed round</text></g><g><g><path d="M229.1430742058903 125.33499253056944 C229.46441123030334 118.89324971754104, 229.0317454888597 111.68478594198822, 230.97152961827814 92.70620390437543" stroke="#1d4ed8" stroke-width="1.25" fill="none" stroke-linecap="round" stroke-linejoin="round"></path></g><g><path d="M224.5121481029997 127.62702892790094 C224.5121481029997 127.62702892790094, 224.5121481029997 127.62702892790094, 224.5121481029997 127.62702892790094 M224.5121481029997 127.62702892790094 C224.5121481029997 127.62702892790094, 224.5121481029997 127.62702892790094, 224.5121481029997 127.62702892790094 M234.15046752956624 129.15819710127371 C231.95681025577514 127.33457609392566, 229.4865177034802 124.34052153129478, 226.44037141210873 120.79611793132408 M234.3829290927008 128.99031116990668 C231.84584778792743 126.71712454627462, 229.6363955057797 123.84988742723857, 226.6460692419159 120.99606055357403 M233.66827890461855 130.43068885138266 C233.66827890461855 130.43068885138266, 233.66827890461855 130.43068885138266, 233.66827890461855 130.43068885138266 M233.66827890461855 130.43068885138266 C233.66827890461855 130.43068885138266, 233.66827890461855 130.43068885138266, 233.66827890461855 130.43068885138266 M233.10587450581215 121.72267269374049 C231.3774060366327 124.85619322755902, 228.66308558477442 127.29460435095659, 226.3098275496119 128.7254643208087 M233.7574439105446 122.22940853315583 C231.9914668053551 123.88800838031074, 229.87650031350898 126.0136735244243, 226.79995290725094 128.96660291512686" stroke="#ffffff" stroke-width="0.5" fill="none" stroke-linecap="round" stroke-linejoin="round"></path><path d="M228.61301150332378 120.29838929487042 C229.4515846229798 120.17929287399583, 231.18411060915804 120.93924410460208, 231.97318308491478 121.14879895739905 C232.76225556067152 121.35835381019602, 232.9246141042816 121.08571365988149, 233.34744635786416 121.55571841165224 C233.7702786114467 122.02572316342298, 234.10103715768687 123.24378895144771, 234.5101766064102 123.96882746802356 C234.91931605513352 124.69386598459941, 235.73252895705923 125.10299178097618, 235.8022830502041 125.90594951110734 C235.87203714334896 126.70890724123849, 235.30948895633634 128.00733019197196, 234.9287011652794 128.78657384881052 C234.54791337422245 129.56581750564908, 234.16601553864484 130.2025898036784, 233.51755630386236 130.58141145213878 C232.86909706907988 130.96023310059917, 231.81062471961963 130.88725753001614, 231.03794575658455 131.05950373957285 C230.26526679354947 131.23174994912955, 229.61781989923202 131.84832639241898, 228.88148252565196 131.61488870947903 C228.1451451520719 131.38145102653908, 227.29084760022587 130.2662246202092, 226.61992151510415 129.65887764193317 C225.94899542998243 129.05153066365716, 225.1116810999937 128.67922754567255, 224.85592601492164 127.97080683982287 C224.60017092984958 127.26238613397318, 224.99680353506878 126.10573573041486, 225.08539100467186 125.40835340683506 C225.17397847427495 124.71097108325526, 225.1762134007323 124.33114786921234, 225.38745083254014 123.78651289834409 C225.59868826434797 123.24187792747583, 225.68938822536433 122.57610671014, 226.3528155955189 122.14054358162548 C227.01624296567348 121.70498045311096, 228.90666540605966 121.33575001330738, 229.3680150534677 121.17313412725696 C229.82936470087574 121.01051824120654, 229.18887060290422 121.18510436028342, 229.12091347996721 121.16484826532296" stroke="#1d4ed8" stroke-width="1.25" fill="none" stroke-linecap="round" stroke-linejoin="round"></path></g><text x="230" y="62" text-anchor="middle" dominant-baseline="central" font-family="&quot;Courier New&quot;, ui-monospace, monospace" font-size="13" fill="#6b7280">2023</text><text x="230" y="77" text-anchor="middle" dominant-baseline="central" font-family="&quot;Courier New&quot;, ui-monospace, monospace" font-size="13" fill="#1d4ed8">Public launch</text><text x="230" y="92" text-anchor="middle" dominant-baseline="central" font-family="&quot;Courier New&quot;, ui-monospace, monospace" font-size="13" fill="#6b7280">First 10k users</text></g><g><g><path d="M322.8574322745204 127.11332337409257 C322.4065000053466 131.99222242310643, 321.8296123500884 139.04882685542108, 321.2953728243709 159.7416052058339" stroke="#1d4ed8" stroke-width="1.25" fill="none" stroke-linecap="round" stroke-linejoin="round"></path></g><g><path d="M318.1171099099754 130.18858936229577 C318.1171099099754 130.18858936229577, 318.1171099099754 130.18858936229577, 318.1171099099754 130.18858936229577 M318.1171099099754 130.18858936229577 C318.1171099099754 130.18858936229577, 318.1171099099754 130.18858936229577, 318.1171099099754 130.18858936229577 M326.20705048963384 129.4174220624421 C323.2883966642535 126.08725976695473, 319.99467326119355 122.97518701678021, 318.0796471973746 121.7407080335266 M325.7469992404799 129.30357415395272 C324.1585267050825 127.6145161140615, 322.5482252474959 125.78716820729049, 318.2439109704508 121.67729819652654 M326.8895695990713 128.8996708668381 C326.8895695990713 128.8996708668381, 326.8895695990713 128.8996708668381, 326.8895695990713 128.8996708668381 M326.8895695990713 128.8996708668381 C326.8895695990713 128.8996708668381, 326.8895695990713 128.8996708668381, 326.8895695990713 128.8996708668381 M325.75049625178224 121.28192537264735 C322.04627656971815 124.40688808284871, 319.54236318606627 127.3861344514249, 317.9356855803724 129.39996156133003 M325.7161313787231 121.69513793712319 C322.96590897829196 124.26298353373912, 321.0425030964545 126.42208077223555, 317.88453610490967 129.42363149966337" stroke="#ffffff" stroke-width="0.5" fill="none" stroke-linecap="round" stroke-linejoin="round"></path><path d="M323.3936569207004 120.48619426540033 C324.0257042164008 120.65901099969363, 324.6201514220301 121.22283998135073, 325.19403047974083 121.80124710250227 C325.76790953745154 122.37965422365382, 326.4087045709416 123.16737192352855, 326.8369312669646 123.95663699230961 C327.2651579629876 124.74590206109067, 327.7845517413693 125.68306439525895, 327.76339065587877 126.53683751518867 C327.74222957038825 127.39061063511838, 327.1289406639245 128.49490633514284, 326.70996475402154 129.07927571188785 C326.2909888441186 129.66364508863285, 325.8860762329211 129.5937015135623, 325.24953519646095 130.04305377565868 C324.6129941600008 130.49240603775505, 323.6754822748081 131.60628772809957, 322.8907185352608 131.77538928446603 C322.10595479571356 131.9444908408325, 321.36515190377395 131.3507274746014, 320.5409527591774 131.05766311385736 C319.71675361458085 130.76459875311332, 318.51575592249 130.56058734801073, 317.94552366768147 130.01700312000187 C317.37529141287297 129.47341889199302, 317.4119110350684 128.56854578325903, 317.1195592303265 127.79615774580427 C316.8272074255846 127.02376970834949, 316.0990726022047 126.14762426756806, 316.1914128392303 125.38267489527324 C316.28375307625583 124.61772552297842, 317.24350265891286 123.91673034671189, 317.67360065247976 123.20646151203536 C318.10369864604667 122.49619267735883, 318.2281935765038 121.5242692346834, 318.77200080063176 121.12106188721411 C319.3158080247597 120.71785453974482, 320.0510593429805 120.81539657699075, 320.9364439972475 120.78721742721963 C321.8218286515145 120.75903827744851, 323.61062835593236 120.91547786284443, 324.08430872623364 120.95198698858738 C324.5579890965349 120.98849611433033, 323.9145849716649 120.93307711082873, 323.7785262190554 121.00627218167737" stroke="#1d4ed8" stroke-width="1.25" fill="none" stroke-linecap="round" stroke-linejoin="round"></path></g><text x="322" y="160" text-anchor="middle" dominant-baseline="central" font-family="&quot;Courier New&quot;, ui-monospace, monospace" font-size="13" fill="#6b7280">2024</text><text x="322" y="175" text-anchor="middle" dominant-baseline="central" font-family="&quot;Courier New&quot;, ui-monospace, monospace" font-size="13" fill="#1d4ed8">Series A</text></g><g><g><path d="M414.1717903431505 126.49165421761572 C413.05295205050555 120.28874952923506, 414.7318424814328 112.00797656998039, 414.01921603046355 93.17700650729239" stroke="#1d4ed8" stroke-width="1.25" fill="none" stroke-linecap="round" stroke-linejoin="round"></path></g><g><path d="M409.05985199137774 128.3413017103984 C409.05985199137774 128.3413017103984, 409.05985199137774 128.3413017103984, 409.05985199137774 128.3413017103984 M409.05985199137774 128.3413017103984 C409.05985199137774 128.3413017103984, 409.05985199137774 128.3413017103984, 409.05985199137774 128.3413017103984 M417.81694763006095 128.80333284325104 C415.7289321717018 126.8795994162814, 413.16741283648724 123.88514339717366, 410.5922371629998 121.8119839553697 M417.98438356861857 128.7435229576393 C415.78888488398667 126.08295858287852, 413.22209933235087 123.73986496976218, 410.7150668793451 121.48522165911962 M417.51515878741964 130.42980562568144 C417.51515878741964 130.42980562568144, 417.51515878741964 130.42980562568144, 417.51515878741964 130.42980562568144 M417.51515878741964 130.42980562568144 C417.51515878741964 130.42980562568144, 417.51515878741964 130.42980562568144, 417.51515878741964 130.42980562568144 M417.3778181227423 122.37329961243687 C414.7713417154417 124.88758833530567, 412.93309237884205 126.66598879113748, 409.96511840365224 128.93057378297354 M417.26376713062973 122.01785934479577 C415.26328099689596 124.42806967330621, 413.2811458854012 126.22803587191342, 410.5819939997173 128.7324714401705" stroke="#ffffff" stroke-width="0.5" fill="none" stroke-linecap="round" stroke-linejoin="round"></path><path d="M415.01391295181634 120.37075668599363 C415.8327601620634 120.38868375893318, 416.3005694276054 121.43704213347246, 416.89625262486544 121.9839064720376 C417.49193582212547 122.53077081060275, 418.17026522051145 122.9993787235626, 418.5880121353767 123.65194271738447 C419.0057590502419 124.30450671120634, 419.39902255956275 125.17761415184329, 419.40273411405684 125.89929043496883 C419.40644566855093 126.62096671809438, 418.88191943277957 127.26987246835347, 418.61028146234116 127.98200041613775 C418.33864349190276 128.69412836392203, 418.3346064665003 129.7280577685212, 417.7729062914264 130.17205812167455 C417.2112061163525 130.6160584748279, 416.0015066024638 130.44816804899057, 415.24008041189785 130.64600253505787 C414.4786542213319 130.84383702112518, 413.9229975401118 131.4519144095727, 413.2043491480309 131.35906503807848 C412.48570075594995 131.26621566658426, 411.5693147530447 130.54224202822934, 410.92819005941243 130.08890630609258 C410.28706536578017 129.63557058395583, 409.655504287001 129.3205184099219, 409.3576009862372 128.6390507052579 C409.05969768547334 127.95758300059389, 409.1555078699048 126.76074667669049, 409.14077025482953 126.00010007810855 C409.12603263975427 125.2394534795266, 409.13363472076713 124.74467338396494, 409.2691752957855 124.07517111376626 C409.40471587080384 123.40566884356758, 409.4082307952809 122.56940566678595, 409.95401370493954 121.98308645691644 C410.4997966145982 121.39676724704692, 411.83446223296454 120.84159519013346, 412.5438727537376 120.5572558545492 C413.2532832745107 120.27291651896493, 413.8184931164771 120.33005105322783, 414.2104768295779 120.27705044341084 C414.60246054267867 120.22404983359385, 414.8434333218006 120.06504280221438, 414.89577503234227 120.23925219564724" stroke="#1d4ed8" stroke-width="1.25" fill="none" stroke-linecap="round" stroke-linejoin="round"></path></g><text x="414" y="77" text-anchor="middle" dominant-baseline="central" font-family="&quot;Courier New&quot;, ui-monospace, monospace" font-size="13" fill="#6b7280">2025</text><text x="414" y="92" text-anchor="middle" dominant-baseline="central" font-family="&quot;Courier New&quot;, ui-monospace, monospace" font-size="13" fill="#1d4ed8">Profitable</text></g></g></svg>