<svg xmlns="http://www.w3.org/2000/svg" viewBox="0 0 440 300" width="440" height="300" role="img"><g transform="translate(40, 24)"><g><g><path d="M0 0 C0 0, 0 0, 0 0 M0 0 C0 0, 0 0, 0 0 M-0.03917359542566032 7.271513495196693 C1.4605516519552948 3.181057495468811, 2.535646077072733 2.2302167725141753, 5.836762740197129 -0.366413505167026 M-0.690338029977853 6.59309322630345 C1.7616352731503637 5.267227905630255, 2.4464034630174067 3.1475460223466376, 4.902256459178871 -0.15910453745748465 M-1.9273984066117897 13.771693035780967 C3.609254296388289 9.742024906000733, 7.432196267483437 8.132990632496025, 11.478104635727536 0.08748210145977744 M-1.0920417669881477 12.152044308602392 C2.0489121663829097 8.584715099749891, 6.406074301922728 4.981793627853981, 9.547523432028425 0.6821983416273956 M1.3056091756978772 19.220836993028097 C1.5668413671817976 16.171979808428564, 9.915507022368535 6.467261156479461, 12.578273777201254 0.8914646184933356 M-0.7664014323195677 17.1967773829593 C3.536302659241579 14.557313359601876, 7.939853690226405 9.939441573973072, 15.163786848917086 -0.2070505865919421 M2.1698428617975924 25.645139018534778 C5.78815584263878 18.473144129507435, 13.252992151311574 12.393119131614238, 19.278916096592212 -2.4438796022743463 M1.3842793496511197 22.50884419613993 C5.019331727781509 20.06212217034699, 12.630508978775163 11.147260714491882, 20.747023419940735 0.5647257542401078 M0.15396661558648503 29.262996449459543 C8.074759103587382 16.598342727293744, 18.327226568886402 6.125015791756636, 28.56771020242235 1.0757573636260571 M-0.8218420003960475 30.00529435663318 C6.925231497582219 22.361772300409704, 15.89621082585593 12.801869719309835, 26.290108249571535 1.3518913017597736 M0.7268324348050634 34.049094236829625 C10.88997435508455 22.368334137462938, 24.129736200318543 6.941182716480407, 30.841442121422684 2.3484758869989997 M-0.71557168784556 36.55968976859127 C7.125195192290523 30.032955582766398, 11.647563655030151 19.771187005379964, 33.107356661415494 1.1092358798965103 M1.1541673171938414 45.33124233167224 C4.365977598401949 31.145257993021424, 11.64795041392645 25.321072231901315, 34.7695367643622 -2.0556603404599705 M-0.001153418081904084 43.24402983616643 C11.580958142736458 29.407339146835227, 21.12019087161142 17.94532696869289, 36.96541036311661 1.3588251334708652 M-0.7696038264782019 46.95450442568295 C12.934894277034742 32.120356207389854, 30.00786430140173 10.023758477576859, 41.642530157971905 0.5676990520535953 M0.7255545165388995 50.142880204179214 C16.503434672902042 30.792597102944708, 35.29211168757391 10.090595545267949, 43.18170967828088 0.7023238864122874 M-1.0289449694800525 57.298230889666186 C15.278116079746761 43.06346825203058, 25.067660297314568 30.324243727454313, 44.4235972130208 0.7948677562352465 M0.4194924396228643 54.82040569655906 C11.885813606108725 39.97418420684566, 24.524757873036172 25.36549369283587, 47.226021314552305 -0.19132721645867368 M-3.1356812010427206 59.01373541531752 C18.490016313155365 42.02697602146669, 34.694463025243635 20.56104126376299, 53.29702395623988 -3.2635538571105593 M0.5879270588139803 60.50804695812653 C17.236448208170742 43.88186285432337, 31.92508324689005 25.338894852321303, 53.01891059553689 -0.8735883512125604 M0.3634144765742988 67.84132795366416 C15.000451143400667 47.899309573869544, 37.101650979282894 27.996758164181202, 56.31973529839815 0.5749979037117208 M0.5328646687277527 68.17155339303385 C11.299369514491914 51.64816134567707, 26.762733330181106 37.54133297901751, 56.733269228878626 0.6713561269711696 M-1.7815559388884894 71.37444345573334 C15.089513230912335 57.14845337066018, 35.843768581163886 35.58419077087002, 64.1697672662266 -2.1726265904934636 M0.43287406397968625 74.52511190543322 C23.274368193751048 46.19511137602827, 46.36807025782655 20.506951440402577, 65.09278753818353 -0.6610789579780332 M-1.991792536662095 79.8237706132206 C18.34463887887064 59.27434345858635, 38.755794776746384 32.666805465404266, 70.79779477049425 -1.3176136480305658 M-0.37509054778622897 78.04547564014521 C19.871745905000175 53.44962509678729, 41.542455126781554 28.02891894670893, 69.57348223109558 0.6917970387603773 M3.0326157099844924 82.8342847969304 C32.495152924618026 51.14997737405615, 59.99309687461622 18.70920540449437, 72.57560383793208 -2.7368628980951146 M-0.1532763429639829 85.43899692109929 C19.990268612908185 62.7963350836558, 40.573882910500274 39.48455974213808, 74.30216863122078 -0.5277260588841273 M1.7642187118202615 91.2229246985583 C21.022758564090452 66.71036737821773, 40.3104099533987 40.270926569872366, 80.14761937930909 -2.6353106489915916 M0.23839588609041443 92.62930389311597 C19.14864455434143 69.35317538222992, 39.75158852950914 49.211958712268014, 79.85798844620315 0.5899173939089707 M2.3406184665857186 100.19562526913151 C25.9748876464015 71.8547903304943, 52.16328047139113 41.003528092419074, 86.3793774213563 -2.6836065299155223 M0.584744933992468 97.6243334603475 C20.415622390345213 76.701427025209, 42.99395671379147 53.07490854921095, 85.57088199964866 0.8338922210691464 M-0.3037080279786324 101.71144645967725 C22.40498792615958 73.86035427136113, 43.64586976047116 53.8639039731746, 91.00905287484268 2.9195631508286257 M-0.40284790464231723 103.3304600269461 C21.00568441976119 78.51230877430467, 41.847201030544696 55.67554993715658, 89.32311599920133 0.2606390674169319 M-2.9055858611038006 112.84670196189107 C37.52924248975785 71.00506712298997, 66.87293339975209 32.93160017935295, 94.19593176649929 -0.49020123595468024 M1.1953840778300489 109.16662423773231 C35.31004763584704 69.48077785152299, 70.69432627321825 30.91814612515096, 96.24775576846719 -0.09380224311820484 M-0.9807290060587761 116.61199214657745 C31.59413446986395 79.30326452960956, 70.08365678831105 41.298768905829675, 101.97193900709505 -3.1053359985699007 M0.15000620501557618 115.9313659166356 C27.553866179988866 82.25318613845776, 56.22819370021654 47.33912188406248, 99.33019301509017 0.37388393428427524 M-2.5722125520745696 119.6898807054319 C29.41192093850941 88.33030051284564, 57.99797655160675 54.835509816562954, 106.99011062336099 1.416009233787419 M1.0839101845582548 121.1905007084765 C23.250458882179238 92.27890567505084, 49.96189340224139 63.87072407606519, 107.3066180626763 -0.453387576446174 M-3.358059501410675 125.25192758948165 C38.62864668255267 86.07281992923569, 76.97219128314171 35.736025726013835, 113.17612152606614 -3.1123518471871834 M0.9147273110735896 127.34415301740725 C39.11864357845334 82.17184085242683, 78.3508005309188 37.10648012984307, 112.46554761886962 0.7745738695109865 M2.8805821436734194 135.72281774975397 C24.78635016259155 103.10507894247453, 47.26498147834246 74.84661814991915, 115.82069871295097 0.6123907095335411 M1.5366513791770928 133.24088474758005 C44.19974892915479 81.70219475825586, 90.68631645637399 30.351081161233843, 114.69023797828558 1.742267676308005 M-2.2087377060533187 139.54448987794436 C34.53070051826319 101.49566277545345, 65.45466775661261 69.7953598923568, 123.11144418175599 2.146171854976791 M-1.4977384034872672 140.1918240438155 C35.65721667410289 100.83139783673086, 74.80976207320003 58.41740285707914, 121.34050793553969 -1.1173692519029204 M-1.4573580238598567 144.7931693448573 C27.491635319678995 119.63624320584984, 54.77613672460865 88.09475090535625, 129.66465784325018 1.2621802808381333 M0.2649357866865415 145.63769823004301 C29.476862638322135 115.2813114328811, 57.16520886512433 83.63386063964775, 126.33456169827595 -0.20883377030122152 M2.2225987197514505 150.71140841312166 C47.99269150251261 95.62421880725796, 98.32734480081592 37.275613232287256, 131.89323866593227 -2.903603092926976 M0.7022167524727809 152.88079902446736 C46.48627499515708 94.39379433009996, 97.05429098655507 40.109718909193845, 132.5869257361455 0.7951148496228139 M2.0902584483712987 160.87813538937584 C49.36504703257405 97.1104398068474, 97.33038930104802 42.119189982345205, 136.4271462457801 2.370092099814352 M-1.1326770808326911 158.64979398356962 C50.82261071820406 99.87885396172919, 103.47232513383732 38.21857311186938, 137.44434870110095 0.41595049170225834 M0.6850656518397038 164.32131557604504 C41.081390168854504 117.56059591358746, 82.6265617565258 71.01915651926677, 143.97152182638393 -2.023073714626299 M1.1985381128472334 162.54370967050139 C49.789089657561355 105.07158487236723, 99.34747681789023 46.085315251294666, 142.91689471675872 0.8425207666523766 M7.857996637588137 163.58894867768265 C47.25440695358135 119.47408043084154, 88.21738434570145 68.77238252240447, 146.6503495729844 -0.5551055236454112 M7.2582161841808785 162.6602182559416 C52.104805128098796 111.4784317478551, 98.36150051743773 58.58505954806452, 147.54594363530305 0.04930065947175785 M14.654939982222087 160.18289636158528 C65.17673507766602 100.54618724781778, 121.73816787503634 40.749244077765745, 153.49714827104856 0.2834843882723786 M13.576489616725482 161.0393706749347 C64.89768369891026 104.972070431182, 117.03978345561104 43.79160534933227, 153.3559399906443 -0.9995054053669296 M16.559449017213684 163.31617647999542 C55.019645002387946 123.34279371163895, 94.60542151213072 79.26471967112397, 158.13342146454843 -1.7755593391305227 M17.835577954648482 162.5074049951528 C63.95402228584973 114.5630473055258, 108.42669610939457 63.9082165024409, 158.01953332069985 -0.24612545394159135 M22.00124850249705 162.86747505176427 C63.29197565631288 117.62209144697141, 101.01176315929756 74.76116391986689, 164.58942532591823 0.8017437004972282 M23.865066301829316 161.69558341962684 C70.43365252346054 105.80516200382522, 116.95920533014962 51.67853815370941, 164.5255153230992 -1.4966519769711968 M28.47085879454431 163.8554129041343 C60.78333016792938 129.41134505209712, 86.00992360716265 92.66684627048278, 171.81852402413003 1.027757921898038 M29.61240008993542 162.15870032852897 C79.89383328716553 103.67454262199088, 129.002076463866 45.47155389383685, 170.54926982325972 0.49760051196634847 M33.673699750967934 161.9952763079016 C65.17305722728246 128.09055939217558, 94.61172386354123 96.14287383117994, 177.10433504939013 -0.20782432825901823 M34.7512956714874 163.17295538297788 C66.49589437473159 123.60850430559064, 100.46983366100936 86.30741969718794, 175.31946412354748 -0.9144744797060361 M37.32728973520501 163.19217163447442 C86.35962915565837 99.32294192699847, 142.6082724451316 43.40034366011547, 177.3939755173542 -1.6625249561847295 M40.34554148222919 161.08467783888275 C83.82137258130074 113.25617600645607, 130.83908002587498 58.41254214555171, 180.1905359851702 -0.9722982099919226 M45.74601360315108 161.06259025821706 C84.21651796633927 118.77966467054745, 127.16719730951966 68.98456940257276, 183.87336129040386 -1.738258577672581 M44.27255377417778 163.24782716828963 C88.61946837324065 117.39263923323226, 128.42907903143336 67.83272876926783, 184.30808547469368 1.1514281560366129 M52.21956420482079 160.05569255539064 C83.1737283032266 123.793951018696, 119.00062412037508 80.43440656745095, 189.70353920984599 -0.42063538900382524 M50.263656923717306 162.2339248090265 C84.23792029517539 122.66969170397, 118.33118057300234 85.00108730414952, 190.7703089486188 0.4692585129960954 M55.088811626315675 162.37074437387918 C105.60138901474834 105.39457498626878, 159.7234017866746 43.08108494785937, 195.8473270331803 0.7477541999792858 M54.45625843180714 161.93986089237333 C108.85251721201757 99.74384913187856, 163.7973673090072 38.6726294899127, 196.71910483413825 -1.1956375190581403 M61.19542796901665 162.3186729512581 C116.66069499078054 101.48267626023939, 174.7949407135598 37.50611917941523, 201.14794656723032 2.3233286078157653 M60.66724190658725 162.23335582177285 C111.1321812138739 103.24706276182368, 160.10180811918156 45.865645131068725, 202.2875633557929 0.12579011374291663 M64.77162514452421 161.22367639582546 C93.78213483751222 132.2427926538805, 121.91318920909055 93.40858778002848, 205.76892961178189 1.3533570956340824 M64.16608947984419 162.68326102726027 C101.87598796642749 127.42522716229551, 134.3003164349393 88.49287387108701, 206.27461767234985 0.794778372040954 M73.25820619341759 161.7980739064517 C111.81592088041937 113.50176043444006, 151.14911154192586 69.98674101207828, 212.4839116551322 0.6831296186490132 M69.72876702302653 161.1878991599342 C115.49963949937312 116.34515858933685, 155.97646072376355 69.28338603551498, 212.31322654888015 -1.1212374749389873 M75.01759077336833 160.63467018796058 C125.87668571894933 103.48623939161185, 171.88531429236292 50.52062145530712, 215.64513568505188 1.4735026333919818 M75.42717705149039 163.307103338221 C103.21711529706464 126.1600758739355, 134.42072593407516 88.75916161009107, 215.67747024823953 2.146473944006125 M81.97898435919367 165.12251634137118 C117.03213647361251 123.53291120445168, 145.29194001525312 88.26227382139051, 215.94141185865456 9.109476095616708 M82.31141404632264 161.25547142365318 C121.26836460648823 114.76764459192182, 161.2894394802305 67.81622181442224, 214.4714429116073 8.77312757869081 M85.97040841081744 163.09574575157976 C138.27769123700566 107.0449650911111, 185.42435522058196 44.42047775287113, 214.11576364938506 15.219360354263467 M86.45394399115449 163.04174420120333 C132.50148624708964 104.92175228965569, 177.15200309181884 51.75265952195865, 215.55837320242415 16.22509510340182 M90.42459382102874 162.63893851811673 C124.7738972822986 122.17044011043612, 159.04570398067585 86.3291041543915, 216.04632295004893 21.227500988313235 M91.6059900714555 162.61734286869552 C117.41552312959323 136.33279478235775, 144.37296357545046 108.54660933403984, 215.12473720393945 21.761950537332574 M94.87288804892917 161.58896794007183 C135.87062280256384 122.72888739195882, 169.56888069490398 78.9260147080866, 213.62637084513304 24.719484898585524 M95.64537464473864 163.88943425850036 C136.48189203169932 116.08844297542451, 179.09668313729287 68.37361448193208, 213.76970814704296 28.554385392505374 M104.11520212124982 159.29080938824944 C128.5333008315128 129.6210958262994, 162.01554754495575 94.84155133404718, 211.70345724540633 35.73725077677593 M103.55985053460995 161.51437069454724 C128.18944826464497 131.39052735439103, 154.3363119666051 98.47222050704312, 214.64586523937862 33.51352781374082 M104.92408594875963 160.26140155434518 C149.49616699492148 113.6162700779215, 186.30392060726194 70.53169565563991, 211.59018414860927 39.911733573911626 M106.53949694871338 163.36578032165676 C135.68655601982707 129.82986070695904, 164.07720069246463 98.86146473239727, 213.9505272755619 40.034814705191096 M113.99320055818964 162.25196980916343 C149.80981983819814 119.67132579821902, 184.03865262701035 77.92074991192298, 216.5960285524824 42.82699324101986 M114.67519171065499 161.04689046375833 C138.08338448905133 134.4167912288408, 165.12424911007005 107.549110378211, 215.2075755502084 44.81212047100844 M116.18884586030887 159.58570284439978 C156.60151468771684 119.86074193132902, 195.1899435339884 75.85692880131742, 215.15916536779474 53.584343469796195 M119.96013902807877 162.07820426567253 C145.19671891806672 127.1832066787719, 174.94332016073423 92.33752307626654, 213.149276770962 51.85188575601341 M125.29843288184826 163.22007603085868 C141.65374461405622 140.59137952146477, 160.83323724199298 115.47204511322887, 212.13888062127728 57.61938463104507 M122.5883417245907 163.60982405132881 C144.1982800055376 136.97184322331623, 167.5461940091699 109.25603539209354, 214.55869626142876 58.14015038413545 M128.68201153357683 165.6845280602356 C155.382206980697 135.6396669256173, 184.63758301801832 101.90301746872962, 215.067099223699 61.639680416462014 M129.15612900783478 162.20912796554768 C150.8387457449578 135.5762036520268, 175.07391871578568 107.39788456528552, 215.6712257292527 65.0302300001951 M135.22074284222563 161.1427843033351 C162.73368685103375 131.95059484961223, 187.21556514950015 98.84492780028641, 214.2407981728004 72.84179077707428 M134.16062870141704 162.7730933322586 C153.58999361074441 138.89771906201747, 174.18852919156967 112.92059339304284, 213.4169964690493 70.3097490083446 M139.16842671856355 161.53053345185273 C154.8047273018848 146.9304877178374, 172.54553824612847 126.18034578036838, 217.053829466322 76.07540066390911 M140.6012950129814 162.71597329628221 C159.66803982457162 140.58028396328803, 179.5990818724941 119.15031897197301, 214.90270227543405 75.81476931273617 M141.8439151603312 159.77246045681562 C164.76657103069957 142.935670834322, 188.87199034205958 117.42413355628759, 215.1287430150327 84.60744876866198 M144.02232173714347 161.6363297617706 C167.16064956397616 137.53592720979114, 191.40665146936485 112.0572486520336, 213.2934223560509 83.84391905819035 M150.76293516526903 161.34637526925104 C165.16720684523582 146.97909964939362, 180.96299083582497 130.4656416510714, 212.4091998456637 90.5391604621374 M149.99446516851867 160.9311621328761 C171.77815321005153 137.67296303874855, 192.02757161832366 114.64849411088093, 213.45503453450598 87.6254255686366 M156.36991164414604 161.44734158085458 C174.81958098214386 139.15319561684714, 202.72309783777152 112.92565793666913, 214.61149986898383 93.74372443603094 M154.79686701475106 161.81003605441921 C171.16251071533648 146.11160035711129, 185.69256916822144 131.18628211793208, 214.1557430184432 93.9047919888955 M163.33038062369326 162.60470976243067 C179.74721868800168 144.08939736579094, 197.35974493395537 119.23333280422062, 212.51699508273367 103.48332564136976 M159.85946759944656 163.7621163503294 C178.06793227463686 146.7264547147684, 192.17370468443212 129.26288160879116, 214.50849160247807 100.6118302231192 M163.98251701467964 162.0197935056748 C183.5112899640769 146.41962452826377, 198.08395819688863 124.3202288434231, 213.1039124846537 105.97327402918113 M165.16453363024922 163.14384366542717 C179.34014465564408 147.21210294895002, 193.8845673163477 132.69677191193364, 215.45278658122612 106.07478967545998 M170.28560684383623 162.0281931813915 C185.68037991016098 142.0692549115268, 202.43955934750915 125.42034847673737, 216.27917698551292 111.94613329116056 M171.54513043076508 163.69125782364202 C184.03029868360312 146.6782106037468, 197.20182627820685 133.8499876203442, 213.2365196623313 113.43448599073838 M174.471575021932 163.83747248127628 C191.4792019889591 144.67462930339443, 206.78222580875942 132.2424133749872, 214.1708246120423 116.66875379811259 M177.28664970863807 162.3076744697945 C185.32511020384433 153.23484777730576, 194.5392684641102 144.7320264366668, 213.85838116939962 119.51133399288388 M180.99345757569796 165.1894817761336 C187.17062274500265 154.34966491958752, 195.6291105548249 143.1992078698963, 215.77953027501087 125.67994924173266 M183.62528178747422 162.77600842781408 C190.9067792602891 152.3743238664809, 201.08315154810643 140.84463889437518, 213.66938781007508 126.19302432671695 M186.37692941590308 160.49803475765898 C197.01780602627875 153.10886620785868, 207.14154121817805 140.46056028428973, 214.27102097215914 134.00752957304803 M188.1495433749175 161.5464503425212 C196.87224705217838 152.97210649001485, 203.4302006562047 142.4249209556701, 213.81529587897325 132.50155639638987 M191.96877656927842 164.11123179665694 C201.6815429661346 156.35833769974266, 203.98476110810392 145.41127518588064, 214.90789870122762 135.33242974308598 M193.49874979457397 161.44879003784547 C196.80289748602436 153.90743472464717, 203.26332290634193 147.1027471733843, 213.71842417070957 135.8073671060549 M196.58842394659294 165.64913658482294 C200.86435770905302 154.35616172977134, 209.08481925145745 149.773126188317, 214.98146337298527 140.752838443542 M197.5645427540876 163.8800931586073 C202.69093259512064 156.9628711628923, 208.69189233584387 149.86402696447638, 215.75947689292803 144.24345960053253 M202.96111746491346 160.05721589227952 C206.60357707572618 159.55155689516357, 212.47641275579844 151.95600161625333, 212.98762866248688 148.5575682821316 M202.37712921702715 163.160502172688 C205.52194754173314 158.2085452522852, 209.76573898793117 153.34508359662567, 215.5510848892977 148.19309266688353 M209.1111416353741 163.693302637452 C208.84378836529152 160.7404445643192, 212.87560221476934 158.37339226096407, 215.02039920606498 154.64461562752135 M209.03107475859014 162.30509339858008 C210.94429986588995 160.91633883400445, 212.0517778246113 157.51911278574042, 214.08563975334945 155.27107359684413" stroke="#ef4444" stroke-width="1" fill="none" stroke-linecap="round" stroke-linejoin="round"></path><path d="M1.2024166401445544 1.351966017784313 C42.35246828223184 0.7190459517812692, 84.81628226999906 -3.3392113383653297, 212.88688661220604 0.5502984384773291 M-0.9098326414847165 0.3711318512481576 C47.985690695543155 -0.8024514908683706, 94.85978549714318 -1.601486878107388, 213.18595421107676 1.055916166152199 M216.45872679054736 -2.7990934878587725 C213.96307330028714 37.20378663819284, 215.06953072445094 67.84548207186164, 216.22487640678884 160.6090321034193 M214.47628433555366 -1.2788384899497034 C215.6111697367579 42.103924189694226, 214.04882008351387 87.00392472334205, 214.6510029539466 162.56358995586635 M215.47668278531066 161.70062413020733 C169.2913915878798 166.18331072557604, 119.33073479620701 165.42095100484593, 2.5758545743179475 161.43400906164987 M212.67672906869774 161.79839830862858 C133.43145409452086 162.88538074428132, 54.22579346675206 162.50461881426764, 1.3169916066730327 162.05869179395864 M-1.1529665917158127 161.54965128600597 C-0.8044295326918367 113.09148118812591, -3.5763229386061433 69.36177483536302, 0.9468805342912674 -1.929729226231575 M0.34873106330633163 163.59715685993433 C-3.6331929245144132 102.0235628409311, -2.823505834594369 42.6989449571818, 0.7051849111914635 1.5808481231331826" stroke="#1f2937" stroke-width="1.5" fill="none" stroke-linecap="round" stroke-linejoin="round"></path></g><text x="107" y="81" text-anchor="middle" dominant-baseline="central" font-family="&quot;Comic Sans MS&quot;, &quot;Segoe Print&quot;, cursive" font-size="14" fill="#1f2937">Eng</text></g><g><g><path d="M-0.1493379580141294 164.17179366889837 C-0.1493379580141294 164.17179366889837, -0.1493379580141294 164.17179366889837, -0.1493379580141294 164.17179366889837 M-0.1493379580141294 164.17179366889837 C-0.1493379580141294 164.17179366889837, -0.1493379580141294 164.17179366889837, -0.1493379580141294 164.17179366889837 M-0.5901692958134963 170.2823270619931 C2.7249880667760182 167.20244905281638, 2.775788024241269 165.15583826361996, 5.91323114350802 163.60414970304782 M0.027501835082118647 169.56548652420662 C2.4568497555509667 167.99532787765045, 4.056691688900239 166.24349943943966, 5.964218581471505 163.3787676384669 M-1.5772801521053141 177.1143212865313 C1.9868278823196739 171.2181290165513, 7.533322931740346 170.41513112625478, 9.616781468725218 161.82125270145323 M-1.18656687285803 175.15502383217412 C2.7061436223089146 170.68736273831436, 9.321079000618928 165.8965904512354, 9.595619061326994 164.2906851817885 M-0.6098081634245489 180.97482518394963 C2.944817012160487 178.60754702963135, 10.320232600250286 168.95938926121065, 13.246163372800543 161.6744007800039 M0.046170620540561924 181.72670596381204 C6.168632669464976 176.23771139772464, 12.049933202575565 170.36771747106548, 16.817189516232208 164.27737036983336 M0.7240570038458316 188.1803547981099 C9.582288222377873 179.17035966774566, 13.913183054184216 171.84045098538502, 20.34831454573884 162.55302412362036 M0.7529299795528858 186.70776515332022 C6.444639992663327 182.94060908089534, 14.268216709111387 173.14102748261087, 21.684529192435885 163.77023483664928 M-3.0462386645149255 195.41828564288355 C9.676485502413232 181.26819752587792, 19.92038869298248 172.12551039402481, 28.194946378527014 162.07748109990467 M-0.1978558964799902 195.30288145723082 C5.6668400511793315 188.10414406337887, 10.048824175054909 180.90212630317907, 25.239742472825377 164.22974897617212 M-0.982991173025809 197.83798762032507 C13.512706094541482 190.31182634250288, 26.887306585862888 174.5330131278937, 32.84327675068406 165.7722299318024 M0.9322005816729444 201.25917868384835 C5.96783879194826 193.34748871843863, 11.644633248215682 183.5795050806922, 32.57510583066968 164.89374991759743 M-1.17898264216783 209.11391895337994 C5.4300428105195175 194.54804247601518, 12.779382948923438 191.19912518307703, 36.36850965769098 162.249140521368 M1.3103758872806794 206.53949396236834 C15.197480724377053 189.35661294383982, 30.3813384742634 174.59400115630805, 35.960256855199795 164.27811146922966 M1.6349318945495241 212.36265912432546 C13.163740292969749 194.89335968830616, 30.252145587950544 176.72261331447226, 43.81536297906678 162.24517109154692 M-0.17475141941627326 213.93941068131798 C16.346127194409302 193.83784147941586, 33.665946469999845 175.25628744985443, 42.09372201968472 164.11442076026432 M0.7216474036167796 221.00703761543883 C16.364215466542007 202.05131149523066, 26.6827031961363 187.22596492962145, 45.046540710292454 161.58469154439376 M-1.181477778177387 217.65138722922455 C14.393710352614404 200.65089399439904, 30.434207134365707 182.05991660312336, 49.05138891335547 164.41230159900593 M-3.2303682354471306 224.4402626496656 C10.897558829703538 209.79471301353928, 28.450139714587635 191.3154338973497, 50.094260730886994 161.01716010285398 M-0.5831517157337288 225.82888573528362 C12.924733467640428 212.55372917453758, 21.045691005786615 199.92038356975124, 54.33803400948101 164.19709111464996 M-1.7146610271611253 228.5429541290602 C20.416103796345695 210.1643676364267, 46.30149420265453 184.0682157845902, 57.55266800734091 161.93415624920482 M0.2242393571457825 230.80340500779954 C14.709997073763557 215.97389189443163, 30.591566475516146 198.186530967008, 56.77973586830188 163.72687269572373 M-0.655263092006257 237.12082027656822 C18.602366182420923 215.38290054325378, 40.98333172050819 193.29574119999523, 61.209657506144715 163.2335094657235 M-1.0264030862699058 238.622157175968 C24.158458751199746 212.91758241031178, 44.89077255451907 187.62399425170395, 64.65569805005856 164.65660473075437 M-0.8142794634920278 241.2216905744669 C27.983211900934172 217.62500620293267, 48.62828408788501 186.65883140124672, 69.47869710681739 164.5834279753556 M0.8191245142597041 242.46510062831612 C15.66018634439259 226.62447066401276, 31.44712557035404 207.48086073321244, 68.63007202802005 163.8022493489375 M6.376288998815133 243.47138702369674 C32.0776154391797 214.2428639695838, 62.24938754779036 178.88055638028104, 73.79124080483993 162.13953168015556 M4.8045048929181835 243.88081127203446 C26.986854822072313 218.52364893272718, 48.80096818388992 190.48213169235706, 75.64437039141735 164.95780535857753 M10.005483087462679 247.05849658787167 C31.382627649592305 218.30527569811215, 57.24013139670614 187.41890610286256, 77.54825647973136 161.98252880306887 M8.553837436002985 245.071254976987 C28.893002865147768 221.1573617943144, 48.146264149221906 199.2473577236678, 78.56899461351946 163.63298488887 M16.668211652979103 246.16843707016005 C30.909071460934275 230.42734343930692, 46.041900135556105 211.56909042750624, 84.36869812697267 162.28053924615006 M14.756464587792602 245.825853452592 C34.0462712337372 223.08440055875369, 54.76889248360495 200.25834088972837, 84.3517072835574 164.51553674811942 M22.633428690845413 243.91932837261623 C41.50989328154961 217.86041343854126, 59.88690099265454 199.19686255946954, 88.64103362608283 166.7267712323447 M20.835148937518042 245.55735550715391 C38.198869967590696 220.99395694597595, 56.45393457877053 199.07123420643472, 90.06915987480014 163.00892306552132 M22.939602080580585 247.35437871818579 C48.708802656849905 221.34785454931193, 67.27974898965877 192.31195846302347, 95.77171697254289 166.70184466370713 M26.341541958448282 244.79422326986827 C45.64996784577558 220.49760441812222, 70.11626460934684 196.63699864034638, 95.0753649764787 162.69464264938009 M31.643185817665604 243.20420800892325 C45.94305363429266 225.82685415478352, 68.77354182500765 204.74629373331743, 99.93671604587178 161.11146776318296 M32.30465623981431 243.44295554903957 C55.19238924537569 211.40532959555298, 83.55876435128692 178.59867919580458, 99.45322406186204 163.2699076288913 M33.970147781619524 243.3245244677741 C60.83139342428943 211.5618062151585, 83.63286701275689 184.11112049707586, 104.32998484155058 164.14876043282666 M36.482393254885174 244.7257644738633 C55.8023070518986 220.5237814372585, 77.1868795371721 197.36326241716523, 106.56299972018121 165.20996681235948 M38.56444196792334 241.2584479967928 C62.48528159622291 224.24014161105387, 82.34448183890429 195.3395613115284, 111.71499123909827 161.13193089558376 M42.310015592891865 243.84289885264397 C63.65248254103692 218.71740806448204, 85.11816520268742 197.3561112564247, 111.89384342470522 164.1057823289801 M48.83953625609601 244.8741868189249 C62.88475396371935 227.04502029460264, 74.79346167392734 208.54611219525674, 119.0731892339958 161.0665990535087 M47.75167472710336 244.7103208145771 C74.12054060182352 212.32179894329582, 102.77754669191992 183.60681458458293, 115.21226776466503 164.9263529870576 M51.22688464161857 245.72736083622482 C75.09144826873423 218.76093378183725, 96.02760247758032 196.02394751894965, 120.95554670576223 165.28347312954702 M51.04888324675067 245.4220291679671 C64.05624818527339 227.83973144353317, 79.79576004749632 214.5040279685562, 122.21367421332964 163.5563909157876 M56.92745500400999 245.29867827163818 C73.32216030715465 227.5019082250391, 84.70771825750715 213.1334364991846, 129.73101764987854 162.40067302575326 M58.772042625102785 245.3877360420096 C72.01902629554107 225.6824915582494, 88.96365375989207 206.59862335968447, 127.87082535993008 164.25864492347455 M64.56020133875128 243.55625902721937 C89.84506345123718 216.41334498994735, 109.2280819965905 185.76031105476596, 134.1380699458637 160.96140696507283 M62.76891545139071 243.595190245009 C86.25323019488746 217.4649788949781, 110.61029793298816 191.2360645324108, 130.88537267773532 164.4115771393139 M69.91359152536143 245.99331132591396 C91.25503622449908 215.76861109057037, 110.42992888784634 194.1328437606416, 138.73315758919875 165.19629484956027 M67.41615319888342 245.74785390616088 C92.79637775828685 214.77316608164492, 117.46395900660244 183.91995257749943, 139.43632875597635 162.37168637161017 M73.3940795593215 245.79045506977639 C96.72993719403979 212.92281734675262, 124.39160560209045 183.96080163344888, 141.64224845940265 162.8610449021611 M72.967768456812 243.32722583376966 C95.26051589890703 221.28258397326957, 115.4053974215137 196.79213739099828, 144.0315950679222 164.6111847495589 M76.97763332015042 243.65339848175225 C108.14974686808715 215.94029129682062, 134.2589493942467 184.12383839962013, 148.4092965519565 164.99877702492984 M77.20666269844536 243.1305181570309 C95.73407862047627 226.04545165819175, 113.34257325274315 203.3180620263484, 148.8564342028039 164.7803210814646 M85.25820680332922 242.77526146389593 C108.02999151921486 214.9780924126728, 134.20417717170398 189.5508316452532, 156.14776974637914 161.7776994408119 M84.39309851301454 243.13297968424905 C109.27310552373925 218.48953432318638, 131.51062466324606 190.17018532393496, 154.22499763389038 163.6450574965227 M89.59926788837689 243.07425223915303 C112.58156635686316 217.46419417100626, 136.13183011553778 192.74795548762583, 160.9891220381517 162.25343205186184 M87.71622737378853 242.8255725446197 C104.7407379136245 226.95793043721466, 121.24984747407346 209.1209879396013, 159.1287979504127 164.1493928030377 M94.78227057077444 242.555990709578 C122.31782480267837 214.76939643595972, 144.28913505120028 190.70741829427493, 161.43432130679312 163.0066830810252 M94.24256186999834 244.67729554644723 C114.76180574348273 220.60367220195823, 131.69712987349922 199.73868547318241, 162.88823662563982 162.5530391302052 M96.75818273004087 244.3511850981163 C119.79609687570981 224.52764581755144, 130.67501456986756 208.11839500216993, 171.5462625187939 163.06028201057916 M100.96750347491296 245.2728608189272 C120.22641892015392 219.4605776532865, 142.45302044131324 193.66332612963723, 170.24501721981224 163.4484548665524 M102.89595836165715 245.2779553068225 C118.3978466008184 224.77404153563185, 132.93338405192526 212.44447098283126, 176.3815906406446 167.14330832280098 M106.96381477776337 243.1750171703641 C125.30703533832269 220.40235041587837, 145.04525864951816 198.57593687676896, 173.89396829317047 163.9249734006065 M109.73406534514231 242.87950955864213 C131.14236431427318 216.64377162268482, 157.92599745425457 192.14887132772216, 177.0225235518641 163.35522024063619 M111.8331472518186 242.8622267299535 C128.80597169170375 226.1671742518808, 148.6020662608415 204.86643458098746, 178.61486631898353 163.33293186156305 M116.17289864698685 243.94117733585233 C141.2387811914471 214.77450792876053, 167.29210886458137 182.9572484594241, 184.56926524793354 163.68288766613924 M114.39845445731915 244.14569788622254 C143.9537342096554 214.36485523596866, 168.21959358650216 181.02961237609762, 183.96484888648237 165.5007040577265 M123.70660323368129 242.15453812073036 C140.0536164158039 223.12009110945718, 163.41409696102747 197.74296881584436, 191.49153360837184 166.23826882225572 M120.83581495450554 245.5335140276985 C139.55449773025555 223.60005296621978, 159.93564026578312 200.49995566309673, 189.12994246893606 163.47237711829246 M123.85489698474458 246.98155013622187 C147.39495373954372 222.0460644641237, 169.67521974528142 195.33127316934602, 198.27703262866 163.02073361104007 M127.20625521664671 244.39476228357697 C150.06577161233773 213.92510759192078, 176.93857619213028 184.70232687766025, 195.47353465557558 163.3700748515653 M130.55548389565777 247.3715832843812 C158.67155229709775 213.66691215663064, 185.8008220281699 181.7229517808492, 203.98298018831707 166.15474025543776 M130.9481628329737 245.5765664621623 C155.79991298285955 219.04596167215874, 174.81416564179196 194.77636161817117, 201.78790191966988 162.73163438674058 M138.7155818459398 244.3990957881539 C154.92209169449544 228.39975908363309, 166.27159632670836 206.91921119641827, 207.284580282824 164.4521586575033 M135.72881427675551 246.14176369265007 C156.7962570888505 225.9023022786059, 174.27666718858737 202.05488056211502, 206.84268185045 164.7729295321228 M144.46039483107174 246.2259575495945 C170.0269863056113 214.1025206925847, 193.4058749875327 184.76863356520565, 209.82655079169976 162.4499470401823 M141.1928471372231 243.23122778334485 C170.15712486449416 212.1819092759486, 195.62196319639654 181.7484617169001, 211.03640092118488 163.12554741690752 M148.48464073057252 243.13912679164844 C170.24837750664796 221.17489619170746, 190.85086462959637 198.34891022788412, 213.99130056547293 166.346023206643 M147.81378788764553 244.401545863442 C162.011084508159 225.18561155816033, 178.42384802483036 206.09018759651568, 215.66465157615312 166.27265975051296 M150.7010235399232 247.31297341637026 C171.18281767874012 224.74159673412328, 187.20357799125455 207.5146246566712, 215.5792245706339 174.8257166391626 M153.0425241172538 243.4873417412461 C165.69382882230633 228.56762019266262, 178.09384182514714 215.4677893657964, 213.9003873755951 172.4754749214664 M159.99176113864274 242.24695564670546 C182.55378553514612 222.78824592223285, 198.51761531579427 194.047051312983, 216.84052680266376 182.3258972397956 M159.35883229931684 243.73895254595263 C176.92489327764554 221.32224377558686, 194.16409380358888 201.56289338103892, 214.9257459087419 179.5373667380723 M163.25705752221216 241.72794338470857 C180.93262028672532 226.122010838022, 200.1665365029973 204.76365673199484, 215.2191612570435 187.1896849105965 M164.01985002306571 243.28475208586613 C173.89772685761858 234.53851379068342, 185.53119795416615 220.7241620320653, 214.97598976482456 186.6585840086352 M167.1666305701505 245.667894853325 C182.25686532209133 236.31594579545714, 187.23107698154004 220.51884699932077, 215.72859581329215 189.28528787451077 M167.1116037617694 245.46882749018204 C182.95181179205517 228.96990929786398, 196.4504812486921 212.37604926173296, 214.415270417112 192.15508886235045 M173.60818427793865 241.46617995460932 C186.55299025622514 231.61338770161322, 202.41975860398324 213.47314952278768, 212.14422543790013 198.52303561381564 M174.0974811046589 244.3133025672049 C184.4913075518878 229.64848304478872, 196.37036063487034 217.18481278013306, 213.22904142584474 198.87558968774542 M176.63893652509566 243.04725691150708 C190.28203263005585 229.65981425788914, 204.43371572192672 219.25832787447126, 212.83519509735797 206.11950761078842 M178.26975852500314 244.4560144461302 C193.14057258761667 230.32056256897604, 204.77659994894927 217.11745374189564, 215.95588135126326 204.76566987334735 M182.7340913071026 241.02299562607263 C198.0034760510854 233.36908635538364, 202.41569485047555 223.54379318282682, 215.3962226711847 207.06166208837453 M185.69807361203328 243.41283693526242 C192.71337313657074 235.3274492168091, 202.6158684946164 225.53330352781433, 214.21931666663662 209.4319165483517 M188.5383665034784 241.73035432125158 C195.94827590633395 230.88123491104258, 207.14036738387966 218.78039906261668, 213.44001215486134 215.02386894862855 M191.2809528390182 245.11535716379709 C194.31825298236552 237.3997090405536, 199.2527181718955 230.47098955850768, 214.2202349611958 216.35895352106297 M194.7144661097041 242.99370289909842 C202.06326030478706 236.63512240443617, 206.20691342515326 232.1566907192258, 212.74878142790683 224.60558641449595 M194.09428379518897 245.3731989400387 C199.48067193964718 237.5451635365099, 207.0894610740229 230.27804252525542, 215.98841270820984 220.8471179206767 M202.8946080052986 247.56249958255864 C202.19132347327852 241.3714406998487, 204.29591276179835 237.8236516215799, 212.46667545681166 226.24839396825396 M199.0428429538145 245.41169939318277 C206.2651880329375 237.29467219922716, 208.73573054075095 233.373575731306, 215.2749284679191 228.2294931357201 M204.66598618664665 244.83794789167194 C209.98893661325943 239.51335030278025, 209.44652193492846 237.8720929954026, 212.72274023306366 234.79124873367886 M206.4078378035955 243.83734962927252 C208.34355639571282 241.6452652920901, 211.35154631027254 237.29938129283326, 214.77179801818724 234.61959443433028 M211.57561011549393 244.71397171698933 C212.24987234724327 244.13905097246933, 212.68111873578803 243.23153254544047, 214.80324198186673 241.23130349460166 M211.09204426270284 244.10669163920406 C212.26276231795745 243.4890760995137, 212.93508262482567 241.74440338498684, 214.1276783864228 240.7009878190152" stroke="#f59e0b" stroke-width="1" fill="none" stroke-linecap="round" stroke-linejoin="round"></path><path d="M-0.40041087971089123 163.8986878755686 C44.71018072446369 167.13526462036253, 86.83780869999813 164.62923836006934, 214.5790173844121 162.29535271695465 M-0.4170432029694331 163.33964162249632 C51.768759311086306 165.49489181506326, 102.71694891428633 163.89682104058522, 213.7745305021535 164.7092102523044 M215.71745358109473 161.60181302428245 C214.46348351478576 183.5371950417757, 216.67639836311338 199.55020767450333, 215.24975281357766 244.4180642068386 M213.3525686711073 163.04232302010058 C212.4633112746477 189.79094459414483, 212.53861196815967 216.37404187619686, 213.70200590789318 243.52717991173267 M214.1481214106213 246.20649242041466 C164.57753901575958 250.66944873435207, 113.06671375241403 249.1447292928919, 2.346464988635895 245.67326228329972 M212.7560802173955 244.99941869725714 C139.8655302690417 239.86572253176266, 64.2489648535041 241.9094428317353, 1.2313611333460652 242.71476150791727 M0.8940668165683747 246.29930257201195 C-0.03236747503280624 212.41969047486782, 0.8238457131385806 181.59700586795807, -1.3062389314174654 163.34054154753684 M-0.9025378733873368 245.59431371986867 C-1.3248764318227768 217.30479363203048, 0.2944977480173112 190.31322581470013, -0.18963017761707307 165.56169624626637" stroke="#1f2937" stroke-width="1.5" fill="none" stroke-linecap="round" stroke-linejoin="round"></path></g><text x="107" y="204" text-anchor="middle" dominant-baseline="central" font-family="&quot;Comic Sans MS&quot;, &quot;Segoe Print&quot;, cursive" font-size="14" fill="#1f2937">Design</text></g><g><g><path d="M216.1910770203391 -0.21980896754404 C216.1910770203391 -0.21980896754404, 216.1910770203391 -0.21980896754404, 216.1910770203391 -0.21980896754404 M216.1910770203391 -0.21980896754404 C216.1910770203391 -0.21980896754404, 216.1910770203391 -0.21980896754404, 216.1910770203391 -0.21980896754404 M216.596469882185 6.239163483894264 C216.6070593599831 3.9179367981363624, 218.19356484979616 3.335555942698196, 221.16733442520524 0.5207357663674644 M215.92297657852845 6.763902677214537 C218.3296991163379 3.66945070477547, 219.56461479316943 1.0054757116374897, 220.92381558215047 -0.1373373305039104 M215.2625910387685 11.893553231940842 C216.85415440461838 9.250836821761178, 224.1242025323646 4.133875314672793, 229.36521123809024 0.11162699610598037 M215.2086609576394 12.154607050405122 C218.33335607944372 9.20168472825094, 222.5466758077543 5.638132282701818, 226.1334676269929 -0.664224283391166 M213.9645274338204 20.56541706953046 C218.10097399080885 16.642443472336844, 220.89972093890577 11.196105471697459, 229.0916878467862 1.803359796619239 M217.34849560976807 17.693238239324067 C217.6093578669882 13.486884123062646, 221.3727609424794 10.501086721384164, 230.4482270619337 -1.492185818636594 M215.11196505327092 22.906883852567045 C218.7789590532182 15.666420377157518, 228.75155732319863 11.716118959506032, 237.90746593125283 -1.013468455825688 M215.9552745168315 23.0979993853825 C223.9385901475004 17.755028461587926, 232.20957249225236 6.800383055629796, 235.9117879012984 -1.5876523862823264 M216.64330899175098 33.01017853096679 C225.81179752805747 17.907290595936313, 235.5753109962583 10.638016356453686, 242.99981743301805 2.425227691288089 M216.9158831438034 28.83707225248769 C225.86072933599377 19.55990267350202, 233.82825062504273 12.193224855548939, 242.5670115744656 0.053629505689238494 M218.88482009752965 34.57290385892525 C230.05673192194024 22.71523910555786, 237.65850352121433 12.418400387342936, 244.9348643163128 0.632587671265037 M214.55760772957777 35.70469045421019 C222.02115140177207 29.259846505287573, 229.129499821777 19.6668485454946, 248.53260793629124 0.1148676499575686 M218.72156130584736 45.08790884996964 C222.21178437250487 32.08717186868081, 229.49625811486484 24.965640536543383, 253.14511742940613 -0.5000357616993114 M215.2555991000201 42.0262713634522 C226.9838683127994 30.308739281639326, 236.94104554189124 21.07035542215108, 253.33273822566935 0.14342066009319582 M214.1292205519446 49.207417517627206 C227.52764535497704 31.149871034332065, 244.63148592057166 16.904976016477228, 256.077948736529 1.7592468256994978 M215.41469558099593 49.172544853116 C232.67857265228392 30.366593720996633, 248.52953418879312 10.705487219550504, 257.4954872974559 -1.036878671224426 M218.30593368409043 56.90715761609348 C235.76393164367303 35.7070714995945, 246.45243232643375 18.978431586806924, 260.84711908595045 1.720538187657053 M216.2512459113992 55.873682036772095 C235.20817397278162 33.70761441076438, 251.27968823377785 11.33052825947706, 262.85439139054495 -1.2380467304247078 M213.16469766651582 61.30339357867291 C239.49775642443126 34.534163706170204, 255.96824216318302 13.51248364986302, 269.125191412911 -2.5108126622994975 M214.73552244608592 59.386328207099936 C232.60986881461386 43.861365155784526, 247.78886764910965 25.14422442166381, 268.290851330802 1.4590838553944991 M217.7848983474898 68.59060315956104 C229.8383368731641 51.86872377592067, 248.3083842327177 32.462561130751645, 275.27535365265106 1.1299182893571242 M215.09324892395014 66.38127947767008 C230.4370620291806 46.87876439153044, 247.07145204418612 28.225940347482453, 273.31595544409254 1.4189929591354713 M216.3047236622528 75.05851037228514 C237.94891304130635 45.808660990729415, 261.95658876722933 16.798604904002524, 280.4832416534397 0.830958796822506 M216.54801367085733 74.91051572138478 C234.16231541050806 51.83136671947725, 252.5332409530712 30.132350337887296, 280.05230246931046 -1.0343983056312027 M216.8529865460454 80.45621423037238 C233.9342982505644 63.26117382661643, 247.4360471177897 43.785263401104814, 284.6493523795079 1.9210732934010026 M215.303092512673 78.32132931114621 C238.51561932895302 52.080481235107065, 262.1960281678952 23.365066338906644, 284.1764147613119 -1.6506946462261682 M217.68094784713657 85.35631748801833 C246.7608232702953 48.5706770982896, 276.346918899548 19.474107241742857, 290.84057167912465 -0.7927604667117976 M214.52327168829112 86.77045386052495 C230.47310439035124 69.65331371405392, 247.74314511757106 50.887297228604716, 289.62026605899075 -0.5653499490788363 M215.05472952975722 90.57195957852747 C247.47709208342727 53.56223130028788, 279.98678924821144 17.171852558033994, 297.83864651652095 -1.9630280502113977 M216.8772610525677 91.59109716220047 C241.8547500541802 60.88026447194764, 268.7103249765428 30.584558144844067, 296.96975371720316 1.3126560784902894 M217.3068424421765 98.2944932560953 C243.21696866544093 72.35979902329585, 270.4054850008122 38.9081013029311, 298.19171273996585 -0.5640017029022943 M215.23922184439675 96.98061782974328 C242.1107732808694 66.40379108758222, 269.1239313872571 35.007001668618116, 302.166226474843 0.38849455005171196 M214.32859951963482 105.11051753424906 C248.1593792416143 62.637802757013134, 276.16093591893036 30.940863918980604, 309.1627673136903 1.9705830085199523 M217.23117988964378 103.5675582360556 C242.50803996412907 73.45329548321216, 272.4787531959998 42.873103033902076, 307.3049566867663 0.39381075828487155 M214.10193869737273 112.166006426516 C245.78499809926467 76.81585526087422, 269.80410388764136 44.55751449609126, 313.1811960859633 -0.31479616174906944 M216.8048485141743 110.72577325403971 C240.26615620136434 80.02565095127989, 266.4152626709492 49.49033967959895, 309.73666809186705 0.8744008167603567 M218.4312458236592 112.93043768709165 C250.63098711103606 74.83672963547635, 293.3158163924517 29.826639531253342, 314.3912460210159 -3.235124780404948 M215.42345145688225 117.28855899726612 C243.12797489567765 82.11935813046891, 272.31431047082754 49.64142733492083, 316.06600804500124 0.8025350181575789 M214.83576786272522 121.41382574928045 C241.0042178457756 94.46431471292061, 262.83260136411195 61.12274563698462, 323.90355296711704 -0.9271750932520946 M216.2041360726237 122.71568575841425 C249.0465686641002 80.03658749207949, 286.43979893908556 37.5800230931357, 321.65307528506304 -0.1353655239528735 M213.0011406628398 125.30439836727798 C243.09566144663862 102.9610199733996, 268.9022673056968 67.39114027403103, 326.74361388849775 -3.18718266698607 M216.21950110029258 128.38107465105475 C241.6072219597228 97.658082742973, 270.0796648744102 65.10250348551872, 327.8118921669082 -1.1264055168915603 M217.4718021592434 133.38562955461143 C243.30447234769338 107.17658716360752, 270.83629682441267 75.66794343060994, 331.10331463342703 0.8668302525886304 M216.64000986575442 135.53983054808972 C258.37827029429184 81.9303497245675, 305.1916700589201 31.25438874004281, 330.9119324294308 1.0564611529120214 M216.18281528717662 137.70036832480804 C264.7903382032324 86.1042797859095, 308.751448161387 34.35376390519378, 335.28940216613586 -0.14262190122349805 M215.1158131948748 139.64237082242147 C253.36449079230465 99.92938634320163, 291.20593935425546 56.91299055710778, 339.57659342748696 -0.3332452218626315 M216.9916908949084 149.31496743206338 C246.345847292063 113.07395884141917, 271.28586472298707 89.35860127467265, 344.9750123348932 2.885188625773134 M215.7585723265476 145.44855408762055 C245.9097895151244 109.57270223973708, 278.49009641392905 72.70639034861833, 344.5847238999705 1.6721464723550696 M217.0720352428557 152.85790558248192 C260.66298632285304 103.85374233228815, 305.647807132897 50.76899377137605, 346.77460592923336 -3.0844585256641133 M215.38013862101968 150.758329576519 C259.0129860807864 108.70054481401944, 298.9593964101144 62.07088815530104, 348.85566713987305 -0.5960525380147446 M217.28326823683815 159.17086151709265 C254.54287551904122 111.80666988368088, 293.8741438540579 67.97097148760002, 356.05545625305155 0.6247553419724821 M216.0941992492262 158.13899569967404 C262.80871354065124 99.94943707483066, 313.3665191171458 41.75980400267697, 353.453905219014 0.4154889176362006 M218.93661584495058 163.54895497513107 C256.8883528390962 114.49553581659941, 297.0691676337729 72.0180880124371, 361.74474185090554 -0.5121690686148134 M217.67952213099167 163.815449424236 C257.5990545313146 118.20350413572785, 293.6124245215921 73.65312947590365, 358.5868876376393 -0.31549220442525 M225.5400518049623 159.8785328390561 C264.6974888131665 118.9674404903031, 302.9548062497514 69.81970341372947, 365.411548945233 -2.4286894691361236 M223.74071044474053 162.69216237383299 C280.4636719652501 100.58031524134378, 334.60214339349153 36.45782409070967, 365.2984207321889 -0.6154709197846163 M228.38866596636052 162.40444717410296 C278.5249410722461 113.06243077385643, 324.3832664118917 57.638649621545035, 369.067753421776 0.8739626757013579 M227.95405477361814 162.17439878705665 C276.10570445632703 112.0116699921932, 322.7077263472318 58.0302920391811, 368.64493557539885 -0.17309787382745478 M235.98405005440748 164.729026705265 C282.52893128821535 103.78987884238673, 339.26536352426007 42.060501420000236, 373.00076413049356 -0.42124045632078744 M234.21261606671186 162.30271225073716 C278.32161449200885 107.10324117362654, 327.1080212228679 52.49628461310948, 375.45901009894783 1.3671507992460061 M240.3837744680116 164.95297295050298 C274.34159033213376 127.18354962908073, 301.9539367102417 91.36572411796821, 376.4953934951117 2.1520791118458393 M237.54339846784632 161.39711441220953 C270.37507997349246 130.426882676082, 299.0933531336575 95.98007691244172, 376.3014720411357 3.673819995805524 M244.86613349989645 160.77777688031074 C277.6483582165167 124.83579666968515, 305.77698202653255 87.66209360248196, 378.0533727202236 13.089818950350153 M245.50750787823839 161.30105302441515 C280.9318982776964 121.65222662024173, 318.5836358170815 79.68441586828816, 377.0186414486615 11.456929377398145 M250.62943038573 159.75378451147608 C278.14685649344835 127.72807446847767, 306.15185783986044 95.6994844447792, 376.7638857898884 16.891688307869536 M251.13121500988933 163.7993773067885 C291.62149749380615 118.4894348491349, 332.2168586380556 71.50953636820752, 377.0324522686772 17.664185924577815 M255.84914218601693 164.82135262133588 C290.4786857135448 121.46293764915254, 329.1907053769486 79.52289199535149, 373.1833052208624 23.4671791387577 M256.5977650460314 160.79542837830294 C300.03444221974934 112.12738809436198, 345.94993066046254 59.434575048640085, 376.3718193715415 22.633746570147984 M259.81388443485247 163.03380059950436 C288.8343079615737 129.9556109850933, 314.9100075473271 96.70826946557061, 376.43340831461586 30.193658021259004 M261.1522181503509 164.14058142505968 C292.7671481453056 129.26305472966527, 323.30532146416004 91.28323654450442, 374.72678377243915 30.520382608639892 M268.2929040964675 160.55114287928598 C300.61582658597774 123.0688848228865, 342.13391607564705 80.7518411004664, 379.0748309194179 33.484352709569016 M264.7867216777039 161.61960673973815 C299.3600413533417 122.17944669555008, 335.7545766278545 82.43091087948416, 376.3324442102642 36.5355151536241 M272.42183701913115 161.21160721487632 C298.99792938060284 128.1254734017858, 332.01680772366007 88.99636205122083, 374.7830699994996 38.093027636992225 M270.24887436698435 162.93142543590895 C309.7831638309449 118.38418568839151, 348.62175033299866 77.84176982694386, 377.77782303987294 41.01703949778009 M279.65118016707436 161.9939580395798 C315.675544258627 120.82515527176204, 350.44534141712353 76.04294184276938, 375.60001140312977 48.65166055772411 M277.84019857304827 161.7014328062515 C302.82048620058663 130.71701383542467, 328.6407282648194 101.10109523868906, 376.307394000159 47.51700175467836 M279.79781938856615 163.75517310759204 C299.4478061860282 137.3584706065309, 321.5801407773835 109.82383543974267, 378.2263430655491 53.08747548529193 M280.9176680347897 162.36917496433634 C310.50211548357464 131.39437327619743, 340.09460855186745 98.6255177739041, 376.76349541698806 54.368631797221155 M288.7935016478375 160.29276685221745 C312.623294973789 134.06401931408774, 331.9670852936645 111.35220576655556, 378.15337792199784 61.58707143322295 M286.29218010706455 161.40067220284297 C311.97476125002765 137.16171361572617, 337.8175750766471 109.40488286843983, 377.5681531162256 58.600471998310745 M289.13636279315733 161.88246702765153 C312.78921296808704 140.10016151253697, 331.46879188726643 113.04228165950555, 374.19487682074526 65.56055115571264 M290.5300835287669 161.37609563534187 C313.7004706409052 135.178004035472, 336.4454444341451 107.09085575534463, 377.50490333676555 64.6505059715176 M298.5833407597663 165.89524764742154 C321.46794255008405 133.35851554878295, 348.1194462760488 101.78485322919454, 376.3794617260222 69.05855408606551 M296.4955916257622 162.55680013473528 C321.24804203379523 136.29418564966915, 345.323335070578 105.5458577166637, 377.861205933464 71.13319150952123 M301.0819984829048 163.76145772505475 C330.40895807028386 134.9743854257753, 355.7756673091582 100.79031857141996, 375.2021434860977 77.10993297847709 M302.53260522391594 163.5994530739255 C325.27599167932044 135.8979829875097, 346.6581521196551 110.04933247473912, 376.3299721452149 76.92713722589215 M308.9023468108419 163.93495001474668 C321.2059360868376 141.93187551183075, 338.58098862136575 126.29576718676617, 375.1167350362123 82.33878684647462 M309.2465355621222 163.87016306648303 C325.10952535533477 147.3923564514553, 339.4363897908037 130.02323356455335, 375.5519777978838 83.94213549353263 M312.9292577078086 159.31011394980172 C334.2665409222012 138.3903737410975, 353.65529536853876 114.73613669846497, 373.46767431160646 87.9285897035853 M312.0467174952369 163.01151290508727 C331.98790210080887 144.76578659476897, 345.7526588454252 125.49253012058149, 377.0976862173362 89.83329118534485 M315.9139920220737 160.35955228441549 C338.9368357266888 138.0526728087122, 362.0835273508677 114.31285740915688, 374.6218471605492 95.38631930400469 M317.4479372621541 163.83023620330883 C338.5592333004325 139.36680749665723, 356.9219340851847 116.60477285563536, 377.04907114246606 95.11515041489938 M321.82267171786845 161.79640445189247 C336.40761940309517 144.14792525761018, 352.37057701330133 124.52070836562478, 375.46100054727145 100.75949008103724 M323.4689047177297 161.5095407538272 C333.72050472058504 149.33820930809486, 344.0556941440466 136.12284806513387, 376.1420299281294 101.12873347487565 M330.68780764346184 162.9120232064281 C341.9294456904781 145.84200294699636, 354.28129936744824 131.8707544226199, 376.23327032004227 105.37382978887852 M329.5337811008579 162.4967851702128 C346.3223858576514 142.98660996365223, 362.5707693863452 126.45045161760956, 375.26791131322017 108.12921147884424 M334.35677176308474 159.83829798132692 C351.1645701626073 146.22558417383982, 369.29432157265654 126.53097981805394, 378.8455944141021 112.05031244105571 M336.07065126639446 160.9158022451452 C347.99386842152336 146.9823072147212, 361.036153012332 130.10047513125127, 376.0159286236039 113.25293929970735 M336.9433249250062 165.8853315307845 C347.60199844782807 154.37545244629325, 356.12866838146584 141.79908466824742, 375.3955357646916 119.26928705109611 M338.41305145323355 163.85457559219492 C351.9951085193673 149.87659755076479, 364.3296120415786 132.63487991615608, 376.2549826851461 120.83158431036726 M344.17608909345716 165.40376328810518 C355.4048874601622 149.77168880902613, 367.4475754100615 141.1092358806782, 378.3031052200796 124.93460637319518 M345.598441516231 161.37756300404135 C351.62334682512835 154.74285729797964, 360.0892647782977 144.10710747383524, 376.9154847367408 125.50625512439443 M351.85007511670676 159.72244600748456 C357.97882884086135 157.4915893932072, 363.2385265809363 150.37589397168645, 377.0031747444972 132.19065984065745 M348.66973269428104 161.4133730942551 C359.2185545198014 152.49762878323884, 369.6821996908244 140.0169186487972, 377.73176963324397 130.9945345344684 M354.37515495898595 159.41076912222715 C359.25703737835636 159.23513376790527, 365.1870634943274 150.42604073769118, 377.5970051862134 137.76005020767838 M355.4737598422395 162.96708865551562 C362.0288009981372 153.4628324488624, 372.1666190050282 146.2948352064044, 377.5436236135496 140.1781561541596 M358.82758946856353 159.81633538652844 C363.33734987937174 159.48479919534662, 371.21944414153705 149.71085578890742, 378.7446594804685 144.16062648778527 M362.1628091990004 162.20794330139347 C366.40567003188494 155.38319148682018, 370.62360919141065 150.4081178347731, 376.4386975035231 145.0700373563704 M367.5443174506473 164.5520150091982 C371.402022469519 159.9267089428319, 371.92279947962083 157.5352591299556, 376.2282825239861 150.72860042897213 M365.81525995795903 161.21778545235455 C369.31734308981885 156.9527361634448, 373.9393104082435 152.60375527407, 376.18141057388124 151.3726969185953 M370.37559892863743 163.39959350842568 C372.74885166174596 160.74079677477604, 374.88561271300483 159.29445979221714, 376.3641015280477 158.34788377585343 M370.96390206777266 162.66042270566854 C373.0792804360787 160.96685949700273, 374.324162815639 159.1738681949493, 375.88555683498004 157.3970047063612" stroke="#10b981" stroke-width="1" fill="none" stroke-linecap="round" stroke-linejoin="round"></path><path d="M213.71486454904078 -1.7733532518148423 C246.46733952760695 -3.151380050778389, 277.3157220989466 -4.239393985867501, 378.59074564874174 1.8832104116678239 M216.0864052966237 1.2700733229517938 C257.1582802936435 3.412391856610775, 300.912499345839 3.8779633077979088, 376.41420342475175 0.41351619213819507 M376.9761803716421 -1.9972804635763168 C377.2652199008614 40.411359914578505, 380.5845921733528 80.33644621558489, 376.2746292203665 164.2270963102579 M377.4288530066609 -0.6365154698491097 C380.83350921027363 32.31177256908268, 379.34646025054155 66.61177417002618, 374.75300886183976 160.490769867599 M374.65344773232937 160.97548727095128 C335.0232673704624 164.78972763955593, 295.2731742888689 168.5808091634512, 218.41499167382716 160.06308731138705 M374.6715524867177 161.31008635014297 C323.1401679262519 164.58489925950767, 271.74435007721183 163.2818702468276, 217.30695864707232 162.2008528277278 M218.94110022485256 160.64895385801793 C214.9627114019245 118.87444356437771, 213.04703118418158 78.4853245060891, 218.8406416028738 0.610812321305275 M217.046193189919 163.591470579803 C216.07642122645677 114.87068852279334, 215.3054824962169 66.49683487154543, 214.9155547335744 1.5425443693995478" stroke="#1f2937" stroke-width="1.5" fill="none" stroke-linecap="round" stroke-linejoin="round"></path></g><text x="296" y="81" text-anchor="middle" dominant-baseline="central" font-family="&quot;Comic Sans MS&quot;, &quot;Segoe Print&quot;, cursive" font-size="14" fill="#1f2937">Sales</text></g><g><g><path d="M216.04173906232498 163.95198470135432 C216.04173906232498 163.95198470135432, 216.04173906232498 163.95198470135432, 216.04173906232498 163.95198470135432 M216.04173906232498 163.95198470135432 C216.04173906232498 163.95198470135432, 216.04173906232498 163.95198470135432, 216.04173906232498 163.95198470135432 M215.3894151528067 170.00468663091343 C217.50524522461885 168.6940379357067, 218.06745624677973 167.01588701402676, 220.58774379952564 165.24600855480506 M215.9847574145979 170.49100555534045 C217.60896860216877 168.35979558537485, 218.7092635760977 167.27120936566615, 221.32971867545263 164.15524442564322 M215.61270929327495 175.23618148269117 C220.3517279905498 170.7269409323118, 224.22532919662152 166.41601580843158, 227.50388807108794 161.8453975960995 M215.11413585176953 175.1575865739769 C218.9905875353697 171.3043323668154, 225.4616805064505 166.55292910608327, 226.1815632562915 162.94426255676996 M218.44911009469797 182.31940526045202 C219.2629927858076 179.3480704644267, 227.2613220499368 174.21961979690752, 229.10351841339497 163.34100553835256 M214.9610676626282 182.22316682017683 C220.01026339046334 178.62206466492879, 225.0281341577849 171.4410014626908, 231.4455707002583 163.74694471801146 M214.32223822430967 191.08739005191939 C223.06152813268417 182.2238290837777, 229.72576222521835 170.82429434590787, 238.97686438039946 163.983435270069 M215.97998417572379 186.54221076234 C221.58623167325504 184.96432791007703, 225.6358295350727 178.2254473403596, 236.84929367379357 164.81785669612682 M213.4431037116496 192.76546772439082 C227.15996146912266 182.84346268292802, 236.67899793877444 177.17621479147263, 241.97099458013219 164.1816610077895 M217.53986924771945 194.13465935308534 C223.0103232770261 188.65950433360968, 226.25187943050062 180.60827721812106, 240.86058676872892 163.68619676032438 M216.51893746070826 199.11650682264343 C225.88277270352637 191.14191516036854, 240.26554917982048 173.81023279353744, 246.93669894557416 164.05634171606846 M215.54932097010578 201.15888894969004 C223.5367145719872 193.15499011921855, 228.7380529706248 183.8963774682223, 248.0003571055454 163.8993816876585 M217.04447037547618 208.11587589145455 C223.69111715368578 195.0484370973732, 230.7754250417027 190.7099359483779, 254.08803129374442 164.5594746803514 M217.2231874343732 207.7670259094313 C228.77451885469134 189.98602234119699, 243.94000527141645 174.7489628226078, 251.67152568876205 163.81741657607475 M216.53375627297237 214.61557221626973 C227.7564913709121 200.32287451524837, 244.8757672071205 183.60383085337264, 258.2507815576239 163.43671886519286 M214.51438964504075 212.96907533025478 C231.67595906408624 193.41183809746778, 249.25806286151413 175.871179124137, 259.6074996388598 162.37521820262762 M214.31258508617776 219.86125476164335 C237.09494107607014 200.7919880746291, 254.31136789395146 176.03854384194779, 260.8140035542316 163.26507155603835 M215.30633472258944 217.94995398921483 C225.27848116405468 207.30266984909733, 238.04525816191128 192.3391796138898, 264.0236999603576 164.12029166526267 M213.07001063211143 226.72992081302098 C232.16486391671964 201.98973798801978, 250.2418694168416 183.65747495524954, 266.57848721654864 161.0151917174423 M216.76444367153826 224.70716698425701 C228.48490234468727 212.30777031001628, 237.29866115133342 199.26737430005255, 270.26603377373664 162.57505374103428 M215.05076381476388 230.0469389151799 C234.85132862787768 211.81552959378652, 257.34472510728244 185.9406460668945, 276.50828636159383 162.48907663485025 M217.3285645833777 229.76784067265862 C233.3730914816971 211.77710615305125, 253.79299459636076 189.25128427030904, 273.36242208351575 164.47450952788805 M218.08707553812553 240.05017761289727 C229.39027985938964 217.92976443942203, 248.69712061073247 203.03817746554853, 278.1791909223483 165.48238527281669 M215.74479554959822 238.25285141169678 C235.70246499694724 217.79912817353795, 251.71200227875423 196.49468356896585, 280.271272010176 163.5285758028784 M218.03049961921545 241.85413419161864 C239.76913498830515 221.61183657096274, 259.90480014460553 191.37728933694726, 283.330254715831 161.42211491678717 M216.49730757471892 242.74095429931708 C234.3040597683454 222.05532680233247, 252.1006986114677 202.81700812541015, 283.23300455823636 164.65975766395096 M221.6806801649577 245.2387101345619 C246.9421008069052 214.36799364631827, 279.2063185833328 182.34494850124736, 292.712267675023 163.32892453131612 M220.13711195316378 244.4575586312374 C238.36057957269045 224.36004439970984, 257.10947985553196 200.5785799525042, 291.61852684817785 164.16547188816006 M223.29599390539968 246.40753146784087 C242.71339902837468 222.56979005951922, 260.21150369340484 199.19673707046553, 295.2392836169432 162.6548114018491 M225.1927026024803 244.03304824607153 C250.68256321825783 213.73609081169724, 278.48063437180735 182.71592577112688, 295.68075988451943 164.35572357345134 M231.6344356285699 244.26730505712382 C248.01458622609545 230.6206623986325, 264.24058035494227 209.05494139179845, 303.2370924745727 163.64543449294052 M229.41094149819688 245.1821378219878 C255.88898577170133 214.1652574646308, 283.29456505103997 187.8639231433475, 301.6031107877422 163.3154294968792 M237.92179526744937 246.56368986696526 C249.777802791747 224.776532030509, 265.1149153847593 213.04911647381113, 306.79474806493045 165.777791090036 M235.92523576079464 245.03974413604064 C258.66420757842786 216.78180428415936, 281.26588538618876 188.9362019057996, 304.851000562365 163.14209475638924 M239.9471266390571 246.67368318281075 C258.94429555281414 228.64696446504527, 274.40686177763814 209.27674232600302, 309.01304032099745 166.12254015768994 M241.9510063947925 243.1533722861757 C257.6266259306655 228.37694502977064, 275.2798930170143 209.7573035077535, 312.4203363288691 162.90813612903585 M245.3112196763741 245.1679439692147 C264.4825227229427 218.34406519190617, 289.83504768977394 198.58278744969672, 318.75602305979265 160.98167898134793 M248.2341605206715 244.0454390494473 C271.3127048746835 210.43888751367152, 300.2285522573084 180.02527291562023, 316.18903909177317 163.69855871276462 M251.37812819641928 245.04846951162264 C278.73401062641926 215.7537191680635, 296.04317042512264 193.40062685244436, 321.2434271853066 161.80557610578717 M251.60261914295057 243.05094952380108 C277.8942971523984 212.60397144104394, 306.3629185623264 182.73380391171332, 320.9094569425679 165.52798886485277 M254.9236421321738 241.3109187745891 C284.3768511462609 215.20513493408214, 310.18680021702494 179.80381743575404, 325.28248360152986 161.05710007578483 M257.61478938211087 244.87982048629146 C287.6712906917155 212.29769618044222, 313.4942046004177 182.37494566505026, 327.2401879727438 165.40480294257753 M264.0868153006565 241.7822890435596 C279.91027090194154 224.12146049953827, 295.93854732790084 209.84638152573717, 333.69974612548134 162.07574817678656 M263.5110922426712 243.054557034864 C289.1715298116989 212.38082414064507, 318.1581491709281 184.33779318339504, 330.77790318681974 164.99525604388444 M268.962378605858 244.6379488633113 C284.53627095573165 227.26872062010085, 298.74191254236524 207.22160754988482, 339.53350469014214 162.99467937334677 M267.0063758161222 245.62728552679587 C281.1476049221241 227.8507952725833, 295.65083510565006 213.82662599650288, 337.2497597052769 164.34051494582792 M276.0325629517687 242.6657667786215 C286.2985738065049 228.10129184562916, 301.2947367498095 209.27076644995762, 344.38531311253104 164.778390950911 M274.9217381939543 244.44388231936438 C288.48129209376845 222.9110735557509, 308.15725406205263 201.09386034286248, 342.2649285326341 163.69433474635358 M278.5989221554077 246.73024007493572 C299.6179594212941 222.54547410986717, 317.1635805392224 193.01306016889117, 348.8684613256293 160.78504187403368 M279.8163503806866 245.208102510515 C297.21088447122594 223.06298152683945, 315.08358677961917 199.20298424826237, 347.1630667893725 162.8853822225158 M284.97474614975596 244.08952771680842 C301.36909809430824 224.21526584007856, 317.8883482033898 207.01924701350313, 351.7595031464558 164.0041294281604 M284.77986949679996 245.19861287730228 C305.98418395750144 214.1426783415838, 330.21058514123666 188.20175599520863, 354.765845480011 163.1549124722602 M292.0365887518324 244.83312698968516 C313.0541392831809 215.53769507715845, 340.80000446169333 182.9379157734667, 359.6467285079915 164.61881257784563 M289.58396654681343 244.7066685176717 C305.2298066926524 227.5844275933069, 321.05036815476666 210.43330978299105, 359.6254217250306 163.31909227264123 M294.8727398946182 245.84419685812034 C320.540848500985 214.91219091400845, 350.83368199662283 183.8641277548917, 366.8816912272555 163.64358860853483 M293.73079865120803 243.19843620867766 C318.46090732760064 220.5274349380415, 339.42860292932266 194.66459292926794, 362.9759665289504 164.80667672160436 M298.73475339513215 245.23723460755954 C318.5709617229382 223.0866014583587, 343.30134980347435 197.60293529607753, 371.6276812372287 162.4866164847825 M298.60453681450275 244.3526710482658 C322.67656519120874 221.97417951217415, 342.73698421631155 197.1024670808073, 369.38213701225123 164.6213325962041 M303.0859191863554 244.72039920255727 C318.896452123113 224.29110391908165, 337.77217136864334 207.32755428809148, 375.0112523549302 164.58739349203427 M304.1198381571787 242.62303981349058 C322.6944855117443 222.34570538707587, 341.50635305262006 203.0143584313809, 376.0906041794522 163.57931499438604 M307.15279108530683 244.83318792855897 C331.41118929069967 220.89414253189642, 346.3625823113293 199.72077842395151, 373.3782813104074 170.2620456564038 M310.8733736837546 244.27579760229744 C331.59336566618686 218.53045003326673, 353.4018208161776 194.35762135441388, 374.6861119481008 167.7547577547639 M313.1736590249676 247.30875975011918 C334.52128922574 228.11054149928276, 346.41089628246044 207.60649578264446, 377.6227351236128 175.29210320177748 M316.79230051471177 244.35211119174096 C327.44508546204247 228.6888015073436, 341.9956633866015 214.69333368848908, 376.62024452564947 174.468448913724 M319.1500768223566 243.91161195268342 C334.3571930818755 227.6994259161192, 346.0463236925443 216.63592437958678, 375.7457856695464 184.24514425315513 M322.48578965456903 244.50573567976662 C338.57425281513923 222.63038299252764, 359.05497304377064 200.82963942990392, 375.57054097459826 182.60847440876617 M328.49533441045475 244.3999035008061 C339.9270621993978 231.4665576936996, 353.8785738850839 214.28711181103634, 373.8482228811894 187.99182777509122 M327.89349822380734 242.76533784342885 C342.7280817561413 227.0024146484682, 359.18850873734755 210.52980479241737, 375.4329084154282 186.34725101694494 M329.98598560628125 246.16313167993283 C345.1847805774886 225.59930981182353, 360.85110160945413 210.28460021689654, 377.39410057556057 195.83415105303138 M331.2370972269459 244.97217278067325 C348.07215234214664 227.03229035830392, 362.81109162108436 206.11712944161465, 374.58526785265826 194.6697838362059 M339.410320342817 242.98445545461803 C354.3427685044842 226.43665390472123, 369.2349096793574 211.33492038128435, 374.6031496566505 200.22248263175283 M338.46874378446546 244.94240726855426 C349.46985068417945 227.70172347689035, 365.46490118221504 213.19297305767773, 374.67996737777895 199.49069922382625 M341.11989243708103 245.8783721103072 C352.3426117998769 237.20788135631284, 359.4596615950911 226.85209776468602, 377.2826010284497 206.61969105603265 M343.02260890088525 245.50479640501737 C353.71230531619517 230.1311175359989, 363.9206170401293 218.0883087101278, 376.47560508228077 205.71837353708312 M348.8779918220542 247.05304061155493 C359.4999251137998 230.45335333672597, 371.02887293755134 222.12020485942514, 378.45900850797705 212.1652736113166 M348.0633496966861 245.06300696711713 C355.15514990259624 236.57246626424435, 359.45559568703675 230.51413918349718, 375.6688519706827 210.11906187392225 M353.8111723147557 247.14795824380667 C358.5893288474934 236.46900829654126, 362.09882971956785 229.34527453298952, 374.17066202821377 215.19238926215894 M352.6376371763871 245.83329405279906 C359.7549667471858 236.70190588354203, 368.5810598310196 225.95280575884192, 374.8868651634658 217.43393101139793 M359.6577238481664 244.79628397161684 C365.51812782544494 236.8916173159535, 372.8184415115377 230.97682051136402, 375.41911540617866 223.2655352940053 M357.92262846046924 243.60682443911753 C363.522487544435 236.67380112813368, 371.1974639300439 229.2469255769941, 376.23881566514893 223.0167360474557 M362.75485199046597 244.6481953547984 C366.49696027589147 239.48104303239865, 369.61165075523866 237.55948373861457, 378.6183874092361 230.66453316622858 M363.00023158890474 245.52679159120615 C367.2454849432321 240.3936796554187, 369.87662820923885 236.95896682726726, 377.23775432952846 229.00514259958152 M368.4337796463514 245.64432905742402 C370.53403087350966 242.2112278804416, 375.4435040411651 238.41590673598674, 375.65994650141033 235.6435118150797 M368.3694302814151 244.07613421478743 C370.6193694455695 242.43282269257597, 371.81143004424234 240.58274145917449, 376.4532255868677 235.6982459256139 M374.21847902275806 244.1272820204481 C375.05706209572134 243.76571675342922, 375.0858530417341 242.68387747825284, 376.31496286098076 242.3983429274543 M374.26860037096026 244.33488109022224 C374.5024455420798 243.77352975120675, 374.9910932846645 243.30520603821708, 375.9805285928042 242.28178377693735" stroke="#3b82f6" stroke-width="1" fill="none" stroke-linecap="round" stroke-linejoin="round"></path><path d="M218.28648606538772 166.96886233091354 C249.15645270347596 162.57149326562882, 279.62096279859543 163.25414135217667, 374.1209941983223 163.3109472155571 M216.6485403954983 164.09343109726905 C262.8777070581913 161.61652247548105, 306.2833324611187 161.17061774373056, 377.0856045663357 164.0180215895176 M376.2349071621895 162.40362604856492 C371.8069670295715 183.87439008355142, 376.2327967262268 206.30041534900664, 375.2995056271553 241.63612841367723 M376.3051373422146 163.6846460402012 C376.4466225492954 185.18188918828963, 376.5972239363193 206.34808375239373, 377.0040118157864 244.65435982346534 M373.1379303097725 245.83398302793503 C330.9643564939499 249.63963685274123, 290.76423238515855 246.16107888460158, 218.15332223176955 244.6174497485161 M374.76206998229026 244.68011513352394 C328.4535572350025 242.00653234601023, 279.12580010294914 243.4691603291035, 217.20927819609642 242.66780377030372 M214.58813363313675 245.3986051440239 C214.6552650499344 216.03938094973563, 216.36769142627716 186.39401173591614, 216.58752213716508 165.8810830950737 M215.79492425322533 245.5886274397373 C216.87024713635446 224.20958726406099, 216.90899549603463 202.22645162940026, 217.22073964476584 165.52339249253274" stroke="#1f2937" stroke-width="1.5" fill="none" stroke-linecap="round" stroke-linejoin="round"></path></g><text x="296" y="204" text-anchor="middle" dominant-baseline="central" font-family="&quot;Comic Sans MS&quot;, &quot;Segoe Print&quot;, cursive" font-size="14" fill="#1f2937">Ops</text></g></g></svg>