<svg xmlns="http://www.w3.org/2000/svg" viewBox="0 0 440 300" width="440" height="300" role="img" aria-label="clean_blueprint"><title>clean_blueprint</title><g><g><path d="M39.27236659972859 267.5440154988015 C115.85304735451746 268.37002383837654, 190.45246728526993 268.2778106273699, 415.4339669724329 267.5437080685697" stroke="#d1d5db" stroke-width="0.75" fill="none" stroke-linecap="round" stroke-linejoin="round"></path></g><g><path d="M39.27236659972859 216.7106821654682 C115.85304735451746 217.53669050504317, 190.45246728526993 217.44447729403655, 415.4339669724329 216.71037473523634" stroke="#d1d5db" stroke-width="0.75" fill="none" stroke-linecap="round" stroke-linejoin="round"></path></g><g><path d="M39.27236659972859 165.87734883213486 C115.85304735451746 166.70335717170983, 190.45246728526993 166.6111439607032, 415.4339669724329 165.877041401903" stroke="#d1d5db" stroke-width="0.75" fill="none" stroke-linecap="round" stroke-linejoin="round"></path></g><g><path d="M39.27236659972859 115.04401549880154 C115.85304735451746 115.87002383837653, 190.45246728526993 115.77781062736987, 415.4339669724329 115.04370806856969" stroke="#d1d5db" stroke-width="0.75" fill="none" stroke-linecap="round" stroke-linejoin="round"></path></g><g><path d="M39.27236659972859 64.2106821654682 C115.85304735451746 65.03669050504318, 190.45246728526993 64.94447729403653, 415.4339669724329 64.21037473523634" stroke="#d1d5db" stroke-width="0.75" fill="none" stroke-linecap="round" stroke-linejoin="round"></path></g></g><g><path d="M54.45111534130207 267.9895768797636 C54.45111534130207 267.9895768797636, 54.45111534130207 267.9895768797636, 54.45111534130207 267.9895768797636 M54.45111534130207 267.9895768797636 C54.45111534130207 267.9895768797636, 54.45111534130207 267.9895768797636, 54.45111534130207 267.9895768797636 M62.5604743335882 267.280277655223 C61.49016365974235 266.6870337408588, 59.68233369050692 264.91004578498246, 54.5024521828108 259.3449719742103 M62.76564814024808 268.34509893416015 C60.19624683306299 264.82825005331426, 57.09250905461862 261.98794521869087, 54.12178157642861 259.8341312994598 M71.82800622737068 269.05510655815306 C65.4376262324272 261.2948942550942, 59.12280146753732 257.30519187046104, 55.44840761740138 252.11447372176616 M71.96648302549528 268.26862883126887 C66.80145269824718 263.74161613427606, 61.73175482459141 258.8014757152063, 54.64427546896418 251.05153650958954 M81.0638581968737 267.048310567686 C71.9955400603479 260.23799964329027, 62.44618033734923 251.0329158955189, 55.291039446186325 243.31019962549314 M79.72100071999105 267.5750439659372 C72.31156912384934 260.3698647203831, 64.69204068216499 252.83498368384625, 54.8034644488283 241.97750215631083 M87.5059040903269 268.4284175770968 C77.93662600474164 257.4747836760705, 66.60833798038678 246.18739104222618, 54.12063912470273 234.4309999158168 M88.4745424241914 267.5694315508619 C77.45417534403047 256.16970563772304, 65.7661158295666 245.288705256312, 54.4270521942564 234.0962803411791 M96.20708580226155 266.9536185043544 C84.13262014204534 255.81478943184203, 72.70087162443332 244.4550527903363, 54.57022667248181 224.7862373857059 M96.90093015958072 267.5145906583086 C87.73241685539189 258.4550431470436, 77.59397508257938 249.35362838753298, 54.870696664232824 225.57320919895997 M105.49729835220886 268.1864011424273 C91.17273109015592 254.58912950090783, 77.45126424883928 239.88731934160566, 53.56227523405482 216.67707170312917 M104.83238438514334 268.5242969230428 C85.37798267460504 248.47350009524826, 67.10547176869719 229.15327461023503, 54.84220425524195 216.93085342691904 M111.68167632232708 266.9668365969114 C89.82418079338213 244.55901689679183, 68.50936589029838 223.43506305194327, 54.42121107895305 207.48395941105534 M112.68906043499064 266.80533897995724 C96.59589971795077 251.10596632989808, 80.45805934258595 235.53619468536442, 54.24527980126818 208.70525428482193 M113.52466673265499 258.27165216128293 C91.08055479789034 236.37827567342796, 69.99773772141863 214.9131148517246, 53.78591360170773 199.75415392745325 M112.89437139361453 258.08534133932505 C99.17958906622746 244.71280419757522, 85.4585680285556 230.32889447801475, 55.02327657379589 199.70217959493436 M111.33309178958933 249.87229406537605 C99.36762098795403 235.11705750445972, 85.21856591942569 223.82507595754544, 53.72221532185008 190.88920554529156 M112.48930084436486 249.23957713527724 C89.1454762422123 227.35115622216657, 66.5220115312768 203.6773390689665, 54.20294628180941 191.85337374202186 M111.26965901266138 241.8234376021597 C90.01905436352708 218.87035110883346, 67.27247330326185 197.11491415734048, 53.4354018839114 183.23246143253903 M112.37716299622606 240.94822825257958 C97.22142990332436 226.9450974645524, 82.7807906364451 211.43787002237636, 54.338189071793174 183.67280767335006 M112.13652904640236 231.62155493960248 C96.90636228353094 218.1785090839076, 82.42106218027557 200.7201082468952, 54.182712057422904 173.75656563216444 M112.83842049568244 233.02370313849764 C98.96341487644497 219.96323440435216, 86.19313325434209 206.64659127626402, 54.153803527731505 175.11292889868463 M112.68781566034359 223.09241512067322 C93.59807652843772 205.44008126429222, 75.12332043511292 188.0616954149936, 53.38583773691586 166.55095906213654 M112.57443442671847 224.46688680279706 C99.44423435302775 211.65942981675383, 86.2641067571238 198.59236416151992, 54.189236671108816 165.8209114902912 M112.94208574901623 214.8785840633406 C88.39775017792917 193.02028060501434, 66.6904786342239 170.56959735343096, 54.3434239419215 157.70937951542405 M111.95121431081843 215.32339081774344 C89.7357669563978 192.97562962725618, 67.19633746797521 171.58811667850267, 54.642333960909454 157.5949060829353 M111.89485933195154 206.92692456057344 C94.99227706999568 188.60472333334806, 76.58740199148521 171.68943291536766, 55.543568816971096 150.21736165999576 M112.04316810696672 206.7398033181024 C97.08637253155878 191.07125138319518, 80.91003295871742 175.94284847636564, 55.01308929361782 149.04028987388267 M113.63110955368082 198.57609628034044 C97.50853956085002 182.61998097999117, 81.4320782199823 167.44591023837424, 60.52607109990171 146.1894845071262 M111.87685221164773 199.21993900113958 C92.53102173800657 178.30166888365366, 72.00774499343862 159.09474883378402, 59.2971424715241 145.3756640912047 M113.03776268373531 190.2440557656104 C96.38611900269333 175.7757225286149, 82.95289206330288 160.06953294750843, 67.88122162287152 145.64316291241107 M112.27472145884585 190.28108912662066 C96.52586977659783 174.75920488645983, 80.83030317676429 158.37354928735488, 67.9158207037396 145.37539549479393 M111.51619811664622 181.51555643435205 C98.39410058031636 168.8778530055223, 85.83488963603995 155.63919824887554, 75.604943999479 145.22878826288638 M111.89887912004542 182.31027151681118 C101.20873352900443 171.02868317811038, 90.653729319521 160.69251292772955, 76.2025292933159 145.66850706348328 M112.29474837194485 172.82964857953408 C102.96645238924332 163.81196234838964, 96.71475321449634 156.12524151093058, 85.66814887425546 146.77408272652087 M112.29482690423083 173.0204805564768 C101.60287697208399 163.28632373928738, 92.13346128646386 152.88776799848762, 84.50335588673745 145.85178224453836 M112.14119909416239 163.5671793691253 C105.20696341211514 158.51550794672843, 96.59320372744611 150.16908331931802, 93.39370001673208 145.83606534628333 M112.73521495788644 164.50693719288313 C105.95718663276276 158.7317514565303, 100.6037897245333 152.1095778811828, 93.68528656798856 146.2104810477248 M113.21493463927234 156.17039599764314 C108.8736095178942 152.1466122610609, 104.03077399841352 148.77351993973662, 101.03350316128032 146.3564399637295 M112.75616174839723 156.14418056491917 C110.0719477702578 153.59733975909307, 106.88955741229024 150.64194327484094, 102.24178431411543 145.89596846760384 M112.26097221018102 147.6446999556045 C111.66820550359223 146.81811039821395, 110.88712650357189 146.20187797941426, 110.16937766797005 145.8175365144773 M112.419513885866 147.72992694496503 C111.97192174656895 147.35370415870287, 111.5369462795664 146.84753866410574, 110.38977790439597 145.67734903012538 M112.37210022332589 267.9355920843664 C112.37210022332589 267.9355920843664, 112.37210022332589 267.9355920843664, 112.37210022332589 267.9355920843664 M112.37210022332589 267.9355920843664 C112.37210022332589 267.9355920843664, 112.37210022332589 267.9355920843664, 112.37210022332589 267.9355920843664 M112.67732473487476 258.862707685958 C109.70685558986865 261.87133636313484, 108.4867845025064 263.72035310631986, 103.47395178453678 268.02951916626427 M112.40839824980567 259.1123469156208 C110.43642594460485 261.54147923640977, 108.70927454236836 263.40148538641847, 103.86408086506331 267.63036526242973 M112.53940484235507 250.9262944926799 C108.24028599447672 253.73356562346865, 105.17539202348685 258.3955243756475, 94.50174272530569 266.74323689079614 M112.89763384489785 250.99847623587704 C106.94109301353616 256.65694730413486, 99.8696922528145 263.1947463993597, 95.96454715323492 267.3757774622995 M111.30113190124254 241.76787267606997 C104.99210550880329 250.17016751161734, 98.3358763030852 256.53068195750876, 87.6953228856626 268.66837334966993 M112.16312909154665 242.43424584530587 C102.42882787205302 251.95187930051105, 93.3719176520398 261.9675248911602, 86.3520598766583 267.61966570335215 M111.85994643876772 234.21913217965044 C104.07848302904654 242.45839680899581, 97.80817534476095 249.7423586299391, 77.91598320043846 267.97964376545286 M112.41677188305627 233.94015343233474 C102.39727840289108 244.3082119685713, 91.85438504449137 254.1776660149898, 77.94973552580191 267.6381413848955 M111.34925909946183 224.74529517139013 C101.14695337484895 237.75196104846867, 90.38694867033419 248.28088722362548, 68.95221243916451 268.4184421811137 M111.92339986591111 225.09423244422936 C103.96940889642244 234.46475775818672, 95.27282975050056 242.85933619076022, 70.16674768465012 268.04927701669516 M113.45443365285618 216.7408806942577 C95.3680838172059 232.12726645404504, 81.26174199162013 249.04744552175728, 62.55695249637204 267.04295951462126 M112.46874912409557 216.76299289075533 C101.20682163382546 228.0566600837306, 91.12191833696761 239.04273954712284, 60.92691837468731 267.6658716710169 M112.92528699348193 209.017204666222 C90.9836830052681 230.0376387798086, 72.23564968459083 249.5778235515967, 55.174311953965336 266.5014699965711 M111.80320417909395 208.15767134417828 C99.73066879111637 220.8690284125227, 87.1425165240218 233.72139700728454, 54.326681617270914 266.93748742025303 M112.48858914087039 199.88987988025173 C91.88686678175671 220.60411063684163, 69.09513338858075 242.7434581276128, 54.08049320596804 258.29140404543966 M112.28554798989069 200.49048093926385 C95.75782228528087 216.99326841931716, 77.99074390252623 234.37559157212183, 54.7072605583777 258.5782722121769 M112.16056323955279 192.46631600431562 C88.66368416990309 213.39655838886978, 67.38509619166072 236.99912154869173, 53.32572971004595 248.6174110160612 M112.12671195297014 191.63086137327758 C100.89867868056173 203.32954101613907, 89.23238537939386 215.4782208109898, 54.72785472012659 249.39377261841972 M111.75938555906039 181.93321958138242 C97.37291185018134 197.91931708972652, 83.29998082975345 214.1572328132184, 54.845775860730306 241.47986932640435 M112.83352590231668 183.3617289059852 C89.5205132147812 206.1891201071496, 66.25830045009772 228.74509937039875, 54.808379874001936 241.13819396124694 M112.21768549392445 175.2440940294209 C97.31344996791387 190.68056025422922, 82.08403437821113 205.0243685059803, 54.303339177552374 233.03345426943798 M112.8524681094147 174.83572635965226 C92.7142761534943 193.8319953075918, 72.58559887647334 214.53818236931122, 53.90215022898814 232.84171812542428 M113.29504556367618 166.4067396413998 C98.38786122911128 180.0989882039704, 86.82377833439482 192.8790201572196, 54.40058030504337 224.07463801313077 M112.61341528324856 166.23147311904444 C94.89138872496046 183.56133808701253, 77.34188738051895 201.27258078353535, 53.939628431569545 223.86675355821734 M112.49050141284685 158.57075358528797 C97.89112777600447 171.06231959376726, 82.49156239400072 186.77528886828807, 55.39161301273456 214.52918960045153 M111.7733925703026 158.20981513142738 C95.00820071598908 175.0602096260612, 77.92717056523028 191.71582597753408, 54.07217556573054 215.16418526939177 M112.35504181096773 148.915029904054 C92.77126773220643 169.4236333918306, 73.24545834858334 187.39994993945515, 53.995004195157186 206.3396749493689 M111.86032355456125 149.57007490656662 C97.86529272413614 163.51361726803617, 84.57301361730082 176.8500657054684, 53.91580115295549 207.52962483121314 M107.25436118426424 146.0850069839725 C89.63449955189186 162.17957431275659, 73.30727826378802 181.57780447384627, 55.50627387184253 197.95295685285177 M107.36703278920305 145.25604898503366 C90.44225809983165 162.7277096274302, 73.7291539900109 179.53942947898068, 53.7949131522288 198.05966037844712 M99.59506811464068 146.16645905563922 C81.7362595742675 163.91048830836377, 65.28979681112676 180.97561009097473, 53.51039518732181 189.60769497886878 M98.50870429558543 145.09854943922105 C82.31476457642836 161.3997041679617, 66.23063592735286 177.84988325114972, 54.386067960034815 190.40810660835933 M89.69454465256108 144.61563688109015 C79.68411880759687 154.37534663494165, 72.10567784665331 164.09099519933983, 53.99429441112628 182.6218458703887 M90.22399087612553 145.1142945604617 C77.67582841882732 158.89337169136783, 64.94011666045395 171.60368185748652, 54.56172041035792 181.64225478071535 M82.23659206755667 146.00362200329397 C75.4687989551614 151.00538554719893, 69.46406385801025 159.48052526928905, 55.0593509377872 172.68016294538032 M81.96190986480772 145.61901310852113 C74.51115459109295 152.75849623663956, 67.36202253465794 160.06001295570275, 54.63397377468249 173.69912271778088 M74.31946475415872 146.56829284021947 C67.78987058938958 151.7873256345989, 62.211559565823634 156.82763674208817, 54.23389728683583 163.52169649681238 M73.26112703311638 145.94816040566508 C67.35527694246088 151.62371907109465, 61.005018084055855 157.4015121282607, 54.19832976199291 165.0417048043215 M65.12526414488065 145.52789824839996 C62.97163428102633 147.75345859684862, 60.21980747668965 151.3720933864911, 54.53662536860978 155.6236504337132 M65.14426641348372 145.68640598726773 C62.41378061874616 148.10146396123304, 59.46728537301583 150.7690882190712, 54.23041493058739 156.13959665492513 M56.651260204946425 145.5809295539962 C56.02082140828062 146.17620367456016, 55.04416000980614 147.06217302019343, 54.516125814407836 147.60438817663626 M56.49539401045795 145.58385540054496 C55.984190021199645 146.1450249712183, 55.646299515044646 146.46527894458978, 54.43066983547598 147.79882915686392" stroke="#3b82f6" stroke-width="0.5" fill="none" stroke-linecap="round" stroke-linejoin="round"></path><path d="M53.26204494194918 145.248315904662 C67.08962353780295 146.16603619068195, 77.65112127733347 146.014023997479, 111.37459475034133 145.24780911020935 M111.6589015767838 145.82262831516564 C111.3167997535716 188.2695910612121, 113.15109394159421 230.91885673999784, 112.2325483010079 267.12365333624183 M111.56185013287917 267.85237959437075 C93.46677368389301 268.3110968036411, 75.31490592936485 268.25269155929067, 55.50183902935915 269.1487092714757 M54.56203122319512 268.48609792776404 C54.03500829097711 233.96503795962778, 55.43267261144601 200.20947672501205, 55.47930396975808 146.55884726829828" stroke="#1d4ed8" stroke-width="1.25" fill="none" stroke-linecap="round" stroke-linejoin="round"></path></g><g><path d="M126.66740733566213 267.89817656643135 C126.66740733566213 267.89817656643135, 126.66740733566213 267.89817656643135, 126.66740733566213 267.89817656643135 M126.66740733566213 267.89817656643135 C126.66740733566213 267.89817656643135, 126.66740733566213 267.89817656643135, 126.66740733566213 267.89817656643135 M135.23734884481223 267.8075488812421 C132.668586170621 266.04790443302466, 129.50047869868118 262.70933069063807, 126.21179229738642 259.539382584976 M135.4204046238521 268.25305891431316 C132.80855496570308 265.17555488626607, 130.1944501938442 262.5539449073455, 126.85674017580678 259.73842181383253 M143.93091652710098 267.91592477030497 C137.42626307526754 262.6002427807959, 130.3513365653499 256.811170419743, 126.60716993691852 252.00813906421678 M143.3177471535291 267.61709308243735 C140.44692293029433 264.7315327929282, 136.76390396022802 261.1965794852458, 126.63101891013315 251.2219251074435 M152.24542143878463 268.36530078119984 C145.5027660507346 260.30960844093795, 138.1841656956179 254.41303777179533, 126.42732059838703 242.81543743622456 M152.16787003663305 267.68156752205834 C142.97059533683213 259.14785840277824, 134.4339914034786 249.85085150387906, 126.29866345854929 242.40664032858763 M160.10986226355416 268.5711373633836 C149.26599991072757 256.028784505492, 136.60341718280642 244.7843679381543, 125.77543451669145 233.53710653577136 M160.61687750225644 267.5037247619723 C152.27516006615903 259.21946617355934, 143.9375385491938 252.14705509436874, 126.21133516760993 234.0974270218997 M168.1561725951597 268.5999384231065 C159.63488716066425 257.6611957308493, 148.49229515806704 247.28661730094495, 127.31782028558183 224.75527526910724 M169.37770900352444 267.78390659905415 C155.0186993694272 253.7208578711557, 140.6525024686821 238.48269184275554, 126.88978599044013 225.91181448425473 M176.87566102735116 267.60883286661846 C161.67077644048928 252.0382690629221, 144.53448038625797 234.467294930993, 125.48016149880817 217.04269754248224 M177.058616493562 268.252142330179 C166.65398164757102 257.5405552909935, 157.23664078263207 246.75439776421985, 127.20008038016488 217.2470195125278 M184.30479759150543 265.7313610377964 C166.3141403384791 248.3241520296705, 147.89523828436018 230.80909118496325, 127.14751675012042 209.46275226214624 M185.19895086312096 267.0039351898488 C162.14740385327318 243.9924454887718, 139.24849290508794 220.3713273758222, 127.20359528990915 208.02994640359378 M184.6967866318802 257.3490475933979 C165.4076318848514 238.8731235119373, 147.31150574522349 219.65431880633037, 126.76431963326861 200.4694433343493 M185.09073481583397 258.42183522544605 C172.02440412858894 245.41617490517214, 160.34225186023804 232.80500700037717, 126.20702017279794 199.46718695432776 M184.5921295540909 248.96196425153852 C172.8392977534193 236.76368586883143, 160.32510659266103 224.42900730420348, 127.03437874200273 191.20739966534146 M184.7992256166915 249.69600204571128 C172.0917545556475 236.9773233762973, 158.6324248419605 224.03187658573654, 126.81235698195626 191.19502046160466 M184.51963495188753 240.28973991846814 C164.53734567415057 220.60271868789746, 144.88263212447288 201.0521698339595, 126.02087767007284 184.01187516137264 M185.01392521881857 240.57521494751944 C162.2287309669537 218.69729427630398, 140.583764142752 196.86194096604876, 126.96692017050914 183.22941372229957 M185.1674864190201 232.24262850043687 C171.6433212315621 220.91992562350924, 159.37292877560998 207.99456090040624, 125.84637501122882 173.70874872869297 M184.16964807534018 232.38794072774562 C164.95743498091653 212.2880416983486, 144.87859117931635 192.27049903276523, 126.4133366915815 174.31602103328748 M184.0832425492386 223.0215089036946 C162.08057523580734 200.30135008073108, 138.2813466703705 178.09797322275278, 126.99280435922077 165.31452427355228 M184.89652113938132 223.99233368326472 C172.0292441284808 211.25534829046842, 158.9657484776562 197.463923428981, 127.13954599829843 166.2801841914433 M184.37383693629306 216.21788503449147 C170.49863714234405 201.4819692385119, 156.9440208752831 187.07773959101883, 127.40147430779865 158.13633070220067 M184.86998386406702 216.12623561095182 C166.9940180370555 197.8728865011856, 150.37506377275784 181.19897971079538, 126.62880004378488 157.5769324936421 M184.20557817393345 207.31388579907735 C171.75840012786244 192.7176102093126, 156.3222864446844 178.98387899531178, 126.37306845071245 149.0719219208881 M184.46078820252222 207.35717580768187 C167.08408980828636 189.13967212467895, 148.93970172503904 171.67864023115945, 126.70966328116585 148.84098273675886 M185.50414985590973 198.9822651037023 C163.20355858041606 177.978070300162, 142.49781889822773 155.21791987426028, 126.06764538171224 140.70967683586463 M184.78499860787193 198.4323710703299 C171.27903337376227 185.33641780186608, 157.62343313451566 171.47093949941757, 126.80601266356639 140.0367392176686 M183.454610575972 189.98640185461633 C168.28131866880236 174.68109649833764, 152.34463808596644 159.9181728963977, 125.80463869454792 132.62859935338022 M184.55399203324117 190.6287256957709 C163.36849833972514 168.03173340696264, 141.13562527834875 147.0673300607047, 126.78703764411142 132.40829373324635 M184.80139392787018 180.8802999580694 C170.28520791632198 166.20865721252483, 153.740455000519 150.9445399397272, 125.96285698296954 124.69831837968485 M184.124457931755 181.70283148087984 C167.0642554749859 164.17248876447377, 148.17475016035542 145.70450797453202, 126.217240175926 123.229425580367 M185.34830850535434 172.50858832031156 C172.16350689354078 159.65518071447877, 158.60570403429003 146.85735309784278, 127.08048384072713 115.57908782102855 M184.74839825653834 172.6409677225318 C161.52212476264359 149.34910724276304, 138.5266095753496 127.00600342097803, 127.2064347121351 114.95360155590566 M183.4585379021744 164.50652084759275 C164.89852675681732 143.34534315772723, 142.5444601793224 123.69680235995645, 126.55507786157062 106.02178658366132 M184.2231274607162 164.8091012176017 C166.93385439462014 147.3573481230372, 149.38077928818998 128.86852825418643, 126.45974820586373 106.36397595673729 M183.9546407120804 156.19997644616302 C168.47015912167157 139.02415628353899, 151.84548704220626 123.61052145840713, 127.34357263925006 97.36791857383315 M184.54127249741356 155.90288626296459 C163.80223449298893 134.99024802992477, 143.77857097919033 114.62676565702583, 126.52762011023691 98.12339057973688 M185.21855052882233 147.50545902227233 C166.3287822620938 128.9816530167076, 149.2236802817935 112.44681070285017, 127.46227676751545 90.04961269779405 M185.14077281975545 147.8976646554954 C171.73642489305018 134.9949382343764, 159.73637400024813 123.13820141704431, 126.6558023783796 89.92437472177944 M185.49157594615022 139.83009748217071 C163.03367942444717 119.00457469575454, 141.89253527610032 96.34037356345993, 126.28687384011675 82.089622861794 M184.5548803808669 139.3984656920692 C170.20538609373443 125.66458608424338, 156.5719345493298 111.14791358112902, 126.83535946341684 81.23914517973995 M184.37440055781406 129.7716457321082 C164.45732053030264 111.3374442688227, 146.55668182135832 91.46164286303998, 128.17374279436368 74.52264831564267 M184.46215963387291 131.190006169561 C172.4433538037067 118.47119116283771, 159.6005513951133 106.51208979260488, 129.17398866203325 75.39092659405311 M184.32708295756382 122.01848267833472 C166.00334956491008 105.06048166634805, 147.64446415595822 87.2092887851672, 136.7599579111254 74.69533365270931 M184.13648753189844 122.18669038484573 C171.9485542592906 109.65379884761578, 159.43629679144587 98.18874644645197, 137.14602011447312 74.30395144871314 M184.9690567391495 113.4496122271003 C174.8273145887171 102.72885531887512, 161.78026198874747 92.70106140878585, 146.13536675347314 74.83834674856504 M184.49705352806845 113.78261013479846 C171.56847473399353 100.77474797706763, 157.6132411763395 87.72993054566481, 145.7144947431825 74.92553800991615 M184.5791304963211 106.03466328465493 C177.06311708471313 96.91386886077674, 169.07012523359063 89.774162799144, 154.51315291515675 74.7369415094598 M184.95835957550804 105.80154471629413 C177.13871295473098 97.77685620755116, 170.81166705969332 91.72626952958504, 153.95172700128643 74.94665307453711 M183.99548782282872 95.73388975724862 C177.82828016197567 89.43459347701504, 170.98747619262713 82.09731333426564, 161.76587498992635 73.86699684164365 M185.08022012734216 97.24696092620776 C179.945709766984 92.74703074854654, 176.1172368830351 87.5670172037395, 162.7253438419099 74.38795093945106 M185.66241111644905 87.82291473082726 C182.00990324791653 84.68713390494219, 178.4361053416152 81.36387265978891, 170.939949970476 74.70316708392342 M184.99938219950897 88.2540651155961 C179.59028577033195 83.1305104690443, 174.3348439224647 77.9031330390161, 171.5316272097897 75.13518599658151 M185.05143810102146 80.17920565141996 C182.98595389607692 78.42815814610925, 182.16731185395682 76.84918755365045, 179.83440303982775 74.55006189233501 M184.69260497526628 79.74539232260247 C183.2458926985648 78.63095979723803, 182.12367747271742 77.41173530835202, 179.88535090514998 74.75446886180777 M184.58839221768602 268.0269923976987 C184.58839221768602 268.0269923976987, 184.58839221768602 268.0269923976987, 184.58839221768602 268.0269923976987 M184.58839221768602 268.0269923976987 C184.58839221768602 268.0269923976987, 184.58839221768602 268.0269923976987, 184.58839221768602 268.0269923976987 M184.9576240002416 259.849086763869 C181.8283719621542 261.96404592170273, 180.3787906655655 264.3900673428032, 176.09377521648767 268.1069434211581 M184.47155454658494 259.43048930258584 C182.14561356329625 262.1701579038646, 179.37561092482477 264.8595112808615, 176.28380379482869 268.17644851991827 M184.40243260138257 250.59979106568065 C178.68976002267874 256.6681181980805, 174.5270608868522 261.9336569945516, 168.31089426315324 266.95766088584355 M184.00145013653264 250.77523029379813 C180.20124188265814 254.79784860804986, 176.43484319719613 258.27140900615836, 167.8395845640351 268.36717475423507 M184.58334681265578 241.42440205975873 C175.41942130181414 252.06148813879267, 167.91705937977991 259.2374416745964, 159.8913995367113 267.3449366770118 M184.88024123035893 242.41483900859458 C178.00079812147303 250.01509563724775, 170.87925861777026 256.4252177520345, 159.5186121669236 267.7258096552818 M184.1003297495149 233.22246581262587 C177.80179335017326 242.46838698018536, 169.1406230270234 250.11921337022977, 151.51725087960529 267.8323253832191 M184.60703800045474 234.136446929934 C176.09931549511143 241.6204189424029, 168.85052986627915 250.25405183075665, 151.07616302420664 267.6804574347466 M183.86656500571 225.47923623053208 C169.68476184793056 241.54281874789766, 153.53302710378333 255.99558651206436, 143.13600688558523 269.0207059107154 M184.50415489994512 226.1810208546914 C168.41108311640232 242.6257389271067, 151.21354240732438 258.9942352941436, 142.74236408900921 268.2892723895042 M184.05461117499098 217.37059221972734 C163.99359000495855 237.66391261637384, 145.78098946386137 257.5342356306155, 133.0546011484011 267.3015821657508 M184.089218881955 217.51921507974177 C169.96833714406273 231.54076549219337, 156.39221988473497 245.3387905579176, 133.3926548144563 267.8900963164299 M185.5964018511079 208.66303768646168 C164.39621692509576 228.72488740810616, 144.49964038898997 249.73118837048145, 125.65355582417601 266.3428694922021 M185.1251693996094 209.0013714019601 C163.0634671033469 229.95446118763297, 142.4882110967083 251.84242089910552, 126.01200071604603 266.03624495002543 M184.4832456278108 200.61370153698505 C162.48479468612746 222.8218610005276, 140.32511737965504 245.68857718639453, 126.11540875615232 258.3604675468271 M184.87025840603337 200.5075191182214 C170.6297481855949 213.92178981218245, 156.4675226791305 228.50235867191836, 126.17332049639575 257.8180808376735 M185.26582609884963 192.07033767754754 C161.77825417458655 213.95011957027143, 140.06860312417834 237.75943645319916, 127.35415072621457 249.18882304774115 M184.92805035435185 191.6973750254007 C168.01389538516614 207.79201313810074, 151.42287139016767 224.69686388480818, 126.71692329676502 249.18357608811448 M185.7542018579744 182.77132501439903 C170.31825864172333 197.86911479937993, 153.6909244139513 214.23405431279645, 126.5142153281128 241.78193990119422 M184.49742219768987 182.76034342037295 C171.013174447448 196.78061320876185, 157.7737176044304 210.1942239519259, 126.79949857027884 241.48932249822343 M185.7178064989351 174.2456674537896 C172.9616936705526 188.38626393763553, 159.9186025831106 199.10021226384703, 126.59941115559693 232.18444701343637 M184.42256338917244 175.16551610001315 C169.22633204375074 190.27003770026207, 153.0286789177826 206.8420156248142, 126.47304827006216 232.12159936487538 M183.5854486154817 165.91299390196926 C170.97387960318156 178.21551677170783, 159.47801286594682 192.0608052008371, 125.97292180241698 224.83159829071755 M184.04297588192446 166.41167236119634 C163.06800784181152 187.4736050799913, 140.33830255652072 210.29264981230358, 127.13488684924 223.64637348494526 M185.14531180136427 158.38355826518796 C164.80062743507494 175.5101547925638, 146.72218237541304 194.61189849724528, 127.05730586232298 216.64927263928783 M184.0434741290711 157.9772790007975 C170.79349294191934 171.33242894143285, 156.26853051779634 185.55158921101483, 127.17764126093738 216.1592991553081 M183.4449546503328 149.55823944969572 C170.34321725999848 164.31790937607406, 154.35016426668966 180.4534504675274, 125.83449692906494 207.55397396539718 M184.50418508373724 148.8704903156916 C161.05744996058453 171.71333237864417, 138.1288190888263 195.40586324429884, 126.03925095827933 206.83571817283897 M184.29131075613725 140.32854136174257 C172.9024000541401 152.75864276981645, 161.01267918263034 163.60535369259577, 127.74580359639282 198.9528311752956 M184.1505481990479 141.17914810275371 C165.87268068257308 160.01512864699697, 145.64857410635904 179.112681115545, 127.05296789439078 199.08065983441278 M183.75068871252762 133.07659290757846 C162.93169335012863 153.06263856443294, 141.10980664640218 174.00132977255387, 127.59190945805665 189.843598175233 M184.4033154281281 132.42078165885877 C171.2659235938981 145.86945808833653, 157.61269429082853 159.92052293217756, 127.09735652239675 190.07884093690456 M184.04877211325393 122.97514799345342 C165.3488276467458 144.50252082576708, 145.7399296127379 163.98335031729445, 125.43287310780639 182.51465387145953 M185.02855122410284 123.4926077808818 C166.76216932677315 140.85647268602781, 149.6842470299834 158.8464639220265, 126.64629379542225 182.3446657771893 M185.47061955206618 115.68758552561742 C165.8900945586695 133.92563702882097, 147.92606864462556 152.36203385350942, 125.68812813939208 173.8450021702251 M184.58763254009708 115.82153076569777 C169.68925260235633 129.67856135128662, 155.8508694488468 144.30809059244262, 126.6189691665923 173.672226152142 M185.4606646227144 106.66790941032049 C160.73506214248593 129.95588056434323, 139.07809538086101 151.7809701897377, 126.63648314656372 165.80427197777976 M184.4872488292359 107.31414241018173 C167.9415373805038 124.52676139897594, 150.35440420647032 141.32396155909342, 126.42988458903189 165.0853013586377 M184.9227159189485 98.86074855381263 C168.71164996718312 113.88376060666022, 155.24220332516276 127.96239456557512, 126.7161217230713 156.75271720037344 M184.62940204464422 97.90672201120866 C171.73910074525787 111.02642972379303, 159.78499493155695 123.12436717201543, 126.83885451586599 156.78735819355134 M184.9199570345186 89.20135686234386 C171.19524907887833 101.9938199815487, 159.4685650493055 114.76606828114106, 126.0246024626648 147.14121674425624 M185.06140663944709 90.31523636565358 C167.27814913830022 107.03860596329102, 148.69745310291464 124.78674203163555, 126.80100590021964 147.71155095375798 M185.7749465631746 81.51561324216412 C164.18176793476493 101.42168585783915, 145.11842748006637 121.21228003568223, 125.41885895909424 140.41127451567806 M184.02588956676948 81.18533977039145 C167.25180176867434 99.40913246260648, 149.26350422077292 116.45332219190436, 126.31677819521781 139.87072143613256 M182.35540453629346 74.43423516189655 C169.13064848578907 88.14818488067921, 151.9333975599879 104.24969148274988, 125.61519980610963 131.89501942088893 M182.99657671736333 74.05658758467038 C165.2822842523173 91.5579305293012, 148.1072493118041 108.91715354964833, 126.88192335398551 130.7073989375501 M174.74578529813277 74.7212057772835 C160.25831561181568 89.83793730164228, 144.2111189702038 105.51170407264867, 126.28930859746094 121.71520536613889 M174.69986579486118 74.54086335485775 C159.8674924339412 89.70286685704313, 144.67887946918282 104.21880755007301, 127.13750582964774 122.24380025488563 M165.117840254308 74.00321118270953 C152.82109669192272 88.49718392845523, 137.49324861179954 103.56922909109794, 127.5762439268982 113.28521125767791 M166.5353890642536 74.1018160659631 C154.0526217319562 87.01420569658774, 141.95350210435748 98.37363645089548, 126.9199025753295 113.43182968501414 M158.63162799856917 74.26863028442462 C148.10252742332816 82.34148974832853, 139.96186443634474 91.38928927095648, 126.77043938817138 104.60904100175598 M157.6270234786655 74.20385001486142 C150.8651473914369 81.65769837761684, 142.34282067458497 89.33816336961524, 126.5108030441558 105.70307902481059 M150.4065821246663 74.49646698867875 C142.67736793517236 79.97012562561011, 134.86899574428554 87.74388630526647, 127.02570357503053 96.38132350462314 M148.743958491222 73.99105699842768 C141.73718151748355 81.0492687156368, 134.7982858605503 88.58397354615404, 127.08720918925162 96.51882757115003 M141.42151122634937 73.95635020172197 C135.05029778161204 80.23105577504771, 131.29471581148684 84.95559068706748, 126.85522008122558 88.08731267252934 M140.350696055048 74.63721631353695 C136.27235897717478 78.88150091851685, 132.09400044839361 83.40818326931948, 126.37143546374197 88.52004212090743 M132.48333380487628 73.8112541434725 C130.25158132287646 76.28226551944685, 129.07026186091397 77.77071693941713, 126.53600069643613 79.52310812593608 M132.10031449523635 74.20615851437647 C130.20973592989495 76.21839976294275, 128.14377938263686 78.28062919838443, 126.47582522453425 79.75290394962936" stroke="#3b82f6" stroke-width="0.5" fill="none" stroke-linecap="round" stroke-linejoin="round"></path><path d="M127.28409531827158 75.8599800815185 C138.00572360364293 74.3303065622446, 150.8232594817877 74.84229262715549, 184.40613026412638 75.51654374500117 M184.38819520863206 73.77347997923692 C184.8510638485095 145.87397163895272, 183.86168577767822 219.23423807894193, 185.04379146488816 266.8270323842764 M183.59156498702674 268.0027195364237 C164.22136772664695 268.01975019317223, 145.4719804027906 268.6387156282003, 127.44385998959727 267.4270963102579 M126.02693678255267 268.72696906030177 C128.11603353755362 201.0819650849948, 125.9419356180895 132.9403882337113, 127.07524849291033 74.61487306853137" stroke="#1d4ed8" stroke-width="1.25" fill="none" stroke-linecap="round" stroke-linejoin="round"></path></g><g><path d="M198.8836993300222 267.80677625309914 C198.8836993300222 267.80677625309914, 198.8836993300222 267.80677625309914, 198.8836993300222 267.80677625309914 M198.8836993300222 267.80677625309914 C198.8836993300222 267.80677625309914, 198.8836993300222 267.80677625309914, 198.8836993300222 267.80677625309914 M207.91422335603627 268.33482010726124 C203.88773803209602 263.92804577459424, 200.79935305745178 261.90788624569734, 199.36113241196202 259.7337931957416 M207.35516110745613 268.16101889446617 C204.70086309834318 265.5228597192179, 202.57639133306984 263.11994459600004, 198.8716987751849 259.6427123282053 M216.03382682683127 266.776742982457 C209.49635861930054 261.58705000769027, 204.06133036435511 253.99860767021764, 197.76593225643563 251.90180440666737 M215.86901128156293 268.1655573336059 C210.61682191145337 262.3273369018849, 204.926369295281 256.8034581558946, 198.61776235130208 251.39231370529743 M223.42698468069554 267.2822909947136 C218.88780398933224 262.9034052903746, 213.7999630020975 255.5153476998608, 199.9636017505877 242.32067524695591 M224.614739353275 267.7880910781795 C214.8296215498149 257.92585208517346, 204.1759421247922 248.06671932391185, 198.99386246827027 242.8357785008644 M232.7138204367815 268.71385714967045 C220.43245641432816 254.41986793252806, 208.83557898284073 243.21842743169705, 199.83022990868022 235.0432131557259 M232.7592125803216 267.43801797308265 C221.67083709128218 255.64391901239009, 209.89542847242475 244.39187213602912, 199.19561814096352 234.09857370262029 M242.50525938805785 267.8462583418587 C232.9408009322649 259.71124878283825, 224.4873654446825 250.32182856453537, 200.06541389868187 224.72431315250864 M241.85448784746822 268.05322253979983 C229.79391001068288 256.4756007224881, 219.6852393562437 245.98596479943697, 198.90887531664745 225.05041976954956 M250.65402370249345 267.03126459080966 C239.9511594399089 257.0253701704445, 229.58237182184916 246.76756971497477, 199.79804776356147 217.40832338183526 M249.28484860198063 267.9799877373153 C237.50326686787264 256.4252728376524, 226.75875839481634 243.9908456200321, 198.3579565050878 216.36318559813654 M256.9279188606838 266.89588547868146 C242.80409988357601 252.36760439162424, 227.28111067842195 236.06143654705824, 199.8738224212878 209.04154511323713 M256.50884129125126 266.0025313997404 C237.81714197097995 247.27547585910492, 219.75371166143367 229.5995624891987, 198.9619107785501 208.55463852236562 M255.8689065311054 258.826443025513 C239.73470897181244 241.36797135044677, 222.2252737690283 224.39552276093622, 199.74272566482952 198.7847327412454 M257.2870982380534 257.55832911156716 C234.472667979491 234.80131163038484, 212.03283326900174 212.36633432889596, 198.5907637718 200.43219431372114 M257.85116731859245 250.45163443770096 C236.59578104302736 228.70465191467943, 216.01147434916243 208.0222968914611, 202.89628963046127 196.47534125369722 M257.1091503890181 248.9524269561453 C243.74813193618786 236.24613018040583, 230.2921911537385 222.46830768647342, 204.37151515040895 196.68641464949334 M257.76961089111364 241.15604223477663 C243.10140790244438 226.88072018653563, 228.43762013677338 211.43411770357181, 212.04138229877861 195.8263177327507 M256.4506874414111 241.40220164245935 C244.05672737117257 227.54452717789644, 230.8139646904412 213.7875797003549, 211.83068011176945 196.2210486137935 M255.79844379163785 232.86370206127123 C242.99500348118528 219.99797459659843, 229.51202158681576 205.77814890168415, 221.8303481818177 195.58124204200442 M256.70087565499796 232.95217831699358 C247.09178010235064 222.8827112215794, 238.22394657236563 213.4838414696133, 220.59318007221447 196.63942338467325 M257.8786694381336 222.95060268671602 C250.072217066311 217.02651755037826, 243.07647743537783 209.7261110903359, 228.60536257254722 196.88368107598956 M257.21860785204416 223.5177805637324 C250.16724735744216 218.09846388193523, 244.23294175037623 211.79523791287355, 229.29544691650958 195.94504848361694 M255.80558812356986 215.15718600564227 C250.24833992851336 210.23657911405434, 245.13578313734106 204.16820726989587, 236.95039763893593 197.45415485423737 M256.58875341731556 215.7290804041602 C253.25113377227152 211.08274590558798, 249.4787593366896 207.24854987815195, 237.50613909192043 196.449831869609 M256.60383660876624 207.52453354594996 C252.39125895087153 202.91484542761236, 248.37795950396242 198.53793118907154, 246.79900523534462 195.57422522927382 M256.87542007038803 206.82980949071003 C253.44449744460246 203.76295073275182, 249.77491276781896 199.4324478410511, 245.90175712353965 196.11062029266478 M256.94306560294206 198.6420300313545 C256.2030212815345 197.95802943346138, 255.97424500031215 197.3375713392374, 254.75642521403043 196.33680050226607 M256.8104588298357 198.5604854132229 C256.29709961143794 197.83452701952092, 255.70335247694 197.34036296185766, 254.80227469284333 196.4369922791955 M256.80468421204614 268.11839271103094 C256.80468421204614 268.11839271103094, 256.80468421204614 268.11839271103094, 256.80468421204614 268.11839271103094 M256.80468421204614 268.11839271103094 C256.80468421204614 268.11839271103094, 256.80468421204614 268.11839271103094, 256.80468421204614 268.11839271103094 M256.09676482311113 260.29628805686025 C253.50854056331661 262.9960844646661, 250.95793957897848 265.26255119454873, 247.93383134974002 268.1970922043647 M256.4948330257333 259.36649683475736 C254.27723388418386 262.22229063493387, 251.13732699370365 264.9799888347707, 248.60054000498562 268.3305895648252 M255.94009746349084 250.28089044954106 C251.38512739340942 258.4603040266127, 245.60752785833128 263.22929398069715, 239.84883253176707 267.8363657007838 M257.14019843357283 251.55481727703884 C253.5260139410297 254.619203061625, 249.09170697103272 258.7826057767087, 240.06552726210106 268.70769365252056 M257.1141055349134 243.53922471451222 C247.356023441143 250.93765963573404, 239.2045935474241 259.6401540207249, 231.07246943097743 269.03034335476406 M256.8492687882729 243.20462763077228 C248.73389615793243 249.9995980707863, 241.11128956362649 258.1184848584211, 231.79022356830717 268.1403063994745 M256.7722211960576 234.35502243468358 C243.6283374323582 247.18325778600163, 228.97611615865227 262.4971941857451, 222.87424468162823 267.9406833897258 M257.3571819545574 233.79579597858532 C248.2627855983824 242.75284870945282, 240.28066468586005 250.72138348229626, 223.2312980864884 267.66558939636747 M256.6941197398923 226.2343505045864 C246.28539449959052 234.38163377636022, 238.04142912085345 245.0051914784005, 214.52250545168818 267.7535308252002 M256.6816198171921 225.25058184196234 C247.93620413623643 234.86441269070926, 238.1439148233652 243.8780737496437, 213.84022176391036 268.4376381021837 M256.10127333438624 218.06022894375192 C242.15174502520136 230.60919381839327, 228.51252617702607 245.20935874963737, 204.71489578412616 268.0444838057185 M256.7724908234425 217.19964317988772 C236.55788901722516 236.9175309012867, 216.46738758470164 257.7310611843657, 205.70694211033873 267.91269641340773 M255.74445102250803 207.80513089671138 C242.2189461646713 222.27726660916684, 229.6529412497338 235.50529792943883, 198.28007015928384 265.87688003843897 M256.36817998307424 209.02578638884577 C244.38504128283083 221.20458655735843, 231.3159118684252 234.38697614556165, 198.4303467604121 267.0786931016507 M255.9912187222265 199.84348263299603 C238.9357754500856 219.87809006222494, 218.34947422076317 238.40347458164752, 198.6936206196224 259.0858696684004 M256.45179886835297 200.10771630282093 C235.5903823881758 221.38704226360727, 213.77153368347587 242.519831684097, 199.20294059838855 257.6705646889047 M251.16369175820452 196.81391101544298 C237.27071150070896 210.92867581298933, 222.8339606531596 226.0137933979044, 198.79501402124518 248.9614780269995 M251.75768814573837 196.8135336616034 C234.91517531965587 213.54869351495745, 219.11173996797464 229.89907434317064, 199.29653300966822 250.18456819601948 M243.73974336078402 195.61803500121033 C231.42725790201976 209.22857206184912, 216.9420230232323 222.95993368776794, 199.87408190712088 240.96211575876754 M243.9413760748693 196.63077661180444 C227.39730324292387 212.69128546670115, 211.85972340100722 228.56301476464196, 198.71747775401676 241.7230412694795 M234.5978639788665 197.77560632889663 C221.7068550465467 211.55438063198454, 207.93553203324026 225.71431696468795, 197.8874526952183 232.69814663323578 M234.99318782144417 196.85281139397566 C226.87225861849802 203.6503706789649, 219.59840877438552 211.22164817734372, 198.59185515369978 232.90921999326912 M227.44780703042062 195.99386376803312 C220.6896300858177 204.28140298856533, 212.59345623280052 210.50965329574512, 199.5460516785061 224.84438754493544 M225.8376412077284 196.87943659210148 C215.98581148352758 206.33565885869925, 206.47485225914934 217.00527315433604, 198.82172209348286 223.93098888887266 M217.25362280841517 195.94449921315106 C211.89857245812075 204.83806682562943, 203.3759406216672 211.2934648135112, 198.80260102495305 216.45260851339785 M217.52523061848777 196.7250992276663 C212.78676750691818 202.5173320906637, 206.90313862486033 207.54066767972225, 198.74136202063167 215.9846309152746 M209.798001328751 197.05727021563374 C205.70010567314452 200.4805271374062, 203.81805707519098 202.2477750437551, 198.00982187183328 206.52482689461263 M209.47364021887773 197.12213552253826 C207.3261019855361 199.36335594688046, 204.10681009932276 201.95449100421348, 198.48563324737117 207.31573548396642 M200.79959493715262 196.71955723817965 C200.13797272580857 197.60491029121985, 199.26421196896504 198.25829483308232, 198.97680250966678 199.00191438009725 M200.92163790331168 196.63557670219376 C200.54217798625274 197.16153426504926, 200.0057797871276 197.76524985938468, 198.8614980473252 198.74021268912355" stroke="#3b82f6" stroke-width="0.5" fill="none" stroke-linecap="round" stroke-linejoin="round"></path><path d="M198.906145694594 197.23831092504162 C211.3218236694829 195.9389051389354, 221.59539768624194 197.11488946196016, 257.4376657779114 196.55194504645962 M257.1174888404803 197.29099830997484 C256.8598439506417 223.93050751007783, 257.8467936209565 252.8872633379884, 257.8550346287684 268.93041143231096 M258.02127984117436 268.1530594784766 C237.3759617694009 267.45074204424185, 215.62905487621634 268.74707815864843, 199.38588094983538 268.1054833490401 M199.8918423419102 268.9678401928395 C199.1485706805284 252.96991614458773, 198.20271052113128 237.61334761086232, 198.67119301606257 195.83756553543108" stroke="#1d4ed8" stroke-width="1.25" fill="none" stroke-linecap="round" stroke-linejoin="round"></path></g><g><path d="M271.09999132438224 267.71537593976694 C271.09999132438224 267.71537593976694, 271.09999132438224 267.71537593976694, 271.09999132438224 267.71537593976694 M271.09999132438224 267.71537593976694 C271.09999132438224 267.71537593976694, 271.09999132438224 267.71537593976694, 271.09999132438224 267.71537593976694 M279.1510978672603 267.4220913332803 C276.80394616841875 264.98597274160784, 275.49233996591784 263.1012837010484, 271.0704725265376 259.9282038065073 M279.28991759106015 268.0689788746191 C277.3131712309833 265.8701645521696, 275.6783324722955 263.6859442846547, 270.8866573745631 259.547002842578 M288.1367371265615 268.037561194609 C281.4849954621409 260.4923985333919, 275.28986546216765 253.50458621949963, 271.3246945759528 251.79546974911796 M288.4202754095967 267.5140215847744 C284.1808334423078 263.3172535605371, 279.87705972972486 259.1985619259342, 270.60450579247106 250.36270230315137 M297.00854792260645 268.5992812082274 C287.3038611551758 258.00603331526827, 279.3556107112799 248.83531997884006, 271.0998829027884 241.82591305768733 M297.06160866991695 267.8946146343006 C290.7020046391299 261.7950145921118, 284.22241854698115 256.46492479303095, 271.68906147799123 242.06491667314117 M305.31777861000876 268.85657693595726 C291.5989129179287 255.37386876194952, 278.66774078287494 241.81540432762515, 271.4850253006689 234.1493197756805 M304.9015476583867 267.37231118419305 C296.4918218134107 258.6936795482264, 288.0668511920519 251.25022197408586, 270.979901114317 234.09972038334092 M314.454346180956 267.0925782606109 C297.5577865766452 253.072373707607, 283.3082262298391 236.18283032666693, 270.4130075117819 224.69335103591 M313.13126669141195 267.1225384805455 C297.0801925247182 251.74141544660014, 281.54376674234646 236.31502825465958, 270.9279646428548 225.38902505484438 M322.0323863776357 268.8536963150008 C308.2935808938203 254.4745097324587, 294.5099640628459 241.34754530436206, 271.71593402831485 217.77394922118836 M321.51108071039926 267.7078331444515 C308.3525520881742 254.10999038431137, 296.2808760070006 241.22729347584433, 270.7158326300107 216.67935168374532 M329.55104012986214 265.6604099195665 C305.01919098813863 242.13618831304353, 283.19556342049 220.24236225715944, 270.20012809245515 208.620337964328 M329.01873171938155 266.201127609632 C314.9651973177617 252.0368234585131, 300.5372476468544 237.9061148316503, 270.72022626719104 207.87933064113744 M329.4410264303306 257.903838457628 C314.0617860587735 241.7411364180312, 299.53904179283313 227.01504394461705, 270.32113169639035 199.5000221481415 M329.48346166027284 257.8948229976882 C307.3174830418525 236.98299956705682, 286.91651710068413 215.12076408033343, 270.974507370802 200.19720167311456 M328.71020508309397 249.5413046238634 C308.1861000728904 228.46039138611545, 287.3450855162129 207.2437675746009, 271.25870558230804 191.84378790544133 M329.4190751613447 249.40885186657934 C312.6695259886741 233.03655526164002, 296.74536384656534 217.15474677343903, 270.83117838224996 191.07831390077035 M328.61958683033976 242.02234455108513 C313.2956110663224 224.34577107510077, 295.02463253781985 206.80499841627287, 271.1918292423956 183.17070261904 M329.0874496640036 241.02918833739926 C316.6364355171311 228.35142478087604, 303.77591600120314 215.85292215738127, 271.02438236794103 182.34262582019863 M328.82940116425556 233.48477562210562 C309.7990051452401 214.5278902621781, 290.3618767724351 194.2720465554345, 271.57370091884064 173.61311492174997 M329.23210323465565 232.31641590624156 C307.34202640131906 210.65589026872573, 285.44260945218366 188.8330997396114, 270.9324030192815 173.9222053024931 M329.2740963270286 222.8796964697375 C310.3638066329309 203.74212169599323, 289.91218433472943 183.48531403211484, 271.8067376038306 165.24165469638376 M329.540694564707 224.2432274442001 C315.7209464503118 210.7255024669727, 301.6907146896459 196.68535919297827, 270.64016465267764 165.99872959374753 M329.6373393108467 216.4964869767932 C308.82899141918 195.21224408258826, 288.3865832824889 173.70781922035707, 271.11757503955295 156.5902330757539 M329.50752297056414 215.33192519736863 C310.5573345287615 196.34916626666006, 291.78277950125425 178.70592058153716, 270.6017322095357 157.5409853150557 M328.8270158578972 208.08780827608516 C311.57241226121164 189.34683274978238, 295.27727015723906 172.77966873228138, 270.4320677181952 149.1810424426729 M329.29602839363315 207.3919207868408 C307.0795243617415 184.35483083672156, 283.79903925768235 162.22854096982223, 271.3028112562619 148.44236846251133 M329.25023046036756 197.39460275042603 C311.0283771991543 181.1411416154983, 293.24361600501345 162.5883669917157, 271.8502888819449 139.64955642995315 M329.40129140032025 198.05723520871052 C309.584907401184 178.7533661666315, 289.0162692992609 158.52238048570598, 270.5232479842626 140.45838440720814 M329.0883063604454 189.47109403262814 C309.5564811301177 169.63509337637666, 290.8356304015728 151.78143887395174, 270.9215305229895 131.06952992040726 M329.1125331820319 190.1239988340714 C316.03072404036425 176.6386578337509, 303.035321727968 164.02884266525268, 271.39952920994386 132.1441478952399 M328.97178555031815 182.00978700550417 C316.72919760251574 168.30329883293751, 304.2465320634917 156.22142784767016, 270.51930338351656 122.6779990468477 M328.5756155551741 181.68795140901724 C309.72344855524955 162.0393711627401, 289.6107047148262 142.75353297817773, 271.2872823747121 123.3918830477004 M329.0554287721733 171.86646780186646 C312.53963710377195 155.69533933367237, 296.1923835297085 139.69805481287736, 270.71633695571353 114.000281192087 M329.65554096115324 173.0819420546418 C314.414019147206 158.63675373742697, 299.86531417741264 144.30356297451996, 271.0237755449735 115.16842336068339 M328.4932155181983 163.9852038045276 C311.4166667269247 148.20509336896214, 293.9714969136506 131.1418307803432, 270.6595794817679 106.5749749889376 M329.5989524663756 164.2134292670388 C312.4812677785821 148.1622238509285, 295.4381995012741 130.84947462059472, 270.99041741213426 106.85271170528254 M329.71334403058086 156.32334364630015 C311.5612488063378 137.1179165922505, 293.679546509871 118.95001086370056, 270.4451979538672 98.47896032021201 M329.0966337622473 155.50198091730206 C309.39716359427433 135.63340699990388, 288.6658598077558 115.67732963950989, 270.77525729260077 98.37330032759166 M328.29323130150834 146.37651720999642 C310.2236863464031 127.42526646680848, 289.94144667389264 109.05585137735152, 270.5935781141989 88.45239831872277 M329.5460091651748 147.61677425152524 C316.32450171329236 134.65271437435698, 304.52357590015464 123.0309311555567, 271.2354851277791 89.94585084870451 M329.2345130731682 140.10363562842906 C317.49262108899796 126.94136942790492, 304.96187991788867 114.90680702686089, 271.52432445495054 80.02373136728235 M329.11364361656405 138.81409589080215 C309.05158622295556 118.71281892452062, 288.51063398958485 97.96784049276282, 270.55993148407566 80.61063426471479 M329.6380438377479 129.6518912844105 C309.19297167343115 110.46022103173964, 291.0985602530141 92.89685624027464, 270.63126021830965 73.63468309870329 M329.5977426828215 130.6748418312265 C316.7638449396771 118.02579427802829, 302.7310957249441 104.49767136124603, 271.1315675528966 72.77003094671633 M330.1788968374351 121.4817578107533 C313.81583849689156 106.39633220135475, 297.42952655829305 89.44463592246997, 271.3574273964636 63.565258395798026 M328.89065255535337 121.84201744389206 C313.4341568216297 105.96255245434166, 296.6553590684916 90.1927610345547, 270.79000515064826 63.526030640802794 M329.78136406441723 114.09199009026995 C314.7868714867063 98.4856211552801, 299.3106306894243 84.38345372034858, 270.67008673160007 56.458743391379095 M329.0413600505659 113.75823747489264 C313.15110118767916 97.16871386562244, 296.55756278396404 82.01319561972136, 270.8939967187368 55.21773246806798 M329.8939562608818 104.54462425577287 C310.0848385554863 87.51482324814145, 293.24184080798807 68.73843273750543, 270.5357177159064 46.646705468258986 M328.71799260986546 105.60322604532186 C312.7438205838216 87.83016663030682, 295.09443882322245 71.12635889104708, 271.18393532356845 46.75884492460561 M329.16440291901625 97.38997769007463 C313.0908169196843 81.27310982005613, 298.57796272822645 66.73966041184718, 270.19501859157015 39.4739932592502 M328.8703182996581 96.43131665127356 C317.3575005659618 84.31448436689615, 305.01064010945584 72.07819808431746, 270.6443546565496 38.17518588150946 M330.1146522810081 87.19164902598774 C306.70425523751567 65.0741366583411, 282.9200272373497 41.61956215968579, 270.4379063507788 29.023736647165286 M328.7922458113501 88.50895216384149 C309.95806607296856 68.55968455600016, 290.39052885336537 49.929074201974714, 270.76642903408634 30.342182584873306 M329.0158713390449 79.45151814632466 C314.3609848689482 64.10218149881614, 296.96302081792317 48.18875833943846, 272.79983707927954 23.563667108376286 M329.3843244613478 79.85218482911935 C311.5210424471652 61.973370226348884, 294.0220194528695 45.32788557834372, 273.73179374114466 23.243691999350453 M329.7634458353142 70.73474618389795 C317.40854795590036 57.71514311856516, 304.6257329830514 45.49358259937519, 281.4368059563792 23.271117712815084 M329.21624419105746 71.16417626820098 C314.5893089942236 56.61046914612586, 300.265920554347 42.20139557231517, 282.0750450312501 24.109500808154024 M328.95198026200336 62.394775521520025 C319.6660635298799 52.58069098017344, 309.69389798099456 44.03550711883385, 289.87242519358614 23.630101062615193 M328.98933556688525 63.17269747718001 C315.07885722530636 48.92053492346978, 302.3740033140972 35.81384368716444, 290.41831806512994 23.624903351698794 M329.7502978612998 55.098329792003426 C317.5768447509993 42.629416098109004, 306.7517758495656 32.10325728998272, 299.8434867830881 24.526872040589133 M328.7990697802374 53.96762882715026 C319.9423516078095 45.036665408336034, 312.05772292178364 37.56102474511445, 298.50434965919044 23.438764376078524 M329.37644062539135 45.750413878160685 C323.14247137438696 41.28758056669604, 317.88337572320563 33.77271208645889, 307.2110014670725 23.2109667795494 M328.9975586475203 45.9384600642055 C321.5871499000387 38.348567879392135, 314.49625884425365 30.73337398337425, 306.89501725483785 23.537058002386964 M328.21817320072597 36.458276480811655 C325.7600769746539 34.15580664781251, 321.66338331980705 31.085227392398878, 315.8258247277971 23.24736935071347 M328.677389248717 37.11612905761507 C325.56386782346135 33.395486439105156, 321.07283065135175 29.049035785998424, 315.4445328995112 23.209526161902374 M329.08194797643966 28.765193581725356 C328.05252276565096 27.946388769586193, 327.20312494141046 26.38781301499065, 324.45413433672616 23.883286092352844 M328.9933935551676 28.914724354795066 C327.01382612314 26.680716822898074, 324.982894839913 24.65587266997924, 324.1244156132242 23.93078392682297 M329.02097620640615 268.2097930243631 C329.02097620640615 268.2097930243631, 329.02097620640615 268.2097930243631, 329.02097620640615 268.2097930243631 M329.02097620640615 268.2097930243631 C329.02097620640615 268.2097930243631, 329.02097620640615 268.2097930243631, 329.02097620640615 268.2097930243631 M329.5969834314725 259.20927283144925 C326.32198278430513 262.42486007824505, 322.19312716941585 266.30600901283657, 320.36163458000766 268.54736101702053 M329.33355909284865 259.3730231180731 C326.9147025643689 261.81639611647853, 324.893196452759 263.92243000671385, 320.1804682489102 267.86739261038804 M329.7895429690621 251.5254304423796 C323.21163066293445 258.9730042528632, 315.9412100012401 264.72722351380077, 312.33762920263297 267.6010056315382 M329.5233089418403 250.94270241892505 C325.5298239356736 254.60966318919003, 321.6089637090226 257.85345260743037, 311.9600188779373 267.9730222450961 M330.1677685578606 243.56754596164234 C322.4336680198112 249.15307585153954, 317.5863593584823 256.0249668035179, 304.2007752909722 267.343051725479 M329.2955488772384 242.6513426464588 C319.29651500434125 251.80199987162388, 310.5965933414631 261.4942049741383, 303.5542410041603 268.08649302594563 M329.57823825676655 234.66510047626642 C318.80424216196764 245.65012768070244, 305.3769580972885 255.74941835243732, 295.86557466910637 268.69104951009353 M328.7572636814109 234.2013734837338 C315.72820334609816 247.46441754607054, 302.56066777431346 260.8496454930383, 295.17217872181396 268.17527775638007 M328.33274405796743 224.92934886906423 C319.319646359599 235.48333954651477, 309.9204623092564 243.7710951453193, 286.88678807922304 269.1007851181944 M328.9636901707641 225.32915967684366 C312.931977471095 242.86112420668667, 295.8519214964865 258.6090861795251, 286.57883447230455 268.27222555749313 M328.0672967036507 216.63482727284844 C308.56278357926897 237.69441276396986, 289.28263104988395 256.91134240822305, 278.21839501350945 269.31632593259417 M329.38920578670417 217.7081753468823 C318.293098347603 228.61005697626075, 306.23819102013755 239.2766386125031, 277.72085132203824 267.98479492537876 M328.817125686004 208.74435307043143 C308.259356299179 230.35782988768955, 289.1604377774665 248.9358717156765, 270.7028072765266 266.48080702373204 M328.78982859563746 208.68650398994336 C311.13172107260095 226.2456517621032, 294.17551804244715 243.71960209908067, 271.00322652479457 267.21834016875744 M328.49167924721456 201.03402489462582 C313.91801427306467 215.488843460637, 295.62583583429347 232.1591320220889, 272.174296109954 257.8330040249284 M328.46571728897015 200.62433847712066 C308.78950144725815 219.93695007177615, 288.8261262661549 240.55520024525, 271.380238646472 258.28518428423064 M329.54962437947006 191.01822262824402 C314.6786963483393 206.66021834923953, 299.2165452589521 220.81860700271363, 270.3634294441138 249.80289588086103 M329.52367118310843 192.23148105450795 C310.2702434323415 209.57381216817922, 292.2883858178036 228.24747714813455, 271.4473848166113 249.81268170475758 M328.8738468249581 182.8746074040985 C314.0901814088594 199.2258236100728, 297.80937424066076 214.4026364087646, 271.37106177119364 242.33767497434246 M328.9396302194587 183.1048433431989 C305.55440447457585 206.80959552487263, 283.58959224000927 229.2717021854036, 270.90287060161876 241.8817284264319 M329.246451075866 174.76912160500183 C309.90458575209493 194.71485169329856, 291.7917388153148 211.4676129519781, 270.4722663333808 232.89781493818523 M328.82117496442714 174.6659463392873 C310.86128366380177 194.1760086287581, 292.1130185956794 212.26435987089167, 271.53904219290064 232.83532982034745 M329.22376037438136 165.3809888637665 C314.8194658094019 179.5855087950796, 300.46184682544146 195.1335914173456, 270.7913351228629 225.38207065520191 M328.87002660942 166.29842041386695 C308.07396561620726 187.68405679508348, 286.3768488714555 208.87010614939334, 270.9048864068632 223.81610063259802 M329.81131671269156 158.027714063205 C308.69735806009743 178.866316328967, 287.9235630166608 198.65026495211558, 270.77677888182745 215.05247825820484 M328.4445469708435 157.48550531303152 C313.1563143047549 174.137793096929, 296.9706734429427 189.33601769134614, 271.5685306849127 216.10376498427726 M329.13888083298417 150.39008333612983 C315.168955038104 162.80536245009398, 302.93042234130826 175.20537929300792, 270.8763271024619 207.0593551300066 M328.6222384901038 149.94755015787487 C316.1345514005638 162.74367803483736, 303.4910569363026 174.3669620422505, 271.17974309345533 207.25265637147896 M329.1354322274468 141.03716406535347 C312.54475762926216 156.39295331072515, 295.48640259229614 172.95826368521557, 270.6119280269538 198.9662999034197 M329.46224423360746 141.3795134444906 C306.9679620108082 162.84893578790303, 284.94209196657624 184.7341058733337, 270.53243232389735 199.22921766529686 M330.2041691382668 133.55130488368843 C313.1448989149836 148.36253397651578, 297.413136755205 164.4033632902251, 270.4547486474906 189.67519246125661 M328.4678478927604 132.3884630439726 C312.8245654826993 149.3351386498773, 296.7374691535522 164.54210020576997, 270.82714769264504 190.94950111182473 M328.2975085576318 123.85313567394724 C313.6269879365429 139.80200327675848, 296.35653074350114 156.90278006513714, 271.30017470625984 181.1511939363299 M328.6489737839691 123.83107620241454 C309.0995779430904 143.2955375622512, 290.2832755472022 162.94207505793187, 270.9335791411047 181.61666833215634 M328.7920862277291 116.32656756894238 C306.30167458274866 138.42067307309833, 283.56040952589075 160.0951507916994, 271.54281069544896 172.947746711452 M328.58468684863965 115.3511395409102 C314.7605702434558 128.8724283256639, 301.2323078418425 142.45985038761654, 270.65305723568247 172.85849032238542 M329.1637566407464 106.34379295148635 C311.9230829181509 123.86304185863895, 293.9115829056683 141.55478822427094, 271.3514798572456 163.93157441943538 M329.2856926531784 107.51704905555331 C312.84079894002986 123.81624815060107, 296.1382904535637 140.19414554545352, 271.58105316778466 164.86484745360565 M328.06259303887106 98.79028545439162 C316.4516066345565 111.55506129541402, 304.7814149431585 121.3591736563677, 272.144224183837 156.40768194309263 M329.0568373889915 97.95931011743762 C308.2296622916331 119.28605767058146, 288.3658331528605 139.89755965328717, 270.7696787538176 156.12522947191087 M329.5878874142907 90.58979996047074 C315.3360385290204 102.73462751833408, 301.5591370963083 115.26826456200808, 271.26330441741095 148.2443554152362 M329.1596078724853 89.50803747265691 C314.63551838080787 104.61746758093355, 300.7968923403556 118.60085508836575, 271.19018643518734 147.9662354983948 M328.36315050919274 82.02937260253618 C314.7290253871081 97.96687101183582, 298.9288331321726 111.37825444413946, 271.0502000501548 139.3981622186786 M328.674631545066 81.5304552423049 C315.3603658781197 95.37384757273186, 300.35254375422966 109.31707447414878, 270.5954692783003 139.4890740291512 M328.2111118157647 73.68432076340048 C306.0647586326649 96.67067288742602, 283.51555738198755 118.37966150687777, 271.12060932425607 131.23895098623234 M328.9641764731399 73.26839692247539 C312.0853349738991 89.17831124466757, 295.7014238253067 106.75057516883368, 270.7825609745626 130.9070629352738 M329.6287195761941 65.74324307587608 C307.7193110304725 87.9974867955621, 284.40030389496883 108.38151811624644, 270.23944923190226 123.4748516007099 M328.5346513481132 64.77580538426204 C310.99855381215207 82.16837382552524, 294.33123926555356 99.60804383324434, 271.25513584038066 122.08312946285639 M329.2621407826684 54.933019422775494 C313.13999672808336 72.28450304020514, 296.9212428739908 86.69265852088459, 270.59585551528085 113.47727519492376 M328.69910548639217 56.65623287375866 C306.95451782315575 77.7323759142754, 286.0483307667221 99.1947258048765, 271.2860088171606 113.46731023299266 M328.9817611773751 48.24381093691124 C313.834288306484 62.953110746219686, 296.92416775447293 78.45865099122389, 270.0781826665794 105.20591415168649 M328.43972882938306 47.40034101205899 C312.75320931598054 63.69120527301397, 295.5866405932973 80.0662988904115, 270.7796354713087 105.8342512417764 M328.15718525250173 38.254060001095844 C309.16866396292596 59.47445085495446, 289.01597483835235 77.57271836392749, 271.3490039279853 96.53374210381051 M328.8703519434921 39.123400795256806 C311.55317871855806 56.467739743282806, 294.77133455423444 74.0477755503677, 271.1346119942312 97.62070786030134 M327.9322362502358 31.255490248141747 C310.5609733501296 48.41265010662665, 292.82200795005105 68.05399320751087, 271.7201112916862 88.17201393410836 M329.2989460201255 30.102792594445805 C311.37871828034724 48.24051492886518, 293.94892612896876 66.06422015855173, 271.3061752023344 88.26304483466123 M326.8857426003918 23.992320123234613 C313.55408779736626 37.660488854666944, 297.9011439251296 53.84175036911545, 272.22751549986947 80.59526577539259 M327.8759093133166 23.1297197180929 C307.29581741989716 43.38510382907733, 288.00963346978307 63.53572698054633, 271.0687025370245 80.33473628594989 M320.07811079566454 22.614690008679226 C309.8470364616718 33.742406258748936, 300.379236716458 42.69610421258086, 269.90644604472266 70.96631501047561 M319.628140014979 23.275135536784127 C307.45883389706745 35.60447817062383, 294.91881636073543 47.82301571885771, 270.67821206470774 72.08386571026095 M310.6968881401074 22.633099475422693 C300.6787803659477 34.95921051546241, 287.57253573891796 46.50307454251654, 271.6663511684333 62.06126027216996 M310.69209900338467 23.05668073474784 C299.4029687031375 33.84389847696173, 289.1386539992714 45.01311869077656, 270.5348624767904 63.17062597868825 M301.73277287590753 23.24239715627749 C293.8881230928811 33.40280889345814, 283.94991899171805 41.586994211051795, 272.16589786318883 54.39448144328813 M301.7773199699397 23.175173183077767 C290.9635388302156 35.52342232114328, 278.89235864992827 46.0069481969262, 270.84545308967876 54.40481933732549 M292.9256819952526 24.375712934056118 C290.0953526730357 28.453023031123276, 284.12588763480375 32.99597172719212, 270.0879718711768 45.54363965664264 M293.6999772310504 23.98104012786765 C287.3950912683559 29.148911383871525, 281.8684020177934 35.74519120297649, 271.285923844779 46.283357407266465 M285.0397512403302 23.62945794157107 C279.7943269470326 30.25998804178833, 273.16356869140486 34.77337302165922, 270.0146776845848 36.67467729504597 M284.6453857281231 24.01181819021125 C281.10109904312503 27.887936660644957, 276.7439544058185 31.39047142704079, 270.6638553084975 37.52776118460488 M276.792378680492 23.245837864944544 C275.62186828096935 24.94541200254834, 273.78033970785174 27.041304741925742, 270.5838675077056 29.31134778651028 M276.82924505018644 23.462369386771528 C275.6056027971999 24.662257816247532, 274.0713076056188 25.839950758683074, 271.17531955836165 29.373285006159833" stroke="#3b82f6" stroke-width="0.5" fill="none" stroke-linecap="round" stroke-linejoin="round"></path><path d="M270.52819607091635 23.783308435231447 C282.23792373532285 25.11417038229291, 294.76753589069614 24.554152963431523, 328.0692012916964 25.15401301458478 M329.7399872135029 23.648831738258977 C328.9773153620414 75.24254770695657, 329.4429400724089 127.64199988757463, 328.4334870437167 268.52391326696227 M330.0509946953219 268.3033994205296 C308.1305558121548 266.88173389531147, 285.78612934964207 268.85544068909655, 271.3279019100735 268.7838703878224 M271.3615791530918 267.01523932471093 C270.73798451637697 199.10997693302528, 270.97140766783116 128.7076854963167, 270.4608693093782 24.518237748371835" stroke="#1d4ed8" stroke-width="1.25" fill="none" stroke-linecap="round" stroke-linejoin="round"></path></g><g><path d="M344.0233900999289 268.33108240762124 C344.0233900999289 268.33108240762124, 344.0233900999289 268.33108240762124, 344.0233900999289 268.33108240762124 M344.0233900999289 268.33108240762124 C344.0233900999289 268.33108240762124, 344.0233900999289 268.33108240762124, 344.0233900999289 268.33108240762124 M352.5350791596709 268.656469340486 C350.17020481108034 265.013220864364, 346.058321105875 263.00694603729426, 343.4869194222999 259.3897211984594 M352.6517808558507 268.6840456359587 C350.5918567942136 266.92457616630804, 348.72665104211137 264.9590507544958, 344.32872275512784 260.1584001381372 M360.9467542074784 267.60548618794746 C357.5748516358632 263.49896638997546, 354.0137324405576 260.50589664935893, 343.19056367665644 252.39624187275507 M360.4786463188171 268.7695926171295 C355.0578392046534 261.6201644506803, 347.54663184596444 255.51254737776935, 344.4983560148265 251.24019768219182 M368.8972179457039 268.2233782029278 C361.51819392674906 261.3069369458916, 355.8007028507351 253.0447366880921, 342.9432708361756 242.03825764960527 M369.01558476774545 268.70824497160834 C362.0681376332992 261.15792700390455, 355.87147604948126 254.06571134246127, 343.8913672688987 243.2011616266045 M378.62884356442265 267.30640350343054 C370.2607013021067 261.42320147194835, 362.78345956287757 254.69593820352145, 343.84692747384423 233.96253317682158 M377.75098951763835 268.01371117648995 C366.5946056197205 255.82523916824366, 353.5318478964694 244.2021457969328, 343.4712908688571 234.80797384524803 M387.11053975504075 269.44600496054954 C373.9708071294324 255.82953354078245, 360.01040329764106 242.32514837144385, 343.8677079060685 225.3694957004979 M386.3151523165423 268.0989612024776 C373.55886319417874 256.1996183261373, 361.07996365811294 243.12176123954583, 343.65416075024865 226.43473712132572 M394.11785583396454 268.9832348203785 C377.09873302534027 250.23075607565946, 359.90028698145113 234.23462767493584, 344.34092707425475 216.4466818417279 M394.44441960000444 268.14278533277434 C379.9089440896624 253.7018147121568, 366.5101004003714 239.17084811284306, 343.78081553612026 217.70262455054055 M402.1741613990406 266.8249343604515 C381.74783111715595 246.4167630767699, 363.0574775408907 228.36919116344563, 343.633540544809 208.90623759660542 M401.5286221475119 266.39972381952356 C380.5006348710553 245.18528149987645, 358.3730460608114 223.26465783808152, 344.38564853701854 209.11112954109578 M400.61314632955595 256.9812338897431 C388.5503739941669 244.3989743322322, 374.7764474090744 232.08136471891856, 344.00664450913786 200.92241833622415 M401.67982508249236 258.2313168838093 C381.6040866552076 237.92981014127096, 362.2844290896118 218.0827560755646, 344.0653577509907 200.66931581369448 M401.9692428475956 248.63097481002583 C381.89236409101454 230.34327117347405, 362.9222069740823 210.7199438762211, 342.8779757836473 192.86908880667778 M401.72899993367145 248.6652767770134 C384.5120411696359 231.559346597266, 366.3712383149025 213.82513276183116, 344.1476958635834 192.3270674015397 M401.86956276956596 240.48864686739358 C385.59664781897993 226.26175761457668, 370.5998035051383 211.10813975737724, 344.48441180974356 184.65722312906016 M401.72421188659615 240.65617503233912 C381.8865090457516 221.8229469952795, 362.0639004497769 202.03855698098135, 344.36022024784353 183.80633865033468 M401.86035853687315 231.70584918293997 C384.7317354852514 217.46470999476935, 370.10588429034567 199.53827193253107, 343.94447065383315 174.27240479946497 M401.7633308143133 231.6806534954895 C384.22014999959026 215.70998476615304, 366.81864742862786 197.79277125721376, 343.8990429643181 175.0324042182824 M400.6695232159237 222.80879025275888 C388.1944658051961 212.47458759504391, 376.56748018059443 199.14189806819766, 343.7208110073221 167.112326688986 M401.86278127736995 223.76867432466776 C388.1960684046279 210.4907156952519, 374.45036497779864 195.89410960376122, 344.29758076105384 165.96510907608618 M401.0690904981236 215.43578794794402 C388.4057832804862 203.82777170325136, 376.270168374715 190.523938399386, 344.88273218661664 157.72429104371702 M401.2262925238128 214.93476999057702 C387.70217919791514 201.41264344247716, 375.0129660128307 188.64787053401548, 344.4953050735977 158.230118506949 M401.13773469987905 206.07476951458906 C388.5026287283307 193.62318666504993, 375.34069241467967 180.40202624651758, 344.3686741331231 148.74270948475174 M401.71364848918864 206.80929327642028 C388.8313161350852 194.45632039208226, 375.3379414569726 180.55256047484528, 343.7064920249965 148.95016810657404 M401.1232707625965 197.80077157378784 C378.49443767089446 175.85968307681946, 357.8461056924921 153.88653632581114, 343.04871741324774 142.22660300818393 M401.1094377965445 198.46966727790078 C379.1555925481959 175.14124672354467, 356.0093389244686 153.20641076291474, 343.6889724257972 140.77631378316443 M401.90515425268217 189.21344012163408 C386.1850838362765 175.63917362403396, 369.6615742723583 158.62957990884775, 342.9870832183969 132.1971019851073 M401.3918037564273 189.2716354032216 C387.7965677207768 175.77711379879582, 373.1928910799961 162.31758301630293, 344.4128817740467 132.11918175742323 M402.2569813615421 181.37453052922152 C383.0283438544453 164.82898206586313, 365.79283742798214 147.55434964853237, 343.50463336497666 124.77494616161566 M400.8011943668837 181.0805113730859 C381.1638524260663 161.6837942465383, 360.6893301157943 141.0388681577132, 343.92941025529177 123.58021856255363 M402.10898890558286 173.94540754264398 C388.54589836342893 161.00996031011042, 376.7605874908359 146.9696153961126, 343.2413702943933 116.31798465880271 M400.9091123134608 172.7024292206968 C386.131285083816 157.67367201470682, 370.8003050241909 141.73975758265658, 343.63955274257927 115.38294104425874 M402.2105543262104 164.92454528299504 C388.30620628688445 150.63195002037088, 374.5332894474085 139.6791311280156, 351.90421844729167 114.84395734700081 M401.08686496920535 164.51559329175734 C388.39629174892275 150.60737950375966, 374.1331341925331 137.60757289904151, 353.0481401706947 115.08946773498025 M400.19269568983117 156.38502724636865 C392.56629739257016 146.0113382693496, 382.56707972528216 137.3772968267701, 362.0736801408395 116.71215072306511 M400.77431439466426 155.30152824447077 C391.1503787836442 146.53453388914278, 381.8745582536494 136.19146242788503, 361.1767454134464 115.57592473118272 M402.23057168785135 147.01204630385843 C393.0389705323593 138.9354523961934, 384.67964449670507 131.96023340189805, 368.32217969144295 116.21674203308937 M401.1486273378844 146.87632904954012 C394.96965968392465 140.72123445335475, 387.7056855084263 134.2543171316276, 369.08827740638117 116.11953981606929 M402.30598163667713 137.84040470155819 C394.17370949202945 131.4569612390551, 386.739814929976 123.1288633240735, 377.5912820405083 116.03901789816734 M401.3930252344126 138.5219109901686 C394.7490475063012 132.1795656747896, 387.13173587882517 124.69782522908768, 378.2704497725459 116.14461108534303 M401.069865477715 129.59201406056167 C397.34846431337104 128.17810725159143, 395.0465617664185 124.06035599648614, 386.0541927544419 116.18487431439277 M401.5655342072959 130.41725966205928 C397.5787917583426 127.27102098562482, 394.6839315060343 123.49124966106231, 386.9045308224876 115.65375694720711 M401.5716333566385 121.6240162057364 C399.92354161157226 120.49442105803388, 398.8213012331214 119.43631543114131, 395.22450920104063 115.83285221301657 M401.28495243700803 121.82934472414009 C398.6122879995098 119.48574834713175, 396.17796854709064 117.2268870297213, 395.024635189362 115.35443447429392 M401.23726820076627 268.3011933376954 C401.23726820076627 268.3011933376954, 401.23726820076627 268.3011933376954, 401.23726820076627 268.3011933376954 M401.23726820076627 268.3011933376954 C401.23726820076627 268.3011933376954, 401.23726820076627 268.3011933376954, 401.23726820076627 268.3011933376954 M400.54866606103997 259.8220252361387 C398.18588287475137 262.0737199612616, 395.1391949932669 265.047567457309, 392.88356624493355 267.9312992084341 M401.1765300513692 259.76470241724104 C399.23805627440987 261.70571041791726, 397.41748742708296 263.6113221996619, 392.91538986599056 268.32931124962283 M401.6870892918371 251.84451766641573 C395.22298524223265 257.25444135053175, 390.15146134980915 263.33427041110707, 383.39123544619576 267.6885292040125 M400.7035962105431 250.84999052373453 C397.51357278589006 254.97373329215878, 394.32035468030494 257.86380741962506, 384.78550511767315 268.4798410884977 M402.2523635900281 241.714884273344 C392.45151820034806 252.6428606761798, 383.0621515585529 260.2825429841737, 376.13313060708674 267.92705644238157 M401.21771647340427 242.26391772498312 C394.0172214559231 251.08443553165645, 386.3127715892885 257.80501937427374, 376.31450555872505 267.8773469738604 M401.7637045538686 234.76926844313851 C388.6014227272512 246.31575880757515, 375.60199951161314 261.5885628749587, 366.4725206562834 267.24133708346056 M401.02900298840177 234.79000179421266 C390.258257782649 246.07278457637037, 377.61995793372637 257.9262815116272, 367.197672984335 268.2693644635321 M402.1060364997648 226.98934742189292 C391.5225155150959 235.68575863540275, 381.92937245993687 245.62515241535425, 359.35409553519196 268.35953274834316 M401.4441146910824 225.36172051462623 C385.8422298247906 242.40702555532727, 369.92830932560054 258.2306164074531, 358.79615851755 267.78175415321596 M401.9334243691228 216.74390783070106 C385.097314641651 234.12100836798837, 368.125459299315 250.63053899566367, 351.0541858102186 269.23441443312333 M401.1945152044929 217.65962198192705 C387.6902549251084 230.15419095431986, 375.0209188172581 243.23870583795744, 350.51466796891674 268.56869695111527 M402.3315737283491 208.1263456656567 C388.06785682574565 221.46327797065985, 376.3276819297593 233.51985740003244, 342.96458301632947 265.459542165335 M401.1052228391804 209.3425746043182 C383.49198363904975 227.06255239449004, 365.550305360185 244.7515780282437, 343.591532180042 266.12262373437335 M401.6803307688497 201.0921662978535 C383.9837563398703 219.85131808001168, 364.5624436900316 235.8238191987834, 344.85503965704976 258.4067650039527 M400.9635605931915 200.27901710250282 C385.8470491173246 216.2762652363582, 369.49326732129487 231.65184812262834, 343.36745702359167 258.10546534907405 M401.316182307031 192.39648447338533 C386.48515411676794 206.14844542682354, 373.74329695565933 220.8010796799122, 345.007847143107 248.49164310074917 M401.7879061520733 191.77820850968402 C388.18952560998537 204.73424791336123, 375.3371976601598 217.8407408450288, 343.4263513419339 249.7078246715995 M400.39475578429926 182.5315243133458 C383.13715152312216 202.34339444578555, 362.8284985954807 222.1159677759538, 344.85089854090756 240.74038495181804 M401.49644188887254 184.0214781715649 C384.7460405928587 199.98385651557768, 367.19485468713344 216.69510645099655, 343.63463969561553 240.70966386015272 M401.5533192670606 174.26411931382876 C383.4002730674709 193.05161221331696, 362.83323993431094 212.8980137470507, 345.05622754185737 231.69130842825317 M400.7759048641361 175.2934757463486 C379.2104109866756 196.42053541068864, 357.22032869813665 219.16574093302273, 344.24605133268324 231.67551538543694 M400.97328144672144 167.5732123459279 C388.5993829526594 177.85222669860943, 377.03094871242087 189.4465320249686, 344.0025084623629 224.7323407761482 M401.150336825911 166.61342120473827 C383.6136094061933 183.53704307483554, 366.83475600444797 201.67086407072765, 343.3703701886842 223.1857320306552 M401.24269163968785 158.18735565573704 C380.1428109411343 180.47572830352343, 356.8426249959134 202.34809270791177, 344.6375562438303 215.43851861659698 M401.2498342097439 158.56635482993704 C385.3974208161002 174.21791114804907, 368.57302858644374 190.41752548845386, 343.442184886665 215.6677368915107 M401.41873978736623 149.3222108643499 C380.87231289746575 171.08497100703664, 360.22561553371514 191.3187088905016, 343.3408264526659 206.90948794569326 M400.87929813868175 149.93438721764804 C383.87954378365237 166.44368902854137, 367.52516254779175 182.9295820480019, 343.8896387371728 206.2272733762066 M400.2902564561628 140.61804896786018 C380.171210783613 162.3732247073722, 360.26605481136886 183.4175879473776, 343.985915280276 197.50700413453066 M400.8871844232716 140.52794927607428 C380.43314582454747 162.0547348885899, 358.54403631438254 184.18330601145627, 344.0031797382543 198.07965520544585 M400.8402128374837 132.67725033736173 C383.02947790837493 149.95543607689154, 363.57250440450946 168.90983828406507, 344.4030595430666 188.9924319292031 M401.23425356156 132.2170422259191 C381.14139741121846 152.84064309579952, 361.7659321337356 173.03080497133539, 344.0043105754563 190.18101641243172 M401.5082207477354 123.20180471894815 C380.70742740356457 145.28596307373763, 359.5547216448985 165.16912365875868, 343.24163668244427 181.4642454508042 M400.8623207390942 124.5624876003854 C381.1466668130616 143.48485703548016, 362.532783913063 163.5715816751333, 344.3143386218259 181.8595613428673 M400.65303262832384 116.33081123371335 C380.1103310243186 137.3898409450212, 358.36144295909224 157.84576464714937, 343.23266476481496 171.89552819542777 M401.7630058289207 115.84717724517645 C382.73541461037564 134.6732747254148, 362.99820907954324 153.54000229375328, 344.2231259379098 173.2468146549557 M393.729760171417 115.26325975198957 C379.60965875108235 130.4988567230981, 364.01882462665924 143.58561198246989, 343.65130248158516 163.4714730341676 M393.16120201734816 115.59260469273391 C382.11660991052315 126.79076977772058, 370.8504293961843 136.8573127836671, 343.5578392717549 163.90887131940008 M384.00821844265954 115.73968677063199 C372.36482157811406 126.72215378521383, 361.28019552573767 138.77264115808578, 343.579349149161 156.92688221311732 M384.6396699266617 115.33427103952232 C376.2082005709905 124.49225007969723, 367.6371582980026 132.26428045464442, 343.75170005890817 155.6776466194035 M374.77958175845777 115.63551953573435 C368.2473396232797 122.34915196372766, 362.607185408118 129.1749123724318, 343.96774470894877 147.88366735337078 M375.75194349240843 115.70877906874478 C367.26914352916 124.06153103932219, 358.1367124327841 133.14098600425885, 343.51273442241643 147.68212615066915 M367.9041650602179 115.81329466839045 C362.83071074761295 120.24587577311101, 356.38942148257905 124.71107079223427, 343.6990697273547 139.78834945102173 M367.37636133763516 115.39980187610448 C359.8879131863062 123.02269632550575, 351.3269039970763 130.73780030614805, 343.4925231728265 139.17961582140015 M359.87392391434616 116.26015816469403 C355.60481155389925 118.20268784323129, 353.19522948430483 122.16177991496194, 344.05004539578505 129.24955887716385 M359.18481677288867 115.16933286980452 C353.4933478781556 119.94895462750425, 348.821396503409 125.25873187276476, 344.3549518081853 130.5869918522996 M350.66279850594617 115.6827851588531 C348.93160527334277 117.1322296176164, 347.23820377973647 118.11965713318011, 344.31820549735147 121.68054021769498 M350.22924748373134 115.44139182751724 C347.87850074581195 117.72275798139533, 345.65943830410316 120.26304937074364, 344.08912263987867 121.74192714710084" stroke="#3b82f6" stroke-width="0.5" fill="none" stroke-linecap="round" stroke-linejoin="round"></path><path d="M344.5502464472388 114.66163927875459 C355.5540238011629 115.9451074205222, 367.9396740951504 116.04908825977468, 401.10073680548146 115.68941431604325 M402.5760761041768 116.59270163811743 C402.3521577726487 152.4586313830223, 402.49176292525567 187.95675145080313, 401.07752095652893 268.33716952838006 M402.08070954946953 268.45373936258255 C378.88514985490883 268.9903872848426, 355.94320382306785 269.2414647580062, 343.26992287031163 267.0622574266046 M342.8216534606253 267.04958245791494 C344.68377406844286 214.9125696337316, 343.79438942917966 160.8927691050805, 344.2630820623671 115.34961713589728" stroke="#1d4ed8" stroke-width="1.25" fill="none" stroke-linecap="round" stroke-linejoin="round"></path></g><g><g><path d="M39.27236659972859 267.5440154988015 C115.85304735451746 268.37002383837654, 190.45246728526993 268.2778106273699, 415.4339669724329 267.5437080685697" stroke="#1d4ed8" stroke-width="1.25" fill="none" stroke-linecap="round" stroke-linejoin="round"></path></g><g><g><path d="M83.0247673287386 267.7744947713986 C83.7044681082705 269.2257846018672, 83.40160208925995 270.3803697585687, 83.1046861174101 273.7743427330628" stroke="#1d4ed8" stroke-width="1.25" fill="none" stroke-linecap="round" stroke-linejoin="round"></path></g><text x="83.3846153846154" y="280" text-anchor="middle" dominant-baseline="hanging" font-family="&quot;Courier New&quot;, ui-monospace, monospace" font-size="13" fill="#1d4ed8">Mon</text></g><g><g><path d="M155.3324596364309 267.7744947713986 C156.0121604159628 269.2257846018672, 155.70929439695226 270.3803697585687, 155.41237842510242 273.7743427330628" stroke="#1d4ed8" stroke-width="1.25" fill="none" stroke-linecap="round" stroke-linejoin="round"></path></g><text x="155.6923076923077" y="280" text-anchor="middle" dominant-baseline="hanging" font-family="&quot;Courier New&quot;, ui-monospace, monospace" font-size="13" fill="#1d4ed8">Tue</text></g><g><g><path d="M227.64015194412323 267.7744947713986 C228.31985272365512 269.2257846018672, 228.01698670464458 270.3803697585687, 227.72007073279474 273.7743427330628" stroke="#1d4ed8" stroke-width="1.25" fill="none" stroke-linecap="round" stroke-linejoin="round"></path></g><text x="228.00000000000003" y="280" text-anchor="middle" dominant-baseline="hanging" font-family="&quot;Courier New&quot;, ui-monospace, monospace" font-size="13" fill="#1d4ed8">Wed</text></g><g><g><path d="M299.94784425181547 267.7744947713986 C300.6275450313474 269.2257846018672, 300.32467901233684 270.3803697585687, 300.02776304048695 273.7743427330628" stroke="#1d4ed8" stroke-width="1.25" fill="none" stroke-linecap="round" stroke-linejoin="round"></path></g><text x="300.30769230769226" y="280" text-anchor="middle" dominant-baseline="hanging" font-family="&quot;Courier New&quot;, ui-monospace, monospace" font-size="13" fill="#1d4ed8">Thu</text></g><g><g><path d="M372.25553655950785 267.7744947713986 C372.93523733903976 269.2257846018672, 372.6323713200292 270.3803697585687, 372.3354553481793 273.7743427330628" stroke="#1d4ed8" stroke-width="1.25" fill="none" stroke-linecap="round" stroke-linejoin="round"></path></g><text x="372.61538461538464" y="280" text-anchor="middle" dominant-baseline="hanging" font-family="&quot;Courier New&quot;, ui-monospace, monospace" font-size="13" fill="#1d4ed8">Fri</text></g></g><g><g><path d="M39.008456914332996 23.378631768187102 C40.965975641105096 72.8782063577271, 40.13144367093317 121.56022625173865, 39.22866908729868 267.3782128342561" stroke="#1d4ed8" stroke-width="1.25" fill="none" stroke-linecap="round" stroke-linejoin="round"></path></g><g><g><path d="M39.64015194412321 267.7744947713986 C39.11692136734724 268.0172235555559, 37.6138665336743 267.971619897595, 33.7200707327947 267.7743427330628" stroke="#1d4ed8" stroke-width="1.25" fill="none" stroke-linecap="round" stroke-linejoin="round"></path></g><text x="30" y="268" text-anchor="end" dominant-baseline="central" font-family="&quot;Courier New&quot;, ui-monospace, monospace" font-size="13" fill="#1d4ed8">0</text></g><g><g><path d="M39.64015194412321 216.94116143806525 C39.11692136734724 217.1838902222226, 37.6138665336743 217.1382865642617, 33.7200707327947 216.94100939972947" stroke="#1d4ed8" stroke-width="1.25" fill="none" stroke-linecap="round" stroke-linejoin="round"></path></g><text x="30" y="217.16666666666666" text-anchor="end" dominant-baseline="central" font-family="&quot;Courier New&quot;, ui-monospace, monospace" font-size="13" fill="#1d4ed8">5</text></g><g><g><path d="M39.64015194412321 166.1078281047319 C39.11692136734724 166.35055688888926, 37.6138665336743 166.30495323092836, 33.7200707327947 166.10767606639612" stroke="#1d4ed8" stroke-width="1.25" fill="none" stroke-linecap="round" stroke-linejoin="round"></path></g><text x="30" y="166.33333333333331" text-anchor="end" dominant-baseline="central" font-family="&quot;Courier New&quot;, ui-monospace, monospace" font-size="13" fill="#1d4ed8">10</text></g><g><g><path d="M39.64015194412321 115.27449477139861 C39.11692136734724 115.51722355555594, 37.6138665336743 115.47161989759505, 33.7200707327947 115.27434273306281" stroke="#1d4ed8" stroke-width="1.25" fill="none" stroke-linecap="round" stroke-linejoin="round"></path></g><text x="30" y="115.5" text-anchor="end" dominant-baseline="central" font-family="&quot;Courier New&quot;, ui-monospace, monospace" font-size="13" fill="#1d4ed8">15</text></g><g><g><path d="M39.64015194412321 64.44116143806527 C39.11692136734724 64.6838902222226, 37.6138665336743 64.6382865642617, 33.7200707327947 64.44100939972947" stroke="#1d4ed8" stroke-width="1.25" fill="none" stroke-linecap="round" stroke-linejoin="round"></path></g><text x="30" y="64.66666666666666" text-anchor="end" dominant-baseline="central" font-family="&quot;Courier New&quot;, ui-monospace, monospace" font-size="13" fill="#1d4ed8">20</text></g></g></svg>